<svg xmlns="http://www.w3.org/2000/svg" xmlns:xlink="http://www.w3.org/1999/xlink" viewBox="0 0 1920 601.18"><defs><style>.cls-1{opacity:0.91;fill:url(#linear-gradient);}.cls-2{fill:#162640;}.cls-3{fill:#ffd4f2;}.cls-4{opacity:0.5;}.cls-5{fill:#3a4d8a;}.cls-6{fill:#2c4172;}.cls-7{fill:#c1467f;}.cls-8{fill:#ceebf2;}.cls-9{fill:#ff9e73;}.cls-10{fill:#67c9ef;}.cls-11{fill:#1a2e4f;}.cls-12,.cls-13{fill:#fff;}.cls-13{opacity:0.28;}.cls-14{fill:#aa0051;}.cls-15{fill:#f34681;}.cls-16{fill:#872e68;}.cls-17{fill:#f3feff;}.cls-18{fill:url(#Áåçûìÿííûé_ãðàäèåíò_203);}.cls-19{fill:#ffd65a;}.cls-20{fill:#ffd685;}.cls-21{fill:url(#Áåçûìÿííûé_ãðàäèåíò_203-2);}.cls-22{fill:url(#Áåçûìÿííûé_ãðàäèåíò_203-3);}.cls-23{fill:url(#Áåçûìÿííûé_ãðàäèåíò_203-4);}.cls-24{fill:url(#Áåçûìÿííûé_ãðàäèåíò_203-5);}.cls-25{fill:#ffedca;}.cls-26{fill:url(#Áåçûìÿííûé_ãðàäèåíò_203-6);}.cls-27{fill:url(#Áåçûìÿííûé_ãðàäèåíò_203-7);}.cls-28{fill:#ffedc0;}.cls-29{fill:#a13c79;}.cls-30{fill:#52382f;}.cls-31{fill:#ea8a63;}.cls-32{fill:#708380;}.cls-33{fill:#ffe4dc;}.cls-34{fill:#ff9f73;}</style><linearGradient id="linear-gradient" y1="300.59" x2="1920" y2="300.59" gradientUnits="userSpaceOnUse"><stop offset="0" stop-color="#c1467f"/><stop offset="0.23" stop-color="#a64781"/><stop offset="0.73" stop-color="#624b87"/><stop offset="1" stop-color="#3a4d8a"/></linearGradient><linearGradient id="Áåçûìÿííûé_ãðàäèåíò_203" x1="1787.9" y1="349.64" x2="1881.18" y2="349.64" gradientTransform="translate(-604.98 86.44) rotate(-0.29)" gradientUnits="userSpaceOnUse"><stop offset="0" stop-color="#f2bf40"/><stop offset="0.68" stop-color="#f2bf40"/><stop offset="0.87" stop-color="#f7ba40"/><stop offset="1" stop-color="#ffb340"/></linearGradient><linearGradient id="Áåçûìÿííûé_ãðàäèåíò_203-2" x1="1787.9" y1="334.91" x2="1881.18" y2="334.91" xlink:href="#Áåçûìÿííûé_ãðàäèåíò_203"/><linearGradient id="Áåçûìÿííûé_ãðàäèåíò_203-3" x1="1787.9" y1="320.18" x2="1881.18" y2="320.18" xlink:href="#Áåçûìÿííûé_ãðàäèåíò_203"/><linearGradient id="Áåçûìÿííûé_ãðàäèåíò_203-4" x1="1778.53" y1="303.22" x2="1871.82" y2="303.22" xlink:href="#Áåçûìÿííûé_ãðàäèåíò_203"/><linearGradient id="Áåçûìÿííûé_ãðàäèåíò_203-5" x1="1769.26" y1="288.25" x2="1862.54" y2="288.25" xlink:href="#Áåçûìÿííûé_ãðàäèåíò_203"/><linearGradient id="Áåçûìÿííûé_ãðàäèåíò_203-6" x1="1214.61" y1="346.19" x2="1297.94" y2="346.19" gradientTransform="translate(28.81 86.08) rotate(-1.74)" xlink:href="#Áåçûìÿííûé_ãðàäèåíò_203"/><linearGradient id="Áåçûìÿííûé_ãðàäèåíò_203-7" x1="1242.74" y1="347.94" x2="1271.45" y2="347.94" gradientTransform="translate(28.81 86.08) rotate(-1.74)" xlink:href="#Áåçûìÿííûé_ãðàäèåíò_203"/></defs><g id="Layer_2" data-name="Layer 2"><g id="Layer_1-2" data-name="Layer 1"><rect class="cls-1" width="1920" height="601.18"/><rect class="cls-2" x="1141.66" y="282.5" width="76.24" height="23.41" rx="11.7"/><rect class="cls-2" x="1166.73" y="318.62" width="76.24" height="23.41" rx="11.7"/><rect class="cls-2" x="1118.25" y="319.29" width="32.1" height="23.41" rx="11.7"/><path class="cls-3" d="M487.85,96.17c0,.68-5,1.23-11.08,1.23s-11.08-.55-11.08-1.23,5-1.23,11.08-1.23S487.85,95.49,487.85,96.17Z"/><path class="cls-3" d="M499.61,66c.68,0,1.23,5,1.23,11.24s-.55,11.25-1.23,11.25-1.22-5-1.22-11.25S498.94,66,499.61,66Z"/><path class="cls-3" d="M512.14,95.45c0-.68,5-1.23,11.08-1.23s11.08.55,11.08,1.23-5,1.22-11.08,1.22S512.14,96.13,512.14,95.45Z"/><path class="cls-3" d="M500.38,125.58c-.68,0-1.23-5-1.23-11.24s.55-11.24,1.23-11.24,1.22,5,1.22,11.24S501.05,125.58,500.38,125.58Z"/><path class="cls-3" d="M518.28,112.66c-.52.43-2.7-1.33-4.87-3.93s-3.52-5.07-3-5.5,2.7,1.32,4.88,3.93S518.8,112.22,518.28,112.66Z"/><path class="cls-3" d="M517.25,78.48c.48.48-1,2.71-3.22,5s-4.48,3.74-5,3.26,1-2.71,3.22-5S516.77,78,517.25,78.48Z"/><path class="cls-3" d="M491.86,87.19c-.44.52-2.53-.51-4.68-2.3s-3.54-3.66-3.11-4.18,2.53.51,4.68,2.3S492.29,86.67,491.86,87.19Z"/><path class="cls-3" d="M490.86,102.25c.5.46-.76,2.65-2.81,4.9s-4.11,3.7-4.62,3.25.76-2.65,2.81-4.9S490.36,101.8,490.86,102.25Z"/><path class="cls-3" d="M1112.94,37.86c0,.38-2.82.69-6.29.69s-6.29-.31-6.29-.69,2.82-.7,6.29-.7S1112.94,37.47,1112.94,37.86Z"/><path class="cls-3" d="M1119.62,20.75c.38,0,.69,2.86.69,6.38s-.31,6.38-.69,6.38-.7-2.85-.7-6.38S1119.23,20.75,1119.62,20.75Z"/><path class="cls-3" d="M1126.73,37.45c0-.39,2.82-.7,6.29-.7s6.29.31,6.29.7-2.81.69-6.29.69S1126.73,37.83,1126.73,37.45Z"/><path class="cls-3" d="M1120.05,54.56c-.38,0-.69-2.86-.69-6.38s.31-6.39.69-6.39.7,2.86.7,6.39S1120.44,54.56,1120.05,54.56Z"/><path class="cls-3" d="M1130.22,47.22c-.3.25-1.54-.75-2.77-2.23s-2-2.88-1.7-3.13,1.53.76,2.77,2.24S1130.51,47,1130.22,47.22Z"/><path class="cls-3" d="M1129.63,27.82c.27.27-.54,1.54-1.83,2.83s-2.54,2.12-2.81,1.85.54-1.54,1.83-2.83S1129.36,27.55,1129.63,27.82Z"/><path class="cls-3" d="M1115.21,32.76c-.24.3-1.43-.29-2.65-1.3s-2-2.08-1.77-2.38,1.44.29,2.66,1.31S1115.46,32.46,1115.21,32.76Z"/><path class="cls-3" d="M1114.65,41.31c.28.26-.43,1.5-1.59,2.78s-2.34,2.1-2.63,1.85.43-1.51,1.6-2.79S1114.36,41.05,1114.65,41.31Z"/><path class="cls-3" d="M827.23,181c0,.3-2.16.54-4.82.54s-4.82-.24-4.82-.54,2.16-.53,4.82-.53S827.23,180.66,827.23,181Z"/><path class="cls-3" d="M832.35,167.84c.3,0,.54,2.19.54,4.89s-.24,4.89-.54,4.89-.53-2.19-.53-4.89S832.06,167.84,832.35,167.84Z"/><path class="cls-3" d="M837.81,180.64c0-.29,2.15-.53,4.82-.53s4.82.24,4.82.53-2.16.53-4.82.53S837.81,180.93,837.81,180.64Z"/><path class="cls-3" d="M832.69,193.76c-.3,0-.54-2.2-.54-4.9s.24-4.89.54-4.89.53,2.19.53,4.89S833,193.76,832.69,193.76Z"/><path class="cls-3" d="M840.48,188.13c-.23.19-1.18-.58-2.13-1.71s-1.53-2.21-1.3-2.4,1.18.58,2.12,1.72S840.7,187.94,840.48,188.13Z"/><path class="cls-3" d="M840,173.26c.21.2-.42,1.18-1.4,2.17s-2,1.62-2.16,1.42.42-1.18,1.4-2.17S839.82,173.05,840,173.26Z"/><path class="cls-3" d="M829,177.05c-.19.22-1.1-.23-2-1s-1.54-1.6-1.35-1.82,1.1.22,2,1S829.16,176.82,829,177.05Z"/><path class="cls-3" d="M828.54,183.6c.22.2-.33,1.15-1.22,2.13s-1.79,1.61-2,1.42.33-1.16,1.22-2.14S828.32,183.4,828.54,183.6Z"/><path class="cls-3" d="M1083.36,201.35c0,.38-2.82.69-6.29.69s-6.29-.31-6.29-.69,2.82-.7,6.29-.7S1083.36,201,1083.36,201.35Z"/><path class="cls-3" d="M1090,184.24c.38,0,.69,2.86.69,6.38s-.31,6.38-.69,6.38-.7-2.85-.7-6.38S1089.65,184.24,1090,184.24Z"/><path class="cls-3" d="M1097.15,200.94c0-.39,2.82-.7,6.29-.7s6.29.31,6.29.7-2.81.69-6.29.69S1097.15,201.32,1097.15,200.94Z"/><path class="cls-3" d="M1090.47,218.05c-.38,0-.69-2.86-.69-6.38s.31-6.39.69-6.39.7,2.86.7,6.39S1090.86,218.05,1090.47,218.05Z"/><path class="cls-3" d="M1100.64,210.71c-.3.25-1.54-.75-2.77-2.23s-2-2.88-1.7-3.13,1.53.76,2.77,2.24S1100.93,210.46,1100.64,210.71Z"/><path class="cls-3" d="M1100.05,191.31c.27.27-.54,1.54-1.83,2.83s-2.54,2.12-2.81,1.85.54-1.54,1.83-2.83S1099.78,191,1100.05,191.31Z"/><path class="cls-3" d="M1085.63,196.25c-.24.3-1.43-.29-2.65-1.3s-2-2.08-1.77-2.38,1.44.29,2.66,1.31S1085.88,196,1085.63,196.25Z"/><path class="cls-3" d="M1085.07,204.8c.28.26-.43,1.51-1.59,2.78s-2.34,2.11-2.63,1.85.43-1.51,1.6-2.79S1084.79,204.54,1085.07,204.8Z"/><path class="cls-3" d="M751.82,39l.82,2a14,14,0,0,0,7.61,7.54l2.13.86-2,.83a13.9,13.9,0,0,0-7.66,7.69l-.58,1.43-.86-1.8a13.92,13.92,0,0,0-7.77-7l-1.86-.68L744,48.58a13.85,13.85,0,0,0,6.77-7.17Z"/><path class="cls-3" d="M432.31,186.18l.54,1.31a9.24,9.24,0,0,0,5.06,5l1.42.58-1.36.55a9.21,9.21,0,0,0-5.1,5.11l-.39.95-.57-1.2a9.27,9.27,0,0,0-5.16-4.68l-1.24-.45,1.62-.78a9.27,9.27,0,0,0,4.5-4.77Z"/><path class="cls-3" d="M1237.41,59.28l.54,1.3a9.26,9.26,0,0,0,5.06,5l1.42.57-1.36.55a9.3,9.3,0,0,0-5.1,5.11l-.38,1-.58-1.19a9.17,9.17,0,0,0-5.16-4.68l-1.24-.45,1.62-.79a9.25,9.25,0,0,0,4.5-4.76Z"/><path class="cls-3" d="M798.69,377.8l3,7.32,7.51,3.05-2,.83a13.92,13.92,0,0,0-7.67,7.69l-.58,1.43-.86-1.8a13.92,13.92,0,0,0-7.77-7l-1.86-.68,2.43-1.18a13.87,13.87,0,0,0,6.77-7.16Z"/><path class="cls-3" d="M903.69,27.06l.38.92a6.54,6.54,0,0,0,3.57,3.53l1,.41-1,.39a6.54,6.54,0,0,0-3.6,3.61l-.27.67-.4-.85a6.54,6.54,0,0,0-3.65-3.3l-.87-.32,1.14-.55a6.51,6.51,0,0,0,3.18-3.36Z"/><path class="cls-3" d="M650.08,177.86l.49,1.19a8.41,8.41,0,0,0,4.6,4.55l1.29.52-1.24.51a8.37,8.37,0,0,0-4.63,4.64l-.35.86-.52-1.08a8.39,8.39,0,0,0-4.69-4.26l-1.12-.41,1.46-.71a8.31,8.31,0,0,0,4.09-4.33Z"/><path class="cls-3" d="M254.27,70.77c0,.38-2.82.69-6.29.69s-6.29-.31-6.29-.69,2.81-.7,6.29-.7S254.27,70.38,254.27,70.77Z"/><path class="cls-3" d="M260.94,53.66c.39,0,.7,2.86.7,6.38s-.31,6.38-.7,6.38-.69-2.86-.69-6.38S260.56,53.66,260.94,53.66Z"/><path class="cls-3" d="M268.06,70.36c0-.39,2.81-.7,6.29-.7s6.29.31,6.29.7-2.82.69-6.29.69S268.06,70.74,268.06,70.36Z"/><path class="cls-3" d="M261.38,87.47c-.39,0-.7-2.86-.7-6.39s.31-6.38.7-6.38.7,2.86.7,6.38S261.76,87.47,261.38,87.47Z"/><path class="cls-3" d="M271.55,80.13c-.3.24-1.54-.76-2.77-2.23s-2-2.88-1.71-3.13,1.54.76,2.77,2.23S271.84,79.88,271.55,80.13Z"/><path class="cls-3" d="M271,60.73c.27.27-.55,1.53-1.83,2.83s-2.54,2.12-2.82,1.85.55-1.54,1.83-2.83S270.68,60.46,271,60.73Z"/><path class="cls-3" d="M256.54,65.67c-.25.29-1.43-.29-2.65-1.31s-2-2.07-1.77-2.37,1.43.29,2.66,1.3S256.79,65.37,256.54,65.67Z"/><path class="cls-3" d="M256,74.22c.29.26-.42,1.5-1.59,2.78s-2.34,2.1-2.62,1.84.43-1.5,1.59-2.78S255.69,74,256,74.22Z"/><path class="cls-3" d="M1383.53,83.06c0,.68-5,1.23-11.08,1.23s-11.08-.55-11.08-1.23,5-1.22,11.08-1.22S1383.53,82.38,1383.53,83.06Z"/><path class="cls-3" d="M1395.29,52.93c.68,0,1.23,5,1.23,11.24s-.55,11.24-1.23,11.24-1.23-5-1.23-11.24S1394.61,52.93,1395.29,52.93Z"/><path class="cls-3" d="M1407.82,82.34c0-.68,5-1.23,11.08-1.23s11.08.55,11.08,1.23-5,1.23-11.08,1.23S1407.82,83,1407.82,82.34Z"/><path class="cls-3" d="M1396.06,112.47c-.68,0-1.23-5-1.23-11.24s.55-11.24,1.23-11.24,1.22,5,1.22,11.24S1396.73,112.47,1396.06,112.47Z"/><path class="cls-3" d="M1414,99.55c-.52.43-2.7-1.33-4.88-3.93s-3.51-5.07-3-5.5,2.7,1.32,4.87,3.93S1414.48,99.12,1414,99.55Z"/><path class="cls-3" d="M1412.93,65.37c.48.48-1,2.71-3.22,5s-4.48,3.74-5,3.26,1-2.71,3.22-5S1412.45,64.9,1412.93,65.37Z"/><path class="cls-3" d="M1387.53,74.08c-.43.52-2.52-.51-4.67-2.3s-3.55-3.66-3.11-4.18,2.52.51,4.67,2.3S1388,73.56,1387.53,74.08Z"/><path class="cls-3" d="M1386.54,89.14c.5.46-.76,2.65-2.81,4.9s-4.12,3.71-4.62,3.25.76-2.65,2.81-4.9S1386,88.69,1386.54,89.14Z"/><path class="cls-3" d="M1722.91,167.85c0,.29-2.16.53-4.82.53s-4.82-.24-4.82-.53,2.16-.54,4.82-.54S1722.91,167.55,1722.91,167.85Z"/><path class="cls-3" d="M1728,154.73c.29,0,.53,2.19.53,4.89s-.24,4.89-.53,4.89-.53-2.19-.53-4.89S1727.74,154.73,1728,154.73Z"/><path class="cls-3" d="M1733.48,167.53c0-.29,2.16-.53,4.82-.53s4.83.24,4.83.53-2.16.54-4.83.54S1733.48,167.83,1733.48,167.53Z"/><path class="cls-3" d="M1728.36,180.65c-.29,0-.53-2.19-.53-4.9s.24-4.89.53-4.89.54,2.19.54,4.89S1728.66,180.65,1728.36,180.65Z"/><path class="cls-3" d="M1736.16,175c-.23.19-1.18-.58-2.13-1.71s-1.53-2.2-1.3-2.39,1.17.57,2.12,1.71S1736.38,174.83,1736.16,175Z"/><path class="cls-3" d="M1735.7,160.15c.21.21-.41,1.18-1.4,2.17s-2,1.63-2.15,1.42.41-1.18,1.4-2.17S1735.5,159.94,1735.7,160.15Z"/><path class="cls-3" d="M1724.65,163.94c-.18.22-1.1-.22-2-1s-1.54-1.6-1.36-1.82,1.1.22,2,1S1724.84,163.71,1724.65,163.94Z"/><path class="cls-3" d="M1724.22,170.49c.22.2-.33,1.16-1.22,2.13s-1.79,1.62-2,1.42.33-1.16,1.22-2.13S1724,170.29,1724.22,170.49Z"/><path class="cls-3" d="M1647.5,25.85l.82,2a13.93,13.93,0,0,0,7.61,7.54l2.13.86-2,.83a14,14,0,0,0-7.67,7.69l-.57,1.43-.87-1.8a13.94,13.94,0,0,0-7.76-7l-1.86-.68,2.43-1.17a14,14,0,0,0,6.77-7.17Z"/><path class="cls-3" d="M1328,173.08l.54,1.3a9.24,9.24,0,0,0,5.06,5l1.41.58-1.36.55a9.19,9.19,0,0,0-5.09,5.11l-.39,1-.57-1.2a9.3,9.3,0,0,0-5.16-4.68l-1.24-.45,1.61-.78a9.25,9.25,0,0,0,4.51-4.77Z"/><path class="cls-3" d="M1694.36,364.7l3.05,7.32,7.51,3-2,.83a14,14,0,0,0-7.67,7.69l-.58,1.43-.86-1.79a13.94,13.94,0,0,0-7.77-7.05l-1.86-.68,2.43-1.17a13.93,13.93,0,0,0,6.77-7.17Z"/><path class="cls-3" d="M1799.37,14l.38.92a6.55,6.55,0,0,0,3.57,3.54l1,.4-1,.39a6.54,6.54,0,0,0-3.6,3.61l-.27.67-.4-.84a6.52,6.52,0,0,0-3.65-3.31l-.87-.32,1.14-.55a6.56,6.56,0,0,0,3.18-3.36Z"/><path class="cls-3" d="M1545.76,164.75l.49,1.19a8.38,8.38,0,0,0,4.6,4.55l1.28.52-1.23.51a8.37,8.37,0,0,0-4.63,4.64l-.35.86-.52-1.08a8.39,8.39,0,0,0-4.69-4.26l-1.13-.41,1.47-.71a8.35,8.35,0,0,0,4.09-4.33Z"/><path class="cls-3" d="M378.74,92.19l.54,1.3a9.21,9.21,0,0,0,5.06,5l1.41.58-1.36.55a9.22,9.22,0,0,0-5.09,5.11l-.39,1-.57-1.19a9.23,9.23,0,0,0-5.16-4.68l-1.24-.45,1.62-.79a9.25,9.25,0,0,0,4.5-4.76Z"/><path class="cls-3" d="M45,60l.38.92A6.49,6.49,0,0,0,49,64.42l1,.41-1,.39a6.49,6.49,0,0,0-3.6,3.6l-.27.68-.41-.85a6.49,6.49,0,0,0-3.64-3.3L40.22,65l1.14-.55a6.58,6.58,0,0,0,3.18-3.37Z"/><g class="cls-4"><path class="cls-5" d="M760,600.16c-.7,0-1.4,0-2.1,0h-.13c-4.62-.06-9.19-.11-13.8-.22a38.45,38.45,0,0,0-4.31.16c-2.06-.24-4.13-.44-6.2-.49a50.49,50.49,0,0,0-5.68.36c-.22,0-.44,0-.65,0-6.38,0-12.75-.11-19.12-.22a41.75,41.75,0,0,0-8.34.7l-144.74.06C614.5,546.61,702,520.45,788.5,521c63.2.36,129.13,16.54,187.87-3.45,54.36-18.49,88.85-63.41,131.15-98,64.83-53.06,153.84-83.78,243.45-84,60.8-.16,127.76,11.82,177.9-17.69,33.86-19.91,51.16-54.21,74.93-82.92,69.66-84.17,203.8-119.27,316-82.06l.16,447.09-1104.36.45a27.27,27.27,0,0,0-5.62-.12q-.88.09-1.77.12h-4c-2.95-.09-5.92-.33-8.87-.33-4.26,0-8.52,0-12.79-.09-4.88-.24-9.76-.45-14.65-.46A46.55,46.55,0,0,0,760,600.16Z"/></g><path class="cls-6" d="M1793.92,92.54c.62,2.79-1.13,5.78-4.42,7.58L1775.23,108a78.5,78.5,0,0,1-5.42,30.34l10.68,12.31c2.45,2.81,3.07,6.23,1.52,8.64l-4.81,7.51c-1.53,2.39-4.88,3.28-8.47,2.24l-15.58-4.53a79.34,79.34,0,0,1-25.37,17.75l-1.13,16.11c-.26,3.71-2.25,6.56-5,7.16l-8.7,1.91c-2.79.62-5.78-1.12-7.57-4.41l-7.76-14.08a79.1,79.1,0,0,1-30.7-5.4l-12,10.47c-2.82,2.45-6.26,3.06-8.64,1.51l-7.52-4.81c-2.38-1.52-3.27-4.87-2.23-8.46l4.42-15.22a79,79,0,0,1-18-25.75l-15.75-1.11c-3.72-.27-6.57-2.26-7.19-5.05l-1.91-8.7c-.6-2.79,1.15-5.77,4.43-7.57l13.8-7.6a79.11,79.11,0,0,1,5.54-31l-10.32-11.89c-2.46-2.81-3.07-6.25-1.52-8.64l4.81-7.51c1.53-2.39,4.87-3.28,8.47-2.24l15.17,4.42a78.64,78.64,0,0,1,25.79-17.87l1.11-15.88c.27-3.71,2.26-6.56,5-7.18l8.7-1.91c2.79-.61,5.78,1.14,7.57,4.43l7.7,14A79.21,79.21,0,0,1,1725,35.5L1737.12,25c2.82-2.45,6.23-3.06,8.64-1.51l7.51,4.8c2.39,1.53,3.28,4.88,2.24,8.47L1751,52.29a78.61,78.61,0,0,1,17.62,25.38l16.24,1.13c3.71.26,6.56,2.25,7.16,5Zm-91.55,47.15a31,31,0,1,0-36.87-23.61A31,31,0,0,0,1702.37,139.69Z"/><path class="cls-6" d="M1843,211c1.07,1.62.68,3.94-1,5.88l-7.18,8.46a53.39,53.39,0,0,1,3.9,20.61l9.78,5.25c2.24,1.19,3.46,3.22,3.06,5.13l-1.24,5.94c-.4,1.89-2.31,3.27-4.85,3.48l-11,.89a54.06,54.06,0,0,1-11.84,17.44l3.18,10.52c.73,2.43.16,4.72-1.47,5.78l-5.08,3.32c-1.62,1.07-3.94.69-5.88-1l-8.35-7.08a53.86,53.86,0,0,1-20.84,4l-5.13,9.58c-1.19,2.24-3.23,3.46-5.13,3.05l-5.94-1.24c-1.89-.39-3.27-2.31-3.48-4.84l-.86-10.75a53.91,53.91,0,0,1-17.7-12l-10.29,3.11c-2.43.73-4.72.15-5.79-1.47l-3.33-5.08c-1-1.62-.67-3.95,1-5.89l6.94-8.17a53.76,53.76,0,0,1-4-21.07l-9.45-5.07c-2.24-1.2-3.46-3.24-3-5.13l1.24-5.94c.39-1.89,2.31-3.27,4.84-3.48l10.73-.86a53.59,53.59,0,0,1,12.08-17.62l-3.14-10.37c-.73-2.43-.15-4.72,1.47-5.8l5.08-3.32c1.62-1.06,4-.67,5.89,1l8.28,7a53.87,53.87,0,0,1,20.86-3.89l5.17-9.65c1.2-2.24,3.23-3.46,5.13-3.06l6,1.25c1.89.39,3.26,2.3,3.47,4.84l.89,11a53.7,53.7,0,0,1,17.36,11.88l10.6-3.21c2.43-.73,4.73-.15,5.78,1.47Zm-46.84,52.17a21.08,21.08,0,1,0-29.17-6.1A21.1,21.1,0,0,0,1796.12,263.18Z"/><rect class="cls-7" x="1082.34" y="192.17" width="82.64" height="25.37" rx="11.7"/><rect class="cls-7" x="1109.52" y="231.32" width="82.64" height="25.37" rx="11.7"/><rect class="cls-7" x="1056.96" y="232.04" width="34.8" height="25.37" rx="11.7"/><polygon class="cls-2" points="1537.02 97.84 1263.28 427.29 1394.64 427.29 1643.23 97.84 1537.02 97.84"/><path class="cls-2" d="M1709.27,111.36a13.53,13.53,0,0,0-13.52-13.52h-52.52L1394.64,427.29h89l225.64-312.92Z"/><path class="cls-2" d="M1483.63,427.29h212.12a13.52,13.52,0,0,0,13.52-13.52V114.37Z"/><path class="cls-2" d="M1383.94,97.84l-177.47,204v111.9A13.52,13.52,0,0,0,1220,427.29h43.28L1537,97.84Z"/><path class="cls-2" d="M1220,97.84a13.52,13.52,0,0,0-13.52,13.52V301.87l177.47-204Z"/><polygon class="cls-8" points="1633.03 111.36 1525.79 111.36 1372.17 111.36 1219.99 111.36 1219.99 286.33 1219.99 393.15 1291.64 393.15 1420.4 393.15 1508.25 393.15 1695.75 393.15 1695.75 133.12 1695.75 111.36 1633.03 111.36"/><path class="cls-9" d="M1399,176.81c-.6,0-.24.19,0,0Z"/><path class="cls-2" d="M1786,466.68H1127.93a15.84,15.84,0,0,1-15.83-15.84V443h689.77v7.85A15.84,15.84,0,0,1,1786,466.68Z"/><polygon class="cls-5" points="1801.87 442.99 1112.1 442.99 1212.3 425.51 1704 425.51 1801.87 442.99"/><rect class="cls-10" x="1235.6" y="402.6" width="39.62" height="11.65" rx="5.37"/><rect class="cls-5" x="1626.67" y="406.87" width="49.71" height="6.21" rx="2.87"/><circle class="cls-11" cx="1514.78" cy="150.52" r="30.93"/><path class="cls-12" d="M1530.69,154.37v0a5.25,5.25,0,0,0-4.18-5c-.47-.13-1-.22-1.43-.36a18.38,18.38,0,0,1-3.66-1.16c-3-1.62-3.17-2.72-1.5-5.21a9.32,9.32,0,0,0,3.34-7.27c0-5-3.63-9-8.09-9s-8.09,4-8.09,9a9.28,9.28,0,0,0,3.64,7.52,10.26,10.26,0,0,1,.78,1.51,1.72,1.72,0,0,1-.4,2,6.86,6.86,0,0,1-3.16,2c-1.29.37-2.59.68-3.9,1a5.29,5.29,0,0,0-4.23,4.94,2.17,2.17,0,0,0,2.15,2.38h26.59A2.15,2.15,0,0,0,1530.69,154.37Z"/><rect class="cls-12" x="1500.19" y="159.84" width="30.34" height="2.63"/><rect class="cls-12" x="1500.19" y="165.1" width="15.47" height="2.63"/><rect class="cls-12" x="1500.19" y="170.36" width="25.18" height="2.63"/><path class="cls-13" d="M1220,286.33V393.15h71.65l105.44-126.88c-23.15-35-47.48-69.38-66.67-106.89Z"/><path class="cls-14" d="M1508.72,98.15H1390.2V50.74h79.5c22.59-.05,39,17.48,39,39Z"/><path class="cls-15" d="M1345.6,50.74h94.64a0,0,0,0,1,0,0v174.9A83.22,83.22,0,0,1,1357,308.86h-14a83.22,83.22,0,0,1-83.22-83.22V136.51a85.77,85.77,0,0,1,85.77-85.77Z"/><path class="cls-15" d="M1470.07,50.75h-30v30A30,30,0,0,1,1470.07,50.75Z"/><rect class="cls-12" x="1281.59" y="144.35" width="134.32" height="7.24"/><rect class="cls-12" x="1281.59" y="164.76" width="54.49" height="7.24"/><rect class="cls-12" x="1348.59" y="164.76" width="67.33" height="7.24"/><rect class="cls-12" x="1281.59" y="185.17" width="134.32" height="7.24"/><rect class="cls-12" x="1383.65" y="205.58" width="32.26" height="7.24"/><rect class="cls-12" x="1281.92" y="205.58" width="89.06" height="7.24"/><rect class="cls-12" x="1281.59" y="226" width="134.32" height="7.24"/><rect class="cls-12" x="1281.59" y="246.41" width="36.87" height="7.24"/><rect class="cls-12" x="1333.45" y="246.41" width="82.14" height="7.24"/><path class="cls-12" d="M1304.24,122.1V83.89H1316a12.13,12.13,0,0,1,5.66,1.11,8.6,8.6,0,0,1,3.42,3.45,10.38,10.38,0,0,1,1.33,5.18,9.78,9.78,0,0,1-1.15,4.74,8.83,8.83,0,0,1-3.23,3.39,8.41,8.41,0,0,1,4.29,3.38,10.44,10.44,0,0,1,1.57,5.88,12.5,12.5,0,0,1-1.42,6.08,8.72,8.72,0,0,1-3.79,3.81,14.75,14.75,0,0,1-6.51,1.19Zm4.14-22.15h6.79a13.39,13.39,0,0,0,3.79-.37,4.7,4.7,0,0,0,2.49-1.84,6.16,6.16,0,0,0,.88-3.5,6.75,6.75,0,0,0-.8-3.43,4.25,4.25,0,0,0-2.12-1.89,14.73,14.73,0,0,0-4.73-.52h-6.3Zm0,17.64h7.81a11.51,11.51,0,0,0,3.81-.47,5.19,5.19,0,0,0,2.7-2.23,7.44,7.44,0,0,0,.93-3.89,7,7,0,0,0-.89-3.66,5.31,5.31,0,0,0-2.39-2.19,12,12,0,0,0-4.71-.69h-7.26Z"/><path class="cls-12" d="M1334.37,122.1V83.89h4.14V122.1Z"/><path class="cls-12" d="M1345.49,122.1V83.89h4.15v33.7h15.43v4.51Z"/><path class="cls-12" d="M1369.83,122.1V83.89H1374v33.7h15.43v4.51Z"/><path class="cls-16" d="M1663.75,193.63l-166.66-.07a7,7,0,0,0-7,7v15.16l180.67-.66V200.63A7,7,0,0,0,1663.75,193.63Z"/><polygon class="cls-2" points="1670.74 215.06 1490.07 215.72 1490.07 234.14 1670.74 234.21 1670.74 215.06"/><path class="cls-16" d="M1490.07,234.14l0,60.62a7,7,0,0,0,7,7l166.67.06a7,7,0,0,0,7-7l0-60.62Z"/><rect class="cls-17" x="1503.58" y="267" width="67.63" height="4.83"/><rect class="cls-17" x="1588.6" y="267.04" width="67.63" height="4.83"/><rect class="cls-17" x="1503.57" y="280.53" width="67.63" height="4.83"/><rect class="cls-17" x="1588.59" y="280.56" width="67.63" height="4.83"/><path class="cls-15" d="M1546.94,317a21,21,0,0,0-20.89,20.89v13.05a21,21,0,0,0,18.6,20.75L1608,317Z"/><path class="cls-15" d="M1620,317h-12l-63.36,54.69a21.51,21.51,0,0,0,2.29.13H1620a20.94,20.94,0,0,0,20.89-20.88V337.88A21,21,0,0,0,1620,317Z"/><path class="cls-12" d="M1546.21,361.15V328.39H1558a22.41,22.41,0,0,1,6.15.62,8.12,8.12,0,0,1,4.33,3.16,9.61,9.61,0,0,1,1.61,5.65,10.12,10.12,0,0,1-2.63,7.22q-2.64,2.79-9.1,2.79h-8v13.32Zm4.15-17.19h8.1c2.56,0,4.42-.49,5.61-1.48a5.53,5.53,0,0,0,1.77-4.48,6,6,0,0,0-.88-3.33,4.54,4.54,0,0,0-2.11-1.9,13.24,13.24,0,0,0-4.47-.51h-8Z"/><path class="cls-12" d="M1568.78,361.15l12.08-32.76h4.44l12.83,32.76h-4.75l-3.64-9.92h-13.18l-3.41,9.92Zm9-13.45h10.67l-3.25-9.08c-1-2.78-1.75-5.05-2.22-6.79a43.09,43.09,0,0,1-1.71,6.26Z"/><path class="cls-12" d="M1607,361.15V347.27L1595,328.39H1600l6.15,9.89q1.83,2.93,3.21,5.54,1.38-2.56,3.42-5.79l6.08-9.64h4.79l-12.5,18.88v13.88Z"/><rect class="cls-12" x="1557.23" y="157.94" width="90.86" height="4.9"/><rect class="cls-12" x="1557.23" y="171.74" width="36.86" height="4.9"/><rect class="cls-12" x="1602.55" y="171.74" width="45.54" height="4.9"/><polygon class="cls-13" points="1695.75 111.36 1633.03 111.36 1420.4 393.15 1508.25 393.15 1695.75 133.12 1695.75 111.36"/><path class="cls-18" d="M1277.89,417.31l-58.59.32-34.67.18s.06,12.2.06,12.52c0,2.87,14.74,5.2,34.7,5.8,3.82.12,7.83.17,12,.15,25.76-.13,46.62-3,46.61-6.41C1278,429.55,1277.89,417.31,1277.89,417.31Z"/><ellipse class="cls-19" cx="1231.3" cy="417.64" rx="46.64" ry="6.18" transform="translate(-2.07 6.14) rotate(-0.29)"/><path class="cls-20" d="M1245.25,432.51c17.48-.84,26.91-2.81,29.69-4.15,0-1.31,0-3.14,0-4.91-4.51,1.73-13.14,3.25-29.7,4Z"/><path class="cls-21" d="M1277.81,402.58l-58.59.31-34.66.19s0,12.2,0,12.52c0,2.86,14.74,5.2,34.7,5.8,3.83.11,7.84.16,12,.14,25.76-.12,46.63-3,46.61-6.41C1277.89,414.81,1277.81,402.58,1277.81,402.58Z"/><ellipse class="cls-19" cx="1231.23" cy="402.91" rx="46.64" ry="6.18" transform="translate(-1.99 6.14) rotate(-0.29)"/><path class="cls-20" d="M1245.17,417.77c17.49-.84,26.92-2.81,29.7-4.15,0-1.3,0-3.13,0-4.91-4.5,1.74-13.13,3.25-29.69,4Z"/><path class="cls-22" d="M1277.74,387.84l-58.59.32-34.66.18s0,12.2,0,12.53c0,2.86,14.74,5.19,34.7,5.79,3.82.12,7.83.17,12,.15,25.76-.13,46.63-3,46.61-6.41C1277.82,400.08,1277.74,387.84,1277.74,387.84Z"/><ellipse class="cls-19" cx="1231.15" cy="388.18" rx="46.64" ry="6.18" transform="translate(-1.92 6.14) rotate(-0.29)"/><path class="cls-20" d="M1245.1,403.31c17.48-.84,26.91-2.81,29.7-4.15,0-1.31,0-3.14,0-4.91-4.5,1.73-13.13,3.25-29.69,4Z"/><path class="cls-23" d="M1268.29,370.93l-58.59.32-34.67.19s.06,12.19.06,12.52c0,2.86,14.74,5.2,34.7,5.8,3.82.11,7.83.16,12,.14,25.76-.13,46.63-3,46.61-6.41C1268.37,383.17,1268.29,370.93,1268.29,370.93Z"/><ellipse class="cls-19" cx="1221.7" cy="371.27" rx="46.64" ry="6.18" transform="matrix(1, 0, 0, 1, -1.84, 6.09)"/><path class="cls-20" d="M1235.65,386.4c17.48-.84,26.91-2.81,29.69-4.15,0-1.31,0-3.13,0-4.91-4.5,1.73-13.14,3.25-29.7,4Z"/><path class="cls-24" d="M1258.94,356l-58.6.31-34.66.19s0,12.2.06,12.52c0,2.86,14.74,5.2,34.7,5.8,3.82.11,7.83.17,12,.14,25.76-.12,46.62-3,46.61-6.4C1259,368.24,1258.94,356,1258.94,356Z"/><ellipse class="cls-19" cx="1212.35" cy="356.34" rx="46.64" ry="6.18" transform="translate(-1.76 6.05) rotate(-0.29)"/><path class="cls-25" d="M1259,356.11a1.61,1.61,0,0,1-.86,1.14,7.84,7.84,0,0,1-1.33.66,21.65,21.65,0,0,1-2.84.87c-1.93.47-3.89.81-5.86,1.09-3.93.58-7.9,1-11.86,1.25q-11.91.86-23.86.86t-23.87-.63c-4-.25-7.94-.58-11.88-1.13a58.6,58.6,0,0,1-5.87-1,22.12,22.12,0,0,1-2.85-.84,7.44,7.44,0,0,1-1.33-.65,1.61,1.61,0,0,1-.87-1.13,1.65,1.65,0,0,0,.82,1.2,7.39,7.39,0,0,0,1.32.73,22.11,22.11,0,0,0,2.84,1c1.93.53,3.89.93,5.86,1.27,4,.66,7.92,1.08,11.9,1.44,8,.67,16,.86,23.93.87s16-.36,23.93-1.11c4-.4,7.94-.86,11.88-1.56a58.69,58.69,0,0,0,5.84-1.33,22.21,22.21,0,0,0,2.84-1,8,8,0,0,0,1.3-.75A1.64,1.64,0,0,0,1259,356.11Z"/><path class="cls-20" d="M1226.33,371.2c17.48-.84,26.91-2.81,29.69-4.15,0-1.3,0-3.13,0-4.91-4.51,1.74-13.14,3.25-29.7,4Z"/><circle class="cls-26" cx="1294.98" cy="393.9" r="41.66"/><circle class="cls-19" cx="1294.98" cy="393.9" r="39.04"/><path class="cls-27" d="M1295.05,422.5l-.11-3.8a19.87,19.87,0,0,1-6.63-1.61,11.54,11.54,0,0,1-4.5-4.08,13.4,13.4,0,0,1-1.84-4.13,2.83,2.83,0,0,1,2.14-3.48h0a2.81,2.81,0,0,1,3.31,1.94,10.77,10.77,0,0,0,1.83,3.77,7.91,7.91,0,0,0,5.55,3l-.52-17.16a22.46,22.46,0,0,1-6.88-2.37,10.08,10.08,0,0,1-4.09-3.86,11.93,11.93,0,0,1-1.57-5.74,11.8,11.8,0,0,1,3.8-9.44c1.76-1.65,4.43-2.71,8-3.18l-.11-3.55a1.6,1.6,0,0,1,1.54-1.63h0a1.59,1.59,0,0,1,1.64,1.54l.11,3.54a13.4,13.4,0,0,1,7.54,2.53,11.59,11.59,0,0,1,3.51,4.55,2.82,2.82,0,0,1-2,3.93h0a2.78,2.78,0,0,1-3.1-1.74,7.57,7.57,0,0,0-1.55-2.61,7.36,7.36,0,0,0-4.21-2.11l.47,15.55a42.63,42.63,0,0,1,5.44,1.42,13.44,13.44,0,0,1,4.18,2.57,11,11,0,0,1,2.56,3.7,13.14,13.14,0,0,1-11.39,18.45l.12,3.87a1.58,1.58,0,0,1-1.54,1.63h0A1.59,1.59,0,0,1,1295.05,422.5Zm-1.38-45.61a8,8,0,0,0-4.88,2.67,7.46,7.46,0,0,0,0,9.44,10.6,10.6,0,0,0,5.31,2.81Zm4.31,37.16a8,8,0,0,0,5.11-2.88,8.45,8.45,0,0,0,1.87-5.84,7.23,7.23,0,0,0-1.59-4.68q-1.51-1.74-5.89-3Z"/><path class="cls-28" d="M1295,419.65l-.12-3.8a20,20,0,0,1-6.63-1.62,11.43,11.43,0,0,1-4.5-4.07,13.75,13.75,0,0,1-1.84-4.13,2.85,2.85,0,0,1,2.15-3.49h0a2.83,2.83,0,0,1,3.31,1.94,10.35,10.35,0,0,0,1.83,3.77,7.83,7.83,0,0,0,5.54,3l-.52-17.16a22.32,22.32,0,0,1-6.87-2.37,9.89,9.89,0,0,1-4.09-3.86,12.7,12.7,0,0,1,2.22-15.18c1.77-1.65,4.43-2.71,8-3.18l-.11-3.54a1.59,1.59,0,0,1,1.54-1.64h0a1.59,1.59,0,0,1,1.63,1.54l.11,3.55a13.22,13.22,0,0,1,7.54,2.53,11.34,11.34,0,0,1,3.51,4.55,2.81,2.81,0,0,1-2,3.92h0a2.76,2.76,0,0,1-3.1-1.74,7.58,7.58,0,0,0-1.56-2.61,7.38,7.38,0,0,0-4.21-2.1l.47,15.54a41.63,41.63,0,0,1,5.44,1.43,13.08,13.08,0,0,1,4.18,2.57,10.63,10.63,0,0,1,2.56,3.7,13.87,13.87,0,0,1-2.28,14.16,13.15,13.15,0,0,1-9.11,4.29l.12,3.86a1.59,1.59,0,0,1-1.54,1.64h0A1.59,1.59,0,0,1,1295,419.65ZM1293.58,374a8,8,0,0,0-4.88,2.66,7,7,0,0,0-1.66,4.88,6.89,6.89,0,0,0,1.68,4.56A10.56,10.56,0,0,0,1294,389Zm4.31,37.16a8,8,0,0,0,5.11-2.89,8.44,8.44,0,0,0,1.88-5.84,7.2,7.2,0,0,0-1.6-4.67c-1-1.16-3-2.17-5.89-3Z"/><polygon class="cls-7" points="1540.63 337.75 1409.17 368.75 1455.64 394.57 1409.91 445.06 1428.55 461.94 1478.21 407.12 1486.87 397.56 1540.56 338.29 1540.63 337.75"/><polygon class="cls-29" points="1522.74 471.63 1540.56 338.29 1478.21 407.12 1478.23 407.15 1428.57 461.97 1447.21 478.85 1492.91 428.41 1522.74 471.63"/><path class="cls-30" d="M1379.82,351.13a4.27,4.27,0,0,1-.57-1.29,127.15,127.15,0,0,1-4.65-19.31c-.71-4.2,0-6.09,1.07-7.59,2.49-3.5,7.36-6.44,8.71-6.57,2-.19-1.49,6.43-.18,7.86s.07,4.17.29,6l1.07,8.91a27.35,27.35,0,0,1,.26,6.88C1385.54,348.13,1382.85,355.22,1379.82,351.13Z"/><polygon class="cls-31" points="1375.9 366.62 1392.17 375.02 1397.75 350.24 1383.47 345.5 1375.9 366.62"/><path class="cls-9" d="M1380,343.63a3.49,3.49,0,1,0,2.55-4.22A3.49,3.49,0,0,0,1380,343.63Z"/><path class="cls-6" d="M1386.89,504.26c-.05,1,6.41,18.24,6.35,20.29-.76,25.72-1.35,19.41-.39,36.51.68,12,2.82,18,5,24.8.43,1.35.59,1.73,1.72,1.76l4.43.11a5.06,5.06,0,0,1,1.18.18c.83.21,1.15.34,1-1.26-.34-5.73,8.11-51.61,10.63-60.51,1.3-4.62,1.43-4.89.06-11.18C1410.23,516.88,1393.4,503.47,1386.89,504.26Z"/><path class="cls-6" d="M1398.43,443c-8.85-14.15-12.92,5.39-14.24,7.15-12.52,16.54,6.68,42.51,4.58,60.7,9.12,1.74,19.53,5.14,28.66,7.51C1413.91,498.84,1402.67,449.73,1398.43,443Z"/><path class="cls-5" d="M1375.79,505.25c-1.54,3.68-4.82,6.25-6.1,9.32-1.55,3.74-7.85,5.62-16.07,11.88-10.9,8.31-30.77,38.71-30.77,38.71l4.87,5.37,52-38c3.91-2.44,9.42-6.89,12.19-11.32.26-.41.91-2,1.15-2.4C1387.57,513.64,1381.56,509.84,1375.79,505.25Z"/><path class="cls-32" d="M1374.82,436.31a4.26,4.26,0,0,1,.5,0C1373.92,433.42,1374.18,434.47,1374.82,436.31Z"/><path class="cls-5" d="M1395.57,504.82c1.86-14.13,4.28-40.52,5.63-56.37-3.44-1.72-1.62-2.23-9.46-2.43-2.13-.06-6.09-6.1-10.22-6.74,0,0,.33-3.12.64-5.21-4.36-1.94-14.09,2.48-20.09,10.51-3.12,4.17-2.56,16.49-1,25,1.08,5.91,4.41,16.94,6.62,25.88,1.3,5.22,3.28,15.62,1.78,19.28,7.65,3.48,15.33,3.08,23.72,4.11C1394.13,514.57,1394.91,509.86,1395.57,504.82Z"/><path d="M1335.66,564.71c1,1.42,2.54,2.75,3.72,4.18a36.35,36.35,0,0,0,7.1,6.69,3.48,3.48,0,0,1,.75,3.89c-.17.46-.32.89-.43,1.21-9.26-3.43-25.92-8.53-26.22-8.95-.81-1.1,1.5-5.86,3.34-8.16a13.41,13.41,0,0,0,4.29,1.4A16.85,16.85,0,0,0,1335.66,564.71Z"/><path d="M1406.48,582.59c1.32.88,4.61,2.84,6,3.69a33,33,0,0,0,8,3.5,3.06,3.06,0,0,1,1.79,3V594c-8.87-.13-23.94.82-24.32.56-1-.69-.71-4.44-.12-8.31a11.25,11.25,0,0,0,4,.1A6.44,6.44,0,0,0,1406.48,582.59Z"/><path class="cls-16" d="M1394.25,367.45a22.76,22.76,0,0,1-12.9-6.95c-.14-.15-1.67-2.55-2.16-2.53a15.93,15.93,0,0,0-6.07,2.68c-3.79,2.91-4.23,3.53-6.62,7.16-4.55,6.88-10.16,18.35-6.17,45.78-.42,13.24-2,30.71,0,36.78h0a14.39,14.39,0,0,1,4.84-1l36-.95c.07,0-3.06-22.66-2.39-22.26-.48-10.63-.54-19.24-1-23.7C1397.49,400.14,1395.24,367.56,1394.25,367.45Z"/><path class="cls-9" d="M1383.51,341c2.11,9.87,8.73,16.88,15.06,15.61s9.86-10.33,7.87-20.22-2.2-12.7-9.08-12.52C1388.37,324.08,1380.37,326.33,1383.51,341Z"/><path class="cls-33" d="M1395.34,372.14c-1.27-2-7.39-6.45-8.89-7.45a58.31,58.31,0,0,0-5.66-3.38,28.39,28.39,0,0,0-4-1.66,1.34,1.34,0,0,1-.7-.39.84.84,0,0,1,.05-.81c.76-1.71.9-1.93,1.65-3.65.36-.82,6.75,1.08,7.61,1.37a34.39,34.39,0,0,1,8.58,4.07C1399.29,364.05,1397.15,367.52,1395.34,372.14Z"/><path class="cls-30" d="M1382.33,340.34l2.08,3c.24.35.54.73,1,.75.88,0,2.39-.44,2.28-1.31-.34-2.9-.35-6.52,1.2-9a11.8,11.8,0,0,1,6.27-4.11c1.86-.5,6.23-1,8.07-1.52,1.29-.39.08-.74,1.16-1.54,4-2.95-11.9-7.51-15.15-6.11a16.43,16.43,0,0,0-6.6,4.4C1379.27,329.05,1379.29,336,1382.33,340.34Z"/><path class="cls-30" d="M1407.1,326.4a5.5,5.5,0,0,0,1-6.34,4.47,4.47,0,0,0-5.94-1.7A6.19,6.19,0,0,0,1391,316a10.31,10.31,0,0,0-10.32,2.72,2.78,2.78,0,0,0-.94,2.58,2.93,2.93,0,0,0,.73,1.05,20.39,20.39,0,0,0,13,6.05c2.32.19,4.58-.37,6.88-.22C1402.88,328.36,1405.22,328.32,1407.1,326.4Z"/><path class="cls-9" d="M1390.88,390c2.58,3.69,7,10.13,16.07,29.09,10,1.72,27.7,8.63,35.79,13.37.6.36.5.1.92.66,1,1.33-2.16,2.42-2.2,4.08-3.43-.73-13-2.24-18.84-3.55-10.25-2.29-27.69-3.85-30.49-10.57.08-.07-17-22.38-20.39-37.08C1377,388.63,1387.69,385.48,1390.88,390Z"/><path class="cls-16" d="M1391.59,390a2,2,0,0,0,1.12-1,3.32,3.32,0,0,0-.33-2.19c-1.88-4.74-4.19-10-8.25-11.82a13,13,0,0,0-5.12-.87c-3.94-.14-8.35-.05-10.83,3.34a13.73,13.73,0,0,0-2,5.48c-.59,3.07-1.26,7.27-.59,10.54.45,2.21.62,2,2.58,2a48.47,48.47,0,0,0,5-.2A51.67,51.67,0,0,0,1391.59,390Z"/><path class="cls-34" d="M1446.69,432.44a6.2,6.2,0,0,1,3.19,3.48,2,2,0,0,1,0,1.64,2.67,2.67,0,0,1-2.29.95,12,12,0,0,1-2.94-.47l-6.46-1.57a2.05,2.05,0,0,1-.91-.36,1.28,1.28,0,0,1-.32-.46C1434.92,431.17,1442.46,430.43,1446.69,432.44Z"/><path class="cls-12" d="M172,248.23h35.73c22.08,0,38.91,6,38.91,26.32,0,9.53-5.68,19.69-18.16,22.95v.65c15.18,2.8,23.13,10.81,23.13,25,0,21.61-17.71,31.29-40.85,31.29H172Zm34.62,42.64c11.67,0,16.54-4.93,16.54-12.95s-5.18-11-16.35-11H196v23.94Zm2.19,44.88c13.08,0,19.32-4.74,19.32-14.42,0-9.32-6.11-13.17-19.32-13.17H196v27.59Z"/><path class="cls-12" d="M269.8,248.23h35.73c22.07,0,38.91,6,38.91,26.32,0,9.53-5.68,19.69-18.16,22.95v.65c15.18,2.8,23.13,10.81,23.13,25,0,21.61-17.71,31.29-40.85,31.29H269.8Zm34.62,42.64c11.67,0,16.54-4.93,16.54-12.95s-5.19-11-16.36-11H293.8v23.94Zm2.18,44.88c13.09,0,19.33-4.74,19.33-14.42,0-9.32-6.11-13.17-19.33-13.17H293.8v27.59Z"/><path class="cls-12" d="M367.74,248.23h37.68c23,0,41.6,8.34,41.6,34.17,0,25-19.07,36-41.6,36H391.78v36h-24ZM404,299.34c13.18,0,19.44-5.9,19.44-16.94s-6.78-15.09-19.44-15.09H391.78v32Z"/><path class="cls-12" d="M461.59,341.07l13.8-16.51c8,6.57,17.94,11.08,28.24,11.08s14.91-3.95,14.91-9.14c0-7.65-6.32-9.5-16.37-13.71l-13.84-5.9c-11.77-4.48-22.51-13.5-22.51-29,0-17.59,15.85-31.65,38.93-31.65A51.44,51.44,0,0,1,540,260.19l-12.11,15.15c-7.48-5.37-14.1-8.3-24.48-8.3-7.91,0-13.29,3.28-13.29,9.49,0,6.39,7.12,8.72,17.31,12.54l13,5.51c13.9,5.22,22.69,13.89,22.69,28.88,0,17.65-14.81,33-41.11,33A61.25,61.25,0,0,1,461.59,341.07Z"/><path class="cls-3" d="M496.37,481.51c0,.39-2.82.7-6.29.7s-6.29-.31-6.29-.7,2.81-.69,6.29-.69S496.37,481.13,496.37,481.51Z"/><path class="cls-3" d="M503.05,464.41c.38,0,.69,2.85.69,6.38s-.31,6.38-.69,6.38-.7-2.86-.7-6.38S502.66,464.41,503.05,464.41Z"/><path class="cls-3" d="M510.16,481.1c0-.38,2.82-.69,6.29-.69s6.29.31,6.29.69-2.82.7-6.29.7S510.16,481.49,510.16,481.1Z"/><path class="cls-3" d="M503.48,498.21c-.38,0-.7-2.85-.7-6.38s.32-6.38.7-6.38.7,2.86.7,6.38S503.86,498.21,503.48,498.21Z"/><path class="cls-3" d="M513.65,490.87c-.3.25-1.54-.75-2.77-2.23s-2-2.87-1.71-3.12,1.54.75,2.77,2.23S513.94,490.63,513.65,490.87Z"/><path class="cls-3" d="M513.06,471.47c.27.27-.55,1.54-1.83,2.83s-2.54,2.13-2.82,1.86.55-1.54,1.83-2.84S512.78,471.2,513.06,471.47Z"/><path class="cls-3" d="M498.64,476.42c-.24.29-1.43-.29-2.65-1.31s-2-2.08-1.77-2.37,1.43.29,2.66,1.3S498.89,476.12,498.64,476.42Z"/><path class="cls-3" d="M498.08,485c.28.26-.43,1.5-1.6,2.78s-2.34,2.1-2.62,1.84.43-1.5,1.59-2.78S497.79,484.71,498.08,485Z"/><path class="cls-3" d="M135.25,482.62l.82,2a13.83,13.83,0,0,0,7.61,7.54l2.13.87-2.05.83a13.93,13.93,0,0,0-7.67,7.68l-.57,1.44-.87-1.8a13.89,13.89,0,0,0-7.77-7l-1.85-.68,2.42-1.18a13.91,13.91,0,0,0,6.78-7.17Z"/><path class="cls-3" d="M620.84,502.94l.54,1.3a9.24,9.24,0,0,0,5.06,5l1.41.58-1.36.55a9.19,9.19,0,0,0-5.09,5.11l-.39,1-.57-1.2a9.27,9.27,0,0,0-5.16-4.68l-1.24-.45,1.62-.78a9.27,9.27,0,0,0,4.5-4.77Z"/><path class="cls-3" d="M287.12,470.71l.38.92a6.52,6.52,0,0,0,3.57,3.54l1,.41-1,.39a6.49,6.49,0,0,0-3.6,3.6l-.27.67-.4-.84a6.5,6.5,0,0,0-3.65-3.3l-.87-.32,1.14-.56a6.56,6.56,0,0,0,3.18-3.36Z"/><path class="cls-3" d="M48.59,296c0,.68-5,1.23-11.07,1.23s-11.08-.55-11.08-1.23,5-1.22,11.08-1.22S48.59,295.37,48.59,296Z"/><path class="cls-3" d="M60.36,265.91c.67,0,1.22,5,1.22,11.24s-.55,11.24-1.22,11.24-1.23-5-1.23-11.24S59.68,265.91,60.36,265.91Z"/><path class="cls-3" d="M72.89,295.32c0-.67,5-1.22,11.07-1.22S95,294.65,95,295.32s-5,1.23-11.08,1.23S72.89,296,72.89,295.32Z"/><path class="cls-3" d="M61.12,325.46c-.67,0-1.22-5-1.22-11.24S60.45,303,61.12,303s1.23,5,1.23,11.24S61.8,325.46,61.12,325.46Z"/><path class="cls-3" d="M79,312.53c-.52.44-2.71-1.32-4.88-3.93s-3.52-5.07-3-5.5S73.86,304.43,76,307,79.55,312.1,79,312.53Z"/><path class="cls-3" d="M78,278.36c.48.47-1,2.71-3.22,5s-4.47,3.74-5,3.27,1-2.71,3.22-5S77.51,277.88,78,278.36Z"/><path class="cls-3" d="M52.6,287.06c-.43.52-2.53-.5-4.68-2.29s-3.54-3.66-3.11-4.19,2.53.51,4.68,2.3S53,286.54,52.6,287.06Z"/><path class="cls-3" d="M51.6,302.13c.5.45-.75,2.65-2.8,4.89s-4.12,3.71-4.62,3.25.76-2.65,2.81-4.9S51.1,301.67,51.6,302.13Z"/></g></g></svg>