<svg xmlns="http://www.w3.org/2000/svg" xmlns:xlink="http://www.w3.org/1999/xlink" viewBox="0 0 1944.11 660.54"><defs><style>.cls-1,.cls-28,.cls-31,.cls-48{fill:none;}.cls-2{opacity:0.91;fill:url(#linear-gradient);}.cls-3{fill:url(#linear-gradient-2);}.cls-4{opacity:0.2;}.cls-5{fill:#3a4d8a;}.cls-6{fill:#ffd4f2;}.cls-7{clip-path:url(#clip-path);}.cls-8{fill:url(#linear-gradient-3);}.cls-9{fill:url(#linear-gradient-4);}.cls-10{fill:url(#linear-gradient-5);}.cls-11{fill:url(#linear-gradient-6);}.cls-12{fill:url(#linear-gradient-7);}.cls-13{fill:url(#linear-gradient-8);}.cls-14{fill:url(#linear-gradient-9);}.cls-15{fill:url(#linear-gradient-10);}.cls-16{clip-path:url(#clip-path-2);}.cls-17{fill:#872e68;}.cls-18{fill:url(#linear-gradient-11);}.cls-19{fill:#c1467f;}.cls-20{fill:#1a2e4f;}.cls-21{fill:url(#linear-gradient-12);}.cls-22{fill:url(#linear-gradient-13);}.cls-23{fill:url(#linear-gradient-14);}.cls-24{fill:url(#linear-gradient-15);}.cls-25{fill:url(#linear-gradient-16);}.cls-26{fill:url(#linear-gradient-17);}.cls-27{fill:#ff9b72;}.cls-28{stroke:#ff9b72;stroke-linecap:round;stroke-linejoin:round;}.cls-29{fill:url(#linear-gradient-18);}.cls-30{fill:url(#linear-gradient-19);}.cls-31,.cls-48{stroke:#fff;stroke-miterlimit:10;}.cls-31{stroke-width:5px;}.cls-32{clip-path:url(#clip-path-3);}.cls-33{fill:url(#linear-gradient-20);}.cls-34{fill:url(#New_Gradient_Swatch_copy_2);}.cls-35{fill:url(#linear-gradient-21);}.cls-36{fill:url(#linear-gradient-22);}.cls-37{fill:url(#linear-gradient-23);}.cls-38{fill:url(#linear-gradient-24);}.cls-39{fill:#2f3a9e;}.cls-40{fill:url(#linear-gradient-25);}.cls-41{fill:url(#linear-gradient-26);}.cls-42{clip-path:url(#clip-path-4);}.cls-43{fill:#0f1c76;}.cls-44{fill:url(#linear-gradient-27);}.cls-45{fill:url(#linear-gradient-28);}.cls-46{fill:url(#linear-gradient-29);}.cls-47{fill:url(#linear-gradient-30);}.cls-49{fill:#fff;}</style><linearGradient id="linear-gradient" y1="300.59" x2="1920" y2="300.59" gradientUnits="userSpaceOnUse"><stop offset="0" stop-color="#c1467f"/><stop offset="0.23" stop-color="#a64781"/><stop offset="0.73" stop-color="#624b87"/><stop offset="1" stop-color="#3a4d8a"/></linearGradient><linearGradient id="linear-gradient-2" x1="1251.78" y1="186.38" x2="1535.11" y2="186.38" gradientUnits="userSpaceOnUse"><stop offset="0" stop-color="#681853"/><stop offset="0.07" stop-color="#6f1c56"/><stop offset="0.7" stop-color="#aa3a74"/><stop offset="1" stop-color="#c1467f"/></linearGradient><clipPath id="clip-path"><rect class="cls-1" x="558.55" y="1.83" width="1354.68" height="599.35"/></clipPath><linearGradient id="linear-gradient-3" x1="1251.44" y1="69.5" x2="1534.76" y2="69.5" xlink:href="#linear-gradient-2"/><linearGradient id="linear-gradient-4" x1="1251.44" y1="99.64" x2="1534.76" y2="99.64" xlink:href="#linear-gradient-2"/><linearGradient id="linear-gradient-5" x1="1251.44" y1="129.77" x2="1534.76" y2="129.77" xlink:href="#linear-gradient-2"/><linearGradient id="linear-gradient-6" x1="1251.44" y1="159.91" x2="1534.76" y2="159.91" xlink:href="#linear-gradient-2"/><linearGradient id="linear-gradient-7" x1="1342.9" y1="400.04" x2="1342.9" y2="584.77" gradientUnits="userSpaceOnUse"><stop offset="0" stop-color="#f4a1c0"/><stop offset="1" stop-color="#f9ccdd"/></linearGradient><linearGradient id="linear-gradient-8" x1="1552.18" y1="162.27" x2="1584.56" y2="624.48" gradientUnits="userSpaceOnUse"><stop offset="0" stop-color="#d8e8ff"/><stop offset="1" stop-color="#90bdff"/></linearGradient><linearGradient id="linear-gradient-9" x1="1760.53" y1="102.59" x2="1760.53" y2="192.37" xlink:href="#linear-gradient-7"/><linearGradient id="linear-gradient-10" x1="1760.53" y1="326.11" x2="1760.53" y2="233.25" xlink:href="#linear-gradient-8"/><clipPath id="clip-path-2"><rect class="cls-1" x="1159.49" y="72.28" width="517.77" height="419.75" rx="13.82"/></clipPath><linearGradient id="linear-gradient-11" x1="1234.22" y1="350" x2="1234.22" y2="324.93" gradientUnits="userSpaceOnUse"><stop offset="0" stop-color="#f59f7c"/><stop offset="1" stop-color="#f5d3ac"/></linearGradient><linearGradient id="linear-gradient-12" x1="1491.38" y1="241.36" x2="1491.38" y2="310.71" xlink:href="#linear-gradient-11"/><linearGradient id="linear-gradient-13" x1="1429.89" y1="280.57" x2="1491" y2="280.57" gradientUnits="userSpaceOnUse"><stop offset="0.03" stop-color="#bfd2ff"/><stop offset="1" stop-color="#fff"/></linearGradient><linearGradient id="linear-gradient-14" x1="1491" y1="280.57" x2="1552.12" y2="280.57" xlink:href="#linear-gradient-13"/><linearGradient id="linear-gradient-15" x1="1632.03" y1="-290.92" x2="1632.03" y2="-341.73" gradientTransform="translate(-189.29 527.29) rotate(0.5)" xlink:href="#linear-gradient-11"/><linearGradient id="linear-gradient-16" x1="1722.72" y1="-290.92" x2="1722.72" y2="-341.73" gradientTransform="translate(-189.29 527.29) rotate(0.5)" xlink:href="#linear-gradient-11"/><linearGradient id="linear-gradient-17" x1="1677.15" y1="-411.25" x2="1677.15" y2="-343.97" gradientTransform="translate(-189.29 527.29) rotate(0.5)" xlink:href="#linear-gradient-11"/><linearGradient id="linear-gradient-18" x1="1507.69" y1="505.95" x2="1534.62" y2="505.95" gradientTransform="matrix(0.99, 0.11, -0.11, 0.99, 173.04, -372.06)" xlink:href="#linear-gradient-11"/><linearGradient id="linear-gradient-19" x1="1513.17" y1="405.41" x2="1513.17" y2="453.93" gradientTransform="matrix(0.99, 0.11, -0.11, 0.99, 173.04, -372.06)" xlink:href="#linear-gradient-11"/><clipPath id="clip-path-3"><rect class="cls-1" x="1668.05" y="101.22" width="184.95" height="116.89" rx="4.33"/></clipPath><linearGradient id="linear-gradient-20" x1="1763.98" y1="188.93" x2="1763.98" y2="164.2" gradientUnits="userSpaceOnUse"><stop offset="0" stop-color="#fff"/><stop offset="1" stop-color="#9092ff"/></linearGradient><linearGradient id="New_Gradient_Swatch_copy_2" x1="1764.64" y1="194.89" x2="1764.64" y2="231.26" gradientUnits="userSpaceOnUse"><stop offset="0" stop-color="#342f97"/><stop offset="1" stop-color="#5457d4"/></linearGradient><linearGradient id="linear-gradient-21" x1="2676.73" y1="714.78" x2="2677.52" y2="714.78" gradientTransform="translate(17250.35 -55845.22) rotate(90.51) scale(20.98)" xlink:href="#linear-gradient-11"/><linearGradient id="linear-gradient-22" x1="2739.03" y1="704.53" x2="2739.83" y2="704.53" gradientTransform="matrix(0.24, -27.29, 27.29, 0.24, -18137.97, 74739.94)" xlink:href="#linear-gradient-11"/><linearGradient id="linear-gradient-23" x1="2739.02" y1="704.14" x2="2739.82" y2="704.14" gradientTransform="translate(-18089.19 74741.33) rotate(-89.5) scale(27.29)" xlink:href="#linear-gradient-11"/><linearGradient id="linear-gradient-24" x1="2692.04" y1="712.29" x2="2692.84" y2="712.29" gradientTransform="translate(28673.67 -98074.72) rotate(90.5) scale(36.56)" xlink:href="#linear-gradient-11"/><linearGradient id="linear-gradient-25" x1="2726.47" y1="699.45" x2="2727.27" y2="699.45" gradientTransform="translate(-75131.1 95984.99) rotate(-65.64) scale(43.64)" gradientUnits="userSpaceOnUse"><stop offset="0" stop-color="#fff"/><stop offset="1" stop-color="#c9deff"/></linearGradient><linearGradient id="linear-gradient-26" x1="2728.39" y1="710.61" x2="2729.19" y2="710.61" gradientTransform="matrix(-12, -44.25, 44.25, -12, 3074.74, 129461.13)" xlink:href="#linear-gradient-25"/><clipPath id="clip-path-4"><rect class="cls-1" x="1668.05" y="239.52" width="184.95" height="116.89" rx="4.33"/></clipPath><linearGradient id="linear-gradient-27" x1="2683.41" y1="714.71" x2="2684.62" y2="714.71" gradientTransform="translate(17250.35 -55845.22) rotate(90.51) scale(20.98)" xlink:href="#linear-gradient-11"/><linearGradient id="linear-gradient-28" x1="2733.96" y1="704.57" x2="2734.76" y2="704.57" gradientTransform="matrix(0.24, -27.29, 27.29, 0.24, -18137.97, 74739.94)" xlink:href="#linear-gradient-11"/><linearGradient id="linear-gradient-29" x1="2733.96" y1="704.18" x2="2734.75" y2="704.18" gradientTransform="translate(-18089.19 74741.33) rotate(-89.5) scale(27.29)" xlink:href="#linear-gradient-11"/><linearGradient id="linear-gradient-30" x1="2695.82" y1="712.25" x2="2696.62" y2="712.25" gradientTransform="translate(28673.67 -98074.72) rotate(90.5) scale(36.56)" xlink:href="#linear-gradient-11"/></defs><g id="Layer_2" data-name="Layer 2"><g id="Layer_1-2" data-name="Layer 1"><rect class="cls-2" width="1920" height="601.18"/><rect class="cls-3" x="1251.78" y="178.22" width="283.32" height="16.32"/><g class="cls-4"><path class="cls-5" d="M629.21,601c-.51,0-1,0-1.52,0h-.09c-3.32,0-6.6-.1-9.92-.19a26.43,26.43,0,0,0-3.09.14,39.53,39.53,0,0,0-4.46-.41,30.64,30.64,0,0,0-4.09.3l-.46,0c-4.59,0-9.17-.09-13.75-.18a26,26,0,0,0-6,.59l-104,0c42.84-45.11,105.72-67,167.94-66.61,45.43.31,92.83,13.86,135.06-2.89,39.07-15.5,63.87-53.15,94.28-82.17,46.6-44.47,110.6-70.22,175-70.41,43.72-.13,91.85,9.9,127.9-14.82,24.34-16.7,36.78-45.44,53.86-69.51,50.08-70.54,146.52-100,227.21-68.77l.11,374.71-793.93.38a16.57,16.57,0,0,0-4-.09c-.43,0-.85.07-1.28.09h-2.84c-2.13-.07-4.26-.28-6.38-.28-3.06,0-6.13,0-9.19-.07-3.51-.2-7-.37-10.53-.38A29.32,29.32,0,0,0,629.21,601Z"/></g><path class="cls-6" d="M880.86,136.44c0,.68-5,1.23-11.08,1.23s-11.08-.55-11.08-1.23,5-1.22,11.08-1.22S880.86,135.77,880.86,136.44Z"/><path class="cls-6" d="M892.62,106.31c.68,0,1.23,5,1.23,11.24s-.55,11.24-1.23,11.24-1.23-5-1.23-11.24S891.94,106.31,892.62,106.31Z"/><path class="cls-6" d="M905.15,135.72c0-.67,5-1.22,11.08-1.22s11.08.55,11.08,1.22-5,1.23-11.08,1.23S905.15,136.4,905.15,135.72Z"/><path class="cls-6" d="M893.39,165.86c-.68,0-1.23-5-1.23-11.24s.55-11.24,1.23-11.24,1.22,5,1.22,11.24S894.06,165.86,893.39,165.86Z"/><path class="cls-6" d="M911.29,152.93c-.52.44-2.7-1.32-4.88-3.93s-3.51-5.07-3-5.5,2.71,1.33,4.88,3.93S911.81,152.5,911.29,152.93Z"/><path class="cls-6" d="M910.26,118.76c.48.47-1,2.71-3.22,5s-4.48,3.73-5,3.26,1-2.71,3.22-5S909.78,118.28,910.26,118.76Z"/><path class="cls-6" d="M884.86,127.46c-.43.52-2.52-.5-4.67-2.29s-3.55-3.66-3.11-4.19,2.52.51,4.67,2.3S885.3,126.94,884.86,127.46Z"/><path class="cls-6" d="M883.87,142.53c.5.45-.76,2.65-2.81,4.89s-4.12,3.71-4.62,3.25.76-2.65,2.81-4.9S883.37,142.07,883.87,142.53Z"/><path class="cls-6" d="M1220.24,221.23c0,.29-2.16.53-4.82.53s-4.82-.24-4.82-.53,2.16-.54,4.82-.54S1220.24,220.93,1220.24,221.23Z"/><path class="cls-6" d="M1225.36,208.11c.29,0,.53,2.19.53,4.9s-.24,4.89-.53,4.89-.53-2.19-.53-4.89S1225.07,208.11,1225.36,208.11Z"/><path class="cls-6" d="M1230.81,220.91c0-.29,2.16-.53,4.82-.53s4.82.24,4.82.53-2.15.54-4.82.54S1230.81,221.21,1230.81,220.91Z"/><path class="cls-6" d="M1225.69,234c-.29,0-.53-2.19-.53-4.89s.24-4.89.53-4.89.54,2.19.54,4.89S1226,234,1225.69,234Z"/><path class="cls-6" d="M1233.49,228.4c-.23.19-1.18-.57-2.13-1.71s-1.53-2.2-1.3-2.39,1.17.58,2.12,1.71S1233.71,228.22,1233.49,228.4Z"/><path class="cls-6" d="M1233,213.53c.21.21-.41,1.18-1.4,2.17s-2,1.63-2.15,1.42.41-1.18,1.4-2.17S1232.83,213.32,1233,213.53Z"/><path class="cls-6" d="M1222,217.32c-.19.23-1.1-.22-2-1s-1.54-1.59-1.36-1.82,1.1.22,2,1S1222.17,217.09,1222,217.32Z"/><path class="cls-6" d="M1221.55,223.88c.22.19-.33,1.15-1.22,2.13s-1.79,1.61-2,1.41.33-1.15,1.22-2.13S1221.33,223.68,1221.55,223.88Z"/><path class="cls-6" d="M1476.37,241.62c0,.39-2.82.7-6.29.7s-6.29-.31-6.29-.7,2.81-.69,6.29-.69S1476.37,241.24,1476.37,241.62Z"/><path class="cls-6" d="M1483.05,224.51c.38,0,.69,2.86.69,6.39s-.31,6.38-.69,6.38-.7-2.86-.7-6.38S1482.66,224.51,1483.05,224.51Z"/><path class="cls-6" d="M1490.16,241.21c0-.38,2.82-.69,6.29-.69s6.29.31,6.29.69-2.82.7-6.29.7S1490.16,241.6,1490.16,241.21Z"/><path class="cls-6" d="M1483.48,258.32c-.38,0-.69-2.86-.69-6.38s.31-6.38.69-6.38.7,2.86.7,6.38S1483.87,258.32,1483.48,258.32Z"/><path class="cls-6" d="M1493.65,251c-.3.25-1.54-.75-2.77-2.23s-2-2.87-1.7-3.12,1.53.75,2.76,2.23S1493.94,250.74,1493.65,251Z"/><path class="cls-6" d="M1493.06,231.58c.27.27-.55,1.54-1.83,2.83s-2.54,2.13-2.81,1.86.54-1.54,1.82-2.84S1492.79,231.31,1493.06,231.58Z"/><path class="cls-6" d="M1478.64,236.52c-.24.3-1.43-.28-2.65-1.3s-2-2.08-1.77-2.37,1.44.28,2.66,1.3S1478.89,236.23,1478.64,236.52Z"/><path class="cls-6" d="M1478.08,245.08c.28.25-.43,1.5-1.6,2.78s-2.33,2.1-2.62,1.84.43-1.5,1.6-2.78S1477.79,244.82,1478.08,245.08Z"/><path class="cls-6" d="M1144.83,79.24l.82,2a13.93,13.93,0,0,0,7.61,7.54l2.13.87-2.05.83a13.9,13.9,0,0,0-7.67,7.68l-.57,1.43-.87-1.79a13.94,13.94,0,0,0-7.77-7.05l-1.85-.67,2.42-1.18a13.91,13.91,0,0,0,6.78-7.17Z"/><path class="cls-6" d="M825.32,226.46l.54,1.3a9.21,9.21,0,0,0,5.06,5l1.41.58-1.36.55a9.22,9.22,0,0,0-5.09,5.11l-.39,1-.57-1.19a9.23,9.23,0,0,0-5.16-4.68l-1.24-.46,1.61-.78a9.23,9.23,0,0,0,4.51-4.76Z"/><path class="cls-6" d="M1630.42,99.55l.54,1.31a9.24,9.24,0,0,0,5.06,5l1.42.58-1.37.55a9.19,9.19,0,0,0-5.09,5.11l-.39,1-.57-1.2a9.27,9.27,0,0,0-5.16-4.68l-1.24-.45,1.62-.78a9.27,9.27,0,0,0,4.5-4.77Z"/><path class="cls-6" d="M1191.69,418.08l3,7.32,7.51,3.05-2,.83a13.87,13.87,0,0,0-7.67,7.68l-.58,1.44-.87-1.8a13.87,13.87,0,0,0-7.76-7l-1.86-.68,2.43-1.18a13.85,13.85,0,0,0,6.77-7.17Z"/><path class="cls-6" d="M1296.7,67.33l.38.92a6.52,6.52,0,0,0,3.57,3.54l1,.4-1,.39a6.54,6.54,0,0,0-3.6,3.61l-.27.67-.4-.84a6.56,6.56,0,0,0-3.65-3.31l-.87-.31,1.14-.56a6.56,6.56,0,0,0,3.18-3.36Z"/><path class="cls-6" d="M1043.09,218.14l.49,1.18a8.38,8.38,0,0,0,4.6,4.55l1.28.53-1.23.5a8.4,8.4,0,0,0-4.63,4.64l-.35.86-.52-1.08a8.37,8.37,0,0,0-4.69-4.25l-1.13-.41,1.47-.71a8.43,8.43,0,0,0,4.09-4.33Z"/><g class="cls-7"><rect class="cls-8" x="1251.44" y="61.34" width="283.32" height="16.32"/><rect class="cls-9" x="1251.44" y="91.48" width="283.32" height="16.32"/><rect class="cls-10" x="1251.44" y="121.61" width="283.32" height="16.32"/><rect class="cls-11" x="1251.44" y="151.75" width="283.32" height="16.32"/><rect class="cls-12" x="1152.61" y="397.23" width="380.58" height="240.53" rx="13.52"/><rect class="cls-13" x="1304.94" y="164.8" width="517.77" height="327.23" rx="13.82"/><rect class="cls-14" x="1668.05" y="101.22" width="184.95" height="116.89" rx="4.33"/><rect class="cls-15" x="1668.05" y="239.52" width="184.95" height="116.89" rx="4.33"/><g class="cls-16"><path class="cls-17" d="M1596.38,289.27s20.38,75.38,23.31,97.35,14.62,49.47-3.44,60.54c-23.85,14.62-35.23-31.4-40.31-50.37S1596.38,289.27,1596.38,289.27Z"/><path class="cls-18" d="M1287.14,339s-8.83-.73-15.29-12.55c-7.58-13.87-40.82-3.27-51.27-5.25s-26.48-1-30.88-2.06-8.41,6.24-8.41,6.24,30,6.34,44.41,10.82,29.23,9.54,29.23,9.54l17.45,19.67Z"/><path d="M1454.5,258.09c1,2.9,2.18,5.77,3.24,8.66l4.39-4.76c4.81-5.23,9.78-3.38,16.31-3.28,6.78.11,13,1.31,19.72,1.88,7.85.66,15.85,2.36,22.5,6.85l4.63-8.33c7-12.56,8.42-30.07,9-44.16a41,41,0,0,0-.86-12.27c-2.3-8.74-9.54-15.51-17.73-19.23s-17.28-4.79-26.23-5.42c-11.07-.77-22.34-.92-33.09,1.86-5.8,1.51-12.1,4.63-13.58,10.46-1.55,6.13,3,12.8.73,18.74l4.41,21c1.15,5.49,2.59,11,3.43,16.56A60.8,60.8,0,0,0,1454.5,258.09Z"/><path class="cls-19" d="M1384.81,289.6l-34,93.48a64.34,64.34,0,0,0-6.63-3.23c-2.06-.7-2.28,5.64-2.28,5.64l-52.44-54.61s-23.52,11.84-34.78,28.59c32.31,35.55,63.71,93.16,90.61,101.66s61.73-68.05,61.73-68.05S1400.5,298.59,1384.81,289.6Z"/><path class="cls-20" d="M1453.69,285.16,1491,317.83l44.61-37.35s-2.6,121.77-3.56,144.23-12.64,123-12.64,123l-59.62-2.07s-25-205-21.19-223.1S1453.69,285.16,1453.69,285.16Z"/><path class="cls-19" d="M1454.35,271.7s-2.28,74.36,3.06,101.14a786,786,0,0,1,12.53,89.1c2.48,31.09-1.8,86-1.8,86l-72,7.95s19.84-97.24,18.32-113.77c-.55-6-9.25-21.51-15.2-46.57-4.79-20.18-4.69-44.43-7-64.63a329.23,329.23,0,0,0-7.44-41.33c35.45-26.67,70.06-36,70.06-36Z"/><path class="cls-19" d="M1527.22,271.53s.7,73.66-5.21,100.19A779.54,779.54,0,0,0,1507.59,460c-3.13,30.8,0,85.19,0,85.19l71.8,7.87s-17.33-94.51-15.46-110.89c.68-5.95,9.27-23.08,15.75-47.91,5.22-20,5.64-44,8.4-64a325.77,325.77,0,0,1,8.32-40.94c-34.88-26.43-69.29-35.62-69.29-35.62Z"/><path class="cls-21" d="M1524.35,287c4.57-6.9,9.28-14.79,7.68-15.42-4.88-1.92-16.23-2.57-17.75-9.16-.93-4.08.25-30.35.25-30.35l-50.61,1.77s-.54,21.46-.6,26.65-10.6,8.49-10.6,8.49a38.1,38.1,0,0,0,2.35,3.08l-4.65-3.11c10.08,22.09,23.4,38.63,40.38,48.87a109.08,109.08,0,0,0,26.26-20.51C1517.73,296.58,1521,292.07,1524.35,287Z"/><path class="cls-22" d="M1454.35,249.6c1.17,13.42,7,24.07,13.08,34.54S1491,317.83,1491,317.83s-15.29-9.76-24.88-14.27-36.23,4.47-36.23,4.47,10.08-36.73,14.8-48.14,11.72-16.59,11.72-16.59Z"/><path class="cls-23" d="M1527.75,249.6c-1.19,13.42-7,24.07-13.13,34.54S1491,317.83,1491,317.83s15.3-9.76,24.9-14.27,36.22,4.47,36.22,4.47-10-36.73-14.73-48.14-11.69-16.59-11.69-16.59Z"/><path class="cls-24" d="M1449.76,198.14c-3.49-8.46-8.32-6.39-10.76-3.39s1.28,17.28,4.21,23,9.62.09,9.62.09Z"/><path class="cls-25" d="M1532.14,198.87c3.66-8.4,8.45-6.24,10.83-3.21s-1.61,17.26-4.65,23-9.62-.08-9.62-.08Z"/><path class="cls-26" d="M1533.85,174c.12-17.39-6.66-28.48-14.83-35.54a42.93,42.93,0,0,0-55.48-.49c-8.31,6.92-15.29,17.89-15.51,35.27a307.48,307.48,0,0,0,1.29,37.16c1.38,13.47,8.74,28.41,19.2,37.9,11.63,10.55,27.07,14.35,42.28,1.91C1533.82,231.41,1533.67,201.21,1533.85,174Z"/><path class="cls-27" d="M1489.6,200.77a6.83,6.83,0,0,1-.14,1.24c-.4,2.29-1.49,6.7-1.92,10.69a18.91,18.91,0,0,0,0,5.49,5.52,5.52,0,0,0,.85,2.13,3.13,3.13,0,0,0,1.85,1.26,5.25,5.25,0,0,0,3.26-.5.92.92,0,0,0-.72-1.69,3.49,3.49,0,0,1-2.13.39,1.28,1.28,0,0,1-.87-.68,7.75,7.75,0,0,1-.62-3.86,51.75,51.75,0,0,1,1.19-8.56c.28-1.38.55-2.64.75-3.66a10.84,10.84,0,0,0,.29-2.4.91.91,0,1,0-1.82.15Z"/><path class="cls-28" d="M1479.84,233.25c5.4,3.89,15.47,6.82,23.78-1.61"/><path d="M1463.87,291.51c1-5.49-2-7.87-7-8.62-5.36-.8-16-.14-18.44-6.54-1.26-3.36.62-7.53-1.26-10.58-1.78-2.87-5.76-3-8.9-4.26-6.3-2.46-9.54-10.81-6.57-17,1.72-3.56,5.23-6.8,4.49-10.68-.36-1.91-1.71-3.44-2.58-5.18-4.33-8.64,2.23-15.75,5.36-23.33,2.73-6.63,5.9-13.11,8.57-19.78,2.19-5.45,3.38-11.44,2.42-17.22-2.18-13.14,5-28,14.15-37.36,10-10.32,27.52-17.53,41.85-13,3.51,1.1,6.79,3.48,8.14,6.9a17.58,17.58,0,0,1,.87,6.54c0,6,.68,13.38-2.45,18.71-2.74,4.67-8.12,7-13.26,8.72a106.65,106.65,0,0,1-18,4.15c-1.87.26-3.86.52-5.3,1.74-2.14,1.8-2.31,5-3.19,7.63-1.35,4.05-4.55,7.16-7.07,10.6-4.69,6.42-3.81,15.1-3.65,22.69.2,9.4.78,18.81,1.91,28.17,1.48,12.35,7.7,19.46,14.46,29.75,3.08,4.7,4.56,9.55,3.51,15.22a21.1,21.1,0,0,1-3.05,7.63C1467.56,288.39,1465.32,289.68,1463.87,291.51Z"/><path d="M1513,162.76c1.68,1.34,3.42,2.62,5.09,4a32.57,32.57,0,0,1,9.47,11.85c2.14,4.81,1.24,11.49,1.2,16.66-.16,19.77,1.65,45.2-11.19,61.84-3.63,4.69-8.44,8.85-9.82,14.64-2,8.36,3.87,16.36,9.37,22.94-6.37-7.63-.09-16.43,8.25-15.37,3.76.48,8.2,1,10.73-1.81,2.84-3.18,1.32-8.65,3.89-12.07,2.88-3.83,9.08-2.94,12.78-6,3.9-3.21,3.5-9.39,1.73-14.15s-4.6-9.37-4.41-14.44,3.25-9.38,3.92-14.29c1.41-10.27-7.52-18.69-11.54-28.22-4.4-10.41-3.67-22.53-6.12-33.42-2.27-10.13-7.27-17.3-12.89-26-1.8-2.78-3.73-5.69-6.67-7.2-2.72-1.4-8.64-2.24-11.45-.66-2,1.11-3.74,5.42-4.19,7.58a23.63,23.63,0,0,0-.11,6.72c.58,7.45,1.39,15.33,5.82,21.37A32.39,32.39,0,0,0,1513,162.76Z"/><path d="M1463.47,186.68a18.5,18.5,0,0,1,12.48-5.16"/><path d="M1501.94,180.64a30,30,0,0,1,15,3.8"/><path d="M1475.8,195.11a4,4,0,1,1-4-4A4,4,0,0,1,1475.8,195.11Z"/><path d="M1512.72,195.11a4,4,0,1,1-4-4A4,4,0,0,1,1512.72,195.11Z"/><polyline class="cls-29" points="1644.46 289.27 1640.24 311.47 1615.24 308.7 1621.49 281.79 1644.46 289.27"/><path class="cls-30" d="M1602.29,255.56c-4.74-5.91,18.56-23.78,24.14-15-2.14-21.51-3-24.08-3.11-28.44s.75-12.75,5.46-11.49c1.83,8.49,5.48,31.59,5.48,31.59s3.33-29.25,5.33-33.1a7,7,0,0,1,5.31-4.07s-.83,46.65,0,44c3.46-13.15,6.61-23.83,8.74-23.62l2.12.21s-2.25,28.8-3.88,34.39-7.39,39.25-7.39,39.25L1623.79,287s-18.13-6.32-21-15.1a29,29,0,0,1-.49-16.32s3.67,1.15,4.77,6.16,6.71,8.14,12.33,5.88,3.3-16.72-.24-19S1605.64,259.73,1602.29,255.56Z"/><path class="cls-19" d="M1606.44,293.91l36.93,4.14s-4.25,83.54-5.82,103-1.71,36.81-23.45,46.33-31.09-19.64-28.33-52.69S1606.44,293.91,1606.44,293.91Z"/></g><circle class="cls-20" cx="1222.2" cy="242.58" r="51.57"/><polyline class="cls-31" points="1189.17 239.52 1212.36 262.71 1253.13 221.93"/><g class="cls-32"><path class="cls-5" d="M1800.53,185c15.54,6.36,19.87,24.64,21.46,35.74s4.56,43.26,4.56,43.26l1.82,41.87h-19.78l-8.06-73.1Z"/><path class="cls-5" d="M1727.6,184c-15.54,6.36-19.87,24.63-21.46,35.74s-4.56,43.26-4.56,43.26l-1.82,41.87h19.78l8.06-73.1Z"/><path class="cls-5" d="M1806.39,313.41c0-.47-3.87-71.72-2.71-84.76-.83-19.61-1.83-35.35-3.15-43.62-7.61-2.53-11.4-4.08-23.5-7.34l-26.2-.24s-14.23,2.27-23.23,6.53c-.24.11-2.62,23.46-4.56,46.57-.27,19-3.76,50.32-7.1,79.89C1744.75,319.21,1777.94,320.61,1806.39,313.41Z"/><path class="cls-33" d="M1748.46,172.69c10-1,20.78-1.71,32,.29.58,5.21,0,5.92,0,5.92l-33.26-.3Z"/><polygon class="cls-34" points="1760.12 194.02 1763.52 199.47 1766.37 199.49 1769.16 195.13 1766.2 190.98 1762.53 190.87 1760.12 194.02"/><path class="cls-19" d="M1772.55,222.22l-5.49.38h-8.81l5.28-23.13,2.84,0C1767.17,201.75,1771.93,219.39,1772.55,222.22Z"/><path class="cls-35" d="M1753.12,162.47s-.21,9.16-.22,11.37-4.48,3.61-4.48,3.61,4.79,7.44,15.68,11.17c12.67-4.62,14.28-10.9,14.28-10.9s-3.53-1.32-3.92-3.06.11-12.94.11-12.94Z"/><path class="cls-36" d="M1747.06,147.19c-1.49-3.63-3.54-2.74-4.57-1.46s.57,7.41,1.82,9.87,4.09,0,4.09,0Z"/><path class="cls-37" d="M1782.07,147.5c1.56-3.6,3.59-2.68,4.6-1.37s-.7,7.4-2,9.83-4.08,0-4.08,0Z"/><path class="cls-38" d="M1782.81,136.82c.07-7.49-2.81-12.28-6.29-15.33a18.11,18.11,0,0,0-23.67-.21c-3.53,3-6.49,7.73-6.56,15.22,0,0-.23,15.07,1.59,21.91,1.54,5.79,3.92,9.69,7.73,12.14,6,3.84,13.12,3.53,17.48.34,4.81-3.52,6.12-6.43,7.76-12.19C1782.79,151.9,1782.81,136.82,1782.81,136.82Z"/><path class="cls-39" d="M1756.22,144.86a1.22,1.22,0,1,1-1.21-1.25A1.24,1.24,0,0,1,1756.22,144.86Z"/><path class="cls-39" d="M1775,145a1.21,1.21,0,0,1-1.23,1.22A1.24,1.24,0,1,1,1775,145Z"/><path class="cls-27" d="M1764,148.32a2.57,2.57,0,0,1-.06.53c-.17,1-.63,2.87-.81,4.58a8,8,0,0,0,0,2.35,2.29,2.29,0,0,0,.36.91,1.29,1.29,0,0,0,.78.54,2.24,2.24,0,0,0,1.39-.21.4.4,0,0,0,.2-.52.39.39,0,0,0-.51-.21,1.43,1.43,0,0,1-.9.17.58.58,0,0,1-.37-.29,3.3,3.3,0,0,1-.27-1.65,23.1,23.1,0,0,1,.51-3.67c.11-.59.23-1.13.31-1.57a5.29,5.29,0,0,0,.13-1,.41.41,0,0,0-.42-.36A.39.39,0,0,0,1764,148.32Z"/><path class="cls-39" d="M1751.36,140.64a19.13,19.13,0,0,1,5.08-.73.38.38,0,0,0,.39-.39.39.39,0,0,0-.39-.39,19.65,19.65,0,0,0-5.26.74.39.39,0,0,0-.28.48A.38.38,0,0,0,1751.36,140.64Z"/><path class="cls-39" d="M1771.64,140.49c.78.12,1.52.23,2.23.4a10.86,10.86,0,0,1,2.58.94.38.38,0,0,0,.52-.16.39.39,0,0,0-.17-.53,11.37,11.37,0,0,0-2.75-1c-.75-.17-1.51-.29-2.3-.41a.39.39,0,0,0-.11.78Z"/><path class="cls-40" d="M1746.49,178a9.15,9.15,0,0,1,2-5.27c3.07,5.51,8.62,12.27,16.14,15.93a40.15,40.15,0,0,0-6.92,9.41A44.69,44.69,0,0,1,1746.49,178Z"/><path class="cls-41" d="M1782.39,178.28a9,9,0,0,0-1.88-5.3c-3.16,5.45-8.83,12.11-16.41,15.64a39.79,39.79,0,0,1,6.75,9.53A44.73,44.73,0,0,0,1782.39,178.28Z"/><path class="cls-27" d="M1759.89,162a8.89,8.89,0,0,0,5.1,1.71,7.53,7.53,0,0,0,5.49-2.44.4.4,0,0,0,0-.56.38.38,0,0,0-.55,0A6.76,6.76,0,0,1,1765,163a8.06,8.06,0,0,1-4.64-1.56.4.4,0,0,0-.46.65Z"/><path d="M1780.58,122.77v0a.6.6,0,0,1-.08-.08c-.15-.18-.31-.34-.47-.51s-.39-.4-.62-.6l-.45-.36c-6.1-4.7-22.46-7.91-29.19.22v0c-2.66,2.33-4.32,6.71-4.34,11.83,0,6.13,1.25,16.74,1.25,16.74a10.19,10.19,0,0,0,.77-3.37c.13-2-.39-7.72,1.72-10,1.12-1.24,2.4-4.82,3.36-7.91h24.09c1,3.45,2.35,7.71,3.51,9,2.07,2.36,1.4,7.93,1.49,9.94a5.43,5.43,0,0,0,.57,2.65s1.46-10.59,1.54-16.72C1783.79,129.19,1782.6,125.29,1780.58,122.77Z"/></g><g class="cls-42"><path class="cls-43" d="M1778.44,304.71l-25.79-.13s-10.6,1.21-11.94-5.49S1767,287.3,1767,287.3s9.4-1.53,12.29,0,4.38,5.5,4.18,6.76,3.69-.55,3.69.12S1785.8,304.74,1778.44,304.71Z"/><path class="cls-17" d="M1800.53,323.34c15.54,6.36,19.87,24.63,21.46,35.73s4.56,43.26,4.56,43.26l1.82,41.87h-19.78l-8.06-73.1Z"/><path class="cls-17" d="M1727.6,322.28c-15.54,6.36-19.87,24.63-21.46,35.74s-4.56,43.26-4.56,43.26l-1.82,41.87h19.78l8.06-73.1Z"/><path class="cls-17" d="M1806.39,451.71c0-.47-3.87-71.72-2.71-84.76-.83-19.61-1.83-35.35-3.15-43.61-7.61-2.54-11.4-4.09-23.5-7.35l-26.2-.24s-14.23,2.27-23.23,6.53c-.24.11-2.62,23.46-4.56,46.57-.27,19-3.76,50.32-7.1,79.89C1744.75,457.51,1777.94,458.92,1806.39,451.71Z"/><path class="cls-44" d="M1753.12,300.78s-.21,9.15-.22,11.36-4.48,3.61-4.48,3.61S1744.93,341,1762.37,341c20.77,0,16-25,16-25s-3.53-1.32-3.92-3.06.11-12.94.11-12.94Z"/><path class="cls-45" d="M1747.06,285.49c-1.49-3.63-3.54-2.74-4.57-1.46s.57,7.41,1.82,9.87,4.09,0,4.09,0Z"/><path class="cls-46" d="M1782.07,285.8c1.56-3.6,3.59-2.68,4.6-1.37s-.7,7.4-2,9.83-4.08,0-4.08,0Z"/><path class="cls-47" d="M1782.81,275.12c.07-7.49-2.81-12.28-6.29-15.33a18.11,18.11,0,0,0-23.67-.21c-3.53,3-6.49,7.73-6.56,15.22,0,0-.23,15.07,1.59,21.91,1.54,5.79,3.92,9.69,7.73,12.14,6,3.85,13.12,3.53,17.48.34,4.81-3.52,6.12-6.43,7.76-12.19C1782.79,290.2,1782.81,275.12,1782.81,275.12Z"/><path class="cls-39" d="M1756.22,283.16a1.22,1.22,0,1,1-1.21-1.25A1.24,1.24,0,0,1,1756.22,283.16Z"/><path class="cls-39" d="M1775,283.33a1.23,1.23,0,0,1-1.23,1.23,1.24,1.24,0,0,1-1.21-1.25,1.22,1.22,0,1,1,2.44,0Z"/><path class="cls-27" d="M1764,286.62a2.51,2.51,0,0,1-.06.53c-.17,1-.63,2.87-.81,4.58a8,8,0,0,0,0,2.35,2.29,2.29,0,0,0,.36.91,1.29,1.29,0,0,0,.78.54,2.24,2.24,0,0,0,1.39-.21.4.4,0,0,0,.2-.52.38.38,0,0,0-.51-.2,1.48,1.48,0,0,1-.9.16.55.55,0,0,1-.37-.29,3.3,3.3,0,0,1-.27-1.65,23.1,23.1,0,0,1,.51-3.67c.11-.59.23-1.13.31-1.57a5.29,5.29,0,0,0,.13-1,.41.41,0,0,0-.42-.36A.39.39,0,0,0,1764,286.62Z"/><path class="cls-39" d="M1751.36,278.94a19.13,19.13,0,0,1,5.08-.73.38.38,0,0,0,.39-.39.39.39,0,0,0-.39-.39,19.65,19.65,0,0,0-5.26.74.39.39,0,0,0-.28.48A.38.38,0,0,0,1751.36,278.94Z"/><path class="cls-39" d="M1771.64,278.79c.78.12,1.52.24,2.23.4a10.86,10.86,0,0,1,2.58.94.38.38,0,0,0,.52-.16.39.39,0,0,0-.17-.53,10.93,10.93,0,0,0-2.75-1c-.75-.18-1.51-.3-2.3-.42a.39.39,0,0,0-.11.78Z"/><path class="cls-27" d="M1759.89,300.35a9,9,0,0,0,5.1,1.7,7.5,7.5,0,0,0,5.49-2.44.4.4,0,0,0,0-.56.38.38,0,0,0-.55,0,6.76,6.76,0,0,1-4.94,2.2,8.12,8.12,0,0,1-4.64-1.55.39.39,0,0,0-.55.09A.41.41,0,0,0,1759.89,300.35Z"/><path d="M1780.63,260.89a22.86,22.86,0,0,0-5-3.46c-6.45-3.75-16.82-4.23-23.16-.08-10,6.55-14.75,20-15.54,31.51-.35,5,.43,10.82,4.53,13.76,3.14,2.26,7.33,2.19,11.2,2a17.41,17.41,0,0,1-7-14.42,15.55,15.55,0,0,1,8.75-13.22c2.62-1.19,5.53-1.58,8.28-2.45a34.85,34.85,0,0,0,7.9-3.86c1.76-1.1,3.86-3.39,6-3.65,1.88,4.63,2.74,9.45,4.88,14,3.64,7.68,3,17.71-3,23.76a10.43,10.43,0,0,0,8.4-3.06,15.06,15.06,0,0,0,5-12.75,58.82,58.82,0,0,0-4.16-16,57.93,57.93,0,0,0-5.13-9.65A14.75,14.75,0,0,0,1780.63,260.89Z"/></g><path class="cls-20" d="M1894,403.7c-30.46-57.18-60.73-80.18-60.73-80.18s-16.72,64.23-3,123.47S1891,535.15,1891,535.15l41.85,125.39,11.22-2.67L1898.9,534.54S1924.45,460.89,1894,403.7Z"/><path class="cls-19" d="M1938,631.23c-47.43-93-162.4-137.49-215.58-148.25,17.5,93.39,138,99.48,169.08,97.36,35.31,31.67,37.2,60.19,37.2,60.19Z"/><line class="cls-48" x1="1838.98" y1="336.9" x2="1886.59" y2="518.19"/><path class="cls-48" d="M1884.47,571c-86.55-54.68-150.65-77.72-150.65-77.72"/><circle class="cls-49" cx="1309.81" cy="522.76" r="3.9" transform="translate(325.6 1532.81) rotate(-67.5)"/><circle class="cls-49" cx="1309.81" cy="554" r="3.9" transform="translate(296.73 1552.1) rotate(-67.5)"/><circle class="cls-49" cx="1341.06" cy="522.76" r="3.9" transform="translate(342.19 1559.08) rotate(-67.35)"/><circle class="cls-49" cx="1341.06" cy="554" r="3.9" transform="translate(313.35 1578.29) rotate(-67.35)"/><circle class="cls-49" cx="1372.3" cy="522.76" r="3.9" transform="translate(364.18 1590.55) rotate(-67.5)"/><circle class="cls-49" cx="1372.3" cy="554" r="3.9" transform="translate(335.31 1609.84) rotate(-67.5)"/><path class="cls-49" d="M1403.55,526.65a3.9,3.9,0,1,1,3.9-3.89A3.9,3.9,0,0,1,1403.55,526.65Z"/><path class="cls-49" d="M1403.55,557.9a3.9,3.9,0,1,1,3.9-3.9A3.91,3.91,0,0,1,1403.55,557.9Z"/><path class="cls-6" d="M1595.73,43.26a3.9,3.9,0,1,1,3.89-3.89A3.9,3.9,0,0,1,1595.73,43.26Z"/><path class="cls-6" d="M1595.73,74.51a3.9,3.9,0,1,1,3.89-3.9A3.91,3.91,0,0,1,1595.73,74.51Z"/><path class="cls-6" d="M1627,43.26a3.9,3.9,0,1,1,3.89-3.89A3.9,3.9,0,0,1,1627,43.26Z"/><path class="cls-6" d="M1627,74.51a3.9,3.9,0,1,1,3.89-3.9A3.91,3.91,0,0,1,1627,74.51Z"/><path class="cls-6" d="M1658.22,43.26a3.9,3.9,0,1,1,3.9-3.89A3.89,3.89,0,0,1,1658.22,43.26Z"/><circle class="cls-6" cx="1658.22" cy="70.61" r="3.9"/><path class="cls-6" d="M1691.36,43.21c-2.63.41-6.14-1.83-5.74-4.46a3.91,3.91,0,0,1,3.23-3.23c2.64-.41,6.15,1.83,5.75,4.46A3.93,3.93,0,0,1,1691.36,43.21Z"/><circle class="cls-6" cx="1689.47" cy="70.61" r="3.9"/></g><path class="cls-49" d="M173.09,304.7c-3.52,16.33-15.83,28.23-37.76,28.23-27.76,0-40.89-19.65-40.89-44.56,0-24,13.54-45.51,41.8-45.51,23.31,0,34.62,13.69,36.75,28.32H154.06c-1.83-6.75-6.52-13.47-18.43-13.47-15.61,0-21.64,14-21.64,30,0,14.8,5.23,30.39,22.15,30.39,12.36,0,16.26-8.27,17.91-13.38Z"/><path class="cls-49" d="M247.46,298.7c0,19.88-11.9,34.51-32.72,34.51-20.39,0-32.29-14.54-32.29-34.16,0-20.29,12.27-34.62,33.15-34.62C235,264.43,247.46,278.09,247.46,298.7Zm-46.54.12c0,12.66,5.45,20.15,14.21,20.15,8.91,0,13.86-7.5,13.86-20,0-13.75-5.05-20.26-14.11-20.26C206.44,278.67,200.92,284.92,200.92,298.82Z"/><path class="cls-49" d="M260.07,282.52c0-5.59,0-11.71-.13-16.57h17.63a75.24,75.24,0,0,1,.7,8.38c2.24-4.13,7.56-9.9,19.07-9.9,13.21,0,21.79,8.92,21.79,25.44v41.82H300.92v-39.8c0-7.39-2.46-12.74-10.49-12.74-7.73,0-12.16,4.3-12.16,15.91v36.63h-18.2Z"/><path class="cls-49" d="M327.61,266h10.13V248.16h18.2V266h12.88v13.69H355.94v32.44c0,5,1.52,6.93,6.95,6.93a33.19,33.19,0,0,0,4.14-.21v12.52c-3.61,1.23-8.56,1.26-12.23,1.26-12.82,0-17.06-6.86-17.06-18.36V279.64H327.61Z"/><path class="cls-49" d="M433.86,314.71c0,6.25.5,15.4.89,17H417.36a26.79,26.79,0,0,1-.92-6.42c-2.38,3.69-6.85,7.94-18.48,7.94-15.85,0-22.54-10.42-22.54-20.61,0-15,12-21.89,31.3-21.89h9.38v-4c0-4.68-1.68-9.27-10.12-9.27-7.68,0-9.36,3.26-10.2,8H378.47c1-11.68,8.21-21.13,28.2-21,17.6.11,27.19,7,27.19,22.64Zm-17.74-12.95H408.7c-11,0-15,3.35-15,9.69,0,4.76,2.92,8.77,9.46,8.77,11.57,0,13-8,13-16.73Z"/><path class="cls-49" d="M506.86,310.45c-2.27,10.95-10,22.76-29.56,22.76-20.46,0-31-14.15-31-33.91,0-19.41,11.85-34.87,31.86-34.87,22.16,0,28.32,15.9,28.68,23.34H489.09c-1.12-5.35-4.16-9.1-11.26-9.1-8.32,0-13,7.3-13,20,0,14,5,20.37,13,20.37,6.25,0,9.6-3.69,11.23-8.63Z"/><path class="cls-49" d="M513,266h10.14V248.16h18.2V266h12.87v13.69H541.36v32.44c0,5,1.52,6.93,6.95,6.93a33.19,33.19,0,0,0,4.14-.21v12.52c-3.61,1.23-8.56,1.26-12.23,1.26-12.83,0-17.06-6.86-17.06-18.36V279.64H513Z"/><path class="cls-49" d="M654.15,312.59c0,6.33,0,13.22.12,19.1H636.44c-.26-1.76-.38-5.28-.5-7.58-3.89,6.6-9.7,9.1-18.09,9.1-13.4,0-22-8.14-22-24.44V266h18.18v39.18c0,7.25,2.26,13.25,10.13,13.25,8.3,0,11.73-4.42,11.73-17.44V266h18.21Z"/><path class="cls-49" d="M682.94,311.93c1.38,5.23,5.66,8.18,12.45,8.18s9.17-2.42,9.17-6.4c0-4.22-2.83-5.87-12.25-8.19-21.41-5.27-24.91-11.9-24.91-21.18,0-9.66,6.82-19.91,26.65-19.91s26.69,10.89,27.26,19.79H704c-.58-2.42-2.2-7-10.76-7-6,0-8,2.67-8,5.63,0,3.27,2,4.85,12.71,7.33,21.93,5.11,25,12.62,25,22.26,0,10.89-8.28,20.79-28.33,20.79s-28.19-9.63-29.64-21.28Z"/><path class="cls-6" d="M1055.11,480.86c0,.67-5,1.22-11.08,1.22s-11.07-.55-11.07-1.22,5-1.23,11.07-1.23S1055.11,480.18,1055.11,480.86Z"/><path class="cls-6" d="M1066.88,450.72c.67,0,1.22,5,1.22,11.24s-.55,11.24-1.22,11.24-1.23-5-1.23-11.24S1066.2,450.72,1066.88,450.72Z"/><path class="cls-6" d="M1079.41,480.13c0-.67,5-1.22,11.07-1.22s11.08.55,11.08,1.22-5,1.23-11.08,1.23S1079.41,480.81,1079.41,480.13Z"/><path class="cls-6" d="M1067.64,510.27c-.68,0-1.22-5-1.22-11.24s.54-11.24,1.22-11.24,1.23,5,1.23,11.24S1068.32,510.27,1067.64,510.27Z"/><path class="cls-6" d="M1085.55,497.34c-.52.44-2.71-1.32-4.88-3.93s-3.52-5.06-3-5.5,2.7,1.33,4.88,3.93S1086.07,496.91,1085.55,497.34Z"/><path class="cls-6" d="M1084.51,463.17c.48.48-1,2.71-3.22,5s-4.48,3.74-5,3.26,1-2.71,3.22-5S1084,462.69,1084.51,463.17Z"/><path class="cls-6" d="M1059.12,471.88c-.43.52-2.53-.51-4.68-2.3s-3.54-3.66-3.11-4.18,2.53.51,4.68,2.29S1059.55,471.36,1059.12,471.88Z"/><path class="cls-6" d="M1058.12,486.94c.5.45-.75,2.65-2.8,4.9s-4.12,3.7-4.62,3.24.75-2.64,2.8-4.89S1057.62,486.48,1058.12,486.94Z"/><path class="cls-6" d="M1680.2,422.54c0,.39-2.81.7-6.29.7s-6.29-.31-6.29-.7,2.82-.69,6.29-.69S1680.2,422.16,1680.2,422.54Z"/><path class="cls-6" d="M1686.88,405.44c.39,0,.7,2.85.7,6.38s-.31,6.38-.7,6.38-.69-2.86-.69-6.38S1686.5,405.44,1686.88,405.44Z"/><path class="cls-6" d="M1694,422.14c0-.39,2.81-.7,6.28-.7s6.29.31,6.29.7-2.81.69-6.29.69S1694,422.52,1694,422.14Z"/><path class="cls-6" d="M1687.32,439.24c-.39,0-.7-2.85-.7-6.38s.31-6.38.7-6.38.69,2.86.69,6.38S1687.7,439.24,1687.32,439.24Z"/><path class="cls-6" d="M1697.48,431.91c-.29.24-1.53-.76-2.77-2.24s-2-2.87-1.7-3.12,1.53.75,2.77,2.23S1697.78,431.66,1697.48,431.91Z"/><path class="cls-6" d="M1696.89,412.5c.28.27-.54,1.54-1.82,2.84s-2.55,2.12-2.82,1.85.55-1.54,1.83-2.83S1696.62,412.23,1696.89,412.5Z"/><path class="cls-6" d="M1682.48,417.45c-.25.29-1.44-.29-2.66-1.31s-2-2.08-1.76-2.37,1.43.29,2.65,1.3S1682.72,417.15,1682.48,417.45Z"/><path class="cls-6" d="M1681.91,426c.29.26-.43,1.5-1.59,2.78s-2.34,2.1-2.62,1.84.43-1.5,1.59-2.78S1681.63,425.74,1681.91,426Z"/><path class="cls-6" d="M1394.49,565.64c0,.3-2.15.53-4.82.53s-4.82-.23-4.82-.53,2.16-.53,4.82-.53S1394.49,565.35,1394.49,565.64Z"/><path class="cls-6" d="M1399.61,552.53c.3,0,.54,2.19.54,4.89s-.24,4.89-.54,4.89-.53-2.19-.53-4.89S1399.32,552.53,1399.61,552.53Z"/><path class="cls-6" d="M1405.07,565.33c0-.3,2.16-.54,4.82-.54s4.82.24,4.82.54-2.16.53-4.82.53S1405.07,565.62,1405.07,565.33Z"/><path class="cls-6" d="M1400,578.44c-.3,0-.54-2.19-.54-4.89s.24-4.89.54-4.89.53,2.19.53,4.89S1400.24,578.44,1400,578.44Z"/><path class="cls-6" d="M1407.74,572.82c-.23.19-1.18-.58-2.12-1.71s-1.53-2.21-1.31-2.4,1.18.58,2.13,1.71S1408,572.63,1407.74,572.82Z"/><path class="cls-6" d="M1407.29,557.94c.21.21-.42,1.18-1.4,2.17s-2,1.63-2.16,1.42.42-1.18,1.4-2.17S1407.08,557.74,1407.29,557.94Z"/><path class="cls-6" d="M1396.24,561.73c-.19.23-1.1-.22-2-1s-1.54-1.59-1.35-1.82,1.1.22,2,1S1396.43,561.51,1396.24,561.73Z"/><path class="cls-6" d="M1395.8,568.29c.22.2-.32,1.15-1.22,2.13s-1.79,1.61-2,1.41.33-1.15,1.23-2.13S1395.59,568.09,1395.8,568.29Z"/><path class="cls-6" d="M1319.09,423.65l.81,2a13.89,13.89,0,0,0,7.61,7.54l2.14.87-2.05.83a13.92,13.92,0,0,0-7.67,7.69l-.58,1.43-.86-1.8a13.89,13.89,0,0,0-7.77-7l-1.86-.68,2.43-1.18a13.91,13.91,0,0,0,6.78-7.17Z"/><path class="cls-6" d="M999.57,570.87l.54,1.3a9.26,9.26,0,0,0,5.06,5l1.42.57-1.36.55a9.3,9.3,0,0,0-5.1,5.11l-.38,1-.58-1.19A9.23,9.23,0,0,0,994,578.5l-1.23-.45,1.61-.79a9.25,9.25,0,0,0,4.5-4.76Z"/><path class="cls-6" d="M1804.67,444l.55,1.3a9.22,9.22,0,0,0,5,5l1.42.58-1.36.55a9.27,9.27,0,0,0-5.1,5.11l-.38,1-.57-1.2a9.29,9.29,0,0,0-5.17-4.68l-1.23-.45,1.61-.78a9.21,9.21,0,0,0,4.5-4.76Z"/><path class="cls-6" d="M1471,411.74l.38.92a6.52,6.52,0,0,0,3.57,3.54l1,.41-1,.39a6.51,6.51,0,0,0-3.59,3.6l-.27.67-.41-.84a6.52,6.52,0,0,0-3.64-3.3l-.87-.32,1.13-.55a6.53,6.53,0,0,0,3.18-3.37Z"/><path class="cls-6" d="M1217.34,562.55l.5,1.18a8.41,8.41,0,0,0,4.59,4.56l1.29.52-1.24.5a8.43,8.43,0,0,0-4.63,4.64l-.35.87-.52-1.09a8.4,8.4,0,0,0-4.69-4.25l-1.12-.41,1.47-.71a8.47,8.47,0,0,0,4.09-4.33Z"/><path class="cls-6" d="M69.83,100.34c0,.68-5,1.23-11.08,1.23s-11.08-.55-11.08-1.23,5-1.22,11.08-1.22S69.83,99.66,69.83,100.34Z"/><path class="cls-6" d="M81.59,70.21c.68,0,1.23,5,1.23,11.24s-.55,11.24-1.23,11.24-1.22-5-1.22-11.24S80.92,70.21,81.59,70.21Z"/><path class="cls-6" d="M94.12,99.62c0-.68,5-1.23,11.08-1.23s11.08.55,11.08,1.23-5,1.23-11.08,1.23S94.12,100.3,94.12,99.62Z"/><path class="cls-6" d="M82.36,129.76c-.68,0-1.23-5-1.23-11.24s.55-11.25,1.23-11.25,1.22,5,1.22,11.25S83,129.76,82.36,129.76Z"/><path class="cls-6" d="M100.26,116.83c-.52.43-2.7-1.33-4.87-3.93s-3.52-5.07-3-5.5,2.7,1.32,4.88,3.93S100.78,116.4,100.26,116.83Z"/><path class="cls-6" d="M99.23,82.65c.48.48-1,2.71-3.22,5s-4.48,3.74-5,3.26,1-2.7,3.22-5S98.75,82.18,99.23,82.65Z"/><path class="cls-6" d="M73.84,91.36c-.44.52-2.53-.51-4.68-2.3s-3.54-3.66-3.11-4.18,2.53.51,4.68,2.3S74.27,90.84,73.84,91.36Z"/><path class="cls-6" d="M72.84,106.42c.5.46-.76,2.65-2.81,4.9s-4.11,3.71-4.61,3.25.75-2.65,2.8-4.9S72.34,106,72.84,106.42Z"/><path class="cls-6" d="M694.92,42c0,.38-2.82.7-6.29.7s-6.29-.32-6.29-.7,2.82-.7,6.29-.7S694.92,41.65,694.92,42Z"/><path class="cls-6" d="M701.6,24.92c.38,0,.7,2.86.7,6.38s-.32,6.38-.7,6.38-.7-2.85-.7-6.38S701.22,24.92,701.6,24.92Z"/><path class="cls-6" d="M708.71,41.62c0-.38,2.82-.7,6.29-.7s6.29.32,6.29.7-2.81.7-6.29.7S708.71,42,708.71,41.62Z"/><path class="cls-6" d="M702,58.73c-.38,0-.69-2.86-.69-6.38S701.65,46,702,46s.7,2.85.7,6.38S702.42,58.73,702,58.73Z"/><path class="cls-6" d="M712.2,51.39c-.3.25-1.54-.75-2.77-2.23s-2-2.88-1.7-3.12,1.53.75,2.77,2.23S712.49,51.14,712.2,51.39Z"/><path class="cls-6" d="M711.61,32c.27.27-.54,1.54-1.83,2.83s-2.54,2.12-2.81,1.85.54-1.54,1.83-2.83S711.34,31.72,711.61,32Z"/><path class="cls-6" d="M697.2,36.93c-.25.3-1.44-.29-2.66-1.3s-2-2.08-1.77-2.38,1.44.29,2.66,1.31S697.44,36.64,697.2,36.93Z"/><path class="cls-6" d="M696.63,45.48c.28.26-.43,1.51-1.59,2.78s-2.34,2.11-2.63,1.85.43-1.51,1.6-2.78S696.35,45.22,696.63,45.48Z"/><path class="cls-6" d="M409.21,185.13c0,.29-2.16.53-4.82.53s-4.82-.24-4.82-.53,2.16-.54,4.82-.54S409.21,184.83,409.21,185.13Z"/><path class="cls-6" d="M414.33,172c.3,0,.54,2.19.54,4.89s-.24,4.89-.54,4.89-.53-2.19-.53-4.89S414,172,414.33,172Z"/><path class="cls-6" d="M419.79,184.81c0-.29,2.16-.53,4.82-.53s4.82.24,4.82.53-2.16.54-4.82.54S419.79,185.11,419.79,184.81Z"/><path class="cls-6" d="M414.67,197.93c-.3,0-.54-2.19-.54-4.89s.24-4.9.54-4.9.53,2.19.53,4.9S415,197.93,414.67,197.93Z"/><path class="cls-6" d="M422.46,192.3c-.23.19-1.18-.58-2.12-1.71s-1.54-2.2-1.31-2.39,1.18.57,2.12,1.71S422.68,192.11,422.46,192.3Z"/><path class="cls-6" d="M422,177.43c.21.21-.42,1.18-1.4,2.17s-1.95,1.63-2.16,1.42.42-1.18,1.4-2.17S421.8,177.22,422,177.43Z"/><path class="cls-6" d="M411,181.22c-.19.22-1.1-.22-2-1s-1.54-1.6-1.35-1.82,1.1.22,2,1S411.15,181,411,181.22Z"/><path class="cls-6" d="M410.52,187.77c.22.2-.33,1.16-1.22,2.13s-1.79,1.62-2,1.42.33-1.15,1.22-2.13S410.31,187.57,410.52,187.77Z"/><path class="cls-6" d="M665.34,205.52c0,.38-2.82.7-6.29.7s-6.29-.32-6.29-.7,2.82-.7,6.29-.7S665.34,205.14,665.34,205.52Z"/><path class="cls-6" d="M672,188.41c.38,0,.7,2.86.7,6.38s-.32,6.38-.7,6.38-.7-2.85-.7-6.38S671.64,188.41,672,188.41Z"/><path class="cls-6" d="M679.13,205.11c0-.38,2.82-.69,6.29-.69s6.29.31,6.29.69-2.81.7-6.29.7S679.13,205.5,679.13,205.11Z"/><path class="cls-6" d="M672.45,222.22c-.38,0-.69-2.86-.69-6.38s.31-6.38.69-6.38.7,2.85.7,6.38S672.84,222.22,672.45,222.22Z"/><path class="cls-6" d="M682.62,214.88c-.29.25-1.54-.75-2.77-2.23s-2-2.88-1.7-3.12,1.53.75,2.77,2.23S682.91,214.63,682.62,214.88Z"/><path class="cls-6" d="M682,195.48c.28.27-.54,1.54-1.82,2.83s-2.55,2.12-2.82,1.85.54-1.54,1.83-2.83S681.76,195.21,682,195.48Z"/><path class="cls-6" d="M667.62,200.42c-.25.3-1.44-.29-2.66-1.3s-2-2.08-1.76-2.38,1.43.29,2.65,1.31S667.86,200.13,667.62,200.42Z"/><path class="cls-6" d="M667.05,209c.28.26-.43,1.51-1.59,2.78s-2.34,2.11-2.62,1.85.42-1.51,1.59-2.78S666.77,208.71,667.05,209Z"/><path class="cls-6" d="M333.8,43.14l.82,2a13.93,13.93,0,0,0,7.61,7.54l2.13.86-2,.84A13.87,13.87,0,0,0,334.65,62l-.58,1.43-.86-1.8a13.92,13.92,0,0,0-7.77-7l-1.86-.68L326,52.76a13.93,13.93,0,0,0,6.77-7.17Z"/><path class="cls-6" d="M14.29,190.36l.54,1.3a9.24,9.24,0,0,0,5.06,5l1.42.58L20,197.8a9.27,9.27,0,0,0-5.1,5.11l-.38,1-.58-1.2A9.23,9.23,0,0,0,8.73,198l-1.24-.45,1.62-.78a9.25,9.25,0,0,0,4.5-4.76Z"/><path class="cls-6" d="M819.39,63.45l.54,1.31a9.27,9.27,0,0,0,5.06,5l1.42.57-1.36.56A9.25,9.25,0,0,0,820,76l-.38,1L819,75.76a9.23,9.23,0,0,0-5.16-4.68l-1.23-.45,1.61-.78a9.27,9.27,0,0,0,4.5-4.77Z"/><path class="cls-6" d="M485.67,31.23l.38.92a6.55,6.55,0,0,0,3.57,3.54l1,.4-1,.39a6.56,6.56,0,0,0-3.59,3.61l-.28.67-.4-.84a6.57,6.57,0,0,0-3.64-3.31l-.88-.32,1.14-.55a6.48,6.48,0,0,0,3.18-3.36Z"/><path class="cls-6" d="M232.06,182l.5,1.19a8.36,8.36,0,0,0,4.59,4.55l1.29.53-1.24.5a8.37,8.37,0,0,0-4.63,4.64l-.35.86-.52-1.08A8.42,8.42,0,0,0,227,189l-1.12-.41,1.46-.71a8.37,8.37,0,0,0,4.1-4.33Z"/><path class="cls-6" d="M84.7,487.91c0,.68-5,1.23-11.07,1.23s-11.08-.55-11.08-1.23,5-1.22,11.08-1.22S84.7,487.24,84.7,487.91Z"/><path class="cls-6" d="M96.47,457.78c.68,0,1.22,5,1.22,11.24s-.54,11.24-1.22,11.24-1.23-5-1.23-11.24S95.79,457.78,96.47,457.78Z"/><path class="cls-6" d="M109,487.19c0-.67,5-1.22,11.08-1.22s11.07.55,11.07,1.22-5,1.23-11.07,1.23S109,487.87,109,487.19Z"/><path class="cls-6" d="M97.23,517.33c-.67,0-1.22-5-1.22-11.24s.55-11.24,1.22-11.24,1.23,5,1.23,11.24S97.91,517.33,97.23,517.33Z"/><path class="cls-6" d="M115.14,504.4c-.52.44-2.7-1.32-4.88-3.93s-3.52-5.07-3-5.5,2.71,1.33,4.88,3.93S115.66,504,115.14,504.4Z"/><path class="cls-6" d="M114.11,470.23c.48.47-1,2.71-3.22,5s-4.48,3.73-5,3.26,1-2.71,3.22-5S113.62,469.75,114.11,470.23Z"/><path class="cls-6" d="M88.71,478.93c-.43.52-2.53-.5-4.68-2.29s-3.54-3.66-3.1-4.18,2.52.5,4.67,2.29S89.14,478.41,88.71,478.93Z"/><path class="cls-6" d="M87.71,494c.51.45-.75,2.65-2.8,4.89s-4.12,3.71-4.62,3.25.76-2.65,2.81-4.9S87.22,493.54,87.71,494Z"/><path class="cls-6" d="M709.8,429.6c0,.39-2.82.7-6.29.7s-6.29-.31-6.29-.7,2.81-.69,6.29-.69S709.8,429.22,709.8,429.6Z"/><path class="cls-6" d="M716.48,412.49c.38,0,.69,2.86.69,6.39s-.31,6.38-.69,6.38-.7-2.86-.7-6.38S716.09,412.49,716.48,412.49Z"/><path class="cls-6" d="M723.59,429.19c0-.38,2.81-.69,6.29-.69s6.29.31,6.29.69-2.82.7-6.29.7S723.59,429.58,723.59,429.19Z"/><path class="cls-6" d="M716.91,446.3c-.38,0-.7-2.86-.7-6.38s.32-6.38.7-6.38.7,2.86.7,6.38S717.29,446.3,716.91,446.3Z"/><path class="cls-6" d="M727.08,439c-.3.25-1.54-.75-2.77-2.23s-2-2.87-1.71-3.12,1.54.75,2.77,2.23S727.37,438.72,727.08,439Z"/><path class="cls-6" d="M726.49,419.56c.27.27-.55,1.54-1.83,2.83s-2.54,2.13-2.82,1.86.55-1.54,1.83-2.84S726.21,419.29,726.49,419.56Z"/><path class="cls-6" d="M712.07,424.5c-.24.3-1.43-.28-2.65-1.3s-2-2.08-1.77-2.37,1.43.28,2.66,1.3S712.32,424.21,712.07,424.5Z"/><path class="cls-6" d="M711.5,433.06c.29.25-.42,1.5-1.59,2.78s-2.34,2.1-2.62,1.84.43-1.5,1.59-2.78S711.22,432.8,711.5,433.06Z"/><path class="cls-6" d="M424.09,572.7c0,.29-2.16.53-4.82.53s-4.82-.24-4.82-.53,2.15-.53,4.82-.53S424.09,572.4,424.09,572.7Z"/><path class="cls-6" d="M429.21,559.58c.29,0,.53,2.19.53,4.9s-.24,4.89-.53,4.89-.53-2.19-.53-4.89S428.91,559.58,429.21,559.58Z"/><path class="cls-6" d="M434.66,572.39c0-.3,2.16-.54,4.82-.54s4.82.24,4.82.54-2.15.53-4.82.53S434.66,572.68,434.66,572.39Z"/><path class="cls-6" d="M429.54,585.5c-.29,0-.53-2.19-.53-4.89s.24-4.89.53-4.89.54,2.19.54,4.89S429.84,585.5,429.54,585.5Z"/><path class="cls-6" d="M437.33,579.87c-.22.19-1.17-.57-2.12-1.71s-1.53-2.2-1.3-2.39,1.17.58,2.12,1.71S437.56,579.69,437.33,579.87Z"/><path class="cls-6" d="M436.88,565c.21.21-.41,1.18-1.4,2.17s-2,1.63-2.16,1.42.42-1.18,1.41-2.17S436.67,564.79,436.88,565Z"/><path class="cls-6" d="M425.83,568.79c-.19.23-1.1-.22-2-1s-1.54-1.59-1.36-1.82,1.1.22,2,1S426,568.56,425.83,568.79Z"/><path class="cls-6" d="M425.4,575.35c.22.19-.33,1.15-1.22,2.13s-1.79,1.61-2,1.41.33-1.15,1.22-2.13S425.18,575.15,425.4,575.35Z"/><path class="cls-6" d="M348.68,430.71l.82,2a13.86,13.86,0,0,0,7.61,7.54l2.13.87-2.05.83a13.93,13.93,0,0,0-7.67,7.68L349,451l-.87-1.79a13.94,13.94,0,0,0-7.77-7.05l-1.86-.67,2.43-1.18a13.91,13.91,0,0,0,6.78-7.17Z"/><path class="cls-6" d="M29.16,577.93l.55,1.3a9.21,9.21,0,0,0,5.06,5l1.41.58-1.36.55a9.22,9.22,0,0,0-5.09,5.11l-.39.95-.57-1.19a9.22,9.22,0,0,0-5.17-4.68l-1.23-.45,1.61-.79a9.23,9.23,0,0,0,4.51-4.76Z"/><path class="cls-6" d="M834.27,451l.54,1.31a9.24,9.24,0,0,0,5.06,5l1.41.58-1.36.55a9.19,9.19,0,0,0-5.09,5.11l-.39.95-.57-1.2a9.27,9.27,0,0,0-5.16-4.68l-1.24-.45,1.62-.78a9.27,9.27,0,0,0,4.5-4.77Z"/><path class="cls-6" d="M500.55,418.8l.38.92a6.52,6.52,0,0,0,3.57,3.54l1,.4-1,.39a6.54,6.54,0,0,0-3.6,3.61l-.27.67-.4-.84a6.56,6.56,0,0,0-3.65-3.31l-.87-.31,1.14-.56a6.56,6.56,0,0,0,3.18-3.36Z"/><path class="cls-6" d="M246.94,569.61l.49,1.18a8.43,8.43,0,0,0,4.6,4.56l1.28.52-1.23.5a8.4,8.4,0,0,0-4.63,4.64l-.35.87-.52-1.09a8.4,8.4,0,0,0-4.69-4.25l-1.13-.41,1.47-.71a8.43,8.43,0,0,0,4.09-4.33Z"/></g></g></svg>