<svg xmlns="http://www.w3.org/2000/svg" viewBox="0 0 405.09 399.49"><defs><style>.cls-1{fill:#ebebeb;}.cls-2{fill:#7d89b7;}.cls-3{fill:#b2b8ce;}.cls-4{fill:#fff;}.cls-5{fill:#263238;}.cls-6{fill:#5a1e52;}.cls-7{fill:#a8487c;}.cls-8{fill:#ffbf9d;}.cls-9{fill:#ff9a6c;}.cls-10{fill:#455a64;}.cls-11{fill:#26324f;}.cls-12{opacity:0.3;}.cls-13{fill:#212a41;}</style></defs><g id="Layer_2" data-name="Layer 2"><g id="Character_2" data-name="Character 2"><path class="cls-1" d="M260.27,200.34l-102.44-1-31.05-.15-8.44,0-2.19,0a5.31,5.31,0,0,0-.75,0,4.27,4.27,0,0,0,.75.05l2.19,0,8.44.11,31,.16,102.45.07c40,0,76.19,0,102.4.24,13.1.09,23.71.21,31,.35,3.67.07,6.51.14,8.44.22a15.34,15.34,0,0,1,2.94.22,16.39,16.39,0,0,1-2.94.19c-1.93.05-4.78.1-8.44.13-7.33.06-17.94.08-31,0C336.45,201.06,300.25,200.75,260.27,200.34Z"/><path class="cls-1" d="M259.47,209.24l-101-16.66-30.65-4.9-8.34-1.28-2.17-.3a3.23,3.23,0,0,0-.75-.07,5.72,5.72,0,0,0,.74.16l2.15.39,8.33,1.4,30.64,4.92,101.19,15.76c39.49,6.11,75.25,11.71,101.12,15.92,12.93,2.1,23.39,3.84,30.6,5.11,3.61.63,6.41,1.14,8.31,1.51a15.82,15.82,0,0,1,2.87.67,15.69,15.69,0,0,1-2.94-.26c-1.92-.24-4.73-.64-8.36-1.16-7.25-1.06-17.73-2.67-30.67-4.72C334.61,221.64,298.9,215.78,259.47,209.24Z"/><path class="cls-1" d="M257.27,217.91l-97.12-32.15-29.48-9.6-8-2.55-2.1-.64a5,5,0,0,0-.73-.19,4.63,4.63,0,0,0,.7.28l2.07.72,8,2.67L160,186.07l97.42,31.27c38,12.18,72.45,23.26,97.31,31.42,12.44,4.09,22.49,7.44,29.41,9.81,3.47,1.18,6.15,2.12,8,2.78a15.5,15.5,0,0,1,2.73,1.11,15.62,15.62,0,0,1-2.86-.71c-1.85-.54-4.58-1.36-8.07-2.45-7-2.16-17.09-5.38-29.54-9.41C329.49,241.83,295.16,230.49,257.27,217.91Z"/><path class="cls-1" d="M253.71,226.12,162.93,179.3l-27.58-14.05-7.52-3.77-2-.95a4,4,0,0,0-.69-.3,5.17,5.17,0,0,0,.64.38l1.93,1,7.47,3.88,27.57,14.07,91.21,46c35.61,17.92,67.83,34.21,91.09,46.13,11.62,6,21,10.83,27.48,14.24,3.23,1.71,5.73,3,7.41,4a16.29,16.29,0,0,1,2.52,1.52,14.56,14.56,0,0,1-2.71-1.15c-1.74-.82-4.3-2.05-7.58-3.67-6.56-3.23-16-8-27.67-13.88C321.23,260.94,289.13,244.42,253.71,226.12Z"/><path class="cls-1" d="M248.89,233.68l-82.24-60.23-25-18.14-6.84-4.88L133,149.18a6.42,6.42,0,0,0-.63-.4,3.25,3.25,0,0,0,.57.48l1.75,1.31,6.76,5,25,18.15,82.79,59.49c32.33,23.2,61.58,44.25,82.66,59.61,10.54,7.68,19,13.94,24.88,18.31,2.92,2.18,5.18,3.89,6.7,5.07a14.55,14.55,0,0,1,2.24,1.89,15.33,15.33,0,0,1-2.49-1.56c-1.6-1.07-3.92-2.69-6.91-4.79-6-4.2-14.55-10.34-25.12-18C310.06,278.48,281,257.22,248.89,233.68Z"/><path class="cls-1" d="M242.94,240.41,171.2,168.29l-21.85-21.75-6-5.87-1.58-1.51a5.52,5.52,0,0,0-.56-.49,5.09,5.09,0,0,0,.5.56l1.51,1.56,5.89,6L171,168.52,243.37,240c28.28,27.87,53.85,53.15,72.25,71.56,9.2,9.21,16.61,16.69,21.69,21.9,2.54,2.61,4.5,4.64,5.82,6a15.42,15.42,0,0,1,1.92,2.21,15.07,15.07,0,0,1-2.22-1.92c-1.41-1.31-3.45-3.26-6.07-5.79-5.23-5.07-12.74-12.45-22-21.62C296.3,294,270.92,268.58,242.94,240.41Z"/><path class="cls-1" d="M236,246.14,176.51,163.9l-18.16-24.84-5-6.72-1.32-1.73a4.45,4.45,0,0,0-.47-.57,3.37,3.37,0,0,0,.4.62c.29.43.71,1,1.24,1.79,1.14,1.57,2.78,3.85,4.89,6.79l18.13,24.85,60.25,81.7c23.54,31.87,44.81,60.77,60.08,81.78,7.64,10.5,13.78,19,18,24.95,2.1,3,3.71,5.28,4.79,6.86a15.33,15.33,0,0,1,1.55,2.48,15.24,15.24,0,0,1-1.89-2.24c-1.18-1.5-2.9-3.74-5.08-6.65-4.37-5.8-10.63-14.25-18.31-24.72C280.25,307.31,259.19,278.26,236,246.14Z"/><path class="cls-1" d="M228.24,250.73l-45.72-90.4-14-27.33c-1.67-3.2-3-5.69-3.86-7.41-.45-.82-.79-1.45-1-1.91a4.66,4.66,0,0,0-.38-.64,5.08,5.08,0,0,0,.3.68c.22.47.54,1.11.95,2l3.74,7.47,14,27.33c11.93,23.05,28.38,54.85,46.56,90s34.63,66.92,46.38,90c5.88,11.55,10.59,20.92,13.8,27.42,1.6,3.25,2.83,5.78,3.64,7.51a15.76,15.76,0,0,1,1.14,2.69,14.72,14.72,0,0,1-1.52-2.5c-.93-1.67-2.26-4.15-4-7.35-3.39-6.41-8.24-15.72-14.16-27.25C262.24,318,246.06,286,228.24,250.73Z"/><path class="cls-1" d="M219.84,254.07c-12-37.63-22.85-71.69-30.72-96.38-4-12.29-7.22-22.24-9.46-29.16-1.14-3.41-2-6.07-2.63-7.9-.31-.89-.54-1.57-.71-2a6.15,6.15,0,0,0-.27-.69,3.22,3.22,0,0,0,.18.71l.63,2.08,2.5,7.95c2.24,6.91,5.46,16.87,9.44,29.17,8.1,24.61,19.27,58.57,31.62,96.09s23.52,71.46,31.44,96.11c4,12.31,7.12,22.3,9.25,29.22,1.07,3.46,1.87,6.15,2.4,8a15,15,0,0,1,.69,2.83,14.86,14.86,0,0,1-1.1-2.7c-.65-1.79-1.57-4.45-2.74-7.88-2.33-6.85-5.62-16.79-9.64-29.1C242.69,325.75,231.8,291.69,219.84,254.07Z"/><path class="cls-1" d="M211,256.06c-5.84-39-11.13-74.34-15-99.94-2-12.76-3.58-23.09-4.69-30.27L190,117.64c-.16-.92-.28-1.63-.37-2.14a3.85,3.85,0,0,0-.16-.72,5.88,5.88,0,0,0,.07.74c.07.51.16,1.22.29,2.14.28,1.91.68,4.68,1.2,8.24,1.11,7.17,2.7,17.51,4.67,30.27,4.07,25.56,9.69,60.83,15.89,99.8s11.83,74.23,15.71,99.79c2,12.78,3.48,23.13,4.48,30.29.5,3.59.87,6.37,1.09,8.26a15,15,0,0,1,.24,2.9,14.76,14.76,0,0,1-.65-2.84c-.36-1.87-.85-4.63-1.45-8.2-1.21-7.13-2.88-17.46-4.88-30.23C222.14,330.39,216.83,295.07,211,256.06Z"/><path class="cls-1" d="M202,256.67c.36-39.45.69-75.15.92-101,.06-12.9.1-23.35.13-30.61,0-3.6,0-6.39,0-8.32,0-.94,0-1.65,0-2.17s0-.74,0-.74a3.24,3.24,0,0,0-.05.74c0,.51,0,1.23,0,2.16,0,1.94-.06,4.73-.11,8.33,0,7.25-.08,17.7-.14,30.61,0,25.88,0,61.58,0,101s0,75.13-.18,101c-.08,12.93-.2,23.39-.34,30.62-.07,3.61-.14,6.42-.21,8.32a16.08,16.08,0,0,1-.22,2.9,15.28,15.28,0,0,1-.2-2.9c-.05-1.91-.1-4.71-.13-8.33-.08-7.23-.1-17.69-.07-30.61C201.29,331.8,201.59,296.09,202,256.67Z"/><path class="cls-1" d="M193,255.89c6.58-38.92,12.53-74.13,16.84-99.66,2.09-12.74,3.78-23.06,5-30.22.55-3.55,1-6.32,1.28-8.23.14-.92.24-1.63.31-2.14a4.91,4.91,0,0,0,.08-.74,3.54,3.54,0,0,0-.17.73l-.39,2.13c-.33,1.9-.81,4.66-1.42,8.2-1.18,7.16-2.87,17.48-5,30.22-4.08,25.56-9.7,60.83-15.91,99.8s-11.83,74.23-16.08,99.73c-2.12,12.76-3.89,23.07-5.16,30.19-.64,3.56-1.16,6.32-1.53,8.19a14.61,14.61,0,0,1-.68,2.83,15.3,15.3,0,0,1,.26-2.9c.25-1.89.64-4.67,1.18-8.24,1.06-7.15,2.69-17.49,4.76-30.25C180.43,330,186.35,294.77,193,255.89Z"/><path class="cls-1" d="M184.16,253.72c12.71-37.41,24.21-71.26,32.55-95.79,4.09-12.26,7.41-22.19,9.71-29.08l2.58-7.93c.28-.89.49-1.57.65-2.06a5.11,5.11,0,0,0,.19-.72,4.16,4.16,0,0,0-.28.69c-.18.48-.42,1.16-.73,2l-2.71,7.88c-2.31,6.89-5.63,16.82-9.74,29.07-8.1,24.61-19.28,58.57-31.64,96.09s-23.53,71.46-31.8,96c-4.14,12.26-7.53,22.18-9.92,29-1.2,3.41-2.15,6.06-2.82,7.85a14.21,14.21,0,0,1-1.13,2.69,14.8,14.8,0,0,1,.72-2.82c.55-1.83,1.38-4.52,2.48-8,2.19-6.89,5.45-16.85,9.53-29.13C160,325,171.43,291.1,184.16,253.72Z"/><path class="cls-1" d="M175.83,250.22l47.42-89.55,14.23-27.21L241.3,126l1-1.94a5.08,5.08,0,0,0,.3-.68,6.45,6.45,0,0,0-.38.64l-1.05,1.9-3.93,7.37L223,160.52c-11.94,23-28.4,54.84-46.59,90s-34.65,66.92-46.73,89.86c-6,11.47-11,20.73-14.42,27.11-1.73,3.19-3.09,5.65-4,7.31a16.53,16.53,0,0,1-1.54,2.49,14.91,14.91,0,0,1,1.16-2.68c.83-1.72,2.08-4.24,3.72-7.47,3.27-6.47,8.07-15.8,14.06-27.3C140.57,316.82,157.3,285.16,175.83,250.22Z"/><path class="cls-1" d="M168.16,245.47c23.84-31.68,45.4-60.36,61-81.14l18.38-24.68,4.94-6.74,1.27-1.77a5.07,5.07,0,0,0,.4-.62,5.24,5.24,0,0,0-.48.56l-1.33,1.72-5.05,6.67-18.39,24.67-60.28,81.68c-23.5,31.9-44.83,60.76-60.4,81.55-7.78,10.4-14.11,18.79-18.54,24.56-2.21,2.88-3.94,5.11-5.14,6.6a15.55,15.55,0,0,1-1.91,2.22,14.78,14.78,0,0,1,1.57-2.46c1.09-1.58,2.73-3.87,4.85-6.82,4.26-5.88,10.48-14.35,18.22-24.79C122.77,305.82,144.32,277.12,168.16,245.47Z"/><path class="cls-1" d="M161.34,239.61l73.08-70.8,22-21.56,6-5.9,1.53-1.56a4.62,4.62,0,0,0,.5-.55,5.52,5.52,0,0,0-.56.49l-1.59,1.49-6,5.82-22.06,21.54L161.76,240c-28.24,27.9-53.86,53.14-72.52,71.29-9.33,9.08-16.91,16.4-22.19,21.41-2.64,2.51-4.7,4.44-6.12,5.74a15.53,15.53,0,0,1-2.24,1.89,15.64,15.64,0,0,1,2-2.19c1.32-1.38,3.3-3.4,5.87-6,5.13-5.16,12.61-12.58,21.9-21.7C107,292.26,132.79,267.21,161.34,239.61Z"/><path class="cls-1" d="M155.52,232.77,238.88,174l25.18-17.91,6.8-4.92c.76-.56,1.34-1,1.76-1.3a5.29,5.29,0,0,0,.58-.47,3.83,3.83,0,0,0-.63.39l-1.81,1.23-6.88,4.82-25.19,17.9-82.81,59.47c-32.31,23.23-61.59,44.23-82.89,59.3-10.64,7.54-19.29,13.6-25.29,17.75-3,2.07-5.35,3.66-7,4.72a14.75,14.75,0,0,1-2.51,1.53,15.2,15.2,0,0,1,2.27-1.86c1.53-1.17,3.8-2.86,6.74-5,5.89-4.31,14.45-10.48,25.06-18.07C93.53,276.44,123,255.66,155.52,232.77Z"/><path class="cls-1" d="M150.86,225.11,242.51,180l27.7-13.82,7.5-3.81,1.94-1a4.45,4.45,0,0,0,.65-.37,3.4,3.4,0,0,0-.69.29l-2,.94-7.56,3.69-27.71,13.8-91.23,46c-35.59,18-67.84,34.19-91.26,45.79-11.71,5.81-21.21,10.46-27.8,13.63-3.3,1.58-5.87,2.79-7.62,3.59a16.43,16.43,0,0,1-2.72,1.13,15.09,15.09,0,0,1,2.53-1.5c1.69-.91,4.21-2.23,7.46-3.91,6.49-3.35,15.93-8.13,27.61-14C82.7,258.69,115.08,242.71,150.86,225.11Z"/><path class="cls-1" d="M147.47,216.84l97.71-30.37,29.56-9.34,8-2.6,2.08-.7.7-.27a4.33,4.33,0,0,0-.73.18l-2.1.62-8.06,2.47-29.57,9.33L147.66,217.4c-38,12.23-72.46,23.24-97.44,31.07-12.49,3.91-22.61,7-29.63,9.14-3.5,1.05-6.23,1.85-8.09,2.37a15.23,15.23,0,0,1-2.87.69,15.65,15.65,0,0,1,2.74-1.09c1.82-.64,4.51-1.55,8-2.7,7-2.31,17-5.56,29.5-9.53C74.8,239.41,109.33,228.66,147.47,216.84Z"/><path class="cls-1" d="M145.45,208.13l101.33-14.82,30.69-4.64,8.33-1.33L288,187a5,5,0,0,0,.74-.15,3.5,3.5,0,0,0-.75.06l-2.18.29-8.35,1.19L246.73,193,145.54,208.72c-39.49,6.17-75.26,11.71-101.18,15.56-13,1.93-23.45,3.44-30.72,4.43-3.63.5-6.45.86-8.37,1.09a15.72,15.72,0,0,1-2.94.23,16.1,16.1,0,0,1,2.88-.65c1.9-.35,4.7-.83,8.32-1.43,7.23-1.2,17.7-2.85,30.65-4.83C70.08,219.15,105.89,213.89,145.45,208.13Z"/><path class="cls-1" d="M144.83,199.22l102.44.85,31,.11,8.44,0,2.2,0,.75,0A3.39,3.39,0,0,0,289,200l-2.2-.05-8.44-.09-31-.13-102.44.06c-40,.05-76.19,0-102.41-.12-13.1-.07-23.71-.18-31-.31-3.66-.07-6.51-.14-8.44-.21A14.36,14.36,0,0,1,0,199a16.39,16.39,0,0,1,2.94-.19c1.93-.06,4.78-.1,8.45-.14,7.33-.07,17.93-.1,31-.08C68.64,198.59,104.85,198.86,144.83,199.22Z"/><path class="cls-1" d="M145.61,190.32l101.06,16.54,30.66,4.86,8.34,1.26,2.17.31a5.94,5.94,0,0,0,.75.07,4.15,4.15,0,0,0-.73-.16l-2.16-.39-8.33-1.39-30.64-4.88L145.52,190.91c-39.51-6.07-75.28-11.62-101.14-15.8C31.44,173,21,171.3,13.76,170c-3.61-.62-6.41-1.13-8.3-1.5a15.42,15.42,0,0,1-2.88-.66,14,14,0,0,1,2.94.25c1.92.24,4.74.63,8.37,1.15,7.25,1.05,17.73,2.65,30.68,4.68C70.45,178,106.18,183.83,145.61,190.32Z"/><path class="cls-1" d="M147.8,181.65l97.16,32,29.49,9.56,8,2.54,2.1.64a5.56,5.56,0,0,0,.72.19,3.71,3.71,0,0,0-.69-.28l-2.07-.72-8-2.66-29.48-9.59-97.46-31.14c-38-12.13-72.48-23.16-97.35-31.3-12.44-4.07-22.5-7.41-29.43-9.77-3.46-1.18-6.15-2.11-8-2.77a15.5,15.5,0,0,1-2.73-1.11A15.59,15.59,0,0,1,13,138c1.85.53,4.57,1.35,8.07,2.43,7,2.17,17.09,5.37,29.55,9.38C75.55,157.82,109.89,169.12,147.8,181.65Z"/><path class="cls-1" d="M151.35,173.43l90.84,46.71,27.6,14,7.53,3.75,2,1a7,7,0,0,0,.68.3,3.94,3.94,0,0,0-.64-.38l-1.93-1-7.47-3.87-27.59-14L151.07,174c-35.63-17.88-67.87-34.13-91.14-46-11.64-6-21-10.81-27.5-14.21-3.24-1.7-5.74-3-7.42-4a15.28,15.28,0,0,1-2.52-1.51,15.2,15.2,0,0,1,2.71,1.14c1.74.82,4.3,2,7.58,3.66,6.57,3.22,16,8,27.69,13.85C83.79,138.7,115.91,155.18,151.35,173.43Z"/><path class="cls-1" d="M156.16,165.87,238.48,226l25,18.1,6.85,4.88,1.79,1.24a3.59,3.59,0,0,0,.63.4,4.45,4.45,0,0,0-.57-.47l-1.75-1.31-6.77-5-25-18.12L155.8,166.35c-32.36-23.16-61.63-44.17-82.73-59.51C62.52,99.17,54,92.93,48.16,88.57c-2.92-2.18-5.18-3.89-6.7-5.07a16.37,16.37,0,0,1-2.25-1.88,14.94,14.94,0,0,1,2.5,1.55c1.59,1.07,3.92,2.68,6.91,4.78,6,4.19,14.57,10.32,25.15,18C94.94,121.14,124.05,142.37,156.16,165.87Z"/><path class="cls-1" d="M162.1,159.13l71.84,72,21.87,21.72,6,5.87,1.58,1.5a5.09,5.09,0,0,0,.56.5,4.15,4.15,0,0,0-.5-.56l-1.51-1.57-5.9-6-21.86-21.73-72.5-71.39c-28.31-27.84-53.91-53.08-72.33-71.47C80.12,78.89,72.7,71.41,67.61,66.21c-2.54-2.6-4.51-4.64-5.82-6A14.61,14.61,0,0,1,59.87,58a16,16,0,0,1,2.22,1.91c1.4,1.31,3.45,3.26,6.07,5.79,5.24,5.06,12.76,12.43,22,21.59C108.68,105.56,134.09,131,162.1,159.13Z"/><path class="cls-1" d="M169,153.39l59.6,82.17,18.19,24.82,5,6.71,1.32,1.73a3.25,3.25,0,0,0,.48.57,5.81,5.81,0,0,0-.4-.62L252,267l-4.88-6.79L228.9,235.37c-15.46-20.9-36.79-49.75-60.35-81.63S123.66,93,108.36,72c-7.65-10.49-13.8-19-18-24.93-2.1-3-3.72-5.27-4.8-6.86A15.59,15.59,0,0,1,84,37.78,15.42,15.42,0,0,1,85.89,40c1.19,1.51,2.9,3.75,5.09,6.65,4.38,5.8,10.64,14.24,18.34,24.7C124.71,92.28,145.8,121.31,169,153.39Z"/><path class="cls-1" d="M176.79,148.79l45.84,90.35,14,27.31c1.67,3.2,3,5.68,3.87,7.4.45.82.79,1.46,1,1.91a5.17,5.17,0,0,0,.38.64,3.23,3.23,0,0,0-.29-.68l-1-2-3.75-7.46-14-27.32-46.67-89.93C158,114,141.54,82.18,129.76,59.09c-5.9-11.55-10.62-20.91-13.84-27.41-1.61-3.25-2.84-5.78-3.65-7.51a14.9,14.9,0,0,1-1.14-2.68A15.72,15.72,0,0,1,112.65,24c.93,1.67,2.27,4.15,4,7.35,3.4,6.4,8.25,15.71,14.2,27.23C142.7,81.59,158.93,113.51,176.79,148.79Z"/><path class="cls-1" d="M185.18,145.44c12,37.62,22.95,71.67,30.85,96.34,4,12.29,7.25,22.24,9.5,29.15l2.64,7.9c.31.89.54,1.57.71,2.05a4.16,4.16,0,0,0,.28.69,5.56,5.56,0,0,0-.19-.72l-.63-2.07c-.58-1.84-1.43-4.51-2.51-7.95l-9.48-29.15-31.74-96.05C172.19,108.15,161,74.19,153,49.56c-4-12.32-7.15-22.3-9.29-29.21-1.07-3.46-1.88-6.15-2.4-8a14.82,14.82,0,0,1-.7-2.83,14.86,14.86,0,0,1,1.1,2.7c.65,1.79,1.58,4.45,2.75,7.87,2.34,6.85,5.65,16.79,9.68,29.09C162.24,73.8,173.17,107.84,185.18,145.44Z"/><path class="cls-1" d="M194,143.44c5.89,39,11.23,74.33,15.09,99.93,2,12.75,3.61,23.08,4.73,30.25.58,3.55,1,6.31,1.35,8.22.16.92.28,1.63.37,2.13a5.77,5.77,0,0,0,.16.73,4,4,0,0,0-.07-.74c-.07-.51-.16-1.22-.29-2.15-.28-1.91-.69-4.68-1.21-8.23-1.12-7.18-2.72-17.51-4.71-30.26-4.1-25.56-9.76-60.82-16-99.79s-11.92-74.21-15.84-99.77c-2-12.77-3.5-23.12-4.51-30.29-.51-3.58-.88-6.36-1.11-8.25a15,15,0,0,1-.24-2.9,15.13,15.13,0,0,1,.66,2.84c.36,1.87.85,4.63,1.46,8.2,1.21,7.13,2.9,17.46,4.91,30.23C182.78,69.13,188.15,104.44,194,143.44Z"/><path class="cls-1" d="M203,142.83c-.31,39.44-.59,75.14-.79,101,0,12.91-.07,23.36-.09,30.61,0,3.6,0,6.4,0,8.33q0,1.4,0,2.16a4.2,4.2,0,0,0,.05.74,5.23,5.23,0,0,0,0-.74c0-.51,0-1.23.05-2.16,0-1.93,0-4.73.09-8.33,0-7.25.07-17.7.11-30.61,0-25.88-.07-61.58-.12-101s-.1-75.13.05-101c.07-12.93.17-23.39.3-30.61.06-3.62.13-6.43.2-8.33a16.08,16.08,0,0,1,.22-2.9,15.28,15.28,0,0,1,.2,2.9c.06,1.91.11,4.71.15,8.33.08,7.23.11,17.69.1,30.61C203.63,67.69,203.38,103.4,203,142.83Z"/><path class="cls-1" d="M212.07,143.59c-6.52,38.93-12.43,74.15-16.71,99.68-2.07,12.74-3.75,23.06-4.91,30.23-.55,3.55-1,6.32-1.27,8.23-.13.92-.24,1.63-.31,2.14a4,4,0,0,0-.07.74,5.77,5.77,0,0,0,.16-.73q.15-.75.39-2.13c.33-1.9.8-4.66,1.41-8.2,1.17-7.17,2.85-17.49,4.93-30.23,4-25.57,9.62-60.84,15.78-99.82s11.74-74.24,15.95-99.75c2.11-12.76,3.86-23.08,5.13-30.2.63-3.56,1.14-6.32,1.51-8.19a13.72,13.72,0,0,1,.68-2.83,15.3,15.3,0,0,1-.26,2.9c-.24,1.89-.63,4.67-1.16,8.25-1.06,7.15-2.67,17.49-4.73,30.25C224.5,69.46,218.62,104.7,212.07,143.59Z"/><path class="cls-1" d="M220.86,145.75c-12.66,37.42-24.11,71.29-32.42,95.83l-9.67,29.09c-1.11,3.43-2,6.09-2.57,7.93-.28.89-.49,1.58-.65,2.07a5.11,5.11,0,0,0-.19.72,4.16,4.16,0,0,0,.28-.69c.18-.49.42-1.16.73-2,.62-1.83,1.53-4.48,2.7-7.89l9.7-29.08,31.52-96.13c12.27-37.52,23.44-71.49,31.67-96,4.12-12.27,7.5-22.19,9.88-29,1.2-3.42,2.15-6.07,2.81-7.85a15.62,15.62,0,0,1,1.12-2.7,15.09,15.09,0,0,1-.71,2.83c-.54,1.83-1.37,4.51-2.47,8-2.18,6.9-5.43,16.86-9.49,29.15C245,74.48,233.55,108.36,220.86,145.75Z"/><path class="cls-1" d="M229.2,149.24c-18.48,35-35.19,66.66-47.31,89.61-6,11.48-10.83,20.77-14.19,27.23-1.65,3.21-2.93,5.7-3.81,7.43l-1,1.94a5.08,5.08,0,0,0-.3.68,4,4,0,0,0,.39-.64c.24-.45.59-1.08,1-1.9l3.92-7.37L182.19,239l46.47-90c18.11-35.15,34.56-67,46.61-89.92,6-11.48,10.94-20.75,14.39-27.13,1.72-3.19,3.08-5.65,4-7.32a13.75,13.75,0,0,1,1.54-2.48,15.76,15.76,0,0,1-1.17,2.67c-.82,1.72-2.07,4.25-3.7,7.48-3.26,6.48-8.05,15.81-14,27.31C264.38,82.59,247.68,114.28,229.2,149.24Z"/><path class="cls-1" d="M236.87,154c-23.79,31.71-45.32,60.41-60.92,81.22-7.74,10.41-14,18.84-18.34,24.7-2.14,2.91-3.79,5.18-4.94,6.75l-1.26,1.77a5.24,5.24,0,0,0-.41.62,3.91,3.91,0,0,0,.48-.57l1.33-1.72,5-6.67c4.35-5.86,10.62-14.28,18.36-24.69l60.17-81.77c23.46-31.92,44.75-60.8,60.29-81.62,7.77-10.41,14.1-18.81,18.52-24.58,2.21-2.88,3.94-5.11,5.13-6.61a15.5,15.5,0,0,1,1.91-2.22,14.55,14.55,0,0,1-1.57,2.47c-1.09,1.57-2.72,3.87-4.85,6.82-4.24,5.89-10.46,14.37-18.18,24.81C282.18,93.57,260.67,122.3,236.87,154Z"/><path class="cls-1" d="M243.7,159.83l-73,70.89-22,21.59-5.94,5.91-1.53,1.56a4.62,4.62,0,0,0-.5.55,5.52,5.52,0,0,0,.56-.49l1.59-1.5c1.4-1.35,3.43-3.3,6-5.82l22-21.57,72.34-71.54c28.21-27.94,53.8-53.2,72.43-71.38,9.31-9.09,16.89-16.42,22.16-21.44,2.64-2.51,4.7-4.45,6.11-5.74a15.3,15.3,0,0,1,2.24-1.9,15.87,15.87,0,0,1-1.94,2.19c-1.32,1.39-3.3,3.41-5.86,6-5.13,5.17-12.6,12.6-21.88,21.72C298,107.12,272.21,132.19,243.7,159.83Z"/><path class="cls-1" d="M249.53,166.67c-32.52,23-61.95,43.76-83.29,58.82l-25.15,17.95-6.8,4.93-1.75,1.3a5.29,5.29,0,0,0-.58.47,3.83,3.83,0,0,0,.63-.39l1.81-1.24,6.87-4.82,25.17-17.93,82.73-59.57c32.28-23.28,61.54-44.31,82.81-59.41,10.64-7.55,19.27-13.63,25.28-17.78,3-2.07,5.34-3.67,6.94-4.73a15.91,15.91,0,0,1,2.51-1.54,15.72,15.72,0,0,1-2.26,1.87c-1.53,1.17-3.8,2.86-6.74,5-5.88,4.32-14.43,10.51-25,18.1C311.47,122.92,282.05,143.73,249.53,166.67Z"/><path class="cls-1" d="M254.2,174.31l-91.59,45.26-27.68,13.85-7.5,3.82-1.94,1a4.1,4.1,0,0,0-.65.38,5.46,5.46,0,0,0,.69-.3l2-.94,7.56-3.7,27.69-13.83,91.17-46.09c35.56-18,67.8-34.27,91.2-45.91,11.71-5.82,21.2-10.48,27.79-13.66,3.29-1.59,5.85-2.8,7.61-3.61a14.38,14.38,0,0,1,2.72-1.12,16,16,0,0,1-2.53,1.5c-1.69.91-4.21,2.24-7.45,3.92-6.49,3.36-15.92,8.15-27.6,14C322.32,140.65,290,156.68,254.2,174.31Z"/><path class="cls-1" d="M257.6,182.59l-97.67,30.48-29.55,9.39-8,2.61-2.08.7a3.72,3.72,0,0,0-.7.27,6.13,6.13,0,0,0,.73-.18l2.1-.62,8.06-2.49L160,213.39,257.41,182c38-12.27,72.43-23.33,97.4-31.19,12.48-3.93,22.6-7.07,29.61-9.18,3.51-1.06,6.24-1.86,8.1-2.38a15.26,15.26,0,0,1,2.86-.69,15.72,15.72,0,0,1-2.73,1.09c-1.82.64-4.51,1.56-8,2.71-6.94,2.32-17,5.59-29.49,9.57C330.24,159.92,295.73,170.72,257.6,182.59Z"/><path class="cls-1" d="M259.64,191.29l-101.32,15-30.68,4.68-8.33,1.33-2.16.38a5,5,0,0,0-.74.15,3.5,3.5,0,0,0,.75-.06l2.18-.29,8.35-1.21,30.68-4.66L259.54,190.7C299,184.48,334.79,178.9,360.7,175c13-1.94,23.45-3.47,30.71-4.47,3.63-.5,6.45-.87,8.37-1.09a15.39,15.39,0,0,1,2.94-.24,16.1,16.1,0,0,1-2.87.65c-1.9.35-4.7.84-8.32,1.44-7.23,1.21-17.7,2.87-30.65,4.87C335,180.17,299.18,185.48,259.64,191.29Z"/><path class="cls-2" d="M311.36,300.83a33.88,33.88,0,0,0-15.76-10.15,34.46,34.46,0,0,0-17.21-.69,23.22,23.22,0,0,0-10.58,5.69,30.81,30.81,0,0,0-7.95,13.53,3.22,3.22,0,0,0,.25,2.54,3.26,3.26,0,0,0,2,1.6l11.12,3.13a3.32,3.32,0,0,0,3.91-1.84c1.47-3.35,5.19-8.63,13.56-6.44a10.5,10.5,0,0,1,8,9.22,11.75,11.75,0,0,1-3.79,9.95c-4.33,4.05-10,3.26-13,2.43a6.48,6.48,0,0,0-8,4.46l-3.37,12a3.31,3.31,0,0,0,2.28,4.07l10.83,3a3.29,3.29,0,0,0,4.06-2.28l.71-2.52a.14.14,0,0,1,.13-.1,32.59,32.59,0,0,0,13.53-4c7-3.9,11.75-10.14,14.11-18.54C319.61,313.9,315.45,305.64,311.36,300.83Z"/><path class="cls-2" d="M278,355l-.94-.26a8.53,8.53,0,0,0-4.63,16.43l.95.27A8.54,8.54,0,0,0,278,355Z"/><path class="cls-3" d="M335.24,234.56a17.41,17.41,0,0,0-9.41-2,17.84,17.84,0,0,0-8.37,2.83,11.9,11.9,0,0,0-4,4.67,15.85,15.85,0,0,0-1.33,7.93,1.7,1.7,0,0,0,1.84,1.57l5.9-.54a1.7,1.7,0,0,0,1.53-1.6,5.47,5.47,0,0,1,5.31-5.56,5.39,5.39,0,0,1,5.51,3,6.07,6.07,0,0,1,0,5.46c-1.34,2.73-4.19,3.39-5.77,3.54a3.33,3.33,0,0,0-3,3.59l.58,6.35a1.7,1.7,0,0,0,1.84,1.53l5.74-.53a1.68,1.68,0,0,0,1.53-1.83l-.12-1.33s0-.07,0-.08a16.72,16.72,0,0,0,5.75-4.38,15.08,15.08,0,0,0,3.37-11.46C341.58,239.31,338.08,236.11,335.24,234.56Z"/><path class="cls-3" d="M329.16,266.61l-.5,0a4.38,4.38,0,1,0,.8,8.72l.5,0a4.38,4.38,0,0,0-.8-8.72Z"/><path class="cls-3" d="M99,99.05a14.5,14.5,0,0,0-7.09-3.73,14.79,14.79,0,0,0-7.37.36,9.92,9.92,0,0,0-4.29,2.82,13.17,13.17,0,0,0-2.87,6.07,1.41,1.41,0,0,0,1.11,1.68l4.86.91a1.4,1.4,0,0,0,1.59-.93A4.58,4.58,0,0,1,90.5,103a4.49,4.49,0,0,1,3.74,3.63A5,5,0,0,1,93,111a5.74,5.74,0,0,1-5.43,1.53,2.77,2.77,0,0,0-3.23,2.2l-1,5.22a1.42,1.42,0,0,0,1.12,1.65l4.74.88a1.4,1.4,0,0,0,1.64-1.12l.21-1.1s0,0,.05,0a13.87,13.87,0,0,0,5.61-2.2,12.53,12.53,0,0,0,5.31-8.43A11.12,11.12,0,0,0,99,99.05Z"/><path class="cls-3" d="M86.84,123.38l-.42-.08a3.65,3.65,0,0,0-1.35,7.18l.42.08a3.65,3.65,0,0,0,1.35-7.18Z"/><path class="cls-2" d="M326.45,100.72a17.42,17.42,0,0,0-9.4-2,17.83,17.83,0,0,0-8.38,2.8,11.82,11.82,0,0,0-4,4.65,15.82,15.82,0,0,0-1.36,7.93,1.68,1.68,0,0,0,1.83,1.57l5.9-.51a1.69,1.69,0,0,0,1.54-1.59,5.47,5.47,0,0,1,5.34-5.55,5.37,5.37,0,0,1,5.49,3,6,6,0,0,1,0,5.46c-1.35,2.72-4.2,3.37-5.78,3.52a3.33,3.33,0,0,0-3,3.58l.56,6.35a1.69,1.69,0,0,0,1.83,1.53l5.75-.5a1.69,1.69,0,0,0,1.53-1.83l-.12-1.33a.08.08,0,0,1,.05-.08,16.75,16.75,0,0,0,5.77-4.35,15.09,15.09,0,0,0,3.4-11.46C332.78,105.49,329.28,102.28,326.45,100.72Z"/><path class="cls-2" d="M320.25,132.74l-.51,0a4.38,4.38,0,1,0,.77,8.72l.5,0a4.38,4.38,0,0,0-.76-8.72Z"/><path class="cls-3" d="M149.05,292.6a21,21,0,0,0-11.52-1.7,21.56,21.56,0,0,0-9.9,4,14.34,14.34,0,0,0-4.52,5.94,19.1,19.1,0,0,0-1,9.68,2.06,2.06,0,0,0,.79,1.38,2.09,2.09,0,0,0,1.55.39l7.08-1.09a2.06,2.06,0,0,0,1.74-2c0-2.27.72-6.22,6-7.12a6.51,6.51,0,0,1,6.87,3.16,7.32,7.32,0,0,1,.41,6.6c-1.41,3.4-4.81,4.41-6.71,4.7a4,4,0,0,0-3.35,4.57l1.16,7.62a2.05,2.05,0,0,0,2.33,1.72l6.91-1.06a2.05,2.05,0,0,0,1.71-2.33l-.24-1.6a.1.1,0,0,1,0-.1,20.36,20.36,0,0,0,6.63-5.71,18.29,18.29,0,0,0,3.22-14.11C157.06,297.87,152.59,294.27,149.05,292.6Z"/><path class="cls-3" d="M144.06,331.77l-.6.1a5.3,5.3,0,1,0,1.6,10.47l.61-.09a5.3,5.3,0,1,0-1.61-10.48Z"/><path class="cls-2" d="M86.89,148.26a29.52,29.52,0,0,0-16.18-2.36,30.28,30.28,0,0,0-13.91,5.69,20.2,20.2,0,0,0-6.33,8.35,26.84,26.84,0,0,0-1.41,13.61A2.86,2.86,0,0,0,52.35,176l9.95-1.54a2.89,2.89,0,0,0,2.44-2.87c0-3.19,1-8.74,8.42-10A9.16,9.16,0,0,1,82.82,166a10.29,10.29,0,0,1,.6,9.28c-2,4.77-6.75,6.2-9.41,6.62a5.66,5.66,0,0,0-4.71,6.42L71,199a2.87,2.87,0,0,0,3.28,2.4l9.7-1.5a2.88,2.88,0,0,0,2.39-3.28L86,194.41a.11.11,0,0,1,.06-.13,28.5,28.5,0,0,0,9.3-8.05c4.14-5.63,5.65-12.3,4.48-19.82C98.16,155.64,91.87,150.59,86.89,148.26Z"/><path class="cls-2" d="M80,203.31l-.85.13a7.45,7.45,0,0,0,2.28,14.72l.85-.13A7.45,7.45,0,1,0,80,203.31Z"/><path class="cls-4" d="M227.12,80.4l7.5,1.25a29,29,0,1,0-5.13-9v0Z"/><path class="cls-5" d="M227.12,80.4s0-.17.13-.5l.43-1.49c.4-1.35,1-3.31,1.72-5.84l0-.18.1.16h0l-.15.08A28.89,28.89,0,0,1,228,58.71a29.6,29.6,0,0,1,2.79-8.82,29.14,29.14,0,0,1,6.37-8.37,29.69,29.69,0,0,1,10-5.94A28.57,28.57,0,0,1,259.64,34a29.89,29.89,0,0,1,12.65,4.3,28.48,28.48,0,0,1,9.72,10A30,30,0,0,1,284.87,55c.16.57.27,1.15.41,1.73a17.28,17.28,0,0,1,.35,1.74l.21,1.75.1.87,0,.88a29.73,29.73,0,0,1-2.64,13.23,28.4,28.4,0,0,1-7.7,10.06,29.87,29.87,0,0,1-10.27,5.62,29.38,29.38,0,0,1-10.51,1.23l-2.45-.29c-.79-.11-1.56-.32-2.32-.47A26,26,0,0,1,245.8,90a28.77,28.77,0,0,1-11.24-8.27l.05,0-5.59-1-1.43-.26-.47-.09.51.07,1.46.22,5.55.87h0l0,0a28.93,28.93,0,0,0,11.21,8.12A24.71,24.71,0,0,0,250.14,91c.75.15,1.51.36,2.3.46l2.42.28a29.11,29.11,0,0,0,10.38-1.25A29.44,29.44,0,0,0,275.36,85,28,28,0,0,0,282.94,75a29.32,29.32,0,0,0,2.59-13l0-.86-.1-.86-.21-1.72a14.93,14.93,0,0,0-.34-1.72c-.14-.56-.25-1.14-.41-1.7a30.22,30.22,0,0,0-2.81-6.52,28.19,28.19,0,0,0-9.58-9.91,29.44,29.44,0,0,0-12.46-4.25A28.28,28.28,0,0,0,247.31,36a29.42,29.42,0,0,0-9.87,5.84A28.87,28.87,0,0,0,231.12,50a29.59,29.59,0,0,0-2.8,8.71,28.94,28.94,0,0,0,1.25,13.83l.21.62-.36-.54v0l.15,0c-.78,2.5-1.38,4.43-1.79,5.76l-.48,1.5Z"/><path class="cls-6" d="M263,49.67a12.43,12.43,0,0,0-6.57-2,12.62,12.62,0,0,0-6.13,1.51,8.54,8.54,0,0,0-3.15,3.08,11.42,11.42,0,0,0-1.42,5.57,1.21,1.21,0,0,0,.35.86,1.15,1.15,0,0,0,.87.36l4.23,0A1.22,1.22,0,0,0,252.32,58a3.9,3.9,0,0,1,4.12-3.64,3.84,3.84,0,0,1,3.74,2.43,4.34,4.34,0,0,1-.32,3.89,4.94,4.94,0,0,1-4.32,2.17,2.37,2.37,0,0,0-2.35,2.38l0,4.55a1.22,1.22,0,0,0,1.22,1.2l4.12,0a1.21,1.21,0,0,0,1.19-1.22v-.95a.05.05,0,0,1,0-.05A12,12,0,0,0,264.14,66a10.75,10.75,0,0,0,3.08-8A9.53,9.53,0,0,0,263,49.67Z"/><path class="cls-6" d="M256.71,72.12h-.36a3.13,3.13,0,1,0,0,6.25h.36a3.13,3.13,0,1,0,0-6.25Z"/><path class="cls-7" d="M268.2,117.93c-19.66-13.22-43-17.93-58.36-17.93-14.35,0-35.46,2.26-54.57,13a75.71,75.71,0,0,0-28.15,27.19c-8.07,13.44-12.43,30.06-13,49.42a10.72,10.72,0,0,0,10.72,11h37.63a10.77,10.77,0,0,0,10.61-9.21c1.67-11.8,8.67-31.67,36.82-32.15,21.45-.37,30.3,15.16,33.11,21.85,4.57,10.89,3.41,23.81-3.1,34.55-10,16.51-28.43,19-38.52,19.07a21.09,21.09,0,0,0-21,21v40.49A10.73,10.73,0,0,0,191.1,307h36.65a10.74,10.74,0,0,0,10.73-10.72v-8.51a.47.47,0,0,1,.32-.45,106.24,106.24,0,0,0,38.9-24.37c18.5-18.4,27.89-42.14,27.89-70.58C305.59,151.62,285.25,129.4,268.2,117.93Z"/><path class="cls-7" d="M208.5,325.83h3a26.4,26.4,0,0,1,0,52.8h-3a26.4,26.4,0,0,1,0-52.8Z"/><path class="cls-6" d="M191,314.78H227.6a10.57,10.57,0,0,0,10.72-10.38V287.85a.46.46,0,0,1,.32-.44A88.37,88.37,0,0,0,255.89,279c-23.41-.16-66.08-.4-75.65,0V304.4A10.57,10.57,0,0,0,191,314.78Z"/><path class="cls-8" d="M221.14,131.38,197.62,63.1c-5-17.09-19.05-28.45-36-23l-1.54.6A31.83,31.83,0,0,0,141,79.41c4.39,14.79,9.42,31.08,12.49,38.74,6.35,15.86,23,11.41,23,11.41s3.7,10.57,5.3,15.32l8.61,8.51L194,149.5Z"/><path class="cls-9" d="M176.51,129.56a41.22,41.22,0,0,0,18.37-14.15s-.36,13.91-16.81,18.61Z"/><path class="cls-5" d="M152.53,90.19a2.44,2.44,0,0,0,3.08,1.45,2.34,2.34,0,0,0,1.56-3,2.43,2.43,0,0,0-3.08-1.45A2.34,2.34,0,0,0,152.53,90.19Z"/><path class="cls-5" d="M146.87,84.36c.4.19,1.63-1.75,4.08-2.69s4.72-.41,4.87-.81c.08-.19-.41-.61-1.42-.88a6.74,6.74,0,0,0-4,.28,6.47,6.47,0,0,0-3.1,2.52C146.73,83.65,146.68,84.28,146.87,84.36Z"/><path class="cls-5" d="M173,82.07c.39.19,1.63-1.75,4.08-2.69s4.72-.41,4.87-.81c.07-.19-.42-.61-1.42-.88a6.73,6.73,0,0,0-4,.28,6.5,6.5,0,0,0-3.11,2.52C172.87,81.36,172.82,82,173,82.07Z"/><path class="cls-5" d="M169.58,97.87c0-.15-1.66.18-4.25.81-.65.18-1.29.29-1.56-.1a3.42,3.42,0,0,1-.3-2c0-1.75,0-3.57,0-5.48,0-7.77-.35-14.06-.66-14.06s-.53,6.31-.47,14.08c0,1.91.05,3.73.07,5.47a3.89,3.89,0,0,0,.63,2.58,1.65,1.65,0,0,0,1.38.52,4.51,4.51,0,0,0,1.12-.26C168.08,98.59,169.63,98,169.58,97.87Z"/><path class="cls-5" d="M167.34,68.3c.58.5,2.7-1.08,5.57-2.26s5.45-1.66,5.5-2.42c0-.35-.7-.73-1.91-.84a10,10,0,0,0-4.63.81,10.12,10.12,0,0,0-3.8,2.75C167.3,67.29,167.08,68.06,167.34,68.3Z"/><path class="cls-5" d="M144,77.21c.72.37,2.51-1,4.91-1.87s4.59-1.27,4.85-2c.1-.36-.43-.8-1.52-1a8.33,8.33,0,0,0-4.34.56,8.15,8.15,0,0,0-3.52,2.58C143.72,76.34,143.65,77,144,77.21Z"/><path class="cls-8" d="M200.62,74.63c.22-.22,9.7-7.47,13.56,3.56s-8,12.63-8.14,12.32S200.62,74.63,200.62,74.63Z"/><path class="cls-9" d="M208,85.15c0-.05.23.07.61.11a2.05,2.05,0,0,0,1.45-.48c1-.83,1.35-3,.7-5a6.55,6.55,0,0,0-1.5-2.56,2.34,2.34,0,0,0-2-1,1,1,0,0,0-.95.92c0,.36.11.56.06.6s-.3-.11-.37-.59a1.29,1.29,0,0,1,.19-.85,1.57,1.57,0,0,1,1-.65,2.88,2.88,0,0,1,2.61,1,6.9,6.9,0,0,1,1.74,2.84c.71,2.25.3,4.72-1.14,5.74a2.16,2.16,0,0,1-1.85.33C208.06,85.41,207.91,85.19,208,85.15Z"/><path class="cls-5" d="M177.91,96.75c-.39.11.45,2.66-1.12,5.19s-4.38,3.16-4.28,3.52c0,.18.77.3,1.93-.06a6.68,6.68,0,0,0,3.62-2.79,5.88,5.88,0,0,0,.77-4.3C178.57,97.22,178.07,96.68,177.91,96.75Z"/><path class="cls-5" d="M113.49,71.66a2.75,2.75,0,0,1,.69-2c1-1.2,2.49-1.61,3.89-2.13a24.47,24.47,0,0,0,9.19-6.08,12.23,12.23,0,0,1-3.7-1c-2.4-1.15-4.39-3.51-4.41-6.18a1.62,1.62,0,0,1,.49-1.35c.64-.48,1.52,0,2.21.39,2.29,1.25,4.08,1.51,6.44.4A10.39,10.39,0,0,0,132.05,51c0-.06,0-.13.08-.2.36-.79.73-1.56,1.08-2.3h0c2.69-5.57,5.25-9.68,8.4-12.45,4.62-4.06,13.31-8.11,19.44-8.61s12.77,2.27,15.57,7.74c2.21-3.77,7-5.41,11.32-5.22l.08-.08c4.8,0,8.82,3.68,11.61,7.58l.45.65a18,18,0,0,0,7.72,3.59c.49.09,1.07.22,1.29.68a1.47,1.47,0,0,1-.34,1.39,8.79,8.79,0,0,1-2.94,2.65,19.52,19.52,0,0,0,2.47,2.51c.77.64,1.68,1.42,1.56,2.41a1.91,1.91,0,0,1-1.59,1.49,5.67,5.67,0,0,1-2.31-.2l2.64,2.91a10.56,10.56,0,0,1-4.75,1.33c.52,4.39,2.5,12.17,2.42,15.29-2.91,1.09-3.73,1-5,2-1.69,1.3.23,4.43-2.59,4.34-1.44,0-5.07-4.15-5.94-5.29a66.63,66.63,0,0,1-12.11-25.68,21.32,21.32,0,0,0-7.84-2.3l.25.1c-5.05,0-10.69.28-14.22,3.9-2.74,2.81-3.48,6.94-5,10.56-2.87,6.86-7.21,11.51-14.11,14.28,1.09,5.09,3.7,13.11,5.07,17.74l-7.08-7.73v0c-.5-.42-1-.87-1.39-1.31l-.14-.14v0c-.7-.72-1.39-1.45-2.19-2.13l0,0c-1.69,3-6.49,1-5.48-2.33a6.78,6.78,0,0,1,.89-1.86A4.76,4.76,0,0,1,125.44,79a3.72,3.72,0,0,1-3.71-2.6,3.15,3.15,0,0,1,.93-3,10.78,10.78,0,0,1-6.19.76C115.1,73.9,113.61,73.23,113.49,71.66Z"/><path class="cls-10" d="M172.21,38.82a14.48,14.48,0,0,1,2.14.91,12.26,12.26,0,0,1,4.36,4.48,21.4,21.4,0,0,1,1.86,4c.53,1.48,1,3.11,1.45,4.83a44,44,0,0,0,1.74,5.33A19.56,19.56,0,0,0,185.11,61a6.14,6.14,0,0,0,2.09,2.31,2.56,2.56,0,0,0,2.54,0,3.79,3.79,0,0,0,1.64-1.88,8.77,8.77,0,0,0,.11-4.65l-.32.16a14,14,0,0,0,3.15,2.69,5.05,5.05,0,0,0,3.74.6,3.3,3.3,0,0,0,1.56-.87,2.91,2.91,0,0,0,.74-1.51,3,3,0,0,0-.16-1.55,2.17,2.17,0,0,0-1-1.08l-.12.22a11.16,11.16,0,0,0,4.38,1.37,9.45,9.45,0,0,0,1.22,0,1.69,1.69,0,0,0,.42,0,1.91,1.91,0,0,0-.42,0c-.27,0-.68,0-1.2-.1a11.7,11.7,0,0,1-4.28-1.46l-.11.21a2.2,2.2,0,0,1,1,2.36,2.53,2.53,0,0,1-.68,1.34,2.87,2.87,0,0,1-1.42.78,4.75,4.75,0,0,1-3.48-.6,14.14,14.14,0,0,1-3.06-2.64L191,56.2l.09.59a8.57,8.57,0,0,1-.1,4.44,3.44,3.44,0,0,1-1.47,1.68,2.16,2.16,0,0,1-2.16,0,5.74,5.74,0,0,1-1.94-2.17,19.93,19.93,0,0,1-1.33-2.6,45.28,45.28,0,0,1-1.75-5.28c-.48-1.71-.94-3.35-1.49-4.85a21.14,21.14,0,0,0-1.93-4,12.18,12.18,0,0,0-4.52-4.47A6.91,6.91,0,0,0,172.21,38.82Z"/><path class="cls-10" d="M127.85,72.09s.05,0,.16.07l.51.15a5.22,5.22,0,0,0,.84.2,10,10,0,0,0,1.16.17,15.27,15.27,0,0,0,7.34-1.19,19.37,19.37,0,0,0,8.47-7,33.56,33.56,0,0,0,5-12.58c.48-2.37.73-4.71,1.13-6.93a22.73,22.73,0,0,1,1.88-6.18A11.74,11.74,0,0,1,158,34.31a8.5,8.5,0,0,1,2.35-1.14,9.25,9.25,0,0,1,2.4-.36,10,10,0,0,1,4.08.84,9.64,9.64,0,0,1,2.65,1.72,11.93,11.93,0,0,1,1.68,2.12s0-.06-.07-.16l-.25-.47a8.57,8.57,0,0,0-1.26-1.6,9.56,9.56,0,0,0-2.66-1.82,10,10,0,0,0-4.17-.91,9,9,0,0,0-2.48.34A8.52,8.52,0,0,0,157.77,34,12,12,0,0,0,154,38.61a22.59,22.59,0,0,0-1.93,6.27c-.41,2.24-.66,4.58-1.15,6.92A33.42,33.42,0,0,1,146,64.25a19.29,19.29,0,0,1-8.28,7,15.28,15.28,0,0,1-7.22,1.29A21.87,21.87,0,0,1,127.85,72.09Z"/><path class="cls-10" d="M123.88,65.52a2.49,2.49,0,0,0,.72.2,13.43,13.43,0,0,0,2,.27,16.64,16.64,0,0,0,3-.07,18.63,18.63,0,0,0,7-2.22A17.55,17.55,0,0,0,139.19,62a14,14,0,0,0,1.5-1.38,2.76,2.76,0,0,0,.48-.58c-.06,0-.79.72-2.15,1.73a18.64,18.64,0,0,1-2.51,1.59,20.13,20.13,0,0,1-6.91,2.19,20,20,0,0,1-3,.15C124.94,65.66,123.89,65.45,123.88,65.52Z"/><path class="cls-5" d="M154.08,181c-.14,0,1.74,9.49,3.59,19.3h.59C156.41,190.44,154.22,180.91,154.08,181Z"/><path class="cls-11" d="M162.06,200.72c5.34,0,10.26-3.85,11-9.09,1.68-11.78,8.4-31.72,36.74-32.21,21.59-.37,30.67,14.91,33.22,21.71a40,40,0,0,1-3,34.61c-10.08,16.49-28.61,19-38.77,19a21.14,21.14,0,0,0-21.17,21v44l58.48-1.1v-11a.47.47,0,0,1,.33-.45A102.1,102.1,0,0,0,270,269.8l-3.8-50.69s11.13-21.39,10.57-26.21c-5-44-20-68.84-26.07-71.16-6.82-2.61-33.17-1.34-33.17-1.34s-11.37,21.08-27.34,23.42c-8.88,1.3-12.12-9.8-12.12-9.8l-20.64,12.1c-14.68,7.41-17.53,36.22-17.8,54.6Z"/><g class="cls-12"><path d="M229.83,226.62c11.79,3,23.41,6.8,35.2,9.8a4.52,4.52,0,0,1,2.4,1.16c.86,1,.67,2.53.28,3.8a23.06,23.06,0,0,1-7.1,10.35c-2.56,2.26-5.64,4.16-9,4.42-3.79.3-7.43-1.46-10.64-3.5a56.09,56.09,0,0,1-19.58-21.55s2.76-1.13,4.88-2.27A38.51,38.51,0,0,0,229.83,226.62Z"/></g><path class="cls-8" d="M242.79,181.44c4.71,10.87,3.52,23.77-3.2,34.5A37.2,37.2,0,0,1,225.94,229a110.86,110.86,0,0,0,16.83,15.38c6,4.28,19.9,3.06,25.16-6.29,6.49-11.54,7-41,7-41l1.24-17.77-36.31-5.56-.29,1A39.18,39.18,0,0,1,242.79,181.44Z"/><path class="cls-10" d="M179.58,174l-2.07,3.25c-1.57,1.09-3.07.49-4-1.52l-22.35-34,5.45-3.47,24.68,32.62A3.25,3.25,0,0,1,179.58,174Z"/><path class="cls-5" d="M128,141.1A24.87,24.87,0,1,1,162.77,109h0A24.87,24.87,0,0,1,128,141.1Zm23.68-41.83a23.21,23.21,0,1,0,9.62,10.42A23.2,23.2,0,0,0,151.63,99.27Z"/><path class="cls-13" d="M129,140.06A24.87,24.87,0,1,1,163.82,108h0A24.87,24.87,0,0,1,129,140.06Zm23.68-41.84a23.21,23.21,0,1,0,9.62,10.43A23.2,23.2,0,0,0,152.69,98.22Z"/><path class="cls-4" d="M162,118.77a2.31,2.31,0,0,1,0-.41c0-.27,0-.67,0-1.17a18.14,18.14,0,0,0-.83-4.2,21.42,21.42,0,0,0-1.09-2.75,24.41,24.41,0,0,0-4-5.87,22.13,22.13,0,0,0-3-2.69,20.88,20.88,0,0,0-3.45-2.07A22.6,22.6,0,0,0,146,98.35a21.41,21.41,0,0,0-6.3-.64,20.19,20.19,0,0,0-4.23.66c-.5.11-.87.26-1.12.33a3,3,0,0,1-.4.1l.38-.15a11.24,11.24,0,0,1,1.11-.38,18.88,18.88,0,0,1,4.25-.74,20.72,20.72,0,0,1,6.37.58,21.85,21.85,0,0,1,3.57,1.27,19.73,19.73,0,0,1,3.5,2.09,22.69,22.69,0,0,1,3,2.73,21.91,21.91,0,0,1,2.34,3,23.43,23.43,0,0,1,1.7,3,22.49,22.49,0,0,1,1.07,2.79,17.12,17.12,0,0,1,.75,4.24c0,.51,0,.91,0,1.18A2.18,2.18,0,0,1,162,118.77Z"/><path class="cls-4" d="M136,139c0-.06,1.15.36,3.07.62l.75.09c.26,0,.54,0,.82.05.57,0,1.17,0,1.81,0a19.26,19.26,0,0,0,7.95-2.14c.56-.31,1.1-.59,1.57-.91.23-.16.47-.3.68-.46l.61-.45c1.52-1.19,2.29-2.13,2.34-2.08a5.75,5.75,0,0,1-.54.64,6.56,6.56,0,0,1-.7.71,9,9,0,0,1-1,.87l-.6.48c-.21.16-.44.31-.68.47a17.62,17.62,0,0,1-1.57,1,18.74,18.74,0,0,1-8.06,2.17c-.64,0-1.26,0-1.83,0-.29,0-.56,0-.83-.06l-.76-.11c-.48-.06-.91-.18-1.29-.26s-.7-.18-1-.26A6.24,6.24,0,0,1,136,139Z"/><path class="cls-4" d="M153.11,123.08c-.06,0-3.3-3.19-7.25-7.25s-7.1-7.38-7.05-7.43,3.3,3.19,7.25,7.25S153.16,123,153.11,123.08Z"/><path class="cls-4" d="M149.28,129.6s-.09-.07-.24-.23l-.64-.7-2.32-2.58c-2-2.18-4.66-5.18-7.69-8.47s-5.8-6.23-7.82-8.35l-2.38-2.52-.64-.7c-.15-.16-.22-.24-.21-.25a1.59,1.59,0,0,1,.24.22l.68.65c.59.58,1.42,1.42,2.45,2.46,2,2.1,4.85,5,7.88,8.31s5.72,6.32,7.64,8.53c1,1.11,1.73,2,2.25,2.64l.6.72A1.7,1.7,0,0,1,149.28,129.6Z"/><g class="cls-12"><path class="cls-4" d="M129,99.13l30.55,33.18a23.9,23.9,0,0,1-4.74,5l-31.19-34A17.87,17.87,0,0,1,129,99.13Z"/></g><g class="cls-12"><path class="cls-4" d="M121,107.14l30,32.33s.28.15-1.79.68l-29.1-31.36A4.12,4.12,0,0,1,121,107.14Z"/></g><path class="cls-8" d="M200.07,160.48c-6.42-5.15-22.15-17.75-22.86-18.09-.91-.42-14.75-5.34-17.4-3.76s-9.76,10.5-9.76,10.5.68,5.55,6.88,1.58l5.54-3.55h0l6.59,1.54s-8,3.36-9.73,5.13-4.39,8.52-2.72,10.08a6.58,6.58,0,0,0,3.63,1.69s-3.32,4.71,2.57,7.55c0,0,.86,4,3.76,5.52s8.31,1,8.31,1a2.55,2.55,0,0,0,.65-3.94,8.38,8.38,0,0,0-5.3-2.8l4.26-2.49a19.7,19.7,0,0,1,5.5,3.22,47.89,47.89,0,0,1,7.77-7.8C192.11,162.7,200.07,160.48,200.07,160.48Z"/><path class="cls-9" d="M172.79,162.58a2,2,0,0,0-.63,0,9.81,9.81,0,0,0-1.69.39,11.14,11.14,0,0,0-7.42,8.08,10.29,10.29,0,0,0-.25,1.71,2,2,0,0,0,0,.63c.06,0,.07-.9.45-2.29a11.54,11.54,0,0,1,7.28-7.92C171.9,162.72,172.8,162.63,172.79,162.58Z"/><path class="cls-9" d="M173.07,155.4a3.06,3.06,0,0,0-.67,0,6.11,6.11,0,0,0-.79.13c-.3.07-.65.12-1,.24a15.25,15.25,0,0,0-2.57,1,17.72,17.72,0,0,0-2.87,1.77,18.14,18.14,0,0,0-2.44,2.32,16,16,0,0,0-1.59,2.23c-.21.33-.35.66-.49.93a6.08,6.08,0,0,0-.33.73,2.74,2.74,0,0,0-.22.64c.06,0,.41-.87,1.23-2.18a18.08,18.08,0,0,1,1.62-2.16,18.3,18.3,0,0,1,2.42-2.26,22.75,22.75,0,0,1,2.91-2,13,13,0,0,1,2.39-.79C172.12,155.58,173.08,155.47,173.07,155.4Z"/><path class="cls-9" d="M174.28,147.17a1.69,1.69,0,0,0-.9-.2,4.67,4.67,0,0,0-2.18.39,4.05,4.05,0,0,0-1.8,1.3,1.79,1.79,0,0,0-.48.78,8,8,0,0,1,2.4-1.79A7.56,7.56,0,0,1,174.28,147.17Z"/><path class="cls-11" d="M248.14,121.07s20.31,2,26.76,19.59c5.12,14,7.9,56,6.62,56.82l-35.86-1.15c-.47-10.23-3.23-18.12-7.09-23.22Z"/><path class="cls-9" d="M246.21,196.33a3.53,3.53,0,0,1,.7.4c.44.27,1.06.69,1.8,1.24a48.06,48.06,0,0,1,5.46,4.74,56.16,56.16,0,0,1,4.75,5.44c.56.73,1,1.34,1.28,1.77s.44.67.41.69a25.19,25.19,0,0,1-1.93-2.27c-1.18-1.41-2.84-3.34-4.82-5.33a66.05,66.05,0,0,0-5.34-4.79A29.44,29.44,0,0,1,246.21,196.33Z"/><path class="cls-5" d="M241.94,153.18c.12,0-.54,4.5-1.47,10s-1.78,9.95-1.9,9.93.54-4.5,1.47-10S241.82,153.16,241.94,153.18Z"/><path class="cls-5" d="M196.81,279a2.36,2.36,0,0,1,.6-.09l1.71-.18,6.31-.59c5.32-.51,12.67-1.28,20.76-2.3s15.41-2.12,20.69-2.95l6.26-1,1.7-.26a4.41,4.41,0,0,1,.6-.06,3.36,3.36,0,0,1-.58.15l-1.69.34c-1.47.28-3.6.67-6.24,1.13-5.27.9-12.58,2-20.68,3.07s-15.46,1.74-20.8,2.17c-2.66.22-4.82.38-6.32.46l-1.72.09A3.9,3.9,0,0,1,196.81,279Z"/><path class="cls-5" d="M193.64,273.64a9.55,9.55,0,0,1,1.48-.14l4-.21,13.31-.68,13.3-.77,4-.23a9.25,9.25,0,0,1,1.48,0,9.63,9.63,0,0,1-1.47.2c-.95.1-2.32.22-4,.36-3.4.28-8.11.61-13.31.9s-9.91.46-13.32.55c-1.7.05-3.08.08-4,.08A9.5,9.5,0,0,1,193.64,273.64Z"/><path class="cls-8" d="M136.53,197.72a4.51,4.51,0,0,1,.65-1.43,4.21,4.21,0,0,1,7.08.15,2.6,2.6,0,0,1,1.93-2.49,3,3,0,0,1,2.83.85,4.22,4.22,0,0,1,1.45,2.38c.88-2,5.37-1.72,5.91-.25,0,0,3.87-4.23,5.85-2.15.82.87.46,2.19-.08,3.52-.73,1.77-1.2,2.51-2.15,4.46l-3.66.2c-.31,1.15-1,5.8-1.1,7a8,8,0,0,1-1,3.38,3.53,3.53,0,0,1-2.9,1.78,2.29,2.29,0,0,1-2.29-2.21,5.6,5.6,0,0,1-1.38,2.65,3,3,0,0,1-2.77.85,2.06,2.06,0,0,1-1.55-2.26c-1.31.9-3.24.1-4.06-1.25a8.27,8.27,0,0,1-.8-4.62,10.65,10.65,0,0,0-.38-4.32,3.77,3.77,0,0,1-.29-.61,9.12,9.12,0,0,1-.05-1.05,8,8,0,0,0-.44-2.16c-.05-.16-.12-.31-.18-.46-.18-.39-.44-.72-.64-1.1a.58.58,0,0,1-.09-.26A1.45,1.45,0,0,1,136.53,197.72Z"/><path class="cls-8" d="M132.42,195.68a3.42,3.42,0,0,0-2.7.9c-.77.87-.95,2.93-.86,4.09,1.35.26,2.07,0,3.43.21.29.05.53,0,.76.15.63.44.53,1.94.78,2.66a2.6,2.6,0,0,0,3.29,1.41,3.48,3.48,0,0,0,2.11-3.11,5.4,5.4,0,0,0-1.37-3.65A7.6,7.6,0,0,0,132.42,195.68Z"/><path class="cls-9" d="M155.5,208c-.14,0,.42-2.51.77-5.6a24.74,24.74,0,0,0,.15-4,12.12,12.12,0,0,1-.1-1.65,4.41,4.41,0,0,1,.41,1.62,17.58,17.58,0,0,1,0,4,31.53,31.53,0,0,1-.71,4A5.61,5.61,0,0,1,155.5,208Z"/><path class="cls-9" d="M148.9,213.33a15.28,15.28,0,0,1,.36-2.37c.27-1.45.64-3.45.92-5.67a41.33,41.33,0,0,0,.35-5.72c0-1.47-.13-2.38-.06-2.39a8.41,8.41,0,0,1,.37,2.37,30.86,30.86,0,0,1-.23,5.79,53.65,53.65,0,0,1-1.05,5.69A11.53,11.53,0,0,1,148.9,213.33Z"/><path class="cls-9" d="M143.31,214.28c-.06,0,.17-1,.46-2.63a53.69,53.69,0,0,0,.76-6.37,54.85,54.85,0,0,0-.06-6.42,24.9,24.9,0,0,1-.17-2.67,2.4,2.4,0,0,1,.18.7,19.48,19.48,0,0,1,.29,1.94,38.73,38.73,0,0,1-.7,12.88c-.18.81-.36,1.46-.5,1.9A2.22,2.22,0,0,1,143.31,214.28Z"/><path class="cls-9" d="M136,198s.5.09,1.14.57a5.78,5.78,0,0,1,1.85,2.47,4.94,4.94,0,0,1,.25,3.09c-.24.81-.75,1.08-.77,1a4,4,0,0,0,.47-1.1,5.42,5.42,0,0,0-.35-2.86,6.59,6.59,0,0,0-1.65-2.39C136.34,198.27,135.92,198,136,198Z"/></g></g></svg>