<svg xmlns="http://www.w3.org/2000/svg" xmlns:xlink="http://www.w3.org/1999/xlink" viewBox="0 0 1920 605.3"><defs><style>.cls-1,.cls-2,.cls-22{fill:none;}.cls-2{stroke:#765e69;stroke-width:0.45px;}.cls-13,.cls-2,.cls-22{stroke-miterlimit:10;}.cls-3{isolation:isolate;}.cls-4{fill:#3a4d8a;}.cls-5{opacity:0.91;fill:url(#linear-gradient);}.cls-6{fill:#ffd4f2;}.cls-7{font-size:74.38px;}.cls-18,.cls-28,.cls-35,.cls-7{fill:#c1467f;}.cls-17,.cls-18,.cls-27,.cls-28,.cls-7,.cls-8{font-family:OpenSans-Bold, OpenSans Bold;font-weight:700;}.cls-8{font-size:74.38px;}.cls-17,.cls-24,.cls-27,.cls-8{fill:#162640;}.cls-9{fill:#003563;}.cls-10{fill:#c15956;}.cls-11{fill:#953e3e;}.cls-12{fill:#d56666;}.cls-13{stroke:#000;stroke-width:0.68px;}.cls-14{fill:#b94e4e;}.cls-15{fill:#ff5238;}.cls-16{fill:#681853;}.cls-17{font-size:74.38px;}.cls-18{font-size:74.38px;}.cls-19{fill:#f1b8ac;}.cls-20,.cls-26,.cls-33,.cls-34{mix-blend-mode:overlay;}.cls-20{opacity:0.42;}.cls-21{fill:#f4ab98;}.cls-22{stroke:#681853;}.cls-23{fill:#4749d2;}.cls-25{fill:#7a9cd0;}.cls-26,.cls-33,.cls-34{opacity:0.2;}.cls-27,.cls-28{font-size:74.38px;}.cls-29{fill:#fa847a;}.cls-30{fill:#ff6d67;}.cls-31{fill:#fff;}.cls-32,.cls-33{fill:#665a62;}.cls-34{fill:url(#Motivo_nuevo_5);}</style><linearGradient id="linear-gradient" y1="300.59" x2="1920" y2="300.59" gradientUnits="userSpaceOnUse"><stop offset="0" stop-color="#c1467f"/><stop offset="0.23" stop-color="#a64781"/><stop offset="0.73" stop-color="#624b87"/><stop offset="1" stop-color="#3a4d8a"/></linearGradient><pattern id="Motivo_nuevo_5" data-name="Motivo nuevo 5" width="80" height="80" patternTransform="translate(-36.39 -98.27) scale(1.18)" patternUnits="userSpaceOnUse" viewBox="0 0 80 80"><rect class="cls-1" width="80" height="80"/><line class="cls-2" x1="52.95" y1="78.04" x2="52.95" y2="173.4"/><line class="cls-2" x1="30.18" y1="78.04" x2="30.18" y2="173.4"/><line class="cls-2" x1="18.79" y1="78.04" x2="18.79" y2="173.4"/><line class="cls-2" x1="7.4" y1="78.04" x2="7.4" y2="173.4"/><line class="cls-2" x1="75.72" y1="78.04" x2="75.72" y2="173.4"/><line class="cls-2" x1="64.33" y1="78.04" x2="64.33" y2="173.4"/><line class="cls-2" x1="41.56" y1="78.04" x2="41.56" y2="173.4"/><line class="cls-2" x1="73.88" y1="34.34" x2="169.24" y2="34.34"/><line class="cls-2" x1="73.88" y1="57.11" x2="169.24" y2="57.11"/><line class="cls-2" x1="73.88" y1="68.49" x2="169.24" y2="68.49"/><line class="cls-2" x1="73.88" y1="79.88" x2="169.24" y2="79.88"/><line class="cls-2" x1="73.88" y1="11.57" x2="169.24" y2="11.57"/><line class="cls-2" x1="73.88" y1="22.95" x2="169.24" y2="22.95"/><line class="cls-2" x1="73.88" y1="45.72" x2="169.24" y2="45.72"/><line class="cls-2" x1="-6.12" y1="34.34" x2="89.24" y2="34.34"/><line class="cls-2" x1="-6.12" y1="57.11" x2="89.24" y2="57.11"/><line class="cls-2" x1="-6.12" y1="68.49" x2="89.24" y2="68.49"/><line class="cls-2" x1="-6.12" y1="79.88" x2="89.24" y2="79.88"/><line class="cls-2" x1="-6.12" y1="11.57" x2="89.24" y2="11.57"/><line class="cls-2" x1="-6.12" y1="22.95" x2="89.24" y2="22.95"/><line class="cls-2" x1="-6.12" y1="45.72" x2="89.24" y2="45.72"/><line class="cls-2" x1="52.95" y1="-1.96" x2="52.95" y2="93.4"/><line class="cls-2" x1="30.18" y1="-1.96" x2="30.18" y2="93.4"/><line class="cls-2" x1="18.79" y1="-1.96" x2="18.79" y2="93.4"/><line class="cls-2" x1="7.4" y1="-1.96" x2="7.4" y2="93.4"/><line class="cls-2" x1="75.72" y1="-1.96" x2="75.72" y2="93.4"/><line class="cls-2" x1="64.33" y1="-1.96" x2="64.33" y2="93.4"/><line class="cls-2" x1="41.56" y1="-1.96" x2="41.56" y2="93.4"/><line class="cls-2" x1="-86.12" y1="34.34" x2="9.24" y2="34.34"/><line class="cls-2" x1="-86.12" y1="57.11" x2="9.24" y2="57.11"/><line class="cls-2" x1="-86.12" y1="68.49" x2="9.24" y2="68.49"/><line class="cls-2" x1="-86.12" y1="79.88" x2="9.24" y2="79.88"/><line class="cls-2" x1="-86.12" y1="11.57" x2="9.24" y2="11.57"/><line class="cls-2" x1="-86.12" y1="22.95" x2="9.24" y2="22.95"/><line class="cls-2" x1="-86.12" y1="45.72" x2="9.24" y2="45.72"/><line class="cls-2" x1="73.88" y1="-0.12" x2="169.24" y2="-0.12"/><line class="cls-2" x1="-6.12" y1="-0.12" x2="89.24" y2="-0.12"/><line class="cls-2" x1="52.95" y1="-81.96" x2="52.95" y2="13.4"/><line class="cls-2" x1="30.18" y1="-81.96" x2="30.18" y2="13.4"/><line class="cls-2" x1="18.79" y1="-81.96" x2="18.79" y2="13.4"/><line class="cls-2" x1="7.4" y1="-81.96" x2="7.4" y2="13.4"/><line class="cls-2" x1="75.72" y1="-81.96" x2="75.72" y2="13.4"/><line class="cls-2" x1="64.33" y1="-81.96" x2="64.33" y2="13.4"/><line class="cls-2" x1="41.56" y1="-81.96" x2="41.56" y2="13.4"/><line class="cls-2" x1="-86.12" y1="-0.12" x2="9.24" y2="-0.12"/></pattern></defs><g class="cls-3"><g id="Layer_2" data-name="Layer 2"><g id="Layer_1-2" data-name="Layer 1"><path class="cls-4" d="M1095.52,605.07c-.5,0-1,0-1.51,0h-.09c-3.32,0-6.61-.1-9.92-.19a26.5,26.5,0,0,0-3.1.14,41.76,41.76,0,0,0-4.46-.41,30.61,30.61,0,0,0-4.08.3c-.16,0-.31,0-.47,0-4.58,0-9.16-.09-13.74-.18a25.89,25.89,0,0,0-6,.59l-104.05,0c42.85-45.11,105.73-67,167.94-66.61,45.43.31,92.83,13.86,135.06-2.89,39.08-15.5,63.88-53.15,94.29-82.17,46.6-44.47,110.59-70.22,175-70.41,43.71-.13,91.85,9.9,127.9-14.82,24.34-16.7,36.77-45.44,53.86-69.51,50.08-70.54,146.51-100,217.13-70.26l.11,374.72-783.85,1.86a16.67,16.67,0,0,0-4-.09c-.42,0-.85.07-1.27.09h-2.85c-2.12-.08-4.25-.28-6.37-.28-3.07,0-6.13,0-9.2-.08-3.51-.2-7-.37-10.53-.38A29.48,29.48,0,0,0,1095.52,605.07Z"/><rect class="cls-5" width="1920" height="601.18"/><path class="cls-6" d="M1162.75,211.39c0,.67-5,1.22-11.08,1.22s-11.08-.55-11.08-1.22,5-1.23,11.08-1.23S1162.75,210.71,1162.75,211.39Z"/><path class="cls-6" d="M1174.51,181.25c.68,0,1.23,5,1.23,11.24s-.55,11.24-1.23,11.24-1.23-5-1.23-11.24S1173.83,181.25,1174.51,181.25Z"/><path class="cls-6" d="M1187,210.66c0-.67,5-1.22,11.08-1.22s11.08.55,11.08,1.22-5,1.23-11.08,1.23S1187,211.34,1187,210.66Z"/><path class="cls-6" d="M1175.28,240.8c-.68,0-1.23-5-1.23-11.24s.55-11.24,1.23-11.24,1.22,5,1.22,11.24S1176,240.8,1175.28,240.8Z"/><path class="cls-6" d="M1193.18,227.87c-.52.44-2.7-1.32-4.88-3.93s-3.51-5.06-3-5.5,2.71,1.33,4.88,3.93S1193.7,227.44,1193.18,227.87Z"/><path class="cls-6" d="M1192.15,193.7c.48.48-1,2.71-3.22,5s-4.48,3.74-5,3.26,1-2.71,3.22-5S1191.66,193.22,1192.15,193.7Z"/><path class="cls-6" d="M1166.75,202.41c-.43.52-2.52-.51-4.67-2.3s-3.55-3.66-3.11-4.18,2.52.51,4.67,2.29S1167.19,201.89,1166.75,202.41Z"/><path class="cls-6" d="M1165.76,217.47c.5.45-.76,2.65-2.81,4.9s-4.12,3.7-4.62,3.24.76-2.64,2.81-4.89S1165.26,217,1165.76,217.47Z"/><path class="cls-6" d="M1787.84,153.07c0,.39-2.82.7-6.29.7s-6.29-.31-6.29-.7,2.81-.69,6.29-.69S1787.84,152.69,1787.84,153.07Z"/><path class="cls-6" d="M1794.52,136c.38,0,.69,2.85.69,6.38s-.31,6.38-.69,6.38-.7-2.86-.7-6.38S1794.13,136,1794.52,136Z"/><path class="cls-6" d="M1801.63,152.67c0-.39,2.82-.7,6.29-.7s6.29.31,6.29.7-2.82.69-6.29.69S1801.63,153.05,1801.63,152.67Z"/><path class="cls-6" d="M1795,169.77c-.38,0-.7-2.85-.7-6.38s.32-6.38.7-6.38.7,2.86.7,6.38S1795.33,169.77,1795,169.77Z"/><path class="cls-6" d="M1805.12,162.44c-.3.24-1.54-.76-2.77-2.24s-2-2.87-1.71-3.12,1.54.75,2.77,2.23S1805.41,162.19,1805.12,162.44Z"/><path class="cls-6" d="M1804.53,143c.27.27-.55,1.54-1.83,2.83s-2.54,2.13-2.82,1.86.55-1.54,1.83-2.83S1804.26,142.76,1804.53,143Z"/><path class="cls-6" d="M1790.11,148c-.24.29-1.43-.29-2.65-1.31s-2-2.08-1.77-2.37,1.44.29,2.66,1.3S1790.36,147.68,1790.11,148Z"/><path class="cls-6" d="M1789.55,156.53c.28.26-.43,1.5-1.6,2.78s-2.33,2.1-2.62,1.84.43-1.5,1.59-2.78S1789.26,156.27,1789.55,156.53Z"/><path class="cls-6" d="M1502.13,296.17c0,.3-2.16.53-4.82.53s-4.82-.23-4.82-.53,2.16-.53,4.82-.53S1502.13,295.88,1502.13,296.17Z"/><path class="cls-6" d="M1507.25,283.06c.29,0,.53,2.19.53,4.89s-.24,4.89-.53,4.89-.53-2.19-.53-4.89S1507,283.06,1507.25,283.06Z"/><path class="cls-6" d="M1512.7,295.86c0-.3,2.16-.54,4.82-.54s4.82.24,4.82.54-2.15.53-4.82.53S1512.7,296.15,1512.7,295.86Z"/><path class="cls-6" d="M1507.58,309c-.29,0-.53-2.19-.53-4.89s.24-4.89.53-4.89.54,2.19.54,4.89S1507.88,309,1507.58,309Z"/><path class="cls-6" d="M1515.38,303.35c-.23.19-1.18-.58-2.13-1.71s-1.53-2.21-1.3-2.4,1.17.58,2.12,1.71S1515.6,303.16,1515.38,303.35Z"/><path class="cls-6" d="M1514.92,288.47c.21.21-.41,1.18-1.4,2.17s-2,1.63-2.15,1.42.41-1.18,1.4-2.17S1514.72,288.27,1514.92,288.47Z"/><path class="cls-6" d="M1503.87,292.26c-.19.23-1.1-.22-2-1s-1.54-1.59-1.36-1.82,1.1.22,2,1S1504.06,292,1503.87,292.26Z"/><path class="cls-6" d="M1503.44,298.82c.22.2-.33,1.15-1.22,2.13s-1.79,1.61-2,1.41.33-1.15,1.22-2.13S1503.22,298.62,1503.44,298.82Z"/><path class="cls-6" d="M1758.26,316.57c0,.38-2.82.69-6.29.69s-6.29-.31-6.29-.69,2.81-.7,6.29-.7S1758.26,316.18,1758.26,316.57Z"/><path class="cls-6" d="M1764.94,299.46c.38,0,.69,2.85.69,6.38s-.31,6.38-.69,6.38-.7-2.86-.7-6.38S1764.55,299.46,1764.94,299.46Z"/><path class="cls-6" d="M1772.05,316.16c0-.39,2.82-.7,6.29-.7s6.29.31,6.29.7-2.82.69-6.29.69S1772.05,316.54,1772.05,316.16Z"/><path class="cls-6" d="M1765.37,333.26c-.38,0-.69-2.85-.69-6.38s.31-6.38.69-6.38.7,2.86.7,6.38S1765.75,333.26,1765.37,333.26Z"/><path class="cls-6" d="M1775.54,325.93c-.3.24-1.54-.76-2.77-2.24s-2-2.87-1.71-3.12,1.54.75,2.77,2.23S1775.83,325.68,1775.54,325.93Z"/><path class="cls-6" d="M1775,306.52c.27.27-.55,1.54-1.83,2.84s-2.54,2.12-2.81,1.85.54-1.54,1.82-2.83S1774.68,306.25,1775,306.52Z"/><path class="cls-6" d="M1760.53,311.47c-.24.29-1.43-.29-2.65-1.31s-2-2.08-1.77-2.37,1.44.29,2.66,1.3S1760.78,311.17,1760.53,311.47Z"/><path class="cls-6" d="M1760,320c.28.26-.43,1.5-1.6,2.78s-2.33,2.1-2.62,1.84.43-1.5,1.6-2.78S1759.68,319.76,1760,320Z"/><path class="cls-6" d="M1426.72,154.18l.82,2a13.89,13.89,0,0,0,7.61,7.54l2.13.87-2,.83a13.92,13.92,0,0,0-7.67,7.69l-.57,1.43-.87-1.8a13.89,13.89,0,0,0-7.77-7l-1.85-.68,2.42-1.18a13.91,13.91,0,0,0,6.78-7.17Z"/><path class="cls-6" d="M1107.21,301.4l.54,1.3a9.26,9.26,0,0,0,5.06,5l1.41.57-1.36.55a9.25,9.25,0,0,0-5.09,5.11l-.39.95-.57-1.19a9.26,9.26,0,0,0-5.16-4.68l-1.24-.45,1.61-.79a9.23,9.23,0,0,0,4.51-4.76Z"/><path class="cls-6" d="M1912.31,174.5l.54,1.3a9.24,9.24,0,0,0,5.06,5l1.42.58-1.37.55a9.22,9.22,0,0,0-5.09,5.11l-.39.95-.57-1.2a9.27,9.27,0,0,0-5.16-4.68l-1.24-.45,1.62-.78a9.25,9.25,0,0,0,4.5-4.76Z"/><path class="cls-6" d="M1578.59,142.27l.38.92a6.49,6.49,0,0,0,3.57,3.54l1,.41-1,.39a6.49,6.49,0,0,0-3.6,3.6l-.27.67-.4-.84a6.54,6.54,0,0,0-3.65-3.3l-.87-.32,1.14-.55a6.61,6.61,0,0,0,3.18-3.37Z"/><path class="cls-6" d="M1325,293.08l.49,1.18a8.43,8.43,0,0,0,4.6,4.56l1.28.52-1.23.5a8.4,8.4,0,0,0-4.63,4.64l-.35.87-.52-1.09a8.4,8.4,0,0,0-4.69-4.25l-1.13-.41,1.47-.71a8.43,8.43,0,0,0,4.09-4.33Z"/><path class="cls-6" d="M1199.79,463.46c0,.67-5,1.22-11.08,1.22s-11.08-.55-11.08-1.22,5-1.23,11.08-1.23S1199.79,462.78,1199.79,463.46Z"/><path class="cls-6" d="M1211.55,433.32c.68,0,1.23,5,1.23,11.24s-.55,11.24-1.23,11.24-1.22-5-1.22-11.24S1210.88,433.32,1211.55,433.32Z"/><path class="cls-6" d="M1224.08,462.74c0-.68,5-1.23,11.08-1.23s11.08.55,11.08,1.23-5,1.22-11.08,1.22S1224.08,463.41,1224.08,462.74Z"/><path class="cls-6" d="M1212.32,492.87c-.68,0-1.23-5-1.23-11.24s.55-11.24,1.23-11.24,1.22,5,1.22,11.24S1213,492.87,1212.32,492.87Z"/><path class="cls-6" d="M1230.22,480c-.52.43-2.7-1.33-4.87-3.93s-3.52-5.07-3-5.51,2.7,1.33,4.88,3.93S1230.74,479.51,1230.22,480Z"/><path class="cls-6" d="M1229.19,445.77c.48.48-1,2.71-3.22,5s-4.48,3.74-5,3.26,1-2.71,3.22-5S1228.71,445.29,1229.19,445.77Z"/><path class="cls-6" d="M1203.8,454.48c-.44.52-2.53-.51-4.68-2.3s-3.54-3.66-3.11-4.18,2.53.51,4.68,2.3S1204.23,454,1203.8,454.48Z"/><path class="cls-6" d="M1202.8,469.54c.5.46-.76,2.65-2.81,4.9s-4.11,3.7-4.62,3.25.76-2.65,2.81-4.9S1202.3,469.08,1202.8,469.54Z"/><path class="cls-6" d="M1824.88,405.15c0,.38-2.82.69-6.29.69s-6.29-.31-6.29-.69,2.82-.7,6.29-.7S1824.88,404.76,1824.88,405.15Z"/><path class="cls-6" d="M1831.56,388c.38,0,.69,2.85.69,6.38s-.31,6.38-.69,6.38-.7-2.86-.7-6.38S1831.17,388,1831.56,388Z"/><path class="cls-6" d="M1838.67,404.74c0-.39,2.82-.7,6.29-.7s6.29.31,6.29.7-2.81.69-6.29.69S1838.67,405.12,1838.67,404.74Z"/><path class="cls-6" d="M1832,421.85c-.38,0-.69-2.86-.69-6.39s.31-6.38.69-6.38.7,2.86.7,6.38S1832.38,421.85,1832,421.85Z"/><path class="cls-6" d="M1842.16,414.51c-.3.24-1.54-.76-2.77-2.23s-2-2.88-1.7-3.13,1.53.75,2.77,2.23S1842.45,414.26,1842.16,414.51Z"/><path class="cls-6" d="M1841.57,395.1c.27.28-.54,1.54-1.83,2.84s-2.54,2.12-2.81,1.85.54-1.54,1.83-2.83S1841.3,394.83,1841.57,395.1Z"/><path class="cls-6" d="M1827.15,400.05c-.24.29-1.43-.29-2.65-1.31s-2-2.07-1.77-2.37,1.44.29,2.66,1.3S1827.4,399.75,1827.15,400.05Z"/><path class="cls-6" d="M1826.59,408.6c.28.26-.43,1.5-1.59,2.78s-2.34,2.1-2.63,1.84.43-1.5,1.6-2.78S1826.3,408.34,1826.59,408.6Z"/><path class="cls-6" d="M1539.17,548.24c0,.3-2.16.54-4.82.54s-4.82-.24-4.82-.54,2.16-.53,4.82-.53S1539.17,548,1539.17,548.24Z"/><path class="cls-6" d="M1544.29,535.13c.3,0,.54,2.19.54,4.89s-.24,4.89-.54,4.89-.53-2.19-.53-4.89S1544,535.13,1544.29,535.13Z"/><path class="cls-6" d="M1549.75,547.93c0-.3,2.15-.54,4.82-.54s4.82.24,4.82.54-2.16.53-4.82.53S1549.75,548.22,1549.75,547.93Z"/><path class="cls-6" d="M1544.63,561c-.3,0-.54-2.19-.54-4.89s.24-4.89.54-4.89.53,2.19.53,4.89S1544.92,561,1544.63,561Z"/><path class="cls-6" d="M1552.42,555.42c-.23.19-1.18-.58-2.13-1.71s-1.53-2.21-1.3-2.4,1.18.58,2.12,1.71S1552.64,555.23,1552.42,555.42Z"/><path class="cls-6" d="M1552,540.54c.21.21-.42,1.18-1.4,2.18s-2,1.62-2.16,1.42.42-1.18,1.4-2.18S1551.76,540.34,1552,540.54Z"/><path class="cls-6" d="M1540.92,544.33c-.19.23-1.1-.22-2-1s-1.54-1.59-1.35-1.82,1.1.23,2,1S1541.1,544.11,1540.92,544.33Z"/><path class="cls-6" d="M1540.48,550.89c.22.2-.33,1.15-1.22,2.13s-1.79,1.61-2,1.41.33-1.15,1.22-2.13S1540.26,550.69,1540.48,550.89Z"/><path class="cls-6" d="M1795.3,568.64c0,.38-2.82.69-6.29.69s-6.29-.31-6.29-.69,2.82-.7,6.29-.7S1795.3,568.25,1795.3,568.64Z"/><path class="cls-6" d="M1802,551.53c.38,0,.7,2.86.7,6.38s-.32,6.38-.7,6.38-.7-2.86-.7-6.38S1801.6,551.53,1802,551.53Z"/><path class="cls-6" d="M1809.09,568.23c0-.39,2.82-.7,6.29-.7s6.29.31,6.29.7-2.81.69-6.29.69S1809.09,568.61,1809.09,568.23Z"/><path class="cls-6" d="M1802.41,585.34c-.38,0-.69-2.86-.69-6.39s.31-6.38.69-6.38.7,2.86.7,6.38S1802.8,585.34,1802.41,585.34Z"/><path class="cls-6" d="M1812.58,578c-.3.24-1.54-.76-2.77-2.23s-2-2.88-1.7-3.13,1.53.76,2.77,2.23S1812.87,577.75,1812.58,578Z"/><path class="cls-6" d="M1812,558.6c.27.27-.54,1.53-1.83,2.83s-2.54,2.12-2.81,1.85.54-1.54,1.83-2.83S1811.72,558.32,1812,558.6Z"/><path class="cls-6" d="M1797.58,563.54c-.25.29-1.44-.29-2.66-1.31s-2-2.07-1.77-2.37,1.44.29,2.66,1.3S1797.82,563.24,1797.58,563.54Z"/><path class="cls-6" d="M1797,572.09c.28.26-.43,1.5-1.59,2.78s-2.34,2.1-2.63,1.84.43-1.5,1.6-2.78S1796.73,571.83,1797,572.09Z"/><path class="cls-6" d="M1463.76,406.25l.82,2a13.89,13.89,0,0,0,7.61,7.54l2.13.87-2,.83a13.89,13.89,0,0,0-7.67,7.69l-.58,1.43-.86-1.8a13.92,13.92,0,0,0-7.77-7l-1.86-.68,2.43-1.18a13.85,13.85,0,0,0,6.77-7.17Z"/><path class="cls-6" d="M1144.25,553.47l.54,1.31a9.24,9.24,0,0,0,5.06,5l1.42.57-1.36.56a9.22,9.22,0,0,0-5.1,5.1l-.39,1-.57-1.2a9.27,9.27,0,0,0-5.16-4.68l-1.24-.45,1.62-.78a9.27,9.27,0,0,0,4.5-4.77Z"/><path class="cls-6" d="M1615.63,394.34l.38.92a6.52,6.52,0,0,0,3.57,3.54l1,.41-1,.39a6.52,6.52,0,0,0-3.6,3.6l-.27.68-.4-.85a6.54,6.54,0,0,0-3.65-3.3l-.87-.32,1.14-.55a6.5,6.5,0,0,0,3.18-3.37Z"/><path class="cls-6" d="M1362,545.15l.49,1.19a8.41,8.41,0,0,0,4.6,4.55l1.29.52-1.24.5a8.4,8.4,0,0,0-4.63,4.64l-.35.87-.52-1.09a8.4,8.4,0,0,0-4.69-4.25l-1.12-.41,1.46-.71a8.39,8.39,0,0,0,4.09-4.33Z"/><text class="cls-7" transform="translate(1186.87 128.71) rotate(-4.11)">?</text><text class="cls-8" transform="matrix(-0.98, 0.18, -0.18, -0.98, 989.37, 128.58)">?</text><path class="cls-9" d="M1041.59,419.3s-12.47,40.61-17.31,70.89c-5.81,36.32-12.8,109-12.8,109H1079L1097.53,499h5.16l-8.85,100.5,71.63-.25s6.46-81.05.72-201Z"/><path d="M1111,497.91c.08.79-5,1.91-11.3,2.51s-11.5.44-11.58-.35,5-1.91,11.31-2.51S1110.93,497.12,1111,497.91Z"/><path d="M1043.62,497.21c-.71-.35,3.35-10.11,9.08-21.8s10.94-20.9,11.65-20.55-3.35,10.11-9.08,21.81S1044.33,497.56,1043.62,497.21Z"/><path d="M1159,484c-.61.46-5.83-5.52-10.58-14s-7.18-16-6.47-16.33,4.28,6.62,9,14.92S1159.62,483.54,1159,484Z"/><path d="M1130.45,109c-1.33-.46-2.79-.42-4.13-.86-3-1-4.73-4.21-7.13-6.35a15.68,15.68,0,0,0-10.52-3.6,36,36,0,0,0-11.12,2.17c-3.2,1-6.42,2.26-9.79,2.38-2.5.1-5-.42-7.49-.57-8.06-.48-16.65,3.54-20,10.88-1.43,3.12-2,6.78-4.27,9.31-3,3.31-8.46,3.82-11.13,7.44-2.5,3.38-1.66,8.12-.37,12.12a74.67,74.67,0,0,0,4.3,10.58c1.15,2.32,2.46,4.71,2.41,7.3a47.16,47.16,0,0,1-.85,5,12.54,12.54,0,0,0,4.59,10.9,17.82,17.82,0,0,0,11.47,3.82l56.3-39.58a14.94,14.94,0,0,0,10.31-7.69,25.31,25.31,0,0,0,2.78-12.86C1135.72,115.15,1134.38,110.28,1130.45,109Z"/><path class="cls-10" d="M1135.29,145.07c-1.47-18-17-49.18-49.88-33.23-10.36,5-15.39,15.22-18.23,26-2,7.52-6,96.5-6,96.5.4,30.22,44.94,40.75,49.25,4.33l1.1-39C1134.92,194,1136.94,165.32,1135.29,145.07Z"/><path class="cls-11" d="M1111.52,199.63S1098.29,203,1075.09,186c0,0,11.77,20.94,35.92,31Z"/><circle class="cls-12" cx="1085.74" cy="166.08" r="13.18" transform="matrix(0.76, -0.65, 0.65, 0.76, 156.51, 751.7)"/><path class="cls-12" d="M1120.64,159.64a13.18,13.18,0,0,1,14.13-12.14l.7.07c.53,8.28.36,17.68-1.59,26.24a10.1,10.1,0,0,1-1.1,0A13.18,13.18,0,0,1,1120.64,159.64Z"/><path d="M1105,163c3.25,4.44,6.76,5,11.53,2.53.58-.32,1.16-.65,1.8-.94-4,5.15-11.4,5.35-13.33-1.59Z"/><path class="cls-13" d="M1096.27,145.77c0,1.55-.75,2.79-1.64,2.78s-1.61-1.26-1.6-2.81.76-2.79,1.65-2.78S1096.29,144.23,1096.27,145.77Z"/><path class="cls-13" d="M1128.2,141.63c0,1.54-.76,2.79-1.65,2.78s-1.61-1.27-1.59-2.81.75-2.79,1.64-2.78S1128.21,140.09,1128.2,141.63Z"/><path d="M1098,137c.52,0,2.07.07,1.14-1.73a4.41,4.41,0,0,0-.47-.74,5.85,5.85,0,0,0-5.28-2,11.28,11.28,0,0,0-7.67,4.77.27.27,0,0,0,.27.42c1.48-.25,5.31-.9,6.4-.89C1093.75,136.87,1096.61,137,1098,137Z"/><path d="M1099.12,136.62s.27-2.76-1.62-4.23"/><path d="M1125,135c-.44,0-1.78.18-1.08-1.44a4.28,4.28,0,0,1,.37-.66,5.07,5.07,0,0,1,4.45-2,9.77,9.77,0,0,1,6.89,3.7.23.23,0,0,1-.21.38c-1.29-.14-4.64-.49-5.58-.42C1128.66,134.64,1126.2,134.88,1125,135Z"/><path d="M1124,134.71a4.51,4.51,0,0,1,1.16-3.74"/><circle class="cls-10" cx="1061.13" cy="150.73" r="9.71" transform="translate(410.94 1002.77) rotate(-60.74)"/><path d="M1065.42,153.78c-2.12-2.3-4.37-4.65-7.52-3.36-.43.14-.82.37-1.3.52,2.87-4.25,8.1-1.51,8.82,2.84Z"/><path d="M1113.15,136.94a93.92,93.92,0,0,1,4.14,16.86,65.39,65.39,0,0,1-6.53-.48,58.69,58.69,0,0,1,5.88-.64l-.53.66a93.1,93.1,0,0,1-3-16.4Z"/><path d="M1062,137.71a6.4,6.4,0,0,0,11.76,2.65c1.66-2.6,1.23-5.94,1-9s-.11-6.6,2.23-8.61c2.14-1.84,5.27-1.7,8.08-1.88a21.74,21.74,0,0,0,8.65-2.24c2.4-1.25,4.51-3.07,7.06-4a11.34,11.34,0,0,1,10,1.19c2.7,1.79,4.49,4.65,6.92,6.79a16.19,16.19,0,0,0,5.32,3.11c2.61.92,6,.92,7.61-1.33,1.43-2,.76-4.82-.46-7-2.43-4.27-6.61-7.25-10.91-9.63a29.63,29.63,0,0,0-9.75-3.69c-3.75-.55-7.57.05-11.3.71-9.52,1.66-19.63,4-26.25,11a38.91,38.91,0,0,0-4.69,6.41c-2.9,4.71-5.52,9.92-5.43,15.46"/><path class="cls-14" d="M1114.29,282.74s29.14,71.54,44.67,99.48c15.36,27.62,47,35.9,62,16,25.26-33.28,30.83-150.49,30.83-150.49l-28.21-1.17-27.16,94.48L1152,266.29Z"/><path class="cls-14" d="M1221,255.73c.8-16.61-.92-49.33,4.19-50.61,3.2-.8,3.75,14.84,3.75,14.84s5.89-15.41,9.28-21.09,5.53-.93,2.59,6.1c-2.56,6.1-4.85,17.71-4.85,17.71s7.6-18.7,11.74-22.59,2.68,1.62,1.49,4.07c-1.37,2.83-5.58,19.89-5.58,19.89s9-22.45,11.7-20.94-4.79,22.77-4.79,22.77,3.47-10,6.93-13.19,1.86,2,.93,6c-6.23,26.4-8,39.35-8,39.35Z"/><path d="M1249.1,227.46c0,.22-1.62,0-4.1.23a17.54,17.54,0,0,0-8.85,3.5l-.44.34-1,.79-.12-1.24a25.17,25.17,0,0,0-2.72-8.9c-1.11-2.13-2-3.32-1.87-3.46s1.31.88,2.7,3a21.06,21.06,0,0,1,3.26,9.23l-1.13-.46.48-.38a16.29,16.29,0,0,1,9.64-3.38C1247.6,226.69,1249.14,227.31,1249.1,227.46Z"/><path d="M1203.39,366.84c-.77.18-2.77-5.41-4.46-12.49s-2.44-13-1.67-13.16,2.77,5.41,4.46,12.49S1204.16,366.65,1203.39,366.84Z"/><path d="M1207.18,354.32c-.55.55-3.43-1.44-6-4.83s-3.72-6.69-3-7.08,2.88,2.14,5.32,5.35S1207.75,353.75,1207.18,354.32Z"/><path class="cls-15" d="M1019.41,342.13l-45,7.05s13.15-75.26,26-92.46,51.26-27.21,51.26-27.21l9.08-9.11,55.92,2.64,9.08,9.12s34,11,46.78,28.12,24.35,81.85,24.35,81.85l-31.57,1.13s12.45,84.72,9.09,102.88l-140.18-.46C1024,440.05,1019.41,342.13,1019.41,342.13Z"/><path class="cls-16" d="M1019.41,342.13l-45,7.05s13.15-75.26,26-92.46,51.26-27.21,51.26-27.21l9.08-9.11,55.92,2.64,9.08,9.12s34,11,46.78,28.12,24.35,81.85,24.35,81.85l-31.57,1.13s12.28,86.52,9.09,102.88l-140.18-.46C1024,440.05,1019.41,342.13,1019.41,342.13Z"/><path class="cls-14" d="M1081.31,343.9l-47.12,43.18,3.17-62.49c-15.59.2-31.17.57-46.75,1.27-3.78,20.77-8,46.56-9.31,63.7-2.45,32.85,11.73,61.82,37,56.85,14.35-2.82,38.84-26.35,57.29-46.1,14.81-15.86,18.74-39,7.56-57.6Z"/><path class="cls-14" d="M1077.5,352.49c.77-3.15,2.79-8.76,5.83-10.19,5.57-2.6,28.06-6.63,29.23-4S1085,350.66,1085,350.66s26.37-3.71,27,.49-26.22,6.44-26.22,6.44,23,.37,23.49,3.84-22.31,3.05-22.31,3.05,13,2.71,13,5.51-15.21-.87-15.21-.87L1074.27,373s-1.63-5.72-.08-8.28C1074.19,364.67,1076.37,357.11,1077.5,352.49Z"/><path class="cls-15" d="M971,373l70.14-5,10.61-90.81-57.69-8.77S971,337.15,971,373Z"/><path class="cls-16" d="M971,373l70.14-5,10.61-90.81-57.69-8.77S971,337.15,971,373Z"/><path d="M1125.22,234.86c0,.75-16.11,2-36,.66s-35.71-4.7-35.58-5.44,16,1.29,35.77,2.58S1125.19,234,1125.22,234.86Z"/><path d="M1034,371.77c-.79-.07,0-18.75,1.87-41.74s3.94-41.57,4.73-41.51-.05,18.75-1.87,41.74S1034.83,371.83,1034,371.77Z"/><path d="M1174.32,446.14c-.2,0-.49-2.36-.85-6.64s-.93-10.52-1.61-18.13c-1.37-15.36-3.25-36.49-5.33-59.82s-3.87-44.54-5-59.88c-.57-7.67-1-13.88-1.19-18.18s-.22-6.68,0-6.7.59,2.34,1.13,6.61,1.27,10.44,2.09,18.09c1.66,15.29,3.77,36.43,5.84,59.81s3.67,44.56,4.51,59.93c.41,7.68.63,13.91.69,18.21S1174.52,446.14,1174.32,446.14Z"/><path d="M1016,409.84c-.57-.56,3.38-5.44,8.33-11.33s9.1-10.6,9.75-10.13-2.51,6-7.56,12S1016.51,410.39,1016,409.84Z"/><path d="M1013.86,398.71c-.39-.69,3.62-3.75,9-6.85s10-5.06,10.4-4.37-3.62,3.75-9,6.85S1014.26,399.39,1013.86,398.71Z"/><text class="cls-17" transform="translate(1652.86 100.12) rotate(160.98)">?</text><text class="cls-18" transform="translate(1843.72 148.49) rotate(24.22)">?</text><path d="M1797,125a14.72,14.72,0,0,1-2.66-2.69,14.11,14.11,0,0,1-1.39-3.27c-2.16-6.26-6.19-12.09-12-15.63s-13.19-4.62-20.2-4.39c-5.76.19-11.62,1.21-16.64,3.95s-9.12,7.4-10.12,12.88,1.64,11.67,6.82,14.12l43.4,45.84a16.45,16.45,0,0,0,18.32-2.56,21.48,21.48,0,0,0,5.14-8.63C1812.46,150.94,1808.08,134.74,1797,125Z"/><path class="cls-19" d="M1722.47,142c2.83-17.87,20.63-47.76,52.25-29.36,10,5.78,14.19,16.34,16.21,27.3,1.41,7.65-1.3,96.68-1.3,96.68-2.67,30.1-47.88,37.24-49.44.59l1.86-39C1719.14,190.8,1719.29,162,1722.47,142Z"/><path class="cls-20" d="M1742.05,198.16s13,4.33,37.36-10.85c0,0-13.32,20-38.16,28.2Z"/><path class="cls-21" d="M1783.47,166.66a13.18,13.18,0,1,1-13.17-13.18A13.18,13.18,0,0,1,1783.47,166.66Z"/><path class="cls-21" d="M1736,157.6a13.18,13.18,0,0,0-13.18-13.18l-.7,0c-1.15,8.22-1.69,17.6-.39,26.29.36,0,.72.05,1.09.05A13.18,13.18,0,0,0,1736,157.6Z"/><path class="cls-19" d="M1805.43,150.91a9.71,9.71,0,1,1-11.73-7.14A9.71,9.71,0,0,1,1805.43,150.91Z"/><path d="M1791.49,155.92c1-4.29,6.47-6.61,9-2.16-.46-.19-.84-.44-1.25-.61-3-1.53-5.47.64-7.75,2.77Z"/><path d="M1740.57,166c2.72,1.85,5.83,3.91,9,1.85a20.74,20.74,0,0,0,2.86-2.09c-2.19,6.23-9.2,6-11.87.24Z"/><path d="M1758.22,136.17c-.52,0-2.06-.08-1-1.81a4,4,0,0,1,.53-.7,5.82,5.82,0,0,1,5.41-1.58,11.25,11.25,0,0,1,7.29,5.33.27.27,0,0,1-.3.4c-1.46-.37-5.23-1.31-6.31-1.38C1762.48,136.35,1759.62,136.23,1758.22,136.17Z"/><path d="M1757.14,135.68s-.06-2.76,1.94-4.09"/><path d="M1733.5,132.7c.44.08,1.76.31,1.19-1.35a3.6,3.6,0,0,0-.32-.69,5.07,5.07,0,0,0-4.28-2.34,9.78,9.78,0,0,0-7.16,3.17.23.23,0,0,0,.19.39c1.3,0,4.66-.14,5.59,0C1729.87,132.06,1732.3,132.49,1733.5,132.7Z"/><path d="M1734.5,132.48a4.49,4.49,0,0,0-.88-3.82"/><path d="M1744.49,135.43c0,6.23-3.31,12.21-6.17,17.6l-.24-.77c1.41.8,3,1.73,4.33,2.63.48.31.95.62,1.41,1-.93-.31-2.23-.87-3.16-1.22-1.21-.5-2.41-1-3.59-1.58l.25-.55c1-2.08,3-6.3,3.92-8.41,1.22-2.83,2.64-5.6,3.25-8.65Z"/><path d="M1754.33,140.49c-.48,4.14.27,12.62,5.85,7a25.73,25.73,0,0,0,3.1-4.09.55.55,0,0,1,.75-.17.56.56,0,0,1,.21.68c-1.16,2.52-2.64,5-5.12,6.54-3.54,2-6.14-1.32-6.19-4.7a17.75,17.75,0,0,1,.5-5.45.46.46,0,0,1,.56-.34.46.46,0,0,1,.34.5Z"/><path d="M1727.37,137.44c-.13,1.81-.87,10.61,2.76,7.72a22.45,22.45,0,0,0,4.11-5.75.54.54,0,0,1,1,.43c-1.12,2.78-2.43,6-5.29,7.42-3.09,1.19-4.33-2.55-4.16-4.93a20.38,20.38,0,0,1,.69-5.06.47.47,0,0,1,.56-.33.46.46,0,0,1,.34.5Z"/><line class="cls-22" x1="1774.88" y1="145.66" x2="1791.61" y2="144.22"/><path class="cls-22" d="M1738.06,139.54s5.71-2.25,8.77,1.45"/><path class="cls-22" d="M1738.07,139.54c-1.16,8.27-8.13,13.93-15.56,12.64s-12.53-9-11.37-17.31,8.12-13.93,15.56-12.64S1739.22,131.27,1738.07,139.54Z"/><path class="cls-22" d="M1774.88,145.66c-1.21,8.27-8.47,13.93-16.21,12.64s-13.05-9-11.84-17.31,8.46-13.93,16.21-12.64S1776.09,137.39,1774.88,145.66Z"/><path d="M1775.72,117.7s-31.29,14.12-43.68,2,23-25.42,38.9-20,25.21,40.42,25.21,40.42l-3.73,3.45-6.38.59S1775.72,136.82,1775.72,117.7Z"/><path class="cls-16" d="M1712.84,419.3s-12.47,40.61-17.31,70.89c-5.81,36.32-12.8,109-12.8,109h67.52L1768.78,499H1774l-8.86,100.5,71.63-.25s21.64-117.92-11.25-178.61Z"/><path class="cls-19" d="M1654.22,503.66c-4,11.38-6.57,17.84-6.57,17.84-10.21,13.12-30.64,33.88-27.6,38.17,1.91,2.7,12.52-8.81,12.52-8.81s-5.58,15.53-6.69,22,3.57,4.31,5.92-2.94c2-6.29,7.86-16.59,7.86-16.59s-6.42,19.13-5.8,24.78,3.08.52,3.78-2.11c.8-3,8.72-18.73,8.72-18.73s-7.81,22.88-4.76,23.51,10.62-18.93,11.16-20.31c-.33.84-3.85,10-3.3,14.43.58,4.64,2.73-.32,4.6-3.93,12.47-24.09,23.54-45.42,23.54-45.42l6.12-13.69Q1668.92,508,1654.22,503.66Z"/><path d="M1652.75,558.3c.11-.2-1.26-1-3-2.84a17.79,17.79,0,0,1-4.43-8.42c0-.19-.07-.38-.11-.56l-.25-1.25-.91.86a24.85,24.85,0,0,1-7.85,5c-2.23.89-3.71,1.2-3.67,1.41s1.57.19,4-.5a21.1,21.1,0,0,0,8.49-4.88l-1.15-.39c0,.19.07.4.11.61a16.35,16.35,0,0,0,5.11,8.84C1651.1,557.9,1652.68,558.44,1652.75,558.3Z"/><path class="cls-23" d="M1867.21,343.47s-7.68-49.31-20.47-66.51c-.44-.59-.9-1.19-1.37-1.79l-.47-.6-1-1.27-.6-.73-1-1.21c-.22-.25-.43-.51-.65-.77l-1.06-1.24-.66-.77c-.39-.44-.77-.88-1.17-1.32l-.62-.72-1.5-1.67c-.12-.12-.23-.25-.35-.38l-1.9-2.09-.57-.6c-.45-.5-.91-1-1.37-1.48l-.77-.82-1.22-1.29-.8-.84-1.23-1.28c-.26-.28-.53-.55-.79-.82l-1.25-1.29-.76-.78-1.41-1.44-.57-.58-2-2-.45-.45-1.5-1.5-.65-.64-1.25-1.25-.72-.71L1816,243.6l-.4-.39h0c-7.36-7.22-12.9-12.35-12.9-12.35l-9.08-9.12-31,18.4-25-15.75-9.08,9.11s-35.2,26.31-48,43.46-9.13,128.12-9.13,128.12l-26.16,102.57c10.67,4.09,21.48,7.81,32.34,11.44,3.2,1.08,6.41,2.19,9.62,3.3l36-93.74,63.12.69c12.51,10.89,58.49,48.27,85.06,34.28C1888.06,454.94,1878.39,390.51,1867.21,343.47Z"/><path class="cls-24" d="M1867.21,343.47s-7.68-49.31-20.47-66.51c-.44-.59-.9-1.19-1.37-1.79l-.47-.6-1-1.27-.6-.73-1-1.21c-.22-.25-.43-.51-.65-.77l-1.06-1.24-.66-.77c-.39-.44-.77-.88-1.17-1.32l-.62-.72-1.5-1.67c-.12-.12-.23-.25-.35-.38l-1.9-2.09-.57-.6c-.45-.5-.91-1-1.37-1.48l-.77-.82-1.22-1.29-.8-.84-1.23-1.28c-.26-.28-.53-.55-.79-.82l-1.25-1.29-.76-.78-1.41-1.44-.57-.58-2-2-.45-.45-1.5-1.5-.65-.64-1.25-1.25-.72-.71L1816,243.6l-.4-.39h0c-7.36-7.22-12.9-12.35-12.9-12.35l-9.08-9.12-31,18.4-25-15.75-9.08,9.11s-35.2,26.31-48,43.46-9.13,128.12-9.13,128.12l-26.16,102.57c10.67,4.09,21.48,7.81,32.34,11.44,3.2,1.08,6.41,2.19,9.62,3.3l36-93.74,63.12.69c12.51,10.89,58.49,48.27,85.06,34.28C1888.06,454.94,1878.39,390.51,1867.21,343.47Z"/><polygon class="cls-25" points="1764.22 239.08 1779.41 257.29 1802.34 229.97 1793.63 216.39 1764.22 239.08"/><polygon class="cls-25" points="1757.96 237.37 1745.94 255.99 1726.66 233.96 1739.18 220.87 1757.96 237.37"/><polygon class="cls-26" points="1762.18 240.2 1764.4 238.93 1779.41 257.29 1762.18 240.2"/><polygon class="cls-26" points="1762.49 240.04 1757.74 237.35 1745.94 255.99 1762.49 240.04"/><path class="cls-19" d="M1799.29,383.42l-26.51-20.07-.36-.35c-4.56-4.19-22.84-9.27-24.32-6.74s18.07,12.53,20.26,13.67c0,0,0,0,0,.05-2.4-.59-24-5.77-25-1.87s21.77,8.43,23.53,8.76h0c-1.7-.17-23-2.2-23.88,1.08-.88,3.43,22,5.7,22,5.7s-13.32,1.18-13.7,4,15.35.92,15.35.92l.85.43c2.16,9.12,8,17.48,16.86,25.26,3.8,3.36,7.8,7,11.89,10.73Q1797.56,404.19,1799.29,383.42Z"/><path class="cls-23" d="M1790,374.06l-3.5,55.28a15.68,15.68,0,0,0,22.84-13.51l.89-31.35C1803.56,381,1796.65,377.73,1790,374.06Z"/><path class="cls-24" d="M1790,374.06l-3.5,55.28a15.68,15.68,0,0,0,22.84-13.51l.89-31.35C1803.56,381,1796.65,377.73,1790,374.06Z"/><path d="M1787.51,426.35c-.82-.05-.59-12.06.56-26.75S1790.22,373,1791,373s1.12,12.05-.06,26.79S1788.27,426.39,1787.51,426.35Z"/><path d="M1843.27,408.17c-.41.67-13.19-6.36-28.32-16.08s-26.85-18.42-26.41-19.07,12.85,7,28,16.65S1843.69,407.49,1843.27,408.17Z"/><path d="M1818.34,392.41c-.8.08-3.13-15.62-5.8-35s-4.66-35.13-3.87-35.26,4,15.44,6.71,34.87S1819.12,392.33,1818.34,392.41Z"/><path d="M1682.55,518.17c-.26.76-8.81-1.57-19.31-4.48-5.25-1.47-10-2.82-13.42-3.89a26.85,26.85,0,0,1-4.09-1.49c-1-.59-1.21-1.35-1-1.42s.58.23,1.46.38,2.38.25,4.14.56a129,129,0,0,1,13.72,3.1C1674.61,513.87,1682.81,517.44,1682.55,518.17Z"/><path d="M1690,413.18c-.26.74-4.73-.13-9.86-2.29s-8.88-4.74-8.53-5.44,4.61.68,9.64,2.79S1690.25,412.42,1690,413.18Z"/><path d="M1687.57,407.36c-.15.78-3.84.73-8.24-.12s-7.84-2.16-7.69-2.94,3.83-.72,8.23.13S1687.72,406.59,1687.57,407.36Z"/><path d="M1708.52,428c-.42,0-.83-5.15-1.49-13.46s-1.62-19.77-3.08-32.39-3.17-24-4.45-32.23-2-13.35-1.65-13.44,1.85,4.89,3.64,13.07,3.82,19.57,5.31,32.27,2.12,24.25,2.26,32.62S1708.89,428,1708.52,428Z"/><path class="cls-16" d="M1710.45,428.67l-.72,2.39c-4,14-10.87,38.31-14.2,59.13-5.81,36.32-12.8,109-12.8,109h20.45l22.22-170.55Z"/><path d="M1708.2,496.56c-.74-.41,5.33-12.27,10.88-27.65s8.58-28.36,9.41-28.19-1,13.54-6.72,29.16S1708.83,497,1708.2,496.56Z"/><path d="M1830.71,494c-.64.43-7.84-9.19-15-22.13a178.16,178.16,0,0,1-8.36-17c-1.94-4.58-1.86-7.83-1.47-7.83s1,2.83,3.3,7c2.39,4.35,5.55,10.1,9,16.45C1825.32,483.31,1831.39,493.55,1830.71,494Z"/><path d="M1788.2,498.13c0,.8-6.66,1-14.75,1s-14.71-.07-14.77-.87,6.53-1.95,14.75-2S1788.26,497.35,1788.2,498.13Z"/><path class="cls-26" d="M1786.53,429.34l-76.08-.67c-1.38,4.75-2.7,9-4.83,17l133.85,17.91c0-.22-.09-.44-.13-.66C1817.29,455,1794.72,436.47,1786.53,429.34Z"/><text class="cls-27" transform="translate(1345.64 136.17) rotate(-6.17)">?</text><text class="cls-28" transform="translate(1492.28 100.89) rotate(-6.17)">?</text><path d="M1511.41,226.22l-112,1.06s-19.3-34.87,6.52-54,15.11-51.2,58-52.35c45.86-1.22,49.49,39.27,42.44,64.17C1500.16,207.26,1511.41,226.22,1511.41,226.22Z"/><path class="cls-29" d="M1420.58,161.26c2.82-17.83,20.57-47.64,52.12-29.29,9.92,5.77,14.15,16.3,16.16,27.23,1.41,7.62-1.29,96.42-1.29,96.42-2.67,30-47.76,37.15-49.31.59l1.85-38.91C1417.26,210,1417.41,181.27,1420.58,161.26Z"/><path class="cls-20" d="M1440.11,217.3s12.91,4.32,37.26-10.81c0,0-13.29,19.94-38.06,28.13Z"/><path class="cls-30" d="M1481.42,185.89a13.14,13.14,0,1,1-13.14-13.14A13.14,13.14,0,0,1,1481.42,185.89Z"/><path class="cls-30" d="M1434.06,176.85a13.14,13.14,0,0,0-13.15-13.14l-.7,0c-1.14,8.19-1.69,17.55-.39,26.22.36,0,.73.05,1.09.05A13.15,13.15,0,0,0,1434.06,176.85Z"/><path class="cls-31" d="M1448.86,180.05c-1,3-3.4,5-5.93,5-3.1,0-2.94-4.83.16-4.9Z"/><path d="M1442,157.66a17.33,17.33,0,0,1-4.32,7.32l-.08-.81c2.21,1.88,4.39,3.78,6.47,5.82-2.62-1.64-5.11-3.42-7.6-5.24a49.66,49.66,0,0,1,5.53-7.09Z"/><path d="M1459.35,162c-.41-3.41-2.21-12.27-5.5-4.94a36.62,36.62,0,0,0-1.62,4.55.54.54,0,0,1-1.06-.22c.49-2.95,1.07-6.34,3.53-8.37,2.76-1.84,4.77,1.53,5.13,3.89a20.1,20.1,0,0,1,.43,5.06.46.46,0,0,1-.91,0Z"/><path d="M1433.58,160.18c-.4-3.41-2.21-12.27-5.5-4.94a36.62,36.62,0,0,0-1.62,4.55.54.54,0,0,1-1.06-.22c.49-2.95,1.07-6.34,3.53-8.37,2.76-1.85,4.78,1.53,5.13,3.89a19.65,19.65,0,0,1,.43,5.06.46.46,0,0,1-.91,0Z"/><path class="cls-29" d="M1503.32,170.18a9.69,9.69,0,1,1-11.7-7.13A9.68,9.68,0,0,1,1503.32,170.18Z"/><path d="M1489.42,175.18c1-4.28,6.45-6.59,9-2.16-.46-.18-.84-.44-1.25-.61-3-1.53-5.45.64-7.73,2.77Z"/><path d="M1421.67,148.08l34.08,3.46s10.76-14,10.52-12.12-2.57,14.87-2.57,14.87l28.59,3.37s-2.57-34.83-28.28-36.76S1421.67,148.08,1421.67,148.08Z"/><path class="cls-32" d="M1516.8,419.3s12.47,40.61,17.31,70.89c5.81,36.32,12.8,109,12.8,109h-67.52L1460.86,499h-5.16l8.85,100.5-71.63-.25s-21.64-117.92,11.25-178.61Z"/><path class="cls-33" d="M1524.25,445.68c-4-15.1-7.45-26.38-7.45-26.38l-112.63,1.31c-6.74,12.43-11.18,27.27-14,43Z"/><path class="cls-16" d="M1516.8,419.3s12.47,40.61,17.31,70.89c5.81,36.32,12.8,109,12.8,109h-67.52L1460.86,499h-5.16l8.85,100.5-71.63-.25s-21.64-117.92,11.25-178.61Z"/><path class="cls-34" d="M1524.25,445.68c-4-15.1-7.45-26.38-7.45-26.38l-112.63,1.31c-6.74,12.43-11.18,27.27-14,43Z"/><path d="M1472.63,498.65c0,.8-6.71,1.11-14.91,1.11s-14.88-.31-14.92-1.11,6.63-1.76,14.92-1.76S1472.67,497.87,1472.63,498.65Z"/><path d="M1555.67,388.47c-.68-.4,1.93-6,5.82-12.48s7.6-11.42,8.28-11-1.93,6-5.82,12.48S1556.35,388.88,1555.67,388.47Z"/><path class="cls-29" d="M1303.79,277.08c5.71.6,7.93-9.15,9.63-9.48-2.42-6.54-3.92-10.56-1.94-16.48a16,16,0,0,0,1-5c0-3.3-1.51-6.38-3-9.32a3.74,3.74,0,0,0-1.51-1.78,39.71,39.71,0,0,0-6.76-7c-1.22-1-5-5.59-9.51-.08C1289.34,230.87,1285.8,275.2,1303.79,277.08Zm-6.38-43.59a53.7,53.7,0,0,0,6.42,4.94c.35.23.71.44,1.08.64-.05,2.91.78,5.91-.23,8.63a2,2,0,0,1-.71,1c-1,.65-2.19-.34-2.86-1.29A21.17,21.17,0,0,1,1297.41,233.49Z"/><path class="cls-29" d="M1384.27,270.61l-34.43,79.88-39.08-90.21-9.89,1.7-8.19-24.37s-12-16.19-17-18.91-2.18,2.24-.42,4.31c2,2.4,10.4,17.86,10.4,17.86s-14.33-19.49-16.59-17.34,9.33,19.31,10.29,20.73c-.67-1-6.07-8.88-9.95-10.92-4.14-2.17-1.29,2.43.6,6,5.9,11.17,10.11,19.73,13,25.72.1.4,31.47,122.26,50.53,138.28s44.73-1.91,58.06-31,32.31-90.33,32.31-90.33Z"/><path class="cls-29" d="M1661.46,270.07c-4.1,1.57-10.4,8.78-11.18,9.67.83-1,14.6-17,12.67-19.37s-18.52,15.25-18.52,15.25,10.13-14.36,12.44-16.5c2-1.85,5.37-6.44.09-4.33s-19.15,16.77-19.15,16.77,6.36-10,11-14.73c5.3-5.48,5-10.67-.19-6.62s-16.32,16.26-16.32,16.26,5.18-14.77,1.91-15.19c-4.13-.53-10.43,16.67-16.25,31.4l-48.39,83.07-24.74-83.39-40.63,6.7s11.6,63.09,21.39,93.52,33.12,51.29,54,37.62c20.16-13.22,63.84-116.5,66.75-123.43,3.4-5.32,8-12.24,13.87-20.79C1662.45,272.64,1665.82,268.41,1661.46,270.07Z"/><path d="M1648.3,280.79c-.11.2-1.49-.62-3.89-1.28a17.68,17.68,0,0,0-9.52,0l-.54.16-1.22.37.33-1.21a24.84,24.84,0,0,0,.71-9.27c-.26-2.38-.68-3.83-.48-3.9s.9,1.3,1.43,3.75a21.29,21.29,0,0,1-.32,9.79l-.89-.84.59-.18a16.33,16.33,0,0,1,10.21.36C1647.19,279.52,1648.4,280.67,1648.3,280.79Z"/><path d="M1361.4,369.68c-.7.39-3.83-3.84-7.25-9.31s-5.83-10.16-5.17-10.61,4.16,3.56,7.61,9.09S1362.08,369.29,1361.4,369.68Z"/><path class="cls-35" d="M1530,355.58l40.27-1.91-25.5-91.59a33.14,33.14,0,0,0-33.21-24.23l-23.56-.51-1,1.15a31.19,31.19,0,0,1-47.72-1.15H1405a33.15,33.15,0,0,0-32.52,24l-22.74,79.21,44.16,15s-1.23,65,10.3,65l112.63-1.31C1527,413.67,1530,355.58,1530,355.58Z"/><path d="M1460.36,249.43c.18.08.11.74-.27,1.84a12.83,12.83,0,0,1-2.58,4.32,14.84,14.84,0,0,1-2.74,2.25,16.85,16.85,0,0,1-3.63,1.82,13.34,13.34,0,0,1-4.56.75,10.21,10.21,0,0,1-4.95-1.3,12.24,12.24,0,0,1-5.55-7.71,18.62,18.62,0,0,1-.22-7.48c.72-4.11,1.72-6.4,2.07-6.34s.12,2.61-.06,6.53a20.15,20.15,0,0,0,.75,6.56,10.26,10.26,0,0,0,4.41,5.94,9.55,9.55,0,0,0,7.31.53,17.5,17.5,0,0,0,5.77-3,18.89,18.89,0,0,0,3-3.37C1459.76,249.85,1460.18,249.35,1460.36,249.43Z"/><path d="M1488.6,238.85c.35.06.51,2.58-.11,6.71a22.21,22.21,0,0,1-2.33,7.1,14.74,14.74,0,0,1-6.86,6.5,11.5,11.5,0,0,1-5,.92,17.57,17.57,0,0,1-4.48-.73,16.18,16.18,0,0,1-6.63-3.71,10,10,0,0,1-2.77-4.31c-.33-1.17-.23-1.86-.07-1.9.45-.13,1.08,2.42,4.15,4.67a16.5,16.5,0,0,0,6,2.7c2.43.55,5.24.81,7.66-.27a13.2,13.2,0,0,0,5.71-5.21,25.84,25.84,0,0,0,2.64-6.22C1487.61,241.29,1488.17,238.78,1488.6,238.85Z"/><circle cx="1460.29" cy="265.7" r="2.65"/><circle cx="1460.29" cy="300.63" r="2.65"/><circle cx="1460.29" cy="335.57" r="2.65"/><circle cx="1460.29" cy="370.51" r="2.65"/><circle cx="1460.29" cy="405.45" r="2.65"/><path d="M1394.32,364.44c-.78.11-3.44-14.05-5.94-31.63s-3.88-31.93-3.1-32,3.44,14.05,5.94,31.63S1395.1,364.33,1394.32,364.44Z"/><path d="M1529,361.31c-.78-.09,0-15.11,1.65-33.55s3.72-33.35,4.51-33.29,0,15.08-1.65,33.55S1529.79,361.39,1529,361.31Z"/><path d="M1890.62,599.22c0,.79-211.14,1.43-471.53,1.43s-471.57-.64-471.57-1.43,211.09-1.43,471.57-1.43S1890.62,598.43,1890.62,599.22Z"/><path class="cls-31" d="M187.33,356.16,165,268.61h20.2c8.2,40.23,11.94,58.07,13,67.7h.13c3.33-16.08,11.78-46.56,16.89-67.7h17c4.5,16.79,13.36,50.77,16.21,66.79h.12c2.91-19.28,11.51-53.19,14.58-66.79h18.39l-23.71,87.55H238.21c-4.61-19.39-12.31-47.68-15.4-62.68h-.12c-3.18,15.59-11.09,45.06-15.76,62.68Z"/><path class="cls-31" d="M308.24,263.46v34.73c2.88-4.26,8.21-9.28,18.83-9.28,12.26,0,22,7.25,22,25.08v42.17H331V316.71c0-8.54-3-13.08-10.67-13.08-10.11,0-12.09,7.52-12.09,17.66v34.87H290v-92.7Z"/><path class="cls-31" d="M376.45,290.43c6.79,22.68,12.71,42.92,13.75,49h.13c1.42-6.63,5.27-21.36,13.12-49h18.12l-22.09,67.63C393.19,377,388,382.61,372.16,382.61c-1.61,0-5.37-.13-8.52-.49V367.49a45.15,45.15,0,0,0,4.7.27c6.69,0,10.06-2.32,12.52-9.58l-23.92-67.75Z"/><path class="cls-31" d="M519,337.06c0,6.34,0,13.23.12,19.1H501.29c-.26-1.76-.38-5.28-.49-7.58-3.9,6.6-9.71,9.11-18.1,9.11-13.4,0-21.95-8.14-21.95-24.44V290.43h18.19V329.6c0,7.26,2.25,13.26,10.12,13.26,8.3,0,11.74-4.43,11.74-17.44v-35H519Z"/><path class="cls-31" d="M547.8,336.4c1.37,5.24,5.65,8.18,12.44,8.18s9.17-2.41,9.17-6.39c0-4.22-2.83-5.88-12.24-8.19-21.42-5.28-24.92-11.91-24.92-21.19,0-9.65,6.82-19.9,26.65-19.9s26.69,10.88,27.26,19.79H568.85c-.58-2.43-2.2-7-10.76-7-6,0-8,2.66-8,5.62,0,3.27,2,4.85,12.71,7.34,21.93,5.1,25,12.62,25,22.26,0,10.88-8.28,20.79-28.33,20.79s-28.19-9.63-29.63-21.29Z"/><path class="cls-31" d="M615.88,328.56v-2.32c0-8.49,3.38-14.73,12.78-23.11,5.29-4.72,6.86-8.54,6.86-13,0-4.87-2.78-8.75-8.92-8.75-7.12,0-9.6,4.91-10.26,11.07H598.48c.6-10.65,7.37-25.21,28.47-25.09,20.82.11,26.93,13.56,26.93,23.42,0,8-2.6,13.48-11.78,22-5.42,5.1-7.24,9.23-7.24,14.49v1.33Zm0,27.6v-21h19v21Z"/><path class="cls-6" d="M108.33,107.66c0,.68-5,1.23-11.08,1.23s-11.08-.55-11.08-1.23,5-1.22,11.08-1.22S108.33,107,108.33,107.66Z"/><path class="cls-6" d="M120.09,77.53c.68,0,1.23,5,1.23,11.24S120.77,100,120.09,100s-1.23-5-1.23-11.24S119.41,77.53,120.09,77.53Z"/><path class="cls-6" d="M132.62,106.94c0-.68,5-1.23,11.08-1.23s11.08.55,11.08,1.23-5,1.22-11.08,1.22S132.62,107.62,132.62,106.94Z"/><path class="cls-6" d="M120.86,137.07c-.68,0-1.23-5-1.23-11.24s.55-11.24,1.23-11.24,1.22,5,1.22,11.24S121.53,137.07,120.86,137.07Z"/><path class="cls-6" d="M138.76,124.15c-.52.43-2.7-1.33-4.88-3.93s-3.51-5.07-3-5.5,2.7,1.32,4.87,3.93S139.28,123.71,138.76,124.15Z"/><path class="cls-6" d="M137.73,90c.48.48-1,2.71-3.22,5s-4.48,3.74-5,3.26,1-2.71,3.22-5S137.25,89.5,137.73,90Z"/><path class="cls-6" d="M112.33,98.68c-.43.52-2.52-.51-4.67-2.3s-3.55-3.66-3.11-4.18,2.52.51,4.67,2.3S112.77,98.16,112.33,98.68Z"/><path class="cls-6" d="M111.34,113.74c.5.46-.76,2.65-2.81,4.9s-4.12,3.7-4.62,3.25.76-2.65,2.81-4.9S110.84,113.29,111.34,113.74Z"/><path class="cls-6" d="M733.42,49.35c0,.38-2.82.69-6.29.69s-6.29-.31-6.29-.69,2.81-.7,6.29-.7S733.42,49,733.42,49.35Z"/><path class="cls-6" d="M740.1,32.24c.38,0,.69,2.86.69,6.38S740.48,45,740.1,45s-.7-2.85-.7-6.38S739.71,32.24,740.1,32.24Z"/><path class="cls-6" d="M747.21,48.94c0-.38,2.82-.7,6.29-.7s6.29.32,6.29.7-2.82.69-6.29.69S747.21,49.32,747.21,48.94Z"/><path class="cls-6" d="M740.53,66.05c-.38,0-.69-2.86-.69-6.38s.31-6.38.69-6.38.7,2.85.7,6.38S740.91,66.05,740.53,66.05Z"/><path class="cls-6" d="M750.7,58.71c-.3.25-1.54-.75-2.77-2.23s-2-2.88-1.71-3.13,1.54.76,2.77,2.24S751,58.46,750.7,58.71Z"/><path class="cls-6" d="M750.11,39.31c.27.27-.55,1.54-1.83,2.83s-2.54,2.12-2.81,1.85.54-1.54,1.82-2.83S749.84,39,750.11,39.31Z"/><path class="cls-6" d="M735.69,44.25c-.24.3-1.43-.29-2.65-1.3s-2-2.08-1.77-2.38,1.44.29,2.66,1.31S735.94,44,735.69,44.25Z"/><path class="cls-6" d="M735.13,52.8c.28.26-.43,1.51-1.6,2.78s-2.33,2.11-2.62,1.85.43-1.51,1.59-2.78S734.84,52.54,735.13,52.8Z"/><path class="cls-6" d="M447.71,192.44c0,.3-2.16.54-4.82.54s-4.82-.24-4.82-.54,2.16-.53,4.82-.53S447.71,192.15,447.71,192.44Z"/><path class="cls-6" d="M452.83,179.33c.29,0,.53,2.19.53,4.89s-.24,4.89-.53,4.89-.53-2.19-.53-4.89S452.54,179.33,452.83,179.33Z"/><path class="cls-6" d="M458.28,192.13c0-.29,2.16-.53,4.82-.53s4.83.24,4.83.53-2.16.53-4.83.53S458.28,192.43,458.28,192.13Z"/><path class="cls-6" d="M453.16,205.25c-.29,0-.53-2.19-.53-4.9s.24-4.89.53-4.89.54,2.19.54,4.89S453.46,205.25,453.16,205.25Z"/><path class="cls-6" d="M461,199.62c-.23.19-1.18-.58-2.13-1.71s-1.53-2.21-1.3-2.39,1.17.57,2.12,1.71S461.18,199.43,461,199.62Z"/><path class="cls-6" d="M460.51,184.75c.2.2-.42,1.18-1.41,2.17s-1.94,1.63-2.15,1.42.41-1.18,1.4-2.17S460.3,184.54,460.51,184.75Z"/><path class="cls-6" d="M449.45,188.54c-.18.22-1.1-.22-2-1s-1.54-1.6-1.35-1.82,1.09.22,2,1S449.64,188.31,449.45,188.54Z"/><path class="cls-6" d="M449,195.09c.22.2-.33,1.15-1.22,2.13s-1.79,1.62-2,1.42.33-1.16,1.22-2.13S448.8,194.89,449,195.09Z"/><path class="cls-6" d="M703.84,212.84c0,.38-2.82.7-6.29.7s-6.29-.32-6.29-.7,2.81-.7,6.29-.7S703.84,212.46,703.84,212.84Z"/><path class="cls-6" d="M710.52,195.73c.38,0,.69,2.86.69,6.38s-.31,6.38-.69,6.38-.7-2.85-.7-6.38S710.13,195.73,710.52,195.73Z"/><path class="cls-6" d="M717.63,212.43c0-.38,2.82-.7,6.29-.7s6.29.32,6.29.7-2.82.7-6.29.7S717.63,212.81,717.63,212.43Z"/><path class="cls-6" d="M711,229.54c-.38,0-.69-2.86-.69-6.38s.31-6.38.69-6.38.7,2.85.7,6.38S711.34,229.54,711,229.54Z"/><path class="cls-6" d="M721.12,222.2c-.3.25-1.54-.75-2.77-2.23s-2-2.88-1.7-3.13,1.53.76,2.77,2.24S721.41,222,721.12,222.2Z"/><path class="cls-6" d="M720.53,202.8c.27.27-.55,1.54-1.83,2.83s-2.54,2.12-2.81,1.85.54-1.54,1.82-2.83S720.26,202.53,720.53,202.8Z"/><path class="cls-6" d="M706.11,207.74c-.24.3-1.43-.29-2.65-1.3s-2-2.08-1.77-2.38,1.44.29,2.66,1.31S706.36,207.45,706.11,207.74Z"/><path class="cls-6" d="M705.55,216.29c.28.26-.43,1.51-1.6,2.78s-2.33,2.11-2.62,1.85.43-1.51,1.6-2.78S705.26,216,705.55,216.29Z"/><path class="cls-6" d="M372.3,50.45l.82,2A13.93,13.93,0,0,0,380.73,60l2.13.86-2.05.83a13.92,13.92,0,0,0-7.67,7.69l-.57,1.43L371.7,69a13.9,13.9,0,0,0-7.76-7l-1.86-.68,2.43-1.18a14,14,0,0,0,6.77-7.16Z"/><path class="cls-6" d="M52.79,197.68l.54,1.3a9.24,9.24,0,0,0,5.06,5l1.41.58-1.36.55a9.19,9.19,0,0,0-5.09,5.11l-.39,1-.57-1.2a9.3,9.3,0,0,0-5.16-4.68L46,204.85l1.62-.78a9.27,9.27,0,0,0,4.5-4.77Z"/><path class="cls-6" d="M857.89,70.77l.54,1.3a9.26,9.26,0,0,0,5.06,5l1.42.57-1.37.55a9.25,9.25,0,0,0-5.09,5.11l-.39,1-.57-1.19a9.27,9.27,0,0,0-5.16-4.68L851.09,78l1.62-.79a9.21,9.21,0,0,0,4.5-4.76Z"/><path class="cls-6" d="M524.17,38.55l.38.92A6.51,6.51,0,0,0,528.12,43l1,.41-1,.39a6.54,6.54,0,0,0-3.6,3.61l-.27.67-.4-.85a6.54,6.54,0,0,0-3.65-3.3l-.87-.32,1.14-.55a6.59,6.59,0,0,0,3.18-3.36Z"/><path class="cls-6" d="M270.56,189.35l.49,1.19a8.38,8.38,0,0,0,4.6,4.55l1.29.52-1.24.51a8.37,8.37,0,0,0-4.63,4.64l-.35.86-.52-1.08a8.39,8.39,0,0,0-4.69-4.26l-1.13-.41,1.47-.71a8.35,8.35,0,0,0,4.09-4.33Z"/><path class="cls-6" d="M152.53,476.53c0,.68-5,1.23-11.08,1.23s-11.08-.55-11.08-1.23,5-1.22,11.08-1.22S152.53,475.86,152.53,476.53Z"/><path class="cls-6" d="M164.29,446.4c.68,0,1.23,5,1.23,11.24s-.55,11.24-1.23,11.24-1.22-5-1.22-11.24S163.61,446.4,164.29,446.4Z"/><path class="cls-6" d="M176.82,475.81c0-.68,5-1.23,11.08-1.23s11.08.55,11.08,1.23S194,477,187.9,477,176.82,476.49,176.82,475.81Z"/><path class="cls-6" d="M165.06,506c-.68,0-1.23-5-1.23-11.24s.55-11.24,1.23-11.24,1.22,5,1.22,11.24S165.73,506,165.06,506Z"/><path class="cls-6" d="M183,493c-.52.43-2.7-1.33-4.88-3.93s-3.51-5.07-3-5.5,2.7,1.32,4.88,3.93S183.48,492.59,183,493Z"/><path class="cls-6" d="M181.93,458.85c.48.47-1,2.71-3.22,5s-4.48,3.74-5,3.27,1-2.71,3.22-5S181.45,458.37,181.93,458.85Z"/><path class="cls-6" d="M156.53,467.55c-.43.52-2.52-.51-4.67-2.3s-3.55-3.66-3.11-4.18,2.52.51,4.67,2.3S157,467,156.53,467.55Z"/><path class="cls-6" d="M155.54,482.61c.5.46-.76,2.65-2.81,4.9s-4.12,3.71-4.62,3.25.76-2.65,2.81-4.9S155,482.16,155.54,482.61Z"/><path class="cls-6" d="M777.62,418.22c0,.38-2.82.7-6.29.7s-6.29-.32-6.29-.7,2.82-.7,6.29-.7S777.62,417.84,777.62,418.22Z"/><path class="cls-6" d="M784.3,401.11c.38,0,.69,2.86.69,6.38s-.31,6.38-.69,6.38-.7-2.85-.7-6.38S783.91,401.11,784.3,401.11Z"/><path class="cls-6" d="M791.41,417.81c0-.38,2.82-.69,6.29-.69s6.29.31,6.29.69-2.82.7-6.29.7S791.41,418.19,791.41,417.81Z"/><path class="cls-6" d="M784.73,434.92c-.38,0-.69-2.86-.69-6.38s.31-6.38.69-6.38.7,2.85.7,6.38S785.12,434.92,784.73,434.92Z"/><path class="cls-6" d="M794.9,427.58c-.3.25-1.54-.75-2.77-2.23s-2-2.88-1.7-3.12,1.53.75,2.77,2.23S795.19,427.33,794.9,427.58Z"/><path class="cls-6" d="M794.31,408.18c.27.27-.55,1.54-1.83,2.83s-2.54,2.12-2.81,1.85.54-1.54,1.82-2.83S794,407.91,794.31,408.18Z"/><path class="cls-6" d="M779.89,413.12c-.24.3-1.43-.29-2.65-1.3s-2-2.08-1.77-2.38,1.44.29,2.66,1.31S780.14,412.83,779.89,413.12Z"/><path class="cls-6" d="M779.33,421.67c.28.26-.43,1.51-1.6,2.78s-2.33,2.11-2.62,1.85.43-1.51,1.6-2.78S779,421.41,779.33,421.67Z"/><path class="cls-6" d="M491.91,561.32c0,.29-2.16.53-4.82.53s-4.82-.24-4.82-.53,2.16-.54,4.82-.54S491.91,561,491.91,561.32Z"/><path class="cls-6" d="M497,548.2c.3,0,.53,2.19.53,4.89s-.23,4.9-.53,4.9-.53-2.19-.53-4.9S496.74,548.2,497,548.2Z"/><path class="cls-6" d="M502.48,561c0-.29,2.16-.53,4.83-.53s4.82.24,4.82.53-2.16.54-4.82.54S502.48,561.3,502.48,561Z"/><path class="cls-6" d="M497.36,574.12c-.29,0-.53-2.19-.53-4.89s.24-4.9.53-4.9.54,2.19.54,4.9S497.66,574.12,497.36,574.12Z"/><path class="cls-6" d="M505.16,568.49c-.23.19-1.18-.58-2.13-1.71s-1.53-2.2-1.3-2.39,1.18.57,2.12,1.71S505.38,568.3,505.16,568.49Z"/><path class="cls-6" d="M504.71,553.62c.21.21-.42,1.18-1.4,2.17s-1.95,1.63-2.16,1.42.41-1.18,1.4-2.17S504.5,553.41,504.71,553.62Z"/><path class="cls-6" d="M493.65,557.41c-.18.22-1.09-.22-2-1s-1.54-1.6-1.35-1.82,1.1.22,2,1S493.84,557.18,493.65,557.41Z"/><path class="cls-6" d="M493.22,564c.22.2-.33,1.16-1.22,2.13s-1.79,1.62-2,1.42.33-1.15,1.22-2.13S493,563.76,493.22,564Z"/><path class="cls-6" d="M748,581.71c0,.38-2.82.7-6.29.7s-6.29-.32-6.29-.7,2.82-.7,6.29-.7S748,581.33,748,581.71Z"/><path class="cls-6" d="M754.72,564.6c.38,0,.69,2.86.69,6.38s-.31,6.39-.69,6.39-.7-2.86-.7-6.39S754.33,564.6,754.72,564.6Z"/><path class="cls-6" d="M761.83,581.3c0-.38,2.82-.69,6.29-.69s6.29.31,6.29.69-2.82.7-6.29.7S761.83,581.69,761.83,581.3Z"/><path class="cls-6" d="M755.15,598.41c-.38,0-.69-2.86-.69-6.38s.31-6.38.69-6.38.7,2.85.7,6.38S755.54,598.41,755.15,598.41Z"/><path class="cls-6" d="M765.32,591.07c-.3.25-1.54-.75-2.77-2.23s-2-2.88-1.7-3.12,1.53.75,2.77,2.23S765.61,590.83,765.32,591.07Z"/><path class="cls-6" d="M764.73,571.67c.27.27-.55,1.54-1.83,2.83s-2.54,2.12-2.81,1.85.54-1.54,1.82-2.83S764.46,571.4,764.73,571.67Z"/><path class="cls-6" d="M750.31,576.61c-.24.3-1.43-.29-2.65-1.3s-2-2.08-1.77-2.38,1.44.29,2.66,1.31S750.56,576.32,750.31,576.61Z"/><path class="cls-6" d="M749.75,585.16c.28.26-.43,1.51-1.59,2.78s-2.34,2.11-2.63,1.85.43-1.51,1.6-2.78S749.46,584.9,749.75,585.16Z"/><path class="cls-6" d="M416.5,419.33l.82,2a13.93,13.93,0,0,0,7.61,7.54l2.13.86-2.05.84a13.85,13.85,0,0,0-7.66,7.68l-.58,1.43-.87-1.8a13.9,13.9,0,0,0-7.76-7l-1.86-.68,2.43-1.17a14,14,0,0,0,6.77-7.17Z"/><path class="cls-6" d="M97,566.55l.54,1.3a9.24,9.24,0,0,0,5.06,5l1.41.58-1.36.55a9.22,9.22,0,0,0-5.09,5.11l-.39.95-.57-1.2a9.27,9.27,0,0,0-5.16-4.68l-1.24-.45,1.62-.78a9.25,9.25,0,0,0,4.5-4.76Z"/><path class="cls-6" d="M902.09,439.64l.54,1.31a9.24,9.24,0,0,0,5.06,5l1.42.57-1.36.56a9.25,9.25,0,0,0-5.1,5.1l-.38.95-.58-1.19a9.27,9.27,0,0,0-5.16-4.68l-1.24-.45,1.62-.78a9.27,9.27,0,0,0,4.5-4.77Z"/><path class="cls-6" d="M568.37,407.42l.38.92a6.55,6.55,0,0,0,3.57,3.54l1,.4-1,.39a6.54,6.54,0,0,0-3.6,3.61l-.27.67-.4-.84a6.56,6.56,0,0,0-3.65-3.31l-.87-.32,1.14-.55a6.48,6.48,0,0,0,3.18-3.36Z"/><path class="cls-6" d="M314.76,558.22l.49,1.19a8.41,8.41,0,0,0,4.6,4.55l1.29.53-1.24.5a8.37,8.37,0,0,0-4.63,4.64l-.35.86-.52-1.08a8.42,8.42,0,0,0-4.69-4.26l-1.12-.41,1.46-.71a8.35,8.35,0,0,0,4.09-4.33Z"/></g></g></g></svg>