<svg xmlns="http://www.w3.org/2000/svg" xmlns:xlink="http://www.w3.org/1999/xlink" viewBox="0 0 1920 601.18"><defs><style>.cls-1{opacity:0.91;fill:url(#linear-gradient);}.cls-2{opacity:0.2;}.cls-3{fill:#3a4d8a;}.cls-4{fill:#fff;}.cls-5{fill:#ffd4f2;}.cls-6{fill:#681853;}.cls-7{fill:#1a2e35;}.cls-8{fill:#ffbf9d;}.cls-9{fill:#ff9a6c;}.cls-10{fill:#375a64;}.cls-11{fill:#ff4f5b;}.cls-12{fill:#872e68;}.cls-13{opacity:0.1;}.cls-14{fill:#fafafa;}.cls-15{fill:#2c4172;}.cls-16{fill:#c78976;}.cls-17{fill:#bf654e;}.cls-18{fill:#a13c79;}.cls-19{opacity:0.3;}.cls-20{fill:#1a2e4f;}.cls-21{fill:#b66851;}.cls-22{fill:#a24f35;}.cls-23{fill:#ffaf9e;}.cls-24{fill:#c1467f;}.cls-25{fill:#ff9582;}</style><linearGradient id="linear-gradient" y1="300.59" x2="1920" y2="300.59" gradientUnits="userSpaceOnUse"><stop offset="0" stop-color="#c1467f"/><stop offset="0.23" stop-color="#a64781"/><stop offset="0.73" stop-color="#624b87"/><stop offset="1" stop-color="#3a4d8a"/></linearGradient></defs><g id="Layer_2" data-name="Layer 2"><g id="Layer_1-2" data-name="Layer 1"><rect class="cls-1" width="1920" height="601.18"/><g class="cls-2"><path class="cls-3" d="M143.81,600.46c-.49,0-1-.05-1.48-.05h-.09c-3.24,0-6.44-.09-9.68-.18a23.08,23.08,0,0,0-3,.14,37.59,37.59,0,0,0-4.36-.41,27.62,27.62,0,0,0-4,.3c-.15,0-.3,0-.46,0-4.46,0-8.93-.09-13.4-.18a24.67,24.67,0,0,0-5.85.59L0,600.69c41.8-45.11,103.14-67,163.82-66.61,44.32.3,90.56,13.86,131.75-2.89,38.12-15.5,62.31-53.15,92-82.17C433,404.54,495.42,378.8,558.26,378.61c42.64-.14,89.6,9.9,124.76-14.83,23.74-16.69,35.87-45.43,52.54-69.5,48.85-70.54,142.92-100,221.63-68.77l.11,374.71-774.45.38a16.36,16.36,0,0,0-3.94-.1c-.41,0-.82.08-1.24.1h-2.78c-2.07-.07-4.14-.28-6.21-.28-3,0-6,0-9-.07-3.42-.2-6.84-.38-10.27-.38A26.59,26.59,0,0,0,143.81,600.46Z"/></g><path class="cls-4" d="M154.11,327.08H114.92l-7.47,18.09h-20l37.62-84.4h19.3l37.74,84.4h-20.5ZM148,312.25l-13.38-32.31-13.39,32.31Z"/><path class="cls-4" d="M260.22,312.74c0,20.37-14.1,33.4-32.31,33.4-8.68,0-15.68-2.78-20.38-8.44v7.47h-18V255.7h18.81v31.47c4.83-5.3,11.46-7.84,19.54-7.84C246.12,279.33,260.22,292.36,260.22,312.74Zm-19.05,0c0-11.22-7.11-18-16.52-18s-16.52,6.75-16.52,18,7.12,18,16.52,18S241.17,324,241.17,312.74Z"/><path class="cls-4" d="M267.94,312.74c0-19.54,15.07-33.41,35.69-33.41s35.57,13.87,35.57,33.41-14.95,33.4-35.57,33.4S267.94,332.27,267.94,312.74Zm52.21,0c0-11.22-7.11-18-16.52-18s-16.64,6.75-16.64,18,7.24,18,16.64,18S320.15,324,320.15,312.74Z"/><path class="cls-4" d="M417.1,280.3v64.87H399.25v-7.72c-4.94,5.67-12.17,8.69-20.13,8.69-16.28,0-27.74-9.17-27.74-29.18V280.3h18.81v33.88c0,10.85,4.83,15.68,13.15,15.68,8.68,0,15-5.55,15-17.49V280.3Z"/><path class="cls-4" d="M476.43,342c-3.86,2.77-9.53,4.1-15.32,4.1-15.31,0-24.24-7.84-24.24-23.28V296.22h-10V281.75h10V266h18.82v15.8h16.15v14.47H455.69v26.4c0,5.55,3,8.56,8.07,8.56a12.66,12.66,0,0,0,7.6-2.41Z"/><path class="cls-4" d="M586.51,280.3v64.87H568.67v-7.72c-4.95,5.67-12.18,8.69-20.14,8.69-16.28,0-27.73-9.17-27.73-29.18V280.3h18.81v33.88c0,10.85,4.82,15.68,13.14,15.68,8.68,0,15-5.55,15-17.49V280.3Z"/><path class="cls-4" d="M597.73,339.14l6.27-13.5c5.79,3.74,14.59,6.27,22.55,6.27,8.68,0,11.94-2.29,11.94-5.91,0-10.61-39.19.24-39.19-25.68,0-12.3,11.09-21,30-21,8.92,0,18.81,2.05,25,5.67L648,298.39a37.23,37.23,0,0,0-18.69-4.83c-8.44,0-12.05,2.66-12.05,6,0,11.1,39.18.36,39.18,25.93,0,12.06-11.21,20.62-30.62,20.62C614.85,346.14,603.76,343.12,597.73,339.14Z"/><g class="cls-2"><path class="cls-3" d="M1753.72,598.33c.5,0,1-.05,1.48-.05h.09c3.25,0,6.47-.09,9.72-.17a23.48,23.48,0,0,1,3,.13,40.09,40.09,0,0,1,4.37-.4,29.28,29.28,0,0,1,4,.29l.46,0c4.49,0,9-.09,13.46-.18a25.37,25.37,0,0,1,5.87.57l101.89,0c-42-44.17-103.53-65.64-164.45-65.22-44.48.3-90.9,13.57-132.25-2.83-38.26-15.18-62.54-52-92.32-80.46-45.63-43.55-108.29-68.76-171.37-69-42.8-.12-89.93,9.7-125.23-14.51-23.84-16.35-36-44.49-52.74-68.06-49-69.07-143.46-97.88-222.48-67.34l-.11,366.92,777.4.37a16.45,16.45,0,0,1,4-.1c.42,0,.83.08,1.25.1h2.79c2.08-.08,4.16-.27,6.24-.27,3,0,6,0,9-.08,3.44-.19,6.87-.36,10.31-.37A28.11,28.11,0,0,1,1753.72,598.33Z"/></g><path class="cls-5" d="M914.68,75.75c0,.68-5,1.23-11.07,1.23s-11.08-.55-11.08-1.23,5-1.22,11.08-1.22S914.68,75.07,914.68,75.75Z"/><path class="cls-5" d="M926.45,45.62c.67,0,1.22,5,1.22,11.24s-.55,11.24-1.22,11.24-1.23-5-1.23-11.24S925.77,45.62,926.45,45.62Z"/><path class="cls-5" d="M939,75c0-.68,5-1.23,11.07-1.23s11.08.55,11.08,1.23-5,1.23-11.08,1.23S939,75.71,939,75Z"/><path class="cls-5" d="M927.21,105.17c-.67,0-1.22-5-1.22-11.24s.55-11.25,1.22-11.25,1.23,5,1.23,11.25S927.89,105.17,927.21,105.17Z"/><path class="cls-5" d="M945.12,92.24c-.52.43-2.71-1.33-4.88-3.93s-3.52-5.07-3-5.5,2.71,1.32,4.88,3.93S945.64,91.81,945.12,92.24Z"/><path class="cls-5" d="M944.08,58.07c.48.47-1,2.7-3.22,5s-4.47,3.74-5,3.26,1-2.7,3.22-5S943.6,57.59,944.08,58.07Z"/><path class="cls-5" d="M918.69,66.77c-.43.52-2.53-.51-4.68-2.3s-3.54-3.66-3.11-4.18,2.53.51,4.68,2.3S919.12,66.25,918.69,66.77Z"/><path class="cls-5" d="M917.69,81.83c.5.46-.75,2.65-2.8,4.9s-4.12,3.71-4.62,3.25.75-2.65,2.81-4.9S917.19,81.38,917.69,81.83Z"/><path class="cls-5" d="M1539.77,17.44c0,.38-2.81.7-6.28.7s-6.29-.32-6.29-.7,2.81-.7,6.29-.7S1539.77,17.06,1539.77,17.44Z"/><path class="cls-5" d="M1546.45.33c.39,0,.7,2.86.7,6.38s-.31,6.38-.7,6.38-.69-2.85-.69-6.38S1546.07.33,1546.45.33Z"/><path class="cls-5" d="M1553.57,17c0-.38,2.81-.7,6.29-.7s6.29.32,6.29.7-2.82.7-6.29.7S1553.57,17.41,1553.57,17Z"/><path class="cls-5" d="M1546.89,34.14c-.39,0-.7-2.86-.7-6.38s.31-6.38.7-6.38.69,2.85.69,6.38S1547.27,34.14,1546.89,34.14Z"/><path class="cls-5" d="M1557.05,26.8c-.29.25-1.53-.75-2.77-2.23s-2-2.88-1.7-3.12,1.54.75,2.77,2.23S1557.35,26.55,1557.05,26.8Z"/><path class="cls-5" d="M1556.47,7.4c.27.27-.55,1.54-1.83,2.83s-2.54,2.12-2.82,1.85.55-1.54,1.83-2.83S1556.19,7.13,1556.47,7.4Z"/><path class="cls-5" d="M1542.05,12.34c-.25.3-1.44-.29-2.66-1.3s-2-2.08-1.76-2.38,1.43.29,2.65,1.31S1542.29,12.05,1542.05,12.34Z"/><path class="cls-5" d="M1541.48,20.89c.29.26-.43,1.51-1.59,2.78s-2.34,2.11-2.62,1.85.43-1.51,1.59-2.78S1541.2,20.63,1541.48,20.89Z"/><path class="cls-5" d="M1254.07,160.54c0,.29-2.16.53-4.82.53s-4.83-.24-4.83-.53,2.16-.54,4.83-.54S1254.07,160.24,1254.07,160.54Z"/><path class="cls-5" d="M1259.19,147.42c.29,0,.53,2.19.53,4.89s-.24,4.9-.53,4.9-.54-2.2-.54-4.9S1258.89,147.42,1259.19,147.42Z"/><path class="cls-5" d="M1264.64,160.22c0-.29,2.16-.53,4.82-.53s4.82.24,4.82.53-2.16.54-4.82.54S1264.64,160.52,1264.64,160.22Z"/><path class="cls-5" d="M1259.52,173.34c-.3,0-.53-2.19-.53-4.89s.23-4.9.53-4.9.53,2.19.53,4.9S1259.81,173.34,1259.52,173.34Z"/><path class="cls-5" d="M1267.31,167.71c-.22.19-1.17-.58-2.12-1.71s-1.53-2.2-1.31-2.39,1.18.57,2.13,1.71S1267.54,167.52,1267.31,167.71Z"/><path class="cls-5" d="M1266.86,152.84c.21.21-.42,1.18-1.4,2.17s-2,1.63-2.16,1.42.42-1.18,1.4-2.17S1266.65,152.63,1266.86,152.84Z"/><path class="cls-5" d="M1255.81,156.63c-.19.22-1.1-.22-2-1s-1.55-1.6-1.36-1.82,1.1.22,2,1S1256,156.4,1255.81,156.63Z"/><path class="cls-5" d="M1255.38,163.18c.21.2-.33,1.16-1.22,2.13s-1.8,1.62-2,1.42.32-1.15,1.22-2.13S1255.16,163,1255.38,163.18Z"/><path class="cls-5" d="M1510.19,180.93c0,.38-2.81.7-6.28.7s-6.29-.32-6.29-.7,2.81-.7,6.29-.7S1510.19,180.55,1510.19,180.93Z"/><path class="cls-5" d="M1516.87,163.82c.39,0,.7,2.86.7,6.38s-.31,6.39-.7,6.39-.69-2.86-.69-6.39S1516.49,163.82,1516.87,163.82Z"/><path class="cls-5" d="M1524,180.52c0-.38,2.81-.69,6.29-.69s6.29.31,6.29.69-2.82.7-6.29.7S1524,180.91,1524,180.52Z"/><path class="cls-5" d="M1517.31,197.63c-.39,0-.7-2.86-.7-6.38s.31-6.38.7-6.38.69,2.85.69,6.38S1517.69,197.63,1517.31,197.63Z"/><path class="cls-5" d="M1527.47,190.29c-.29.25-1.53-.75-2.77-2.23s-2-2.88-1.7-3.12,1.54.75,2.77,2.23S1527.77,190,1527.47,190.29Z"/><path class="cls-5" d="M1526.89,170.89c.27.27-.55,1.54-1.83,2.83s-2.54,2.12-2.82,1.85.55-1.54,1.83-2.83S1526.61,170.62,1526.89,170.89Z"/><path class="cls-5" d="M1512.47,175.83c-.25.3-1.44-.29-2.66-1.3s-2-2.08-1.76-2.38,1.43.29,2.65,1.31S1512.72,175.54,1512.47,175.83Z"/><path class="cls-5" d="M1511.9,184.38c.29.26-.43,1.51-1.59,2.78s-2.34,2.11-2.62,1.85.43-1.51,1.59-2.78S1511.62,184.12,1511.9,184.38Z"/><path class="cls-5" d="M1178.66,18.55l.81,2a13.93,13.93,0,0,0,7.61,7.54l2.14.86-2,.84a13.9,13.9,0,0,0-7.67,7.68l-.58,1.43-.86-1.8a13.92,13.92,0,0,0-7.77-7l-1.86-.68,2.43-1.17a14,14,0,0,0,6.78-7.17Z"/><path class="cls-5" d="M859.14,165.77l.55,1.3a9.22,9.22,0,0,0,5,5l1.42.58-1.36.55a9.27,9.27,0,0,0-5.1,5.11l-.38,1-.57-1.2a9.29,9.29,0,0,0-5.17-4.68l-1.23-.45,1.61-.78a9.21,9.21,0,0,0,4.5-4.76Z"/><path class="cls-5" d="M1664.24,38.86l.55,1.31a9.24,9.24,0,0,0,5.06,5l1.41.57-1.36.56a9.2,9.2,0,0,0-5.09,5.1l-.39,1-.57-1.19a9.29,9.29,0,0,0-5.17-4.68l-1.23-.45,1.61-.78a9.25,9.25,0,0,0,4.51-4.77Z"/><path class="cls-5" d="M905.31,510.48c0,.68-5,1.23-11.08,1.23s-11.07-.55-11.07-1.23,5-1.23,11.07-1.23S905.31,509.8,905.31,510.48Z"/><path class="cls-5" d="M917.08,480.34c.67,0,1.22,5,1.22,11.24s-.55,11.25-1.22,11.25-1.23-5-1.23-11.25S916.4,480.34,917.08,480.34Z"/><path class="cls-5" d="M929.61,509.76c0-.68,5-1.23,11.07-1.23s11.08.55,11.08,1.23-5,1.22-11.08,1.22S929.61,510.43,929.61,509.76Z"/><path class="cls-5" d="M917.84,539.89c-.68,0-1.22-5-1.22-11.24s.54-11.24,1.22-11.24,1.23,5,1.23,11.24S918.52,539.89,917.84,539.89Z"/><path class="cls-5" d="M935.75,527c-.52.43-2.71-1.33-4.88-3.93s-3.52-5.07-3-5.5,2.7,1.32,4.88,3.93S936.27,526.53,935.75,527Z"/><path class="cls-5" d="M934.71,492.79c.48.48-1,2.71-3.22,5s-4.48,3.74-5,3.26,1-2.71,3.22-5S934.23,492.32,934.71,492.79Z"/><path class="cls-5" d="M909.32,501.5c-.43.52-2.53-.51-4.68-2.3s-3.54-3.66-3.11-4.18,2.53.51,4.68,2.3S909.75,501,909.32,501.5Z"/><path class="cls-5" d="M908.32,516.56c.5.46-.75,2.65-2.8,4.9s-4.12,3.7-4.62,3.25.75-2.65,2.8-4.9S907.82,516.11,908.32,516.56Z"/><path class="cls-5" d="M1666.67,94l.82,2a13.89,13.89,0,0,0,7.61,7.54l2.13.87-2,.83a13.89,13.89,0,0,0-7.67,7.69l-.58,1.43-.86-1.8a13.92,13.92,0,0,0-7.77-7l-1.86-.68,2.43-1.18a13.85,13.85,0,0,0,6.77-7.17Z"/><path class="cls-5" d="M1330.52,6.64l.39.92a6.52,6.52,0,0,0,3.57,3.54l1,.4-1,.39a6.54,6.54,0,0,0-3.6,3.61l-.27.67-.41-.84A6.51,6.51,0,0,0,1326.6,12l-.87-.32,1.14-.55A6.5,6.5,0,0,0,1330,7.79Z"/><path class="cls-5" d="M1076.92,157.44l.49,1.19a8.39,8.39,0,0,0,4.59,4.55l1.29.53-1.23.5a8.42,8.42,0,0,0-4.64,4.64l-.34.86-.53-1.08a8.39,8.39,0,0,0-4.69-4.26l-1.12-.41,1.47-.71a8.35,8.35,0,0,0,4.09-4.33Z"/><path class="cls-5" d="M1812.92,111.53a77.3,77.3,0,0,0-53,133.62l-10.44,36.57,36.93-20.2a77.33,77.33,0,1,0,26.49-150Z"/><path class="cls-5" d="M1812.92,111.53s.46,0,1.38,0l4,.16c.89.06,1.89,0,3,.18l3.57.52c1.28.21,2.69.34,4.15.66l4.65,1.18a76.39,76.39,0,0,1,45,33.51l2.4,3.94,2.07,4.23a78.73,78.73,0,0,1,3.63,9,77.8,77.8,0,0,1,3.63,20.28,81.12,81.12,0,0,1-.18,10.89c-.14,1.84-.51,3.67-.77,5.53q-.21,1.38-.42,2.79c-.23.91-.46,1.83-.7,2.75a73.45,73.45,0,0,1-8.87,21.64A77.79,77.79,0,0,1,1841.85,261a78.94,78.94,0,0,1-53.06,1.8l-2.53-.86.39,0-36.92,20.19-1,.54.3-1.07c3.61-12.62,7.1-24.84,10.45-36.57l.13.45A78.12,78.12,0,0,1,1739,212.91a78,78,0,0,1-3.51-17.85c-.14-1.48-.2-2.95-.22-4.41a37.19,37.19,0,0,1,.09-4.36,60.75,60.75,0,0,1,.75-8.49,77.32,77.32,0,0,1,10.68-29.47,79,79,0,0,1,17.84-20.14l4.81-3.58,4.84-2.94a37.58,37.58,0,0,1,4.73-2.47c1.57-.71,3-1.54,4.53-2.08a79.46,79.46,0,0,1,15.73-4.46l5.85-.85,4.3-.18,2.64-.09c.59,0,.89,0,.89,0s-.3,0-.89.08l-2.63.17-4.29.26-5.82.91a81.35,81.35,0,0,0-15.61,4.57c-1.5.55-2.94,1.38-4.5,2.1a38.48,38.48,0,0,0-4.68,2.48l-4.79,3-4.76,3.58a78.59,78.59,0,0,0-17.62,20.05,76.62,76.62,0,0,0-10.49,29.23,61,61,0,0,0-.73,8.41,36.4,36.4,0,0,0-.07,4.31c0,1.45.08,2.9.22,4.36a78,78,0,0,0,3.51,17.66,77.37,77.37,0,0,0,20.48,32.17l.2.19-.08.27c-3.34,11.73-6.82,24-10.42,36.57l-.67-.54,36.92-20.2.18-.1.21.07,2.49.85a78.23,78.23,0,0,0,52.42-1.76,77,77,0,0,0,37.27-31.78,72.74,72.74,0,0,0,8.81-21.38c.24-.91.47-1.82.7-2.73l.42-2.76c.25-1.84.63-3.65.78-5.47a79.34,79.34,0,0,0,.19-10.77,76.34,76.34,0,0,0-3.54-20.09,75,75,0,0,0-3.57-9l-2-4.21-2.37-3.9a76.47,76.47,0,0,0-22.34-23.28,77.8,77.8,0,0,0-22.21-10.24l-4.62-1.21c-1.46-.33-2.86-.48-4.13-.7l-3.56-.57c-1.08-.16-2.08-.15-3-.22l-4-.25C1813.38,111.59,1812.92,111.53,1812.92,111.53Z"/><path class="cls-6" d="M1796,178.28h5.47l11.94-16.64V150.73s8.45-.52,7.46,13.77.08,10.66.08,10.66,18,.07,19.44,1.63c1.08,1.13,1.57,19,1.76,28.63.09,4.86-2.89,9.39-7.42,10.54a7.53,7.53,0,0,1-1.93.26c-4.48,0-27.35-3.64-27.35-3.64H1796Z"/><polygon class="cls-6" points="1780.38 175.28 1783.74 212.68 1793.11 212.68 1793.11 176.03 1780.38 175.28"/><path class="cls-7" d="M1028.52,190.63c-.31,5.85-7.91,13.63-5.56,19,4.34,9.87,1.85,21.66-3.77,30.85s-14,16.31-22.25,23.25a184.9,184.9,0,0,0-3.73-42.83c-.91-4.41-2.39-9.33-6.42-11.33-5.21-2.58-11.84,1.16-17.18-1.15-5.7-2.46-6.85-10.25-11.66-14.17-4.34-3.56-10.73-3.18-16.05-1.39s-10.23,4.77-15.71,6-12.08.13-15.11-4.59c-1.87-2.91-.52-1.13-2.31-4.1,0,0-10.68.37-14.35-12.06,0,0-5-13.8,6.08-19.91,0,0,2.53-24.94,27.63-13.72,7.21,3.22,15.75-7.17,22.78-3.59,5.86,3,7.6,11.11,13.46,14.09,6.72,3.42,14.55-1.66,22.08-2,9.66-.42,18.65,8.62,18.17,18.28,0,0,1.19-5,9.35-2.79S1029.12,179.25,1028.52,190.63Z"/><path class="cls-8" d="M1017.89,230.8a17.64,17.64,0,0,0-1.54-8.22c-1.05-2.13-5-7-9.33-7.26l.64-25.71a10.24,10.24,0,0,0-9.15-10.37l-50.42-5.33a30.69,30.69,0,0,0-33.85,28.61c-1.22,19.37-1.94,43.07.35,57.52,4.62,29.06,26.89,32.76,26.89,32.76l-.54,20.3c-.86,21.64,15.33,34.66,32,34.66,16.91,0,32.12-14.42,31.63-35.84l1.63-65.43a11.46,11.46,0,0,0,7.36-3.59C1016.58,239.7,1017.78,235.18,1017.89,230.8Z"/><path class="cls-7" d="M925.51,218.29a3.73,3.73,0,0,0,3.6,3.76,3.56,3.56,0,0,0,3.84-3.36,3.72,3.72,0,0,0-3.59-3.76A3.57,3.57,0,0,0,925.51,218.29Z"/><path class="cls-7" d="M919.38,214.85c.46.48,3.29-1.61,7.3-1.59s7,2,7.38,1.52c.22-.22-.25-1.09-1.53-2a10.27,10.27,0,0,0-5.92-1.82,9.71,9.71,0,0,0-5.8,1.88C919.57,213.75,919.16,214.63,919.38,214.85Z"/><path class="cls-7" d="M964.23,219a3.72,3.72,0,0,0,3.59,3.76,3.56,3.56,0,0,0,3.84-3.36,3.72,3.72,0,0,0-3.59-3.76A3.56,3.56,0,0,0,964.23,219Z"/><path class="cls-7" d="M958.81,215.6c.46.48,3.29-1.61,7.29-1.6s6.95,2,7.39,1.53c.21-.22-.25-1.1-1.54-2a10.21,10.21,0,0,0-5.91-1.82,9.81,9.81,0,0,0-5.81,1.87C959,214.5,958.58,215.38,958.81,215.6Z"/><path class="cls-7" d="M944.25,245.34c0-.23-2.47-.66-6.51-1.17-1-.11-2-.31-2.17-1s.19-1.85.68-3c1-2.48,2-5.07,3-7.8,4.21-11.1,7.25-20.23,6.8-20.4s-4.22,8.7-8.42,19.81c-1,2.74-2,5.35-2.9,7.84-.39,1.17-1.06,2.49-.54,4a2.58,2.58,0,0,0,1.69,1.5,6.88,6.88,0,0,0,1.74.24C941.71,245.55,944.24,245.57,944.25,245.34Z"/><path class="cls-9" d="M941.48,292.8a74,74,0,0,0,38.92-10.38s-10.07,21.87-39.16,19.15Z"/><path class="cls-7" d="M957,208.57c.4,1.1,4.4.58,9.11,1.15s8.51,1.85,9.13.87c.28-.47-.38-1.5-1.91-2.55a15.14,15.14,0,0,0-6.78-2.37,15.32,15.32,0,0,0-7.12.83C957.7,207.2,956.83,208.06,957,208.57Z"/><path class="cls-7" d="M918.73,205.52c.71.91,3.47,0,6.79-.08s6.14.61,6.79-.34c.28-.47-.16-1.38-1.39-2.24a9.85,9.85,0,0,0-10.94.34C918.81,204.13,918.42,205.07,918.73,205.52Z"/><path class="cls-9" d="M945.13,268c-.08-.08.27-.57,1.09-1.08a7.08,7.08,0,0,1,3.57-1,7,7,0,0,1,3.59.94c.81.5,1.17,1,1.1,1.07s-2-1.11-4.68-1.06S945.29,268.26,945.13,268Z"/><path class="cls-9" d="M1004.36,238.54a26.89,26.89,0,0,0,2.75-1.35,7.46,7.46,0,0,0,3.37-6,7.67,7.67,0,0,0-3-6.19,6.43,6.43,0,0,0-2.78-1.08c-.08-.11,1.35-.59,3.15.52a7.88,7.88,0,0,1,3.59,6.77,7.44,7.44,0,0,1-1.35,4.15,7.69,7.69,0,0,1-2.62,2.38C1005.67,238.75,1004.35,238.63,1004.36,238.54Z"/><path class="cls-7" d="M908.77,167c-4.7,12.55,6.46,21.66,15.15,23.69,12.15,2.83,25.08-4.84,33.38-1.57,6.2,2.43,12.06,7.23,18.65,6.26,3.2-.47,6.36-2.31,9.49-1.47,4,1.09,5.6,5.94,5.5,10.06-.11,5.1-1.83,10.15-1.18,15.2s5.15,10.28,10.07,8.95,7.86-6,8.26-10.95c.58-7-.69-15.33-.35-22.34.3-6.19.32-13-3.62-17.78s-10.67-6.08-16.83-6.93A470.68,470.68,0,0,0,908.77,166"/><path class="cls-10" d="M893.47,169.66a3.73,3.73,0,0,1-.26-1.31,7.56,7.56,0,0,1,.76-3.76,8.47,8.47,0,0,1,4.39-4.17,7.71,7.71,0,0,1,3.83-.43c1.35.14,2.72.49,4.15.57a8.08,8.08,0,0,0,4.29-.95,20,20,0,0,0,4-2.89c1.31-1.13,2.63-2.37,4.17-3.47a13.4,13.4,0,0,1,5.35-2.34c4-.79,8.29.19,12.17,2.06s7.32,4.82,10.77,7.7,6.87,5.71,10.75,7.25a12.4,12.4,0,0,0,5.91.9,16.64,16.64,0,0,0,5.53-1.8c3.43-1.73,6.66-3.81,10.13-4.66a20.12,20.12,0,0,1,9.74-.31,15,15,0,0,1,7.08,3.81,14.29,14.29,0,0,1,3.36,5.06,10.81,10.81,0,0,1,.74,3.76,5.42,5.42,0,0,1,0,1,1.26,1.26,0,0,1,0,.34,14.53,14.53,0,0,0-1-5A14.26,14.26,0,0,0,989,162.71a19.4,19.4,0,0,0-9.39.41c-3.33.85-6.43,2.88-9.94,4.69a17.72,17.72,0,0,1-5.82,1.91,13.25,13.25,0,0,1-6.35-.94c-4.09-1.61-7.54-4.53-11-7.38s-6.83-5.73-10.58-7.59-7.85-2.76-11.59-2.05-6.55,3.31-9.17,5.56a21,21,0,0,1-4.18,2.94,8.82,8.82,0,0,1-4.66,1c-1.52-.11-2.89-.49-4.18-.64a7.25,7.25,0,0,0-3.57.32,8.15,8.15,0,0,0-4.25,3.84,7.78,7.78,0,0,0-.9,3.59C893.39,169.2,893.52,169.65,893.47,169.66Z"/><path class="cls-10" d="M907.53,189.88a2.21,2.21,0,0,1-1.27.09,4.38,4.38,0,0,1-3-2.12,8.5,8.5,0,0,1-.68-5.71,16.38,16.38,0,0,1,3-7,16,16,0,0,1,7.4-5.57,16.46,16.46,0,0,1,10.61-.26c3.65,1.15,6.95,3.43,10.21,5.79s6.67,4.85,10.71,6a20.25,20.25,0,0,0,12-.66,56.83,56.83,0,0,0,10.41-5,95.57,95.57,0,0,1,9.37-4.92,26.48,26.48,0,0,1,9-2.32c5.75-.28,10.24,1.94,12.46,4.19a11.34,11.34,0,0,1,2.15,2.95,6.93,6.93,0,0,1,.43,1.19,13.75,13.75,0,0,0-2.83-3.87c-2.22-2.1-6.62-4.15-12.17-3.79a25.93,25.93,0,0,0-8.69,2.37,95.13,95.13,0,0,0-9.24,5,57.4,57.4,0,0,1-10.56,5.09,21,21,0,0,1-12.57.69c-4.27-1.22-7.73-3.82-11-6.16s-6.46-4.59-9.93-5.71a15.68,15.68,0,0,0-10.08.17,15.39,15.39,0,0,0-7.14,5.23,16,16,0,0,0-3,6.74,8.19,8.19,0,0,0,.48,5.44,4.3,4.3,0,0,0,2.67,2.11A5.94,5.94,0,0,0,907.53,189.88Z"/><path class="cls-10" d="M1018.94,238.37c-.08-.06.66-.86,1.61-2.55a17.48,17.48,0,0,0,2.18-7.79,16.5,16.5,0,0,0-.69-5.52,21.09,21.09,0,0,0-2.92-5.72c-1.27-1.9-2.78-3.81-4.11-6a13.78,13.78,0,0,1-2.38-7.57c0-2.85,1.38-5.3,2.43-7.54a16.09,16.09,0,0,0,2-6.71,11.45,11.45,0,0,0-5.37-10,12.07,12.07,0,0,0-7.8-1.53,27.57,27.57,0,0,0-2.92.73,2.42,2.42,0,0,1,.69-.4,10.5,10.5,0,0,1,2.17-.69A11.75,11.75,0,0,1,1018,189a16.84,16.84,0,0,1-2.07,7.08c-1.06,2.27-2.29,4.61-2.32,7.17a13,13,0,0,0,2.23,7.07c1.27,2.13,2.76,4.05,4,6a21.15,21.15,0,0,1,2.94,6,16.66,16.66,0,0,1,.61,5.78,17,17,0,0,1-2.53,7.94,11.9,11.9,0,0,1-1.36,1.81C1019.16,238.2,1019,238.39,1018.94,238.37Z"/><path class="cls-7" d="M942.66,217.14a45.09,45.09,0,0,0-.77-4.53,18.59,18.59,0,0,0-6.83-10.08A18.33,18.33,0,0,0,917.72,200a16.8,16.8,0,0,0-4.61,2.49,17.54,17.54,0,0,0-3.86,3.88,18.2,18.2,0,0,0,0,21.57,18.48,18.48,0,0,0,8.47,6.38,18.5,18.5,0,0,0,9.61.83,18.3,18.3,0,0,0,7.74-3.39,18.62,18.62,0,0,0,6.82-10.08,45.24,45.24,0,0,0,.77-4.52,14.62,14.62,0,0,1-.41,4.61,18.89,18.89,0,0,1-14.78,14.15,19.06,19.06,0,0,1-10-.78,19.09,19.09,0,0,1-8.92-6.65,19,19,0,0,1,0-22.67,17.78,17.78,0,0,1,4.06-4.06,18.1,18.1,0,0,1,4.86-2.59,19.16,19.16,0,0,1,10-.78,18.89,18.89,0,0,1,14.78,14.15A14.68,14.68,0,0,1,942.66,217.14Z"/><path class="cls-7" d="M985.38,217.14a39.72,39.72,0,0,0-.76-4.53,18.59,18.59,0,0,0-6.83-10.08A18.33,18.33,0,0,0,960.45,200a17,17,0,0,0-4.62,2.49,17.5,17.5,0,0,0-3.85,3.88,18.2,18.2,0,0,0,0,21.57,17.09,17.09,0,0,0,3.85,3.88,17.32,17.32,0,0,0,4.62,2.5,18.49,18.49,0,0,0,9.61.83,18.26,18.26,0,0,0,7.73-3.39,18.59,18.59,0,0,0,6.83-10.08,39.81,39.81,0,0,0,.76-4.52,14.37,14.37,0,0,1-.4,4.61A18.89,18.89,0,0,1,970.2,235.9a19.09,19.09,0,0,1-10.05-.78,19.22,19.22,0,0,1-8.92-6.65,19,19,0,0,1,0-22.67,19.22,19.22,0,0,1,8.92-6.65,19.2,19.2,0,0,1,10.05-.78A18.89,18.89,0,0,1,985,212.52,14.44,14.44,0,0,1,985.38,217.14Z"/><path class="cls-7" d="M949,214s0,0,0,0l0,0,0,0h0v.2h0l-.09,0,0,0h0v-.32h0l.06,0v.38a12.19,12.19,0,0,1-3,.28c-1.84,0-3.34-.21-3.34-.47s1.5-.47,3.34-.47a12.19,12.19,0,0,1,3,.28v.38l-.06,0h0v-.32h0l0,0,.09,0h0v.2h0l0,0,0,0S949,214,949,214Z"/><path class="cls-7" d="M1007.85,218.13c0,.26-5.15.1-11.46-.35s-11.41-1-11.39-1.29,5.15-.1,11.46.35S1007.87,217.87,1007.85,218.13Z"/><path class="cls-7" d="M961,244.33c.1,0,.42,1.11.13,2.94a10.15,10.15,0,0,1-3.54,6.16,10.25,10.25,0,0,1-6.75,2.27c-1.85-.08-2.89-.62-2.86-.72s1.12.14,2.85.05a10.31,10.31,0,0,0,9.65-7.9C960.89,245.45,960.81,244.34,961,244.33Z"/><path class="cls-7" d="M888.86,375a2.65,2.65,0,0,1,0,.58c0,.44,0,1,.05,1.71,0,1.57,0,3.77.09,6.58,0,5.77.07,14,.13,24.17.06,20.42-.63,48.63-2.21,79.74s-3.22,59.21-4.33,79.65c-.51,10.14-.93,18.38-1.21,24.14-.15,2.8-.26,5-.34,6.56-.05.71-.08,1.27-.11,1.71a3.39,3.39,0,0,1-.07.58,2.17,2.17,0,0,1,0-.58c0-.44,0-1,0-1.71,0-1.57.09-3.77.16-6.57.16-5.71.45-14,.91-24.16.86-20.4,2.5-48.56,4-79.67s2.38-59.28,2.49-79.69c.07-10.16.13-18.4.17-24.17,0-2.81.07-5,.09-6.58,0-.71,0-1.27,0-1.71A3.8,3.8,0,0,1,888.86,375Z"/><path class="cls-11" d="M1064.6,343.61c-9.79-11.3-28.91-12.95-37.39-6.82s-13.19,16.55-14,27,1.81,20.87,5.79,30.55c6.38,15.5,15.83,28,29.93,44L1085.23,486l-70.13,68.47,29.06,45.86,59.61-48,49.3-52.26"/><path class="cls-7" d="M811,490.68a11.63,11.63,0,0,1,3.77-1.82,27.1,27.1,0,0,1,19.87,1.08,11.44,11.44,0,0,1,3.56,2.22c-.08.13-1.46-.68-3.82-1.61a31.76,31.76,0,0,0-9.62-2.1A31.36,31.36,0,0,0,815,489.5C812.56,490.17,811.11,490.83,811,490.68Z"/><path class="cls-12" d="M1074.07,354.33l0,.07c-24.49-32.45-50.83-29.78-64.25-30.16V310c-9.92,0-23.47,8.93-30.48,15.33l-6.92,9.5h0a35.35,35.35,0,0,0-22.63-22.2,70.49,70.49,0,0,0-11.6-2.63v12.74c-32.88.92-50.48,9.91-72.45,35.35-1.13,1.32-3.37,3.55-5.93,6.08h0l-65,76.35c-13.28,14.7-25.38,34.93-22.61,54.55h0c3.12,22.11,16,36.67,40.69,53.35l68.41,44.34-.33,7.62h163.25s110.7-81.66,113.41-111.91C1159.72,464.56,1121.59,413.9,1074.07,354.33ZM884,527.73,836.16,492l51.71-53.5Zm156.74,2.84-1.29-26.45,6.85-69.43c13.65,15.65,38.9,46.69,38.9,51.35Z"/><path class="cls-7" d="M1009.79,324.24a13.44,13.44,0,0,1-1.24,2.16c-.86,1.35-2.12,3.3-3.77,5.65a131,131,0,0,1-14.32,17.24c-1.55,1.57-3.12,3-4.65,4.44l-.76.7,0-1a22.94,22.94,0,0,0-2.21-9.5,23.35,23.35,0,0,0-4.48-6.42c-1.56-1.59-3-2.71-4.18-3a2.83,2.83,0,0,0-1.77.3,1.84,1.84,0,0,1,1.83-.62c1.33.16,2.9,1.28,4.53,2.84a22.77,22.77,0,0,1,4.8,6.5,23.37,23.37,0,0,1,2.41,9.84l-.78-.33c1.51-1.41,3.07-2.87,4.6-4.43a153.5,153.5,0,0,0,14.45-17l4-5.46A11.42,11.42,0,0,1,1009.79,324.24Z"/><path class="cls-7" d="M938.16,322.73a10.84,10.84,0,0,1,1.43,1.69l3.62,4.79c3,4.08,7.15,9.75,11.66,16,1,1.41,2,2.79,2.94,4.11l-.82.12a40.84,40.84,0,0,1,3.67-8.41,14.55,14.55,0,0,1,5.27-5.18,9.85,9.85,0,0,1,4.71-1.32,4.12,4.12,0,0,1,1.75.25c0,.08-.63,0-1.73.08a10.41,10.41,0,0,0-4.43,1.52,14.38,14.38,0,0,0-4.87,5.08,41.92,41.92,0,0,0-3.49,8.29l-.29.85-.53-.73-2.95-4.11c-4.51-6.29-8.55-12-11.43-16.2l-3.38-5A9.07,9.07,0,0,1,938.16,322.73Z"/><g class="cls-13"><path d="M972.39,334.82c5.47,5.58,8.13,14.6,7.12,22.34-.35,2.65-.66,6.19,1.83,7.17,1.73.69,3.59-.5,5-1.66a99,99,0,0,0,25.65-31.3,6,6,0,0,0,1-3.18,2.18,2.18,0,0,0-2.13-2.12,3.18,3.18,0,0,0-1.9,1.32c-7.56,8.72-15.93,17.8-23.5,26.53a19.31,19.31,0,0,0-4.2-13.45c-3-3.69-6.29-7.41-8.86-5.65"/></g><path class="cls-7" d="M1042.19,597.33a4.15,4.15,0,0,1-.57-.76l-1.52-2.29-5.58-8.67c-4.76-7.53-11.39-18-19.12-30.23l-.19-.3.25-.26,17.06-17,37.14-36.75L1081,490l3.11-3a7.82,7.82,0,0,1,1.13-1,9.14,9.14,0,0,1-1,1.12l-3,3.1-11.12,11.27-36.94,37-17.1,17,.07-.56L1035,585.32c2.26,3.7,4.07,6.67,5.36,8.8l1.4,2.37A4.91,4.91,0,0,1,1042.19,597.33Z"/><path class="cls-7" d="M1022.12,342.69a1.78,1.78,0,0,1-.26.35l-.85,1c-.78.83-1.82,2.14-3.13,3.85a38.74,38.74,0,0,0-7,16.61c-1.24,7.56,0,17,4.05,26.26a62.62,62.62,0,0,0,8,13.69c3.52,4.3,7.15,8.77,10.81,13.4,14.67,18.49,27.3,35.72,36.56,48.1l10.94,14.67,3,4,.75,1.06a1.44,1.44,0,0,1,.23.38,1.65,1.65,0,0,1-.31-.32l-.82-1-3.1-3.9c-2.67-3.4-6.51-8.34-11.19-14.49-9.4-12.27-22.11-29.44-36.76-47.91-3.66-4.63-7.28-9.09-10.8-13.4a63,63,0,0,1-8.08-13.94c-4.1-9.44-5.26-19-3.91-26.71a38,38,0,0,1,7.33-16.72,42.18,42.18,0,0,1,3.28-3.76l.92-.92C1022,342.77,1022.11,342.67,1022.12,342.69Z"/><path class="cls-14" d="M1083.49,366.18c0,.09-1,.43-2.72,1.33a27.66,27.66,0,0,0-6.46,5,54.67,54.67,0,0,0-7.28,9.73c-2.42,3.9-4.84,8.39-8.12,12.66a31,31,0,0,1-23.58,12.6,29.1,29.1,0,0,1-8.27-.77,18.31,18.31,0,0,1-2.16-.65,2.79,2.79,0,0,1-.73-.31c0-.26,4.18,1.52,11.12,1.06a31.38,31.38,0,0,0,11.63-3.11,30.83,30.83,0,0,0,11.24-9.4c3.22-4.18,5.65-8.64,8.13-12.55a52.37,52.37,0,0,1,7.55-9.73,25.3,25.3,0,0,1,6.77-4.83,17.13,17.13,0,0,1,2.11-.82A2.44,2.44,0,0,1,1083.49,366.18Z"/><path class="cls-14" d="M1040.1,526.15a2,2,0,0,1-.43-.07l-1.23-.28a17.87,17.87,0,0,0-2-.36,22.19,22.19,0,0,0-2.78-.31,51.26,51.26,0,0,0-17.56,2.25,90.36,90.36,0,0,0-11.54,4.22c-4,1.79-8.22,4-12.75,6.17a82.32,82.32,0,0,1-14.71,5.56,43,43,0,0,1-8.26,1.32,35.24,35.24,0,0,1-8.6-.63,49.8,49.8,0,0,1-15.62-6.44,157,157,0,0,1-12.92-8.93c-8-6-15.56-10.94-22.78-13.07A36.47,36.47,0,0,0,899,514a28.48,28.48,0,0,0-7.56.88,30.22,30.22,0,0,0-6,2.43,1.49,1.49,0,0,1,.35-.25l1.08-.67a21.48,21.48,0,0,1,4.51-1.86,27.61,27.61,0,0,1,7.66-1.06,36.28,36.28,0,0,1,10.13,1.51c7.38,2.08,15.11,7.07,23.11,13,4,2.94,8.22,6.07,12.87,8.84a49.54,49.54,0,0,0,15.34,6.3,34.28,34.28,0,0,0,8.37.61,43.2,43.2,0,0,0,8.08-1.26A83.22,83.22,0,0,0,991.43,537c4.52-2.1,8.71-4.32,12.81-6.09a87.92,87.92,0,0,1,11.67-4.15c7.32-2,13.55-2.44,17.77-2A23.25,23.25,0,0,1,1040.1,526.15Z"/><path class="cls-14" d="M860.27,510a2,2,0,0,1,.15.63c.06.41.16,1,.21,1.82a28,28,0,0,1-.29,6.76,22.64,22.64,0,0,1-3.78,9.3c-2.18,3.19-5.61,5.79-9.33,8s-7.41,4.1-10.41,6.28a28.62,28.62,0,0,0-7,6.79,11.48,11.48,0,0,0-2.1,6.12c0,1.56.24,2.42.14,2.44s-.1-.2-.22-.6a8.11,8.11,0,0,1-.28-1.83,11.14,11.14,0,0,1,1.9-6.49,27.81,27.81,0,0,1,7.07-7.13c3.05-2.27,6.75-4.18,10.44-6.39s7-4.67,9.11-7.69a22.76,22.76,0,0,0,3.83-8.92,31.83,31.83,0,0,0,.58-6.62A16.34,16.34,0,0,1,860.27,510Z"/><path class="cls-14" d="M1134.81,434.69c.06.25-4.48.27-10.8,3.37a32.58,32.58,0,0,0-9.69,7.36,29.62,29.62,0,0,0-4.11,5.9c-1.2,2.19-2,4.69-3.2,7.15a17.63,17.63,0,0,1-4.79,6.4,20.91,20.91,0,0,1-6.51,3.61,32,32,0,0,1-12.37,1.54,72.38,72.38,0,0,1-8.33-1,17,17,0,0,1-3-.64,22.54,22.54,0,0,1,3.06.27c2,.22,4.79.59,8.29.69a32.31,32.31,0,0,0,12.06-1.69,17.88,17.88,0,0,0,10.74-9.59c1.14-2.4,2-4.92,3.23-7.18a29.88,29.88,0,0,1,4.28-6.06,32.18,32.18,0,0,1,10-7.37,30.39,30.39,0,0,1,8-2.51,17.58,17.58,0,0,1,2.27-.26A2.76,2.76,0,0,1,1134.81,434.69Z"/><path class="cls-14" d="M1044.39,450.05a1.87,1.87,0,0,1-.41.12l-1.25.27c-1.09.24-2.71.53-4.81.86a108.23,108.23,0,0,1-18,1.27,83.31,83.31,0,0,1-26.29-4.45,90.68,90.68,0,0,1-14.3-6.71c-4.77-2.63-9.68-5.46-15.09-7.37a34.12,34.12,0,0,0-8.23-1.86,33.08,33.08,0,0,0-8.16.4,52.54,52.54,0,0,0-14.62,5.27c-8.83,4.68-16.26,9.88-23,13.5s-12.53,5.83-16.74,6.53a25.13,25.13,0,0,1-4.86.54l-1.28,0a1.78,1.78,0,0,1-.43,0,1.21,1.21,0,0,1,.43-.08l1.27-.14a28.79,28.79,0,0,0,4.8-.71c4.14-.81,9.92-3,16.48-6.76s14-8.92,22.89-13.69a52.74,52.74,0,0,1,14.86-5.4,33.13,33.13,0,0,1,8.41-.43,34.78,34.78,0,0,1,8.45,1.91c5.53,2,10.47,4.81,15.23,7.45A91.68,91.68,0,0,0,994,447.3a84.25,84.25,0,0,0,26,4.6,117.88,117.88,0,0,0,17.89-1c2.1-.27,3.73-.5,4.83-.68l1.26-.18A1.28,1.28,0,0,1,1044.39,450.05Z"/><path class="cls-14" d="M866.55,460.56a6,6,0,0,0-.09-2.8c-.52-1.72-2.55-3.81-5.72-4.68-1.58-.47-3.38-.74-5.32-1.18a13.16,13.16,0,0,1-5.83-2.68,15.5,15.5,0,0,1-4-5.83,44.55,44.55,0,0,1-2.09-7.22,41,41,0,0,0-2.07-7.07,27.11,27.11,0,0,0-3.41-5.89,26,26,0,0,0-8.78-7.4,27,27,0,0,0-7.38-2.59,28.73,28.73,0,0,1-2.85-.54,2.76,2.76,0,0,1,.76,0,17,17,0,0,1,2.15.2,24.7,24.7,0,0,1,7.62,2.35,25.85,25.85,0,0,1,9.17,7.47,27.33,27.33,0,0,1,3.57,6.06,41.33,41.33,0,0,1,2.15,7.22,43.2,43.2,0,0,0,2,7.08,14.73,14.73,0,0,0,3.75,5.52,12.35,12.35,0,0,0,5.44,2.57c1.89.47,3.71.78,5.34,1.31,3.31,1,5.42,3.31,5.87,5.21a4.28,4.28,0,0,1,0,2.2C866.7,460.34,866.58,460.57,866.55,460.56Z"/><path class="cls-14" d="M1010.24,367.25a23.54,23.54,0,0,0-5.35-2.17,16.61,16.61,0,0,0-6.69-.09,35.46,35.46,0,0,0-8.49,2.85c-3,1.38-6.25,3.15-9.74,5a55.22,55.22,0,0,1-11.7,4.85,34.12,34.12,0,0,1-14,.46A55,55,0,0,1,940,373.43c-9.29-4.53-17-10.61-24.49-15.34s-14.65-8.32-21.19-9.69a34.37,34.37,0,0,0-15.63-.19A55.91,55.91,0,0,0,873.2,350a21.39,21.39,0,0,1,5.42-2.16,33.73,33.73,0,0,1,15.86-.12c6.66,1.32,14,4.82,21.52,9.62s15.27,10.75,24.43,15.21a54,54,0,0,0,14,4.66,33.39,33.39,0,0,0,13.62-.39,54.73,54.73,0,0,0,11.55-4.7c3.49-1.8,6.74-3.56,9.83-4.91a35.3,35.3,0,0,1,8.67-2.77,16.77,16.77,0,0,1,6.87.27,16.59,16.59,0,0,1,4,1.66A8.65,8.65,0,0,1,1010.24,367.25Z"/><path class="cls-8" d="M1000,598.23l5.06,2.52,29.19-.06,5.88-4.79-21.27-35c-2.59,1.13-14,2.92-17.71,4.22a29.69,29.69,0,0,1-9.92,1.66,54.47,54.47,0,0,1-11.23-.92c-.25-.09-.57-.16-.79-.26a3.87,3.87,0,0,0-1.57-.32c-3.15-.28-5.65,3-3.89,5.62s10.39,6.07,21.38,5.76l.51,0c9.65,0,.8,8.08-4.92,12.88a7.59,7.59,0,0,0-2.76,6.89,3.23,3.23,0,0,0,1.28,2.37C991.65,600.37,1000,598.23,1000,598.23Z"/><path class="cls-7" d="M881.19,593.87a1.52,1.52,0,0,1,0-.51c0-.4,0-.89,0-1.51q.06-2.1.2-5.8c.22-5.1.52-12.36.9-21.3.75-18,1.79-42.87,2.93-70.29s1.89-52.31,2.33-70.31c.19-8.95.34-16.21.45-21.32,0-2.46.09-4.4.12-5.79,0-.62,0-1.12.06-1.51a2.85,2.85,0,0,1,0-.51,2,2,0,0,1,0,.51c0,.39,0,.89,0,1.51,0,1.39,0,3.33,0,5.8,0,5,0,12.32-.15,21.32-.27,18-1,42.88-2.06,70.34s-2.25,52.3-3.2,70.28c-.51,8.94-.91,16.19-1.2,21.29-.16,2.46-.29,4.4-.38,5.79,0,.61-.1,1.11-.13,1.5A2.53,2.53,0,0,1,881.19,593.87Z"/><path class="cls-7" d="M960.38,597.33a3,3,0,0,1-.09-.67c0-.5-.09-1.16-.16-2-.13-1.8-.3-4.37-.53-7.65s-.5-7.39-.65-12.11-.48-10.11-.52-16.06-.25-12.47-.16-19.47c0-3.5,0-7.12.07-10.85s.17-7.57.26-11.5c.46-15.74,1.27-33,2.54-51.15,2.55-36.25,5.79-69,7.87-92.68,1-11.82,1.85-21.4,2.43-28.08.28-3.28.5-5.84.66-7.64.08-.83.15-1.49.19-2a4.62,4.62,0,0,1,.1-.68,3,3,0,0,1,0,.68c0,.5-.06,1.16-.1,2-.12,1.81-.28,4.38-.49,7.65-.42,6.65-1.16,16.25-2.13,28.11-1.9,23.73-5,56.47-7.59,92.7-1.26,18.11-2.1,35.38-2.61,51.1-.1,3.93-.2,7.77-.29,11.49s-.08,7.34-.13,10.84c-.12,7,0,13.51.05,19.46s.28,11.32.38,16,.32,8.79.49,12.11.27,5.85.35,7.66c0,.83,0,1.49.07,2A4.38,4.38,0,0,1,960.38,597.33Z"/><path class="cls-7" d="M973.76,418.11c-.08-.1.94-.53,2.06.45a2.66,2.66,0,0,1,.89,2.3,2.72,2.72,0,0,1-5,.83,2.7,2.7,0,0,1,.09-2.47c.74-1.29,1.86-1.21,1.8-1.09s-.78.32-1.19,1.38a2.09,2.09,0,0,0,.07,1.76,1.9,1.9,0,0,0,3.33-.55,2.08,2.08,0,0,0-.51-1.69C974.61,418.16,973.76,418.25,973.76,418.11Z"/><path class="cls-7" d="M968.66,499.76c-.09-.09.94-.52,2.06.46a2.64,2.64,0,0,1,.89,2.29,2.72,2.72,0,0,1-5,.83,2.71,2.71,0,0,1,.1-2.46c.74-1.29,1.85-1.21,1.8-1.1s-.78.33-1.19,1.39a2.09,2.09,0,0,0,.06,1.76,1.9,1.9,0,0,0,3.34-.56,2.09,2.09,0,0,0-.51-1.69C969.51,499.81,968.66,499.91,968.66,499.76Z"/><path class="cls-14" d="M1099.16,555.9a11.82,11.82,0,0,1-2.45-.31,33.29,33.29,0,0,1-6.41-2.05,35.71,35.71,0,0,1-16.37-14.64c-2.24-3.79-3.37-7.82-4.54-11.34a33.89,33.89,0,0,0-4-8.9,16.26,16.26,0,0,0-4.61-4.63c-1.33-.82-2.16-1.1-2.13-1.18s.22,0,.62.13a10.51,10.51,0,0,1,1.69.73,15.35,15.35,0,0,1,5,4.56,32.86,32.86,0,0,1,4.31,9c1.22,3.54,2.36,7.48,4.53,11.15a36.63,36.63,0,0,0,15.83,14.5C1095.67,555.31,1099.21,555.7,1099.16,555.9Z"/><path class="cls-15" d="M1285.55,600.69l-30.89-89.75L1269,424.8c4.17-23.22,6.49-43.7.26-55.36-16.68-31.16-36.82-33.95-64.33-41.1-5.68-1.47-48.84-2.93-53.59-1.76-37.46,4.19-61.45,24.05-74.54,56.32l-14.27,57.47-19.59,60.11c-3.72,7.34-9.84,12.42-17.27,14L950,540.31l.63,14.8L950,575.06l100.59-18.88c20.17-3.78,40.67-11.22,46.44-30.68l10.84-32c5.29,13.56,11,26,11,26l-7.35,80.83Z"/><path class="cls-15" d="M1259.64,441.22l-28.74,96.1a46.38,46.38,0,0,1-31,31.08l-119.63,31.88L1064.47,559l108.13-40.2,26.54-96.25s6.13-53.8,54.79-51"/><path class="cls-7" d="M1253.93,371.49s-.49,0-1.45,0-2.39-.12-4.25,0a47.35,47.35,0,0,0-16,3.27,43,43,0,0,0-10.32,5.78,49,49,0,0,0-9.84,10.09,73,73,0,0,0-12.62,31.88v.05c-7.35,26.76-16.36,59.56-26.44,96.28l-.06.21-.21.08-108.12,40.23.28-.61c.89,2.32,1.85,4.83,2.82,7.34,4.46,11.64,8.86,23.11,13,34l-.56-.29L1183,572.49l11.59-3.08c1.9-.52,3.81-1,5.66-1.53a49.21,49.21,0,0,0,5.35-2,45.76,45.76,0,0,0,22.6-22.41,64.22,64.22,0,0,0,3.38-9.51q2.85-9.51,5.48-18.22l16.49-54.64c2-6.39,3.46-11.34,4.5-14.73.51-1.66.91-2.93,1.18-3.81s.43-1.29.43-1.29-.1.45-.34,1.31l-1.11,3.84c-1,3.4-2.45,8.37-4.33,14.78-3.82,12.88-9.34,31.52-16.22,54.72q-2.58,8.7-5.42,18.24a66,66,0,0,1-3.39,9.61,46.43,46.43,0,0,1-22.92,22.84,51.58,51.58,0,0,1-5.45,2.09c-1.87.56-3.76,1-5.66,1.55l-11.59,3.1-102.77,27.44-.41.11-.15-.4-13-34c-1-2.51-1.93-5-2.82-7.34l-.17-.45.45-.16,108.15-40.16-.27.29c10.17-36.7,19.24-69.48,26.65-96.23v.05a73.24,73.24,0,0,1,12.85-32.11,49.55,49.55,0,0,1,10-10.13,43.39,43.39,0,0,1,10.45-5.76,46.57,46.57,0,0,1,16.11-3.12,42.15,42.15,0,0,1,4.27.05C1253.45,371.45,1253.93,371.49,1253.93,371.49Z"/><path class="cls-7" d="M1178.56,497.18a4.3,4.3,0,0,1-1.43.1,17.3,17.3,0,0,1-3.88-.44,25.51,25.51,0,0,1-11.36-6,27.78,27.78,0,0,1-7.38-10.51,14.82,14.82,0,0,1-.7-2.11,9.58,9.58,0,0,1-.38-1.64,4,4,0,0,1-.12-1.43c.17,0,.5,2,1.82,4.92a30.08,30.08,0,0,0,7.4,10.06,27.21,27.21,0,0,0,10.88,6.05C1176.52,497,1178.57,497,1178.56,497.18Z"/><path class="cls-7" d="M1107.53,424.07a18.72,18.72,0,0,1-1,2.83c-.69,1.8-1.75,4.39-3,7.62-2.36,6.43-5.69,15.54-6,26a43.83,43.83,0,0,0,2,14.51,53.69,53.69,0,0,0,4.93,11,76.82,76.82,0,0,0,4.54,6.76,23.19,23.19,0,0,1,1.78,2.42s-.22-.16-.58-.53-.86-.92-1.48-1.66a57.19,57.19,0,0,1-4.83-6.65,50.83,50.83,0,0,1-5.19-11,43.33,43.33,0,0,1-2.09-14.79c.36-10.7,3.83-19.85,6.35-26.24,1.3-3.21,2.45-5.76,3.25-7.52A18.69,18.69,0,0,1,1107.53,424.07Z"/><path class="cls-7" d="M1183.13,531.59c-.28.1-1.24-3.82-4.41-7.44s-6.85-5.19-6.72-5.45a5.4,5.4,0,0,1,2.48.86,17.41,17.41,0,0,1,5,4,17.19,17.19,0,0,1,3.19,5.48A5.46,5.46,0,0,1,1183.13,531.59Z"/><path class="cls-7" d="M1121.85,192.2q-4.71,22.7-9,45.48c-3.6,19.25-6.92,39.37-1.48,58.19,3,10.32,8.48,19.71,13.91,29,3.06,5.21,6.41,10.7,11.83,13.38,7.37,3.64,16.7.77,22.56-5s8.85-13.81,10.87-21.77c4-15.54,4.81-31.68,5.43-47.71s1-32.65-3.54-48.19-14.68-30.25-29.69-36.31"/><path class="cls-7" d="M1124.31,180a26.48,26.48,0,0,1,15-5.54c4.36-8.85,14.72-12.89,24.4-14.78,14.26-2.77,12.71-3.16,26,2.69s32.14,22.42,34.54,36.75c2.22,13.32,6.16,24,11.94,36.17,3.58,7.55,10.74,12.8,14.94,20a29.9,29.9,0,0,1,1.73,26.2c-3.43,8.19-10.68,15.43-10,24.29.4,5.13.21,8.82,2.24,13.55,6.9,16.09,3.68,37.53-11.16,46.81s-36.24,6-47.68-7.21c-9.93-11.51-11.86-27.92-10.87-43.09s4.43-30.24,3.44-45.41"/><path class="cls-7" d="M1141.3,600.27l-.21-5.23L1064,586.9l-33.81-97.17-144.75-3.27,43.79,113.81Q1036.54,601.11,1141.3,600.27Z"/><path class="cls-4" d="M965.71,544.93a7.57,7.57,0,1,0,2.79-10.34A7.56,7.56,0,0,0,965.71,544.93Z"/><path class="cls-16" d="M1176.43,365.93c17.36,0,33-14.79,32.47-36.77L1212,203.65h0a10.48,10.48,0,0,0-9.38-10.63l-51.74-5.48a31.5,31.5,0,0,0-34.73,29.36c-1.25,19.88-2,44.19.36,59,4.73,29.82,27.59,33.62,27.59,33.62l-.56,20.83c-.88,22.2,15.73,35.56,32.87,35.56Z"/><path class="cls-7" d="M1127.73,233.08a3.82,3.82,0,0,0,3.69,3.86,3.66,3.66,0,0,0,3.94-3.45,3.82,3.82,0,0,0-3.68-3.86A3.66,3.66,0,0,0,1127.73,233.08Z"/><path class="cls-7" d="M1121.44,229.55c.48.5,3.38-1.65,7.49-1.64s7.13,2.07,7.58,1.57c.22-.22-.27-1.12-1.58-2.08a10.51,10.51,0,0,0-6.07-1.87,10.1,10.1,0,0,0-6,1.92C1121.64,228.42,1121.21,229.33,1121.44,229.55Z"/><path class="cls-7" d="M1167.46,233.85a3.83,3.83,0,0,0,3.68,3.86,3.66,3.66,0,0,0,3.95-3.45,3.82,3.82,0,0,0-3.69-3.86A3.66,3.66,0,0,0,1167.46,233.85Z"/><path class="cls-7" d="M1161.9,230.32c.47.5,3.37-1.65,7.48-1.64s7.13,2.07,7.58,1.57c.22-.23-.26-1.12-1.58-2.08a10.43,10.43,0,0,0-6.06-1.87,10.08,10.08,0,0,0-6,1.92C1162.09,229.19,1161.66,230.09,1161.9,230.32Z"/><path class="cls-7" d="M1147,260.84c0-.24-2.54-.68-6.68-1.21-1-.11-2-.32-2.23-1s.2-1.9.71-3.12c1-2.54,2-5.21,3.1-8,4.32-11.39,7.44-20.76,7-20.93s-4.33,8.93-8.64,20.32c-1,2.81-2,5.49-3,8-.4,1.19-1.08,2.55-.55,4.12a2.65,2.65,0,0,0,1.73,1.54,6.91,6.91,0,0,0,1.79.25C1144.36,261.05,1147,261.07,1147,260.84Z"/><path class="cls-17" d="M1144.12,309.54a75.85,75.85,0,0,0,39.93-10.66s-9.69,20.49-39.53,17.7Z"/><path class="cls-17" d="M1148.7,270.75a7.42,7.42,0,0,1,6.65-2.75,6.73,6.73,0,0,1,4.67,2.51,4.27,4.27,0,0,1,.33,4.9c-1.11,1.57-3.43,1.93-5.4,1.37a15.67,15.67,0,0,1-5.26-3.14,4.67,4.67,0,0,1-1.17-1.22,1.35,1.35,0,0,1,0-1.53"/><path class="cls-7" d="M1159.07,263.68c-.67,0-.68,4.43-4.5,7.6S1146,274,1146,274.59c-.07.28,1.06.86,3.07.92a11.12,11.12,0,0,0,7.19-2.51,9.67,9.67,0,0,0,3.48-6.37C1159.88,264.76,1159.38,263.66,1159.07,263.68Z"/><path class="cls-7" d="M1160,223.11c.41,1.12,4.52.59,9.35,1.17s8.73,1.9,9.37.9c.29-.48-.39-1.53-2-2.62a16.36,16.36,0,0,0-14.26-1.57C1160.76,221.7,1159.87,222.58,1160,223.11Z"/><path class="cls-7" d="M1123,217.64c.72.93,3.56,0,7-.08s6.29.63,7-.35c.29-.48-.17-1.41-1.43-2.3a10.09,10.09,0,0,0-11.22.35C1123,216.22,1122.64,217.18,1123,217.64Z"/><path class="cls-7" d="M1116.78,211.94C1128,205.43,1139,199.4,1146,188.49c3.89,10.93,11.45,16.34,21.49,22.17s21.27,9.2,32.39,12.53c-5.63,5.46-6.37,14.29-5.07,22s4.26,15.18,4.74,23c.64,10.44-3.18,20.69-3.42,31.15-.33,14.34,6,27.9,12.22,40.83l26.93-15.69-3.87-70,.32-49.5-42-39-53.2,5.82Z"/><path class="cls-18" d="M1110.79,359c13.67,13.82,12.22,38.44,27.24,50.78,9.21,7.56,22.65,8.28,33.94,4.46s20.81-11.56,29.51-19.7,17-16.9,26.87-23.51c9.64-6.42,26.11-10.38,28.44-21.72,1.7-8.31-7-18.29-8.66-26.61-2.61-13.2,11.68-23.41,14.06-36.65,4.77-26.46-9.2-57.53-23.75-80.14s-22.73-47.9-59.61-50c-33-1.47-55.53,14.37-66.5,37.28-5.5,11.49-6.8,24.48-7.87,37.18-2.49,29.66-3.87,61.08,9.83,87.5,2.84,5.47,6.23,12.41,2.4,17.24-3.5,4.43-11.41,4.24-13.62,9.44C1100.78,349.92,1106.68,354.85,1110.79,359Zm41.11-175.77c4.42-.19,17.52,0,32.15,19.48,8.76,11.66,8.75,30.56,8.55,47-.15,12.24,0,43.22,0,43.22s1.94,39.12-11.36,42.59c-16.31,4.26-30.61,1.33-42.82-10.3s-19.21-27.94-22-44.57-4.36-33.58-2.18-50.3c1.29-9.89,4.49-20.67,10-29C1135.31,184.75,1151.9,183.25,1151.9,183.25Z"/><g class="cls-19"><path d="M1253.93,336.53c-10.93,5.94-18.45,14.76-27.35,23.46s-18.8,17.12-30.84,20.24-26.69-.59-32.71-11.48c34.15,5.8,73.79-21.47,85.45-54.08a18.87,18.87,0,0,0-.18,8.65C1249.4,327.33,1253.93,336.53,1253.93,336.53Z"/></g><g class="cls-19"><path d="M1118.17,327.54a33.55,33.55,0,0,0,16.49,20.85,21.5,21.5,0,0,1,5.21,3.06c1.48,1.38,2.41,3.61,1.59,5.46-.92,2.08-3.68,2.79-5.86,2.15s-3.91-2.28-5.54-3.86c-6-5.75-12.09-11.56-13.76-19.65a9.62,9.62,0,0,0,2-4.05A18.2,18.2,0,0,0,1118.17,327.54Z"/></g><path class="cls-7" d="M1245.77,321.13a5.41,5.41,0,0,1-.51,1.06c-.38.68-.88,1.7-1.66,2.94a101.61,101.61,0,0,1-7,10.23,111.32,111.32,0,0,1-12.46,13.58,76.54,76.54,0,0,1-18.56,12.87,85.08,85.08,0,0,1-11,3.94,83.48,83.48,0,0,1-10.65,2.38,75,75,0,0,1-18.42.68,62.41,62.41,0,0,1-12.21-2.33c-1.42-.38-2.48-.82-3.21-1.07a5.39,5.39,0,0,1-1.09-.45c0-.08,1.57.43,4.4,1.16a69.39,69.39,0,0,0,12.16,2,77,77,0,0,0,18.24-.88,93.89,93.89,0,0,0,21.42-6.32,77.7,77.7,0,0,0,18.37-12.65A117.79,117.79,0,0,0,1236,335a119.94,119.94,0,0,0,7.26-10c.83-1.21,1.38-2.2,1.81-2.84A5.47,5.47,0,0,1,1245.77,321.13Z"/><path class="cls-7" d="M1162,354.87a8.76,8.76,0,0,1-2.16.56,32.73,32.73,0,0,1-6.09.55,37.23,37.23,0,0,1-33.1-19.85,32.77,32.77,0,0,1-2.38-5.63,8.94,8.94,0,0,1-.53-2.18c.19-.06,1,3.06,3.5,7.49a38.29,38.29,0,0,0,32.52,19.5C1158.88,355.45,1162,354.68,1162,354.87Z"/><path class="cls-7" d="M1154.94,400a4.64,4.64,0,0,1,1.06-.27c.7-.17,1.74-.32,3.06-.64a95.22,95.22,0,0,0,11-3.08c9.18-3,21.3-9,33.23-17.76s21.66-18,28.66-24.77l8.25-8,2.26-2.16a4.64,4.64,0,0,1,.84-.71,5.29,5.29,0,0,1-.7.84l-2.14,2.29c-1.88,2-4.61,4.79-8,8.23A248,248,0,0,1,1203.9,379c-12,8.8-24.28,14.74-33.58,17.64a83.5,83.5,0,0,1-11.19,2.81c-1.33.26-2.39.35-3.1.45A5,5,0,0,1,1154.94,400Z"/><path class="cls-20" d="M1795.63,438.13l-64.2-75.69-.14.15c-2.54-2.5-4.75-4.71-5.87-6-22.24-25.75-39.91-34.49-73.93-35h0L1585.34,323c-12.3,1-40.21-4.25-66,30l0-.07c-47,58.94-84.73,109.05-82.61,132.7,2.57,28.62,107.06,107.9,116.18,114.77,1.26,0,2.51,0,3.76-.07a23.28,23.28,0,0,1,2.9.12,35.1,35.1,0,0,1,4-.36,26.52,26.52,0,0,1,3.7.27l.43,0c4.17,0,8.33-.08,12.49-.16a23.79,23.79,0,0,1,6.1.69l124.2-.11-.33-11.94,67.68-43.87c24.42-16.5,37.17-30.91,40.26-52.78C1820.74,472.69,1808.77,452.67,1795.63,438.13Zm-243.4,89.1-44-44.06c0-4.6,24.75-33.62,38.25-49.1l7,67Zm155.06-2.81-3.79-88.27,51.15,52.93Z"/><path class="cls-20" d="M1655.77,555.46l-39.07-79.07a4.43,4.43,0,0,0-5.93-2l-119.19,58.9a4.43,4.43,0,0,0-2,5.93l30.27,61.26c1.05-.06,2.11-.11,3.15-.11,2.81,0,5.61,0,8.41-.07,3.16-.18,6.33-.34,9.51-.35a25.85,25.85,0,0,1,5.18.54c.47,0,1,0,1.43,0h.08c3,0,6-.08,9-.17a22.72,22.72,0,0,1,2.87.12,35.84,35.84,0,0,1,4-.36,26.66,26.66,0,0,1,3.71.27l.42,0c2.55,0,5.1,0,7.64-.07l78.52-38.81A4.41,4.41,0,0,0,1655.77,555.46Z"/><path class="cls-20" d="M1572.12,540.15a7.18,7.18,0,1,1-2.37,9.88A7.18,7.18,0,0,1,1572.12,540.15Z"/><path class="cls-20" d="M1702.52,373.27a3.29,3.29,0,0,1,0,.58c0,.43,0,1,0,1.69,0,1.55.05,3.73.09,6.5,0,5.72.1,13.87.17,23.92.1,20.19.89,48.07,2.46,78.84s3.16,58.64,4,78.82c.45,10.09.74,18.25.9,23.9.07,2.77.12,5,.16,6.5,0,.7,0,1.26,0,1.69a3.7,3.7,0,0,1,0,.58,2.45,2.45,0,0,1-.07-.58l-.12-1.68c-.07-1.55-.19-3.73-.33-6.5-.28-5.7-.69-13.84-1.2-23.88-1.1-20.22-2.61-48-4.29-78.8s-2.25-58.69-2.18-78.89c0-10,.1-18.2.13-23.92,0-2.77.07-5,.09-6.5,0-.7,0-1.26,0-1.69A2,2,0,0,1,1702.52,373.27Z"/><path class="cls-20" d="M1539.16,333.69c8.37-6.08,18.1-4.24,26.48,1.83s13,16.37,13.89,26.68-1.79,20.65-5.73,30.22c-6.31,15.34-15.65,27.75-29.6,43.55l-36,47.2,69.39,67.75-28.75,45.37-58.12-46.76c-19.83-16.76-36.72-33.9-49.12-51.62"/><path class="cls-20" d="M1441.64,497.91s.15.17.43.54l1.22,1.64c1.07,1.44,2.66,3.58,4.84,6.29a251.68,251.68,0,0,0,20.07,22.19c4.56,4.52,9.74,9.38,15.53,14.47s12.29,10.27,19.21,15.83L1549.15,596l-.64.11,28.73-45.39.06.58-35.79-34.94-33.59-32.8-.3-.29.25-.33,36-47.18v0h0a236,236,0,0,0,19-23.85,107.72,107.72,0,0,0,12.49-24.54,62.08,62.08,0,0,0,3.92-23.88,39.84,39.84,0,0,0-6.13-19.54,31.47,31.47,0,0,0-12.34-11.06,22.91,22.91,0,0,0-12-2.66,18.82,18.82,0,0,0-7.37,2.19c-1.55.83-2.27,1.4-2.3,1.35s.17-.14.54-.4a15.21,15.21,0,0,1,1.69-1.08,18.65,18.65,0,0,1,7.42-2.33,23,23,0,0,1,12.19,2.58,31.8,31.8,0,0,1,12.59,11.12,40.4,40.4,0,0,1,6.32,19.8,62.78,62.78,0,0,1-3.86,24.14,108.16,108.16,0,0,1-12.52,24.75,233,233,0,0,1-19,24l0,0-35.93,47.22,0-.61,33.6,32.79,35.78,35,.27.27-.2.31-28.78,45.36-.26.41-.37-.31-46.12-37.2c-6.9-5.57-13.44-10.73-19.17-15.91s-10.94-10-15.49-14.57a240.76,240.76,0,0,1-19.92-22.39c-2.14-2.74-3.7-4.91-4.74-6.38l-1.16-1.68C1441.75,498.11,1441.64,497.91,1441.64,497.91Z"/><path class="cls-20" d="M1779.51,487.77a27.68,27.68,0,0,1-3.64-1.12,25.22,25.22,0,0,0-17.72.92,27.75,27.75,0,0,1-3.5,1.51,10.83,10.83,0,0,1,3.22-2.12,22.42,22.42,0,0,1,18.21-.95A10.88,10.88,0,0,1,1779.51,487.77Z"/><path class="cls-20" d="M1614,561.59a3.81,3.81,0,0,0-1.55.32c-.22.09-.53.17-.78.26a54.71,54.71,0,0,1-11.11.91,29.5,29.5,0,0,1-9.81-1.65c-3.64-1.29-14.18-2.78-16.74-3.9l-21.83,34.33,7.9,6.44a18.41,18.41,0,0,0,2.66,1.78c.25,0,.5-.05.75-.05a26.78,26.78,0,0,1,3.71.27l.42,0c4.11,0,8.21-.08,12.31-.16l12-5.94s8.22,2.12,10.64.6a3.19,3.19,0,0,0,1.27-2.34,7.54,7.54,0,0,0-2.73-6.82c-5.66-4.74-14.42-12.75-4.87-12.74l.5,0c10.88.31,19.36-3.05,21.15-5.7S1617.1,561.32,1614,561.59Z"/><path class="cls-21" d="M1621.08,353.15c-16.74,0-31.79-14.26-31.64-35.5l-3-121,.34.05a10.11,10.11,0,0,1,9-10.26l49.89-5.27a30.35,30.35,0,0,1,33.48,28.3c1.21,19.17,1.93,42.61-.34,56.91-4.57,28.75-26.6,32.41-26.6,32.41l.54,20.09c.84,21.4-15.17,34.28-31.7,34.28Z"/><path class="cls-7" d="M1668,225.06a3.69,3.69,0,0,1-3.55,3.73,3.53,3.53,0,0,1-3.8-3.33,3.68,3.68,0,0,1,3.55-3.72A3.52,3.52,0,0,1,1668,225.06Z"/><path class="cls-7" d="M1674.1,221.66c-.46.48-3.25-1.59-7.22-1.58s-6.88,2-7.31,1.51c-.21-.21.26-1.08,1.53-2a10.07,10.07,0,0,1,5.84-1.81,9.75,9.75,0,0,1,5.75,1.86C1673.91,220.57,1674.32,221.44,1674.1,221.66Z"/><path class="cls-7" d="M1629.73,225.81a3.69,3.69,0,0,1-3.55,3.72,3.53,3.53,0,0,1-3.8-3.33,3.68,3.68,0,0,1,3.55-3.72A3.53,3.53,0,0,1,1629.73,225.81Z"/><path class="cls-7" d="M1635.1,222.4c-.46.48-3.26-1.59-7.22-1.58s-6.88,2-7.31,1.51c-.21-.21.25-1.08,1.52-2a10.13,10.13,0,0,1,5.85-1.81,9.8,9.8,0,0,1,5.75,1.86C1634.9,221.32,1635.32,222.19,1635.1,222.4Z"/><path class="cls-7" d="M1649.5,251.83c0-.23,2.44-.66,6.44-1.17,1-.1,2-.3,2.14-1s-.18-1.83-.67-3c-1-2.45-2-5-3-7.71-4.16-11-7.17-20-6.73-20.18s4.18,8.6,8.34,19.59l2.87,7.76c.38,1.15,1,2.46.52,4a2.56,2.56,0,0,1-1.66,1.48,6.8,6.8,0,0,1-1.72.24C1652,252,1649.51,252.05,1649.5,251.83Z"/><path class="cls-22" d="M1652.24,298.78a73.12,73.12,0,0,1-38.51-10.27s10,21.63,38.74,18.94Z"/><path class="cls-7" d="M1636.88,215.45c-.39,1.08-4.35.57-9,1.13s-8.42,1.83-9,.86c-.27-.46.38-1.47,1.9-2.52a15.84,15.84,0,0,1,13.75-1.52C1636.19,214.09,1637.05,214.94,1636.88,215.45Z"/><path class="cls-7" d="M1672.64,210.18c-.7.9-3.43,0-6.72-.08s-6.07.6-6.71-.34c-.28-.46.16-1.36,1.37-2.21a9.72,9.72,0,0,1,10.82.33C1672.57,208.81,1673,209.74,1672.64,210.18Z"/><path class="cls-7" d="M1586.78,224.13c4.88-.87,8.79.63,10.17,5.4,2.07,7.18.66,10.74,1,15.68l7.26-2.17c-1.81-16.58,2.31-28.85.51-45.42,10.11,3.27,24-3,28.32-13.46a28.18,28.18,0,0,0,30,2.11c2.68,5.07,8.79,6.78,12.36,5.78,5.51-1.55,11.23-9.31,12.82-14.82,2.84-9.91,1.45-24.14-6.59-30.6s-24.16-4.92-30.42,3.28c-2.48,3.24-2.77,9.23-6.75,10.05-3.54.72-6.76-1.9-10-3.5-10.1-5-24,1.64-26.54,12.63-8.45-5-18.66-8.33-28.11-5.61s-17,13.17-13.76,22.46c1.34,3.89,4.33,7.24,4.66,11.33.63,7.92-8.85,15.08-5.83,22.43,1.7,4.1,6.66,5.93,8.91,9.76,2.51,4.3,1,9.7,1.16,14.67.34,8.3,4.58,20.58,12.54,22.94"/><path class="cls-21" d="M1587.5,224c-3,.28-4.37,2.23-5.49,4.39a15.17,15.17,0,0,0-1.49,7.07c0,3.79,1,7.72,3.47,10.54s6.83,4.23,10.26,2.62"/><path class="cls-22" d="M1592.47,242.41c0,.09-1.08.49-2.77-.11a5.86,5.86,0,0,1-2.49-1.82,6.63,6.63,0,0,1-1.33-3.55,6.83,6.83,0,0,1,.75-3.7,6.33,6.33,0,0,1,2-2.29c1.47-1,2.64-.93,2.63-.83a21.2,21.2,0,0,0-2.23,1.36,6.37,6.37,0,0,0-2.24,5.39,5.7,5.7,0,0,0,3.14,4.82A15,15,0,0,0,1592.47,242.41Z"/><path class="cls-14" d="M1636.86,265.88c3.55,2.5,10.52,1.18,13.1-2.51a69.51,69.51,0,0,1-15.19-11.2S1629.6,260.77,1636.86,265.88Z"/><path class="cls-17" d="M1648.63,274.28c-.16.22-2-1.12-4.62-1.09s-4.47,1.27-4.63,1.05.28-.57,1.09-1.07a7,7,0,0,1,3.54-.93,6.89,6.89,0,0,1,3.54,1C1648.36,273.71,1648.71,274.19,1648.63,274.28Z"/><path class="cls-23" d="M1604.34,390.78c8.05-11.22,16.86-27.6,20.9-35.31,7.52-14.33,6.25-15.06,4.45-15.7-4.85-1.71-14.17,24.69-15.42,17.78s15.11-30.88,10-32.46c-6.69-2.06-16,25.78-16.91,28.07s-4.26.91-3.29-1.11c1.4-2.91,15.33-33.82,8.77-35.9-3.63-1.16-4.94,5.64-4.94,5.64s-10.93,29.94-14,28.85,2.72-18.91,5.1-24.77.6-9.33-2.81-8.31c-2.32.7-10,18.45-12.26,24.29s-8.05,22-11.59,11.55c0-.17-.12-.31-.18-.47-3.2-10.4-9.11-17.35-12.19-18.2s-5.29,2.56-4,5.43a3.85,3.85,0,0,0,.8,1.37c.16.17.33.45.49.66a53.92,53.92,0,0,1,4.44,10.22,29.29,29.29,0,0,1,1.59,9.82c0,3.87,1.91,15.15,1.67,17.94"/><path class="cls-24" d="M1563.15,376.15l-44,87.27s-24.89-72-38.31-100.64c-5.13-10.93-15.37-18.48-25.22-23.5v-.19c-.69-.29-1.37-.55-2.06-.82a103.84,103.84,0,0,0-22.17-7.63c-46.43-13.29-90.17-8.65-140.8,9.06,0,0-26.29,7.07-39,41.36-11.48,30.89-24.33,78.18-26.53,86.59-15.78,53.08,6.75,82.65,38.09,79,12.92-2,23.91-12.66,28.77-16.88l16.57-15.58.36,12.06-18.53,74.49,190.55-.4-34.38-88.22,7.62-40.44,13.08,31.08a54.46,54.46,0,0,0,99.83,1.28l44.57-112.18Z"/><path class="cls-7" d="M1333.64,484.93a18.64,18.64,0,0,1-1.71,2.46c-1.16,1.53-2.87,3.73-5.08,6.37-4.38,5.3-10.7,12.4-18,19.91s-14.31,14-19.54,18.44c-2.61,2.25-4.77,4-6.3,5.17a18,18,0,0,1-2.43,1.75,18,18,0,0,1,2.2-2c1.45-1.26,3.54-3.09,6.08-5.39,5.11-4.59,12-11.11,19.32-18.6s13.7-14.51,18.2-19.69c2.27-2.58,4.06-4.7,5.3-6.16A18.85,18.85,0,0,1,1333.64,484.93Z"/><path class="cls-7" d="M1447,509.3a4.05,4.05,0,0,1,.1-1c.13-.77.3-1.72.49-2.89.49-2.63,1.16-6.21,2-10.58,1.68-8.93,4-21.27,5.8-35q.69-5.16,1.23-10a54.66,54.66,0,0,0,.53-9.33,93.2,93.2,0,0,0-2.35-15.7c-1-4.43-1.89-8-2.38-10.49-.26-1.25-.41-2.23-.48-2.9a4.49,4.49,0,0,1,0-1,3.81,3.81,0,0,1,.22,1c.13.66.34,1.62.65,2.85.6,2.46,1.61,6,2.67,10.42a87.72,87.72,0,0,1,2.57,15.81,54.63,54.63,0,0,1-.47,9.47c-.35,3.26-.76,6.62-1.22,10.06-1.83,13.76-4.23,26.11-6.08,35-.94,4.34-1.7,7.91-2.27,10.52-.26,1.16-.48,2.1-.66,2.85A4.24,4.24,0,0,1,1447,509.3Z"/><path class="cls-7" d="M1515.21,484.75c-.25-.05.42-4.84,1.52-10.69s2.18-10.57,2.44-10.52-.42,4.83-1.51,10.69S1515.47,484.79,1515.21,484.75Z"/><path class="cls-7" d="M1521.93,487.33c-.26,0-1.11-5.47-1.9-12.27s-1.22-12.36-1-12.39,1.11,5.47,1.9,12.28S1522.19,487.3,1521.93,487.33Z"/><path class="cls-7" d="M1381.37,600.35c-.26,0-.47-29.25-.47-65.32s.21-65.32.47-65.32.48,29.24.48,65.32S1381.64,600.35,1381.37,600.35Z"/><g class="cls-2"><path d="M1452.88,415.6c8.92,17.12,16.7,34.16,17.4,53.45.55,15-5.46,27.53.74,41.21-.3.24-5.6-11.55-7.94-17.08-4.82-11.4-9.06-21.56-9.06-21.56s3.31-25.72,3.59-30.1S1452.88,415.6,1452.88,415.6Z"/></g><g class="cls-2"><path d="M1231.78,502.58c0,8.59-5.34-19.75-.34-26.73,3.49-4.88,9.51-7.22,15.33-8.7s11.92-2.4,17.08-5.45c6.68-3.94,10.89-10.86,15.59-17s10.9-32.3,18.62-32.85V450c-18.18,11.44-37.41,22.94-57.51,32.26A26.75,26.75,0,0,0,1231.78,502.58Z"/></g><g class="cls-2"><path d="M1308.46,514.2c12.45-7,21.55-16.3,35.63-18.79,13.56-2.39,27.51.08,41.24-.93q-1.14-10.41-2.27-20.83l-39.26-.44Z"/></g><path class="cls-7" d="M1298.06,411.36c.27,0,.48,8.5.48,19s-.21,19-.48,19-.47-8.5-.47-19S1297.8,411.36,1298.06,411.36Z"/><path class="cls-7" d="M1231.73,502.38a8.61,8.61,0,0,1-.2-3.38,24.28,24.28,0,0,1,6.37-14.8,8.64,8.64,0,0,1,2.6-2.17c.23.21-3.74,3.63-6.18,9.4S1232,502.4,1231.73,502.38Z"/><path class="cls-7" d="M1239.58,482.61a16.59,16.59,0,0,0,2.86-1.05c1.83-.72,4.43-1.85,7.62-3.31,6.37-2.92,15-7.27,24.26-12.67s17.22-10.82,22.85-14.94c2.82-2.06,5.06-3.77,6.58-5a17.32,17.32,0,0,0,2.29-2,17,17,0,0,0-2.54,1.67l-6.76,4.73c-5.73,4-13.77,9.27-23,14.66s-17.76,9.81-24,12.88l-7.46,3.61A17.42,17.42,0,0,0,1239.58,482.61Z"/><path class="cls-7" d="M1478.63,248.39c-3.12-4.1-8.09-7.21-9-12.27-1.26-6.72,5.38-13,4.22-19.74-.79-4.61-5-7.84-9.36-9.63s-9-2.64-13.06-5c-4.84-2.84-8.26-7.67-10.43-12.85a46.1,46.1,0,0,1-1.55-4.41,46.9,46.9,0,0,0-2.2-9.45c-.15-.8-.31-1.6-.45-2.4l.19,1.76a18.84,18.84,0,0,0-2.36-4.28c-3.32-4.43-10-6.9-14.57-3.78l2.18-1.47a42,42,0,0,0-32.43-25.41,39,39,0,0,0-8.23-.28c-9.8-.5-24,2.36-30,6.15-7.64,4.84-15.46,11.49-19.29,19.69-2.07,4.43-3.46,9.53-7.35,12.48-5.21,3.93-12.51,2.41-19,3.14-10.7,1.21-20,9.42-23.65,19.54s-2.11,21.75,3,31.24c1.13,2.1,2.46,4.51,1.56,6.72-.69,1.72-2.48,2.66-4.08,3.58-4.22,2.42-8.1,5.84-9.91,10.36s-1.12,10.25,2.55,13.45c3,2.6,7.39,3,11.11,1.6a24.12,24.12,0,0,0-1.71,8.59c0,6.42,3.24,13,8.93,16s13.67,1.4,17-4.08a22.38,22.38,0,0,0,34.58,18.89c2.7-1.76,5.46-4.23,8.64-3.72s5,3.59,7.17,5.86c5.83,6.05,15.75,6.76,23.41,3.31s13.3-10.31,17.36-17.66a13.54,13.54,0,0,0,24.15-3.38c6.74,8.63,20.14,11.16,29.57,5.57,6.41-3.81,10.4-11,10.93-18.43a18.59,18.59,0,0,0,12.07-29.67ZM1295.69,254s0-.07,0-.1l.19-.08Z"/><path class="cls-23" d="M1411.09,299.74s23.29-3.87,28.12-34.26c2.4-15.11,1.64-39.89.36-60.15a32.09,32.09,0,0,0-35.39-29.92L1351.45,181a10.68,10.68,0,0,0-9.56,10.84l5.54,132c-3.84.82-12.56,2.72-16.83,4,0,0,40.79,91.16,50.77,90.1s49.91-87.32,49.91-87.32a208.44,208.44,0,0,0-21.14-5.18A253.51,253.51,0,0,1,1411.09,299.74Z"/><path class="cls-7" d="M1427.79,221.82a3.89,3.89,0,0,1-3.76,3.93,3.73,3.73,0,0,1-4-3.51,3.91,3.91,0,0,1,3.76-3.94A3.74,3.74,0,0,1,1427.79,221.82Z"/><path class="cls-7" d="M1434.2,218.22c-.48.51-3.44-1.68-7.63-1.66s-7.27,2.1-7.72,1.59c-.23-.23.26-1.14,1.6-2.12a10.72,10.72,0,0,1,6.19-1.91,10.26,10.26,0,0,1,6.07,2C1434,217.07,1434.44,218,1434.2,218.22Z"/><path class="cls-7" d="M1387.3,222.6a3.9,3.9,0,0,1-3.76,3.94,3.73,3.73,0,0,1-4-3.52,3.88,3.88,0,0,1,3.75-3.93A3.72,3.72,0,0,1,1387.3,222.6Z"/><path class="cls-7" d="M1393,219c-.48.51-3.44-1.67-7.63-1.66s-7.27,2.11-7.72,1.59c-.23-.22.26-1.14,1.61-2.12a10.69,10.69,0,0,1,6.18-1.9,10.19,10.19,0,0,1,6.07,2C1392.77,217.86,1393.21,218.78,1393,219Z"/><path class="cls-7" d="M1408.19,250.11c0-.24,2.59-.69,6.81-1.23,1.08-.11,2.09-.32,2.27-1s-.2-1.93-.72-3.18c-1-2.59-2.06-5.31-3.16-8.15-4.4-11.62-7.58-21.16-7.12-21.34s4.42,9.1,8.82,20.71l3,8.21c.41,1.21,1.1,2.6.56,4.2a2.72,2.72,0,0,1-1.76,1.57,7.18,7.18,0,0,1-1.82.25C1410.85,250.33,1408.21,250.35,1408.19,250.11Z"/><path class="cls-25" d="M1411.09,299.74a77.27,77.27,0,0,1-40.7-10.86s9.87,20.88,40.29,18Z"/><path class="cls-25" d="M1396.38,256.67a8.09,8.09,0,0,1,3.08-1.32,2.73,2.73,0,0,1,2.86,1.34,6.12,6.12,0,0,0,.44,1.05c.6.84,1.9.54,2.89.83,1.56.45,2.21,2.5,1.61,4a6.14,6.14,0,0,1-3.56,3.13,13,13,0,0,1-6.51.9,5.59,5.59,0,0,1-4-2,4.75,4.75,0,0,1,.32-5.2,13.89,13.89,0,0,1,4.16-3.6"/><path class="cls-7" d="M1395.85,253c.68,0,.69,4.51,4.59,7.74s8.74,2.74,8.77,3.37c.07.29-1.08.89-3.12.94a11.3,11.3,0,0,1-7.33-2.55,9.9,9.9,0,0,1-3.56-6.5C1395,254.11,1395.54,253,1395.85,253Z"/><path class="cls-7" d="M1394.86,211.66c-.42,1.14-4.6.6-9.52,1.19s-8.91,1.94-9.56.92c-.29-.49.4-1.57,2-2.67a16.65,16.65,0,0,1,14.53-1.6C1394.13,210.22,1395,211.12,1394.86,211.66Z"/><path class="cls-7" d="M1432.66,208.74c-.74,1-3.63,0-7.11-.08s-6.41.64-7.09-.36c-.3-.48.17-1.43,1.45-2.34a9.93,9.93,0,0,1,5.78-1.56,9.83,9.83,0,0,1,5.66,1.92C1432.58,207.3,1433,208.28,1432.66,208.74Z"/><path class="cls-7" d="M1421.79,170.9a41.21,41.21,0,0,1-49.87,31.6,39.15,39.15,0,0,1-23.1,30.74,83.37,83.37,0,0,1,9.81,50c-.88,7.36-3,15.06-8.55,20-8.43,7.56-22.67,5.72-30.79-2.18-7.77-7.57-10.52-19.45-8.32-30.07s8.87-20,17.26-26.87a19.26,19.26,0,0,1-9.94-33c2.4-2.25,5.41-3.93,7.21-6.68,1.7-2.59,2.11-5.8,3.15-8.73,2.71-7.66,9.56-13,16.07-17.82,5.52-4.12,11.56-8.42,18.44-8.4,3.67,0,7.32,1.28,11,.78,5-.67,8.9-4.46,13.05-7.34,5.84-4.06,13.07-6.56,20.1-5.46s13.6,6.36,14.93,13.35"/><path class="cls-7" d="M1419.09,173.9c-1.08,5.87,1.89,11.89,6.22,16s9.85,6.66,15.27,9.15c-2.13-5.72-4.3-11.51-7.86-16.47s-8.74-9.06-14.77-10"/><path class="cls-14" d="M1285.4,244a4,4,0,0,1-.16-1.91,7.32,7.32,0,0,1,2.73-4.7c1.85-1.61,4.9-2.41,8.29-2.26s7.18,1.13,11.35.87a14.35,14.35,0,0,0,11.06-6.84,14.59,14.59,0,0,0,2.07-7.15c.17-2.61-.06-5.34.09-8.18a14.67,14.67,0,0,1,2.66-8.31,17.37,17.37,0,0,1,7.27-5.47c5.73-2.59,12.27-2.63,18.53-3.8a26.43,26.43,0,0,0,8.83-3.09,23.69,23.69,0,0,0,6.58-6.23c3.54-4.88,5.92-10.32,9.18-15a32,32,0,0,1,25.51-13.84,31.15,31.15,0,0,1,11.32,1.93,31.76,31.76,0,0,1,7.65,4.05,23.76,23.76,0,0,1,5.36,5,2.28,2.28,0,0,1-.36-.32l-1-1a35.51,35.51,0,0,0-4.21-3.43,31.8,31.8,0,0,0-18.74-5.61,31.4,31.4,0,0,0-24.81,13.67c-3.18,4.55-5.54,10-9.16,15a24.2,24.2,0,0,1-6.84,6.48,26.88,26.88,0,0,1-9.14,3.22c-6.39,1.18-12.81,1.23-18.33,3.72a16.56,16.56,0,0,0-6.92,5.16,13.85,13.85,0,0,0-2.51,7.82c-.16,2.75.06,5.49-.13,8.18a15.45,15.45,0,0,1-2.23,7.51,15,15,0,0,1-11.69,7.1c-4.34.21-8.08-.92-11.41-1s-6.24.53-8,2a7.26,7.26,0,0,0-2.77,4.44A9,9,0,0,0,1285.4,244Z"/><polygon class="cls-7" points="1330.6 384.41 1332.52 432.88 1337.41 479.26 1388.94 477.07 1385.23 385.45 1330.6 384.41"/><polygon class="cls-10" points="1323.03 384.24 1324.95 432.88 1329.84 479.26 1381.38 477.07 1377.66 385.31 1323.03 384.24"/><path class="cls-23" d="M1318.2,484.93c13.8-.26,32.2-3,40.79-4.37,16-2.55,15.82-4,15.25-5.83-1.53-4.91-28.27,3.42-23.47-1.72s33.78-6.36,32-11.42c-2.35-6.59-30.19,2.64-32.61,3.25s-3.27-2.88-1.07-3.31c3.16-.62,36.27-7.95,34-14.44-1.24-3.61-7.48-.59-7.48-.59s-30.52,9.15-31.48,6.05,16.78-9.13,22.9-10.73,7.83-5.1,5-7.22c-2-1.44-20.79,3-26.81,4.7s-22.45,6.72-16.18-2.37c.1-.15.17-.29.27-.43,6.42-8.79,8.45-17.68,7.29-20.65s-5.22-2.71-6.76,0a3.65,3.65,0,0,0-.62,1.45c0,.23-.17.54-.23.79a54.58,54.58,0,0,1-5.54,9.67,29.06,29.06,0,0,1-6.93,7.15c-3.12,2.27-11,10.59-13.36,12.07"/><polygon class="cls-24" points="1306.38 444.25 1333.64 484.93 1288.72 530.75 1290.24 456.44 1306.38 444.25"/><path class="cls-5" d="M42.2,108.18c0,.68-5,1.22-11.08,1.22S20,108.86,20,108.18,25,107,31.12,107,42.2,107.5,42.2,108.18Z"/><path class="cls-5" d="M54,78c.68,0,1.23,5,1.23,11.24s-.55,11.24-1.23,11.24-1.22-5-1.22-11.24S53.29,78,54,78Z"/><path class="cls-5" d="M66.49,107.46c0-.68,5-1.23,11.08-1.23s11.08.55,11.08,1.23-5,1.22-11.08,1.22S66.49,108.13,66.49,107.46Z"/><path class="cls-5" d="M54.73,137.59c-.68,0-1.23-5-1.23-11.24s.55-11.24,1.23-11.24,1.23,5,1.23,11.24S55.41,137.59,54.73,137.59Z"/><path class="cls-5" d="M72.64,124.67c-.52.43-2.71-1.33-4.88-3.93s-3.52-5.07-3-5.51,2.7,1.33,4.88,3.94S73.15,124.23,72.64,124.67Z"/><path class="cls-5" d="M71.6,90.49c.48.48-1,2.71-3.22,5s-4.48,3.74-5,3.26,1-2.71,3.22-5S71.12,90,71.6,90.49Z"/><path class="cls-5" d="M46.21,99.2c-.44.52-2.53-.51-4.68-2.3S38,93.24,38.42,92.72,41,93.23,43.1,95,46.64,98.68,46.21,99.2Z"/><path class="cls-5" d="M45.21,114.26c.5.46-.76,2.65-2.81,4.9s-4.11,3.7-4.61,3.25.75-2.65,2.8-4.9S44.71,113.8,45.21,114.26Z"/><path class="cls-5" d="M667.29,49.87c0,.38-2.81.69-6.29.69s-6.29-.31-6.29-.69,2.82-.7,6.29-.7S667.29,49.48,667.29,49.87Z"/><path class="cls-5" d="M674,32.76c.38,0,.7,2.86.7,6.38s-.32,6.38-.7,6.38-.7-2.86-.7-6.38S673.59,32.76,674,32.76Z"/><path class="cls-5" d="M681.08,49.46c0-.39,2.82-.7,6.29-.7s6.29.31,6.29.7-2.81.69-6.29.69S681.08,49.84,681.08,49.46Z"/><path class="cls-5" d="M674.4,66.57c-.38,0-.69-2.86-.69-6.39s.31-6.38.69-6.38.7,2.86.7,6.38S674.79,66.57,674.4,66.57Z"/><path class="cls-5" d="M684.57,59.23c-.29.24-1.53-.76-2.77-2.23s-2-2.88-1.7-3.13,1.53.76,2.77,2.23S684.87,59,684.57,59.23Z"/><path class="cls-5" d="M684,39.83c.28.27-.54,1.53-1.82,2.83s-2.55,2.12-2.82,1.85.54-1.54,1.83-2.83S683.71,39.56,684,39.83Z"/><path class="cls-5" d="M669.57,44.77c-.25.29-1.44-.29-2.66-1.31s-2-2.07-1.76-2.37,1.43.29,2.65,1.3S669.81,44.47,669.57,44.77Z"/><path class="cls-5" d="M669,53.32c.28.26-.43,1.5-1.59,2.78s-2.34,2.1-2.62,1.84.42-1.5,1.59-2.78S668.72,53.06,669,53.32Z"/><path class="cls-5" d="M381.58,193c0,.3-2.15.54-4.82.54s-4.82-.24-4.82-.54,2.16-.53,4.82-.53S381.58,192.67,381.58,193Z"/><path class="cls-5" d="M386.7,179.85c.3,0,.54,2.19.54,4.89s-.24,4.89-.54,4.89-.53-2.19-.53-4.89S386.41,179.85,386.7,179.85Z"/><path class="cls-5" d="M392.16,192.65c0-.3,2.16-.53,4.82-.53s4.82.23,4.82.53-2.16.53-4.82.53S392.16,192.94,392.16,192.65Z"/><path class="cls-5" d="M387,205.76c-.3,0-.54-2.19-.54-4.89s.24-4.89.54-4.89.53,2.19.53,4.89S387.33,205.76,387,205.76Z"/><path class="cls-5" d="M394.83,200.14c-.23.19-1.18-.58-2.12-1.71s-1.53-2.21-1.31-2.4,1.18.58,2.13,1.71S395.06,200,394.83,200.14Z"/><path class="cls-5" d="M394.38,185.27c.21.2-.42,1.17-1.4,2.17s-2,1.62-2.16,1.42.42-1.18,1.4-2.17S394.17,185.06,394.38,185.27Z"/><path class="cls-5" d="M383.33,189.05c-.19.23-1.1-.22-2-1s-1.54-1.59-1.35-1.81,1.1.22,2,1S383.52,188.83,383.33,189.05Z"/><path class="cls-5" d="M382.89,195.61c.22.2-.32,1.15-1.22,2.13s-1.79,1.61-2,1.42S380,198,380.88,197,382.68,195.41,382.89,195.61Z"/><path class="cls-5" d="M637.71,213.36c0,.38-2.81.69-6.29.69s-6.29-.31-6.29-.69,2.82-.7,6.29-.7S637.71,213,637.71,213.36Z"/><path class="cls-5" d="M644.39,196.25c.39,0,.7,2.86.7,6.38s-.31,6.38-.7,6.38-.69-2.86-.69-6.38S644,196.25,644.39,196.25Z"/><path class="cls-5" d="M651.5,213c0-.39,2.82-.7,6.29-.7s6.29.31,6.29.7-2.81.69-6.29.69S651.5,213.33,651.5,213Z"/><path class="cls-5" d="M644.83,230.06c-.39,0-.7-2.86-.7-6.39s.31-6.38.7-6.38.69,2.86.69,6.38S645.21,230.06,644.83,230.06Z"/><path class="cls-5" d="M655,222.72c-.29.24-1.53-.76-2.77-2.23s-2-2.88-1.7-3.13,1.53.76,2.77,2.23S655.29,222.47,655,222.72Z"/><path class="cls-5" d="M654.4,203.32c.28.27-.54,1.53-1.82,2.83s-2.55,2.12-2.82,1.85.55-1.54,1.83-2.83S654.13,203.05,654.4,203.32Z"/><path class="cls-5" d="M640,208.26c-.25.29-1.44-.29-2.66-1.31s-2-2.07-1.76-2.37,1.43.29,2.65,1.31S640.23,208,640,208.26Z"/><path class="cls-5" d="M639.42,216.81c.28.26-.43,1.5-1.59,2.78s-2.34,2.1-2.62,1.85.43-1.51,1.59-2.79S639.14,216.55,639.42,216.81Z"/><path class="cls-5" d="M306.18,51l.81,2a13.94,13.94,0,0,0,7.61,7.55l2.13.86-2,.83A13.92,13.92,0,0,0,307,69.86l-.58,1.43-.86-1.8a13.89,13.89,0,0,0-7.77-7L296,61.77l2.43-1.18a13.85,13.85,0,0,0,6.77-7.17Z"/><path class="cls-5" d="M791.76,71.29l.54,1.3a9.24,9.24,0,0,0,5.06,5l1.42.58-1.36.55a9.27,9.27,0,0,0-5.1,5.11l-.38,1-.58-1.19a9.17,9.17,0,0,0-5.16-4.68L785,78.47l1.61-.79a9.21,9.21,0,0,0,4.5-4.76Z"/><path class="cls-5" d="M353,389.81l3,7.32,7.52,3.05-2.05.83a13.92,13.92,0,0,0-7.67,7.69l-.58,1.43-.86-1.8a13.89,13.89,0,0,0-7.77-7l-1.86-.68,2.43-1.18a13.91,13.91,0,0,0,6.78-7.17Z"/><path class="cls-5" d="M458,39.06l.38.92A6.52,6.52,0,0,0,462,43.52l1,.41-1,.39a6.51,6.51,0,0,0-3.59,3.6l-.27.68-.41-.85a6.52,6.52,0,0,0-3.64-3.3l-.88-.32,1.14-.55a6.5,6.5,0,0,0,3.18-3.37Z"/><path class="cls-5" d="M204.43,189.87l.5,1.19a8.36,8.36,0,0,0,4.59,4.55l1.29.52-1.24.5a8.4,8.4,0,0,0-4.63,4.64l-.35.87-.52-1.09a8.4,8.4,0,0,0-4.69-4.25l-1.12-.41,1.47-.71a8.39,8.39,0,0,0,4.09-4.33Z"/><path class="cls-5" d="M181.5,460c0,.68-5,1.23-11.07,1.23s-11.08-.55-11.08-1.23,5-1.22,11.08-1.22S181.5,459.31,181.5,460Z"/><path class="cls-5" d="M193.27,429.86c.68,0,1.23,5,1.23,11.24s-.55,11.24-1.23,11.24-1.23-5-1.23-11.24S192.59,429.86,193.27,429.86Z"/><path class="cls-5" d="M205.8,459.27c0-.68,5-1.23,11.08-1.23s11.08.55,11.08,1.23-5,1.23-11.08,1.23S205.8,460,205.8,459.27Z"/><path class="cls-5" d="M194,489.41c-.67,0-1.22-5-1.22-11.24s.55-11.25,1.22-11.25,1.23,5,1.23,11.25S194.71,489.41,194,489.41Z"/><path class="cls-5" d="M211.94,476.48c-.52.43-2.7-1.33-4.88-3.93s-3.52-5.07-3-5.5,2.71,1.32,4.88,3.93S212.46,476.05,211.94,476.48Z"/><path class="cls-5" d="M210.91,442.3c.48.48-1,2.71-3.22,5s-4.48,3.74-5,3.26,1-2.7,3.22-5S210.42,441.83,210.91,442.3Z"/><path class="cls-5" d="M185.51,451c-.43.52-2.52-.51-4.67-2.3s-3.55-3.66-3.11-4.18,2.52.51,4.67,2.3S185.94,450.49,185.51,451Z"/><path class="cls-5" d="M184.52,466.07c.5.46-.76,2.65-2.81,4.9s-4.12,3.71-4.62,3.25.76-2.65,2.81-4.9S184,465.62,184.52,466.07Z"/><path class="cls-5" d="M1835.29,387c0,.39-2.82.7-6.29.7s-6.29-.31-6.29-.7,2.81-.69,6.29-.69S1835.29,386.66,1835.29,387Z"/><path class="cls-5" d="M1842,369.93c.39,0,.7,2.86.7,6.39s-.31,6.38-.7,6.38-.69-2.86-.69-6.38S1841.58,369.93,1842,369.93Z"/><path class="cls-5" d="M1849.08,386.63c0-.38,2.81-.69,6.29-.69s6.29.31,6.29.69-2.82.7-6.29.7S1849.08,387,1849.08,386.63Z"/><path class="cls-5" d="M1842.4,403.74c-.39,0-.7-2.86-.7-6.38s.31-6.38.7-6.38.69,2.86.69,6.38S1842.78,403.74,1842.4,403.74Z"/><path class="cls-5" d="M1852.56,396.4c-.29.25-1.53-.75-2.77-2.23s-2-2.87-1.7-3.12,1.54.75,2.77,2.23S1852.86,396.16,1852.56,396.4Z"/><path class="cls-5" d="M1852,377c.27.27-.55,1.54-1.83,2.83s-2.54,2.13-2.82,1.86.55-1.54,1.83-2.84S1851.7,376.73,1852,377Z"/><path class="cls-5" d="M1837.56,381.94c-.25.3-1.43-.28-2.65-1.3s-2-2.08-1.77-2.37,1.43.29,2.66,1.3S1837.81,381.65,1837.56,381.94Z"/><path class="cls-5" d="M1837,390.5c.29.25-.42,1.5-1.59,2.78s-2.34,2.1-2.62,1.84.43-1.5,1.59-2.78S1836.71,390.24,1837,390.5Z"/><path class="cls-12" d="M1840.38,40c0,.38-2.81.69-6.28.69s-6.29-.31-6.29-.69,2.81-.7,6.29-.7S1840.38,39.59,1840.38,40Z"/><path class="cls-12" d="M1847.06,22.87c.39,0,.7,2.86.7,6.38s-.31,6.38-.7,6.38-.69-2.85-.69-6.38S1846.68,22.87,1847.06,22.87Z"/><path class="cls-12" d="M1854.18,39.57c0-.38,2.81-.7,6.29-.7s6.29.32,6.29.7-2.82.7-6.29.7S1854.18,40,1854.18,39.57Z"/><path class="cls-12" d="M1847.5,56.68c-.39,0-.7-2.86-.7-6.38s.31-6.38.7-6.38.69,2.85.69,6.38S1847.88,56.68,1847.5,56.68Z"/><path class="cls-12" d="M1857.66,49.34c-.29.25-1.53-.75-2.77-2.23s-2-2.88-1.7-3.13,1.54.76,2.77,2.24S1858,49.09,1857.66,49.34Z"/><path class="cls-12" d="M1857.08,29.94c.27.27-.55,1.54-1.83,2.83s-2.54,2.12-2.82,1.85.55-1.54,1.83-2.83S1856.8,29.67,1857.08,29.94Z"/><path class="cls-12" d="M1842.66,34.88c-.25.3-1.43-.29-2.66-1.3s-2-2.08-1.76-2.38,1.43.29,2.65,1.31S1842.91,34.59,1842.66,34.88Z"/><path class="cls-12" d="M1842.09,43.43c.29.26-.43,1.51-1.59,2.78s-2.34,2.11-2.62,1.85.43-1.51,1.59-2.78S1841.81,43.17,1842.09,43.43Z"/><text/></g></g></svg>