<svg xmlns="http://www.w3.org/2000/svg" xmlns:xlink="http://www.w3.org/1999/xlink" viewBox="0 0 1944.07 601.18"><defs><style>.cls-1{opacity:0.91;fill:url(#linear-gradient);}.cls-2{opacity:0.2;}.cls-3{fill:#3a4d8a;}.cls-4{fill:#fff;}.cls-5{fill:#ffd4f2;}.cls-6{fill:#681853;}.cls-7{fill:#1a2e35;}.cls-8{fill:#ffbf9d;}.cls-9{fill:#ff9a6c;}.cls-10{fill:#375a64;}.cls-11{fill:#ff4f5b;}.cls-12{fill:#872e68;}.cls-13{opacity:0.1;}.cls-14{fill:#fafafa;}.cls-15{fill:#2c4172;}.cls-16{fill:#c78976;}.cls-17{fill:#bf654e;}.cls-18{fill:#a13c79;}.cls-19{opacity:0.3;}.cls-20{fill:#1a2e4f;}.cls-21{fill:#b66851;}.cls-22{fill:#a24f35;}.cls-23{fill:#ffaf9e;}.cls-24{fill:#c1467f;}.cls-25{fill:#ff9582;}</style><linearGradient id="linear-gradient" x1="24.07" y1="300.59" x2="1944.07" y2="300.59" gradientUnits="userSpaceOnUse"><stop offset="0" stop-color="#c1467f"/><stop offset="0.23" stop-color="#a64781"/><stop offset="0.73" stop-color="#624b87"/><stop offset="1" stop-color="#3a4d8a"/></linearGradient></defs><g id="Layer_2" data-name="Layer 2"><g id="Layer_1-2" data-name="Layer 1"><rect class="cls-1" x="24.07" width="1920" height="601.18"/><g class="cls-2"><path class="cls-3" d="M147.42,600.46c-.5,0-1-.05-1.51-.05h-.09c-3.32,0-6.61-.09-9.92-.18a24.49,24.49,0,0,0-3.1.14,39.32,39.32,0,0,0-4.46-.41,29,29,0,0,0-4.08.3c-.16,0-.31,0-.47,0-4.58,0-9.16-.09-13.74-.18a25.94,25.94,0,0,0-6,.59L0,600.69c42.85-45.11,105.73-67,167.94-66.61,45.43.3,92.83,13.86,135.06-2.89,39.08-15.5,63.88-53.15,94.29-82.17,46.6-44.48,110.59-70.22,175-70.41,43.71-.14,91.85,9.9,127.9-14.83,24.34-16.69,36.77-45.43,53.86-69.5,50.08-70.54,146.51-100,227.21-68.77l.11,374.71-793.93.38a17.2,17.2,0,0,0-4-.1c-.42,0-.85.08-1.27.1h-2.85c-2.12-.07-4.25-.28-6.37-.28-3.07,0-6.13,0-9.2-.07-3.51-.2-7-.38-10.53-.38A28,28,0,0,0,147.42,600.46Z"/></g><path class="cls-4" d="M178.19,327.08H139l-7.48,18.09h-20l37.63-84.4h19.29l37.74,84.4h-20.5ZM172,312.25l-13.39-32.31-13.38,32.31Z"/><path class="cls-4" d="M284.3,312.74c0,20.37-14.11,33.4-32.32,33.4-8.68,0-15.67-2.78-20.38-8.44v7.47h-18V255.7h18.81v31.47c4.82-5.3,11.45-7.84,19.53-7.84C270.19,279.33,284.3,292.36,284.3,312.74Zm-19.05,0c0-11.22-7.12-18-16.52-18s-16.52,6.75-16.52,18,7.11,18,16.52,18S265.25,324,265.25,312.74Z"/><path class="cls-4" d="M292,312.74c0-19.54,15.08-33.41,35.69-33.41s35.58,13.87,35.58,33.41-15,33.4-35.58,33.4S292,332.27,292,312.74Zm52.22,0c0-11.22-7.12-18-16.53-18s-16.63,6.75-16.63,18,7.23,18,16.63,18S344.23,324,344.23,312.74Z"/><path class="cls-4" d="M441.17,280.3v64.87H423.33v-7.72c-4.95,5.67-12.18,8.69-20.14,8.69-16.28,0-27.73-9.17-27.73-29.18V280.3h18.81v33.88c0,10.85,4.82,15.68,13.14,15.68,8.68,0,14.95-5.55,14.95-17.49V280.3Z"/><path class="cls-4" d="M500.5,342c-3.86,2.77-9.53,4.1-15.32,4.1-15.31,0-24.23-7.84-24.23-23.28V296.22h-10V281.75h10V266h18.81v15.8h16.16v14.47H479.76v26.4c0,5.55,3,8.56,8.08,8.56a12.7,12.7,0,0,0,7.6-2.41Z"/><path class="cls-4" d="M610.59,280.3v64.87H592.74v-7.72c-4.94,5.67-12.18,8.69-20.13,8.69-16.28,0-27.74-9.17-27.74-29.18V280.3h18.81v33.88c0,10.85,4.83,15.68,13.15,15.68,8.68,0,14.95-5.55,14.95-17.49V280.3Z"/><path class="cls-4" d="M621.8,339.14l6.27-13.5c5.79,3.74,14.59,6.27,22.55,6.27,8.68,0,11.94-2.29,11.94-5.91,0-10.61-39.19.24-39.19-25.68,0-12.3,11.09-21,30-21,8.92,0,18.81,2.05,25,5.67l-6.27,13.39a37.26,37.26,0,0,0-18.69-4.83c-8.44,0-12.06,2.66-12.06,6,0,11.1,39.19.36,39.19,25.93,0,12.06-11.22,20.62-30.63,20.62C638.93,346.14,627.83,343.12,621.8,339.14Z"/><g class="cls-2"><path class="cls-3" d="M1777.8,598.33c.49,0,1-.05,1.48-.05h.09c3.25,0,6.47-.09,9.71-.17a23.4,23.4,0,0,1,3,.13,40.09,40.09,0,0,1,4.37-.4,29.31,29.31,0,0,1,4,.29l.46,0c4.48,0,9-.09,13.45-.18a25.46,25.46,0,0,1,5.88.57l101.88,0c-42-44.17-103.53-65.64-164.45-65.22-44.48.3-90.89,13.57-132.24-2.83-38.26-15.18-62.55-52-92.33-80.46-45.63-43.55-108.29-68.76-171.36-69-42.81-.12-89.94,9.7-125.24-14.51-23.83-16.35-36-44.49-52.74-68.06-49-69.07-143.46-97.88-222.48-67.34L961.2,598.1l777.4.37a16.52,16.52,0,0,1,4-.1c.41,0,.83.08,1.24.1h2.79c2.08-.08,4.17-.27,6.24-.27,3,0,6,0,9-.08,3.43-.19,6.87-.36,10.31-.37A28.27,28.27,0,0,1,1777.8,598.33Z"/></g><path class="cls-5" d="M938.76,75.75c0,.68-5,1.23-11.08,1.23s-11.08-.55-11.08-1.23,5-1.22,11.08-1.22S938.76,75.07,938.76,75.75Z"/><path class="cls-5" d="M950.52,45.62c.68,0,1.23,5,1.23,11.24s-.55,11.24-1.23,11.24-1.22-5-1.22-11.24S949.84,45.62,950.52,45.62Z"/><path class="cls-5" d="M963.05,75c0-.68,5-1.23,11.08-1.23s11.08.55,11.08,1.23-5,1.23-11.08,1.23S963.05,75.71,963.05,75Z"/><path class="cls-5" d="M951.29,105.17c-.68,0-1.23-5-1.23-11.24s.55-11.25,1.23-11.25,1.22,5,1.22,11.25S952,105.17,951.29,105.17Z"/><path class="cls-5" d="M969.19,92.24c-.52.43-2.7-1.33-4.88-3.93s-3.51-5.07-3-5.5,2.7,1.32,4.87,3.93S969.71,91.81,969.19,92.24Z"/><path class="cls-5" d="M968.16,58.07c.48.47-1,2.7-3.22,5s-4.48,3.74-5,3.26,1-2.7,3.22-5S967.68,57.59,968.16,58.07Z"/><path class="cls-5" d="M942.76,66.77c-.43.52-2.52-.51-4.67-2.3s-3.55-3.66-3.11-4.18,2.52.51,4.67,2.3S943.2,66.25,942.76,66.77Z"/><path class="cls-5" d="M941.77,81.83c.5.46-.76,2.65-2.81,4.9s-4.12,3.71-4.62,3.25.76-2.65,2.81-4.9S941.27,81.38,941.77,81.83Z"/><path class="cls-5" d="M1563.85,17.44c0,.38-2.82.7-6.29.7s-6.29-.32-6.29-.7,2.81-.7,6.29-.7S1563.85,17.06,1563.85,17.44Z"/><path class="cls-5" d="M1570.53.33c.38,0,.69,2.86.69,6.38s-.31,6.38-.69,6.38-.7-2.85-.7-6.38S1570.14.33,1570.53.33Z"/><path class="cls-5" d="M1577.64,17c0-.38,2.82-.7,6.29-.7s6.29.32,6.29.7-2.82.7-6.29.7S1577.64,17.41,1577.64,17Z"/><path class="cls-5" d="M1571,34.14c-.38,0-.69-2.86-.69-6.38s.31-6.38.69-6.38.7,2.85.7,6.38S1571.35,34.14,1571,34.14Z"/><path class="cls-5" d="M1581.13,26.8c-.3.25-1.54-.75-2.77-2.23s-2-2.88-1.7-3.12,1.53.75,2.77,2.23S1581.42,26.55,1581.13,26.8Z"/><path class="cls-5" d="M1580.54,7.4c.27.27-.55,1.54-1.83,2.83s-2.54,2.12-2.81,1.85.54-1.54,1.82-2.83S1580.27,7.13,1580.54,7.4Z"/><path class="cls-5" d="M1566.12,12.34c-.24.3-1.43-.29-2.65-1.3s-2-2.08-1.77-2.38,1.44.29,2.66,1.31S1566.37,12.05,1566.12,12.34Z"/><path class="cls-5" d="M1565.56,20.89c.28.26-.43,1.51-1.6,2.78s-2.33,2.11-2.62,1.85.43-1.51,1.6-2.78S1565.27,20.63,1565.56,20.89Z"/><path class="cls-5" d="M1278.14,160.54c0,.29-2.16.53-4.82.53s-4.82-.24-4.82-.53,2.16-.54,4.82-.54S1278.14,160.24,1278.14,160.54Z"/><path class="cls-5" d="M1283.26,147.42c.29,0,.53,2.19.53,4.89s-.24,4.9-.53,4.9-.53-2.2-.53-4.9S1283,147.42,1283.26,147.42Z"/><path class="cls-5" d="M1288.71,160.22c0-.29,2.16-.53,4.82-.53s4.83.24,4.83.53-2.16.54-4.83.54S1288.71,160.52,1288.71,160.22Z"/><path class="cls-5" d="M1283.59,173.34c-.29,0-.53-2.19-.53-4.89s.24-4.9.53-4.9.54,2.19.54,4.9S1283.89,173.34,1283.59,173.34Z"/><path class="cls-5" d="M1291.39,167.71c-.23.19-1.18-.58-2.13-1.71s-1.53-2.2-1.3-2.39,1.17.57,2.12,1.71S1291.61,167.52,1291.39,167.71Z"/><path class="cls-5" d="M1290.94,152.84c.2.21-.42,1.18-1.41,2.17s-1.94,1.63-2.15,1.42.41-1.18,1.4-2.17S1290.73,152.63,1290.94,152.84Z"/><path class="cls-5" d="M1279.88,156.63c-.18.22-1.1-.22-2-1s-1.54-1.6-1.35-1.82,1.1.22,2,1S1280.07,156.4,1279.88,156.63Z"/><path class="cls-5" d="M1279.45,163.18c.22.2-.33,1.16-1.22,2.13s-1.79,1.62-2,1.42.33-1.15,1.22-2.13S1279.23,163,1279.45,163.18Z"/><path class="cls-5" d="M1534.27,180.93c0,.38-2.82.7-6.29.7s-6.29-.32-6.29-.7,2.82-.7,6.29-.7S1534.27,180.55,1534.27,180.93Z"/><path class="cls-5" d="M1541,163.82c.38,0,.69,2.86.69,6.38s-.31,6.39-.69,6.39-.7-2.86-.7-6.39S1540.56,163.82,1541,163.82Z"/><path class="cls-5" d="M1548.06,180.52c0-.38,2.82-.69,6.29-.69s6.29.31,6.29.69-2.82.7-6.29.7S1548.06,180.91,1548.06,180.52Z"/><path class="cls-5" d="M1541.38,197.63c-.38,0-.69-2.86-.69-6.38s.31-6.38.69-6.38.7,2.85.7,6.38S1541.77,197.63,1541.38,197.63Z"/><path class="cls-5" d="M1551.55,190.29c-.3.25-1.54-.75-2.77-2.23s-2-2.88-1.7-3.12,1.53.75,2.77,2.23S1551.84,190,1551.55,190.29Z"/><path class="cls-5" d="M1551,170.89c.27.27-.55,1.54-1.83,2.83s-2.54,2.12-2.81,1.85.54-1.54,1.82-2.83S1550.69,170.62,1551,170.89Z"/><path class="cls-5" d="M1536.54,175.83c-.24.3-1.43-.29-2.65-1.3s-2-2.08-1.77-2.38,1.44.29,2.66,1.31S1536.79,175.54,1536.54,175.83Z"/><path class="cls-5" d="M1536,184.38c.28.26-.43,1.51-1.6,2.78s-2.33,2.11-2.62,1.85.43-1.51,1.6-2.78S1535.69,184.12,1536,184.38Z"/><path class="cls-5" d="M1202.73,18.55l.82,2a13.93,13.93,0,0,0,7.61,7.54l2.13.86-2,.84a13.9,13.9,0,0,0-7.67,7.68l-.57,1.43-.87-1.8a13.94,13.94,0,0,0-7.76-7l-1.86-.68,2.43-1.17a14,14,0,0,0,6.77-7.17Z"/><path class="cls-5" d="M883.22,165.77l.54,1.3a9.24,9.24,0,0,0,5.06,5l1.41.58-1.36.55a9.22,9.22,0,0,0-5.09,5.11l-.39,1-.57-1.2a9.3,9.3,0,0,0-5.16-4.68l-1.24-.45,1.62-.78a9.25,9.25,0,0,0,4.5-4.76Z"/><path class="cls-5" d="M1688.32,38.86l.54,1.31a9.24,9.24,0,0,0,5.06,5l1.42.57-1.36.56a9.22,9.22,0,0,0-5.1,5.1l-.39,1-.57-1.19a9.27,9.27,0,0,0-5.16-4.68l-1.24-.45,1.62-.78a9.27,9.27,0,0,0,4.5-4.77Z"/><path class="cls-5" d="M929.38,510.48c0,.68-5,1.23-11.07,1.23s-11.08-.55-11.08-1.23,5-1.23,11.08-1.23S929.38,509.8,929.38,510.48Z"/><path class="cls-5" d="M941.15,480.34c.68,0,1.22,5,1.22,11.24s-.54,11.25-1.22,11.25-1.23-5-1.23-11.25S940.47,480.34,941.15,480.34Z"/><path class="cls-5" d="M953.68,509.76c0-.68,5-1.23,11.08-1.23s11.07.55,11.07,1.23-5,1.22-11.07,1.22S953.68,510.43,953.68,509.76Z"/><path class="cls-5" d="M941.91,539.89c-.67,0-1.22-5-1.22-11.24s.55-11.24,1.22-11.24,1.23,5,1.23,11.24S942.59,539.89,941.91,539.89Z"/><path class="cls-5" d="M959.82,527c-.52.43-2.7-1.33-4.88-3.93s-3.52-5.07-3-5.5,2.71,1.32,4.88,3.93S960.34,526.53,959.82,527Z"/><path class="cls-5" d="M958.78,492.79c.49.48-1,2.71-3.21,5s-4.48,3.74-5,3.26,1-2.71,3.22-5S958.3,492.32,958.78,492.79Z"/><path class="cls-5" d="M933.39,501.5c-.43.52-2.53-.51-4.68-2.3s-3.54-3.66-3.1-4.18,2.52.51,4.67,2.3S933.82,501,933.39,501.5Z"/><path class="cls-5" d="M932.39,516.56c.51.46-.75,2.65-2.8,4.9s-4.12,3.7-4.62,3.25.76-2.65,2.81-4.9S931.9,516.11,932.39,516.56Z"/><path class="cls-5" d="M1690.75,94l.81,2a13.89,13.89,0,0,0,7.61,7.54l2.14.87-2,.83a13.92,13.92,0,0,0-7.67,7.69l-.58,1.43-.86-1.8a13.89,13.89,0,0,0-7.77-7l-1.86-.68,2.43-1.18a13.91,13.91,0,0,0,6.78-7.17Z"/><path class="cls-5" d="M1354.6,6.64l.38.92a6.55,6.55,0,0,0,3.57,3.54l1,.4-1,.39a6.54,6.54,0,0,0-3.6,3.61l-.27.67-.4-.84a6.56,6.56,0,0,0-3.65-3.31l-.87-.32,1.14-.55a6.52,6.52,0,0,0,3.18-3.36Z"/><path class="cls-5" d="M1101,157.44l.49,1.19a8.38,8.38,0,0,0,4.6,4.55l1.29.53-1.24.5a8.37,8.37,0,0,0-4.63,4.64l-.35.86-.52-1.08a8.42,8.42,0,0,0-4.69-4.26l-1.12-.41,1.46-.71a8.35,8.35,0,0,0,4.09-4.33Z"/><path class="cls-5" d="M1837,111.53a77.31,77.31,0,0,0-53,133.62l-10.43,36.57,36.92-20.2a77.33,77.33,0,1,0,26.49-150Z"/><path class="cls-5" d="M1837,111.53s.47,0,1.38,0l4.05.16c.89.06,1.89,0,3,.18l3.57.52c1.29.21,2.69.34,4.16.66l4.65,1.18a76.34,76.34,0,0,1,45,33.51l2.4,3.94,2.07,4.23a74.13,74.13,0,0,1,7.26,29.31,82.79,82.79,0,0,1-.17,10.89c-.15,1.84-.52,3.67-.77,5.53-.14.92-.28,1.85-.43,2.79l-.69,2.75a73.72,73.72,0,0,1-8.87,21.64A77.82,77.82,0,0,1,1865.92,261a78.94,78.94,0,0,1-53.06,1.8l-2.52-.86.39,0-36.93,20.19-1,.54.31-1.07c3.6-12.62,7.1-24.84,10.45-36.57l.12.45A78.12,78.12,0,0,1,1763,212.91a78.54,78.54,0,0,1-3.51-17.85c-.14-1.48-.2-2.95-.22-4.41a39.51,39.51,0,0,1,.09-4.36,59.27,59.27,0,0,1,.76-8.49,77.15,77.15,0,0,1,10.67-29.47,79.19,79.19,0,0,1,17.84-20.14l4.81-3.58,4.85-2.94a36.8,36.8,0,0,1,4.72-2.47c1.57-.71,3-1.54,4.54-2.08a79.39,79.39,0,0,1,15.72-4.46l5.85-.85,4.31-.18,2.63-.09c.59,0,.89,0,.89,0s-.3,0-.89.08l-2.63.17-4.28.26-5.83.91a81.56,81.56,0,0,0-15.61,4.57c-1.5.55-2.94,1.38-4.49,2.1a37.75,37.75,0,0,0-4.68,2.48l-4.8,3-4.76,3.58a78.78,78.78,0,0,0-17.62,20.05,76.61,76.61,0,0,0-10.48,29.23,58,58,0,0,0-.73,8.41,38.66,38.66,0,0,0-.08,4.31c0,1.45.08,2.9.23,4.36a77.41,77.41,0,0,0,3.51,17.66,77.21,77.21,0,0,0,20.47,32.17l.2.19-.08.27L1774,281.85l-.68-.54,36.92-20.2.18-.1.21.07,2.49.85a78.26,78.26,0,0,0,52.43-1.76,77,77,0,0,0,37.27-31.78,73,73,0,0,0,8.81-21.38l.69-2.73c.14-.92.29-1.84.43-2.76.25-1.84.63-3.65.77-5.47a79.34,79.34,0,0,0,.19-10.77,76.75,76.75,0,0,0-3.53-20.09,78.5,78.5,0,0,0-3.57-9l-2-4.21c-.8-1.31-1.59-2.62-2.36-3.9a76.61,76.61,0,0,0-22.35-23.28,77.8,77.8,0,0,0-22.21-10.24l-4.62-1.21c-1.46-.33-2.85-.48-4.13-.7l-3.55-.57c-1.09-.16-2.09-.15-3-.22l-4-.25C1837.46,111.59,1837,111.53,1837,111.53Z"/><path class="cls-6" d="M1820.11,178.28h5.47l11.93-16.64V150.73s8.45-.52,7.46,13.77.08,10.66.08,10.66,18,.07,19.44,1.63c1.09,1.13,1.58,19,1.76,28.63.1,4.86-2.89,9.39-7.41,10.54a7.67,7.67,0,0,1-1.94.26c-4.47,0-27.35-3.64-27.35-3.64h-9.44Z"/><polygon class="cls-6" points="1804.45 175.28 1807.82 212.68 1817.18 212.68 1817.18 176.03 1804.45 175.28"/><path class="cls-7" d="M1052.59,190.63c-.3,5.85-7.91,13.63-5.55,19,4.33,9.87,1.84,21.66-3.78,30.85s-14,16.31-22.24,23.25a185.45,185.45,0,0,0-3.74-42.83c-.91-4.41-2.39-9.33-6.42-11.33-5.21-2.58-11.84,1.16-17.18-1.15-5.7-2.46-6.85-10.25-11.65-14.17-4.34-3.56-10.74-3.18-16.06-1.39s-10.23,4.77-15.7,6-12.08.13-15.12-4.59c-1.87-2.91-.52-1.13-2.31-4.1,0,0-10.68.37-14.35-12.06,0,0-5-13.8,6.08-19.91,0,0,2.53-24.94,27.64-13.72,7.2,3.22,15.74-7.17,22.78-3.59,5.85,3,7.6,11.11,13.45,14.09,6.72,3.42,14.55-1.66,22.09-2,9.66-.42,18.64,8.62,18.17,18.28,0,0,1.18-5,9.34-2.79S1053.19,179.25,1052.59,190.63Z"/><path class="cls-8" d="M1042,230.8a17.51,17.51,0,0,0-1.54-8.22c-1.05-2.13-5-7-9.33-7.26l.64-25.71a10.24,10.24,0,0,0-9.15-10.37l-50.42-5.33a30.68,30.68,0,0,0-33.84,28.61c-1.22,19.37-2,43.07.34,57.52,4.62,29.06,26.89,32.76,26.89,32.76L965,313.1c-.86,21.64,15.33,34.66,32,34.66,16.91,0,32.12-14.42,31.64-35.84l1.62-65.43a11.51,11.51,0,0,0,7.37-3.59C1040.66,239.7,1041.85,235.18,1042,230.8Z"/><path class="cls-7" d="M949.59,218.29a3.72,3.72,0,0,0,3.59,3.76,3.56,3.56,0,0,0,3.84-3.36,3.72,3.72,0,0,0-3.59-3.76A3.56,3.56,0,0,0,949.59,218.29Z"/><path class="cls-7" d="M943.46,214.85c.46.48,3.28-1.61,7.29-1.59s7,2,7.39,1.52c.21-.22-.26-1.09-1.54-2a10.21,10.21,0,0,0-5.91-1.82,9.75,9.75,0,0,0-5.81,1.88C943.65,213.75,943.23,214.63,943.46,214.85Z"/><path class="cls-7" d="M988.3,219a3.72,3.72,0,0,0,3.59,3.76,3.57,3.57,0,0,0,3.85-3.36,3.72,3.72,0,0,0-3.59-3.76A3.57,3.57,0,0,0,988.3,219Z"/><path class="cls-7" d="M982.88,215.6c.46.48,3.29-1.61,7.3-1.6s7,2,7.38,1.53c.22-.22-.25-1.1-1.54-2a10.21,10.21,0,0,0-5.91-1.82,9.81,9.81,0,0,0-5.81,1.87C983.07,214.5,982.65,215.38,982.88,215.6Z"/><path class="cls-7" d="M968.32,245.34c0-.23-2.47-.66-6.51-1.17-1-.11-2-.31-2.17-1s.19-1.85.69-3l3-7.8c4.2-11.1,7.25-20.23,6.8-20.4s-4.22,8.7-8.43,19.81l-2.9,7.84c-.39,1.17-1.05,2.49-.53,4a2.57,2.57,0,0,0,1.68,1.5,6.94,6.94,0,0,0,1.74.24C965.79,245.55,968.31,245.57,968.32,245.34Z"/><path class="cls-9" d="M965.55,292.8a74,74,0,0,0,38.92-10.38s-10.07,21.87-39.15,19.15Z"/><path class="cls-7" d="M981.08,208.57c.39,1.1,4.4.58,9.1,1.15s8.51,1.85,9.14.87c.27-.47-.39-1.5-1.92-2.55a15.14,15.14,0,0,0-6.77-2.37,15.36,15.36,0,0,0-7.13.83C981.77,207.2,980.91,208.06,981.08,208.57Z"/><path class="cls-7" d="M942.81,205.52c.7.91,3.46,0,6.79-.08s6.13.61,6.78-.34c.28-.47-.16-1.38-1.39-2.24a9.83,9.83,0,0,0-10.93.34C942.88,204.13,942.5,205.07,942.81,205.52Z"/><path class="cls-9" d="M969.2,268c-.08-.08.28-.57,1.09-1.08a7.12,7.12,0,0,1,3.58-1,7,7,0,0,1,3.58.94c.82.5,1.18,1,1.1,1.07s-2-1.11-4.68-1.06S969.36,268.26,969.2,268Z"/><path class="cls-9" d="M1028.43,238.54a26.89,26.89,0,0,0,2.75-1.35,7.44,7.44,0,0,0,3.37-6,7.64,7.64,0,0,0-3-6.19,6.38,6.38,0,0,0-2.77-1.08c-.09-.11,1.34-.59,3.14.52a7.88,7.88,0,0,1,3.59,6.77,7.43,7.43,0,0,1-1.34,4.15,7.78,7.78,0,0,1-2.62,2.38C1029.74,238.75,1028.42,238.63,1028.43,238.54Z"/><path class="cls-7" d="M932.84,167c-4.69,12.55,6.46,21.66,15.15,23.69,12.15,2.83,25.08-4.84,33.39-1.57,6.2,2.43,12.06,7.23,18.64,6.26,3.21-.47,6.37-2.31,9.49-1.47,4,1.09,5.6,5.94,5.51,10.06-.12,5.1-1.83,10.15-1.19,15.2s5.16,10.28,10.07,8.95,7.86-6,8.27-10.95c.58-7-.7-15.33-.36-22.34.31-6.19.32-13-3.62-17.78s-10.67-6.08-16.83-6.93A470.62,470.62,0,0,0,932.84,166"/><path class="cls-10" d="M917.54,169.66a4,4,0,0,1-.26-1.31,7.48,7.48,0,0,1,.77-3.76,8.41,8.41,0,0,1,4.38-4.17,7.73,7.73,0,0,1,3.83-.43c1.35.14,2.72.49,4.16.57a8.12,8.12,0,0,0,4.29-.95,20.23,20.23,0,0,0,4-2.89c1.3-1.13,2.63-2.37,4.16-3.47a13.44,13.44,0,0,1,5.36-2.34c4-.79,8.29.19,12.16,2.06s7.32,4.82,10.78,7.7,6.87,5.71,10.74,7.25a12.44,12.44,0,0,0,5.91.9,16.77,16.77,0,0,0,5.54-1.8c3.42-1.73,6.65-3.81,10.12-4.66a20.13,20.13,0,0,1,9.74-.31,14.94,14.94,0,0,1,7.08,3.81,14.2,14.2,0,0,1,3.37,5.06,11,11,0,0,1,.74,3.76,8.2,8.2,0,0,1,0,1c0,.23,0,.34-.06.34a14.53,14.53,0,0,0-1-5,14.32,14.32,0,0,0-3.38-4.81,14.5,14.5,0,0,0-6.86-3.53,19.4,19.4,0,0,0-9.39.41c-3.34.85-6.43,2.88-9.95,4.69a17.72,17.72,0,0,1-5.82,1.91,13.25,13.25,0,0,1-6.35-.94c-4.08-1.61-7.54-4.53-11-7.38s-6.83-5.73-10.58-7.59-7.85-2.76-11.59-2.05-6.55,3.31-9.17,5.56a20.9,20.9,0,0,1-4.17,2.94,8.88,8.88,0,0,1-4.67,1c-1.52-.11-2.88-.49-4.18-.64a7.25,7.25,0,0,0-3.57.32,8.16,8.16,0,0,0-4.24,3.84,7.81,7.81,0,0,0-.91,3.59C917.47,169.2,917.6,169.65,917.54,169.66Z"/><path class="cls-10" d="M931.6,189.88a2.21,2.21,0,0,1-1.27.09,4.37,4.37,0,0,1-2.94-2.12,8.49,8.49,0,0,1-.69-5.71,16.38,16.38,0,0,1,3-7,16,16,0,0,1,7.4-5.57,16.49,16.49,0,0,1,10.62-.26c3.65,1.15,6.94,3.43,10.21,5.79s6.66,4.85,10.7,6a20.24,20.24,0,0,0,12-.66,56.83,56.83,0,0,0,10.41-5,95.57,95.57,0,0,1,9.37-4.92,26.48,26.48,0,0,1,9-2.32c5.75-.28,10.24,1.94,12.46,4.19a11.26,11.26,0,0,1,2.14,2.95,6,6,0,0,1,.43,1.19,13.75,13.75,0,0,0-2.83-3.87,16.51,16.51,0,0,0-12.16-3.79,26,26,0,0,0-8.7,2.37,95.13,95.13,0,0,0-9.24,5,57.09,57.09,0,0,1-10.56,5.09,21,21,0,0,1-12.57.69c-4.26-1.22-7.73-3.82-11-6.16s-6.46-4.59-9.92-5.71a15.72,15.72,0,0,0-10.09.17,15.36,15.36,0,0,0-7.13,5.23,16,16,0,0,0-3,6.74,8.25,8.25,0,0,0,.49,5.44,4.29,4.29,0,0,0,2.66,2.11A5.94,5.94,0,0,0,931.6,189.88Z"/><path class="cls-10" d="M1043,238.37c-.07-.06.67-.86,1.62-2.55a17.5,17.5,0,0,0,2.17-7.79,16.24,16.24,0,0,0-.69-5.52,20.77,20.77,0,0,0-2.91-5.72c-1.28-1.9-2.79-3.81-4.11-6a13.78,13.78,0,0,1-2.38-7.57c0-2.85,1.37-5.3,2.42-7.54a16.09,16.09,0,0,0,2-6.71,11.42,11.42,0,0,0-5.37-10,12,12,0,0,0-7.79-1.53,25.93,25.93,0,0,0-2.92.73s.22-.17.68-.4a10.63,10.63,0,0,1,2.18-.69A11.75,11.75,0,0,1,1042,189a16.56,16.56,0,0,1-2.07,7.08c-1.06,2.27-2.28,4.61-2.32,7.17a13,13,0,0,0,2.23,7.07c1.28,2.13,2.77,4.05,4,6a21.46,21.46,0,0,1,2.95,6,17.3,17.3,0,0,1-1.93,13.72,11.27,11.27,0,0,1-1.36,1.81C1043.23,238.2,1043,238.39,1043,238.37Z"/><path class="cls-7" d="M966.73,217.14a39.72,39.72,0,0,0-.76-4.53,18.7,18.7,0,0,0-6.83-10.08A18.35,18.35,0,0,0,941.8,200a17,17,0,0,0-4.62,2.49,17.29,17.29,0,0,0-3.85,3.88,18.2,18.2,0,0,0,0,21.57,16.88,16.88,0,0,0,3.85,3.88,17.17,17.17,0,0,0,4.62,2.5,18.45,18.45,0,0,0,9.6.83,18.24,18.24,0,0,0,7.74-3.39A18.7,18.7,0,0,0,966,221.66a39.81,39.81,0,0,0,.76-4.52,14.25,14.25,0,0,1-.41,4.61,18.55,18.55,0,0,1-6.77,10.52,18.77,18.77,0,0,1-8,3.63,19.09,19.09,0,0,1-10-.78,19.09,19.09,0,0,1-8.92-6.65,19,19,0,0,1,0-22.67,18,18,0,0,1,4.06-4.06,18.25,18.25,0,0,1,4.86-2.59,19.19,19.19,0,0,1,10-.78,18.79,18.79,0,0,1,8,3.63,18.55,18.55,0,0,1,6.78,10.52A14.31,14.31,0,0,1,966.73,217.14Z"/><path class="cls-7" d="M1009.46,217.14a45.09,45.09,0,0,0-.77-4.53,18.62,18.62,0,0,0-6.82-10.08A18.36,18.36,0,0,0,984.52,200a16.8,16.8,0,0,0-4.61,2.49,17.54,17.54,0,0,0-3.86,3.88,18.2,18.2,0,0,0,0,21.57,18.48,18.48,0,0,0,8.47,6.38,18.5,18.5,0,0,0,9.61.83,18.3,18.3,0,0,0,7.74-3.39,18.62,18.62,0,0,0,6.82-10.08,45.24,45.24,0,0,0,.77-4.52,14.62,14.62,0,0,1-.41,4.61,18.89,18.89,0,0,1-14.78,14.15,19.06,19.06,0,0,1-10-.78,19.09,19.09,0,0,1-8.92-6.65,19,19,0,0,1,0-22.67,17.78,17.78,0,0,1,4.06-4.06,18.1,18.1,0,0,1,4.86-2.59,19.16,19.16,0,0,1,10-.78,18.89,18.89,0,0,1,14.78,14.15A14.68,14.68,0,0,1,1009.46,217.14Z"/><path class="cls-7" d="M973.07,214a.09.09,0,0,1,0,0l0,0v0h0v.2h0l-.08,0,0,0h0v-.32h0l.07,0v.38a12.28,12.28,0,0,1-3.06.28c-1.84,0-3.33-.21-3.33-.47s1.49-.47,3.33-.47a12.28,12.28,0,0,1,3.06.28v.38l-.07,0h0v-.32h0l0,0,.08,0h0v.2h0v0l0,0A.09.09,0,0,1,973.07,214Z"/><path class="cls-7" d="M1031.92,218.13c0,.26-5.15.1-11.46-.35s-11.41-1-11.39-1.29,5.15-.1,11.46.35S1031.94,217.87,1031.92,218.13Z"/><path class="cls-7" d="M985,244.33c.11,0,.43,1.11.14,2.94a10.05,10.05,0,0,1-10.3,8.43c-1.85-.08-2.89-.62-2.85-.72s1.12.14,2.85.05a10.31,10.31,0,0,0,9.64-7.9C985,245.45,984.89,244.34,985,244.33Z"/><path class="cls-7" d="M912.94,375a3.29,3.29,0,0,1,0,.58c0,.44,0,1,0,1.71,0,1.57.05,3.77.09,6.58,0,5.77.08,14,.13,24.17.07,20.42-.62,48.63-2.21,79.74s-3.22,59.21-4.33,79.65c-.51,10.14-.92,18.38-1.21,24.14-.14,2.8-.26,5-.34,6.56,0,.71-.08,1.27-.11,1.71a2.45,2.45,0,0,1-.07.58,3.7,3.7,0,0,1,0-.58c0-.44,0-1,0-1.71,0-1.57.09-3.77.16-6.57.16-5.71.46-14,.91-24.16.86-20.4,2.5-48.56,4.06-79.67s2.38-59.28,2.48-79.69c.07-10.16.13-18.4.17-24.17,0-2.81.07-5,.09-6.58,0-.71,0-1.27,0-1.71A2,2,0,0,1,912.94,375Z"/><path class="cls-11" d="M1088.67,343.61c-9.79-11.3-28.91-12.95-37.38-6.82s-13.19,16.55-14,27,1.81,20.87,5.79,30.55c6.38,15.5,15.82,28,29.92,44L1109.3,486l-70.13,68.47,29.06,45.86,59.62-48,49.3-52.26"/><path class="cls-7" d="M835.11,490.68a11.62,11.62,0,0,1,3.78-1.82,27.1,27.1,0,0,1,19.87,1.08,11.46,11.46,0,0,1,3.55,2.22c-.08.13-1.45-.68-3.82-1.61a31.69,31.69,0,0,0-9.62-2.1,31.36,31.36,0,0,0-9.79,1.05C836.63,490.17,835.18,490.83,835.11,490.68Z"/><path class="cls-12" d="M1098.14,354.33l0,.07c-24.48-32.45-50.82-29.78-64.25-30.16V310c-9.92,0-23.46,8.93-30.47,15.33l-6.92,9.5h0a35.39,35.39,0,0,0-22.64-22.2,70.49,70.49,0,0,0-11.6-2.63v12.74c-32.88.92-50.47,9.91-72.44,35.35-1.14,1.32-3.37,3.55-5.94,6.08h0l-65,76.35c-13.28,14.7-25.38,34.93-22.61,54.55h0c3.12,22.11,16,36.67,40.69,53.35l68.41,44.34-.33,7.62h163.25s110.7-81.66,113.42-111.91C1183.79,464.56,1145.66,413.9,1098.14,354.33Zm-190,173.4L860.24,492l51.7-53.5Zm156.73,2.84-1.28-26.45,6.85-69.43c13.64,15.65,38.89,46.69,38.89,51.35Z"/><path class="cls-7" d="M1033.86,324.24a13.44,13.44,0,0,1-1.24,2.16c-.86,1.35-2.12,3.3-3.77,5.65a130.21,130.21,0,0,1-14.32,17.24c-1.55,1.57-3.12,3-4.65,4.44l-.76.7v-1a23.18,23.18,0,0,0-6.7-15.92c-1.56-1.59-3-2.71-4.17-3a2.77,2.77,0,0,0-1.77.3c-.05,0,.44-.76,1.82-.62s2.9,1.28,4.54,2.84a22.77,22.77,0,0,1,4.8,6.5,23.36,23.36,0,0,1,2.4,9.84l-.77-.33c1.51-1.41,3.06-2.87,4.6-4.43a155.73,155.73,0,0,0,14.45-17c1.61-2.19,3-4,4-5.46A11.76,11.76,0,0,1,1033.86,324.24Z"/><path class="cls-7" d="M962.23,322.73a10.84,10.84,0,0,1,1.43,1.69l3.63,4.79c3,4.08,7.14,9.75,11.65,16l2.94,4.11-.82.12a40.85,40.85,0,0,1,3.68-8.41,14.45,14.45,0,0,1,5.26-5.18,9.91,9.91,0,0,1,4.71-1.32,4.2,4.2,0,0,1,1.76.25c0,.08-.63,0-1.74.08a10.41,10.41,0,0,0-4.43,1.52,14.38,14.38,0,0,0-4.87,5.08,42.53,42.53,0,0,0-3.49,8.29l-.29.85-.53-.73-3-4.11c-4.51-6.29-8.54-12-11.43-16.2l-3.38-5A9.68,9.68,0,0,1,962.23,322.73Z"/><g class="cls-13"><path d="M996.47,334.82c5.46,5.58,8.13,14.6,7.11,22.34-.35,2.65-.65,6.19,1.84,7.17,1.72.69,3.58-.5,5-1.66a99.06,99.06,0,0,0,25.66-31.3,6.11,6.11,0,0,0,1-3.18,2.19,2.19,0,0,0-2.14-2.12,3.16,3.16,0,0,0-1.89,1.32c-7.57,8.72-15.94,17.8-23.5,26.53a19.27,19.27,0,0,0-4.21-13.45c-3-3.69-6.28-7.41-8.85-5.65"/></g><path class="cls-7" d="M1066.26,597.33a4.81,4.81,0,0,1-.57-.76l-1.52-2.29-5.57-8.67-19.13-30.23-.19-.3.25-.26,17.07-17,37.13-36.75L1105.06,490l3.11-3a7.82,7.82,0,0,1,1.13-1,8.38,8.38,0,0,1-1,1.12l-3,3.1-11.12,11.27-36.93,37-17.1,17,.06-.56,18.84,30.42,5.36,8.8,1.39,2.37A4.91,4.91,0,0,1,1066.26,597.33Z"/><path class="cls-7" d="M1046.19,342.69s-.07.13-.26.35l-.85,1c-.78.83-1.82,2.14-3.12,3.85a38.5,38.5,0,0,0-7,16.61c-1.25,7.56,0,17,4,26.26a63,63,0,0,0,8,13.69c3.52,4.3,7.16,8.77,10.82,13.4,14.66,18.49,27.29,35.72,36.55,48.1l10.94,14.67,3,4,.75,1.06c.17.24.25.37.23.38a1.87,1.87,0,0,1-.3-.32l-.83-1-3.1-3.9c-2.67-3.4-6.5-8.34-11.19-14.49-9.39-12.27-22.1-29.44-36.76-47.91-3.65-4.63-7.28-9.09-10.79-13.4a63.1,63.1,0,0,1-8.09-13.94c-4.1-9.44-5.26-19-3.9-26.71a38,38,0,0,1,7.32-16.72,42.18,42.18,0,0,1,3.28-3.76l.92-.92C1046.07,342.77,1046.18,342.67,1046.19,342.69Z"/><path class="cls-14" d="M1107.56,366.18c0,.09-1,.43-2.71,1.33a27.45,27.45,0,0,0-6.46,5,54.19,54.19,0,0,0-7.28,9.73c-2.43,3.9-4.85,8.39-8.13,12.66a30.95,30.95,0,0,1-23.58,12.6,29.15,29.15,0,0,1-8.27-.77,18.93,18.93,0,0,1-2.16-.65,2.79,2.79,0,0,1-.73-.31c0-.26,4.18,1.52,11.13,1.06a31.29,31.29,0,0,0,11.62-3.11,30.83,30.83,0,0,0,11.24-9.4c3.22-4.18,5.66-8.64,8.14-12.55a51.53,51.53,0,0,1,7.55-9.73,25.12,25.12,0,0,1,6.76-4.83,17.13,17.13,0,0,1,2.11-.82A2.5,2.5,0,0,1,1107.56,366.18Z"/><path class="cls-14" d="M1064.17,526.15a2,2,0,0,1-.43-.07l-1.23-.28a17.87,17.87,0,0,0-2-.36,22.24,22.24,0,0,0-2.77-.31,51.24,51.24,0,0,0-17.56,2.25,90.36,90.36,0,0,0-11.54,4.22c-4,1.79-8.23,4-12.76,6.17a82.51,82.51,0,0,1-14.7,5.56,43.14,43.14,0,0,1-8.26,1.32,35.29,35.29,0,0,1-8.61-.63,49.9,49.9,0,0,1-15.62-6.44c-4.69-2.8-8.9-6-12.92-8.93-8-6-15.55-10.94-22.78-13.07A36.47,36.47,0,0,0,923,514a28.35,28.35,0,0,0-7.55.88,29.87,29.87,0,0,0-6,2.43,1.54,1.54,0,0,1,.34-.25l1.08-.67a21.61,21.61,0,0,1,4.52-1.86,27.59,27.59,0,0,1,7.65-1.06,36.28,36.28,0,0,1,10.13,1.51c7.39,2.08,15.11,7.07,23.11,13,4,2.94,8.23,6.07,12.87,8.84a49.64,49.64,0,0,0,15.34,6.3,34.31,34.31,0,0,0,8.37.61,43.07,43.07,0,0,0,8.08-1.26A82.92,82.92,0,0,0,1015.5,537c4.52-2.1,8.72-4.32,12.81-6.09a88,88,0,0,1,11.68-4.15,49.86,49.86,0,0,1,17.77-2A23.23,23.23,0,0,1,1064.17,526.15Z"/><path class="cls-14" d="M884.34,510a2,2,0,0,1,.15.63,14.91,14.91,0,0,1,.21,1.82,27,27,0,0,1-.29,6.76,22.37,22.37,0,0,1-3.78,9.3c-2.17,3.19-5.61,5.79-9.33,8s-7.4,4.1-10.41,6.28a28.74,28.74,0,0,0-7,6.79,11.39,11.39,0,0,0-2.1,6.12c0,1.56.24,2.42.14,2.44s-.11-.2-.22-.6a8.61,8.61,0,0,1-.29-1.83,11.22,11.22,0,0,1,1.9-6.49,27.87,27.87,0,0,1,7.08-7.13c3-2.27,6.74-4.18,10.43-6.39s7-4.67,9.11-7.69a22.47,22.47,0,0,0,3.83-8.92,32,32,0,0,0,.59-6.62A17.49,17.49,0,0,1,884.34,510Z"/><path class="cls-14" d="M1158.88,434.69c.07.25-4.48.27-10.79,3.37a32.49,32.49,0,0,0-9.7,7.36,29.62,29.62,0,0,0-4.11,5.9c-1.19,2.19-2,4.69-3.19,7.15a17.54,17.54,0,0,1-4.8,6.4,21,21,0,0,1-6.5,3.61,32,32,0,0,1-12.38,1.54,71.87,71.87,0,0,1-8.32-1,17,17,0,0,1-3-.64,22.54,22.54,0,0,1,3.06.27c2,.22,4.79.59,8.3.69a32.26,32.26,0,0,0,12-1.69,17.86,17.86,0,0,0,10.74-9.59c1.14-2.4,2-4.92,3.23-7.18a29.88,29.88,0,0,1,4.28-6.06,32.21,32.21,0,0,1,10.06-7.37,30.34,30.34,0,0,1,8-2.51,17.58,17.58,0,0,1,2.27-.26A2.73,2.73,0,0,1,1158.88,434.69Z"/><path class="cls-14" d="M1068.47,450.05l-.42.12-1.24.27c-1.1.24-2.72.53-4.82.86a108.23,108.23,0,0,1-18,1.27,83.36,83.36,0,0,1-26.29-4.45,90.59,90.59,0,0,1-14.29-6.71c-4.78-2.63-9.69-5.46-15.1-7.37a34.15,34.15,0,0,0-8.22-1.86,33.16,33.16,0,0,0-8.17.4,52.66,52.66,0,0,0-14.62,5.27c-8.82,4.68-16.26,9.88-23,13.5s-12.53,5.83-16.73,6.53a25.14,25.14,0,0,1-4.87.54l-1.27,0a1.73,1.73,0,0,1-.43,0s.14-.05.43-.08l1.26-.14a28.65,28.65,0,0,0,4.8-.71c4.15-.81,9.93-3,16.49-6.76s14-8.92,22.88-13.69a52.85,52.85,0,0,1,14.86-5.4,33.16,33.16,0,0,1,8.41-.43,34.75,34.75,0,0,1,8.46,1.91c5.52,2,10.46,4.81,15.23,7.45a91.25,91.25,0,0,0,14.14,6.7,84.2,84.2,0,0,0,26,4.6,117.82,117.82,0,0,0,17.88-1c2.1-.27,3.73-.5,4.83-.68l1.26-.18A1.34,1.34,0,0,1,1068.47,450.05Z"/><path class="cls-14" d="M890.63,460.56a6.14,6.14,0,0,0-.1-2.8C890,456,888,454,884.81,453.08c-1.57-.47-3.38-.74-5.32-1.18a13.16,13.16,0,0,1-5.83-2.68,15.37,15.37,0,0,1-4-5.83,42.63,42.63,0,0,1-2.09-7.22,41.89,41.89,0,0,0-2.08-7.07,27.11,27.11,0,0,0-3.41-5.89,25.85,25.85,0,0,0-8.78-7.4,27,27,0,0,0-7.37-2.59c-1.83-.37-2.86-.44-2.86-.54a2.86,2.86,0,0,1,.76,0,17.24,17.24,0,0,1,2.16.2,24.78,24.78,0,0,1,7.62,2.35,26,26,0,0,1,9.17,7.47,27.33,27.33,0,0,1,3.57,6.06,41.31,41.31,0,0,1,2.14,7.22,45.27,45.27,0,0,0,2,7.08,14.85,14.85,0,0,0,3.75,5.52,12.43,12.43,0,0,0,5.45,2.57c1.88.47,3.71.78,5.33,1.31,3.31,1,5.42,3.31,5.88,5.21a4.37,4.37,0,0,1,0,2.2A2,2,0,0,1,890.63,460.56Z"/><path class="cls-14" d="M1034.31,367.25a23.56,23.56,0,0,0-5.34-2.17,16.67,16.67,0,0,0-6.7-.09,35.61,35.61,0,0,0-8.49,2.85c-3,1.38-6.24,3.15-9.74,5a55.35,55.35,0,0,1-11.69,4.85,34.12,34.12,0,0,1-14,.46,55.09,55.09,0,0,1-14.27-4.72c-9.29-4.53-17-10.61-24.48-15.34s-14.66-8.32-21.2-9.69a34.32,34.32,0,0,0-15.62-.19,53.58,53.58,0,0,0-5.51,1.81,21.16,21.16,0,0,1,5.42-2.16,33.71,33.71,0,0,1,15.86-.12c6.65,1.32,14.05,4.82,21.52,9.62s15.26,10.75,24.42,15.21a54,54,0,0,0,14,4.66,33.39,33.39,0,0,0,13.62-.39,54.51,54.51,0,0,0,11.55-4.7c3.5-1.8,6.74-3.56,9.83-4.91a35.43,35.43,0,0,1,8.67-2.77,16.77,16.77,0,0,1,6.87.27,16.52,16.52,0,0,1,4,1.66A8.83,8.83,0,0,1,1034.31,367.25Z"/><path class="cls-8" d="M1024,598.23l5.06,2.52,29.19-.06,5.88-4.79-21.27-35c-2.59,1.13-14,2.92-17.71,4.22a29.6,29.6,0,0,1-9.92,1.66,54.47,54.47,0,0,1-11.23-.92c-.25-.09-.57-.16-.79-.26a3.86,3.86,0,0,0-1.56-.32c-3.16-.28-5.66,3-3.89,5.62s10.38,6.07,21.37,5.76l.51,0c9.66,0,.8,8.08-4.92,12.88a7.59,7.59,0,0,0-2.76,6.89,3.2,3.2,0,0,0,1.29,2.37C1015.73,600.37,1024,598.23,1024,598.23Z"/><path class="cls-7" d="M905.26,593.87a2,2,0,0,1,0-.51c0-.4,0-.89,0-1.51q.08-2.1.21-5.8c.21-5.1.52-12.36.89-21.3.75-18,1.79-42.87,2.93-70.29s1.9-52.31,2.34-70.31c.18-8.95.34-16.21.44-21.32.06-2.46.1-4.4.13-5.79,0-.62,0-1.12,0-1.51a1.69,1.69,0,0,1,.06-.51,2.48,2.48,0,0,1,0,.51c0,.39,0,.89,0,1.51,0,1.39,0,3.33.05,5.8,0,5,0,12.32-.15,21.32-.26,18-1,42.88-2,70.34S908,546.8,907,564.78c-.5,8.94-.91,16.19-1.2,21.29-.16,2.46-.29,4.4-.38,5.79q-.08.92-.12,1.5A2.05,2.05,0,0,1,905.26,593.87Z"/><path class="cls-7" d="M984.45,597.33a3,3,0,0,1-.09-.67c0-.5-.09-1.16-.16-2-.12-1.8-.3-4.37-.53-7.65s-.5-7.39-.65-12.11-.48-10.11-.52-16.06-.24-12.47-.16-19.47c0-3.5,0-7.12.08-10.85s.17-7.57.25-11.5c.46-15.74,1.28-33,2.54-51.15,2.56-36.25,5.8-69,7.87-92.68,1-11.82,1.85-21.4,2.43-28.08.28-3.28.51-5.84.66-7.64.08-.83.15-1.49.2-2a3.35,3.35,0,0,1,.1-.68,5.9,5.9,0,0,1,0,.68c0,.5-.06,1.16-.11,2-.11,1.81-.27,4.38-.48,7.65-.43,6.65-1.17,16.25-2.13,28.11-1.91,23.73-5,56.47-7.59,92.7-1.27,18.11-2.11,35.38-2.61,51.1-.1,3.93-.2,7.77-.3,11.49s-.08,7.34-.13,10.84c-.11,7,0,13.51,0,19.46s.28,11.32.38,16,.32,8.79.49,12.11.27,5.85.35,7.66c0,.83.05,1.49.07,2A3.19,3.19,0,0,1,984.45,597.33Z"/><path class="cls-7" d="M997.84,418.11c-.09-.1.94-.53,2.06.45a2.71,2.71,0,0,1,.89,2.3,2.72,2.72,0,0,1-5,.83,2.7,2.7,0,0,1,.1-2.47c.74-1.29,1.85-1.21,1.8-1.09s-.79.32-1.2,1.38a2.13,2.13,0,0,0,.07,1.76,1.91,1.91,0,0,0,3.34-.55,2.15,2.15,0,0,0-.51-1.69C998.68,418.16,997.84,418.25,997.84,418.11Z"/><path class="cls-7" d="M992.74,499.76c-.09-.09.93-.52,2,.46a2.67,2.67,0,0,1,.9,2.29,2.72,2.72,0,0,1-5,.83,2.68,2.68,0,0,1,.1-2.46c.74-1.29,1.85-1.21,1.79-1.1s-.78.33-1.19,1.39a2.09,2.09,0,0,0,.07,1.76,1.89,1.89,0,0,0,3.33-.56,2.12,2.12,0,0,0-.5-1.69C993.58,499.81,992.74,499.91,992.74,499.76Z"/><path class="cls-14" d="M1123.23,555.9a11.89,11.89,0,0,1-2.45-.31,33,33,0,0,1-6.4-2.05A35.73,35.73,0,0,1,1098,538.9c-2.23-3.79-3.37-7.82-4.53-11.34a33.89,33.89,0,0,0-4-8.9,16.39,16.39,0,0,0-4.62-4.63c-1.32-.82-2.16-1.1-2.13-1.18s.23,0,.63.13a11.34,11.34,0,0,1,1.69.73,15.43,15.43,0,0,1,5,4.56,32.3,32.3,0,0,1,4.31,9c1.22,3.54,2.36,7.48,4.53,11.15a36.6,36.6,0,0,0,15.84,14.5C1119.74,555.31,1123.28,555.7,1123.23,555.9Z"/><path class="cls-15" d="M1309.62,600.69l-30.89-89.75L1293,424.8c4.16-23.22,6.49-43.7.25-55.36-16.68-31.16-36.81-33.95-64.33-41.1-5.67-1.47-48.84-2.93-53.59-1.76-37.45,4.19-61.44,24.05-74.54,56.32l-14.27,57.47L1067,500.48c-3.72,7.34-9.84,12.42-17.26,14l-75.62,25.78.63,14.8-.63,19.95,100.59-18.88c20.17-3.78,40.67-11.22,46.44-30.68l10.84-32c5.3,13.56,11,26,11,26l-7.35,80.83Z"/><path class="cls-15" d="M1283.72,441.22,1255,537.32a46.34,46.34,0,0,1-31,31.08l-119.63,31.88L1088.54,559l108.14-40.2,26.54-96.25s6.12-53.8,54.79-51"/><path class="cls-7" d="M1278,371.49s-.49,0-1.45,0-2.39-.12-4.26,0a47.39,47.39,0,0,0-16,3.27A43,43,0,0,0,1246,380.6a49.28,49.28,0,0,0-9.84,10.09,72.82,72.82,0,0,0-12.61,31.88v.05c-7.35,26.76-16.35,59.56-26.44,96.28l-.06.21-.2.08-108.12,40.23.27-.61c.89,2.32,1.86,4.83,2.82,7.34,4.46,11.64,8.87,23.11,13,34l-.56-.29,102.78-27.34,11.6-3.08c1.9-.52,3.8-1,5.66-1.53a49,49,0,0,0,5.34-2,45.76,45.76,0,0,0,22.6-22.41,64.22,64.22,0,0,0,3.38-9.51q2.86-9.51,5.48-18.22l16.49-54.64c2-6.39,3.47-11.34,4.5-14.73.52-1.66.91-2.93,1.18-3.81s.44-1.29.44-1.29-.11.45-.35,1.31-.62,2.17-1.1,3.84l-4.34,14.78c-3.81,12.88-9.34,31.52-16.21,54.72q-2.6,8.7-5.43,18.24a64.76,64.76,0,0,1-3.38,9.61A46.56,46.56,0,0,1,1230,566.56a52.43,52.43,0,0,1-5.45,2.09c-1.87.56-3.77,1-5.67,1.55l-11.59,3.1-102.77,27.44-.41.11-.15-.4c-4.17-10.85-8.57-22.32-13-34-1-2.51-1.93-5-2.82-7.34l-.17-.45.45-.16,108.14-40.16-.26.29c10.16-36.7,19.24-69.48,26.64-96.23v.05a73.12,73.12,0,0,1,12.84-32.11,49.81,49.81,0,0,1,10-10.13,43.58,43.58,0,0,1,10.45-5.76,46.61,46.61,0,0,1,16.11-3.12,42.09,42.09,0,0,1,4.27.05C1277.52,371.45,1278,371.49,1278,371.49Z"/><path class="cls-7" d="M1202.63,497.18a4.25,4.25,0,0,1-1.43.1,17.3,17.3,0,0,1-3.88-.44,25.54,25.54,0,0,1-11.35-6,27.82,27.82,0,0,1-7.39-10.51,14.82,14.82,0,0,1-.7-2.11,10.64,10.64,0,0,1-.38-1.64,4.31,4.31,0,0,1-.12-1.43c.18,0,.5,2,1.82,4.92a30.22,30.22,0,0,0,7.4,10.06,27.27,27.27,0,0,0,10.88,6.05C1200.6,497,1202.64,497,1202.63,497.18Z"/><path class="cls-7" d="M1131.6,424.07a17.81,17.81,0,0,1-1,2.83c-.7,1.8-1.76,4.39-3,7.62-2.36,6.43-5.68,15.54-6,26a43.32,43.32,0,0,0,2,14.51,53.17,53.17,0,0,0,4.92,11,74.36,74.36,0,0,0,4.55,6.76,23.81,23.81,0,0,1,1.77,2.42s-.22-.16-.57-.53-.87-.92-1.49-1.66a58.4,58.4,0,0,1-4.83-6.65,50.38,50.38,0,0,1-5.18-11,43.08,43.08,0,0,1-2.1-14.79c.36-10.7,3.83-19.85,6.36-26.24,1.29-3.21,2.45-5.76,3.25-7.52A18.18,18.18,0,0,1,1131.6,424.07Z"/><path class="cls-7" d="M1207.2,531.59c-.28.1-1.24-3.82-4.41-7.44s-6.85-5.19-6.71-5.45a5.4,5.4,0,0,1,2.48.86,17.52,17.52,0,0,1,5,4,17,17,0,0,1,3.19,5.48A5.46,5.46,0,0,1,1207.2,531.59Z"/><path class="cls-15" d="M1278.38,573s-26.43,2.35-26.06,19.52l32.91-1.67Z"/><path class="cls-7" d="M1145.92,192.2q-4.7,22.7-9,45.48c-3.59,19.25-6.92,39.37-1.47,58.19,3,10.32,8.47,19.71,13.91,29,3.06,5.21,6.41,10.7,11.83,13.38,7.36,3.64,16.69.77,22.55-5s8.86-13.81,10.88-21.77c3.94-15.54,4.81-31.68,5.42-47.71s1-32.65-3.54-48.19-14.68-30.25-29.68-36.31"/><path class="cls-7" d="M1148.38,180a26.48,26.48,0,0,1,15-5.54c4.37-8.85,14.72-12.89,24.4-14.78,14.26-2.77,12.71-3.16,26,2.69s32.14,22.42,34.53,36.75c2.23,13.32,6.17,24,12,36.17,3.57,7.55,10.73,12.8,14.94,20a29.9,29.9,0,0,1,1.72,26.2c-3.43,8.19-10.68,15.43-10,24.29.39,5.13.21,8.82,2.24,13.55,6.9,16.09,3.68,37.53-11.17,46.81s-36.24,6-47.68-7.21c-9.93-11.51-11.86-27.92-10.87-43.09s4.43-30.24,3.44-45.41"/><path class="cls-7" d="M1165.37,600.27l-.2-5.23L1088,586.9l-33.8-97.17-144.76-3.27,43.79,113.81Q1060.62,601.11,1165.37,600.27Z"/><path class="cls-4" d="M989.78,544.93a7.57,7.57,0,1,0,2.79-10.34A7.57,7.57,0,0,0,989.78,544.93Z"/><path class="cls-16" d="M1200.51,365.93c17.35,0,33-14.79,32.46-36.77l3.12-125.51h0a10.48,10.48,0,0,0-9.38-10.63L1175,187.54a31.5,31.5,0,0,0-34.74,29.36c-1.25,19.88-2,44.19.36,59,4.74,29.82,27.59,33.62,27.59,33.62l-.56,20.83c-.87,22.2,15.74,35.56,32.88,35.56Z"/><path class="cls-7" d="M1151.81,233.08a3.82,3.82,0,0,0,3.68,3.86,3.66,3.66,0,0,0,4-3.45,3.82,3.82,0,0,0-3.69-3.86A3.66,3.66,0,0,0,1151.81,233.08Z"/><path class="cls-7" d="M1145.52,229.55c.47.5,3.37-1.65,7.48-1.64s7.14,2.07,7.58,1.57c.22-.22-.26-1.12-1.58-2.08a10.5,10.5,0,0,0-6.06-1.87,10.08,10.08,0,0,0-6,1.92C1145.71,228.42,1145.28,229.33,1145.52,229.55Z"/><path class="cls-7" d="M1191.53,233.85a3.83,3.83,0,0,0,3.69,3.86,3.66,3.66,0,0,0,3.94-3.45,3.82,3.82,0,0,0-3.68-3.86A3.66,3.66,0,0,0,1191.53,233.85Z"/><path class="cls-7" d="M1186,230.32c.47.5,3.38-1.65,7.49-1.64s7.13,2.07,7.57,1.57c.22-.23-.25-1.12-1.57-2.08a10.49,10.49,0,0,0-6.07-1.87,10.1,10.1,0,0,0-6,1.92C1186.17,229.19,1185.74,230.09,1186,230.32Z"/><path class="cls-7" d="M1171,260.84c0-.24-2.53-.68-6.68-1.21-1-.11-2-.32-2.22-1s.19-1.9.7-3.12c1-2.54,2-5.21,3.11-8,4.31-11.39,7.44-20.76,7-20.93s-4.34,8.93-8.65,20.32l-3,8c-.4,1.19-1.08,2.55-.54,4.12a2.62,2.62,0,0,0,1.72,1.54,7,7,0,0,0,1.79.25C1168.43,261.05,1171,261.07,1171,260.84Z"/><path class="cls-17" d="M1168.19,309.54a75.89,75.89,0,0,0,39.94-10.66s-9.69,20.49-39.54,17.7Z"/><path class="cls-17" d="M1172.77,270.75a7.43,7.43,0,0,1,6.65-2.75,6.75,6.75,0,0,1,4.68,2.51,4.28,4.28,0,0,1,.32,4.9c-1.11,1.57-3.43,1.93-5.39,1.37a15.47,15.47,0,0,1-5.26-3.14,4.56,4.56,0,0,1-1.18-1.22,1.39,1.39,0,0,1,0-1.53"/><path class="cls-7" d="M1183.15,263.68c-.67,0-.68,4.43-4.51,7.6s-8.57,2.68-8.61,3.31c-.06.28,1.06.86,3.07.92a11.12,11.12,0,0,0,7.19-2.51,9.69,9.69,0,0,0,3.49-6.37C1184,264.76,1183.45,263.66,1183.15,263.68Z"/><path class="cls-7" d="M1184.12,223.11c.4,1.12,4.51.59,9.34,1.17s8.73,1.9,9.37.9c.29-.48-.39-1.53-2-2.62a16.37,16.37,0,0,0-14.26-1.57C1184.84,221.7,1183.94,222.58,1184.12,223.11Z"/><path class="cls-7" d="M1147,217.64c.72.93,3.56,0,7-.08s6.29.63,7-.35c.29-.48-.16-1.41-1.43-2.3a10.09,10.09,0,0,0-11.22.35C1147.11,216.22,1146.71,217.18,1147,217.64Z"/><path class="cls-7" d="M1140.86,211.94c11.21-6.51,22.16-12.54,29.17-23.45,3.88,10.93,11.45,16.34,21.49,22.17s21.27,9.2,32.38,12.53c-5.62,5.46-6.37,14.29-5.07,22s4.26,15.18,4.74,23c.65,10.44-3.17,20.69-3.41,31.15-.33,14.34,6,27.9,12.21,40.83l26.94-15.69-3.88-70,.32-49.5-42-39-53.21,5.82Z"/><path class="cls-18" d="M1134.87,359c13.66,13.82,12.21,38.44,27.23,50.78,9.21,7.56,22.66,8.28,34,4.46s20.8-11.56,29.51-19.7,17-16.9,26.87-23.51c9.63-6.42,26.1-10.38,28.43-21.72,1.71-8.31-7-18.29-8.65-26.61-2.61-13.2,11.67-23.41,14.06-36.65,4.76-26.46-9.21-57.53-23.75-80.14s-22.73-47.9-59.62-50c-33-1.47-55.52,14.37-66.5,37.28-5.5,11.49-6.79,24.48-7.86,37.18-2.5,29.66-3.88,61.08,9.83,87.5,2.84,5.47,6.22,12.41,2.4,17.24-3.5,4.43-11.42,4.24-13.63,9.44C1124.85,349.92,1130.75,354.85,1134.87,359ZM1176,183.25c4.42-.19,17.53,0,32.16,19.48,8.75,11.66,8.74,30.56,8.54,47-.14,12.24,0,43.22,0,43.22s1.95,39.12-11.35,42.59c-16.32,4.26-30.62,1.33-42.83-10.3s-19.21-27.94-22-44.57-4.36-33.58-2.17-50.3c1.29-9.89,4.48-20.67,10-29C1159.39,184.75,1176,183.25,1176,183.25Z"/><g class="cls-19"><path d="M1278,336.53c-10.94,5.94-18.46,14.76-27.35,23.46s-18.8,17.12-30.85,20.24-26.68-.59-32.71-11.48c34.15,5.8,73.79-21.47,85.45-54.08a18.87,18.87,0,0,0-.18,8.65C1273.47,327.33,1278,336.53,1278,336.53Z"/></g><g class="cls-19"><path d="M1142.24,327.54a33.57,33.57,0,0,0,16.5,20.85,21.89,21.89,0,0,1,5.21,3.06c1.47,1.38,2.4,3.61,1.58,5.46-.92,2.08-3.68,2.79-5.86,2.15s-3.91-2.28-5.54-3.86c-5.94-5.75-12.08-11.56-13.76-19.65a9.62,9.62,0,0,0,2-4.05A18.2,18.2,0,0,0,1142.24,327.54Z"/></g><path class="cls-7" d="M1269.84,321.13a5.41,5.41,0,0,1-.51,1.06c-.38.68-.88,1.7-1.66,2.94a101.61,101.61,0,0,1-7.05,10.23,111.32,111.32,0,0,1-12.46,13.58,76.67,76.67,0,0,1-18.55,12.87,86.15,86.15,0,0,1-11,3.94,83.86,83.86,0,0,1-10.65,2.38,75.07,75.07,0,0,1-18.43.68,62.57,62.57,0,0,1-12.21-2.33c-1.42-.38-2.47-.82-3.2-1.07A5.06,5.06,0,0,1,1173,365c0-.08,1.56.43,4.39,1.16a69.53,69.53,0,0,0,12.17,2,77,77,0,0,0,18.23-.88,93.77,93.77,0,0,0,21.43-6.32,77.64,77.64,0,0,0,18.36-12.65A118,118,0,0,0,1260.1,335a122.32,122.32,0,0,0,7.26-10c.82-1.21,1.38-2.2,1.81-2.84A5.2,5.2,0,0,1,1269.84,321.13Z"/><path class="cls-7" d="M1186.11,354.87a9,9,0,0,1-2.17.56,32.73,32.73,0,0,1-6.09.55,37.23,37.23,0,0,1-33.1-19.85,33.6,33.6,0,0,1-2.38-5.63,8,8,0,0,1-.52-2.18c.18-.06,1,3.06,3.49,7.49a38.29,38.29,0,0,0,32.52,19.5C1183,355.45,1186.08,354.68,1186.11,354.87Z"/><path class="cls-7" d="M1179,400a4.64,4.64,0,0,1,1.06-.27c.7-.17,1.75-.32,3.06-.64a94.68,94.68,0,0,0,11-3.08c9.19-3,21.3-9,33.24-17.76s21.65-18,28.65-24.77l8.25-8,2.26-2.16a5.1,5.1,0,0,1,.84-.71,5.29,5.29,0,0,1-.7.84l-2.14,2.29c-1.87,2-4.61,4.79-8,8.23A247.16,247.16,0,0,1,1228,379c-12,8.8-24.27,14.74-33.58,17.64a83.43,83.43,0,0,1-11.18,2.81c-1.34.26-2.4.35-3.11.45A4.94,4.94,0,0,1,1179,400Z"/><path class="cls-20" d="M1819.7,438.13l-64.19-75.69-.15.15c-2.53-2.5-4.74-4.71-5.87-6-22.24-25.75-39.9-34.49-73.93-35h0L1609.41,323c-12.29,1-40.2-4.25-66,30l0-.07c-47,58.94-84.74,109.05-82.62,132.7,2.57,28.62,107.06,107.9,116.19,114.77,1.25,0,2.5,0,3.76-.07a23.12,23.12,0,0,1,2.89.12,35.27,35.27,0,0,1,4-.36,26.49,26.49,0,0,1,3.69.27c.15,0,.29,0,.44,0,4.16,0,8.32-.08,12.48-.16a23.82,23.82,0,0,1,6.11.69l124.19-.11-.33-11.94,67.68-43.87c24.42-16.5,37.17-30.91,40.26-52.78C1844.81,472.69,1832.84,452.67,1819.7,438.13Zm-243.39,89.1-44-44.06c0-4.6,24.74-33.62,38.24-49.1l7,67Zm155.06-2.81-3.8-88.27,51.16,52.93Z"/><path class="cls-20" d="M1679.85,555.46l-39.08-79.07a4.43,4.43,0,0,0-5.93-2l-119.19,58.9a4.43,4.43,0,0,0-2,5.93l30.28,61.26c1-.06,2.1-.11,3.15-.11,2.8,0,5.6,0,8.4-.07,3.17-.18,6.34-.34,9.51-.35a25.85,25.85,0,0,1,5.18.54c.48,0,.95,0,1.43,0h.09c3,0,6-.08,9-.17a22.65,22.65,0,0,1,2.86.12,35.8,35.8,0,0,1,4-.36,26.52,26.52,0,0,1,3.7.27l.43,0c2.54,0,5.09,0,7.64-.07l78.52-38.81A4.43,4.43,0,0,0,1679.85,555.46Z"/><path class="cls-20" d="M1596.19,540.15a7.18,7.18,0,1,1-2.37,9.88A7.18,7.18,0,0,1,1596.19,540.15Z"/><path class="cls-20" d="M1726.59,373.27a2.65,2.65,0,0,1,.05.58c0,.43,0,1,0,1.69,0,1.55,0,3.73.08,6.5,0,5.72.1,13.87.17,23.92.11,20.19.9,48.07,2.46,78.84s3.17,58.64,4,78.82c.44,10.09.73,18.25.89,23.9.07,2.77.12,5,.16,6.5,0,.7,0,1.26,0,1.69a2.9,2.9,0,0,1,0,.58,2.45,2.45,0,0,1-.07-.58c0-.43-.07-1-.11-1.68-.08-1.55-.19-3.73-.34-6.5-.28-5.7-.69-13.84-1.19-23.88-1.1-20.22-2.62-48-4.29-78.8s-2.25-58.69-2.19-78.89c.06-10,.1-18.2.14-23.92,0-2.77.06-5,.08-6.5,0-.7,0-1.26,0-1.69A2.65,2.65,0,0,1,1726.59,373.27Z"/><path class="cls-20" d="M1563.23,333.69c8.37-6.08,18.1-4.24,26.48,1.83s13,16.37,13.89,26.68-1.78,20.65-5.72,30.22c-6.32,15.34-15.66,27.75-29.61,43.55l-36,47.2,69.38,67.75L1573,596.29l-58.12-46.76c-19.83-16.76-36.72-33.9-49.12-51.62"/><path class="cls-20" d="M1465.71,497.91a6.21,6.21,0,0,1,.43.54c.29.39.7.93,1.22,1.64,1.07,1.44,2.67,3.58,4.84,6.29a255,255,0,0,0,20.07,22.19c4.57,4.52,9.75,9.38,15.53,14.47s12.3,10.27,19.22,15.83l46.2,37.08-.63.11c8.92-14.11,18.61-29.42,28.72-45.39l.07.58-35.8-34.94L1532,483.51l-.29-.29.25-.33,36-47.18v0h0a236,236,0,0,0,19-23.85,108.18,108.18,0,0,0,12.5-24.54,62.27,62.27,0,0,0,3.92-23.88,39.85,39.85,0,0,0-6.14-19.54,31.51,31.51,0,0,0-12.33-11.06,23,23,0,0,0-12-2.66,18.82,18.82,0,0,0-7.38,2.19c-1.55.83-2.27,1.4-2.3,1.35l.54-.4a15.55,15.55,0,0,1,1.7-1.08,18.54,18.54,0,0,1,7.41-2.33,23,23,0,0,1,12.19,2.58,31.74,31.74,0,0,1,12.59,11.12,40.3,40.3,0,0,1,6.32,19.8,62.59,62.59,0,0,1-3.86,24.14,108.52,108.52,0,0,1-12.51,24.75,234.45,234.45,0,0,1-19,24l0,0-35.92,47.22,0-.61,33.6,32.79,35.79,35,.27.27-.2.31c-10.13,16-19.84,31.27-28.79,45.36l-.25.41-.38-.31-46.12-37.2c-6.9-5.57-13.44-10.73-19.17-15.91s-10.94-10-15.48-14.57A242.66,242.66,0,0,1,1472,506.55c-2.14-2.74-3.7-4.91-4.73-6.38l-1.16-1.68C1465.83,498.11,1465.71,497.91,1465.71,497.91Z"/><path class="cls-20" d="M1803.58,487.77a28.77,28.77,0,0,1-3.64-1.12,25.19,25.19,0,0,0-17.71.92,28.5,28.5,0,0,1-3.5,1.51A10.66,10.66,0,0,1,1782,487a23.2,23.2,0,0,1,9-2.41,23.44,23.44,0,0,1,9.21,1.46A10.89,10.89,0,0,1,1803.58,487.77Z"/><path class="cls-20" d="M1638.05,561.59a3.77,3.77,0,0,0-1.54.32c-.22.09-.54.17-.79.26a54.61,54.61,0,0,1-11.1.91,29.56,29.56,0,0,1-9.82-1.65c-3.64-1.29-14.17-2.78-16.74-3.9l-21.82,34.33,7.9,6.44a17.88,17.88,0,0,0,2.66,1.78c.25,0,.5-.05.75-.05a26.63,26.63,0,0,1,3.7.27l.43,0c4.1,0,8.2-.08,12.31-.16l12-5.94s8.23,2.12,10.64.6a3.19,3.19,0,0,0,1.27-2.34,7.49,7.49,0,0,0-2.73-6.82c-5.66-4.74-14.42-12.75-4.87-12.74l.51,0c10.87.31,19.35-3.05,21.14-5.7S1641.18,561.32,1638.05,561.59Z"/><path class="cls-21" d="M1645.15,353.15c-16.73,0-31.78-14.26-31.64-35.5l-3-121,.34.05a10.13,10.13,0,0,1,9.05-10.26l49.88-5.27a30.36,30.36,0,0,1,33.49,28.3c1.2,19.17,1.92,42.61-.35,56.91-4.56,28.75-26.6,32.41-26.6,32.41l.54,20.09c.85,21.4-15.17,34.28-31.7,34.28Z"/><path class="cls-7" d="M1692.11,225.06a3.7,3.7,0,0,1-3.56,3.73,3.53,3.53,0,0,1-3.8-3.33,3.68,3.68,0,0,1,3.55-3.72A3.53,3.53,0,0,1,1692.11,225.06Z"/><path class="cls-7" d="M1698.17,221.66c-.46.48-3.25-1.59-7.22-1.58s-6.87,2-7.3,1.51c-.21-.21.25-1.08,1.52-2a10.13,10.13,0,0,1,5.85-1.81,9.74,9.74,0,0,1,5.74,1.86C1698,220.57,1698.4,221.44,1698.17,221.66Z"/><path class="cls-7" d="M1653.81,225.81a3.7,3.7,0,0,1-3.56,3.72,3.53,3.53,0,0,1-3.8-3.33,3.68,3.68,0,0,1,3.55-3.72A3.54,3.54,0,0,1,1653.81,225.81Z"/><path class="cls-7" d="M1659.17,222.4c-.46.48-3.26-1.59-7.22-1.58s-6.88,2-7.31,1.51c-.21-.21.25-1.08,1.53-2a10.07,10.07,0,0,1,5.84-1.81,9.78,9.78,0,0,1,5.75,1.86C1659,221.32,1659.39,222.19,1659.17,222.4Z"/><path class="cls-7" d="M1673.57,251.83c0-.23,2.45-.66,6.44-1.17,1-.1,2-.3,2.15-1s-.19-1.83-.68-3l-3-7.71c-4.16-11-7.17-20-6.73-20.18s4.18,8.6,8.34,19.59l2.87,7.76c.39,1.15,1,2.46.53,4a2.57,2.57,0,0,1-1.67,1.48,6.8,6.8,0,0,1-1.72.24C1676.08,252,1673.58,252.05,1673.57,251.83Z"/><path class="cls-22" d="M1676.31,298.78a73.14,73.14,0,0,1-38.51-10.27s10,21.63,38.74,18.94Z"/><path class="cls-7" d="M1661,215.45c-.39,1.08-4.35.57-9,1.13s-8.42,1.83-9,.86c-.28-.46.38-1.47,1.89-2.52a15.84,15.84,0,0,1,13.75-1.52C1660.26,214.09,1661.12,214.94,1661,215.45Z"/><path class="cls-7" d="M1696.71,210.18c-.7.9-3.43,0-6.72-.08s-6.07.6-6.71-.34c-.28-.46.16-1.36,1.38-2.21a9.72,9.72,0,0,1,10.82.33C1696.64,208.81,1697,209.74,1696.71,210.18Z"/><path class="cls-7" d="M1610.85,224.13c4.88-.87,8.8.63,10.17,5.4,2.07,7.18.66,10.74,1,15.68l7.26-2.17c-1.8-16.58,2.31-28.85.51-45.42,10.11,3.27,24-3,28.33-13.46a28.18,28.18,0,0,0,30,2.11c2.67,5.07,8.78,6.78,12.35,5.78,5.52-1.55,11.24-9.31,12.82-14.82,2.85-9.91,1.46-24.14-6.58-30.6s-24.17-4.92-30.43,3.28c-2.47,3.24-2.76,9.23-6.75,10.05-3.54.72-6.76-1.9-10-3.5-10.1-5-24,1.64-26.54,12.63-8.44-5-18.66-8.33-28.11-5.61s-17,13.17-13.76,22.46c1.34,3.89,4.33,7.24,4.66,11.33.63,7.92-8.85,15.08-5.82,22.43,1.69,4.1,6.66,5.93,8.9,9.76,2.51,4.3.95,9.7,1.16,14.67.34,8.3,4.58,20.58,12.54,22.94"/><path class="cls-21" d="M1611.57,224c-3,.28-4.37,2.23-5.49,4.39a15.17,15.17,0,0,0-1.49,7.07c0,3.79,1,7.72,3.47,10.54s6.84,4.23,10.26,2.62"/><path class="cls-22" d="M1616.54,242.41c0,.09-1.07.49-2.76-.11a5.75,5.75,0,0,1-2.49-1.82,6.47,6.47,0,0,1-1.33-3.55,6.74,6.74,0,0,1,.74-3.7,6.42,6.42,0,0,1,2-2.29c1.48-1,2.64-.93,2.63-.83a21.2,21.2,0,0,0-2.23,1.36,6.37,6.37,0,0,0-2.24,5.39,5.72,5.72,0,0,0,3.14,4.82A15.56,15.56,0,0,0,1616.54,242.41Z"/><path class="cls-14" d="M1660.94,265.88c3.55,2.5,10.51,1.18,13.1-2.51a69.57,69.57,0,0,1-15.2-11.2S1653.67,260.77,1660.94,265.88Z"/><path class="cls-17" d="M1672.7,274.28c-.16.22-2-1.12-4.62-1.09s-4.47,1.27-4.63,1.05.28-.57,1.09-1.07a7,7,0,0,1,3.55-.93,6.82,6.82,0,0,1,3.53,1C1672.43,273.71,1672.78,274.19,1672.7,274.28Z"/><path class="cls-23" d="M1628.41,390.78c8-11.22,16.87-27.6,20.91-35.31,7.51-14.33,6.25-15.06,4.44-15.7-4.84-1.71-14.16,24.69-15.42,17.78s15.12-30.88,10-32.46c-6.69-2.06-16,25.78-16.9,28.07s-4.27.91-3.3-1.11c1.4-2.91,15.33-33.82,8.78-35.9-3.64-1.16-5,5.64-5,5.64s-10.92,29.94-14,28.85,2.72-18.91,5.11-24.77.59-9.33-2.81-8.31c-2.32.7-10,18.45-12.27,24.29s-8,22-11.58,11.55c-.06-.17-.13-.31-.19-.47-3.2-10.4-9.11-17.35-12.18-18.2s-5.3,2.56-4,5.43a3.82,3.82,0,0,0,.79,1.37c.16.17.33.45.5.66a53.9,53.9,0,0,1,4.43,10.22,29.29,29.29,0,0,1,1.59,9.82c0,3.87,1.91,15.15,1.68,17.94"/><path class="cls-24" d="M1587.22,376.15l-44,87.27s-24.89-72-38.31-100.64c-5.12-10.93-15.37-18.48-25.22-23.5v-.19c-.69-.29-1.37-.55-2.06-.82a103.66,103.66,0,0,0-22.16-7.63c-46.44-13.29-90.18-8.65-140.81,9.06,0,0-26.29,7.07-39,41.36-11.47,30.89-24.32,78.18-26.53,86.59-15.78,53.08,6.75,82.65,38.09,79,12.92-2,23.91-12.66,28.77-16.88l16.57-15.58.37,12.06-18.54,74.49,190.55-.4-34.38-88.22,7.63-40.44,13.08,31.08a54.45,54.45,0,0,0,99.82,1.28l44.57-112.18Z"/><path class="cls-7" d="M1357.72,484.93a18.27,18.27,0,0,1-1.72,2.46c-1.15,1.53-2.87,3.73-5.07,6.37-4.38,5.3-10.71,12.4-18,19.91s-14.32,14-19.55,18.44c-2.61,2.25-4.77,4-6.3,5.17a16.61,16.61,0,0,1-2.43,1.75,19,19,0,0,1,2.2-2c1.45-1.26,3.54-3.09,6.09-5.39,5.1-4.59,12-11.11,19.31-18.6s13.71-14.51,18.21-19.69c2.26-2.58,4-4.7,5.3-6.16A16.88,16.88,0,0,1,1357.72,484.93Z"/><path class="cls-7" d="M1471.06,509.3a4.52,4.52,0,0,1,.11-1l.49-2.89c.49-2.63,1.15-6.21,2-10.58,1.68-8.93,4-21.27,5.8-35,.45-3.44.87-6.79,1.23-10a54.62,54.62,0,0,0,.52-9.33,93.27,93.27,0,0,0-2.34-15.7c-1-4.43-1.89-8-2.39-10.49-.25-1.25-.4-2.23-.48-2.9a3.54,3.54,0,0,1,0-1,4.87,4.87,0,0,1,.21,1c.13.66.34,1.62.65,2.85.6,2.46,1.61,6,2.68,10.42a87.78,87.78,0,0,1,2.56,15.81,53.66,53.66,0,0,1-.47,9.47c-.35,3.26-.76,6.62-1.21,10.06-1.84,13.76-4.24,26.11-6.09,35-.93,4.34-1.7,7.91-2.26,10.52-.27,1.16-.49,2.1-.66,2.85A4.49,4.49,0,0,1,1471.06,509.3Z"/><path class="cls-7" d="M1539.29,484.75c-.26-.05.42-4.84,1.51-10.69s2.19-10.57,2.44-10.52-.42,4.83-1.51,10.69S1539.54,484.79,1539.29,484.75Z"/><path class="cls-7" d="M1546,487.33c-.26,0-1.11-5.47-1.9-12.27s-1.22-12.36-1-12.39,1.11,5.47,1.9,12.28S1546.27,487.3,1546,487.33Z"/><path class="cls-7" d="M1405.45,600.35c-.26,0-.48-29.25-.48-65.32s.22-65.32.48-65.32.47,29.24.47,65.32S1405.71,600.35,1405.45,600.35Z"/><g class="cls-2"><path d="M1477,415.6c8.92,17.12,16.7,34.16,17.4,53.45.55,15-5.46,27.53.74,41.21-.29.24-5.59-11.55-7.93-17.08-4.82-11.4-9.07-21.56-9.07-21.56s3.32-25.72,3.59-30.1S1477,415.6,1477,415.6Z"/></g><g class="cls-2"><path d="M1255.85,502.58c0,8.59-5.34-19.75-.34-26.73,3.5-4.88,9.52-7.22,15.33-8.7s11.92-2.4,17.09-5.45c6.67-3.94,10.88-10.86,15.58-17s10.9-32.3,18.63-32.85V450c-18.18,11.44-37.41,22.94-57.52,32.26A26.75,26.75,0,0,0,1255.85,502.58Z"/></g><g class="cls-2"><path d="M1332.53,514.2c12.46-7,21.56-16.3,35.64-18.79,13.56-2.39,27.5.08,41.23-.93q-1.12-10.41-2.27-20.83l-39.26-.44Z"/></g><path class="cls-7" d="M1322.14,411.36c.26,0,.47,8.5.47,19s-.21,19-.47,19-.48-8.5-.48-19S1321.88,411.36,1322.14,411.36Z"/><path class="cls-7" d="M1255.81,502.38a8.47,8.47,0,0,1-.21-3.38,24.22,24.22,0,0,1,6.38-14.8,8.55,8.55,0,0,1,2.59-2.17c.23.21-3.74,3.63-6.18,9.4S1256.11,502.4,1255.81,502.38Z"/><path class="cls-7" d="M1263.65,482.61a16.47,16.47,0,0,0,2.87-1.05c1.82-.72,4.42-1.85,7.61-3.31,6.38-2.92,15-7.27,24.26-12.67s17.22-10.82,22.85-14.94c2.82-2.06,5.06-3.77,6.58-5a15.74,15.74,0,0,0,2.29-2,18.39,18.39,0,0,0-2.54,1.67l-6.76,4.73c-5.73,4-13.77,9.27-23,14.66s-17.76,9.81-24,12.88l-7.46,3.61A17.42,17.42,0,0,0,1263.65,482.61Z"/><path class="cls-7" d="M1502.7,248.39c-3.12-4.1-8.09-7.21-9-12.27-1.25-6.72,5.38-13,4.23-19.74-.8-4.61-5.05-7.84-9.36-9.63s-9-2.64-13.07-5c-4.84-2.84-8.26-7.67-10.42-12.85-.6-1.44-1.1-2.92-1.56-4.41a46.9,46.9,0,0,0-2.2-9.45l-.45-2.4.2,1.76a19.23,19.23,0,0,0-2.36-4.28c-3.33-4.43-10-6.9-14.57-3.78l2.17-1.47a42,42,0,0,0-32.42-25.41,39.08,39.08,0,0,0-8.23-.28c-9.8-.5-24,2.36-30,6.15-7.64,4.84-15.47,11.49-19.3,19.69-2.06,4.43-3.45,9.53-7.35,12.48-5.2,3.93-12.51,2.41-19,3.14-10.71,1.21-20,9.42-23.65,19.54s-2.12,21.75,3,31.24c1.13,2.1,2.46,4.51,1.57,6.72-.69,1.72-2.49,2.66-4.09,3.58-4.22,2.42-8.09,5.84-9.91,10.36s-1.12,10.25,2.55,13.45c3,2.6,7.39,3,11.11,1.6a23.9,23.9,0,0,0-1.7,8.59c0,6.42,3.23,13,8.93,16s13.67,1.4,17-4.08a22.37,22.37,0,0,0,34.57,18.89c2.7-1.76,5.47-4.23,8.65-3.72s5,3.59,7.16,5.86c5.83,6.05,15.76,6.76,23.41,3.31s13.3-10.31,17.37-17.66a13.53,13.53,0,0,0,24.14-3.38c6.74,8.63,20.15,11.16,29.57,5.57,6.41-3.81,10.4-11,10.93-18.43a18.58,18.58,0,0,0,12.07-29.67ZM1319.76,254a.36.36,0,0,1,0-.1,1.16,1.16,0,0,1,.19-.08Z"/><path class="cls-23" d="M1435.16,299.74s23.3-3.87,28.12-34.26c2.4-15.11,1.64-39.89.37-60.15a32.1,32.1,0,0,0-35.4-29.92L1375.52,181a10.68,10.68,0,0,0-9.56,10.84l5.54,132c-3.84.82-12.56,2.72-16.82,4,0,0,40.79,91.16,50.77,90.1s49.9-87.32,49.9-87.32a207.56,207.56,0,0,0-21.14-5.18A253.51,253.51,0,0,1,1435.16,299.74Z"/><path class="cls-7" d="M1451.86,221.82a3.89,3.89,0,0,1-3.76,3.93,3.71,3.71,0,0,1-4-3.51,3.9,3.9,0,0,1,3.75-3.94A3.73,3.73,0,0,1,1451.86,221.82Z"/><path class="cls-7" d="M1458.27,218.22c-.48.51-3.43-1.68-7.63-1.66s-7.27,2.1-7.72,1.59c-.22-.23.27-1.14,1.61-2.12a10.71,10.71,0,0,1,6.18-1.91,10.26,10.26,0,0,1,6.07,2C1458.07,217.07,1458.51,218,1458.27,218.22Z"/><path class="cls-7" d="M1411.38,222.6a3.91,3.91,0,0,1-3.76,3.94,3.73,3.73,0,0,1-4-3.52,3.89,3.89,0,0,1,3.75-3.93A3.74,3.74,0,0,1,1411.38,222.6Z"/><path class="cls-7" d="M1417,219c-.48.51-3.44-1.67-7.63-1.66s-7.26,2.11-7.72,1.59c-.22-.22.26-1.14,1.61-2.12a10.72,10.72,0,0,1,6.18-1.9,10.25,10.25,0,0,1,6.08,2C1416.84,217.86,1417.28,218.78,1417,219Z"/><path class="cls-7" d="M1432.27,250.11c0-.24,2.58-.69,6.81-1.23,1.07-.11,2.08-.32,2.26-1s-.19-1.93-.71-3.18c-1-2.59-2.06-5.31-3.17-8.15-4.4-11.62-7.58-21.16-7.11-21.34s4.41,9.1,8.81,20.71l3,8.21c.4,1.21,1.1,2.6.55,4.2a2.7,2.7,0,0,1-1.76,1.57,7.18,7.18,0,0,1-1.82.25C1434.92,250.33,1432.28,250.35,1432.27,250.11Z"/><path class="cls-25" d="M1435.16,299.74a77.29,77.29,0,0,1-40.7-10.86s9.88,20.88,40.29,18Z"/><path class="cls-25" d="M1420.45,256.67a8.21,8.21,0,0,1,3.09-1.32,2.73,2.73,0,0,1,2.85,1.34,6.12,6.12,0,0,0,.44,1.05c.61.84,1.9.54,2.9.83,1.55.45,2.2,2.5,1.61,4a6.17,6.17,0,0,1-3.56,3.13,13.1,13.1,0,0,1-6.52.9,5.6,5.6,0,0,1-4-2,4.75,4.75,0,0,1,.32-5.2,14,14,0,0,1,4.16-3.6"/><path class="cls-7" d="M1419.92,253c.68,0,.69,4.51,4.59,7.74s8.74,2.74,8.78,3.37c.06.29-1.08.89-3.13.94a11.32,11.32,0,0,1-7.33-2.55,9.83,9.83,0,0,1-3.55-6.5C1419.1,254.11,1419.61,253,1419.92,253Z"/><path class="cls-7" d="M1418.93,211.66c-.41,1.14-4.6.6-9.52,1.19s-8.9,1.94-9.55.92c-.3-.49.4-1.57,2-2.67a16.65,16.65,0,0,1,14.53-1.6C1418.2,210.22,1419.11,211.12,1418.93,211.66Z"/><path class="cls-7" d="M1456.73,208.74c-.74,1-3.63,0-7.1-.08s-6.42.64-7.1-.36c-.29-.48.17-1.43,1.46-2.34a9.87,9.87,0,0,1,5.77-1.56,9.77,9.77,0,0,1,5.66,1.92C1456.65,207.3,1457.06,208.28,1456.73,208.74Z"/><path class="cls-7" d="M1445.87,170.9A41.22,41.22,0,0,1,1396,202.5a39.15,39.15,0,0,1-23.1,30.74,83.38,83.38,0,0,1,9.82,50c-.89,7.36-3,15.06-8.55,20-8.44,7.56-22.68,5.72-30.79-2.18-7.78-7.57-10.52-19.45-8.33-30.07s8.87-20,17.26-26.87a19.27,19.27,0,0,1-9.93-33c2.39-2.25,5.4-3.93,7.2-6.68,1.71-2.59,2.11-5.8,3.15-8.73,2.72-7.66,9.56-13,16.08-17.82,5.51-4.12,11.56-8.42,18.44-8.4,3.67,0,7.31,1.28,11,.78,5-.67,8.91-4.46,13-7.34,5.84-4.06,13.07-6.56,20.1-5.46s13.6,6.36,14.93,13.35"/><path class="cls-7" d="M1443.16,173.9c-1.07,5.87,1.9,11.89,6.22,16s9.85,6.66,15.28,9.15c-2.14-5.72-4.31-11.51-7.87-16.47s-8.73-9.06-14.77-10"/><path class="cls-14" d="M1309.48,244a3.86,3.86,0,0,1-.16-1.91,7.3,7.3,0,0,1,2.72-4.7c1.85-1.61,4.91-2.41,8.29-2.26s7.19,1.13,11.35.87a14.34,14.34,0,0,0,11.06-6.84,14.59,14.59,0,0,0,2.07-7.15c.18-2.61,0-5.34.09-8.18a14.67,14.67,0,0,1,2.66-8.31,17.34,17.34,0,0,1,7.28-5.47c5.72-2.59,12.26-2.63,18.52-3.8a26.43,26.43,0,0,0,8.83-3.09,23.42,23.42,0,0,0,6.58-6.23c3.55-4.88,5.93-10.32,9.19-15a32,32,0,0,1,25.5-13.84,31.15,31.15,0,0,1,11.32,1.93,31.85,31.85,0,0,1,7.66,4.05,24.06,24.06,0,0,1,5.36,5,2,2,0,0,1-.37-.32l-1-1a33.91,33.91,0,0,0-4.21-3.43,31.8,31.8,0,0,0-18.74-5.61,31.4,31.4,0,0,0-24.81,13.67c-3.18,4.55-5.53,10-9.15,15a24.33,24.33,0,0,1-6.84,6.48,27,27,0,0,1-9.14,3.22c-6.4,1.18-12.81,1.23-18.33,3.72a16.44,16.44,0,0,0-6.92,5.16,13.86,13.86,0,0,0-2.52,7.82c-.15,2.75.07,5.49-.12,8.18a15.45,15.45,0,0,1-2.24,7.51,15,15,0,0,1-11.68,7.1c-4.34.21-8.09-.92-11.42-1s-6.24.53-8,2a7.3,7.3,0,0,0-2.77,4.44A8.46,8.46,0,0,0,1309.48,244Z"/><polygon class="cls-7" points="1354.68 384.41 1356.59 432.88 1361.48 479.26 1413.01 477.07 1409.31 385.45 1354.68 384.41"/><polygon class="cls-10" points="1347.1 384.24 1349.03 432.88 1353.92 479.26 1405.45 477.07 1401.74 385.31 1347.1 384.24"/><path class="cls-23" d="M1342.27,484.93c13.81-.26,32.2-3,40.8-4.37,16-2.55,15.81-4,15.24-5.83-1.53-4.91-28.27,3.42-23.47-1.72s33.79-6.36,32-11.42c-2.36-6.59-30.2,2.64-32.61,3.25s-3.28-2.88-1.08-3.31c3.17-.62,36.27-7.95,34-14.44-1.25-3.61-7.49-.59-7.49-.59s-30.52,9.15-31.48,6.05,16.78-9.13,22.9-10.73,7.83-5.1,5-7.22c-1.94-1.44-20.79,3-26.81,4.7s-22.44,6.72-16.17-2.37l.26-.43c6.42-8.79,8.45-17.68,7.29-20.65s-5.22-2.71-6.76,0a3.8,3.8,0,0,0-.62,1.45c0,.23-.16.54-.23.79a54.58,54.58,0,0,1-5.54,9.67,29.2,29.2,0,0,1-6.92,7.15c-3.12,2.27-11,10.59-13.37,12.07"/><polygon class="cls-24" points="1330.45 444.25 1357.72 484.93 1312.8 530.75 1314.32 456.44 1330.45 444.25"/><path class="cls-5" d="M66.27,108.18c0,.68-5,1.22-11.07,1.22s-11.08-.54-11.08-1.22,5-1.23,11.08-1.23S66.27,107.5,66.27,108.18Z"/><path class="cls-5" d="M78,78c.68,0,1.22,5,1.22,11.24s-.54,11.24-1.22,11.24-1.23-5-1.23-11.24S77.36,78,78,78Z"/><path class="cls-5" d="M90.57,107.46c0-.68,5-1.23,11.08-1.23s11.07.55,11.07,1.23-5,1.22-11.07,1.22S90.57,108.13,90.57,107.46Z"/><path class="cls-5" d="M78.8,137.59c-.67,0-1.22-5-1.22-11.24s.55-11.24,1.22-11.24,1.23,5,1.23,11.24S79.48,137.59,78.8,137.59Z"/><path class="cls-5" d="M96.71,124.67c-.52.43-2.7-1.33-4.88-3.93s-3.52-5.07-3-5.51,2.71,1.33,4.88,3.94S97.23,124.23,96.71,124.67Z"/><path class="cls-5" d="M95.67,90.49c.48.48-1,2.71-3.21,5s-4.48,3.74-5,3.26,1-2.71,3.21-5S95.19,90,95.67,90.49Z"/><path class="cls-5" d="M70.28,99.2c-.43.52-2.53-.51-4.68-2.3s-3.54-3.66-3.11-4.18,2.53.51,4.68,2.3S70.71,98.68,70.28,99.2Z"/><path class="cls-5" d="M69.28,114.26c.5.46-.75,2.65-2.8,4.9s-4.12,3.7-4.62,3.25.76-2.65,2.81-4.9S68.78,113.8,69.28,114.26Z"/><path class="cls-5" d="M691.36,49.87c0,.38-2.81.69-6.28.69s-6.29-.31-6.29-.69,2.81-.7,6.29-.7S691.36,49.48,691.36,49.87Z"/><path class="cls-5" d="M698,32.76c.39,0,.7,2.86.7,6.38s-.31,6.38-.7,6.38-.69-2.86-.69-6.38S697.66,32.76,698,32.76Z"/><path class="cls-5" d="M705.16,49.46c0-.39,2.81-.7,6.29-.7s6.29.31,6.29.7-2.82.69-6.29.69S705.16,49.84,705.16,49.46Z"/><path class="cls-5" d="M698.48,66.57c-.39,0-.7-2.86-.7-6.39s.31-6.38.7-6.38.69,2.86.69,6.38S698.86,66.57,698.48,66.57Z"/><path class="cls-5" d="M708.64,59.23c-.29.24-1.53-.76-2.77-2.23s-2-2.88-1.7-3.13,1.54.76,2.77,2.23S708.94,59,708.64,59.23Z"/><path class="cls-5" d="M708.06,39.83c.27.27-.55,1.53-1.83,2.83s-2.54,2.12-2.82,1.85.55-1.54,1.83-2.83S707.78,39.56,708.06,39.83Z"/><path class="cls-5" d="M693.64,44.77c-.25.29-1.43-.29-2.66-1.31s-2-2.07-1.76-2.37,1.43.29,2.65,1.3S693.89,44.47,693.64,44.77Z"/><path class="cls-5" d="M693.07,53.32c.29.26-.43,1.5-1.59,2.78s-2.34,2.1-2.62,1.84.43-1.5,1.59-2.78S692.79,53.06,693.07,53.32Z"/><path class="cls-5" d="M405.66,193c0,.3-2.16.54-4.82.54S396,193.26,396,193s2.15-.53,4.82-.53S405.66,192.67,405.66,193Z"/><path class="cls-5" d="M410.78,179.85c.29,0,.53,2.19.53,4.89s-.24,4.89-.53,4.89-.54-2.19-.54-4.89S410.48,179.85,410.78,179.85Z"/><path class="cls-5" d="M416.23,192.65c0-.3,2.16-.53,4.82-.53s4.82.23,4.82.53-2.16.53-4.82.53S416.23,192.94,416.23,192.65Z"/><path class="cls-5" d="M411.11,205.76c-.29,0-.53-2.19-.53-4.89s.24-4.89.53-4.89.53,2.19.53,4.89S411.41,205.76,411.11,205.76Z"/><path class="cls-5" d="M418.9,200.14c-.22.19-1.17-.58-2.12-1.71s-1.53-2.21-1.3-2.4,1.17.58,2.12,1.71S419.13,200,418.9,200.14Z"/><path class="cls-5" d="M418.45,185.27c.21.2-.42,1.17-1.4,2.17s-1.95,1.62-2.16,1.42.42-1.18,1.4-2.17S418.24,185.06,418.45,185.27Z"/><path class="cls-5" d="M407.4,189.05c-.19.23-1.1-.22-2-1s-1.55-1.59-1.36-1.81,1.1.22,2,1S407.59,188.83,407.4,189.05Z"/><path class="cls-5" d="M407,195.61c.22.2-.33,1.15-1.22,2.13s-1.8,1.61-2,1.42S404.07,198,405,197,406.75,195.41,407,195.61Z"/><path class="cls-5" d="M661.79,213.36c0,.38-2.82.69-6.29.69s-6.29-.31-6.29-.69,2.81-.7,6.29-.7S661.79,213,661.79,213.36Z"/><path class="cls-5" d="M668.46,196.25c.39,0,.7,2.86.7,6.38s-.31,6.38-.7,6.38-.69-2.86-.69-6.38S668.08,196.25,668.46,196.25Z"/><path class="cls-5" d="M675.58,213c0-.39,2.81-.7,6.29-.7s6.29.31,6.29.7-2.82.69-6.29.69S675.58,213.33,675.58,213Z"/><path class="cls-5" d="M668.9,230.06c-.39,0-.7-2.86-.7-6.39s.31-6.38.7-6.38.69,2.86.69,6.38S669.28,230.06,668.9,230.06Z"/><path class="cls-5" d="M679.06,222.72c-.29.24-1.53-.76-2.77-2.23s-2-2.88-1.7-3.13,1.54.76,2.77,2.23S679.36,222.47,679.06,222.72Z"/><path class="cls-5" d="M678.48,203.32c.27.27-.55,1.53-1.83,2.83s-2.54,2.12-2.82,1.85.55-1.54,1.83-2.83S678.2,203.05,678.48,203.32Z"/><path class="cls-5" d="M664.06,208.26c-.25.29-1.43-.29-2.65-1.31s-2-2.07-1.77-2.37,1.43.29,2.66,1.31S664.31,208,664.06,208.26Z"/><path class="cls-5" d="M663.49,216.81c.29.26-.42,1.5-1.59,2.78s-2.34,2.1-2.62,1.85.43-1.51,1.59-2.79S663.21,216.55,663.49,216.81Z"/><path class="cls-5" d="M330.25,51l.82,2a13.88,13.88,0,0,0,7.61,7.55l2.13.86-2.05.83a13.92,13.92,0,0,0-7.67,7.69l-.58,1.43-.86-1.8a13.89,13.89,0,0,0-7.77-7L320,61.77l2.43-1.18a13.91,13.91,0,0,0,6.78-7.17Z"/><path class="cls-5" d="M10.73,198.19l.55,1.31a9.26,9.26,0,0,0,5,5l1.42.57-1.36.56a9.25,9.25,0,0,0-5.1,5.1l-.38,1-.57-1.2a9.29,9.29,0,0,0-5.17-4.68l-1.23-.45,1.61-.78a9.25,9.25,0,0,0,4.51-4.77Z"/><path class="cls-5" d="M815.84,71.29l.54,1.3a9.21,9.21,0,0,0,5.06,5l1.41.58-1.36.55a9.22,9.22,0,0,0-5.09,5.11l-.39,1-.57-1.19a9.23,9.23,0,0,0-5.16-4.68L809,78.47l1.61-.79a9.23,9.23,0,0,0,4.51-4.76Z"/><path class="cls-5" d="M377.11,389.81l3.05,7.32,7.51,3.05-2,.83A13.91,13.91,0,0,0,378,408.7l-.57,1.43-.87-1.8a13.9,13.9,0,0,0-7.76-7l-1.86-.68,2.43-1.18a13.93,13.93,0,0,0,6.77-7.17Z"/><path class="cls-5" d="M482.11,39.06l.39.92a6.49,6.49,0,0,0,3.57,3.54l1,.41-1,.39a6.49,6.49,0,0,0-3.6,3.6l-.27.68-.41-.85a6.49,6.49,0,0,0-3.64-3.3l-.87-.32,1.14-.55a6.58,6.58,0,0,0,3.18-3.37Z"/><path class="cls-5" d="M228.51,189.87l.49,1.19a8.39,8.39,0,0,0,4.59,4.55l1.29.52-1.23.5a8.4,8.4,0,0,0-4.63,4.64l-.35.87-.52-1.09a8.44,8.44,0,0,0-4.69-4.25l-1.13-.41,1.47-.71a8.35,8.35,0,0,0,4.09-4.33Z"/><path class="cls-5" d="M205.58,460c0,.68-5,1.23-11.08,1.23s-11.08-.55-11.08-1.23,5-1.22,11.08-1.22S205.58,459.31,205.58,460Z"/><path class="cls-5" d="M217.34,429.86c.68,0,1.23,5,1.23,11.24s-.55,11.24-1.23,11.24-1.22-5-1.22-11.24S216.67,429.86,217.34,429.86Z"/><path class="cls-5" d="M229.87,459.27c0-.68,5-1.23,11.08-1.23s11.08.55,11.08,1.23-5,1.23-11.08,1.23S229.87,460,229.87,459.27Z"/><path class="cls-5" d="M218.11,489.41c-.68,0-1.23-5-1.23-11.24s.55-11.25,1.23-11.25,1.22,5,1.22,11.25S218.78,489.41,218.11,489.41Z"/><path class="cls-5" d="M236,476.48c-.52.43-2.7-1.33-4.87-3.93s-3.52-5.07-3-5.5,2.7,1.32,4.88,3.93S236.53,476.05,236,476.48Z"/><path class="cls-5" d="M235,442.3c.48.48-1,2.71-3.22,5s-4.48,3.74-5,3.26,1-2.7,3.22-5S234.5,441.83,235,442.3Z"/><path class="cls-5" d="M209.59,451c-.44.52-2.53-.51-4.68-2.3s-3.54-3.66-3.11-4.18,2.53.51,4.68,2.3S210,450.49,209.59,451Z"/><path class="cls-5" d="M208.59,466.07c.5.46-.76,2.65-2.81,4.9s-4.11,3.71-4.61,3.25.75-2.65,2.8-4.9S208.09,465.62,208.59,466.07Z"/><path class="cls-5" d="M1859.36,387c0,.39-2.82.7-6.29.7s-6.29-.31-6.29-.7,2.82-.69,6.29-.69S1859.36,386.66,1859.36,387Z"/><path class="cls-5" d="M1866,369.93c.38,0,.69,2.86.69,6.39s-.31,6.38-.69,6.38-.7-2.86-.7-6.38S1865.65,369.93,1866,369.93Z"/><path class="cls-5" d="M1873.15,386.63c0-.38,2.82-.69,6.29-.69s6.29.31,6.29.69-2.82.7-6.29.7S1873.15,387,1873.15,386.63Z"/><path class="cls-5" d="M1866.47,403.74c-.38,0-.69-2.86-.69-6.38s.31-6.38.69-6.38.7,2.86.7,6.38S1866.86,403.74,1866.47,403.74Z"/><path class="cls-5" d="M1876.64,396.4c-.3.25-1.54-.75-2.77-2.23s-2-2.87-1.7-3.12,1.53.75,2.77,2.23S1876.93,396.16,1876.64,396.4Z"/><path class="cls-5" d="M1876.05,377c.27.27-.55,1.54-1.83,2.83s-2.54,2.13-2.81,1.86.54-1.54,1.82-2.84S1875.78,376.73,1876.05,377Z"/><path class="cls-5" d="M1861.63,381.94c-.24.3-1.43-.28-2.65-1.3s-2-2.08-1.77-2.37,1.44.29,2.66,1.3S1861.88,381.65,1861.63,381.94Z"/><path class="cls-5" d="M1861.07,390.5c.28.25-.43,1.5-1.59,2.78s-2.34,2.1-2.63,1.84.43-1.5,1.6-2.78S1860.78,390.24,1861.07,390.5Z"/><path class="cls-12" d="M1864.46,40c0,.38-2.82.69-6.29.69s-6.29-.31-6.29-.69,2.82-.7,6.29-.7S1864.46,39.59,1864.46,40Z"/><path class="cls-12" d="M1871.14,22.87c.38,0,.69,2.86.69,6.38s-.31,6.38-.69,6.38-.7-2.85-.7-6.38S1870.75,22.87,1871.14,22.87Z"/><path class="cls-12" d="M1878.25,39.57c0-.38,2.82-.7,6.29-.7s6.29.32,6.29.7-2.82.7-6.29.7S1878.25,40,1878.25,39.57Z"/><path class="cls-12" d="M1871.57,56.68c-.38,0-.69-2.86-.69-6.38s.31-6.38.69-6.38.7,2.85.7,6.38S1872,56.68,1871.57,56.68Z"/><path class="cls-12" d="M1881.74,49.34c-.3.25-1.54-.75-2.77-2.23s-2-2.88-1.7-3.13,1.53.76,2.77,2.24S1882,49.09,1881.74,49.34Z"/><path class="cls-12" d="M1881.15,29.94c.27.27-.55,1.54-1.83,2.83s-2.54,2.12-2.81,1.85.54-1.54,1.82-2.83S1880.88,29.67,1881.15,29.94Z"/><path class="cls-12" d="M1866.73,34.88c-.24.3-1.43-.29-2.65-1.3s-2-2.08-1.77-2.38,1.44.29,2.66,1.31S1867,34.59,1866.73,34.88Z"/><path class="cls-12" d="M1866.17,43.43c.28.26-.43,1.51-1.6,2.78s-2.33,2.11-2.62,1.85.43-1.51,1.6-2.78S1865.88,43.17,1866.17,43.43Z"/></g></g></svg>