<svg xmlns="http://www.w3.org/2000/svg" xmlns:xlink="http://www.w3.org/1999/xlink" viewBox="0 0 1920 601.18"><defs><style>.cls-1,.cls-29{fill:#ffb072;}.cls-2{fill:#872e68;}.cls-3{fill:#c1467f;}.cls-4{isolation:isolate;}.cls-5{opacity:0.91;fill:url(#linear-gradient);}.cls-6{fill:#fff;}.cls-7{fill:#ffd4f2;}.cls-8{opacity:0.2;}.cls-9{fill:#3a4d8a;}.cls-10{fill:#1a2e4f;}.cls-11,.cls-57{fill:#7c4284;}.cls-12,.cls-58{fill:#9d68aa;}.cls-13{fill:#552f5e;}.cls-14{fill:#dd4026;}.cls-15,.cls-38{fill:none;stroke-miterlimit:10;}.cls-15{stroke:#fff;stroke-width:1.22px;}.cls-16{fill:#ffbe57;}.cls-16,.cls-32{mix-blend-mode:multiply;}.cls-16,.cls-33,.cls-49,.cls-54{opacity:0.5;}.cls-17{fill:#e4bce8;}.cls-18{fill:#e2e2e2;}.cls-19{fill:#ffdcae;}.cls-20{fill:#f29353;}.cls-21{fill:#cc584e;}.cls-22{clip-path:url(#clip-path);}.cls-23{fill:#f7b614;}.cls-24{fill:#162640;}.cls-25{clip-path:url(#clip-path-2);}.cls-26{fill:#681853;}.cls-27{fill:#3e2344;}.cls-28,.cls-49{fill:#a1abad;}.cls-29,.cls-57,.cls-58{fill-rule:evenodd;}.cls-30,.cls-33{fill:#e57e55;}.cls-31{fill:#fd6141;}.cls-34{clip-path:url(#clip-path-3);}.cls-35{fill:#efefef;}.cls-36{fill:#2c4172;}.cls-37{clip-path:url(#clip-path-4);}.cls-38{stroke:#7c4284;stroke-width:0.76px;}.cls-39{fill:#bc6658;}.cls-40{fill:#1e1c1c;}.cls-41{fill:#c67154;}.cls-42{clip-path:url(#clip-path-5);}.cls-43{clip-path:url(#clip-path-6);}.cls-44{fill:#8c8c8c;}.cls-45{fill:#f4b998;}.cls-46{clip-path:url(#clip-path-7);}.cls-47{clip-path:url(#clip-path-8);}.cls-48{fill:#764582;}.cls-50{clip-path:url(#clip-path-9);}.cls-51{fill:#4c2b54;}.cls-52{clip-path:url(#clip-path-10);}.cls-53{fill:#efe9da;}.cls-54{fill:#2e1933;}.cls-55{fill:#aaa;}.cls-56{fill:#666;}</style><linearGradient id="linear-gradient" y1="300.59" x2="1920" y2="300.59" gradientUnits="userSpaceOnUse"><stop offset="0" stop-color="#c1467f"/><stop offset="0.23" stop-color="#a64781"/><stop offset="0.73" stop-color="#624b87"/><stop offset="1" stop-color="#3a4d8a"/></linearGradient><clipPath id="clip-path"><path d="M1427.49,555.43s-4.26,5-4.9,6.37-2.45,10.72-2.45,10.72a7.69,7.69,0,0,0,5.44,2.67l3.21-5.71s3.38,8.64,5.86,11.24c3,3.13,17.85,5,19.81,3.67,0,0,1.84-5.6-3-7.8-9-4-10.88-15.09-10.88-15.09A7.84,7.84,0,0,0,1427.49,555.43Z"/></clipPath><clipPath id="clip-path-2"><path d="M1393.23,561.38s-3.1,5.81-3.44,7.26-.13,11-.13,11a7.66,7.66,0,0,0,5.89,1.46l1.92-6.26s5.13,7.73,8.11,9.74c3.6,2.43,18.51,1.17,20.14-.6,0,0,.61-5.86-4.63-7-9.68-2-13.83-12.45-13.83-12.45A7.84,7.84,0,0,0,1393.23,561.38Z"/></clipPath><clipPath id="clip-path-3"><path class="cls-1" d="M1523.27,554.37,1522.14,575s.72,4.36.71,5.83a57.56,57.56,0,0,1-.79,5.74c-1.83,1.32-7.6,1.69-10.51.83L1511,587a26.29,26.29,0,0,1-4.68,1.25c-4.19.95-16.6,1.1-18.42-.42,0,0-1.51-6.2,3.64-7.43,12.89-3.09,14.81-6.51,15.76-10.45,1.19-5,2.61-17.4,2.61-17.4Z"/></clipPath><clipPath id="clip-path-4"><path class="cls-1" d="M1560.47,553.24l-1.14,20.66s-1.19,4.26-1.34,5.72a57.69,57.69,0,0,0,.15,5.79c1.68,1.51,7.38,2.52,10.36,2l.6-.42a26.43,26.43,0,0,0,4.51,1.76c4.06,1.4,16.38,2.91,18.36,1.6,0,0,2.18-6-2.81-7.79-12.47-4.48-14-8.09-14.51-12.11-.64-5.07-.69-17.58-.69-17.58Z"/></clipPath><clipPath id="clip-path-5"><path class="cls-2" d="M1586.48,234s-9.38-.12-13.9,4.7c-7.14,7.63-10.74,9.73-22.13,11.5,0,0,14.73-27.83,14.21-29.59s-1.68-5,2-5.39S1586.7,224.9,1586.48,234Z"/></clipPath><clipPath id="clip-path-6"><path class="cls-3" d="M1524.13,235.33s7.5-.62,11.92,4.83c4.16,5.14,6.72,9.64,15.4,10,0,0-6.06-27.17-5.68-29s.3-5-3.39-5S1522.26,227.82,1524.13,235.33Z"/></clipPath><clipPath id="clip-path-7"><path d="M1663.83,550l-1.44,20.77s.65,4.4.62,5.88a57.77,57.77,0,0,1-.88,5.76c-1.86,1.3-7.68,1.6-10.59.68l-.55-.49a26.82,26.82,0,0,1-4.72,1.2c-4.23.89-16.72.86-18.53-.7,0,0-1.43-6.26,3.77-7.43,13-2.91,15-6.33,16-10.28,1.28-5,2.89-17.47,2.89-17.47Z"/></clipPath><clipPath id="clip-path-8"><path d="M1714.72,550.47v20.82s-1,4.35-1,5.82.47,5.81.47,5.81c1.78,1.43,7.56,2.12,10.52,1.41l.59-.45a26.73,26.73,0,0,0,4.62,1.52c4.16,1.18,16.63,2,18.54.58,0,0,1.85-6.15-3.25-7.67-12.79-3.8-14.53-7.35-15.27-11.36-.92-5.06-1.67-17.63-1.67-17.63Z"/></clipPath><clipPath id="clip-path-9"><path d="M1143.41,554v21s1,4.38,1,5.87a58.66,58.66,0,0,1-.48,5.86c-1.79,1.44-7.62,2.14-10.61,1.42l-.59-.45a27.07,27.07,0,0,1-4.66,1.53c-4.2,1.19-16.76,2-18.7.58,0,0-1.86-6.2,3.29-7.73,12.89-3.84,14.64-7.42,15.39-11.46.93-5.1,1.68-17.77,1.68-17.77Z"/></clipPath><clipPath id="clip-path-10"><path d="M1194.73,553.54l1.45,20.94a58.79,58.79,0,0,0-.62,5.93,58.37,58.37,0,0,0,.88,5.81c1.88,1.31,7.74,1.61,10.68.69l.56-.49a27,27,0,0,0,4.76,1.2c4.26.9,16.86.87,18.69-.71,0,0,1.43-6.31-3.81-7.48-13.13-2.94-15.13-6.39-16.15-10.38-1.28-5-2.91-17.61-2.91-17.61Z"/></clipPath></defs><g class="cls-4"><g id="Layer_2" data-name="Layer 2"><g id="Layer_1-2" data-name="Layer 1"><rect class="cls-5" width="1920" height="601.18"/><path class="cls-6" d="M216.41,298.33c0,24.37-14.63,45.35-43.07,45.35-27.48,0-41.86-20-41.86-45.05,0-25.48,15.89-45,43.09-45C200.18,253.59,216.41,271.53,216.41,298.33ZM151,298.25c0,17.1,7.51,30,23,30,16.84,0,22.8-14.1,22.8-29.71,0-16.56-6.79-29.58-23.11-29.58C157.94,269,151,281.21,151,298.25Z"/><path class="cls-6" d="M287.72,323.31c0,6.34,0,13.22.12,19.1H270c-.25-1.76-.38-5.28-.49-7.58-3.9,6.6-9.71,9.11-18.1,9.11-13.4,0-21.95-8.14-21.95-24.44V276.68h18.19v39.17c0,7.26,2.25,13.26,10.12,13.26,8.3,0,11.74-4.43,11.74-17.45v-35h18.2Z"/><path class="cls-6" d="M304.12,294.51c0-6.53,0-12.33-.13-17.83h17.85c.24,1.47.48,8,.48,11.54,2.9-7.51,9.91-13,21.09-13.07v17.37c-13.21-.34-21.09,3.21-21.09,21.23v28.66h-18.2Z"/><path class="cls-6" d="M400,316.75c2,8.79,8.31,12.65,18.44,12.65s14.43-4,14.43-10.41c0-7.12-4.22-10.21-19.2-13.7-23.82-5.59-29.71-14.26-29.71-26.08,0-15.26,11.41-25.62,32.14-25.62,23.24,0,32.51,12.49,33.76,25.3H430.75c-.92-5.39-3.9-11.24-15.18-11.24-7.69,0-12.33,3.17-12.33,9.39s3.72,8.56,17.87,11.84c25.46,6,31.05,15.47,31.05,27.82,0,16-12.1,26.95-35.24,26.95-22.23,0-33.93-10.94-36-26.9Z"/><path class="cls-6" d="M480.52,313.44c0,8.22,4.13,16.25,13.19,16.25,7.58,0,9.74-3,11.47-7h18.21c-2.33,8-9.51,21.26-30.16,21.26-21.65,0-31-16.19-31-33.44,0-20.62,10.58-35.35,31.69-35.35,22.58,0,30.26,16.34,30.26,32.75a40.24,40.24,0,0,1-.24,5.54Zm25.39-11.18c-.13-7.65-3.19-14.09-12.06-14.09s-12.23,6-13,14.09Z"/><path class="cls-6" d="M536.9,294.51c0-6.53,0-12.33-.13-17.83h17.85c.24,1.47.48,8,.48,11.54,2.9-7.51,9.91-13,21.09-13.07v17.37c-13.2-.34-21.09,3.21-21.09,21.23v28.66H536.9Z"/><path class="cls-6" d="M602.33,276.68c6.26,22.26,11.47,41.74,12.76,49.64h.13c1.85-10.85,8.29-30.66,14-49.64h18.13l-23.22,65.73H605l-22.27-65.73Z"/><path class="cls-6" d="M656.41,249.71h18.2v16.23h-18.2Zm0,27h18.2v65.73h-18.2Z"/><path class="cls-6" d="M747.86,321.17c-2.27,11-10,22.77-29.56,22.77-20.46,0-31-14.16-31-33.92,0-19.41,11.84-34.87,31.86-34.87,22.16,0,28.32,15.91,28.68,23.34H730.09c-1.12-5.35-4.16-9.09-11.27-9.09-8.31,0-13,7.29-13,20,0,14,5,20.38,13,20.38,6.25,0,9.6-3.7,11.23-8.64Z"/><path class="cls-6" d="M774.51,313.44c0,8.22,4.13,16.25,13.2,16.25,7.57,0,9.74-3,11.46-7h18.22c-2.33,8-9.51,21.26-30.16,21.26-21.65,0-31.05-16.19-31.05-33.44,0-20.62,10.58-35.35,31.7-35.35,22.58,0,30.25,16.34,30.25,32.75a40.24,40.24,0,0,1-.24,5.54Zm25.39-11.18c-.13-7.65-3.18-14.09-12-14.09s-12.23,6-13,14.09Z"/><path class="cls-6" d="M844.06,322.65c1.38,5.24,5.65,8.18,12.44,8.18s9.17-2.41,9.17-6.4c0-4.22-2.82-5.87-12.24-8.18C832,311,828.51,304.34,828.51,295.06c0-9.65,6.83-19.91,26.66-19.91S881.85,286,882.42,295h-17.3c-.59-2.43-2.21-7-10.77-7-6,0-8,2.66-8,5.62,0,3.27,2,4.85,12.71,7.34,21.94,5.1,25,12.62,25,22.25,0,10.89-8.28,20.8-28.32,20.8s-28.2-9.64-29.64-21.29Z"/><path class="cls-7" d="M113.93,111.74c0,.68-5,1.23-11.07,1.23s-11.08-.55-11.08-1.23,5-1.23,11.08-1.23S113.93,111.06,113.93,111.74Z"/><path class="cls-7" d="M125.7,81.61c.67,0,1.22,5,1.22,11.24s-.55,11.24-1.22,11.24-1.23-5-1.23-11.24S125,81.61,125.7,81.61Z"/><path class="cls-7" d="M138.23,111c0-.68,5-1.23,11.07-1.23s11.08.55,11.08,1.23-5,1.22-11.08,1.22S138.23,111.7,138.23,111Z"/><path class="cls-7" d="M126.46,141.15c-.67,0-1.22-5-1.22-11.24s.55-11.24,1.22-11.24,1.23,5,1.23,11.24S127.14,141.15,126.46,141.15Z"/><path class="cls-7" d="M144.37,128.23c-.52.43-2.71-1.33-4.88-3.93s-3.52-5.07-3-5.5,2.71,1.32,4.88,3.93S144.89,127.79,144.37,128.23Z"/><path class="cls-7" d="M143.33,94.05c.48.48-1,2.71-3.22,5s-4.47,3.74-5,3.26,1-2.71,3.22-5S142.85,93.58,143.33,94.05Z"/><path class="cls-7" d="M117.94,102.76c-.43.52-2.53-.51-4.68-2.3s-3.54-3.66-3.11-4.18,2.53.51,4.68,2.3S118.37,102.24,117.94,102.76Z"/><path class="cls-7" d="M116.94,117.82c.5.46-.75,2.65-2.8,4.9s-4.12,3.7-4.62,3.25.75-2.65,2.81-4.9S116.44,117.37,116.94,117.82Z"/><path class="cls-7" d="M739,53.43c0,.38-2.81.69-6.29.69s-6.28-.31-6.28-.69,2.81-.7,6.28-.7S739,53,739,53.43Z"/><path class="cls-7" d="M745.7,36.32c.39,0,.7,2.86.7,6.38s-.31,6.38-.7,6.38S745,46.23,745,42.7,745.32,36.32,745.7,36.32Z"/><path class="cls-7" d="M752.82,53c0-.39,2.81-.7,6.29-.7s6.29.31,6.29.7-2.82.69-6.29.69S752.82,53.4,752.82,53Z"/><path class="cls-7" d="M746.14,70.13c-.39,0-.7-2.86-.7-6.38s.31-6.39.7-6.39.69,2.86.69,6.39S746.52,70.13,746.14,70.13Z"/><path class="cls-7" d="M756.3,62.79c-.29.25-1.53-.75-2.77-2.23s-2-2.88-1.7-3.13,1.54.76,2.77,2.24S756.6,62.54,756.3,62.79Z"/><path class="cls-7" d="M755.72,43.39c.27.27-.55,1.54-1.83,2.83s-2.54,2.12-2.82,1.85.55-1.54,1.83-2.83S755.44,43.12,755.72,43.39Z"/><path class="cls-7" d="M741.3,48.33c-.25.3-1.44-.29-2.66-1.3s-2-2.08-1.76-2.38,1.43.29,2.65,1.31S741.54,48,741.3,48.33Z"/><path class="cls-7" d="M740.73,56.88c.29.26-.43,1.51-1.59,2.78s-2.34,2.11-2.62,1.85.43-1.51,1.59-2.78S740.45,56.62,740.73,56.88Z"/><path class="cls-7" d="M453.32,196.52c0,.3-2.16.54-4.82.54s-4.83-.24-4.83-.54,2.16-.53,4.83-.53S453.32,196.23,453.32,196.52Z"/><path class="cls-7" d="M458.44,183.41c.29,0,.53,2.19.53,4.89s-.24,4.89-.53,4.89-.54-2.19-.54-4.89S458.14,183.41,458.44,183.41Z"/><path class="cls-7" d="M463.89,196.21c0-.29,2.16-.53,4.82-.53s4.82.24,4.82.53-2.16.53-4.82.53S463.89,196.51,463.89,196.21Z"/><path class="cls-7" d="M458.77,209.33c-.3,0-.53-2.19-.53-4.9s.23-4.89.53-4.89.53,2.19.53,4.89S459.06,209.33,458.77,209.33Z"/><path class="cls-7" d="M466.56,203.7c-.22.19-1.17-.58-2.12-1.71s-1.53-2.21-1.31-2.39,1.18.57,2.13,1.71S466.79,203.51,466.56,203.7Z"/><path class="cls-7" d="M466.11,188.83c.21.2-.42,1.18-1.4,2.17s-1.95,1.63-2.16,1.42.42-1.18,1.4-2.17S465.9,188.62,466.11,188.83Z"/><path class="cls-7" d="M455.06,192.62c-.19.22-1.1-.22-2-1s-1.55-1.6-1.36-1.82,1.1.22,2,1S455.25,192.39,455.06,192.62Z"/><path class="cls-7" d="M454.63,199.17c.21.2-.33,1.15-1.22,2.13s-1.8,1.62-2,1.42.32-1.16,1.22-2.14S454.41,199,454.63,199.17Z"/><path class="cls-7" d="M709.44,216.92c0,.38-2.81.69-6.28.69s-6.29-.31-6.29-.69,2.81-.7,6.29-.7S709.44,216.53,709.44,216.92Z"/><path class="cls-7" d="M716.12,199.81c.39,0,.7,2.86.7,6.38s-.31,6.38-.7,6.38-.69-2.85-.69-6.38S715.74,199.81,716.12,199.81Z"/><path class="cls-7" d="M723.24,216.51c0-.38,2.81-.7,6.29-.7s6.29.32,6.29.7-2.82.7-6.29.7S723.24,216.89,723.24,216.51Z"/><path class="cls-7" d="M716.56,233.62c-.39,0-.7-2.86-.7-6.38s.31-6.38.7-6.38.69,2.85.69,6.38S716.94,233.62,716.56,233.62Z"/><path class="cls-7" d="M726.72,226.28c-.29.25-1.53-.75-2.77-2.23s-2-2.88-1.7-3.13,1.54.76,2.77,2.24S727,226,726.72,226.28Z"/><path class="cls-7" d="M726.14,206.88c.27.27-.55,1.54-1.83,2.83s-2.54,2.12-2.82,1.85.55-1.54,1.83-2.83S725.86,206.61,726.14,206.88Z"/><path class="cls-7" d="M711.72,211.82c-.25.3-1.44-.29-2.66-1.3s-2-2.08-1.76-2.38,1.43.29,2.65,1.31S712,211.53,711.72,211.82Z"/><path class="cls-7" d="M711.15,220.37c.29.26-.43,1.51-1.59,2.78s-2.34,2.11-2.62,1.85.43-1.51,1.59-2.78S710.87,220.11,711.15,220.37Z"/><path class="cls-7" d="M377.91,54.53l.81,2A14,14,0,0,0,386.33,64l2.14.86-2.05.83a13.92,13.92,0,0,0-7.67,7.69l-.58,1.43-.86-1.8a13.89,13.89,0,0,0-7.77-7l-1.86-.68,2.43-1.18A13.91,13.91,0,0,0,376.89,57Z"/><path class="cls-7" d="M58.39,201.75l.55,1.31a9.22,9.22,0,0,0,5.05,5l1.42.58-1.36.55a9.24,9.24,0,0,0-5.1,5.11l-.38.95-.57-1.2a9.29,9.29,0,0,0-5.17-4.68l-1.23-.45,1.61-.78a9.23,9.23,0,0,0,4.5-4.77Z"/><path class="cls-7" d="M863.49,74.85l.55,1.3a9.26,9.26,0,0,0,5.06,5l1.41.57-1.36.55a9.3,9.3,0,0,0-5.1,5.11l-.38.95-.57-1.19a9.22,9.22,0,0,0-5.17-4.68L856.7,82l1.61-.79a9.23,9.23,0,0,0,4.51-4.76Z"/><path class="cls-7" d="M677.8,517.14l3.05,7.32,7.51,3-2,.83a13.92,13.92,0,0,0-7.67,7.69l-.58,1.43-.86-1.8a13.92,13.92,0,0,0-7.77-7l-1.86-.68,2.43-1.18a13.85,13.85,0,0,0,6.77-7.17Z"/><path class="cls-7" d="M1003.33,106.58c0,.67-5,1.22-11.08,1.22s-11.07-.55-11.07-1.22,5-1.23,11.07-1.23S1003.33,105.9,1003.33,106.58Z"/><path class="cls-7" d="M1015.1,76.44c.67,0,1.22,5,1.22,11.24s-.55,11.24-1.22,11.24-1.23-5-1.23-11.24S1014.42,76.44,1015.1,76.44Z"/><path class="cls-7" d="M1027.63,105.85c0-.67,5-1.22,11.07-1.22s11.08.55,11.08,1.22-5,1.23-11.08,1.23S1027.63,106.53,1027.63,105.85Z"/><path class="cls-7" d="M1015.86,136c-.68,0-1.22-5-1.22-11.24s.54-11.24,1.22-11.24,1.23,5,1.23,11.24S1016.54,136,1015.86,136Z"/><path class="cls-7" d="M1033.77,123.06c-.52.44-2.71-1.32-4.88-3.93s-3.52-5.06-3-5.5,2.7,1.33,4.88,3.93S1034.29,122.63,1033.77,123.06Z"/><path class="cls-7" d="M1032.73,88.89c.48.48-1,2.71-3.22,5s-4.48,3.74-5,3.26,1-2.71,3.22-5S1032.25,88.41,1032.73,88.89Z"/><path class="cls-7" d="M1007.34,97.6c-.44.52-2.53-.51-4.68-2.3s-3.54-3.66-3.11-4.18,2.53.5,4.68,2.29S1007.77,97.07,1007.34,97.6Z"/><path class="cls-7" d="M1006.34,112.66c.5.45-.75,2.65-2.8,4.9s-4.12,3.7-4.62,3.24.75-2.65,2.8-4.9S1005.84,112.2,1006.34,112.66Z"/><path class="cls-7" d="M1628.42,48.26c0,.39-2.81.7-6.29.7s-6.29-.31-6.29-.7,2.82-.69,6.29-.69S1628.42,47.88,1628.42,48.26Z"/><path class="cls-7" d="M1635.1,31.16c.39,0,.7,2.85.7,6.38s-.31,6.38-.7,6.38-.69-2.86-.69-6.38S1634.72,31.16,1635.1,31.16Z"/><path class="cls-7" d="M1642.21,47.85c0-.38,2.82-.69,6.29-.69s6.29.31,6.29.69-2.81.7-6.29.7S1642.21,48.24,1642.21,47.85Z"/><path class="cls-7" d="M1635.54,65c-.39,0-.7-2.85-.7-6.38s.31-6.38.7-6.38.69,2.86.69,6.38S1635.92,65,1635.54,65Z"/><path class="cls-7" d="M1645.7,57.62c-.29.25-1.53-.75-2.77-2.23s-2-2.87-1.7-3.12,1.53.75,2.77,2.23S1646,57.38,1645.7,57.62Z"/><path class="cls-7" d="M1645.11,38.22c.28.27-.54,1.54-1.82,2.83s-2.55,2.13-2.82,1.86.55-1.54,1.83-2.84S1644.84,38,1645.11,38.22Z"/><path class="cls-7" d="M1630.7,43.17c-.25.29-1.44-.29-2.66-1.31s-2-2.08-1.76-2.37,1.43.29,2.65,1.3S1630.94,42.87,1630.7,43.17Z"/><path class="cls-7" d="M1630.13,51.72c.29.26-.43,1.5-1.59,2.78s-2.34,2.1-2.62,1.84.43-1.5,1.59-2.78S1629.85,51.46,1630.13,51.72Z"/><path class="cls-7" d="M1342.71,191.36c0,.29-2.15.53-4.82.53s-4.82-.24-4.82-.53,2.16-.53,4.82-.53S1342.71,191.07,1342.71,191.36Z"/><path class="cls-7" d="M1347.83,178.24c.3,0,.54,2.19.54,4.9s-.24,4.89-.54,4.89-.53-2.19-.53-4.89S1347.54,178.24,1347.83,178.24Z"/><path class="cls-7" d="M1353.29,191.05c0-.3,2.16-.54,4.82-.54s4.82.24,4.82.54-2.16.53-4.82.53S1353.29,191.34,1353.29,191.05Z"/><path class="cls-7" d="M1348.17,204.16c-.3,0-.54-2.19-.54-4.89s.24-4.89.54-4.89.53,2.19.53,4.89S1348.46,204.16,1348.17,204.16Z"/><path class="cls-7" d="M1356,198.54c-.23.18-1.18-.58-2.12-1.72s-1.53-2.2-1.31-2.39,1.18.58,2.13,1.71S1356.19,198.35,1356,198.54Z"/><path class="cls-7" d="M1355.51,183.66c.21.21-.42,1.18-1.4,2.17s-1.95,1.63-2.16,1.42.42-1.18,1.4-2.17S1355.3,183.46,1355.51,183.66Z"/><path class="cls-7" d="M1344.46,187.45c-.19.23-1.1-.22-2-1s-1.54-1.59-1.35-1.82,1.1.22,2,1S1344.65,187.22,1344.46,187.45Z"/><path class="cls-7" d="M1344,194c.22.19-.32,1.15-1.22,2.13s-1.79,1.61-2,1.41.33-1.15,1.23-2.13S1343.81,193.81,1344,194Z"/><path class="cls-7" d="M1598.84,211.75c0,.39-2.81.7-6.29.7s-6.29-.31-6.29-.7,2.82-.69,6.29-.69S1598.84,211.37,1598.84,211.75Z"/><path class="cls-7" d="M1605.52,194.65c.39,0,.7,2.85.7,6.38s-.31,6.38-.7,6.38-.69-2.86-.69-6.38S1605.14,194.65,1605.52,194.65Z"/><path class="cls-7" d="M1612.64,211.34c0-.38,2.81-.69,6.28-.69s6.29.31,6.29.69-2.81.7-6.29.7S1612.64,211.73,1612.64,211.34Z"/><path class="cls-7" d="M1606,228.45c-.39,0-.7-2.85-.7-6.38s.31-6.38.7-6.38.69,2.86.69,6.38S1606.34,228.45,1606,228.45Z"/><path class="cls-7" d="M1616.12,221.11c-.29.25-1.53-.75-2.77-2.23s-2-2.87-1.7-3.12,1.54.75,2.77,2.23S1616.42,220.87,1616.12,221.11Z"/><path class="cls-7" d="M1615.53,201.71c.28.27-.54,1.54-1.82,2.83s-2.55,2.13-2.82,1.86.55-1.54,1.83-2.84S1615.26,201.44,1615.53,201.71Z"/><path class="cls-7" d="M1601.12,206.66c-.25.29-1.44-.29-2.66-1.31s-2-2.08-1.76-2.37,1.43.29,2.65,1.3S1601.36,206.36,1601.12,206.66Z"/><path class="cls-7" d="M1600.55,215.21c.29.26-.43,1.5-1.59,2.78s-2.34,2.1-2.62,1.84.43-1.5,1.59-2.78S1600.27,215,1600.55,215.21Z"/><path class="cls-7" d="M1267.31,49.37l.81,2a13.89,13.89,0,0,0,7.61,7.54l2.14.87-2,.83a13.93,13.93,0,0,0-7.67,7.68l-.58,1.44-.86-1.8a13.89,13.89,0,0,0-7.77-7l-1.86-.68,2.43-1.18a13.91,13.91,0,0,0,6.78-7.17Z"/><path class="cls-7" d="M947.79,196.59l.54,1.3a9.26,9.26,0,0,0,5.06,5l1.42.57-1.36.55a9.3,9.3,0,0,0-5.1,5.11l-.38,1-.58-1.19a9.17,9.17,0,0,0-5.16-4.68l-1.23-.45,1.61-.79a9.25,9.25,0,0,0,4.5-4.76Z"/><path class="cls-7" d="M1752.89,69.69l.55,1.3a9.22,9.22,0,0,0,5,5l1.42.58-1.36.55a9.24,9.24,0,0,0-5.1,5.11l-.38,1-.57-1.2a9.29,9.29,0,0,0-5.17-4.68l-1.23-.45,1.61-.78a9.23,9.23,0,0,0,4.5-4.77Z"/><path class="cls-7" d="M1755.32,124.82l.82,2a14,14,0,0,0,7.61,7.54l2.13.86-2.05.83a13.92,13.92,0,0,0-7.67,7.69l-.57,1.43-.87-1.8a13.87,13.87,0,0,0-7.76-7l-1.86-.68,2.43-1.18a13.93,13.93,0,0,0,6.77-7.17Z"/><path class="cls-7" d="M1419.17,37.46l.38.92a6.55,6.55,0,0,0,3.57,3.54l1,.41-1,.39a6.51,6.51,0,0,0-3.59,3.6l-.27.67-.41-.84a6.48,6.48,0,0,0-3.64-3.3l-.88-.32,1.14-.56a6.48,6.48,0,0,0,3.18-3.36Z"/><path class="cls-7" d="M1165.56,188.27l.5,1.18a8.41,8.41,0,0,0,4.59,4.56l1.29.52-1.24.5a8.43,8.43,0,0,0-4.63,4.64l-.35.87-.52-1.09a8.4,8.4,0,0,0-4.69-4.25l-1.12-.41,1.47-.71a8.47,8.47,0,0,0,4.09-4.33Z"/><path class="cls-7" d="M529.77,42.63l.39.92a6.47,6.47,0,0,0,3.57,3.53l1,.41-1,.39a6.54,6.54,0,0,0-3.6,3.61l-.27.67-.41-.85a6.49,6.49,0,0,0-3.64-3.3l-.87-.32,1.14-.55a6.53,6.53,0,0,0,3.17-3.36Z"/><path class="cls-7" d="M276.17,193.43l.49,1.19a8.39,8.39,0,0,0,4.59,4.55l1.29.52-1.23.51a8.42,8.42,0,0,0-4.64,4.64l-.34.86-.53-1.08a8.36,8.36,0,0,0-4.69-4.26L270,200l1.47-.71a8.39,8.39,0,0,0,4.09-4.33Z"/><g class="cls-8"><path class="cls-9" d="M502.08,599.33c-.5,0-1-.05-1.51-.05h-.09c-3.32,0-6.61-.09-9.92-.18a24.49,24.49,0,0,0-3.1.14,39.32,39.32,0,0,0-4.46-.41,28.92,28.92,0,0,0-4.08.3c-.16,0-.31,0-.47,0-4.58,0-9.16-.09-13.74-.18a25.89,25.89,0,0,0-6,.59l-104,0c42.85-45.11,105.73-67,167.94-66.61,45.43.3,92.83,13.86,135.06-2.89,39.08-15.5,63.88-53.15,94.29-82.17,46.6-44.48,110.59-70.22,175-70.41,43.71-.14,91.85,9.9,127.9-14.83,24.34-16.69,36.77-45.43,53.86-69.5,50.08-70.54,146.51-100,227.2-68.77l.12,374.71-793.93.38a17.2,17.2,0,0,0-4-.1c-.42,0-.85.08-1.27.1H534c-2.12-.07-4.25-.28-6.37-.28-3.07,0-6.13,0-9.2-.07-3.51-.2-7-.38-10.53-.38A28,28,0,0,0,502.08,599.33Z"/></g><circle class="cls-10" cx="1662.46" cy="139.66" r="49.91" transform="translate(388.17 1216.45) rotate(-45)"/><circle class="cls-11" cx="1662.46" cy="139.66" r="41.48" transform="translate(388.17 1216.45) rotate(-45)"/><circle class="cls-6" cx="1662.46" cy="139.66" r="39.67"/><rect class="cls-12" x="1672.72" y="118.28" width="4.6" height="28.99" transform="translate(1018.36 -1413.87) rotate(62.46)"/><rect class="cls-12" x="1669.92" y="137.05" width="2.18" height="37.67" transform="translate(115.73 786.51) rotate(-27.4)"/><path class="cls-13" d="M1665.63,139.66a3.17,3.17,0,1,1-3.17-3.16A3.17,3.17,0,0,1,1665.63,139.66Z"/><rect class="cls-10" x="1660.88" y="101.83" width="3.17" height="6.64"/><rect class="cls-10" x="1660.88" y="171.46" width="3.17" height="6.64"/><rect class="cls-10" x="1693.96" y="138.38" width="6.64" height="3.17"/><rect class="cls-10" x="1624.33" y="138.38" width="6.64" height="3.17"/><rect class="cls-10" x="1683.76" y="113.76" width="6.64" height="3.17" transform="translate(412.57 1226.73) rotate(-45)"/><rect class="cls-10" x="1634.52" y="163" width="6.64" height="3.17" transform="translate(363.33 1206.34) rotate(-45)"/><rect class="cls-14" x="1685.5" y="161.27" width="3.17" height="6.64" transform="translate(2996.41 -911.98) rotate(135)"/><rect class="cls-10" x="1636.26" y="112.03" width="3.17" height="6.64" transform="translate(2877.54 -961.22) rotate(135)"/><path class="cls-3" d="M1911.91,552.16H984.32a2.4,2.4,0,0,1,0,.24,11.47,11.47,0,0,1-.72,2.14c-.48,1-1.06,1.2-1.36.52a2.34,2.34,0,0,1-.13-.85,10.1,10.1,0,0,1,.27-2.05h-3.23a188.39,188.39,0,0,1,7.69-26.42c33.75-91.79,151.59-91.58,176.93-155.42s55.41-112.08,104.43-110.95,124.31,117,190,106.18,112.75-92.55,211.9-78.81c42.51,5.9,101.49,115.34,154.73,126.56C1866.71,422.15,1918.52,493.68,1911.91,552.16Z"/><path class="cls-15" d="M988.81,552.16a178.09,178.09,0,0,1,6.74-22.61c17.11-46.54,57.92-67.71,97.39-88.19,34.24-17.78,66.57-34.55,79.45-67,29.5-74.29,58.07-105.62,95.56-104.76h.43c18.33.75,43.68,22.29,70.53,45.08,33.25,28.24,70.94,60.25,107.67,61.75a64.33,64.33,0,0,0,13-.77c27.53-4.53,51.14-20.11,76.14-36.58,34-22.39,69.1-45.55,118.27-43.54,4.88.2,9.9.65,14.91,1.35,17.24,2.39,41.45,29.16,64.87,55.05,28.9,31.94,58.78,65,89.24,71.41,32.36,6.82,76.44,61.07,79.85,112.31a81.9,81.9,0,0,1-.5,16.46"/><path class="cls-16" d="M1782.36,552.16H1107.82a135.37,135.37,0,0,1,5.79-20.29c24.41-66.37,109.61-66.21,127.93-112.38s40.07-81,75.51-80.22,89.89,84.6,137.38,76.78,81.52-66.92,153.22-57c30.74,4.26,73.39,83.39,111.87,91.51C1750.09,457,1788,509.67,1782.36,552.16Z"/><path class="cls-6" d="M984.61,550.14a12.61,12.61,0,0,1-.29,2,2.4,2.4,0,0,1,0,.24,11.47,11.47,0,0,1-.72,2.14c-.48,1-1.06,1.2-1.36.52a2.34,2.34,0,0,1-.13-.85,10.1,10.1,0,0,1,.27-2.05c0-.08,0-.15,0-.23a9.78,9.78,0,0,1,.75-2.17c.51-1,1.12-1.17,1.38-.47A2.68,2.68,0,0,1,984.61,550.14Z"/><path class="cls-6" d="M984.21,545.77a12.22,12.22,0,0,1,.45-2.26,9.9,9.9,0,0,1,.89-2.13c.56-.93,1.19-1.09,1.4-.37a2.48,2.48,0,0,1,0,.84,13.78,13.78,0,0,1-.46,2.23,11.68,11.68,0,0,1-.86,2.11c-.53.93-1.13,1.14-1.38.43A2.25,2.25,0,0,1,984.21,545.77Z"/><path class="cls-6" d="M986.86,537.47a92.71,92.71,0,0,1,7.1-17.16c.52-.93,1.18-1.41,1.49-1.08s.2,1-.11,1.74c-1.19,2.85-2.37,5.66-3.56,8.49s-2.3,5.68-3.48,8.52c-.42,1-1,1.52-1.36,1.24S986.62,538.26,986.86,537.47Z"/><path class="cls-6" d="M997.53,513.28A4.09,4.09,0,0,1,998,512a4,4,0,0,1,.86-1.11c.87-.72,1.47-.4,1.34.69v.06a4.57,4.57,0,0,1-.48,1.31,4.36,4.36,0,0,1-.84,1.09c-.85.73-1.46.44-1.35-.66Z"/><path class="cls-6" d="M1002.14,505.2a4.39,4.39,0,0,1,.56-1.29,4.25,4.25,0,0,1,.94-1.05c.93-.65,1.49-.27,1.28.8v0a4.55,4.55,0,0,1-.56,1.27,4.93,4.93,0,0,1-.91,1c-.9.66-1.49.34-1.31-.75Z"/><rect class="cls-17" x="1250.15" y="121.5" width="326.87" height="213.32"/><rect class="cls-6" x="1257.81" y="151.1" width="311.55" height="174.3"/><rect class="cls-11" x="1250.15" y="121.5" width="326.87" height="21.67"/><path class="cls-18" d="M1569.36,292.92H1521V258.8h48.37V257H1521V222.86h48.37V221H1521V186.92h48.37v-1.83H1521v-34h-1.82v34h-51.44v-34h-1.82v34h-51.44v-34h-1.82v34h-51.44v-34h-1.83v34h-51.44v-34h-1.82v34h-48.31v1.83h48.31V221h-48.31v1.83h48.31V257h-48.31v1.82h48.31v34.12h-48.31v1.83h48.31v30.31h1.82V294.75h51.44v30.31h1.83V294.75h51.44v30.31h1.82V294.75h51.44v30.31h1.82V294.75h51.44v30.31H1521V294.75h48.37ZM1412.65,257h-51.44V222.86h51.44Zm1.82-34.12h51.44V257h-51.44ZM1467.73,257V222.86h51.44V257Zm0-36V186.92h51.44V221Zm-1.82,0h-51.44V186.92h51.44Zm-53.26,0h-51.44V186.92h51.44Zm-53.27,0h-51.44V186.92h51.44Zm0,1.83V257h-51.44V222.86Zm0,35.94v34.12h-51.44V258.8Zm1.83,0h51.44v34.12h-51.44Zm53.26,0h51.44v34.12h-51.44Zm53.26,0h51.44v34.12h-51.44Z"/><path class="cls-19" d="M1332.46,405.77s-13.92,126.7-17.72,173c-.51,6.22,10.24,7.87,11.25,1.73,6.52-39.65,27.45-174.75,27.45-174.75Z"/><path class="cls-20" d="M1352,405.77s-12.19,111-15.51,151.58c-.45,5.45,9,6.88,9.85,1.51,5.71-34.74,24-153.09,24-153.09Z"/><path class="cls-20" d="M1822.1,405.77s12.19,111,15.52,151.58c.44,5.45-9,6.88-9.86,1.51-5.71-34.74-24-153.09-24-153.09Z"/><path class="cls-19" d="M1843.53,405.77s13.92,126.7,17.71,173c.51,6.22-10.24,7.87-11.25,1.73-6.52-39.65-27.44-174.75-27.44-174.75Z"/><path class="cls-21" d="M1320.16,391.53h537.77a0,0,0,0,1,0,0v11a10.26,10.26,0,0,1-10.26,10.26H1330.42a10.26,10.26,0,0,1-10.26-10.26v-11A0,0,0,0,1,1320.16,391.53Z"/><rect class="cls-20" x="1292.25" y="389.32" width="593.58" height="8.93"/><polygon class="cls-19" points="1320.7 373.21 1292.25 389.32 1885.84 389.32 1859.61 373.21 1320.7 373.21"/><path d="M1380.31,167.53c4.68-14.25,13.1-13.66,13.1-13.66s3.94-12.39,26.44-4.83c10.5,2.7,24,18.31,15.09,45.4-2.94,8.9,10.83,16.06,8.35,38.08-2.19,19.5-69.26,18.22-72.6.38-3.85-20.52,14.06-23.29,12.65-33.88C1381.89,188.15,1377.47,176.2,1380.31,167.53Z"/><path class="cls-2" d="M1438,223.83c25.69,18.12,43.41,61.26,37.87,68.24s-16.28.42-22.35-6.25c-8.6-9.45-28.41-37.36-30.7-42.65C1417.26,230.31,1433.58,220.72,1438,223.83Z"/><path d="M1427.49,555.43s-4.26,5-4.9,6.37-2.45,10.72-2.45,10.72a7.69,7.69,0,0,0,5.44,2.67l3.21-5.71s3.38,8.64,5.86,11.24c3,3.13,17.85,5,19.81,3.67,0,0,1.84-5.6-3-7.8-9-4-10.88-15.09-10.88-15.09A7.84,7.84,0,0,0,1427.49,555.43Z"/><g class="cls-22"><path class="cls-11" d="M1456,583.35c-.27-.09-18.59.18-21.5-4.8-2.28-3.9-4.43-10.73-5.52-11.4s-6.41-5.35-6.41-5.35l-5.31,13.59,30.44,18.7Z"/></g><path class="cls-23" d="M1445.62,572.7l-2.37.89s-2.1-2.13-2.26-4.31l2.26-1.19a.86.86,0,0,1,1.15.34l1.67,3.06A.85.85,0,0,1,1445.62,572.7Z"/><path class="cls-24" d="M1469.23,448c.1-18.1-13.17-89.34-25.2-130.59-5.52-18.9-24.2-10.71-32.56,4.07-18.74,33.17,28.28,121.29,26.28,132.08a642.64,642.64,0,0,0-10.26,101.91c.2,4.37,13.23,12.72,13.36,4.59C1440.85,560,1469.14,462.74,1469.23,448Z"/><path d="M1393.23,561.38s-3.1,5.81-3.44,7.26-.13,11-.13,11a7.66,7.66,0,0,0,5.89,1.46l1.92-6.26s5.13,7.73,8.11,9.74c3.6,2.43,18.51,1.17,20.14-.6,0,0,.61-5.86-4.63-7-9.68-2-13.83-12.45-13.83-12.45A7.84,7.84,0,0,0,1393.23,561.38Z"/><g class="cls-25"><path class="cls-11" d="M1427,582.63c-.28,0-18.13,4.1-22-.15-3.06-3.32-6.6-9.54-7.8-10s-7.4-3.87-7.4-3.87l-2.32,14.4,33.72,11.84Z"/></g><path class="cls-23" d="M1414.6,574.42l-2.13,1.37s-2.5-1.64-3.12-3.73l2-1.65a.86.86,0,0,1,1.2.1l2.28,2.63A.86.86,0,0,1,1414.6,574.42Z"/><path class="cls-24" d="M1413.78,379l-1-46.91c-6.74-15.41-29.8-20.14-36.37-2-12.28,33.87,10.76,157.42,16.87,232.78,1.11,5.32,13.94,6.37,13.51,0C1406.74,562.86,1412.82,400.25,1413.78,379Z"/><path class="cls-26" d="M1380.44,318.61s-8.75,8.59-11.5,27.86-3.54,65.66-3.54,65.66,53.13,19.59,100.93-1.92c0,0-12.38-82.45-25.06-93.57S1392.73,303,1380.44,318.61Z"/><path class="cls-2" d="M1447.48,331.39c-.81,3.71-15.12,12.28-35.7,11.61s-36.77-6.79-35.89-12.16c2.06-12.68,15.31-60.71,35.89-60S1449.73,321.12,1447.48,331.39Z"/><path class="cls-3" d="M1368.86,232.53c6.32-13.33,37.62-22.61,39.23-23.48,0,0,30.27,11,34.13,19,.76,1.59-3.44,7-4.1,13.45-.28,2.75,3.17,12.16,2.73,15.42-1.46,10.71-5.5,26.9-4.15,30.6,1.88,5.18,9.81,31.64,12.09,39.28a2.58,2.58,0,0,1-1.29,3.09c-31.66,15-57.5,8-73.16-.71-1.11-.62-1.93-1.6-1.62-2.83,1.94-7.45,10.58-29.41,13-36.13C1389,281.2,1364,242.84,1368.86,232.53Z"/><path class="cls-2" d="M1386,287.92s6.24,24,16.45,24.5,36.81-18.54,36.81-18.54Z"/><path class="cls-11" d="M1412.68,246.57a.59.59,0,0,1-.4-.16c-13.74-13.53-21.32-24-22.59-30.43-.06-.31,1.12-.65,1.18-.35,1.2,6.07,8.75,16.71,22,29.8l3.74-.26c7-14.43,7.32-26.62,3.56-31.44-.19-.25,1.23-.16,1.42.09,4.08,5.23,3.24,17.12-4.11,32.13a.56.56,0,0,1-.47.31l-4.31.31Z"/><rect class="cls-6" x="1399.96" y="248.39" width="31.83" height="20.33" rx="0.77" transform="matrix(1, -0.07, 0.07, 1, -14.71, 100.53)"/><rect class="cls-3" x="1401.97" y="254.02" width="9.39" height="11.93" rx="0.62" transform="translate(-14.83 99.87) rotate(-4.04)"/><rect class="cls-27" x="1411.17" y="249.2" width="8.16" height="1.25" transform="translate(-14.1 100.48) rotate(-4.05)"/><rect class="cls-11" x="1412.77" y="244.49" width="4.32" height="5.35" rx="0.32" transform="translate(-13.91 100.44) rotate(-4.05)"/><rect class="cls-28" x="1414.41" y="252.94" width="14.53" height="1.37" transform="translate(-14.35 100.92) rotate(-4.04)"/><rect class="cls-28" x="1414.61" y="255.81" width="14.53" height="1.37" transform="translate(-14.55 100.95) rotate(-4.05)"/><rect class="cls-28" x="1414.81" y="258.67" width="14.53" height="1.37" transform="translate(-14.75 100.96) rotate(-4.04)"/><rect class="cls-28" x="1415.15" y="263.48" width="14.53" height="1.37" transform="translate(-15.09 101.01) rotate(-4.05)"/><path class="cls-2" d="M1403.69,263.79c18.87-.34,53.08,2.48,67.32,9.94,3.35,1.76,9.15,7.89,7,16.06s-14.14,5.71-14.14,5.71S1418.7,287,1407.19,283C1394.43,278.6,1394.27,264,1403.69,263.79Z"/><path class="cls-29" d="M1423.92,187.26c-2.1-1.59-2.64-6.71-1.05-9.28a3,3,0,0,1,3.87-1.15c2,.82,2.61,3.35,2.37,5.86C1428.82,185.7,1426.22,189,1423.92,187.26Z"/><path class="cls-30" d="M1424.62,186.06l.49-2.75-1.66-.47s.23-5.05,3-3.61C1428.81,180.41,1427.37,186.68,1424.62,186.06Z"/><path class="cls-1" d="M1464.6,280.91a19.49,19.49,0,0,0,8.15-3.64c2.16-1.76,4.72,4.49,4.72,4.49s2.18-4.7-.65-8.68c-.57-.81.17-2.25-.76-3.86s-1.29-.77-2-2-.38-1.74-.85-2.95-1.4-.93-2.19-1.69-1.08-2.08-2-2.48c-1.87-.8-3.78.21-4.69.63-3,1.4-7.21,5-8.74,8.21S1451.83,282.42,1464.6,280.91Z"/><path class="cls-2" d="M1367.1,244.68c-1.7-18.72,13.42-28.6,23.28-14.57,7.33,10.42,14.72,47.27,19.39,49.27,3.83,1.65,45.62-11.12,45.62-11.12,6.61.15,9.83,11.7,7.6,15.77-28,12.32-52.11,26.66-63.17,21.43C1386.18,299,1368.79,263.17,1367.1,244.68Z"/><path class="cls-1" d="M1400.19,189.24a65,65,0,0,1-2.11,15.35c-2,6.8-3.73,8.16-6.7,11.2-2.72,2.78,20.55,14.37,20.55,14.37s2.51,6.51,3.72,6.78l.67-7.26s8.54-8.38,5.06-12.83c-5.17-6.59-7.22-4.92-6.2-14.29.89-8.17,1.45-12.7,1.45-12.7Z"/><path class="cls-29" d="M1398.48,189.62s4.87,16.78,20.77,13.12c8-1.84,9.57-18,5.81-22.74a27.85,27.85,0,0,0-2.32-15.2c-2.94-6.44-16.55-8.17-27.07-3.14,0,0-2.7,3.49.56,16.78a4.17,4.17,0,0,0-5.34.1c-2.22,1.69-2,4.86-.73,7.68C1391.68,189.61,1395.84,192.1,1398.48,189.62Z"/><path class="cls-30" d="M1397.14,188.49l-1.69-3,1.93-1.17s-2.25-5.78-5.25-3.07C1389.66,183.46,1393.9,190.22,1397.14,188.49Z"/><path class="cls-31" d="M1420.25,191.65s-1.5-2.5-9.81-.34C1412.08,195.63,1420.32,196.63,1420.25,191.65Z"/><g class="cls-32"><path class="cls-30" d="M1420.25,191.65a28.8,28.8,0,0,1-9.81-.34"/><path class="cls-30" d="M1420.25,191.65a20.23,20.23,0,0,1-9.81-.34,46,46,0,0,0,9.81.34Z"/></g><path d="M1423.36,180c.05.77-.94,1-2.17,1.06s-2.24,0-2.29-.76.91-1.46,2.14-1.54S1423.31,179.27,1423.36,180Z"/><path d="M1425.4,176.49c0,.11-3.18-1.8-4-1.85s-3.45,1.66-3.79,1.3a5.69,5.69,0,0,1-.75-1.17s3.89-1.37,4.78-1.23A8.9,8.9,0,0,1,1425.4,176.49Z"/><path d="M1412.08,180.8c.05.77-.94,1-2.17,1.06s-2.24,0-2.29-.76.9-1.46,2.14-1.54S1412,180,1412.08,180.8Z"/><path d="M1404.12,177.06c0,.11,3.56-2.05,4.55-1.95s4.3,1.19,4.66.8a5,5,0,0,0,.7-1.24s-4.72-.84-5.81-.63S1404.51,176.12,1404.12,177.06Z"/><path class="cls-33" d="M1418.09,187.48s-2.83.33-2.88-.45,5.7-2.52,6.11-2S1419.3,186.93,1418.09,187.48Z"/><path class="cls-30" d="M1416.8,175.72s-.29,3.65.32,4.85,3.63,3.67,3.78,4.26-2.61,2.53-2.81,2.65,4.15-1.24,3.81-2.61-4.19-4.33-4.41-5S1416.8,175.72,1416.8,175.72Z"/><path d="M1423.14,159.67c1.27,1.08,8.14,4.66-.08,5.86-6.27.91-19.08-2.3-22.87-3.36a22.11,22.11,0,0,1,1,9.07c-.73,3.25-2.07,10.75-2.07,10.75a36.84,36.84,0,0,0-2.86-3.55c-1.19-1.19-5.32-2.06-7,2.86,0,0-3.91-7.05-4-11.83C1385,155.79,1407.12,146,1423.14,159.67Z"/><path class="cls-1" d="M1384.85,272.54c1.33-2.76,3.92-5.47,9.26-7.73a7.64,7.64,0,0,1,4.45-.75c.75-.06,1.29-.05,1.29-.05s11.54-.16,13,4.56-.1,10.82-.1,10.82-5.73.82-7.75,0a17.14,17.14,0,0,0-5.62,4.94c-.7,1-2.72.62-2.48-.57a12.55,12.55,0,0,1,4-6.63,21.5,21.5,0,0,0-7.73,4.14c-1,.89-3.22.13-2.68-1.06,1.14-2.48,3.48-5,8.24-7.29l0,0a23.41,23.41,0,0,0-8.61,4.29c-1,.86-3.22.14-2.67-1a13.28,13.28,0,0,1,5.13-5.35,18.25,18.25,0,0,0-5.07,3C1386.41,274.8,1384.25,273.81,1384.85,272.54Z"/><path class="cls-1" d="M1504.42,397.65c.18-1.45.18-7-.41-9-2-7-10.52-9.75-14.15-7.33-2.3,1.54-7.69,15.51-5.58,23.41a1.25,1.25,0,0,0,.8.91,13.21,13.21,0,0,0,.17,2.87,1.1,1.1,0,0,0,1.84.68,12.23,12.23,0,0,0,.37,1.88c.38,1.31,1.76,1.43,2,.22.56-2.63.63-4.4,1.16-6.22a24.28,24.28,0,0,1,1.55-3.89c-.34,1.11-.64,2.31-.91,3.5a16.2,16.2,0,0,0,.12,7.11c.44,1.29,2,1.26,2.21.05a56.73,56.73,0,0,1,1.14-6.33c.5-1.73,2-6.88,3.94-8.85a8.77,8.77,0,0,1,.53,1.33c.34,1.11,0,2.18.15,4.94.11,1.94,2.28,4.15,3.19,1.43A55.6,55.6,0,0,0,1504.42,397.65Z"/><path class="cls-2" d="M1505.09,316c3.67-18.15-3.32-52.73,4-67.5,7.88-15.95,33.54-6,32.89,6.87a473.52,473.52,0,0,1-8.89,66.65c-4.66,21.33-27.74,68.82-27.74,68.82a58.19,58.19,0,0,1-16.8-8.73S1501.33,334.53,1505.09,316Z"/><path class="cls-1" d="M1523.27,554.37,1522.14,575s.72,4.36.71,5.83a57.56,57.56,0,0,1-.79,5.74c-1.83,1.32-7.6,1.69-10.51.83L1511,587a26.29,26.29,0,0,1-4.68,1.25c-4.19.95-16.6,1.1-18.42-.42,0,0-1.51-6.2,3.64-7.43,12.89-3.09,14.81-6.51,15.76-10.45,1.19-5,2.61-17.4,2.61-17.4Z"/><g class="cls-34"><path d="M1504,574.75s3.44-.36,5.34,1.57,3.21,3.36,6,2.84c7.06-1.33,6.73-6.81,9.73-4.31l-.08,14.29-39,1.5-.05-10.84Z"/><path class="cls-35" d="M1487,586.24s.51,1.87,12.78,1.34,13.36-3.3,22.94-3l-.51,3.35-35.91,3Z"/></g><path class="cls-24" d="M1517.89,352.35c4.13-20.43,46-20.53,41.95,0-14,70.62-19.49,159.58-34.62,205.4-6.78,2.46-13.37-.32-16.83-2.43C1508.39,555.29,1504.44,419,1517.89,352.35Z"/><path class="cls-36" d="M1526.58,558.82c-7,2.46-16-.25-19.74-2.46a.29.29,0,0,1-.15-.27c0-.46,0-1.94.16-6.17a.31.31,0,0,1,.43-.29c6.42,2.73,13.88,4.54,20.49,2.12a.31.31,0,0,1,.41.36c-.75,3.56-1.25,5.86-1.39,6.48A.31.31,0,0,1,1526.58,558.82Z"/><path class="cls-1" d="M1560.47,553.24l-1.14,20.66s-1.19,4.26-1.34,5.72a57.69,57.69,0,0,0,.15,5.79c1.68,1.51,7.38,2.52,10.36,2l.6-.42a26.43,26.43,0,0,0,4.51,1.76c4.06,1.4,16.38,2.91,18.36,1.6,0,0,2.18-6-2.81-7.79-12.47-4.48-14-8.09-14.51-12.11-.64-5.07-.69-17.58-.69-17.58Z"/><g class="cls-37"><path d="M1577.41,575.62s-3.38-.74-5.48,1-3.56,3-6.24,2.17c-6.88-2.1-6-7.51-9.2-5.35L1555,587.63l38.63,5.75,1.24-10.76Z"/><path class="cls-35" d="M1593,588.9s-.71,1.79-12.84-.07-12.93-4.75-22.48-5.52l.14,3.39,35.37,6.92Z"/></g><path class="cls-24" d="M1551.46,353.83c.77-20.87,37.59-28.9,39.77-8.15,9.45,89.8-11,156-14.19,212.09-8.82,3.46-14.75,2.27-19.43.22C1557.61,558,1550.3,385.32,1551.46,353.83Z"/><path class="cls-36" d="M1578.53,552.06c-.57,3.56-.85,5.16-.94,5.64a.33.33,0,0,1-.2.24c-9.11,3.53-15.29,2.35-20.17.25a.3.3,0,0,1-.19-.28c0-.58-.06-2.41-.11-5.23a.32.32,0,0,1,.39-.31,37.32,37.32,0,0,0,20.82-.67A.32.32,0,0,1,1578.53,552.06Z"/><path class="cls-24" d="M1518,357.83c.42,10.89,17.52,19.06,38.19,18.25s36.17-10.26,35.74-21.15c-1.37-35.14-18.86-76.21-39.53-75.4S1516.61,322,1518,357.83Z"/><path class="cls-3" d="M1520.53,319.2c2.25-22.64-13.82-65.12-11.45-70.75,3.56-8.47,44.27-30.82,44.27-30.82,1.7.82,42.37,17.51,50.39,30.51,3.36,5.44-16.54,58.73-15.22,78.83.64,9.9,4.27,19.62,4.64,29.15.43,10.89-77.14,11.88-77.57,1C1515.09,344.45,1519.29,331.6,1520.53,319.2Z"/><path class="cls-2" d="M1603.74,248.14c0-.07-.09-.13-.13-.19-31.84,26.56-34.56,74-10.62,106-.77-8.83-3.88-17.82-4.47-27C1587.2,306.87,1607.1,253.58,1603.74,248.14Z"/><polyline class="cls-38" points="1536.84 239.09 1547.1 265.83 1551.78 265.83 1567.95 238.35"/><rect class="cls-6" x="1532.36" y="268.62" width="34.45" height="22.01" rx="0.77"/><rect class="cls-3" x="1534.46" y="274" width="10.16" height="12.91" rx="0.62"/><rect class="cls-27" x="1545.17" y="269.48" width="8.84" height="1.35"/><rect class="cls-11" x="1547.1" y="264.36" width="4.68" height="5.8" rx="0.32"/><rect class="cls-28" x="1548.37" y="274" width="15.73" height="1.48"/><rect class="cls-28" x="1548.37" y="277.11" width="15.73" height="1.48"/><rect class="cls-28" x="1548.37" y="280.22" width="15.73" height="1.48"/><rect class="cls-28" x="1548.37" y="285.44" width="15.73" height="1.48"/><path class="cls-1" d="M1531.5,186.21c.52,13.25,7.73,17.13,20.1,16.64,15.82-.62,22.12-7.7,21.6-21s-10.86-20.83-23.22-20.34S1530.76,167.4,1531.5,186.21Z"/><path class="cls-1" d="M1536.83,188.56c-.87-1.46-3.76-4.95-6.56-2.84s-1.28,8.39,1.53,10.83S1542.41,198,1536.83,188.56Z"/><path class="cls-30" d="M1533.65,193.1c.46-.74,1.6.81,2.21-1,.21-.62-.49-2-1-2.72-.6-.9-2.61-3.42-4.22-1.93s-.53,6,1.38,7.38c1.11.82,2.15.7,1.93.26C1533.61,194.37,1533.33,193.47,1533.65,193.1Z"/><path class="cls-39" d="M1532.52,190.44a4,4,0,0,0,1.22,4.14c-.23-.6-.33-1.19-.09-1.48.46-.74,1.6.81,2.21-1,.21-.62-.49-2-1-2.72l0-.06A2.09,2.09,0,0,0,1532.52,190.44Z"/><path d="M1529.73,170.9s-1.83,11.17,2.79,19.54S1540.21,166.6,1529.73,170.9Z"/><path class="cls-1" d="M1561.91,198.35s.61,20.51,3.83,24.44c11.3,13.79-.54,25.79-10.44,25.59-13.17-.27-17.73-10.09-10.2-21.79,1.48-2.29.21-26,.21-26Z"/><path class="cls-1" d="M1545.82,216.06c7.79-.3,15.86-10.77,16.61-19.14.46-5-3.39-8.23-1.92-15.07,3-13.86-10.6-15.12-16.59-14.87-8.18.34-12.86,7-12.53,15.41,0,0,.31,12.21.66,16.27C1533.06,210.4,1538,216.37,1545.82,216.06Z"/><path d="M1538.4,162.26c-1.9.27-5,1.7-5.38,1.31-.87-1.45,2.63-10.55,19.83-5.4,0,0-1.54-1.93-.59-2.18,11.16-3,21.2,9.71,20.71,22.17,0-1.34.36-3.74,1.07-3.88,1.25-.24,2.65,6.91,0,13.57-2.16,7.1-11.85,17.05-12.06,11.67-.53-3.83-.57-6.92-2.2-10.5a20.43,20.43,0,0,1-2.17-6.76,15.31,15.31,0,0,1,.26-4.22c-.14,0-10.09-1.72-16.76-5.6.43.35.85.69,1.28,1,2.88,2,9.4,4.37,9.18,5.43s-20,.43-20.23-5.14c-.75.06-2.7,6.17-3.27,5.14C1524,171.64,1531.28,164.44,1538.4,162.26Z"/><path class="cls-40" d="M1550.4,186.22s0,0,0,0a0,0,0,0,0,0,0Z"/><path class="cls-6" d="M1551.55,201.64c-.19-.64-12.43-.17-12.71.38s1.05,2.93,4.49,2.94C1547.3,205,1551.74,202.29,1551.55,201.64Z"/><path class="cls-41" d="M1551.29,201.72c.07.15,0,.07,0,.07l-.18,0a50.83,50.83,0,0,0-12.14.34c-.09.24.11.63.28.89,2.72,3.55,9.42,1.16,12-1.26Zm.52-.15a.7.7,0,0,1-.24.63A12.71,12.71,0,0,1,1542,205c-1.42-.3-3-1.2-3.34-2.72a.42.42,0,0,1,.16-.43,52.24,52.24,0,0,1,11.92-.68c.37.08.81,0,1.06.41Z"/><path class="cls-1" d="M1561,187.62c.75-1.53,3.36-5.24,6.32-3.35s1.93,8.26-.68,10.91S1556.14,197.44,1561,187.62Z"/><path class="cls-30" d="M1564.5,191.89l-2.28-.79a12.42,12.42,0,0,1,.77-2.79c.53-.94,2.33-3.62,4.06-2.25s1,5.89-.8,7.45a4.35,4.35,0,0,1-2,1.07Z"/><path class="cls-1" d="M1602.7,394.31c.35-1.42,2.35-6.57,3.63-8.23,4.43-5.77,13.32-5.3,15.83-1.74,1.6,2.26,1.58,17.24-3.24,23.85a1.24,1.24,0,0,1-1.06.56,13.68,13.68,0,0,1-1.2,2.61,1.09,1.09,0,0,1-2,0,15.58,15.58,0,0,1-1,1.63c-.83,1.08-2.16.69-2-.53.42-2.65,1-4.33,1.15-6.22a25.22,25.22,0,0,0,0-4.18c-.09,1.15-.24,2.38-.42,3.59a16.17,16.17,0,0,1-2.68,6.59c-.87,1-2.32.45-2.07-.76a60.15,60.15,0,0,0,1.22-6.31c.15-1.79.58-7.15-.49-9.68a9.21,9.21,0,0,0-1,1.05c-.71.91-.77,2-1.91,4.55-.81,1.78-3.63,3.06-3.5.19A55.58,55.58,0,0,1,1602.7,394.31Z"/><path class="cls-3" d="M1601.48,245.23c9.5,9.55,14.87,35,19.58,64.25,5.4,33.56,3.23,79.18,3.23,79.18-.17,2.09-20.23-1.26-20.06-3.35,0,0-2.35-46.56-9.06-67.34-7.11-22-13.7-37.94-20.12-55.86C1570.71,250,1588.93,232.62,1601.48,245.23Z"/><path class="cls-2" d="M1586.48,234s-9.38-.12-13.9,4.7c-7.14,7.63-10.74,9.73-22.13,11.5,0,0,14.73-27.83,14.21-29.59s-1.68-5,2-5.39S1586.7,224.9,1586.48,234Z"/><g class="cls-42"><path class="cls-2" d="M1550.45,250.23s21.32-20.26,21.84-24.68-1.73-9.69-8.17-8.35S1545.54,240.37,1550.45,250.23Z"/></g><path class="cls-3" d="M1524.13,235.33s7.5-.62,11.92,4.83c4.16,5.14,6.72,9.64,15.4,10,0,0-6.06-27.17-5.68-29s.3-5-3.39-5S1522.26,227.82,1524.13,235.33Z"/><g class="cls-43"><path class="cls-2" d="M1551.45,250.19s-13-18.91-13.88-23.28,1-9.79,7.49-9S1555.58,240,1551.45,250.19Z"/></g><path d="M1547.3,191.7c0,.74.93.89,2.1.92s2.13-.09,2.15-.82-.92-1.35-2.09-1.37S1547.32,191,1547.3,191.7Z"/><path d="M1554.75,185.55c0,.12-3.42-.82-4.49-.72s-5,1.14-5.38.76a6.24,6.24,0,0,1-.78-1.78s5.41-1.05,6.56-.85c.78.14,2.48.22,3.43.95A2.51,2.51,0,0,1,1554.75,185.55Z"/><path d="M1535.55,191.38c0,.73.93.89,2.1.91s2.13-.08,2.15-.81-.92-1.35-2.09-1.38S1535.57,190.65,1535.55,191.38Z"/><path d="M1531.81,186.48c0,.13,2.44-1.41,3.4-1.33s5.21,1.48,5.59,1.07a8.31,8.31,0,0,0,.86-1.88s-6-1.07-7-.82a6,6,0,0,0-2.47,1.06C1531.61,185.18,1531.82,186,1531.81,186.48Z"/><path class="cls-33" d="M1541.11,198.25s2.7.19,2.71-.55-5.52-2.15-5.89-1.66S1539.93,197.78,1541.11,198.25Z"/><path class="cls-30" d="M1541.84,187s.43,3.46-.11,4.63-3.29,3.64-3.41,4.21,2.59,2.29,2.79,2.4-4-1-3.74-2.32,3.8-4.3,4-4.94S1541.84,187,1541.84,187Z"/><path class="cls-2" d="M1651.31,240.87c-10.4,20.24-11.54,82.64-27,135.87a58.52,58.52,0,0,0,17,8.65s31.53-56.44,35.48-129.77C1677.49,242.68,1659.49,225,1651.31,240.87Z"/><polygon class="cls-44" points="1681.69 398.25 1591.96 382.69 1604.13 320.67 1692.39 336.56 1681.69 398.25"/><polygon class="cls-18" points="1594.87 383.19 1607.43 322.64 1692.39 336.56 1681.69 398.25 1594.87 383.19"/><path class="cls-44" d="M1650.4,359.88a6.78,6.78,0,1,1-6.77-6.78A6.77,6.77,0,0,1,1650.4,359.88Z"/><path class="cls-45" d="M1631.35,391.52c-.46,3.5-5.21,2.74-4.59-.87a33.47,33.47,0,0,1,1.62-6.56c1.06-2.19,3.31-1.76,3.71.8C1632.35,386.53,1631.57,389.86,1631.35,391.52Z"/><path class="cls-45" d="M1635.56,392.57a2.35,2.35,0,1,1-4.59-.83,31,31,0,0,1,1.62-6.28c1.06-2.11,3.31-1.69,3.71.76C1636.56,387.8,1635.78,391,1635.56,392.57Z"/><path class="cls-45" d="M1639.81,393.5c-.46,2.67-5.21,2.1-4.59-.67a20.8,20.8,0,0,1,1.62-5,2,2,0,0,1,3.71.61C1640.81,389.69,1640,392.23,1639.81,393.5Z"/><path class="cls-45" d="M1627.1,390.16c-.46,2.68-5.2,2.1-4.58-.66a20,20,0,0,1,1.62-5,2,2,0,0,1,3.71.6C1628.1,386.35,1627.32,388.9,1627.1,390.16Z"/><path d="M1663.83,550l-1.44,20.77s.65,4.4.62,5.88a57.77,57.77,0,0,1-.88,5.76c-1.86,1.3-7.68,1.6-10.59.68l-.55-.49a26.82,26.82,0,0,1-4.72,1.2c-4.23.89-16.72.86-18.53-.7,0,0-1.43-6.26,3.77-7.43,13-2.91,15-6.33,16-10.28,1.28-5,2.89-17.47,2.89-17.47Z"/><g class="cls-46"><path d="M1644.11,570.22s3.47-.31,5.35,1.65,3.18,3.43,6,3c7.12-1.24,6.88-6.75,9.85-4.2L1665,585l-39.3.92.11-10.91Z"/><path d="M1626.86,581.52s.48,1.89,12.83,1.54,13.5-3.12,23.13-2.7l-.55,3.36-36.19,2.5Z"/></g><path class="cls-24" d="M1697.9,348.4c-4.8-20.47-33.65-22.56-36.48-1.78-4.07,29.81-15.73,222.46-15.73,222.46,5.6,4.54,13.66,2.19,18.72.56C1664.41,569.64,1710.47,401.94,1697.9,348.4Z"/><path d="M1714.72,550.47v20.82s-1,4.35-1,5.82.47,5.81.47,5.81c1.78,1.43,7.56,2.12,10.52,1.41l.59-.45a26.73,26.73,0,0,0,4.62,1.52c4.16,1.18,16.63,2,18.54.58,0,0,1.85-6.15-3.25-7.67-12.79-3.8-14.53-7.35-15.27-11.36-.92-5.06-1.67-17.63-1.67-17.63Z"/><g class="cls-47"><path d="M1733,572s-3.43-.55-5.45,1.28-3.41,3.2-6.15,2.53c-7-1.72-6.4-7.21-9.54-4.87l-.7,14.38,39.14,3.63.64-10.89Z"/><path d="M1749.43,584.48s-.61,1.85-12.91.65-13.26-4-22.89-4.29l.32,3.39,35.93,5Z"/></g><path class="cls-24" d="M1734.29,341.71c-9.81-18.57-39.1-12.76-39.81,8.24-2.26,66.55,19.26,220.6,19.26,220.6,6,3.39,13.41,2.18,17.77-.63C1731.51,569.92,1752.69,376.59,1734.29,341.71Z"/><path class="cls-24" d="M1666,356.05c.27,11,21,23.57,38.83,23.14s31.37-9.66,31.1-20.63c-.86-35.38-15.52-54.3-33.39-53.86S1665.09,320,1666,356.05Z"/><path class="cls-2" d="M1660.88,351.11c.15,6.42,19.23,9.22,40,8.71s36.38-3.91,36.23-10.33c-.51-20.73-18.59-32.36-39.39-31.85S1660.36,330,1660.88,351.11Z"/><path class="cls-26" d="M1750.54,238.37c-7.88-13.2-49.18-25.18-51.08-25.23-13.15-.38-42.77,18.23-45.78,25-2.61,5.88,8.86,55.15,7.74,77.51-.58,11.65-2.08,20.36-1.79,32.11.27,11,78.34,11.12,78.07.15-.22-9.09-1.9-15.94-1.79-25.43C1736.12,303.51,1753.93,244,1750.54,238.37Z"/><path class="cls-2" d="M1737.7,347.9c-.22-9.09-1.9-15.94-1.79-25.43.21-19,18-78.44,14.63-84.1s-15.84-1.75-17.5,4.89c-14.09,32.89-14,62.14-2.48,109.65C1735,351.64,1737.75,350,1737.7,347.9Z"/><path class="cls-6" d="M1694.65,249.6a1.83,1.83,0,1,0,1.78-1.86A1.82,1.82,0,0,0,1694.65,249.6Z"/><path class="cls-6" d="M1692.22,269a1.82,1.82,0,1,0,1.77-1.87A1.82,1.82,0,0,0,1692.22,269Z"/><path class="cls-6" d="M1690.8,288a1.83,1.83,0,1,0,1.78-1.87A1.82,1.82,0,0,0,1690.8,288Z"/><path class="cls-6" d="M1689.4,305.44a1.83,1.83,0,1,0,1.78-1.86A1.83,1.83,0,0,0,1689.4,305.44Z"/><path class="cls-6" d="M1689.43,322.69a1.83,1.83,0,1,0,1.78-1.87A1.82,1.82,0,0,0,1689.43,322.69Z"/><path class="cls-6" d="M1688.94,339.94a1.83,1.83,0,1,0,1.78-1.87A1.82,1.82,0,0,0,1688.94,339.94Z"/><rect class="cls-6" x="1676.62" y="266.61" width="34.45" height="22.01" rx="0.77"/><rect class="cls-2" x="1678.72" y="272" width="10.16" height="12.91" rx="0.62"/><rect class="cls-27" x="1689.43" y="267.47" width="8.84" height="1.35"/><rect class="cls-11" x="1691.36" y="262.35" width="4.68" height="5.8" rx="0.32"/><rect class="cls-28" x="1692.63" y="272" width="15.73" height="1.48"/><rect class="cls-28" x="1692.63" y="275.11" width="15.73" height="1.48"/><rect class="cls-28" x="1692.63" y="278.21" width="15.73" height="1.48"/><rect class="cls-28" x="1692.63" y="283.43" width="15.73" height="1.48"/><path class="cls-48" d="M1695.82,263.71h-4.12a1.13,1.13,0,0,1-1-.68c-5.23-12.52-12.89-39.37-8.91-44.86.2-.27,1-.91.84-.6-2.35,5.37,3.28,30.84,9.19,45l4-.07.24-.34c6.72-7.73,22.69-28.06,23.66-43.16,0-.34,1.06.71,1,1-1,15.47-17,35.1-23.78,42.92l-.33.38A1.1,1.1,0,0,1,1695.82,263.71Z"/><path class="cls-26" d="M1714.88,208.67c-1.49-3.37-27.87-2.27-28.93,1l1.29,14.06L1715,222Z"/><path class="cls-1" d="M1707.86,190.42s-.13,9,1.86,16.21,7.34,16.45,7.34,16.45l-12.48,1.63-8.1,12.65-3-14.25-9.7-3s8.84-6.11,8-16c-.75-8.62-1.23-13.4-1.23-13.4Z"/><path class="cls-2" d="M1714.88,208.67s.82,2.74-4.33,7.79c-1.61,1.57-7.19,5.53-7.19,5.53l-7.61,16.38,1.92.21,7.24-15.27,8.55,11.49c4.11-5.15,6.77-10,7-14.32Z"/><polygon class="cls-26" points="1713.46 234.8 1704.91 223.31 1697.67 238.58 1706.78 230.41 1713.46 234.8"/><path class="cls-2" d="M1686,209.69c.07,3.8,2.61,10,7.32,12.54l4.4,16.35-1.92-.21-3.65-14.74L1687,235.16c-3-4.51-5.27-9.24-5.68-14.56Z"/><polygon class="cls-26" points="1686.99 235.16 1692.1 223.63 1695.75 238.37 1692.31 230.43 1686.99 235.16"/><path class="cls-29" d="M1682.26,189.09c2.58-2.19,2.89-8.79.66-12a3.82,3.82,0,0,0-5.05-1.18c-2.52,1.19-3.1,4.49-2.6,7.69C1675.86,187.46,1679.45,191.48,1682.26,189.09Z"/><path class="cls-30" d="M1681.28,187.62l-.84-3.5,2.1-.73s-.67-6.45-4.17-4.39C1675.49,180.69,1677.8,188.62,1681.28,187.62Z"/><path class="cls-29" d="M1707.86,190.42s-.55,6.06-2.79,9.26c-2.7,3.84-6.44,8.5-17.26,6.86s-8.49-24.59-8.49-24.59-.69-9,1.5-16.13,16.9-9.61,28.27-5c0,0,3.06,3.5.44,17.68a4.39,4.39,0,0,1,5.62-.24c2.45,1.65,2.41,5,1.25,8C1715,190,1710.78,192.87,1707.86,190.42Z"/><path d="M1679.11,186.9s-9.19,24.13,7.67,27c9.76,1.65,18.28-3.34,21.31-9.67,1.92-4,.09-13.41-.86-18-.14-.67-.62,0-.69-.49l-2.6,10.65a20.1,20.1,0,0,0-14.58-6.83c-8.4-.19-9.84,5-9.84,5Z"/><path class="cls-1" d="M1697,192.61c-2.84,1.71-6.32,1.73-9.51,1.26a5,5,0,0,1-3-1.27.09.09,0,0,1,.12-.12,21.48,21.48,0,0,0,9.32.93,10.7,10.7,0,0,0,3-.92c.07,0,.14.08.06.12Z"/><path d="M1714.91,160.7c-1.61-3.06-7.45-5-12.45-6.1a10.61,10.61,0,0,0-.33-1.32c-2.27-7.13-10.18-6.94-10.18-6.94v4.59c-1.21-1.89-1.21-5.42-1.21-5.42-5.85,3.45-5.44,7.77-5.44,7.77L1684,150s-4.11,3.18-4.15,7.71a5.64,5.64,0,0,0-2,2.6c-1.94,5.79,1.51,21.69,1.51,21.69l.75-11.46a25.39,25.39,0,0,1,1.89-6.65s1.26,1.47,8.78,1.47H1692l.1,0a72.6,72.6,0,0,0,13.39-1.71,42.91,42.91,0,0,0,1.6,8.11c.7,2.19-.55,14.55-.55,14.55s.31,1.48.74,0c.79-2.7,2.33-9.11,5.46-8.83C1712.69,177.41,1717.89,166.34,1714.91,160.7Z"/><path class="cls-30" d="M1709.19,189.15l1.59-3.28-2.09-1.1s2-6.22,5.33-3.55C1716.75,183.41,1712.71,190.78,1709.19,189.15Z"/><path class="cls-27" d="M1695.26,182.2c0,.81,1,1,2.34,1s2.35-.13,2.36-.94-1-1.48-2.34-1.49S1695.26,181.39,1695.26,182.2Z"/><path d="M1703.94,176.3c0,.12-3.71-1.09-4.89-1.05s-5.62.86-6,.43a6.12,6.12,0,0,1-.71-1.91s6.05-.73,7.31-.44S1703.58,175.28,1703.94,176.3Z"/><path class="cls-27" d="M1682.25,182c0,.81,1,1,2.34,1s2.35-.12,2.36-.93-1-1.48-2.34-1.49S1682.25,181.21,1682.25,182Z"/><path d="M1680.56,176.29c0,.12,2-1.43,2.86-1.36s4.46,1.4,4.77,1a9,9,0,0,0,.71-1.88s-5.08-1-6-.73S1680.92,175.29,1680.56,176.29Z"/><path class="cls-33" d="M1688.5,189.54s3,.17,3-.65-6.15-2.3-6.54-1.74S1687.2,189,1688.5,189.54Z"/><path class="cls-30" d="M1689.14,177.09s.53,3.82-.05,5.12-3.59,4.08-3.7,4.72,2.89,2.49,3.11,2.61-4.44-1-4.16-2.51,4.13-4.81,4.33-5.52S1689.14,177.09,1689.14,177.09Z"/><g class="cls-32"><path class="cls-49" d="M1677.62,177.59s-1.62,6.94,5.29,6.94,5.24-7.16,5.24-7.16C1680.57,176.36,1677.62,177.59,1677.62,177.59Z"/><path class="cls-49" d="M1703.15,177.37c-7.58-1-10.53.22-10.53.22s-1.62,6.94,5.29,6.94S1703.15,177.37,1703.15,177.37Z"/></g><path class="cls-26" d="M1708.73,179.05v-1.14l-5.29-.87-.24,0c-7.59-1-10.59.19-10.72.25l-.17.07,0,.16a3.93,3.93,0,0,0-3.76-.12.51.51,0,0,1,0-.09l-.06-.24-.24,0c-7.59-1-10.59.2-10.72.25l-.17.07,0,.18c0,.13-.76,3.34,1,5.51a6.77,6.77,0,0,0,9.36,0,6.67,6.67,0,0,0,1.06-4.76c1.17-.88,3.1-.11,3.5.06a6.57,6.57,0,0,0,1.09,4.72,6.75,6.75,0,0,0,9.35,0,6.47,6.47,0,0,0,1.1-4.39h0ZM1687,182.56a6.08,6.08,0,0,1-8.22,0c-1.29-1.62-1-4-.87-4.72.72-.22,3.72-1,9.92-.17C1688,178.46,1688.31,180.92,1687,182.56Zm15,0a6.08,6.08,0,0,1-8.22,0c-1.29-1.62-1-4-.87-4.72.73-.22,3.73-1,9.92-.17C1703,178.46,1703.31,180.92,1702,182.56Z"/><path class="cls-26" d="M1751,238.93c-10.52-14.49-32,3.85-23.59,21.55,8.45,17.87,21.11,33.9,23.58,50.35,1.72,11.48-25.48,56-25.48,56-.19,2.1,12.14,14.6,14.33,14.64,0,0,46.75-49.67,41.86-77C1777.69,282.23,1764.92,259.79,1751,238.93Z"/><path class="cls-2" d="M1752.51,310.83c3.63-3.2,16.84-8.65,18-7.25.88,1.11-12.1,5.68-12.1,5.68S1775,304,1776,307.57c.52,1.94-10.25.53-22.2,4.37C1753.76,311.94,1750.37,312.72,1752.51,310.83Z"/><path class="cls-2" d="M1722.18,361.48s5.27,11.48,19.07,20.84a1.55,1.55,0,0,1-1,1.74c-1.24.39-4.14-2.05-9.62-7.43-3.66-3.6-9.8-12.66-10-13.91S1722.18,361.48,1722.18,361.48Z"/><path d="M1143.41,554v21s1,4.38,1,5.87a58.66,58.66,0,0,1-.48,5.86c-1.79,1.44-7.62,2.14-10.61,1.42l-.59-.45a27.07,27.07,0,0,1-4.66,1.53c-4.2,1.19-16.76,2-18.7.58,0,0-1.86-6.2,3.29-7.73,12.89-3.84,14.64-7.42,15.39-11.46.93-5.1,1.68-17.77,1.68-17.77Z"/><g class="cls-50"><path d="M1125,575.74s3.47-.55,5.5,1.3,3.44,3.22,6.2,2.55c7.09-1.74,6.46-7.27,9.63-4.91l.7,14.49-39.47,3.66-.65-11Z"/><path class="cls-51" d="M1108.41,588.32s.62,1.86,13,.65,13.36-4.08,23.08-4.32l-.32,3.42-36.24,5Z"/></g><path d="M1194.73,553.54l1.45,20.94a58.79,58.79,0,0,0-.62,5.93,58.37,58.37,0,0,0,.88,5.81c1.88,1.31,7.74,1.61,10.68.69l.56-.49a27,27,0,0,0,4.76,1.2c4.26.9,16.86.87,18.69-.71,0,0,1.43-6.31-3.81-7.48-13.13-2.94-15.13-6.39-16.15-10.38-1.28-5-2.91-17.61-2.91-17.61Z"/><g class="cls-52"><path d="M1214.61,573.93s-3.49-.31-5.39,1.67-3.21,3.46-6,3c-7.19-1.25-6.94-6.81-9.93-4.24l.29,14.51,39.63.93-.11-11Z"/><path class="cls-51" d="M1232,585.34s-.48,1.9-12.94,1.55-13.61-3.15-23.32-2.72l.55,3.39,36.5,2.51Z"/></g><path class="cls-26" d="M1178.81,253.48c5.78,12.15,44,58.42,59.19,64.46,22.61,9,59.57-6.19,75.53-12.45,6.09-3.5-.39-20.32-5.82-19.53,0,0-52.35,7.51-58.06,4.32-4.9-2.74-29.23-40.77-49.91-56.76C1192.79,228.14,1171.07,237.17,1178.81,253.48Z"/><path class="cls-6" d="M1314,294.14c1,3.19.92,6.25.09,8.13a2.94,2.94,0,0,1-1.8,1.83c-1.08.32-2.32-.2-3.48-1.31a14.19,14.19,0,0,1-3.42-6.09c-1-3.21-.92-6.28-.07-8.15a2.94,2.94,0,0,1,1.8-1.8,2.3,2.3,0,0,1,.91-.08h0C1310.27,286.9,1312.78,290,1314,294.14Z"/><path class="cls-1" d="M1344.75,283.42a15.35,15.35,0,0,1-1.49,1.74,1.45,1.45,0,0,1,.68,2.39,13.86,13.86,0,0,1-2.54,2.23,1.75,1.75,0,0,1-.29,1.48c-3.89,5.72-21.26,11.55-25.93,10.81a1.33,1.33,0,0,0-.35,0c-1.33,0-4.06,1-5.11.6l-.17-.08a14.25,14.25,0,0,1-3.42-6.09c-1-3.21-.92-6.28-.07-8.15.54-.71,1.5-.79,2.71-1.88h0a9.66,9.66,0,0,0,2-2.53c.75-1.3,3.39-4.5,9.19-8.69,1.47-1.07,6.25-2.41,7.64-2.82,3.2-1,2.69,2.85,1,4.36-2.48,2.11-3.74,2.52-4.53,3.66a10.41,10.41,0,0,0-1,1.81,82.63,82.63,0,0,0,11.27-2.49,59.11,59.11,0,0,0,6.75-3.31c1.28-.64,2.44,1,1.54,2.34A17.7,17.7,0,0,1,1336,284c-1.31.57-2.66,1.1-3.92,1.54a24.46,24.46,0,0,0,4.73-1.13c2.1-.74,3.8-1.93,6.67-3.22C1344.82,280.56,1345.72,282.09,1344.75,283.42Z"/><path class="cls-24" d="M1160.37,350.25c4.85-20.65,33.93-22.75,36.79-1.8,4.11,30.06,15.86,224.34,15.86,224.34-5.65,4.58-13.77,2.21-18.88.57C1194.14,573.36,1147.7,404.24,1160.37,350.25Z"/><path class="cls-24" d="M1123.68,343.5c9.88-18.73,39.42-12.87,40.14,8.31,2.28,67.11-19.42,222.46-19.42,222.46-6.06,3.42-13.52,2.2-17.93-.64C1126.47,573.63,1105.12,378.67,1123.68,343.5Z"/><path class="cls-24" d="M1192.57,362.92c-.27,11.05-11.18,23.77-29.2,23.33s-41.59-9.74-41.32-20.8c.87-35.67,15.65-54.76,33.67-54.31S1193.46,326.56,1192.57,362.92Z"/><path class="cls-2" d="M1197.71,353c-.16,6.48-19.4,9.3-40.39,8.78s-36.68-3.94-36.53-10.42c.51-20.9,18.74-32.62,39.73-32.11S1198.23,331.68,1197.71,353Z"/><path class="cls-53" d="M1111.48,239.29c8-13.31,45.4-25.39,47.32-25.45,13.26-.38,41.85,17.62,44.88,24.43,2.64,5.93-7.65,56.39-6.52,78.94.58,11.75,2.09,20.53,1.81,32.38-.27,11.05-79,11.21-78.73.16.22-9.17,6.91-15.92,6.8-25.48C1126.82,305.14,1108.07,245,1111.48,239.29Z"/><path class="cls-26" d="M1140.46,219.6s18.7,66.63,11,108.74c-2.94,16.13-24.63,34.8-30.69,47.6-3.69,7.82-4.15,26.21-4.15,26.21s-22.85-8.73-22.82-26.21c0-9.39,27-62.73,27-62.73s-18.44-59.09-13.94-73.36S1140.46,219.6,1140.46,219.6Z"/><path class="cls-2" d="M1129.42,319.21c10-28.19,8-91.52-17-87.27a18,18,0,0,0-5.6,7.91c-4.5,14.27,13.94,73.36,13.94,73.36a208,208,0,0,0-13.65,27.31C1115.13,332.94,1125.77,329.49,1129.42,319.21Z"/><path class="cls-6" d="M1163.64,250.62a1.84,1.84,0,1,1-1.79-1.89A1.83,1.83,0,0,1,1163.64,250.62Z"/><path class="cls-6" d="M1166.1,270.22a1.84,1.84,0,1,1-1.79-1.89A1.84,1.84,0,0,1,1166.1,270.22Z"/><path class="cls-6" d="M1167.53,289.3a1.84,1.84,0,1,1-1.79-1.88A1.84,1.84,0,0,1,1167.53,289.3Z"/><path class="cls-6" d="M1168.94,306.93a1.84,1.84,0,1,1-1.79-1.88A1.84,1.84,0,0,1,1168.94,306.93Z"/><path class="cls-6" d="M1168.91,324.32a1.84,1.84,0,1,1-1.79-1.89A1.85,1.85,0,0,1,1168.91,324.32Z"/><path class="cls-6" d="M1169.4,341.71a1.84,1.84,0,1,1-1.79-1.88A1.82,1.82,0,0,1,1169.4,341.71Z"/><path class="cls-2" d="M1109.11,235.45c10.6-14.6,27.89,6.25,19.44,24.1-8.52,18-19.21,36.22-21.7,52.81-1.73,11.58,25.69,56.46,25.69,56.46.2,2.12-12.23,14.72-14.44,14.76,0,0-47.15-50.09-42.21-77.65C1079.91,283.52,1088.9,257.79,1109.11,235.45Z"/><path class="cls-54" d="M1105.3,312.36c-3.66-3.23-17-8.73-18.11-7.31-.89,1.12,12.2,5.73,12.2,5.73s-16.8-5.26-17.74-1.71c-.52,2,10.34.54,22.39,4.41C1104,313.48,1107.46,314.27,1105.3,312.36Z"/><path class="cls-2" d="M1135.89,363.44s-5.32,11.58-19.24,21a1.57,1.57,0,0,0,1,1.75c1.25.39,4.18-2.06,9.7-7.5,3.7-3.63,9.89-12.76,10-14S1135.89,363.44,1135.89,363.44Z"/><path class="cls-26" d="M1176.2,218.68s3.37,97.62,4.34,103.75,8,70.66,12.06,75.64,16-2.31,16-2.31l-9.35-81.3s9.18-64,5.72-75.41S1176.2,218.68,1176.2,218.68Z"/><path class="cls-55" d="M1143.71,210.41c2.35-3.12,25.91-3.68,27.15-.42l-.53,14.22-28.06-.22Z"/><path class="cls-1" d="M1149.79,191.66s.61,9.05-1,16.42-6.51,17-6.51,17l12.66,1,8.84,12.3L1166,223.8l9.6-3.56s-9.22-5.67-8.89-15.67c.29-8.72.52-13.57.52-13.57Z"/><path class="cls-29" d="M1175.49,188.94c-2.71-2.07-3.38-8.7-1.3-12a3.86,3.86,0,0,1,5-1.46c2.6,1.07,3.36,4.36,3,7.6C1181.85,187,1178.45,191.2,1175.49,188.94Z"/><path class="cls-30" d="M1176.4,187.4l.66-3.56-2.16-.62s.34-6.54,4-4.66C1181.86,180.11,1180,188.22,1176.4,187.4Z"/><path class="cls-29" d="M1149.79,191.66s.88,6.07,3.31,9.17c2.92,3.72,7,8.21,17.74,6s7.23-25.22,7.23-25.22.21-9.1-2.38-16.16-17.54-8.77-28.73-3.48c0,0-2.89,3.7.5,17.83a4.42,4.42,0,0,0-5.67.07c-2.37,1.78-2.15,5.15-.82,8.16C1142.58,191.62,1147,194.28,1149.79,191.66Z"/><path class="cls-31" d="M1160.91,193.16c4,1.57,8.57.7,12.43-.68.07-.07.19,0,.13.11a5,5,0,0,1-3,1.45,18,18,0,0,1-6.54.27,10,10,0,0,1-3.11-1,.07.07,0,0,1,.07-.12Z"/><path d="M1141.08,162.11c7.39-15.73,22.36-15.7,22.36-15.7l.24,4.62c1.12-2,.93-5.52.93-5.52,6.07,3.16,5.9,7.53,5.9,7.53l1.12-3.43c9.24,4.74,9.84,15.9,6.44,32l-1.37-11.5a25.45,25.45,0,0,0-2.26-6.6s-1.19,1.55-8.77,2l-.94,0-.27,0h-.1a72.54,72.54,0,0,1-13.58-1,43.66,43.66,0,0,1-1.18,8.26c-.58,2.25,1.34,14.63,1.34,14.63s-.23,1.5-.74,0c-1-2.68-2-10.19-8.41-7.57C1141.79,179.85,1138.39,168,1141.08,162.11Z"/><path class="cls-30" d="M1148.38,190.45l-1.78-3.21,2.05-1.23s-2.35-6.15-5.56-3.29C1140.46,185.08,1144.93,192.28,1148.38,190.45Z"/><path class="cls-27" d="M1162,182.7c0,.82-1,1-2.31,1.11s-2.38,0-2.43-.82,1-1.54,2.28-1.62S1162,181.88,1162,182.7Z"/><path d="M1153,177.22c0,.13,3.68-1.29,4.87-1.31s5.71.56,6.07.11a6.32,6.32,0,0,0,.62-2s-6.14-.41-7.39-.05c-.85.25-2.71.54-3.67,1.43A2.58,2.58,0,0,0,1153,177.22Z"/><path class="cls-27" d="M1175.13,181.82c0,.82-1,1-2.31,1.11s-2.37,0-2.43-.81,1-1.55,2.28-1.63S1175.08,181,1175.13,181.82Z"/><path d="M1176.52,176c0,.13-2.14-1.33-3-1.22s-4.41,1.65-4.75,1.26a9.31,9.31,0,0,1-.81-1.86s5.06-1.27,6-1.06a4.9,4.9,0,0,1,2.16,1A2.9,2.9,0,0,1,1176.52,176Z"/><path class="cls-33" d="M1169.23,189.72s-3,.34-3-.48,6.07-2.65,6.5-2.11S1170.52,189.15,1169.23,189.72Z"/><path class="cls-30" d="M1167.92,177.23s-.32,3.87.32,5.15,3.84,3.92,4,4.55-2.78,2.67-3,2.79,4.42-1.29,4.06-2.74-4.42-4.63-4.65-5.33S1167.92,177.23,1167.92,177.23Z"/><g class="cls-32"><path class="cls-49" d="M1179.55,177.11s2,6.9-5,7.27-5.67-6.93-5.67-6.93C1176.52,176,1179.55,177.11,1179.55,177.11Z"/><path class="cls-49" d="M1153.83,178.26c7.58-1.42,10.61-.35,10.61-.35s2,6.91-5,7.28S1153.83,178.26,1153.83,178.26Z"/></g><path class="cls-56" d="M1153.35,179.54h0a6.46,6.46,0,0,0,1.35,4.36,5.61,5.61,0,0,0,4.81,1.65,5.69,5.69,0,0,0,4.61-2.13,6.66,6.66,0,0,0,.84-4.81c.39-.2,2.29-1.08,3.52-.26a6.71,6.71,0,0,0,1.32,4.74,6.82,6.82,0,0,0,9.42-.48c1.62-2.28.72-5.47.68-5.61l-.05-.17-.18-.07c-.13,0-3.21-1.08-10.8.33l-.24,0-.05.24a.51.51,0,0,1,0,.09,3.94,3.94,0,0,0-3.77.32l0-.16-.18-.06c-.12,0-3.21-1.09-10.8.33l-.24,0-5.28,1.15.06,1.16Zm15.9-1.78c6.2-1.13,9.26-.55,10-.37.16.69.59,3.1-.62,4.8a6.12,6.12,0,0,1-8.28.43C1169,181,1169.15,178.54,1169.25,177.76Zm-15.1.81c6.19-1.13,9.25-.55,10-.37.16.69.59,3.1-.61,4.8a6.13,6.13,0,0,1-8.29.43C1153.86,181.85,1154.05,179.35,1154.15,178.57Z"/><path class="cls-53" d="M1143.71,210.41s-.68,2.81,4.77,7.61c1.71,1.5,7.54,5.18,7.54,5.18l8.55,16.09-1.93.31-8.1-15-8,12c-2.55-3.38-6.67-11.39-7.1-15.73Z"/><polygon class="cls-55" points="1146.54 236.65 1154.54 224.62 1162.64 239.6 1153.04 231.87 1146.54 236.65"/><path class="cls-53" d="M1170.86,210c.14,3.83-2.52,11-4.67,12.92l-3.55,16.69,1.93-.31,2.88-15,5.77,11.33a25.07,25.07,0,0,0,2.3-17.52Z"/><polygon class="cls-55" points="1173.22 235.58 1167.44 224.25 1164.57 239.29 1167.61 231.1 1173.22 235.58"/><path class="cls-6" d="M1094.83,471.17h-6v-6a2.46,2.46,0,0,0-2.46-2.46h0a2.46,2.46,0,0,0-2.45,2.46v6h-6a2.45,2.45,0,0,0-2.45,2.45h0a2.46,2.46,0,0,0,2.45,2.46h6v6a2.46,2.46,0,0,0,2.45,2.46h0a2.46,2.46,0,0,0,2.46-2.46v-6h6a2.46,2.46,0,0,0,2.45-2.46h0A2.45,2.45,0,0,0,1094.83,471.17Z"/><path class="cls-6" d="M1621,524.84h-6v-6a2.46,2.46,0,0,0-2.45-2.46h0a2.46,2.46,0,0,0-2.46,2.46v6h-6a2.46,2.46,0,0,0-2.46,2.46h0a2.46,2.46,0,0,0,2.46,2.45h6v6a2.46,2.46,0,0,0,2.46,2.46h0a2.46,2.46,0,0,0,2.45-2.46v-6h6a2.46,2.46,0,0,0,2.46-2.45h0A2.46,2.46,0,0,0,1621,524.84Z"/><path class="cls-23" d="M1861.74,300.31h-6v-6a2.46,2.46,0,0,0-2.45-2.46h0a2.46,2.46,0,0,0-2.46,2.46v6h-6a2.45,2.45,0,0,0-2.46,2.45h0a2.46,2.46,0,0,0,2.46,2.46h6v6a2.46,2.46,0,0,0,2.46,2.46h0a2.46,2.46,0,0,0,2.45-2.46v-6h6a2.46,2.46,0,0,0,2.46-2.46h0A2.45,2.45,0,0,0,1861.74,300.31Z"/><path class="cls-23" d="M1090.05,199h-6v-6a2.46,2.46,0,0,0-2.46-2.46h0a2.46,2.46,0,0,0-2.46,2.46v6h-6a2.46,2.46,0,0,0-2.46,2.46h0a2.46,2.46,0,0,0,2.46,2.45h6v6a2.46,2.46,0,0,0,2.46,2.46h0a2.46,2.46,0,0,0,2.46-2.46v-6h6a2.46,2.46,0,0,0,2.46-2.45h0A2.46,2.46,0,0,0,1090.05,199Z"/><path class="cls-57" d="M1370.14,37.32a17.44,17.44,0,1,1-17.44,17.44A17.45,17.45,0,0,1,1370.14,37.32Zm4.34-23.45a40.53,40.53,0,0,0-8.67,0l-.81,12.6a28.6,28.6,0,0,0-5.82,1.71L1351.68,18a40.78,40.78,0,0,0-7.29,4.69l6.13,11a28.51,28.51,0,0,0-4,4.59l-11.79-4.5a41,41,0,0,0-3.61,7.89l11.13,6a28.38,28.38,0,0,0-.86,6l-12.36,2.59a41.58,41.58,0,0,0,1.23,8.59l12.59-1a28.38,28.38,0,0,0,2.52,5.52l-9,8.86a41.29,41.29,0,0,0,5.68,6.56l10.05-7.64a28.77,28.77,0,0,0,5.1,3.28l-2.77,12.32a41.57,41.57,0,0,0,8.32,2.44l4.33-11.86a29.32,29.32,0,0,0,6.07,0l4.32,11.86a41.57,41.57,0,0,0,8.32-2.44l-2.77-12.32a28.77,28.77,0,0,0,5.1-3.28l10.06,7.64a41.29,41.29,0,0,0,5.68-6.56l-9-8.86a27.8,27.8,0,0,0,2.52-5.52l12.59,1a41.6,41.6,0,0,0,1.24-8.59l-12.36-2.59a29.73,29.73,0,0,0-.86-6l11.12-6a41.61,41.61,0,0,0-3.6-7.89l-11.8,4.5a29,29,0,0,0-4-4.59l6.13-11a40.86,40.86,0,0,0-7.3-4.69l-7.49,10.16a29,29,0,0,0-5.82-1.71Z"/><path class="cls-58" d="M1445.69,63.23a15.52,15.52,0,1,1-17.76,12.9A15.54,15.54,0,0,1,1445.69,63.23Zm4.9-20.53c-1.06-.21-2.13-.38-3.2-.5l-4,10.77a25.83,25.83,0,0,0-4.56.38l-5.75-9.94c-1,.3-2.06.64-3.07,1l1.47,11.4a24.73,24.73,0,0,0-3.86,2.46l-9.71-6.14c-.78.75-1.53,1.53-2.24,2.35l6.6,9.41a24.72,24.72,0,0,0-2.27,4L1408.54,67c-.34,1-.63,2.06-.89,3.11l10.22,5.27a24.9,24.9,0,0,0-.17,4.57l-10.57,4.51c.17,1.06.39,2.12.66,3.17l11.49-.08a25.17,25.17,0,0,0,2,4.12l-7.27,8.9c.65.87,1.34,1.7,2.06,2.5l10.14-5.41a25.67,25.67,0,0,0,3.66,2.74l-2.29,11.26c1,.46,2,.88,3,1.25l6.46-9.5a26.48,26.48,0,0,0,4.51.72l3.2,11c1.08,0,2.16-.13,3.23-.27l1.31-11.42a24.79,24.79,0,0,0,4.33-1.46l8,8.28q1.41-.81,2.73-1.74l-4.15-10.71a26,26,0,0,0,3.16-3.31l10.9,3.63c.58-.91,1.11-1.85,1.61-2.81l-8.66-7.56a26,26,0,0,0,1.26-4.4l11.34-1.85c.09-1.07.12-2.15.12-3.23l-11.18-2.67a26.21,26.21,0,0,0-.93-4.48l9.18-6.91c-.42-1-.89-2-1.4-2.92l-11.13,2.83a26.63,26.63,0,0,0-2.91-3.53l4.92-10.38c-.84-.69-1.7-1.33-2.6-1.94L1455.27,56a25.65,25.65,0,0,0-4.22-1.78Z"/><path class="cls-58" d="M1449,78.66a5.53,5.53,0,1,1-5.53-5.53A5.53,5.53,0,0,1,1449,78.66Z"/><path class="cls-7" d="M121.59,470.45c0,.68-5,1.23-11.08,1.23s-11.08-.55-11.08-1.23,5-1.22,11.08-1.22S121.59,469.77,121.59,470.45Z"/><path class="cls-7" d="M133.35,440.32c.68,0,1.23,5,1.23,11.24s-.55,11.24-1.23,11.24-1.22-5-1.22-11.24S132.68,440.32,133.35,440.32Z"/><path class="cls-7" d="M145.88,469.73c0-.68,5-1.23,11.08-1.23s11.08.55,11.08,1.23S163.08,471,157,471,145.88,470.41,145.88,469.73Z"/><path class="cls-7" d="M134.12,499.86c-.68,0-1.23-5-1.23-11.24s.55-11.24,1.23-11.24,1.22,5,1.22,11.24S134.79,499.86,134.12,499.86Z"/><path class="cls-7" d="M152,486.94c-.52.43-2.7-1.33-4.87-3.93s-3.52-5.07-3-5.5,2.7,1.32,4.88,3.93S152.54,486.51,152,486.94Z"/><path class="cls-7" d="M151,452.76c.48.48-1,2.71-3.22,5s-4.48,3.74-5,3.26,1-2.71,3.22-5S150.51,452.29,151,452.76Z"/><path class="cls-7" d="M125.6,461.47c-.44.52-2.53-.51-4.68-2.3s-3.54-3.66-3.11-4.18,2.53.51,4.68,2.3S126,461,125.6,461.47Z"/><path class="cls-7" d="M124.6,476.53c.5.46-.76,2.65-2.81,4.9s-4.11,3.71-4.61,3.25.75-2.65,2.8-4.9S124.1,476.08,124.6,476.53Z"/><path class="cls-7" d="M746.68,412.14c0,.38-2.82.7-6.29.7s-6.29-.32-6.29-.7,2.82-.7,6.29-.7S746.68,411.76,746.68,412.14Z"/><path class="cls-7" d="M753.36,395c.38,0,.69,2.86.69,6.38s-.31,6.38-.69,6.38-.7-2.85-.7-6.38S753,395,753.36,395Z"/><path class="cls-7" d="M760.47,411.73c0-.38,2.82-.7,6.29-.7s6.29.32,6.29.7-2.81.7-6.29.7S760.47,412.11,760.47,411.73Z"/><path class="cls-7" d="M753.79,428.84c-.38,0-.69-2.86-.69-6.38s.31-6.38.69-6.38.7,2.85.7,6.38S754.18,428.84,753.79,428.84Z"/><path class="cls-7" d="M764,421.5c-.3.25-1.54-.75-2.77-2.23s-2-2.88-1.7-3.12,1.53.75,2.77,2.23S764.25,421.25,764,421.5Z"/><path class="cls-7" d="M763.37,402.1c.27.27-.54,1.54-1.83,2.83s-2.54,2.12-2.81,1.85.54-1.54,1.83-2.83S763.1,401.83,763.37,402.1Z"/><path class="cls-7" d="M749,407c-.24.3-1.43-.29-2.65-1.3s-2-2.08-1.77-2.38,1.44.29,2.66,1.31S749.2,406.75,749,407Z"/><path class="cls-7" d="M748.39,415.59c.28.26-.43,1.51-1.59,2.78s-2.34,2.11-2.63,1.85.43-1.51,1.6-2.78S748.11,415.33,748.39,415.59Z"/><path class="cls-7" d="M461,555.24c0,.29-2.16.53-4.82.53s-4.82-.24-4.82-.53,2.16-.54,4.82-.54S461,554.94,461,555.24Z"/><path class="cls-7" d="M466.09,542.12c.3,0,.54,2.19.54,4.89s-.24,4.89-.54,4.89-.53-2.19-.53-4.89S465.8,542.12,466.09,542.12Z"/><path class="cls-7" d="M471.55,554.92c0-.29,2.15-.53,4.82-.53s4.82.24,4.82.53-2.16.53-4.82.53S471.55,555.22,471.55,554.92Z"/><path class="cls-7" d="M466.43,568c-.3,0-.54-2.19-.54-4.9s.24-4.89.54-4.89.53,2.19.53,4.89S466.72,568,466.43,568Z"/><path class="cls-7" d="M474.22,562.41c-.23.19-1.18-.58-2.12-1.71s-1.54-2.2-1.31-2.39,1.18.57,2.12,1.71S474.44,562.22,474.22,562.41Z"/><path class="cls-7" d="M473.77,547.54c.21.21-.42,1.18-1.4,2.17s-1.95,1.63-2.16,1.42.42-1.18,1.4-2.17S473.56,547.33,473.77,547.54Z"/><path class="cls-7" d="M462.72,551.33c-.19.22-1.1-.22-2-1s-1.54-1.6-1.35-1.82,1.1.22,2,1S462.91,551.1,462.72,551.33Z"/><path class="cls-7" d="M462.28,557.88c.22.2-.33,1.16-1.22,2.13s-1.79,1.62-2,1.42.33-1.16,1.22-2.13S462.07,557.68,462.28,557.88Z"/><path class="cls-7" d="M385.56,413.24l.82,2a13.93,13.93,0,0,0,7.61,7.54l2.13.86-2,.83a13.92,13.92,0,0,0-7.67,7.69l-.58,1.43-.86-1.8a14,14,0,0,0-7.77-7l-1.86-.68,2.43-1.17a13.93,13.93,0,0,0,6.77-7.17Z"/><path class="cls-7" d="M66.05,560.47l.54,1.3a9.24,9.24,0,0,0,5.06,5l1.42.58-1.36.55a9.24,9.24,0,0,0-5.1,5.11l-.38,1-.58-1.2a9.27,9.27,0,0,0-5.16-4.68l-1.24-.45,1.62-.78a9.27,9.27,0,0,0,4.5-4.77Z"/><path class="cls-7" d="M871.15,433.56l.54,1.31a9.27,9.27,0,0,0,5.06,5l1.42.57-1.36.56a9.25,9.25,0,0,0-5.1,5.1l-.38.95-.58-1.19a9.23,9.23,0,0,0-5.16-4.68l-1.23-.45L866,440a9.27,9.27,0,0,0,4.5-4.77Z"/><path class="cls-7" d="M542.3,445.71l.39.92a6.52,6.52,0,0,0,3.57,3.54l1,.4-1,.39a6.54,6.54,0,0,0-3.6,3.61l-.27.67-.41-.84a6.51,6.51,0,0,0-3.64-3.31l-.87-.31,1.14-.56a6.56,6.56,0,0,0,3.18-3.36Z"/><path class="cls-7" d="M283.82,552.14l.5,1.19a8.36,8.36,0,0,0,4.59,4.55l1.29.52-1.24.51a8.37,8.37,0,0,0-4.63,4.64l-.35.86-.52-1.08a8.39,8.39,0,0,0-4.69-4.26l-1.12-.41,1.46-.71a8.37,8.37,0,0,0,4.1-4.33Z"/></g></g></g></svg>