<svg xmlns="http://www.w3.org/2000/svg" viewBox="0 0 150.42 177.6"><defs><style>.cls-1{fill:#872e68;}</style></defs><g id="Layer_2" data-name="Layer 2"><g id="Layer_1-2" data-name="Layer 1"><path class="cls-1" d="M6.62,89.1q0,37.74,0,75.49c0,6.65,0,6.67,6.48,6.67q32.51,0,65,0c.84,0,1.67,0,2.5,0,2.2-.08,4,.21,4,3.09S83,177.6,80.7,177.59c-8,0-16,0-24,0-16,0-32,0-48,0-7.75,0-9.1-1.94-8.63-9.63.42-6.81.2-13.66.2-20.49Q.29,81.19.28,15C.28,12,0,9,.15,6,.4,1.85,2.73-.25,7.06,0,19.35.81,31.69.41,44,.51,58.06.63,72.23.41,86.37.24a81.51,81.51,0,0,1,30.79,5.23C133,11.64,140.12,24,141.6,40.08,143,54.64,140.09,68,128.09,77.92c-2.79,2.32-.38,3.25,1.25,4.34,15,10,21,24.95,21.08,41.95.13,20.33-8.59,36.2-27.51,45.57A90.13,90.13,0,0,1,105.57,176a13.44,13.44,0,0,1-4.43,0c-2.27-.19-3.21-1.88-3.22-3.8,0-2.12,1.94-1.76,3.37-2.05,12.45-2.48,24.23-6.53,32.65-16.67C152,131.67,146.51,92,112.3,80.54A100.07,100.07,0,0,0,79,75.3c-10.83.15-21.66,0-32.49-.06-5.66,0-7-1.29-7.1-7-.23-19,.3-38-.54-57-.18-4.11-1.68-5-5.36-4.93-7.16.21-14.34.3-21.49,0-4.13-.16-5.48,1.14-5.41,5.32.23,13,.07,26,.06,39ZM74.14,6.41c-8,0-13.82.18-19.63-.06-4-.17-5.84,1.27-5.69,5.39.16,4.49.16,9,0,13.48-.17,4,1.57,5.15,5.37,5.12,9.64-.1,19.27-.17,28.92.6C100,32.28,108.77,47.23,103,59.74c-.33.73-.13,1.7-.46,2.43-1.44,3.21-.64,4.65,3,5.4a62.62,62.62,0,0,1,13.26,4.22c3.56,1.63,5.87.91,8.28-1.77,7.45-8.29,9-18.24,8.34-28.83-1-15.66-9.61-26.43-24.47-31C98.21,6.28,85.12,6.22,74.14,6.41ZM70.23,69v.09c4.32,0,8.72-.49,13,.12,6.07.88,9.37-1.26,12.17-6.77,6.38-12.57,1.21-23.41-12.75-25-10.59-1.19-21.25-1-31.9-.79-3.8.06-5.3,1.4-5.16,5.33.25,7,.37,14,0,20.95-.26,4.57,1.94,6,5.75,6C57.58,69.05,63.91,69,70.23,69Z"/><path class="cls-1" d="M39.4,121.54c0-6.66.06-13.32,0-20,0-3.19,1.22-5.22,4.49-5.43,16.27-1,32.61-2.34,48.72,1.14,8.38,1.82,14.73,6.69,17.14,15.55,5.8,21.23-6,33.83-26.44,34.42-12.64.36-25.3-.19-38-.16-4.29,0-6-1.91-6-6.05.07-6.49,0-13,0-19.49Zm28.54-19.13v-.06c-6,0-12,.05-18,0-2.77,0-4.36.75-4.34,3.94.09,10.32,0,20.65,0,31,0,2.1.51,3.73,2.94,3.71,14.12-.14,28.32,1.18,42.31-1.25,6.53-1.14,12.41-5,13.29-11.95,1.92-15.32-1.91-23.65-18.21-25.24C80,101.93,73.94,102.41,67.94,102.41Z"/></g></g></svg>