<svg xmlns="http://www.w3.org/2000/svg" viewBox="0 0 231.11 439.53"><defs><style>.cls-1{fill:#3868b0;}</style></defs><g id="Layer_2" data-name="Layer 2"><g id="Layer_2-2" data-name="Layer 2"><path class="cls-1" d="M77.69,118.73c-23.07,0-46.13-.16-69.2.11-6.13.08-7-2.77-7-7.88.14-31.78,0-63.55.08-95.33C1.63,5,7.18.07,17.78.1,56.62.22,95.47-.34,134.3.35c47.82.84,88.42,39.29,94.76,86.84,3,22.22,2.05,43.68-4.71,64.85-13.84,43.35-43.17,56.88-76.77,60.76-42.52,4.92-85.41,1.83-128.14,2.1-12.88.08-17.88-5.34-17.77-18,.11-11.69-4.86-26.71,1.85-34.17,6.93-7.7,22.23-2.36,33.84-2.51,28.64-.38,57.28-.18,85.92-.1,11,0,20-2.76,24.82-13.85s-1-18.65-8.24-25.91c-18.78-18.93-37.42-38-56.32-56.84C73.11,53.14,61,52.39,52.59,61.05s-7.83,21,2.27,31.24c8,8,16.77,15.26,25.2,22.85Z"/><path class="cls-1" d="M220.35,281.37c-42.33,0-82.32.19-122.31-.12-10.76-.09-19.62,2.35-24,12.89s.14,18.66,7.73,26.17c19.51,19.32,38.45,39.22,58.06,58.42,12.82,12.55,30,8.13,35-8.27,2.49-8.22-.75-14.83-6.25-20.16-8.44-8.17-17.51-15.67-25.94-23.13,4-6.06,7.46-4.37,10.23-4.39,23.14-.15,46.29,0,69.44-.13,5.23,0,8.78.27,8.8,7.29,0,20.59-2.85,40.54-11.61,59.28-16.71,35.74-48.21,48-84.36,49.45-38.77,1.59-77.66.51-116.5.41-12.17,0-17-4.92-17-17.14q-.14-90,0-180.07c0-12.19,5-18.07,16.66-17.86,41.92.77,84-3.17,125.74,2.24C178.13,230.67,202.9,249.19,220.35,281.37Z"/></g></g></svg>