<svg clip-rule="evenodd" fill-rule="evenodd" height="512" image-rendering="optimizeQuality" shape-rendering="geometricPrecision" text-rendering="geometricPrecision" viewBox="0 0 512 512" width="512" xmlns="http://www.w3.org/2000/svg"><g id="Layer_x0020_1"><g id="_535626624"><g><g id="_535623648"><path id="_554124216" d="m329.878 371.015h-305.043c-13.6867 0-24.8221-11.1343-24.8221-24.8209v-274.845c0-13.6867 11.1355-24.8221 24.8221-24.8221h437.678c13.6878 0 24.8209 11.1343 24.8209 24.8209v238.653c0 2.6504-1.60749 5.03505-4.06537 6.02718-2.45316.992129-5.27009.393308-7.11026-1.51418-15.4914-16.0536-36.3025-24.8942-58.5958-24.8942-42.4289 0-78.0971 33.1064-81.2022 75.3699-.250394 3.39804-3.07796 6.02482-6.48191 6.02482zm-305.043-311.488c-6.51971 0-11.8229 5.30435-11.8229 11.8229v274.843c0 6.51971 5.30435 11.8217 11.8229 11.8217h299.195c2.95867-21.4111 13.1622-41.119 29.1225-56.014 17.5359-16.3666 40.4104-25.3796 64.4093-25.3796 20.8123 0 40.5108 6.64372 56.7722 18.9461v-224.219c0-6.51852-5.30435-11.8217-11.8217-11.8217h-437.678z"/></g><g id="_535625760"><path id="_554124192" d="m480.834 207.967h-474.322c-3.59056 0-6.49963-2.91025-6.49963-6.49963v-79.0184c0-3.59056 2.90906-6.49963 6.49963-6.49963h474.322c3.59056 0 6.49963 2.90906 6.49963 6.49963v79.0184c0 3.58938-2.90906 6.49963-6.49963 6.49963zm-467.822-12.9993h461.322v-66.0191h-461.322z"/></g><g><g><g id="_535626768"><path id="_554123544" d="m130.794 260.25h-96.2424c-3.58938 0-6.49963-2.91025-6.49963-6.50081 0-3.58938 2.91025-6.49963 6.49963-6.49963h96.2436c3.59056 0 6.49963 2.91025 6.49963 6.49963 0 3.59056-2.91025 6.50081-6.50081 6.50081z"/></g><g id="_535626600"><path id="_554123856" d="m130.794 318.727h-96.2424c-3.58938 0-6.49963-2.90906-6.49963-6.49963 0-3.58938 2.91025-6.49963 6.49963-6.49963h96.2436c3.59056 0 6.49963 2.91025 6.49963 6.49963 0 3.59056-2.91025 6.49963-6.50081 6.49963z"/></g></g><g id="_535626336"><path id="_554123088" d="m274.561 331.67h-98.0235c-7.51538 0-13.63-6.1134-13.63-13.63v-70.101c0-7.51538 6.11459-13.6288 13.63-13.6288h98.0235c7.5142 0 13.6288 6.1134 13.6288 13.6288v70.101c-.00118111 7.51656-6.11459 13.63-13.6288 13.63zm-98.0247-84.3605c-.329529 0-.629529.300001-.629529.629529v70.101c0 .329529.301182.630711.629529.630711h98.0235c.329529 0 .629529-.301182.629529-.630711v-70.101c0-.329529-.300001-.629529-.629529-.629529z"/></g><g id="_535627248"><path id="_554122584" d="m244.855 331.67c-3.58938 0-6.49963-2.91025-6.49963-6.49963v-84.3605c0-3.58938 2.91025-6.49963 6.49963-6.49963 3.59056 0 6.49963 2.91025 6.49963 6.49963v84.3605c0 3.58938-2.90906 6.49963-6.49963 6.49963z"/></g><g id="_535626576"><path id="_554123208" d="m244.855 303.449h-75.4502c-3.59056 0-6.49963-2.90906-6.49963-6.49963v-27.9202c0-3.59056 2.90906-6.49963 6.49963-6.49963h75.4502c3.59056 0 6.49963 2.91025 6.49963 6.49963v27.9213c0 3.58938-2.90906 6.49845-6.49963 6.49845zm-68.9494-12.9981h62.451v-14.9221h-62.451z"/></g></g><g id="_535627128"><path id="_554122200" d="m417.562 465.473c-52.0655 0-94.4259-42.3592-94.4259-94.4259s42.3592-94.4259 94.4259-94.4259c52.0655 0 94.4247 42.3592 94.4247 94.4259s-42.3592 94.4259-94.4247 94.4259zm0-175.851c-44.8986 0-81.4266 36.5281-81.4266 81.4266 0 44.8986 36.5269 81.4266 81.4266 81.4266 44.8986 0 81.4254-36.5281 81.4254-81.4266 0-44.8986-36.5269-81.4266-81.4254-81.4266z"/></g><g><g id="_535627272"><path id="_554122344" d="m379.507 393.705h-8.21577c-12.6437 0-22.93-10.2863-22.93-22.9312 0-12.6437 10.2863-22.9288 22.93-22.9288h8.21577c3.59056 0 6.49963 2.91025 6.49963 6.49963 0 3.59056-2.90906 6.49963-6.49963 6.49963h-8.21577c-5.47561 0-9.92956 4.45395-9.92956 9.92956 0 5.47679 4.45395 9.93192 9.92956 9.93192h8.21577c3.59056 0 6.49963 2.91025 6.49963 6.49963 0 3.59056-2.90906 6.49963-6.49963 6.49963z"/></g><g id="_535627488"><path id="_554122032" d="m413.131 394.253c-2.2819 0-4.39608-1.19528-5.57128-3.15237l-16.3595-27.2292c-1.84961-3.07678-.85394-7.0701 2.22402-8.91971 3.07796-1.84725 7.07128-.852759 8.91971 2.22402l10.7882 17.9575 10.7906-17.9575c1.84843-3.07678 5.84293-4.07245 8.91853-2.22284 3.07678 1.84843 4.07245 5.84175 2.22284 8.91853l-16.3607 27.2292c-1.17638 1.95709-3.29174 3.15237-5.57246 3.15237z"/></g><g id="_535627512"><path id="_554120952" d="m463.904 394.253c-2.2819 0-4.3949-1.19528-5.57128-3.15237l-16.3607-27.2292c-1.84843-3.07678-.852759-7.0701 2.2252-8.91971 3.0756-1.84725 7.0701-.852759 8.91971 2.22402l10.7882 17.9575 10.7894-17.9575c1.84961-3.07678 5.84411-4.07009 8.91971-2.22402 3.07678 1.84961 4.07245 5.84293 2.22402 8.91971l-16.3595 27.2292c-1.17756 1.95709-3.29292 3.15237-5.57482 3.15237z"/></g></g></g></g></g></svg>