<svg id="Layer_1" enable-background="new 0 0 66 66" height="300" viewBox="0 0 66 66" width="300" xmlns="http://www.w3.org/2000/svg" version="1.1" xmlns:xlink="http://www.w3.org/1999/xlink" xmlns:svgjs="http://svgjs.dev/svgjs"><g width="100%" height="100%" transform="matrix(1,0,0,1,0,0)"><g><path d="m29.06 50.02 15.57-18.4c.24-.28.29-.68.14-1.02-.16-.34-.49-.55-.86-.55h-6.77l3.46-15.07c.1-.42-.1-.85-.48-1.05s-.85-.12-1.14.19l-18.56 19.92c-.26.28-.33.68-.18 1.03s.49.57.87.57h7.75l-1.47 13.66c-.04.42.19.81.57.98.12.05.25.08.37.08.28 0 .55-.12.73-.34zm-5.76-16.28 14.65-15.72-2.93 12.78c-.07.28 0 .58.18.81s.45.36.75.36h5.91l-12.25 14.45 1.25-11.63c.03-.27-.06-.54-.24-.74s-.44-.32-.71-.32h-6.61z" fill="#872d67" fill-opacity="1" data-original-color="#000000ff" stroke="none" stroke-opacity="1"/><path d="m33 1.56c-17.33 0-31.44 14.11-31.44 31.44s14.11 31.44 31.44 31.44 31.44-14.11 31.44-31.44-14.11-31.44-31.44-31.44zm0 60.97c-16.28 0-29.53-13.25-29.53-29.53s13.25-29.53 29.53-29.53 29.53 13.25 29.53 29.53-13.25 29.53-29.53 29.53z" fill="#872d67" fill-opacity="1" data-original-color="#000000ff" stroke="none" stroke-opacity="1"/><path d="m56.32 32.05c-.53 0-.95.43-.95.95 0 10.97-8 20.28-18.73 22.04-.54-1.75-2.17-3.04-4.1-3.04-2.38 0-4.32 1.94-4.32 4.32s1.94 4.32 4.32 4.32c2.17 0 3.95-1.61 4.26-3.7 11.72-1.84 20.48-11.98 20.48-23.94 0-.53-.43-.95-.96-.95zm-23.78 26.69c-1.33 0-2.42-1.08-2.42-2.42s1.08-2.42 2.42-2.42 2.42 1.08 2.42 2.42-1.09 2.42-2.42 2.42z" fill="#872d67" fill-opacity="1" data-original-color="#000000ff" stroke="none" stroke-opacity="1"/><path d="m33 14c2.38 0 4.32-1.94 4.32-4.32s-1.94-4.33-4.32-4.33c-2.19 0-3.99 1.65-4.27 3.77-11.45 2.05-20.01 12.16-20.01 23.88 0 .53.43.95.95.95.53 0 .95-.43.95-.95 0-10.75 7.81-20.03 18.29-21.97.58 1.72 2.18 2.97 4.09 2.97zm0-6.74c1.33 0 2.42 1.08 2.42 2.42s-1.08 2.42-2.42 2.42-2.42-1.08-2.42-2.42 1.09-2.42 2.42-2.42z" fill="#872d67" fill-opacity="1" data-original-color="#000000ff" stroke="none" stroke-opacity="1"/></g></g></svg>