<svg id="_5" viewBox="0 0 48 48" xmlns="http://www.w3.org/2000/svg" data-name="5" width="300" height="300" version="1.1" xmlns:xlink="http://www.w3.org/1999/xlink" xmlns:svgjs="http://svgjs.dev/svgjs"><g width="100%" height="100%" transform="matrix(1,0,0,1,0,0)"><path d="m27 15c.55 0 1-.45 1-1s-.45-1-1-1h-2v-1c0-.55-.45-1-1-1s-1 .45-1 1v1h-1c-1.1 0-2 .9-2 2v2c0 1.1.9 2 2 2h4v2h-5c-.55 0-1 .45-1 1s.45 1 1 1h2v1c0 .55.45 1 1 1s1-.45 1-1v-1h1c1.1 0 2-.9 2-2v-2c0-1.1-.9-2-2-2h-4v-2z" fill="#872d67" fill-opacity="1" data-original-color="#000000ff" stroke="none" stroke-opacity="1"/><path d="m18.02 28c-.55 0-1 .45-1 1s.45 1 1 1 1-.45 1-1-.45-1-1-1z" fill="#872d67" fill-opacity="1" data-original-color="#000000ff" stroke="none" stroke-opacity="1"/><path d="m22 30h4.05c.55 0 1-.45 1-1s-.45-1-1-1h-4.05c-.55 0-1 .45-1 1s.45 1 1 1z" fill="#872d67" fill-opacity="1" data-original-color="#000000ff" stroke="none" stroke-opacity="1"/><path d="m18.02 33c-.55 0-1 .45-1 1s.45 1 1 1 1-.45 1-1-.45-1-1-1z" fill="#872d67" fill-opacity="1" data-original-color="#000000ff" stroke="none" stroke-opacity="1"/><path d="m22 35h4.84c.55 0 1-.45 1-1s-.45-1-1-1h-4.84c-.55 0-1 .45-1 1s.45 1 1 1z" fill="#872d67" fill-opacity="1" data-original-color="#000000ff" stroke="none" stroke-opacity="1"/><path d="m32 39c0 1.1.9 2 2 2 0 1.1.9 2 2 2s2-.9 2-2c1.1 0 2-.9 2-2v-1h-8z" fill="#872d67" fill-opacity="1" data-original-color="#000000ff" stroke="none" stroke-opacity="1"/><path d="m30.33 40.58-.33.22-2.45-1.63c-.34-.22-.77-.22-1.11 0l-2.45 1.63-2.45-1.63c-.34-.22-.77-.22-1.11 0l-2.45 1.63-2.45-1.63c-.34-.22-.77-.22-1.11 0l-1.45.96v-31.13c0-.73-.21-1.41-.56-2h20.56c1.1 0 2 .9 2 2v12.06c.33-.04.66-.06 1-.06s.67.02 1 .06v-12.06c0-2.21-1.79-4-4-4h-23.97c-2.21 0-4 1.79-4 4v22c0 1.1.9 2 2 2h4v9c0 .37.2.71.53.88.15.08.31.12.47.12.19 0 .39-.06.55-.17l2.45-1.63 2.45 1.63c.34.22.77.22 1.11 0l2.45-1.63 2.45 1.63c.34.22.77.22 1.11 0l2.45-1.63 2.45 1.63c.34.22.77.22 1.11 0l1.01-.67c-.53-.41-.96-.95-1.23-1.58z" fill="#872d67" fill-opacity="1" data-original-color="#000000ff" stroke="none" stroke-opacity="1"/><path d="m36 23c-3.86 0-7 3.14-7 7 0 1.98.85 3.88 2.33 5.21.26.23.44.51.55.79h3.12v-3.59l-1.71-1.71c-.39-.39-.39-1.02 0-1.41s1.02-.39 1.41 0l1.29 1.29 1.29-1.29c.39-.39 1.02-.39 1.41 0s.39 1.02 0 1.41l-1.71 1.71v3.59h3.12c.11-.28.29-.56.55-.79 1.48-1.33 2.33-3.23 2.33-5.21 0-3.86-3.14-7-7-7z" fill="#872d67" fill-opacity="1" data-original-color="#000000ff" stroke="none" stroke-opacity="1"/></g></svg>