<svg xmlns="http://www.w3.org/2000/svg" xmlns:xlink="http://www.w3.org/1999/xlink" viewBox="0 0 1921.63 601.18"><defs><style>.cls-1{opacity:0.91;fill:url(#linear-gradient);}.cls-2{fill:#ffd4f2;}.cls-13,.cls-23,.cls-3{opacity:0.2;}.cls-4{fill:#3a4d8a;}.cls-5{fill:#c1467f;}.cls-6{fill:#fafafa;}.cls-7{fill:#1a2e4f;}.cls-8{fill:#e1e1e1;}.cls-9{fill:#681853;}.cls-10{fill:#ececec;}.cls-11,.cls-22,.cls-23,.cls-24{fill:#a13c79;}.cls-12,.cls-25{fill:#fff;}.cls-12,.cls-20,.cls-21{opacity:0.3;}.cls-14{fill:#2b454e;}.cls-15{fill:#1a2e35;}.cls-16{fill:#f0f0f0;}.cls-17{fill:#162640;}.cls-18{fill:#2c4172;}.cls-19{fill:#d268cc;}.cls-22,.cls-31{opacity:0.15;}.cls-24{opacity:0.4;}.cls-26{fill:#872e68;}.cls-27{fill:#dd8669;}.cls-28{fill:#c66150;}.cls-29{fill:#ffaaa8;}.cls-30{fill:#375a64;}</style><linearGradient id="linear-gradient" y1="300.59" x2="1920" y2="300.59" gradientUnits="userSpaceOnUse"><stop offset="0" stop-color="#c1467f"/><stop offset="0.23" stop-color="#a64781"/><stop offset="0.73" stop-color="#624b87"/><stop offset="1" stop-color="#3a4d8a"/></linearGradient></defs><g id="Layer_2" data-name="Layer 2"><g id="Layer_1-2" data-name="Layer 1"><rect class="cls-1" width="1920" height="601.18"/><path class="cls-2" d="M1077.27,107c0,.68-5,1.22-11.07,1.22s-11.08-.54-11.08-1.22,5-1.23,11.08-1.23S1077.27,106.34,1077.27,107Z"/><path class="cls-2" d="M1089,76.88c.68,0,1.22,5,1.22,11.24s-.54,11.25-1.22,11.25-1.23-5-1.23-11.25S1088.36,76.88,1089,76.88Z"/><path class="cls-2" d="M1101.57,106.3c0-.68,5-1.23,11.08-1.23s11.07.55,11.07,1.23-5,1.22-11.07,1.22S1101.57,107,1101.57,106.3Z"/><path class="cls-2" d="M1089.8,136.43c-.67,0-1.22-5-1.22-11.24s.55-11.24,1.22-11.24,1.23,5,1.23,11.24S1090.48,136.43,1089.8,136.43Z"/><path class="cls-2" d="M1107.71,123.51c-.52.43-2.7-1.33-4.88-3.93s-3.52-5.07-3-5.5,2.71,1.32,4.88,3.93S1108.23,123.07,1107.71,123.51Z"/><path class="cls-2" d="M1106.68,89.33c.48.48-1,2.71-3.22,5s-4.48,3.74-5,3.26,1-2.71,3.22-5S1106.19,88.86,1106.68,89.33Z"/><path class="cls-2" d="M1081.28,98c-.43.52-2.53-.51-4.68-2.3s-3.54-3.66-3.1-4.18,2.52.51,4.67,2.3S1081.71,97.52,1081.28,98Z"/><path class="cls-2" d="M1080.28,113.1c.51.46-.75,2.65-2.8,4.9s-4.12,3.7-4.62,3.25.76-2.65,2.81-4.9S1079.79,112.65,1080.28,113.1Z"/><path class="cls-2" d="M1416.66,191.8c0,.3-2.16.54-4.82.54s-4.82-.24-4.82-.54,2.15-.53,4.82-.53S1416.66,191.51,1416.66,191.8Z"/><path class="cls-2" d="M1421.78,178.69c.29,0,.53,2.19.53,4.89s-.24,4.89-.53,4.89-.53-2.19-.53-4.89S1421.48,178.69,1421.78,178.69Z"/><path class="cls-2" d="M1427.23,191.49c0-.29,2.16-.53,4.82-.53s4.82.24,4.82.53-2.15.53-4.82.53S1427.23,191.78,1427.23,191.49Z"/><path class="cls-2" d="M1422.11,204.6c-.29,0-.53-2.19-.53-4.89s.24-4.89.53-4.89.53,2.19.53,4.89S1422.41,204.6,1422.11,204.6Z"/><path class="cls-2" d="M1429.9,199c-.22.19-1.17-.58-2.12-1.71s-1.53-2.21-1.3-2.4,1.17.58,2.12,1.72S1430.13,198.79,1429.9,199Z"/><path class="cls-2" d="M1429.45,184.11c.21.2-.41,1.18-1.4,2.17s-2,1.62-2.16,1.42.42-1.18,1.41-2.17S1429.24,183.9,1429.45,184.11Z"/><path class="cls-2" d="M1418.4,187.9c-.19.22-1.1-.23-2-1s-1.54-1.6-1.36-1.82,1.1.22,2,1S1418.59,187.67,1418.4,187.9Z"/><path class="cls-2" d="M1418,194.45c.22.2-.33,1.15-1.22,2.13s-1.79,1.61-2,1.42.33-1.16,1.22-2.14S1417.75,194.25,1418,194.45Z"/><path class="cls-2" d="M1069.68,365.38c0,.38-2.82.7-6.29.7s-6.29-.32-6.29-.7,2.81-.7,6.29-.7S1069.68,365,1069.68,365.38Z"/><path class="cls-2" d="M1076.36,348.27c.38,0,.69,2.86.69,6.38s-.31,6.38-.69,6.38-.7-2.85-.7-6.38S1076,348.27,1076.36,348.27Z"/><path class="cls-2" d="M1083.47,365c0-.38,2.82-.7,6.29-.7s6.29.32,6.29.7-2.82.7-6.29.7S1083.47,365.35,1083.47,365Z"/><path class="cls-2" d="M1076.79,382.08c-.38,0-.7-2.86-.7-6.38s.32-6.38.7-6.38.7,2.85.7,6.38S1077.17,382.08,1076.79,382.08Z"/><path class="cls-2" d="M1087,374.74c-.3.25-1.54-.75-2.77-2.23s-2-2.88-1.71-3.12,1.54.75,2.77,2.23S1087.25,374.49,1087,374.74Z"/><path class="cls-2" d="M1086.37,355.34c.27.27-.55,1.54-1.83,2.83s-2.54,2.12-2.82,1.85.55-1.54,1.83-2.83S1086.1,355.07,1086.37,355.34Z"/><path class="cls-2" d="M1072,360.28c-.24.3-1.43-.29-2.65-1.3s-2-2.08-1.77-2.38,1.44.29,2.66,1.31S1072.2,360,1072,360.28Z"/><path class="cls-2" d="M1071.39,368.83c.28.26-.43,1.51-1.6,2.78s-2.33,2.11-2.62,1.85.43-1.51,1.59-2.78S1071.1,368.57,1071.39,368.83Z"/><path class="cls-2" d="M1021.73,197l.55,1.31a9.24,9.24,0,0,0,5.06,5l1.41.58-1.36.55a9.19,9.19,0,0,0-5.09,5.11l-.39.95-.57-1.2a9.29,9.29,0,0,0-5.17-4.68l-1.23-.45,1.61-.78a9.25,9.25,0,0,0,4.51-4.77Z"/><path class="cls-2" d="M1826.84,70.13l.54,1.3a9.26,9.26,0,0,0,5.06,5l1.41.57-1.36.55a9.25,9.25,0,0,0-5.09,5.11l-.39.95-.57-1.19a9.2,9.2,0,0,0-5.16-4.68l-1.24-.45,1.62-.79a9.25,9.25,0,0,0,4.5-4.76Z"/><path class="cls-2" d="M1067.9,541.75c0,.67-5,1.22-11.07,1.22s-11.08-.55-11.08-1.22,5-1.23,11.08-1.23S1067.9,541.07,1067.9,541.75Z"/><path class="cls-2" d="M1079.67,511.61c.67,0,1.22,5,1.22,11.24s-.55,11.24-1.22,11.24-1.23-5-1.23-11.24S1079,511.61,1079.67,511.61Z"/><path class="cls-2" d="M1092.2,541c0-.68,5-1.23,11.07-1.23s11.08.55,11.08,1.23-5,1.22-11.08,1.22S1092.2,541.7,1092.2,541Z"/><path class="cls-2" d="M1080.43,571.16c-.67,0-1.22-5-1.22-11.24s.55-11.24,1.22-11.24,1.23,5,1.23,11.24S1081.11,571.16,1080.43,571.16Z"/><path class="cls-2" d="M1098.34,558.24c-.52.43-2.71-1.33-4.88-3.94s-3.52-5.06-3-5.5,2.71,1.33,4.88,3.93S1098.86,557.8,1098.34,558.24Z"/><path class="cls-2" d="M1097.3,524.06c.48.48-1,2.71-3.22,5s-4.47,3.74-5,3.26,1-2.71,3.22-5S1096.82,523.58,1097.3,524.06Z"/><path class="cls-2" d="M1071.91,532.77c-.43.52-2.53-.51-4.68-2.3s-3.54-3.66-3.11-4.18,2.53.51,4.68,2.3S1072.34,532.25,1071.91,532.77Z"/><path class="cls-2" d="M1070.91,547.83c.5.45-.75,2.65-2.8,4.9s-4.12,3.7-4.62,3.25.76-2.65,2.81-4.9S1070.41,547.37,1070.91,547.83Z"/><path class="cls-2" d="M1829.27,125.27l.81,2a13.93,13.93,0,0,0,7.61,7.54l2.13.87-2,.83a13.9,13.9,0,0,0-7.67,7.68l-.58,1.43-.86-1.79a13.94,13.94,0,0,0-7.77-7l-1.86-.67,2.43-1.18a13.85,13.85,0,0,0,6.77-7.17Z"/><g class="cls-3"><path class="cls-4" d="M640.45,598.74c-.77,0-1.55-.07-2.32-.07H638c-5.1-.07-10.15-.15-15.25-.28a35.73,35.73,0,0,0-4.75.21,60.76,60.76,0,0,0-6.85-.63,44.7,44.7,0,0,0-6.27.46c-.24,0-.48,0-.72,0-7,0-14.08-.14-21.12-.28a39.6,39.6,0,0,0-9.21.9L414,599.09c65.83-69.3,162.43-103,258-102.34,69.79.48,142.61,21.3,207.48-4.43,60-23.81,98.13-81.65,144.85-126.24,71.59-68.32,169.9-107.88,268.86-108.17,67.16-.2,141.11,15.22,196.49-22.77,37.39-25.65,56.5-69.8,82.75-106.78C1649.34,20,1797.49-25.2,1921.46,22.71l.17,575.66L701.94,599a25.4,25.4,0,0,0-6.2-.14c-.65.07-1.3.11-2,.15h-4.37c-3.26-.12-6.53-.43-9.79-.43-4.71,0-9.42-.06-14.13-.12-5.39-.3-10.78-.57-16.18-.58A43.57,43.57,0,0,0,640.45,598.74Z"/></g><g id="Window"><g id="Window-2" data-name="Window"><g id="Frame"><polygon class="cls-5" points="1425.35 25.76 1429.65 28.16 1429.65 217.01 1425.35 214.61 1425.35 25.76"/><polygon class="cls-4" points="1425.35 214.61 1425.34 30.65 1252.65 130.36 1252.68 314.3 1425.35 214.61"/><path class="cls-5" d="M1437.63,221.62V14.34l-193,111.4V333Zm-185,97.58V130.36l177-102.2V217Z"/><polygon class="cls-5" points="1429.65 217.01 1425.35 214.61 1252.68 314.3 1252.65 319.2 1429.65 217.01"/><polygon class="cls-5" points="1381.44 56 1385.74 53.51 1385.74 242.36 1381.44 239.96 1381.44 56"/><polygon class="cls-5" points="1284.43 112 1288.73 109.52 1288.73 298.37 1284.43 295.97 1284.43 112"/><polygon class="cls-5" points="1244.67 333.03 1240.39 330.54 1240.39 123.25 1244.66 125.75 1244.67 333.03"/><polygon class="cls-5" points="1240.39 123.25 1244.66 125.75 1437.63 14.34 1433.35 11.85 1240.39 123.25"/><polygon class="cls-5" points="1252.65 216.44 1252.65 221.4 1429.66 119.21 1425.38 116.72 1252.65 216.44"/></g><polygon class="cls-5" points="1252.67 230.61 1252.65 221.4 1429.66 119.21 1429.65 128.43 1252.67 230.61"/><polygon class="cls-5" points="1288.74 307.59 1296.71 302.98 1296.71 95.7 1288.74 100.3 1288.74 307.59"/><polygon class="cls-5" points="1385.73 251.59 1393.7 246.99 1393.7 39.7 1385.72 44.3 1385.73 251.59"/><polygon class="cls-5" points="1288.73 200.57 1284.43 198.09 1284.43 112 1288.73 109.52 1288.73 200.57"/><polygon class="cls-5" points="1385.7 144.59 1381.4 142.11 1381.4 56.02 1385.7 53.54 1385.7 144.59"/></g></g><g id="Picture"><g id="Frame-2" data-name="Frame"><polygon class="cls-6" points="1595.41 111.88 1597.58 113.16 1641.96 87.54 1639.8 86.25 1595.41 111.88"/><polygon class="cls-2" points="1639.8 86.25 1597.58 110.62 1597.58 66.41 1639.8 42.05 1639.8 86.25"/><path class="cls-7" d="M1646,33.71,1593.5,64.05v56.18L1646,89.89ZM1642,87.54l-44.38,25.62V66.41L1642,40.78Z"/><polygon class="cls-8" points="1641.96 87.54 1639.8 86.25 1639.8 42.05 1641.96 40.78 1641.96 87.54"/><polygon class="cls-6" points="1646.04 33.71 1643.85 32.45 1591.3 62.79 1593.49 64.05 1646.04 33.71"/><polygon class="cls-8" points="1591.3 62.79 1593.49 64.05 1593.49 120.23 1591.3 118.97 1591.3 62.79"/></g><g id="Land"><polygon class="cls-9" points="1638.15 84.93 1599.23 107.4 1599.23 96.16 1608.96 73.69 1615.02 79.31 1612.84 88.73 1626.28 59.98 1638.15 73.69 1638.15 84.93"/><path class="cls-9" d="M1614.65,62.84a6.37,6.37,0,0,0-2.88,5c0,1.83,1.29,2.58,2.88,1.66a6.37,6.37,0,0,0,2.88-5C1617.53,62.67,1616.24,61.92,1614.65,62.84Z"/></g></g><g id="Picture-2" data-name="Picture"><g id="Frame-3" data-name="Frame"><polygon class="cls-6" points="1595.41 187.22 1597.58 188.51 1641.96 162.89 1639.8 161.6 1595.41 187.22"/><polygon class="cls-2" points="1639.8 161.6 1597.58 185.97 1597.58 141.75 1639.8 117.4 1639.8 161.6"/><path class="cls-7" d="M1646,109.06,1593.5,139.4v56.18L1646,165.24ZM1642,162.89l-44.38,25.62V141.75L1642,116.13Z"/><polygon class="cls-8" points="1641.96 162.89 1639.8 161.6 1639.8 117.4 1641.96 116.13 1641.96 162.89"/><polygon class="cls-6" points="1646.04 109.06 1643.85 107.8 1591.3 138.14 1593.49 139.4 1646.04 109.06"/><polygon class="cls-8" points="1591.3 138.14 1593.49 139.4 1593.49 195.58 1591.3 194.32 1591.3 138.14"/></g><g id="Land-2" data-name="Land"><polygon class="cls-9" points="1638.15 160.28 1599.23 182.75 1599.23 171.51 1608.96 149.04 1615.02 154.66 1612.84 164.08 1626.28 135.33 1638.15 149.04 1638.15 160.28"/><path class="cls-9" d="M1614.65,138.19a6.37,6.37,0,0,0-2.88,5c0,1.84,1.29,2.58,2.88,1.67a6.37,6.37,0,0,0,2.88-5C1617.53,138,1616.24,137.27,1614.65,138.19Z"/></g></g><path id="Shadow" class="cls-2" d="M1561.51,461.42l-13.5-7.81c-6.68-3.86-6.68-10.1,0-14L1632,391.21c6.68-3.85,17.5-3.85,24.18,0l13.5,7.82c6.68,3.85,6.68,10.1,0,14l-84,48.44C1579,465.28,1568.19,465.28,1561.51,461.42Z"/><path id="Shadow-2" data-name="Shadow" class="cls-2" d="M1524.33,432.32l-195.8,113c-2.29,1.32-2.29,3.46,0,4.79l30.64,17.64a9.17,9.17,0,0,0,8.29,0l195.8-113c2.29-1.32,2.29-3.46,0-4.78l-30.64-17.65A9.17,9.17,0,0,0,1524.33,432.32Z"/><g id="Gears"><path class="cls-10" d="M1553.49,537.53l-9.41,4.36a3.44,3.44,0,0,1-2.15.13,55.64,55.64,0,0,0-7.31-1.74,1.78,1.78,0,0,1-1.36-1.32l-1.18-6.2a1.45,1.45,0,0,0-1.37-1.14h-13.66a1.45,1.45,0,0,0-1.37,1.14l-1.18,6.2a1.78,1.78,0,0,1-1.36,1.32,55.64,55.64,0,0,0-7.31,1.74,3.44,3.44,0,0,1-2.15-.13l-9.41-4.36a2.51,2.51,0,0,0-2.06.09l-9.29,5.36a.7.7,0,0,0-.06,1.26l7.36,5.29a1,1,0,0,1,.14,1.51,18.51,18.51,0,0,0-2.63,3.65,2.29,2.29,0,0,1-1.67,1.11l-12.38.78a1.24,1.24,0,0,0-1.15,1.23v6.91a1.24,1.24,0,0,0,1.15,1.23l12.38.78a2.29,2.29,0,0,1,1.67,1.11,18.51,18.51,0,0,0,2.63,3.65,1,1,0,0,1-.14,1.51l-7.36,5.29a.7.7,0,0,0,.06,1.26l9.29,5.36a2.51,2.51,0,0,0,2.06.09l9.41-4.36a3.44,3.44,0,0,1,2.15-.13,55.64,55.64,0,0,0,7.31,1.74,1.78,1.78,0,0,1,1.36,1.32l1.18,6.21a1.45,1.45,0,0,0,1.37,1.13h13.66a1.46,1.46,0,0,0,1.37-1.13l1.18-6.21a1.78,1.78,0,0,1,1.36-1.32,55.64,55.64,0,0,0,7.31-1.74,3.44,3.44,0,0,1,2.15.13l9.41,4.36a2.51,2.51,0,0,0,2.06-.09l9.28-5.36a.7.7,0,0,0,.07-1.26l-7.36-5.29a1,1,0,0,1-.14-1.51,18.93,18.93,0,0,0,2.63-3.65,2.27,2.27,0,0,1,1.67-1.11l12.37-.78a1.25,1.25,0,0,0,1.16-1.23v-6.91a1.25,1.25,0,0,0-1.16-1.23l-12.37-.78a2.27,2.27,0,0,1-1.67-1.11,18.51,18.51,0,0,0-2.63-3.65,1,1,0,0,1,.14-1.51l7.36-5.29a.69.69,0,0,0-.07-1.26l-9.28-5.36A2.51,2.51,0,0,0,1553.49,537.53Zm-13.92,14.68c8.66,5,8.66,13.11,0,18.11s-22.72,5-31.38,0-8.66-13.11,0-18.11S1530.9,547.21,1539.57,552.21Z"/><path class="cls-10" d="M1593.11,496.51l-7,3.23a2.55,2.55,0,0,1-1.59.1,39.65,39.65,0,0,0-5.42-1.29,1.31,1.31,0,0,1-1-1l-.87-4.6a1.08,1.08,0,0,0-1-.84h-10.11a1.08,1.08,0,0,0-1,.84l-.87,4.6a1.33,1.33,0,0,1-1,1,39.65,39.65,0,0,0-5.42,1.29,2.55,2.55,0,0,1-1.59-.1l-7-3.23a1.83,1.83,0,0,0-1.52.07l-6.88,4a.51.51,0,0,0,0,.93l5.45,3.92a.73.73,0,0,1,.1,1.12,14,14,0,0,0-1.95,2.7,1.67,1.67,0,0,1-1.24.83l-9.16.58a.92.92,0,0,0-.86.91v5.11a.93.93,0,0,0,.86.92l9.16.58a1.66,1.66,0,0,1,1.24.82,13.61,13.61,0,0,0,1.95,2.7.73.73,0,0,1-.1,1.12l-5.45,3.92a.51.51,0,0,0,0,.93l6.88,4a1.83,1.83,0,0,0,1.52.07l7-3.23a2.48,2.48,0,0,1,1.59-.09,41.16,41.16,0,0,0,5.42,1.28,1.34,1.34,0,0,1,1,1l.87,4.6a1.08,1.08,0,0,0,1,.84h10.11a1.08,1.08,0,0,0,1-.84l.87-4.6a1.33,1.33,0,0,1,1-1,40.64,40.64,0,0,0,5.41-1.28,2.5,2.5,0,0,1,1.6.09l7,3.23a1.86,1.86,0,0,0,1.53-.07l6.88-4a.51.51,0,0,0,0-.93l-5.45-3.92a.73.73,0,0,1-.1-1.12,14,14,0,0,0,2-2.7,1.66,1.66,0,0,1,1.23-.82l9.17-.58a.93.93,0,0,0,.86-.92v-5.11a.92.92,0,0,0-.86-.91l-9.17-.58a1.67,1.67,0,0,1-1.23-.83,14,14,0,0,0-2-2.7.73.73,0,0,1,.1-1.12l5.45-3.92a.51.51,0,0,0,0-.93l-6.88-4A1.86,1.86,0,0,0,1593.11,496.51Zm-10.31,10.88c6.42,3.7,6.42,9.71,0,13.42s-16.83,3.7-23.25,0-6.42-9.72,0-13.42S1576.38,503.68,1582.8,507.39Z"/></g><g id="Padlock"><g id="Padlock-2" data-name="Padlock"><path class="cls-11" d="M1667.12,302c0-2.19-1.44-4.39-4.34-6.06l-8.55-4.93c-5.8-3.35-15.2-3.35-21,0l-77.48,44.73c-2.9,1.67-4.35,3.87-4.34,6.06h0V444.1h0c0,2.2,1.44,4.4,4.34,6.08l8.55,4.93c5.79,3.35,15.19,3.35,21,0l77.48-44.73c2.9-1.67,4.34-3.87,4.34-6.06h0V302Z"/><path class="cls-12" d="M1564.31,352.76l-8.55-4.93c-5.8-3.35-5.79-8.78,0-12.12L1633.24,291c5.79-3.35,15.19-3.35,21,0l8.55,4.93c5.79,3.35,5.79,8.77,0,12.12l-77.48,44.73C1579.5,356.11,1570.1,356.11,1564.31,352.76Z"/><path class="cls-13" d="M1574.82,355.27V457.61a21.42,21.42,0,0,1-10.5-2.49l-8.56-4.95c-2.91-1.67-4.36-3.88-4.34-6.08V341.76c0,2.21,1.43,4.39,4.34,6.06l8.56,4.95A21.42,21.42,0,0,0,1574.82,355.27Z"/><path class="cls-14" d="M1631.19,405.89l-18.49,10.68,2.86-33.46c-2.21-1.17-3.62-4.05-3.62-8.18,0-7.37,4.48-15.93,10-19.12s10,.19,10,7.56a25.18,25.18,0,0,1-3.62,12.37Z"/><polygon class="cls-15" points="1631.19 405.89 1614.44 396.22 1612.7 416.57 1631.19 405.89"/><path class="cls-15" d="M1622,355.81c-3.62,2.09-6.78,6.47-8.54,11.32l14.92,8.61h0a25.18,25.18,0,0,0,3.62-12.37C1632,356,1627.47,352.62,1622,355.81Z"/><path class="cls-16" d="M1646.19,306.81V263.32c0-12.67-4.79-22.7-13.14-27.53-8-4.6-17.83-4-27.76,1.76-18.24,10.53-32.53,36.23-32.53,58.5v41.14h0c0,1.24.82,2.47,2.46,3.42a13.11,13.11,0,0,0,11.83,0c1.63-.95,2.46-2.18,2.46-3.42h0V296.05c0-16.29,11.06-36.44,24.15-44,4.47-2.58,8.48-3.22,11-1.75,3,1.72,4.76,6.59,4.76,13v43.49h0v0h0c0,1.23.83,2.45,2.45,3.39a13,13,0,0,0,11.83,0c1.62-.94,2.44-2.16,2.46-3.39h0v0Z"/><path class="cls-8" d="M1621.52,234a21.49,21.49,0,0,1,10.88,2.88c7.94,4.58,12.49,14.21,12.49,26.4v43.51a3,3,0,0,1-1.81,2.27,11.8,11.8,0,0,1-10.53,0,3,3,0,0,1-1.8-2.27V263.32c0-7-2-12.16-5.41-14.15a7.56,7.56,0,0,0-3.84-.94,17.59,17.59,0,0,0-8.48,2.7c-13.44,7.76-24.8,28.42-24.8,45.12v41.14c0,.79-.66,1.63-1.81,2.29a11.8,11.8,0,0,1-10.53,0,3.12,3.12,0,0,1-1.81-2.21V296.05c0-21.85,14-47.05,31.88-57.38a31.27,31.27,0,0,1,15.58-4.63h0m0-1.3a32.67,32.67,0,0,0-16.23,4.81c-18.24,10.53-32.53,36.23-32.53,58.5v41.14h0c0,1.24.82,2.47,2.46,3.42a13.11,13.11,0,0,0,11.83,0c1.63-.95,2.46-2.18,2.46-3.42h0V296.05c0-16.29,11.06-36.44,24.15-44a16.31,16.31,0,0,1,7.83-2.52,6.31,6.31,0,0,1,3.19.77c3,1.72,4.76,6.59,4.76,13v43.49h0v0h0c0,1.23.83,2.45,2.45,3.39a13.11,13.11,0,0,0,11.83,0c1.62-.94,2.44-2.16,2.46-3.39h0v0h0V263.32c0-12.67-4.79-22.7-13.14-27.53a23,23,0,0,0-11.53-3Z"/><path class="cls-8" d="M1613,234.15c-.89.41-1.77.88-2.66,1.4-18.23,10.53-32.53,36.25-32.53,58.52v41.12c0,1.25.81,2.48,2.46,3.42a12.7,12.7,0,0,0,7.82,1.28,4.94,4.94,0,0,1-1,.71,13,13,0,0,1-11.84,0c-1.65-.93-2.46-2.16-2.46-3.42V296c0-22.27,14.3-48,32.53-58.5A36.57,36.57,0,0,1,1613,234.15Z"/></g></g><g id="Mobile"><path class="cls-17" d="M1544.06,440.81V47.67c0-10.12-5-12.91-9.49-15.48s-11.81-4.14-18.15-.48l-162.34,93.73c-6.34,3.66-11.48,12.57-11.48,19.89V538.47c0,7.32,4.59,11.64,9.05,14.22s12.24,5.4,18.58,1.74l162.35-93.73C1538.92,457,1544.06,451,1544.06,440.81Z"/><path class="cls-15" d="M1533.73,444.53l-166.94,96.39.06-394.85L1346,134a23.46,23.46,0,0,0-3.36,11.32V538.47c0,7.32,4.59,11.64,9.05,14.22s12.24,5.4,18.58,1.74l162.35-93.73a21.9,21.9,0,0,0,9.94-11.09l-.65-.38Z"/><path class="cls-18" d="M1532.28,44.27l-162.81,94c-4.44,2.56-8.07,8.84-8.07,13.95V542.17c0,7.86,5.59,11.08,12.4,7.14l158.48-91.49c5-2.91,9.13-10,9.13-15.82V49.54C1541.41,43.74,1537.3,41.37,1532.28,44.27Z"/><path d="M1533.46,68.18V432.7c0,5.52-3.89,12.29-8.67,15L1378,532.47c-4.79,2.79-8.67.55-8.67-5V160.28c0-4.48,2.54-9.77,6.08-13.07l.83-.74a14.14,14.14,0,0,1,1.76-1.21l41.28-23.84,2.69-1.55c1.49-.86,2.7-.17,2.7,1.55s1.28,2.38,2.87,1.45l48.11-27.78a6.17,6.17,0,0,0,2.88-4.76,6.08,6.08,0,0,1,2.41-4.5l.28-.18,40.38-23.3.87-.51C1528.53,58.36,1533.46,61.21,1533.46,68.18Z"/><path class="cls-17" d="M1512.2,438c4.77-2.75,8.67-9.51,8.67-15V62.79l-39.63,22.86-.28.18a6.08,6.08,0,0,0-2.41,4.5,6.17,6.17,0,0,1-2.88,4.76l-48.11,27.78c-1.59.93-2.87.26-2.87-1.45s-1.21-2.41-2.7-1.55l-2.69,1.55L1378,145.26a14.14,14.14,0,0,0-1.76,1.21l-.83.74c-3.54,3.3-6.08,8.59-6.08,13.07V520.47Z"/><path class="cls-15" d="M1434.87,108.2l22.05-12.74c1.32-.76,2.39-.22,2.39,1.21a5.09,5.09,0,0,1-2.39,4l-22.05,12.74c-1.32.76-2.39.22-2.39-1.21A5.1,5.1,0,0,1,1434.87,108.2Z"/><path class="cls-15" d="M1468.24,87.88c1.48-.85,2.68-.16,2.68,1.55a5.93,5.93,0,0,1-2.68,4.65c-1.48.86-2.68.16-2.68-1.55A6,6,0,0,1,1468.24,87.88Z"/><path class="cls-7" d="M1357.66,192.49a9.69,9.69,0,0,0-4.25-7.67,2.82,2.82,0,0,0-2.9-.24c-.54.32-2.63,1.49-3.19,1.82a3.33,3.33,0,0,0-1.31,3v32a9.69,9.69,0,0,0,4.25,7.67,2.88,2.88,0,0,0,2.8.3c.59-.31,2.73-1.55,3.28-1.88a3.31,3.31,0,0,0,1.32-3Z"/><path class="cls-18" d="M1354.5,194.31v32c0,2.88-1.9,4.12-4.24,2.77a9.69,9.69,0,0,1-4.25-7.67v-32c0-2.88,1.9-4.12,4.25-2.77A9.7,9.7,0,0,1,1354.5,194.31Z"/><path class="cls-7" d="M1357.66,248.56a9.69,9.69,0,0,0-4.25-7.67,2.77,2.77,0,0,0-2.9-.24c-.54.32-2.63,1.48-3.19,1.82a3.33,3.33,0,0,0-1.31,3v32a9.7,9.7,0,0,0,4.25,7.68,2.88,2.88,0,0,0,2.8.3c.59-.31,2.73-1.55,3.28-1.88a3.32,3.32,0,0,0,1.32-3Z"/><path class="cls-18" d="M1354.5,250.38v32c0,2.89-1.9,4.13-4.24,2.78a9.7,9.7,0,0,1-4.25-7.68v-32c0-2.88,1.9-4.13,4.25-2.77A9.7,9.7,0,0,1,1354.5,250.38Z"/></g><g id="Window-3" data-name="Window"><path class="cls-19" d="M1553.58,69.82c-2.08-1.19-4.94-1-8.1.8l-.9.52-42.28,24.4-.29.18a6.39,6.39,0,0,0-2.52,4.72,6.46,6.46,0,0,1-3,5l-50.37,29.08-.11.05a2,2,0,0,0-.82-1.71l-2.91-1.68a2,2,0,0,0-2,.2l-2.81,1.63-43.22,24.95a15.51,15.51,0,0,0-1.85,1.26c-.29.25-.57.52-.86.78-3.7,3.46-6.37,9-6.37,13.68V555.59c0,2.89,1,4.92,2.65,5.87l2.93,1.69c1.64,1,3.9.81,6.41-.65l153.65-88.71c5-2.87,9.07-10,9.07-15.74V78.93c0-3.64-1.28-6.2-3.36-7.41Z"/><path class="cls-20" d="M1398,561.25V562l-.87.49c-2.49,1.45-4.76,1.59-6.4.65l-2.93-1.69c-1.64-1-2.64-3-2.64-5.87V173.66a18.78,18.78,0,0,1,3.13-9.69l3.46,2a18.36,18.36,0,0,0-3,9.38V557.27a7.06,7.06,0,0,0,1.24,4.38,3.89,3.89,0,0,0,3.12,1.46,7.6,7.6,0,0,0,3.74-1.17Z"/><path class="cls-20" d="M1504.1,99.18a5.32,5.32,0,0,0-1.06,2.94,6.39,6.39,0,0,1-1.12,3.37l-3.49-2a5.73,5.73,0,0,0,1.06-3,6.17,6.17,0,0,1,1.13-3.27Z"/><path class="cls-6" d="M1393.09,563.11a3.81,3.81,0,0,1-3.11-1.46,7,7,0,0,1-1.25-4.38V175.34c0-4.39,2.53-9.82,6.16-13.21l.28-.25c.19-.17.37-.35.56-.51a14.25,14.25,0,0,1,1.75-1.19l43.22-25,2.81-1.62a2,2,0,0,1,1-.3c.81,0,.9.95.9,1.36a2.31,2.31,0,0,0,2.24,2.6,3.48,3.48,0,0,0,1.75-.52l50.36-29.08a7.06,7.06,0,0,0,3.33-5.54,5.7,5.7,0,0,1,2.26-4.19l.23-.15,42.28-24.4.91-.53a9.82,9.82,0,0,1,4.78-1.47c3.54,0,5.74,2.9,5.74,7.55V458.05c0,5.6-3.93,12.41-8.76,15.18l-153.65,88.71A7.57,7.57,0,0,1,1393.09,563.11Z"/><path class="cls-5" d="M1553.5,71.38a9.82,9.82,0,0,0-4.78,1.47l-.91.53-42.28,24.41a2,2,0,0,0-.23.14,5.7,5.7,0,0,0-2.26,4.19,7.06,7.06,0,0,1-3.33,5.54l-50.36,29.08a3.5,3.5,0,0,1-1.75.53,2.31,2.31,0,0,1-2.24-2.6c0-.41-.08-1.37-.9-1.37a2,2,0,0,0-1,.3l-2.81,1.63-43.22,25a15.47,15.47,0,0,0-1.75,1.19l-.56.51-.28.25c-3.63,3.39-6.16,8.82-6.16,13.21v22.87l170.51-98.47V78.93C1559.24,74.28,1557,71.38,1553.5,71.38Z"/><g class="cls-21"><path class="cls-5" d="M1553.5,71.38a9.82,9.82,0,0,0-4.78,1.47l-.91.53-42.28,24.41a2,2,0,0,0-.23.14,5.7,5.7,0,0,0-2.26,4.19,7.06,7.06,0,0,1-3.33,5.54l-50.36,29.08a3.5,3.5,0,0,1-1.75.53,2.31,2.31,0,0,1-2.24-2.6c0-.41-.08-1.37-.9-1.37a2,2,0,0,0-1,.3l-2.81,1.63-43.22,25a15.47,15.47,0,0,0-1.75,1.19l-.56.51-.28.25c-3.63,3.39-6.16,8.82-6.16,13.21v22.87l170.51-98.47V78.93C1559.24,74.28,1557,71.38,1553.5,71.38Z"/></g><path class="cls-5" d="M1401,175.47a.55.55,0,0,1-.07.25.52.52,0,0,1-.16.19l-.35.2a.13.13,0,0,1-.16,0,.21.21,0,0,1-.07-.17v-6.2l-1.36,2.17a.39.39,0,0,1-.17.17.14.14,0,0,1-.15,0l-.21-.23a.25.25,0,0,1,0-.2.48.48,0,0,1,.09-.25l1.8-2.89a.76.76,0,0,1,.14-.16l.13-.09.35-.2a.15.15,0,0,1,.16,0,.22.22,0,0,1,.07.18Z"/><path class="cls-5" d="M1404.58,173.42a.55.55,0,0,1-.07.25.52.52,0,0,1-.16.19l-.35.2a.15.15,0,0,1-.16,0,.21.21,0,0,1-.07-.17v-6.2l-1.36,2.17a.39.39,0,0,1-.17.17.14.14,0,0,1-.15,0l-.21-.23a.3.3,0,0,1,0-.2.58.58,0,0,1,.09-.25l1.8-2.89a.76.76,0,0,1,.14-.16l.13-.09.35-.2a.15.15,0,0,1,.16,0,.23.23,0,0,1,.07.18Z"/><path class="cls-5" d="M1406.57,167.28a.12.12,0,0,1,.16,0,.21.21,0,0,1,.07.17v.75a.63.63,0,0,1-.07.26.57.57,0,0,1-.16.18l-.57.33a.15.15,0,0,1-.16,0,.24.24,0,0,1-.06-.18V168a.57.57,0,0,1,.06-.25.41.41,0,0,1,.16-.18Zm0,3.93a.15.15,0,0,1,.16,0,.25.25,0,0,1,.07.18v.75a.59.59,0,0,1-.07.25.52.52,0,0,1-.16.19l-.57.32a.12.12,0,0,1-.16,0,.21.21,0,0,1-.06-.17V172a.62.62,0,0,1,.06-.26.57.57,0,0,1,.16-.18Z"/><path class="cls-5" d="M1408.52,169.4a.68.68,0,0,0,.49.56,1.18,1.18,0,0,0,.86-.19,2.78,2.78,0,0,0,.52-.4,3.37,3.37,0,0,0,.43-.55,2.94,2.94,0,0,0,.28-.68,2.81,2.81,0,0,0,.11-.77,1.75,1.75,0,0,0-.11-.66.65.65,0,0,0-.28-.34.63.63,0,0,0-.43-.06,1.54,1.54,0,0,0-.52.2,1.8,1.8,0,0,0-.51.39,4.63,4.63,0,0,0-.32.38l-.22.33a.7.7,0,0,1-.22.23l-.43.25a.1.1,0,0,1-.13,0,.17.17,0,0,1-.06-.14l.26-3.91a.61.61,0,0,1,.06-.25.37.37,0,0,1,.17-.18l3-1.72c.07,0,.12,0,.16,0a.18.18,0,0,1,.07.17v.4a.51.51,0,0,1-.07.26.4.4,0,0,1-.16.18l-2.45,1.42-.14,2a5,5,0,0,1,.4-.4,3.2,3.2,0,0,1,.62-.44,2.1,2.1,0,0,1,.83-.3,1,1,0,0,1,.68.13,1.14,1.14,0,0,1,.46.56,2.66,2.66,0,0,1,.17,1,4.42,4.42,0,0,1-.17,1.21,5.11,5.11,0,0,1-.46,1.1,4.47,4.47,0,0,1-.68.92,3.76,3.76,0,0,1-.83.65,2.28,2.28,0,0,1-.81.31,1.27,1.27,0,0,1-.68-.05,1,1,0,0,1-.46-.42,1.55,1.55,0,0,1-.19-.76.42.42,0,0,1,.06-.21.32.32,0,0,1,.13-.15l.38-.22a.13.13,0,0,1,.22.12Z"/><path class="cls-5" d="M1413.52,166.66a1.48,1.48,0,0,0,.12.29.38.38,0,0,0,.22.19.71.71,0,0,0,.41,0,2.29,2.29,0,0,0,.64-.28,2.48,2.48,0,0,0,.5-.37,2.58,2.58,0,0,0,.69-1.11,2.28,2.28,0,0,0,.11-.7,1.17,1.17,0,0,0-.1-.55.47.47,0,0,0-.27-.25.65.65,0,0,0-.41,0,2.08,2.08,0,0,0-.52.23l-.7.4a.12.12,0,0,1-.16,0,.21.21,0,0,1-.07-.17V164a.63.63,0,0,1,0-.21l.09-.2,1.52-3.06-2.43,1.4c-.07,0-.12,0-.16,0a.18.18,0,0,1-.07-.17v-.41a.5.5,0,0,1,.07-.25.4.4,0,0,1,.16-.18l3.32-1.92a.12.12,0,0,1,.16,0,.18.18,0,0,1,.07.17v.41a.64.64,0,0,1,0,.22c0,.08-.07.16-.11.25l-1.5,3a2,2,0,0,1,.78-.27.88.88,0,0,1,.59.11,1,1,0,0,1,.39.5,2.2,2.2,0,0,1,.14.87,3.65,3.65,0,0,1-.17,1.13,4.45,4.45,0,0,1-.45,1,4.32,4.32,0,0,1-.67.86,3.46,3.46,0,0,1-.81.64,2.87,2.87,0,0,1-1,.39,1.13,1.13,0,0,1-.68-.07.93.93,0,0,1-.4-.41,1.64,1.64,0,0,1-.13-.65.43.43,0,0,1,0-.21.36.36,0,0,1,.13-.14l.39-.23c.06,0,.11,0,.15,0A.24.24,0,0,1,1413.52,166.66Z"/><path class="cls-5" d="M1426.68,153.41h0m0,0-2.6,8.87v-3.86l-2.89,1.67,5.49-6.68m0-.66h0a.68.68,0,0,0-.32.11l-.14.11,0,0-5.49,6.67a.66.66,0,0,0,.51,1.08.66.66,0,0,0,.33-.09l1.9-1.1v2.72a.68.68,0,0,0,.57.66h.1a.66.66,0,0,0,.63-.47l2.58-8.81a.7.7,0,0,0,0-.25.66.66,0,0,0-.66-.66Zm0,1.32h0Z"/><polygon class="cls-5" points="1516.89 108.8 1515.48 109.61 1515.48 106.85 1516.89 106.03 1516.89 108.8"/><polygon class="cls-5" points="1519.13 107.5 1517.72 108.32 1517.72 104.36 1519.13 103.55 1519.13 107.5"/><polygon class="cls-5" points="1521.37 106.21 1519.96 107.02 1519.96 101.58 1521.37 100.76 1521.37 106.21"/><polygon class="cls-5" points="1523.61 104.92 1522.2 105.73 1522.2 98.84 1523.61 98.02 1523.61 104.92"/><path class="cls-5" d="M1533.45,92.16a10.59,10.59,0,0,0-3.74,4.18l.94.74a7.87,7.87,0,0,1,2.8-3.14,2.51,2.51,0,0,1,2.82-.1l.93-1.82A3.36,3.36,0,0,0,1533.45,92.16ZM1531,97.37l.86.68a4.54,4.54,0,0,1,1.58-1.78,1.42,1.42,0,0,1,1.6,0l.86-1.67a2.17,2.17,0,0,0-2.46.08A6.86,6.86,0,0,0,1531,97.37Zm1.26,1,1.18.94,1.2-2.33a1.08,1.08,0,0,0-1.2.05A3.19,3.19,0,0,0,1532.27,98.38Z"/><path class="cls-5" d="M1550.5,82.5c.5-.29.91,0,.91.69v4.45a2.19,2.19,0,0,1-.91,1.75L1542.56,94c-.51.29-.92,0-.92-.69V88.83a2.2,2.2,0,0,1,.92-1.75l7.94-4.58m0-.38-7.94,4.58a2.89,2.89,0,0,0-1.21,2.3v4.45c0,.88.54,1.29,1.21.91l7.94-4.59a2.88,2.88,0,0,0,1.2-2.29V83c0-.89-.54-1.3-1.2-.91Z"/><path class="cls-5" d="M1547.28,90.14l-4.47,2.58c-.21.12-.37,0-.37-.28V88.75a.85.85,0,0,1,.37-.7l4.47-2.59c.21-.12.37,0,.37.28v3.69A.87.87,0,0,1,1547.28,90.14Z"/><path class="cls-5" d="M1552.55,86l-.32.19V83.74l.32-.18c.18-.1.32.35.32,1S1552.73,85.86,1552.55,86Z"/><path class="cls-19" d="M1553.5,72h0c3.19,0,5.09,2.58,5.09,6.9V458.05c0,5.3-3.86,12-8.43,14.62l-153.65,88.72a7,7,0,0,1-3.42,1.07c-2.33,0-3.72-1.94-3.72-5.19V175.34c0-4.23,2.45-9.46,6-12.72l.29-.27.5-.46a15.84,15.84,0,0,1,1.69-1.15l43.22-25,2.82-1.62a1.36,1.36,0,0,1,.62-.22c.25,0,.26.65.26.72a2.94,2.94,0,0,0,2.88,3.25,4.17,4.17,0,0,0,2.07-.61L1500,108.22a7.78,7.78,0,0,0,3.66-6.1,5.12,5.12,0,0,1,2-3.67l.19-.11,42.28-24.4.9-.53A9.24,9.24,0,0,1,1553.5,72m0-1.29a10.35,10.35,0,0,0-5.11,1.56l-.9.52-42.28,24.4-.29.18a6.39,6.39,0,0,0-2.52,4.72,6.47,6.47,0,0,1-3,5L1449,136.18a2.83,2.83,0,0,1-1.42.44c-.95,0-1.59-.72-1.59-2s-.63-2-1.55-2a2.64,2.64,0,0,0-1.27.39l-2.82,1.62-43.21,25a15.51,15.51,0,0,0-1.85,1.26c-.29.25-.57.51-.86.78-3.7,3.45-6.37,9-6.37,13.68V557.27c0,4.11,2,6.49,5,6.49a8.22,8.22,0,0,0,4.07-1.26l153.65-88.71c5-2.87,9.07-10,9.07-15.74V78.93c0-5.19-2.6-8.19-6.38-8.19Z"/><path class="cls-9" d="M1419.47,201.31c1.22-.7,2.16-.81,2.83-.32s1,1.59,1,3.29a9.4,9.4,0,0,1-1,4.48,7.23,7.23,0,0,1-2.83,3l-2.41,1.39v5.17a1.19,1.19,0,0,1-.12.51.75.75,0,0,1-.29.35l-1.22.71a.22.22,0,0,1-.28,0,.5.5,0,0,1-.12-.37v-15a1.19,1.19,0,0,1,.12-.51.74.74,0,0,1,.28-.35Zm-2.41,8.93,2.33-1.35a3.86,3.86,0,0,0,1.38-1.31,4,4,0,0,0,.51-2.12q0-1.31-.51-1.5a1.65,1.65,0,0,0-1.38.29l-2.33,1.35Z"/><path class="cls-9" d="M1429.25,195.66c1.26-.72,2.21-.83,2.86-.31s1,1.58,1,3.17a9.72,9.72,0,0,1-.5,3.18,7.85,7.85,0,0,1-1.49,2.63l2.08,4.53a.64.64,0,0,1,0,.23.92.92,0,0,1-.1.42.55.55,0,0,1-.23.28l-1.28.74c-.2.12-.35.13-.45,0a.89.89,0,0,1-.2-.29l-2-4.26-2,1.15v5.41a1.19,1.19,0,0,1-.12.51.75.75,0,0,1-.29.35l-1.22.7a.2.2,0,0,1-.28,0,.48.48,0,0,1-.12-.37v-15a1.19,1.19,0,0,1,.12-.51.82.82,0,0,1,.28-.36Zm-2.26,8.61,2.19-1.26a4.24,4.24,0,0,0,1.37-1.25,3.67,3.67,0,0,0,.51-2.06c0-.87-.17-1.35-.51-1.45a1.91,1.91,0,0,0-1.37.35l-2.19,1.26Z"/><path class="cls-9" d="M1435.46,208.32a.24.24,0,0,1-.29,0,.52.52,0,0,1-.12-.38v-15a1.19,1.19,0,0,1,.12-.51.75.75,0,0,1,.29-.35l1.22-.71a.21.21,0,0,1,.28,0,.5.5,0,0,1,.13.37v15a1.2,1.2,0,0,1-.13.51.74.74,0,0,1-.28.35Z"/><path class="cls-9" d="M1443.26,199.22l2.53-12.53c0-.14.09-.3.16-.48a.87.87,0,0,1,.34-.39l1.15-.66a.21.21,0,0,1,.28,0,.5.5,0,0,1,.13.37v.08a1.65,1.65,0,0,1,0,.17l-3.37,16.54a3.52,3.52,0,0,1-.21.72.88.88,0,0,1-.36.4l-1.21.7c-.16.09-.28.09-.36,0a1.15,1.15,0,0,1-.21-.47l-3.38-12.65a.45.45,0,0,1,0-.13v-.08a1.19,1.19,0,0,1,.12-.51.75.75,0,0,1,.29-.35l1.15-.66q.23-.13.33,0a.69.69,0,0,1,.16.29Z"/><path class="cls-9" d="M1453.63,181.58c.16-.09.28-.09.36,0a1.15,1.15,0,0,1,.21.47l3.69,12.53a.39.39,0,0,1,0,.16,1.19,1.19,0,0,1-.12.51.8.8,0,0,1-.29.35l-1.08.62c-.2.12-.34.14-.42,0a.66.66,0,0,1-.17-.29l-.65-2.2-4.76,2.75-.65,2.95a2.44,2.44,0,0,1-.16.48,1,1,0,0,1-.42.44l-1.09.63a.24.24,0,0,1-.29,0,.5.5,0,0,1-.12-.37,1,1,0,0,1,0-.18l3.69-16.79a3.22,3.22,0,0,1,.21-.71.85.85,0,0,1,.36-.41Zm.83,9.71-1.66-5.65-1.66,7.56Z"/><path class="cls-9" d="M1465.55,185.79a1.27,1.27,0,0,1,.16-.54.72.72,0,0,1,.28-.31l1.22-.71a.24.24,0,0,1,.29,0c.09.06.12.19.11.38a11.59,11.59,0,0,1-.3,2.08,10.37,10.37,0,0,1-.81,2.19,10.26,10.26,0,0,1-1.37,2,7.56,7.56,0,0,1-2,1.64,3.64,3.64,0,0,1-1.83.59,2,2,0,0,1-1.36-.54,3.51,3.51,0,0,1-.87-1.53,9.82,9.82,0,0,1-.37-2.36c0-.58,0-1.22,0-1.93s0-1.37,0-2a16.14,16.14,0,0,1,.37-2.79,12.57,12.57,0,0,1,.87-2.53,9.13,9.13,0,0,1,1.36-2.1,6.89,6.89,0,0,1,1.83-1.54,4.26,4.26,0,0,1,2-.67,2.13,2.13,0,0,1,1.37.46,2.69,2.69,0,0,1,.81,1.27,6.8,6.8,0,0,1,.3,1.71,1,1,0,0,1-.11.52.77.77,0,0,1-.29.34l-1.22.7a.28.28,0,0,1-.29,0c-.09-.05-.14-.17-.16-.36a2.63,2.63,0,0,0-.22-.78,1.24,1.24,0,0,0-.45-.53,1.17,1.17,0,0,0-.72-.15,2.64,2.64,0,0,0-1,.37,3.86,3.86,0,0,0-1,.87,5.16,5.16,0,0,0-.73,1.16,6.2,6.2,0,0,0-.45,1.38,8.33,8.33,0,0,0-.19,1.48c0,.6,0,1.25,0,2s0,1.36,0,1.93a5.23,5.23,0,0,0,.19,1.28,1.87,1.87,0,0,0,.45.84,1.12,1.12,0,0,0,.73.32,1.93,1.93,0,0,0,1-.32,3.93,3.93,0,0,0,1-.81,5.26,5.26,0,0,0,.73-1,4.86,4.86,0,0,0,.46-1.05A5.1,5.1,0,0,0,1465.55,185.79Z"/><path class="cls-9" d="M1477.08,168.05a.2.2,0,0,1,.28,0,.5.5,0,0,1,.12.37.78.78,0,0,1,0,.22l-3.57,11.74v5.11a1.11,1.11,0,0,1-.12.5.77.77,0,0,1-.28.36l-1.21.69a.2.2,0,0,1-.28,0,.46.46,0,0,1-.13-.37v-5.1l-3.57-7.62a.5.5,0,0,1,0-.19,1.19,1.19,0,0,1,.12-.51.8.8,0,0,1,.29-.35l1.13-.65q.3-.18.45,0a.73.73,0,0,1,.18.24l2.44,5.16,2.45-8a2.1,2.1,0,0,1,.18-.45,1.12,1.12,0,0,1,.45-.49Z"/><path class="cls-9" d="M1486.48,162.62c1.22-.7,2.16-.81,2.83-.31s1,1.58,1,3.29a9.46,9.46,0,0,1-1,4.48,7.2,7.2,0,0,1-2.83,3l-2.41,1.39v5.17a1.19,1.19,0,0,1-.12.51.84.84,0,0,1-.29.36l-1.22.7a.21.21,0,0,1-.28,0,.5.5,0,0,1-.13-.37v-15a1.2,1.2,0,0,1,.13-.51.74.74,0,0,1,.28-.35Zm-2.41,8.93,2.33-1.35a3.6,3.6,0,0,0,1.89-3.43q0-1.31-.51-1.5a1.64,1.64,0,0,0-1.38.29l-2.33,1.35Z"/><path class="cls-9" d="M1491.6,165.72a14.66,14.66,0,0,1,.33-2.64,11.19,11.19,0,0,1,.82-2.47,9.52,9.52,0,0,1,1.36-2.13,7.29,7.29,0,0,1,1.92-1.61,3.88,3.88,0,0,1,1.92-.62,1.86,1.86,0,0,1,1.35.57,3.42,3.42,0,0,1,.83,1.51,9.3,9.3,0,0,1,.33,2.27q0,.43,0,1v2.21c0,.35,0,.68,0,1a14.65,14.65,0,0,1-.32,2.64,11.94,11.94,0,0,1-.82,2.47A9.27,9.27,0,0,1,1498,172a7,7,0,0,1-1.92,1.59,3.84,3.84,0,0,1-1.92.63,1.89,1.89,0,0,1-1.36-.55,3.34,3.34,0,0,1-.82-1.52,9.37,9.37,0,0,1-.33-2.26c0-.29,0-.61,0-1s0-.72,0-1.1,0-.75,0-1.11S1491.59,166,1491.6,165.72Zm6.83-3.83a3,3,0,0,0-.7-2.18c-.43-.36-1-.34-1.7.06a4.33,4.33,0,0,0-1.69,1.9,7.12,7.12,0,0,0-.7,3q0,.9,0,2c0,.71,0,1.36,0,1.94a2.93,2.93,0,0,0,.7,2.17c.42.36,1,.33,1.69-.07a4.37,4.37,0,0,0,1.7-1.89,7.07,7.07,0,0,0,.7-3q0-.9,0-2C1498.46,163.11,1498.45,162.47,1498.43,161.89Z"/><path class="cls-9" d="M1509.46,162.69a.23.23,0,0,1,.29,0,.5.5,0,0,1,.12.37v1.65a1.19,1.19,0,0,1-.12.51.81.81,0,0,1-.29.35l-6.6,3.81a.21.21,0,0,1-.29,0,.5.5,0,0,1-.12-.37V154a1.19,1.19,0,0,1,.12-.51.8.8,0,0,1,.29-.35l1.22-.7a.21.21,0,0,1,.29,0,.5.5,0,0,1,.12.37v12.71Z"/><path class="cls-9" d="M1511.72,164.29a.24.24,0,0,1-.29,0,.5.5,0,0,1-.12-.37v-15a1.19,1.19,0,0,1,.12-.51.75.75,0,0,1,.29-.35l1.22-.71a.24.24,0,0,1,.29,0,.5.5,0,0,1,.12.37v15a1.19,1.19,0,0,1-.12.51.75.75,0,0,1-.29.35Z"/><path class="cls-9" d="M1522.18,153.1a1.48,1.48,0,0,1,.15-.55,1,1,0,0,1,.28-.31l1.22-.7a.27.27,0,0,1,.3,0,.47.47,0,0,1,.11.39,10.92,10.92,0,0,1-.31,2.08,9.73,9.73,0,0,1-.8,2.18,10.38,10.38,0,0,1-1.38,2.05,7.67,7.67,0,0,1-2,1.64,3.67,3.67,0,0,1-1.84.59,2,2,0,0,1-1.35-.54,3.51,3.51,0,0,1-.87-1.53,9.35,9.35,0,0,1-.37-2.36c0-.58,0-1.22,0-1.94s0-1.36,0-2a15.23,15.23,0,0,1,.37-2.79,12.36,12.36,0,0,1,.87-2.53,9.74,9.74,0,0,1,1.35-2.11,7.08,7.08,0,0,1,1.84-1.53,4.09,4.09,0,0,1,2-.67,2.11,2.11,0,0,1,1.38.46,2.62,2.62,0,0,1,.8,1.26,6.39,6.39,0,0,1,.31,1.71,1,1,0,0,1-.11.52.89.89,0,0,1-.3.35l-1.22.7a.26.26,0,0,1-.28,0c-.09,0-.15-.16-.17-.35a2.49,2.49,0,0,0-.21-.79,1.27,1.27,0,0,0-.45-.52,1.19,1.19,0,0,0-.73-.15,2.4,2.4,0,0,0-1,.37,3.53,3.53,0,0,0-1,.87,5.16,5.16,0,0,0-.73,1.16,6.39,6.39,0,0,0-.46,1.38,8.2,8.2,0,0,0-.18,1.47c0,.6,0,1.26,0,2s0,1.36,0,1.93a5.11,5.11,0,0,0,.18,1.27,1.87,1.87,0,0,0,.46.84,1,1,0,0,0,.73.32,1.82,1.82,0,0,0,1-.31,4.29,4.29,0,0,0,1-.81,5.54,5.54,0,0,0,.74-1,6,6,0,0,0,.46-1.05A5.24,5.24,0,0,0,1522.18,153.1Z"/><path class="cls-9" d="M1533.7,135.35a.24.24,0,0,1,.29,0,.52.52,0,0,1,.12.38.83.83,0,0,1,0,.22l-3.57,11.74v5.1a1.19,1.19,0,0,1-.12.51.75.75,0,0,1-.29.35l-1.2.7a.22.22,0,0,1-.29,0,.5.5,0,0,1-.12-.37v-5.11l-3.57-7.61a.5.5,0,0,1,0-.19,1.19,1.19,0,0,1,.12-.51.75.75,0,0,1,.29-.35l1.13-.65q.3-.18.45,0a.64.64,0,0,1,.18.24l2.44,5.16,2.44-8a2.52,2.52,0,0,1,.18-.45,1.07,1.07,0,0,1,.45-.49Z"/><path class="cls-8" d="M1540.5,169.89l-133,76.81c-1.11.64-2,0-2-1.52v-.41a4.84,4.84,0,0,1,2-3.85l133-76.81c1.12-.64,2,0,2,1.52V166A4.81,4.81,0,0,1,1540.5,169.89Z"/><path class="cls-8" d="M1540.5,212l-133,76.81c-1.11.64-2,0-2-1.53v-.4a4.84,4.84,0,0,1,2-3.85l133-76.81c1.12-.65,2,0,2,1.52v.4A4.82,4.82,0,0,1,1540.5,212Z"/><path class="cls-8" d="M1540.5,230.36l-133,76.81c-1.11.64-2,0-2-1.53v-.4a4.86,4.86,0,0,1,2-3.86l133-76.81c1.12-.64,2,0,2,1.53v.4A4.83,4.83,0,0,1,1540.5,230.36Z"/><path class="cls-8" d="M1540.5,398.42l-133,76.81c-1.11.64-2,0-2-1.53v-.4a4.86,4.86,0,0,1,2-3.86l133-76.81c1.12-.64,2,0,2,1.53v.4A4.83,4.83,0,0,1,1540.5,398.42Z"/><path class="cls-8" d="M1540.5,416.8l-133,76.81c-1.11.64-2,0-2-1.52v-.41a4.84,4.84,0,0,1,2-3.85l133-76.81c1.12-.64,2,0,2,1.52V413A4.81,4.81,0,0,1,1540.5,416.8Z"/><path class="cls-8" d="M1540.5,248.74l-133,76.81c-1.11.65-2,0-2-1.52v-.4a4.84,4.84,0,0,1,2-3.86l133-76.81c1.12-.64,2,0,2,1.53v.4A4.81,4.81,0,0,1,1540.5,248.74Z"/><path class="cls-8" d="M1527.52,193.8l-107.07,61.81c-1.12.65-2,0-2-1.52v-.4a4.82,4.82,0,0,1,2-3.86L1527.52,188c1.11-.65,2,0,2,1.52v.4A4.85,4.85,0,0,1,1527.52,193.8Z"/><path class="cls-8" d="M1540.5,291.73l-133,76.81c-1.11.64-2,0-2-1.53v-.4a4.84,4.84,0,0,1,2-3.85l133-76.81c1.12-.65,2,0,2,1.52v.4A4.82,4.82,0,0,1,1540.5,291.73Z"/><path class="cls-8" d="M1540.5,310.52l-133,76.81c-1.11.64-2,0-2-1.53v-.4a4.86,4.86,0,0,1,2-3.86l133-76.81c1.12-.64,2,0,2,1.53v.4A4.83,4.83,0,0,1,1540.5,310.52Z"/><path class="cls-8" d="M1540.5,273.08l-124.27,71.75c-1.11.64-2,0-2-1.53v-.4a4.83,4.83,0,0,1,2-3.85L1540.5,267.3c1.12-.64,2,0,2,1.53v.4A4.81,4.81,0,0,1,1540.5,273.08Z"/><path class="cls-19" d="M1407.31,350h0c-1,.6-1.87,0-1.87-1.41v-.77a4.47,4.47,0,0,1,1.87-3.57h0c1-.6,1.87,0,1.87,1.41v.77A4.47,4.47,0,0,1,1407.31,350Z"/><path class="cls-8" d="M1540.5,353.93l-133,76.81c-1.11.64-2,0-2-1.53v-.4a4.84,4.84,0,0,1,2-3.85l133-76.81c1.12-.65,2,0,2,1.52v.4A4.82,4.82,0,0,1,1540.5,353.93Z"/><path class="cls-8" d="M1540.5,372.72l-133,76.81c-1.11.64-2,0-2-1.53v-.4a4.82,4.82,0,0,1,2-3.85l133-76.82c1.12-.64,2,0,2,1.53v.4A4.83,4.83,0,0,1,1540.5,372.72Z"/><path class="cls-8" d="M1540.5,335.28,1416.23,407c-1.11.64-2,0-2-1.53v-.4a4.83,4.83,0,0,1,2-3.85L1540.5,329.5c1.12-.64,2,0,2,1.53v.4A4.81,4.81,0,0,1,1540.5,335.28Z"/><path class="cls-19" d="M1407.31,412.15h0c-1,.6-1.87,0-1.87-1.41V410a4.47,4.47,0,0,1,1.87-3.57h0c1-.6,1.87,0,1.87,1.41v.77A4.47,4.47,0,0,1,1407.31,412.15Z"/></g><g id="Button"><g id="Button-2" data-name="Button"><path class="cls-22" d="M1490.08,483.38V463.76a1.59,1.59,0,0,1,.73-1.26l46.88-27.05c.4-.23.73-.05.73.42v19.62a1.62,1.62,0,0,1-.73,1.26l-46.88,27.05C1490.4,484,1490.08,483.85,1490.08,483.38Z"/><path class="cls-11" d="M1540.22,436.92,1493.34,464a1.6,1.6,0,0,0-.73,1.26v19.61a1.59,1.59,0,0,0,.74,1.26l2.6,1.46a1.63,1.63,0,0,0,1.46,0l46.89-27.05a1.61,1.61,0,0,0,.72-1.26V439.63a1.54,1.54,0,0,0-.73-1.25l-2.61-1.47A1.66,1.66,0,0,0,1540.22,436.92Z"/><path class="cls-11" d="M1496.69,487.14V467.52a1.62,1.62,0,0,1,.72-1.26l46.89-27.05c.4-.23.72,0,.72.42v19.62a1.61,1.61,0,0,1-.72,1.26l-46.89,27.05C1497,487.79,1496.69,487.61,1496.69,487.14Z"/><path class="cls-23" d="M1497.41,487.56a1.66,1.66,0,0,1-1.46,0l-2.6-1.46a1.58,1.58,0,0,1-.74-1.25V465.24a1.44,1.44,0,0,1,.24-.75l4.05,2.32a1.46,1.46,0,0,0-.21.71v19.62C1496.69,487.57,1497,487.81,1497.41,487.56Z"/><path class="cls-24" d="M1545,439.5c0-.37-.35-.5-.72-.29l-46.88,27.05a1.51,1.51,0,0,0-.51.55l-4.06-2.32a1.44,1.44,0,0,1,.5-.51l46.89-27.06a1.63,1.63,0,0,1,1.46,0l2.6,1.46A1.59,1.59,0,0,1,1545,439.5Z"/></g><path class="cls-25" d="M1503.75,467.34c.12-.07.21-.07.27,0a.9.9,0,0,1,.15.35l2.71,9.2a.37.37,0,0,1,0,.11.88.88,0,0,1-.09.38.51.51,0,0,1-.21.26l-.79.45c-.15.09-.25.1-.31,0a.45.45,0,0,1-.12-.21l-.48-1.62-3.5,2-.47,2.17a1.62,1.62,0,0,1-.12.35.73.73,0,0,1-.31.32l-.8.46a.16.16,0,0,1-.21,0,.38.38,0,0,1-.09-.28.49.49,0,0,1,0-.12l2.71-12.34a3,3,0,0,1,.16-.52.7.7,0,0,1,.26-.3Zm.61,7.13-1.22-4.16-1.22,5.56Z"/><path class="cls-25" d="M1512.51,470.43a.94.94,0,0,1,.11-.4.53.53,0,0,1,.21-.23l.89-.52a.19.19,0,0,1,.22,0,.32.32,0,0,1,.08.28,8,8,0,0,1-.23,1.53,6.75,6.75,0,0,1-.59,1.6,7.26,7.26,0,0,1-1,1.5,5.49,5.49,0,0,1-1.48,1.21,2.6,2.6,0,0,1-1.35.43,1.38,1.38,0,0,1-1-.4,2.42,2.42,0,0,1-.64-1.12,7.06,7.06,0,0,1-.27-1.73c0-.43,0-.9,0-1.42s0-1,0-1.44a11.5,11.5,0,0,1,.27-2.05,8.32,8.32,0,0,1,.64-1.86,7.06,7.06,0,0,1,1-1.55,5.21,5.21,0,0,1,1.35-1.13,3.12,3.12,0,0,1,1.48-.49,1.57,1.57,0,0,1,1,.34,1.85,1.85,0,0,1,.59.93,4.69,4.69,0,0,1,.23,1.26.75.75,0,0,1-.08.38.61.61,0,0,1-.22.25l-.89.52a.23.23,0,0,1-.21,0,.34.34,0,0,1-.13-.26,1.7,1.7,0,0,0-.15-.58.91.91,0,0,0-.33-.39.89.89,0,0,0-.53-.11,2,2,0,0,0-.76.27,3,3,0,0,0-.75.64,4.46,4.46,0,0,0-.54.86,5,5,0,0,0-.33,1,6.65,6.65,0,0,0-.14,1.08c0,.44,0,.92,0,1.45s0,1,0,1.41a4.14,4.14,0,0,0,.14.94,1.51,1.51,0,0,0,.33.62.83.83,0,0,0,.54.23,1.27,1.27,0,0,0,.75-.23,3.16,3.16,0,0,0,.76-.59,4.35,4.35,0,0,0,.53-.73,3.36,3.36,0,0,0,.34-.78A4.39,4.39,0,0,0,1512.51,470.43Z"/><path class="cls-25" d="M1520.08,466.06a.94.94,0,0,1,.11-.4.53.53,0,0,1,.21-.23l.89-.52a.19.19,0,0,1,.22,0,.32.32,0,0,1,.08.28,8.81,8.81,0,0,1-.22,1.53,7.68,7.68,0,0,1-1.6,3.1,5.49,5.49,0,0,1-1.48,1.21,2.6,2.6,0,0,1-1.35.43,1.38,1.38,0,0,1-1-.4,2.42,2.42,0,0,1-.64-1.12,7.06,7.06,0,0,1-.27-1.73c0-.43,0-.9,0-1.42s0-1,0-1.44a11.5,11.5,0,0,1,.27-2.05,8.32,8.32,0,0,1,.64-1.86,7.06,7.06,0,0,1,1-1.55,5.21,5.21,0,0,1,1.35-1.13,3.12,3.12,0,0,1,1.48-.49,1.51,1.51,0,0,1,1,.34,1.93,1.93,0,0,1,.6.93,5,5,0,0,1,.22,1.25.76.76,0,0,1-.08.39.61.61,0,0,1-.22.25l-.89.52a.23.23,0,0,1-.21,0,.35.35,0,0,1-.13-.27,1.71,1.71,0,0,0-.15-.57.91.91,0,0,0-.33-.39.84.84,0,0,0-.54-.11,2,2,0,0,0-.75.27,3,3,0,0,0-.75.64,4.46,4.46,0,0,0-.54.86,5,5,0,0,0-.33,1,6.65,6.65,0,0,0-.14,1.08c0,.44,0,.92,0,1.45s0,1,0,1.41a4.14,4.14,0,0,0,.14.94,1.51,1.51,0,0,0,.33.62.83.83,0,0,0,.54.23,1.34,1.34,0,0,0,.75-.23,2.76,2.76,0,0,0,.75-.6,3.77,3.77,0,0,0,.88-1.5A4.39,4.39,0,0,0,1520.08,466.06Z"/><path class="cls-25" d="M1528,463.11a.17.17,0,0,1,.21,0,.35.35,0,0,1,.09.27v1.21a.81.81,0,0,1-.09.37.52.52,0,0,1-.21.26l-4.86,2.81a.17.17,0,0,1-.21,0,.35.35,0,0,1-.08-.27v-11a.83.83,0,0,1,.08-.37.57.57,0,0,1,.21-.26l4.77-2.75a.15.15,0,0,1,.21,0,.37.37,0,0,1,.09.27v1.21a.88.88,0,0,1-.09.38.63.63,0,0,1-.21.26l-3.57,2.06v2.71l3.33-1.93a.17.17,0,0,1,.21,0,.37.37,0,0,1,.09.27v1.21a.88.88,0,0,1-.09.38.54.54,0,0,1-.21.25l-3.33,1.93v2.83Z"/><path class="cls-25" d="M1533,450.47c.89-.52,1.59-.6,2.08-.24a3,3,0,0,1,.74,2.42,7,7,0,0,1-.74,3.29,5.24,5.24,0,0,1-2.08,2.19l-1.77,1V463a.85.85,0,0,1-.09.38.63.63,0,0,1-.21.26l-.9.52a.17.17,0,0,1-.21,0,.37.37,0,0,1-.09-.27v-11a.84.84,0,0,1,.09-.37.52.52,0,0,1,.21-.26Zm-1.77,6.55,1.71-1a2.82,2.82,0,0,0,1-1,2.91,2.91,0,0,0,.38-1.56c0-.63-.13-1-.38-1.1a1.19,1.19,0,0,0-1,.22l-1.71,1Z"/><path class="cls-25" d="M1542.16,445.16c.09,0,.16,0,.21,0a.34.34,0,0,1,.09.27v1.21a.84.84,0,0,1-.09.37.47.47,0,0,1-.21.26l-2,1.15v9.34a.84.84,0,0,1-.09.37.52.52,0,0,1-.21.26l-.89.52a.15.15,0,0,1-.21,0,.34.34,0,0,1-.09-.27V449.3l-2,1.15c-.09.05-.16.05-.21,0a.37.37,0,0,1-.09-.27V449a.88.88,0,0,1,.09-.38.51.51,0,0,1,.21-.26Z"/></g><g id="Button-3" data-name="Button"><path class="cls-8" d="M1409.55,529.87V510.25a1.58,1.58,0,0,1,.73-1.26l46.88-27.06c.4-.23.73,0,.73.42V502a1.62,1.62,0,0,1-.73,1.26l-46.88,27.06C1409.87,530.52,1409.55,530.33,1409.55,529.87Z"/><path class="cls-6" d="M1420.13,520.33a.16.16,0,0,1-.21,0,.37.37,0,0,1-.09-.27V509a.88.88,0,0,1,.09-.38.54.54,0,0,1,.21-.25l3.26-1.89a2,2,0,0,1,1.19-.35,1.17,1.17,0,0,1,.76.39,2.19,2.19,0,0,1,.42.85,4.59,4.59,0,0,1,.12,1,4.89,4.89,0,0,1-.09,1,6.77,6.77,0,0,1-.21.81,6.21,6.21,0,0,1-.26.61,3,3,0,0,1-.2.38,1.46,1.46,0,0,1,.63.65,3,3,0,0,1,.29,1.49,7,7,0,0,1-.16,1.38,7.22,7.22,0,0,1-.45,1.41,5.91,5.91,0,0,1-.75,1.26,3.69,3.69,0,0,1-1,.91Zm4.26-10.94c0-.43-.09-.71-.27-.83s-.46-.07-.84.15l-2,1.13v2.63l2-1.13a2.14,2.14,0,0,0,.84-.82A2.28,2.28,0,0,0,1424.39,509.39Zm-3.07,8.12,2-1.18a2.13,2.13,0,0,0,.89-.92,2.6,2.6,0,0,0,.28-1.21,1.1,1.1,0,0,0-.29-.88c-.2-.16-.49-.13-.88.1l-2,1.18Z"/><path class="cls-6" d="M1430.94,502.16c.12-.07.21-.07.27,0a1,1,0,0,1,.15.35l2.71,9.2a.37.37,0,0,1,0,.11.88.88,0,0,1-.09.38.63.63,0,0,1-.21.26l-.79.46c-.15.08-.25.09-.31,0a.45.45,0,0,1-.12-.21l-.48-1.62-3.5,2-.47,2.17a1.71,1.71,0,0,1-.13.35.64.64,0,0,1-.31.32l-.79.46a.15.15,0,0,1-.21,0,.37.37,0,0,1-.09-.27.53.53,0,0,1,0-.13l2.71-12.33a2.84,2.84,0,0,1,.16-.53.57.57,0,0,1,.26-.29Zm.61,7.13-1.22-4.15-1.22,5.56Z"/><path class="cls-6" d="M1439.69,505.25a1.17,1.17,0,0,1,.12-.4.59.59,0,0,1,.21-.23l.89-.51a.18.18,0,0,1,.22,0,.32.32,0,0,1,.08.28,8,8,0,0,1-.23,1.53,6.59,6.59,0,0,1-.59,1.6,7.66,7.66,0,0,1-1,1.51,5.44,5.44,0,0,1-1.47,1.2,2.6,2.6,0,0,1-1.35.43,1.37,1.37,0,0,1-1-.39,2.46,2.46,0,0,1-.64-1.13,7.06,7.06,0,0,1-.27-1.73c0-.42,0-.9,0-1.42s0-1,0-1.44a11.62,11.62,0,0,1,.27-2.05,8.32,8.32,0,0,1,.64-1.86,7.06,7.06,0,0,1,1-1.55,5.17,5.17,0,0,1,1.35-1.12,3,3,0,0,1,1.47-.5,1.6,1.6,0,0,1,1,.34,1.85,1.85,0,0,1,.59.93,4.76,4.76,0,0,1,.23,1.26.73.73,0,0,1-.08.38.69.69,0,0,1-.22.25l-.89.52a.25.25,0,0,1-.22,0,.35.35,0,0,1-.12-.26,1.7,1.7,0,0,0-.15-.58.81.81,0,0,0-.87-.5,1.89,1.89,0,0,0-.75.28,2.41,2.41,0,0,0-.75.64,4.1,4.1,0,0,0-.54.85,5.2,5.2,0,0,0-.33,1,6.65,6.65,0,0,0-.14,1.08c0,.45,0,.93,0,1.45s0,1,0,1.42a4.14,4.14,0,0,0,.14.93,1.51,1.51,0,0,0,.33.62.83.83,0,0,0,.54.23,1.31,1.31,0,0,0,.75-.23,2.92,2.92,0,0,0,.75-.59,3.62,3.62,0,0,0,.54-.73,3.48,3.48,0,0,0,.34-.77A3.77,3.77,0,0,0,1439.69,505.25Z"/><path class="cls-6" d="M1448.38,503.3a.25.25,0,0,1,.07.12.34.34,0,0,1,0,.09.88.88,0,0,1-.09.38.63.63,0,0,1-.21.26l-1.05.6q-.22.13-.36,0l-.15-.12-2.6-3v4.45a.84.84,0,0,1-.09.37.57.57,0,0,1-.21.26l-.9.52a.15.15,0,0,1-.21,0,.34.34,0,0,1-.08-.27v-11a.85.85,0,0,1,.08-.37.63.63,0,0,1,.21-.26l.9-.51a.15.15,0,0,1,.21,0,.37.37,0,0,1,.09.27v4l2.41-5.49a3.44,3.44,0,0,1,.21-.39.94.94,0,0,1,.29-.27l1-.59a.17.17,0,0,1,.21,0,.37.37,0,0,1,.09.27.72.72,0,0,1-.07.3l-3,6.71Z"/></g><g id="Shield"><path class="cls-19" d="M1332.12,47.92a34.93,34.93,0,0,1-4.4-3c.48-1.18.89-2.3,1.24-3.37a33.31,33.31,0,0,0,11,10.87C1337.85,51.23,1333.37,48.63,1332.12,47.92Z"/><path class="cls-4" d="M1332.12,47.92a34.93,34.93,0,0,1-4.4-3c.48-1.18.89-2.3,1.24-3.37a33.31,33.31,0,0,0,11,10.87C1337.85,51.23,1333.37,48.63,1332.12,47.92Z"/><path class="cls-19" d="M1387,59c.22,47,.6,110.45-52.78,161.68l-1.16,1.11-1.57.31a50.84,50.84,0,0,1-9.75,1,35.55,35.55,0,0,1-22.69-7.62,37.44,37.44,0,0,0,13.86,2.52,50.07,50.07,0,0,0,9.74-1l1.57-.3,1.15-1.11c53.4-51.23,53-114.65,52.79-161.68,0-2.52,0-4.94,0-7.25,0,0,0,0,0,0l8.8-6.93V50.87Q1387,54.72,1387,59Z"/><path class="cls-4" d="M1387,59c.22,47,.6,110.45-52.78,161.68l-1.16,1.11-1.57.31a50.84,50.84,0,0,1-9.75,1,35.55,35.55,0,0,1-22.69-7.62,37.44,37.44,0,0,0,13.86,2.52,50.07,50.07,0,0,0,9.74-1l1.57-.3,1.15-1.11c53.4-51.23,53-114.65,52.79-161.68,0-2.52,0-4.94,0-7.25,0,0,0,0,0,0l8.8-6.93V50.87Q1387,54.72,1387,59Z"/><path class="cls-4" d="M1333.06,221.76h0l1.16-1.11C1387.6,169.42,1387.22,106,1387,59q0-4.24,0-8.1V39.66l-4.61,3.63-4.19,3.3h0l0,.1q0,3.44,0,7.17c.22,47,.61,110.45-52.79,161.68l-1.15,1.11,8.84,5.1Z"/><path class="cls-19" d="M1352.76,51.17c-3.13,0-7.45-1.26-12.46-5.63a13.17,13.17,0,0,0,3.63.52c7.08,0,14.69-3.05,22-8.84l17.61-13.88,8.83,5.1-17.6,13.88C1367.45,48.11,1359.84,51.17,1352.76,51.17Z"/><path class="cls-4" d="M1352.76,51.17c-3.13,0-7.45-1.26-12.46-5.63a13.17,13.17,0,0,0,3.63.52c7.08,0,14.69-3.05,22-8.84l17.61-13.88,8.83,5.1-17.6,13.88C1367.45,48.11,1359.84,51.17,1352.76,51.17Z"/><path class="cls-4" d="M1381.53,50.87l-8.83-5.11c-14.84,11.7-29.21,13-39.52,9.39a21.68,21.68,0,0,1-2.73-2.88l-8.84-5.1c-8.29,20.12-29.19,49.56-51.08,57.58,0,36.22-2.56,86.86,26.61,103.74,1.47.86,7.37,4.25,8.85,5.1,6.47,3.75,14.49,5.08,24.46,3.14h0C1385.35,164,1381.53,95.12,1381.53,50.87Z"/><path class="cls-4" d="M1323.07,110.51l7.38-58.24h0l-8.84-5.1c-8.29,20.12-29.19,49.56-51.08,57.58l8.83,5.1Z"/><path class="cls-2" d="M1321.74,215.44A27.88,27.88,0,0,1,1301,207c-19.9-20-19.66-55.42-19.5-89,0-2.31,0-4.54,0-6.67,22.18-9,41.35-37.14,49.57-55.14,5.34,5.06,13.19,8,21.65,8h0c8.83,0,18-3.12,26.6-9.06,0,1.26,0,2.54,0,3.84.22,45.68.58,106.72-50,155.71a42.5,42.5,0,0,1-7.66.73Z"/><path class="cls-7" d="M1377.21,59.13c.21,45.2.53,105.23-48.84,153.56a41,41,0,0,1-6.63.58,25.76,25.76,0,0,1-19.18-7.79c-19.27-19.36-19-54.25-18.87-87.47,0-1.79,0-3.53,0-5.22,21.15-9.36,39.38-35.13,48.15-53.09a34.57,34.57,0,0,0,20.91,6.7c8.11,0,16.44-2.5,24.44-7.27m4.32-8.26c-10.19,8-20.17,11.17-28.76,11.17-9.86,0-17.89-4.13-22.32-9.77-8.3,20.12-29.19,49.56-51.09,57.58,0,41.77-3.39,107.77,42.38,107.77a45.65,45.65,0,0,0,8.71-.89h0c54.9-52.69,51.08-121.61,51.08-165.86Z"/><path class="cls-19" d="M1304.59,184.35l56.68-32.73-.93-8.16c-.58-5.17-2.65-8.78-5.61-10.48l-7.88-4.55c-2.95-1.7-6.78-1.52-10.93.88l-21.74,12.55c-8.32,4.8-15.37,17-16.54,28.7l-.93,9.24Z"/><path class="cls-26" d="M1304.59,184.35l56.68-32.73-.93-8.16c-.58-5.17-2.65-8.78-5.61-10.48l-7.88-4.55c-2.95-1.7-6.78-1.52-10.93.88l-21.74,12.55c-8.32,4.8-15.37,17-16.54,28.7l-.93,9.24Z"/><path class="cls-9" d="M1360.34,143.46c-.58-5.17-2.65-8.78-5.61-10.48s-6.78-1.52-10.93.88l-21.74,12.55c-8.32,4.8-15.37,17-16.54,28.7l-.93,9.24,56.68-32.73Z"/><path class="cls-19" d="M1345.2,98.25c2.79,1.61,4.52,5.07,4.52,10,0,9.83-6.91,21.79-15.43,26.71-4.26,2.46-8.11,2.69-10.9,1.08l-7.75-4.47c-2.79-1.61-4.51-5.07-4.51-10,0-9.83,6.9-21.79,15.42-26.71,4.26-2.46,8.11-2.69,10.9-1.08Z"/><path class="cls-20" d="M1345.2,98.25c2.79,1.61,4.52,5.07,4.52,10,0,9.83-6.91,21.79-15.43,26.71-4.26,2.46-8.11,2.69-10.9,1.08l-7.75-4.47c-2.79-1.61-4.51-5.07-4.51-10,0-9.83,6.9-21.79,15.42-26.71,4.26-2.46,8.11-2.69,10.9-1.08Z"/><path class="cls-9" d="M1334.29,135c-4.26,2.46-8.11,2.69-10.9,1.08s-4.52-5.07-4.52-10c0-9.83,6.91-21.79,15.42-26.71,4.26-2.46,8.12-2.69,10.91-1.08s4.52,5.07,4.52,10C1349.72,118.07,1342.81,130,1334.29,135Z"/><path class="cls-19" d="M1318.65,23.58c-5.36,24.43-32.81,64-51.87,71l-7.13,2.62,8.84,5.1,7.12-2.62c19.06-7,46.52-46.53,51.88-71Z"/><path class="cls-4" d="M1318.65,23.58c-5.36,24.43-32.81,64-51.87,71l-7.13,2.62,8.84,5.1,7.12-2.62c19.06-7,46.52-46.53,51.88-71Z"/><path class="cls-19" d="M1291.75,216.21c-23.72-23.84-23.47-62.52-23.29-98.24,0-2.84,0-5.55,0-8.12v-7.59l-8.84-5.1v7.59c0,2.57,0,5.28,0,8.11-.18,35.73-.43,74.41,23.29,98.25a42.23,42.23,0,0,0,8.76,6.8l8.19,4.73A42.35,42.35,0,0,1,1291.75,216.21Z"/><path class="cls-4" d="M1291.75,216.21c-23.72-23.84-23.47-62.52-23.29-98.24,0-2.84,0-5.55,0-8.12v-7.59l-8.84-5.1v7.59c0,2.57,0,5.28,0,8.11-.18,35.73-.43,74.41,23.29,98.25a42.23,42.23,0,0,0,8.76,6.8l8.19,4.73A42.35,42.35,0,0,1,1291.75,216.21Z"/><path class="cls-19" d="M1392.43,58.94q0-4.23,0-8.07V28.44L1374.8,42.32c-7.34,5.79-15,8.85-22,8.85-5.58,0-15-4-25.27-22.49-5.36,24.43-32.82,64-51.87,71l-7.13,2.62v7.59c0,2.57,0,5.28,0,8.11-.17,35.73-.43,74.42,23.3,98.26a40.88,40.88,0,0,0,30,12.28,56.13,56.13,0,0,0,10.79-1.1l3.14-.61,2.31-2.21C1393,171.73,1392.66,106.85,1392.43,58.94Zm-58.22,161.71-1.15,1.11-1.57.31a51.77,51.77,0,0,1-9.75,1,35.61,35.61,0,0,1-26.13-10.68c-22.13-22.24-21.88-59.56-21.71-94.39,0-2.85,0-5.57,0-8.14v-3.8l3.57-1.3c20.67-7.58,45.44-44.83,51.48-63.16,5.63,9.28,16.29,15,23.79,15h0c8.3,0,17.09-3.47,25.4-10l8.8-6.94V50.87q0,3.85,0,8.1C1387.22,106,1387.6,169.42,1334.21,220.65Z"/><path class="cls-17" d="M1392.43,58.94q0-4.23,0-8.07V28.44L1374.8,42.32c-7.34,5.79-15,8.85-22,8.85-5.58,0-15-4-25.27-22.49-5.36,24.43-32.82,64-51.87,71l-7.13,2.62v7.59c0,2.57,0,5.28,0,8.11-.17,35.73-.43,74.42,23.3,98.26a40.88,40.88,0,0,0,30,12.28,56.13,56.13,0,0,0,10.79-1.1l3.14-.61,2.31-2.21C1393,171.73,1392.66,106.85,1392.43,58.94Zm-58.22,161.71-1.15,1.11-1.57.31a51.77,51.77,0,0,1-9.75,1,35.61,35.61,0,0,1-26.13-10.68c-22.13-22.24-21.88-59.56-21.71-94.39,0-2.85,0-5.57,0-8.14v-3.8l3.57-1.3c20.67-7.58,45.44-44.83,51.48-63.16,5.63,9.28,16.29,15,23.79,15h0c8.3,0,17.09-3.47,25.4-10l8.8-6.94V50.87q0,3.85,0,8.1C1387.22,106,1387.6,169.42,1334.21,220.65Z"/></g><g id="Chartacter"><g id="Bottom"><path class="cls-27" d="M1780.32,481.72c-1.38-18.63.76-32.9-.83-62h0c-.14-7.45-.42-15.44-.93-22.53-1.72-23.87-5.49-32-5.84-36.64,0,0-.65-37.14-2.24-89.37-.75-24.57-8-32-13.87-45.05h-72c-7.74,32.18-7.14,102.36-6.91,135.53.11,16.9,7.11,107.36,7.24,109.44.5,7.38-.16,10.3-3.12,13.4-6.21,6.5-15.2,12.69-23,18.36,1.13,2.9,10.48,2.79,15.11.58a119.43,119.43,0,0,0,17.26-10.74c6.39-4.62,14.55-8.32,14.66-15.35a7.08,7.08,0,0,1,.21-1.26c.12-4.1,9.92-64.61,10.73-78.65.7-12.07-.8-32.56-.8-32.56l8-51.14s4.91,30.23,9.89,50.87c4.05,16.8,10.73,45.46,15.28,66.14h0c4.38,23.82,10.81,40.77,11.92,52.7.34,2.84,3.64,30.78,5,37.18s15.64,6.57,16.56-4.43C1783.21,508.88,1780.58,485.23,1780.32,481.72Z"/><path class="cls-15" d="M1645.56,510.29c-.39,0-1,4.25,1.09,6.08,2.46,2.11,9.7,5.62,19.32,4.5s14.87-4,18.75-7.07,9.32-7.48,13.68-8.37c4-.83,8.46-2.57,9.77-3.77s1.18-6.63,1.18-6.63Z"/><path d="M1706.23,474.12s.73,0,1,1.29c.28,1.49.55,5.84,1.16,8.3.85,3.42,1.36,10.41.8,13.18s-7.17,4.63-11.39,6.16-9.33,4.79-13.73,8.26c-4.56,3.59-14.1,7.14-20.37,7.17-9.57,0-15.73-2.57-17.61-5.94-2.32-4.18-.44-6.57,10.61-11.43,2.09-.92,9.45-5.07,11.95-6.57a55,55,0,0,0,7.54-5.36,43,43,0,0,0,3.4-3.21,14.46,14.46,0,0,0,2.82-3.44c.13-.28.22-.61.33-.9a16.05,16.05,0,0,0,.75-2.51c.18-.89.31-2.19,1.18-2.72s2.81-.51,3.94-.41a30.18,30.18,0,0,1,4.23.63c1.61.37,3.49.53,4.43,2a7.74,7.74,0,0,1,.86,3.9c0,.63,0,1.26,0,1.89,0,.26-.12.74.26.64s.79-1,.93-1.36c.31-.69.52-1.44.86-2.13a11.63,11.63,0,0,1,1.39-2.26,11,11,0,0,1,1.76-1.71,18.76,18.76,0,0,0,1.89-1.17A4.21,4.21,0,0,0,1706.23,474.12Z"/><path class="cls-6" d="M1654.88,501.91c13.84,1.08,18.11,9.48,18.64,14.65a33.76,33.76,0,0,1-9.86,1.92c-9.57,0-16.13-2.57-18-5.94C1643.47,508.59,1645,505.45,1654.88,501.91Z"/><path class="cls-16" d="M1675.64,502.27a.7.7,0,0,0,.43-.15.64.64,0,0,0,.1-.92,16.46,16.46,0,0,0-12.47-5,.66.66,0,1,0,.13,1.32c4.71-.44,9.78,2.62,11.29,4.46A.67.67,0,0,0,1675.64,502.27Z"/><path class="cls-16" d="M1681.64,498.94a.7.7,0,0,0,.43-.15.65.65,0,0,0,.1-.93c-1.9-2.32-7.43-5.44-12.46-4.95a.66.66,0,0,0-.61.72.67.67,0,0,0,.74.6c4.7-.45,9.77,2.61,11.28,4.46A.7.7,0,0,0,1681.64,498.94Z"/><path class="cls-16" d="M1687.21,495.12a.7.7,0,0,0,.43-.15.64.64,0,0,0,.1-.92c-1.9-2.33-7.45-5.44-12.47-5a.66.66,0,1,0,.13,1.32c4.7-.44,9.78,2.62,11.29,4.46A.67.67,0,0,0,1687.21,495.12Z"/><path class="cls-16" d="M1692.67,491.3a.68.68,0,0,0,.42-.14.66.66,0,0,0,.12-.93c-2.62-3.29-8.59-5.51-13.62-5a.66.66,0,0,0-.61.72.67.67,0,0,0,.74.6c4.53-.44,10.1,1.6,12.42,4.52A.67.67,0,0,0,1692.67,491.3Z"/><path class="cls-15" d="M1761.55,525.63c.38,6.38,1.39,10.61,3.71,14.35s6.69,4.92,11.12,3.82,10.1-4,11.37-9.52,2-9.28,1-15.19Z"/><path d="M1780.17,479.44c1.82.14,2.36,8.71,3.41,17.28,1.13,9.19,3.94,13,5,20.53,1.15,8.61-.31,12.46-3.4,17.67s-14,10.31-19.42,2.85c-4.39-6.08-4.58-12.82-4.18-21.41.42-8.89-.21-15.05-.58-21.79-.36-6.45-1.82-12.95-.23-13.67.12,1,.24,2.15.37,3.08a14.92,14.92,0,0,0,.58,3.44c.19.48.6,1,.76.2a4.77,4.77,0,0,0,0-1.6c-.27-2.38,1-2.57,1.62-2.76a81.59,81.59,0,0,1,8.47-1.17c1.39-.09,6.2-.29,6.83.48a5.23,5.23,0,0,1,.61,2.49c.16,1.3.46,2.25.5,1.84.09-.93-.1-3.34-.12-3.92s-.12-1.32-.12-1.89S1780.2,480,1780.17,479.44Z"/><path class="cls-6" d="M1789,522.24a21,21,0,0,1-3.41,13.08c-3.09,5.21-14.91,10.34-20.3,2.88-2.68-3.71-3.4-8.1-3.77-12.57C1764.78,519.88,1783.94,517.35,1789,522.24Z"/><path class="cls-16" d="M1765.53,516.27a.68.68,0,0,0,.23-.07c.07,0,8.51-3.44,16.73-1.58a.68.68,0,0,0,.81-.5.65.65,0,0,0-.51-.79c-8.69-2-17.3,1.53-17.62,1.68a.65.65,0,0,0-.32.88A.71.71,0,0,0,1765.53,516.27Z"/><path class="cls-16" d="M1782.08,508.2a.65.65,0,0,0,.15-1.28c-8.18-2.71-17.26,1.35-17.6,1.53a.65.65,0,0,0-.28.89.7.7,0,0,0,.91.28c.08,0,8.93-4,16.54-1.45A.67.67,0,0,0,1782.08,508.2Z"/><path class="cls-16" d="M1781.79,502.15a.66.66,0,0,0,.57-.43.65.65,0,0,0-.4-.85c-9-3.15-17.62,1.29-17.94,1.48a.66.66,0,0,0-.23.91.69.69,0,0,0,.93.22c.07,0,8.4-4.29,16.78-1.37A.6.6,0,0,0,1781.79,502.15Z"/><path class="cls-10" d="M1781.35,496.19a.66.66,0,0,0,.56-.42.65.65,0,0,0-.39-.85c-8.43-3.09-17.71,1.46-18.06,1.66a.66.66,0,0,0-.25.9.69.69,0,0,0,.93.25c.08-.05,9.07-4.44,16.9-1.58A.67.67,0,0,0,1781.35,496.19Z"/><path class="cls-17" d="M1769.08,226.35c1.13,20.72,3.67,26.55,4.51,70s.69,55.61.86,60.85,3.3,14.6,6,40.4-.5,56.54-.5,56.54-1.89,4.15-12,5c-9.33.81-13.94-2.6-13.94-2.6s-12.78-50.25-16.32-65.79-13.8-66.64-13.8-66.64l-6.1,41.45s2.84,14.24,0,36.86-7.85,45.8-7.85,45.8a42.81,42.81,0,0,1-14.32,2.29c-8-.12-12.56-3.21-12.56-3.21s-7.92-67.32-7.92-93,2-91,3.64-127.73Z"/><path class="cls-18" d="M1772.12,377.24q-.49-2.24-.93-4.26c-2.57-12-2.54-27.69-2.5-47.56,0-6,0-12.21,0-18.81-.24-25.87-2.28-54.84-15.68-73.52l-1.08.74c9,12.56,12.8,29.93,14.38,47.87-13.3-1.72-16.22-14.55-20.18-32.21-.54-2.42-1.1-4.92-1.71-7.48l-1.29.29c.61,2.56,1.17,5,1.71,7.46,4,17.63,7.1,31.59,21.57,33.27.65,7.9.89,15.88,1,23.59.06,6.59,0,12.8,0,18.8,0,19.94-.07,35.7,2.53,47.83q.43,2,.93,4.26c3.45,15.52,8.61,38.8,6,79.35a12.92,12.92,0,0,0,1.38-.87C1780.69,415.85,1775.56,392.7,1772.12,377.24ZM1689,270.87c1.86,8.53,15.81,15.72,22.14,17.2l1.61,8.69c-.32,4.62-.65,9.46-1,14.47-1.93,27.59-4.67,48.88-3.23,55.32,3.81,16.94,2.68,27.68.64,47.19q-.32,3-.65,6.26c-1.16,11.33-2.43,22.44-3.28,29.56.49-.1,1-.21,1.37-.31.84-7.14,2.09-18,3.22-29.12.23-2.19.44-4.27.65-6.26,2.06-19.64,3.19-30.45-.66-47.6-1.4-6.26,1.42-28.74,3.25-54.95.22-3.18.44-6.3.65-9.33l4.91,23.34-.81,40.26,6.1-41.45-7.58-42.08S1698.8,280.84,1689,270.87Z"/></g><g id="Top"><path class="cls-27" d="M1693.17,135.55c-8.22,1.35-16.28,5.11-22.51,17.5-5.12,10.19-9,22.4-15.24,39.53l-33.73-.54,6,21.55s20.16,3.14,30.52,4.41c13.27,1.62,14.73.79,18.26-6.28,6.18-12.38,13.07-33.7,13.07-33.7Z"/><path class="cls-11" d="M1693.17,135.15c-6.49,1.21-14.09,2.22-19.71,11.56s-17.08,41.49-17.08,41.49,3.23,4.05,11.67,8.55,14.55,3.12,14.55,3.12l8.22-21.58Z"/><g id="Chest"><path id="Chest-2" data-name="Chest" class="cls-9" d="M1738.34,133.13c13.65,3.05,20.69,5.06,27.15,6.57,0,0,7.41,8.72,6.69,55-.09,5.62-1.43,45.61-.42,59.2,0,0-22.78,12.89-61,9-30-3.07-33.57-14.22-33.57-14.22s1.7-40.92,2.1-63.08c.52-28.78,3.39-41.61,13.83-50.39l21.41-3.69Z"/></g><g id="Head"><path d="M1735.58,82.87c-2.16,7.84,4,15.23,6.79,17.48-.27,4.51-.45,14.42-.47,19,8.06-1.83,21.34-43.33,7.5-47.92,1.65-8.62-8.44-13.1-16.44-15.33s-11.45-6.33-18.45-4.45a6,6,0,0,0-4.09,5.26,15.23,15.23,0,0,0-9.42-.28c-3.87.83-6.17,6.71-2,8.56-3.46.49-7.77,2.89-7.14,6.91a4.18,4.18,0,0,0,4,3.29c-4,.68-7.2,4.79-3.51,8a2.59,2.59,0,0,1,.62,2.29c-.27.78-1.34,1.31-1.94.5,1.29,1.81,4.2,1.14,5-.78.46-1,.08-2,.37-3,1.2,4.4,6.8,2.57,10.12,3C1716.16,83.87,1726,83.86,1735.58,82.87Z"/><path class="cls-27" d="M1752.32,111.31c-5.77,2.89-8.47-1.66-8.47-1.66l.31,26.35c-11,15.05-41.63,8.22-29.58-3.1l0-7.08a43.34,43.34,0,0,1-5-.48c-5.14-.75-8.42-5.62-10-11.16-2.36-8.2-1.39-24.94-.19-32.4,1.25-7.76,3.35-11.43,4.58-12.29,6.39,1.14,10,6.22,19.8,7.2,6.09.61,10.9-.24,13.16-1.34-1.42,10.17.19,14.82,1,17.52,1.2,3.9,2.88,5.78,3.69,5.94,3.53.7,3.9-2.33,5.46-4s7.47-3.21,10.09,2.19A10.53,10.53,0,0,1,1752.32,111.31Z"/><path class="cls-28" d="M1740.18,116.26c-1.6,7.63-12.58,12.18-25.62,12.65l0-3.09a60.41,60.41,0,0,0,9.56-1C1731.64,123.49,1737.6,120.51,1740.18,116.26Z"/><path class="cls-15" d="M1727.27,91.53a2.52,2.52,0,1,1-2.46-2.58A2.52,2.52,0,0,1,1727.27,91.53Z"/><path class="cls-15" d="M1708.45,91.17a2.52,2.52,0,1,1-2.45-2.58A2.29,2.29,0,0,1,1708.45,91.17Z"/><path class="cls-28" d="M1717,89.67l-2.38,15-7.75-1.85C1709.81,96.06,1713,92.67,1717,89.67Z"/><path class="cls-15" d="M1702.45,85.94l6-1.8a3,3,0,0,0-3.8-2.16A3.3,3.3,0,0,0,1702.45,85.94Z"/><path class="cls-15" d="M1729,85.83l-5.55-3.07a3,3,0,0,1,4.22-1.32A3.33,3.33,0,0,1,1729,85.83Z"/><path class="cls-28" d="M1722,106.5l-8.68,3.36a4.57,4.57,0,0,0,6,2.83A4.87,4.87,0,0,0,1722,106.5Z"/><path class="cls-29" d="M1721.11,108.14a5.53,5.53,0,0,1,1.12-.17,4.82,4.82,0,0,1-3,4.72,4.39,4.39,0,0,1-1.46.28A4.26,4.26,0,0,1,1721.11,108.14Z"/></g><g id="Tablet"><path class="cls-30" d="M1613.78,161.73h0l2.2-1.48v0a2.28,2.28,0,0,1,2.08,0l24.39,10.07a8,8,0,0,1,4.29,5.12l10,46.64a2.06,2.06,0,0,1-.56,2.25h0l-2.26,1.52v0a2.24,2.24,0,0,1-2.09,0l-24.39-10.07a8,8,0,0,1-4.29-5.12c-2-9.17-8.08-37.47-10.05-46.64C1612.85,162.89,1613.14,162.09,1613.78,161.73Z"/><path class="cls-14" d="M1642.39,173.38a7.87,7.87,0,0,1,2.1,3.59l10,46.63a2.16,2.16,0,0,1-.49,2.22l2.13-1.42,0,0a2,2,0,0,0,.57-2.25l-10-46.65a7.6,7.6,0,0,0-1.93-3.39Z"/><path class="cls-15" d="M1654.53,223.6l-10-46.63a8,8,0,0,0-4.29-5.12l-24.39-10.07c-1.93-.79-3.14.22-2.7,2.26,2,9.17,8.07,37.47,10.05,46.64a8,8,0,0,0,4.29,5.12l24.39,10.07C1653.76,226.66,1655,225.64,1654.53,223.6Z"/><path class="cls-30" d="M1643.31,186.35l-1.88-8.73a1.5,1.5,0,0,0-.8-1l-3.9-1.59c-.36-.15-.59,0-.51.42l1.88,8.73a1.48,1.48,0,0,0,.8,1l3.9,1.59C1643.16,186.92,1643.39,186.73,1643.31,186.35Z"/><path class="cls-15" d="M1641,179.6a3.75,3.75,0,0,0-2.06-2.37c-.93-.39-1.53.06-1.32,1a3.76,3.76,0,0,0,2.05,2.37C1640.59,181,1641.19,180.52,1641,179.6Z"/><path class="cls-15" d="M1641.88,184a3.78,3.78,0,0,0-2.05-2.37c-.94-.38-1.53.07-1.33,1a3.77,3.77,0,0,0,2.06,2.37C1641.49,185.37,1642.08,184.92,1641.88,184Z"/><path class="cls-27" d="M1615.05,191.55c-1.83-2.86-1.63-3.22-.48-4.57a8.69,8.69,0,0,1,7.27-3.26c2.42.2,4.88.28,6.1,1s0,3.29-3.19,3.83c-5,.86-5.09,2.21-5.09,2.21a64.08,64.08,0,0,1,6.5-.79c1.85,0,5.17,1.05,7.26,1.49s2.36,3.18-1.26,3.93l3.82.82c2.68.57,3.52,2,1.32,3.61a4,4,0,0,1-2.5.79s2.88.15,2.89,1.11c0,2.75-1.79,3.37-7.69,4.76-5.62,1.31-6.91,4.23-5.92,6.35,0,0-2.17-1.42-4.08-2.89-1.4-1.09-2.58-2.28-1.8-4.52,0,0-3.17-.1-3.26-2.07a10,10,0,0,1,1-4.15,3.47,3.47,0,0,1-1.58-3.34,5.65,5.65,0,0,1,1.33-3.38Z"/><path class="cls-28" d="M1632.16,195.39a17.09,17.09,0,0,0-3.48-.56,11.09,11.09,0,0,0-3.44.89,41.26,41.26,0,0,0-6.28,2.95,41.25,41.25,0,0,0,6.63-2,17.43,17.43,0,0,1,3.15-1.06C1629.8,195.5,1631,195.55,1632.16,195.39Z"/><path class="cls-28" d="M1634.8,200.61a7.68,7.68,0,0,0-3.78-.31,20.28,20.28,0,0,0-3.66.95,34.91,34.91,0,0,0-6.78,3.18,72.48,72.48,0,0,0,7.11-2.22C1630,201.41,1632.28,200.53,1634.8,200.61Z"/></g><g id="Hand"><path class="cls-28" d="M1768,141.11c10.86,2.58,14.33,6.24,18,18.45,3.6,11.8,12,38.38,7.78,55.55-2.56,10.48-26.28-16.65-26.28-16.65l-8.9-38.26S1761,141.33,1768,141.11Z"/><path class="cls-11" d="M1765.49,139.7c6,1.17,14.27,2.06,18.76,12.49s10,34.57,10.68,39.84c-12,8.63-27.85,7.19-27.85,7.19l-9.47-39S1756.84,146.78,1765.49,139.7Z"/><path class="cls-27" d="M1763.9,155.46c-2.13-3.49-4.33-7.06-5.22-12.11s-4.49-9.88-5.7-11.85-3.88-4.93-5.89-7.72-2.61-3.56-5.73-4.31c-4.28-1-7.63-2-9.36-1.55s-1.76,1.52-.39,3.12,4.45,2.18,5.39,2.54,3,1.42,3,1.42l3.6,6.18s-6.89.79-8.27,1.43-2.76,4-2.31,5.95c0,0-2.61,1.51-1.8,4,0,0-1.66,1.88-.73,3.58a27.14,27.14,0,0,0,3.74,4.77c.79.78,4,1.18,4,1.18s2.5,4.42,4.72,6.31,3.75,1.88,6.06,5.67Z"/><path class="cls-28" d="M1740.5,131.58c-.91-.8-2.33-2.17-3.89-1.7s-.61,2.51-.61,2.51Z"/><path class="cls-28" d="M1733.06,138.71a15.44,15.44,0,0,1,3.45-1.91c1.16-.46,3.53-1.12,3.53-1.12a16.59,16.59,0,0,0-4.79.79,14.65,14.65,0,0,0-2.3,1,3.78,3.78,0,0,0,.07,1.13Z"/><path class="cls-28" d="M1732.69,141a10.69,10.69,0,0,0-1.62.68,4.58,4.58,0,0,0,.18,1.11c1-1.2,4.46-2.37,4.46-2.37A13.31,13.31,0,0,0,1732.69,141Z"/><path class="cls-28" d="M1738.83,153.06a34.31,34.31,0,0,0-2.95-5.58c-.91-1.19-2.83-1.15-3.3-.54s1.73.69,2.36,1A21.2,21.2,0,0,1,1738.83,153.06Z"/><path class="cls-28" d="M1745.48,131.14s-1.13-1.85-3.17-4.79-1.92-2.54-4.06-3.11c-2-.54-6.18-1.58-7.21-3a6.53,6.53,0,0,0,.57.76c1.33,1.56,4.45,2.18,5.39,2.54s3,1.42,3,1.42l3.7,6.36Z"/><path class="cls-27" d="M1763.9,155.46c6.67,9.27,24.82,31.71,28.78,40.41,2.73,6,2.59,19.58-.94,24.26s-12.54,2-19.5-5c-6-6.05-10.41-19.92-14.39-29.85s-8.79-21.16-8.79-21.16Z"/><path class="cls-28" d="M1760.06,148.08a25.25,25.25,0,0,1-1.15-4,21.09,21.09,0,0,0-1.06-4,38.19,38.19,0,0,0-3.94-7.35,58.21,58.21,0,0,0-5-6.72c-.87-1.08-1.67-2.2-2.49-3.33a7.3,7.3,0,0,0-3.16-2.76,35.22,35.22,0,0,0-4-1.12c-1.35-.32-2.71-.66-4.08-.9a13.36,13.36,0,0,0-2.1-.23,3.59,3.59,0,0,0-2.12.51,1.21,1.21,0,0,0-.52,1.06,2.39,2.39,0,0,0,.36,1.07,5.13,5.13,0,0,0,1.44,1.6,13.29,13.29,0,0,0,3.89,1.65,21.77,21.77,0,0,1,3.72,1.63l3.43,5.87c-2.4.31-4.8.6-7.18,1.15a4.27,4.27,0,0,0-.93.32,2.82,2.82,0,0,0-.76.65,6.48,6.48,0,0,0-1,1.66,6.72,6.72,0,0,0-.57,3.68,4.69,4.69,0,0,0-1.59,1.72,3.13,3.13,0,0,0-.34,1.2,3.19,3.19,0,0,0,.14,1.15,3.6,3.6,0,0,0-.84,3.37,15.34,15.34,0,0,0,2,3c.38.46.76.91,1.16,1.36a4.24,4.24,0,0,0,1.38,1.17,14.13,14.13,0,0,0,3.43.8,39.87,39.87,0,0,0,2.21,3.37,16.77,16.77,0,0,0,2.73,3c1,.87,2.29,1.47,3.33,2.35a12.93,12.93,0,0,1,2.58,3.12,13,13,0,0,0-2.54-3.17c-1-.89-2.27-1.51-3.3-2.39a16.14,16.14,0,0,1-2.66-3.05c-.78-1.1-1.51-2.25-2.19-3.42l0-.05h-.06a14.5,14.5,0,0,1-3.41-.81,3.82,3.82,0,0,1-1.29-1.12c-.4-.44-.78-.89-1.15-1.35a15.74,15.74,0,0,1-2-2.91,3.39,3.39,0,0,1,.84-3.14l.05-.06,0-.08a3,3,0,0,1-.13-1.12,2.74,2.74,0,0,1,.31-1.08,4.44,4.44,0,0,1,1.56-1.66l.1-.06,0-.11a6.38,6.38,0,0,1,.55-3.58c.5-1.1,1.18-2.27,2.46-2.42a73.56,73.56,0,0,1,7.43-1.14l.29,0-.14-.25-3.59-6.19,0-.06-.06,0a21.69,21.69,0,0,0-3.84-1.71,12.79,12.79,0,0,1-3.76-1.57,4.69,4.69,0,0,1-1.33-1.47c-.35-.55-.5-1.26,0-1.6,1.09-.7,2.59-.42,3.91-.23s2.71.56,4.06.88a34.57,34.57,0,0,1,4,1.08,7,7,0,0,1,3,2.64c.82,1.12,1.64,2.25,2.52,3.33a57.44,57.44,0,0,1,5,6.67,37.84,37.84,0,0,1,4,7.29,21.05,21.05,0,0,1,1.1,4,24.29,24.29,0,0,0,1.22,4,45.4,45.4,0,0,0,3.93,7.34A45.75,45.75,0,0,1,1760.06,148.08Z"/></g></g></g><g id="Speech_Bubble" data-name="Speech Bubble"><g id="Speech_Bubble-2" data-name="Speech Bubble"><path class="cls-19" d="M1797.59,84.35l14.5,8.39-5.76,12.94a1.34,1.34,0,0,1-.55.62l-7.4,4.25a1.32,1.32,0,0,1-1.94-.77l-6.25-21.17Z"/><path class="cls-11" d="M1787,20.39l44.88,25.9a2.63,2.63,0,0,1,1.18,2.05l0,55.58a2.57,2.57,0,0,1-1.19,2l-6.64,3.75a2.64,2.64,0,0,1-2.37,0L1777.9,83.78a2.62,2.62,0,0,1-1.18-2l0-55.58a2.57,2.57,0,0,1,1.19-2l6.65-3.75A2.62,2.62,0,0,1,1787,20.39Z"/><path class="cls-31" d="M1776.78,25.94c.09-.59.58-.8,1.17-.47l44.87,25.91a2.46,2.46,0,0,1,.83.89l9-5.14a2.34,2.34,0,0,0-.81-.84L1787,20.38a2.65,2.65,0,0,0-2.36,0L1778,24.12A2.62,2.62,0,0,0,1776.78,25.94Z"/><path class="cls-19" d="M1798.92,109.94l5-11.16,18.89,10.91c.65.38,1.18.07,1.18-.68l0-55.58a2.63,2.63,0,0,0-1.18-2l-44.88-25.9c-.65-.38-1.18-.08-1.18.68l0,55.58a2.62,2.62,0,0,0,1.18,2L1791,91.34l5.45,18.44A1.32,1.32,0,0,0,1798.92,109.94Z"/><path class="cls-2" d="M1798.92,109.94l5-11.16,18.89,10.91c.65.38,1.18.07,1.18-.68l0-55.58a2.63,2.63,0,0,0-1.18-2l-44.88-25.9c-.65-.38-1.18-.08-1.18.68l0,55.58a2.62,2.62,0,0,0,1.18,2L1791,91.34l5.45,18.44A1.32,1.32,0,0,0,1798.92,109.94Z"/></g><path class="cls-9" d="M1808.86,66.35l-1.57-.91V58.56c0-5.09-3.1-11-6.94-13.24s-6.92.15-6.92,5.24v6.87l-1.58-.91c-1.39-.8-2.5.06-2.5,1.89V77.34a6.09,6.09,0,0,0,.54,2.39,6,6,0,0,0,1.39,2c6,5.29,12.18,8.86,18.16,10.47,1.13.3,1.93-.57,1.93-2.13V71.12A6,6,0,0,0,1808.86,66.35Zm-12.59-14.14c0-3,1.83-4.39,4.08-3.09s4.1,4.81,4.1,7.81v6.86l-8.18-4.72Zm10.66,19L1798.49,81a1.52,1.52,0,0,1-1.14.51h-.19a1.49,1.49,0,0,1-1.17-.86l-2.42-5.09a1.51,1.51,0,0,1,2.73-1.29l1.43,3,6.91-8.06a1.53,1.53,0,0,1,2.13-.16A1.5,1.5,0,0,1,1806.93,71.18Z"/></g><path class="cls-25" d="M114.75,252.45H151c18.6,0,31.23,10.47,31.23,27.12,0,19-14.4,27.74-31.67,27.74H133.69V340H114.75Zm18.94,39.79h14.45c8.76,0,15-3.37,15-12.31s-6.54-12.41-14.56-12.41H133.69Z"/><path class="cls-25" d="M193.64,292.11c0-6.54,0-12.34-.12-17.83h17.85c.24,1.47.48,8,.48,11.54,2.9-7.52,9.91-13,21.09-13.07v17.37c-13.21-.34-21.09,3.21-21.09,21.23V340H193.64Z"/><path class="cls-25" d="M243.17,247.31h18.21v16.23H243.17Zm0,27h18.21V340H243.17Z"/><path class="cls-25" d="M290.31,274.28c6.26,22.26,11.47,41.74,12.77,49.64h.12c1.85-10.85,8.29-30.67,14-49.64h18.14L312.13,340H293l-22.27-65.73Z"/><path class="cls-25" d="M396.87,323c0,6.26.51,15.4.89,17H380.38a26.71,26.71,0,0,1-.92-6.42c-2.39,3.69-6.86,7.94-18.48,7.94-15.85,0-22.54-10.41-22.54-20.61,0-15,12-21.89,31.3-21.89h9.38v-4c0-4.68-1.68-9.27-10.12-9.27-7.68,0-9.37,3.26-10.2,8H341.49c1-11.68,8.21-21.13,28.2-21,17.6.11,27.18,7,27.18,22.64Zm-17.73-12.94h-7.42c-11,0-15,3.34-15,9.68,0,4.76,2.92,8.77,9.46,8.77,11.56,0,13-8,13-16.73Z"/><path class="cls-25" d="M469.88,318.77c-2.27,11-10,22.76-29.56,22.76-20.46,0-31-14.15-31-33.91,0-19.41,11.85-34.87,31.86-34.87,22.16,0,28.32,15.9,28.68,23.34H452.11C451,290.74,448,287,440.85,287c-8.32,0-13,7.3-13,20,0,14,5,20.38,13,20.38,6.25,0,9.6-3.7,11.23-8.64Z"/><path class="cls-25" d="M494.93,274.28c6.79,22.68,12.72,42.92,13.76,49h.12c1.43-6.63,5.28-21.36,13.12-49h18.12L518,341.91c-6.29,18.9-11.53,24.55-27.32,24.55a85.42,85.42,0,0,1-8.53-.5V351.34c1.24.14,3.24.27,4.71.27,6.69,0,10.06-2.32,12.52-9.59l-23.92-67.74Z"/><path class="cls-25" d="M581.85,252.45h36.22c18.6,0,31.23,10.47,31.23,27.12,0,19-14.4,27.74-31.68,27.74H600.79V340H581.85Zm18.94,39.79h14.45c8.76,0,15-3.37,15-12.31s-6.54-12.41-14.56-12.41H600.79Z"/><path class="cls-25" d="M720.25,307c0,19.89-11.9,34.51-32.72,34.51-20.39,0-32.29-14.54-32.29-34.16,0-20.29,12.27-34.62,33.15-34.62C707.74,272.75,720.25,286.41,720.25,307Zm-46.54.12c0,12.66,5.45,20.15,14.21,20.15,8.91,0,13.86-7.5,13.86-20,0-13.76-5-20.27-14.11-20.27C679.23,287,673.71,293.24,673.71,307.14Z"/><path class="cls-25" d="M732.75,340v-92.7H751V340Z"/><path class="cls-25" d="M767.29,247.31h18.2v16.23h-18.2Zm0,27h18.2V340h-18.2Z"/><path class="cls-25" d="M858.74,318.77c-2.26,11-10,22.76-29.55,22.76-20.46,0-31-14.15-31-33.91,0-19.41,11.84-34.87,31.85-34.87,22.17,0,28.32,15.9,28.68,23.34H841c-1.13-5.35-4.16-9.1-11.27-9.1-8.32,0-13,7.3-13,20,0,14,5,20.38,13,20.38,6.25,0,9.6-3.7,11.22-8.64Z"/><path class="cls-25" d="M883.8,274.28c6.79,22.68,12.71,42.92,13.75,49h.13c1.42-6.63,5.27-21.36,13.12-49h18.12l-22.09,67.63c-6.28,18.9-11.53,24.55-27.32,24.55-1.61,0-5.37-.13-8.52-.5V351.34c1.23.14,3.24.27,4.71.27,6.68,0,10-2.32,12.51-9.59l-23.92-67.74Z"/><path class="cls-2" d="M113.93,96.09c0,.67-5,1.22-11.07,1.22s-11.08-.55-11.08-1.22,5-1.23,11.08-1.23S113.93,95.41,113.93,96.09Z"/><path class="cls-2" d="M125.7,66c.67,0,1.22,5,1.22,11.24s-.55,11.24-1.22,11.24-1.23-5-1.23-11.24S125,66,125.7,66Z"/><path class="cls-2" d="M138.23,95.37c0-.68,5-1.23,11.07-1.23s11.08.55,11.08,1.23-5,1.22-11.08,1.22S138.23,96,138.23,95.37Z"/><path class="cls-2" d="M126.46,125.5c-.67,0-1.22-5-1.22-11.24s.55-11.24,1.22-11.24,1.23,5,1.23,11.24S127.14,125.5,126.46,125.5Z"/><path class="cls-2" d="M144.37,112.58c-.52.43-2.71-1.33-4.88-3.93s-3.52-5.07-3-5.51,2.71,1.33,4.88,3.93S144.89,112.14,144.37,112.58Z"/><path class="cls-2" d="M143.33,78.4c.48.48-1,2.71-3.22,5s-4.47,3.74-5,3.26,1-2.71,3.22-5S142.85,77.92,143.33,78.4Z"/><path class="cls-2" d="M117.94,87.11c-.43.52-2.53-.51-4.68-2.3s-3.54-3.66-3.11-4.18,2.53.51,4.68,2.3S118.37,86.59,117.94,87.11Z"/><path class="cls-2" d="M116.94,102.17c.5.45-.75,2.65-2.8,4.9s-4.12,3.7-4.62,3.25.75-2.65,2.81-4.9S116.44,101.71,116.94,102.17Z"/><path class="cls-2" d="M739,37.78c0,.38-2.81.69-6.29.69s-6.28-.31-6.28-.69,2.81-.7,6.28-.7S739,37.39,739,37.78Z"/><path class="cls-2" d="M745.7,20.67c.39,0,.7,2.85.7,6.38s-.31,6.38-.7,6.38-.69-2.86-.69-6.38S745.32,20.67,745.7,20.67Z"/><path class="cls-2" d="M752.82,37.37c0-.39,2.81-.7,6.29-.7s6.29.31,6.29.7-2.82.69-6.29.69S752.82,37.75,752.82,37.37Z"/><path class="cls-2" d="M746.14,54.47c-.39,0-.7-2.85-.7-6.38s.31-6.38.7-6.38.69,2.86.69,6.38S746.52,54.47,746.14,54.47Z"/><path class="cls-2" d="M756.3,47.14c-.29.24-1.53-.76-2.77-2.24s-2-2.87-1.7-3.12,1.54.75,2.77,2.23S756.6,46.89,756.3,47.14Z"/><path class="cls-2" d="M755.72,27.73c.27.27-.55,1.54-1.83,2.84s-2.54,2.12-2.82,1.85.55-1.54,1.83-2.83S755.44,27.46,755.72,27.73Z"/><path class="cls-2" d="M741.3,32.68c-.25.29-1.44-.29-2.66-1.31s-2-2.08-1.76-2.37,1.43.29,2.65,1.3S741.54,32.38,741.3,32.68Z"/><path class="cls-2" d="M740.73,41.23c.29.26-.43,1.5-1.59,2.78s-2.34,2.1-2.62,1.84.43-1.5,1.59-2.78S740.45,41,740.73,41.23Z"/><path class="cls-2" d="M453.32,180.87c0,.3-2.16.53-4.82.53s-4.83-.23-4.83-.53,2.16-.53,4.83-.53S453.32,180.58,453.32,180.87Z"/><path class="cls-2" d="M458.44,167.76c.29,0,.53,2.19.53,4.89s-.24,4.89-.53,4.89-.54-2.19-.54-4.89S458.14,167.76,458.44,167.76Z"/><path class="cls-2" d="M463.89,180.56c0-.3,2.16-.54,4.82-.54s4.82.24,4.82.54-2.16.53-4.82.53S463.89,180.85,463.89,180.56Z"/><path class="cls-2" d="M458.77,193.67c-.3,0-.53-2.19-.53-4.89s.23-4.89.53-4.89.53,2.19.53,4.89S459.06,193.67,458.77,193.67Z"/><path class="cls-2" d="M466.56,188.05c-.22.19-1.17-.58-2.12-1.71s-1.53-2.21-1.31-2.4,1.18.58,2.13,1.71S466.79,187.86,466.56,188.05Z"/><path class="cls-2" d="M466.11,173.17c.21.21-.42,1.18-1.4,2.17s-1.95,1.63-2.16,1.42.42-1.17,1.4-2.17S465.9,173,466.11,173.17Z"/><path class="cls-2" d="M455.06,177c-.19.23-1.1-.22-2-1s-1.55-1.59-1.36-1.82,1.1.22,2,1S455.25,176.74,455.06,177Z"/><path class="cls-2" d="M454.63,183.52c.21.2-.33,1.15-1.22,2.13s-1.8,1.61-2,1.41.32-1.15,1.22-2.13S454.41,183.32,454.63,183.52Z"/><path class="cls-2" d="M709.44,201.27c0,.38-2.81.69-6.28.69s-6.29-.31-6.29-.69,2.81-.7,6.29-.7S709.44,200.88,709.44,201.27Z"/><path class="cls-2" d="M716.12,184.16c.39,0,.7,2.85.7,6.38s-.31,6.38-.7,6.38-.69-2.86-.69-6.38S715.74,184.16,716.12,184.16Z"/><path class="cls-2" d="M723.24,200.86c0-.39,2.81-.7,6.29-.7s6.29.31,6.29.7-2.82.69-6.29.69S723.24,201.24,723.24,200.86Z"/><path class="cls-2" d="M716.56,218c-.39,0-.7-2.86-.7-6.39s.31-6.38.7-6.38.69,2.86.69,6.38S716.94,218,716.56,218Z"/><path class="cls-2" d="M726.72,210.63c-.29.24-1.53-.76-2.77-2.23s-2-2.88-1.7-3.13,1.54.75,2.77,2.23S727,210.38,726.72,210.63Z"/><path class="cls-2" d="M726.14,191.22c.27.28-.55,1.54-1.83,2.84s-2.54,2.12-2.82,1.85.55-1.54,1.83-2.83S725.86,191,726.14,191.22Z"/><path class="cls-2" d="M711.72,196.17c-.25.29-1.44-.29-2.66-1.31s-2-2.08-1.76-2.37,1.43.29,2.65,1.3S712,195.87,711.72,196.17Z"/><path class="cls-2" d="M711.15,204.72c.29.26-.43,1.5-1.59,2.78s-2.34,2.1-2.62,1.84.43-1.5,1.59-2.78S710.87,204.46,711.15,204.72Z"/><path class="cls-2" d="M377.91,38.88l.81,2a13.89,13.89,0,0,0,7.61,7.54l2.14.87-2.05.83a13.92,13.92,0,0,0-7.67,7.69l-.58,1.43-.86-1.8a13.89,13.89,0,0,0-7.77-7l-1.86-.68,2.43-1.18a13.91,13.91,0,0,0,6.78-7.17Z"/><path class="cls-2" d="M58.39,186.1l.55,1.31a9.26,9.26,0,0,0,5.05,5l1.42.57-1.36.56a9.25,9.25,0,0,0-5.1,5.1l-.38.95L58,198.41a9.29,9.29,0,0,0-5.17-4.68l-1.23-.45,1.61-.78a9.23,9.23,0,0,0,4.5-4.77Z"/><path class="cls-2" d="M863.49,59.2l.55,1.3a9.21,9.21,0,0,0,5.06,5l1.41.58-1.36.55a9.27,9.27,0,0,0-5.1,5.11l-.38,1-.57-1.19a9.27,9.27,0,0,0-5.17-4.69l-1.23-.45,1.61-.78a9.23,9.23,0,0,0,4.51-4.76Z"/><path class="cls-2" d="M529.77,27l.39.92a6.49,6.49,0,0,0,3.57,3.54l1,.41-1,.39a6.49,6.49,0,0,0-3.6,3.6l-.27.67-.41-.84a6.49,6.49,0,0,0-3.64-3.3L525,32l1.14-.55a6.55,6.55,0,0,0,3.17-3.37Z"/><path class="cls-2" d="M276.17,177.78l.49,1.18a8.44,8.44,0,0,0,4.59,4.56l1.29.52-1.23.5a8.45,8.45,0,0,0-4.64,4.64l-.34.87L275.8,189a8.37,8.37,0,0,0-4.69-4.25L270,184.3l1.47-.71a8.47,8.47,0,0,0,4.09-4.33Z"/><path class="cls-2" d="M115.39,473.06c0,.68-5,1.23-11.08,1.23s-11.08-.55-11.08-1.23,5-1.23,11.08-1.23S115.39,472.38,115.39,473.06Z"/><path class="cls-2" d="M127.15,442.93c.68,0,1.23,5,1.23,11.24s-.55,11.24-1.23,11.24-1.22-5-1.22-11.24S126.48,442.93,127.15,442.93Z"/><path class="cls-2" d="M139.68,472.34c0-.68,5-1.23,11.08-1.23s11.08.55,11.08,1.23-5,1.22-11.08,1.22S139.68,473,139.68,472.34Z"/><path class="cls-2" d="M127.92,502.47c-.68,0-1.23-5-1.23-11.24s.55-11.24,1.23-11.24,1.23,5,1.23,11.24S128.6,502.47,127.92,502.47Z"/><path class="cls-2" d="M145.83,489.55c-.52.43-2.71-1.33-4.88-3.93s-3.52-5.07-3-5.5,2.7,1.32,4.88,3.93S146.34,489.11,145.83,489.55Z"/><path class="cls-2" d="M144.79,455.37c.48.48-1,2.71-3.22,5s-4.48,3.74-5,3.26,1-2.71,3.22-5S144.31,454.9,144.79,455.37Z"/><path class="cls-2" d="M119.4,464.08c-.44.52-2.53-.51-4.68-2.3s-3.54-3.66-3.11-4.18,2.53.51,4.68,2.3S119.83,463.56,119.4,464.08Z"/><path class="cls-2" d="M118.4,479.14c.5.46-.76,2.65-2.81,4.9s-4.11,3.7-4.61,3.25.75-2.65,2.8-4.9S117.9,478.69,118.4,479.14Z"/><path class="cls-2" d="M740.48,414.75c0,.38-2.81.69-6.29.69s-6.29-.31-6.29-.69,2.82-.7,6.29-.7S740.48,414.36,740.48,414.75Z"/><path class="cls-2" d="M747.16,397.64c.38,0,.7,2.86.7,6.38s-.32,6.38-.7,6.38-.7-2.85-.7-6.38S746.78,397.64,747.16,397.64Z"/><path class="cls-2" d="M754.27,414.34c0-.39,2.82-.7,6.29-.7s6.29.31,6.29.7-2.81.69-6.29.69S754.27,414.72,754.27,414.34Z"/><path class="cls-2" d="M747.59,431.45c-.38,0-.69-2.86-.69-6.38s.31-6.39.69-6.39.7,2.86.7,6.39S748,431.45,747.59,431.45Z"/><path class="cls-2" d="M757.76,424.11c-.29.25-1.53-.75-2.77-2.23s-2-2.88-1.7-3.13,1.53.76,2.77,2.24S758.06,423.86,757.76,424.11Z"/><path class="cls-2" d="M757.17,404.71c.28.27-.54,1.54-1.82,2.83s-2.55,2.12-2.82,1.85.54-1.54,1.83-2.83S756.9,404.44,757.17,404.71Z"/><path class="cls-2" d="M742.76,409.65c-.25.3-1.44-.29-2.66-1.3s-2-2.08-1.76-2.38,1.43.29,2.65,1.31S743,409.35,742.76,409.65Z"/><path class="cls-2" d="M742.19,418.2c.28.26-.43,1.51-1.59,2.78s-2.34,2.11-2.62,1.85.42-1.51,1.59-2.78S741.91,417.94,742.19,418.2Z"/><path class="cls-2" d="M314.36,544.35c0,.29-2.16.53-4.82.53s-4.82-.24-4.82-.53,2.16-.53,4.82-.53S314.36,544.06,314.36,544.35Z"/><path class="cls-2" d="M319.48,531.24c.3,0,.54,2.19.54,4.89s-.24,4.89-.54,4.89-.53-2.19-.53-4.89S319.19,531.24,319.48,531.24Z"/><path class="cls-2" d="M324.94,544c0-.3,2.15-.54,4.82-.54s4.82.24,4.82.54-2.16.53-4.82.53S324.94,544.33,324.94,544Z"/><path class="cls-2" d="M319.82,557.15c-.3,0-.54-2.19-.54-4.89s.24-4.89.54-4.89.53,2.19.53,4.89S320.11,557.15,319.82,557.15Z"/><path class="cls-2" d="M327.61,551.53c-.23.18-1.18-.58-2.12-1.71s-1.54-2.21-1.31-2.4,1.18.58,2.12,1.71S327.83,551.34,327.61,551.53Z"/><path class="cls-2" d="M327.16,536.65c.21.21-.42,1.18-1.4,2.17s-1.95,1.63-2.16,1.42.42-1.18,1.4-2.17S327,536.45,327.16,536.65Z"/><path class="cls-2" d="M316.11,540.44c-.19.23-1.1-.22-2-1s-1.54-1.59-1.35-1.82,1.1.22,2,1S316.3,540.22,316.11,540.44Z"/><path class="cls-2" d="M315.67,547c.22.2-.33,1.15-1.22,2.13s-1.79,1.61-2,1.41.33-1.15,1.22-2.13S315.46,546.8,315.67,547Z"/><path class="cls-2" d="M710.9,578.24c0,.38-2.81.69-6.29.69s-6.29-.31-6.29-.69,2.82-.7,6.29-.7S710.9,577.85,710.9,578.24Z"/><path class="cls-2" d="M717.58,561.13c.39,0,.7,2.86.7,6.38s-.31,6.38-.7,6.38-.69-2.85-.69-6.38S717.2,561.13,717.58,561.13Z"/><path class="cls-2" d="M724.69,577.83c0-.38,2.82-.7,6.29-.7s6.29.32,6.29.7-2.81.69-6.29.69S724.69,578.21,724.69,577.83Z"/><path class="cls-2" d="M718,594.94c-.39,0-.7-2.86-.7-6.38s.31-6.38.7-6.38.69,2.85.69,6.38S718.4,594.94,718,594.94Z"/><path class="cls-2" d="M728.18,587.6c-.29.25-1.53-.75-2.77-2.23s-2-2.88-1.7-3.13,1.53.76,2.77,2.24S728.48,587.35,728.18,587.6Z"/><path class="cls-2" d="M727.59,568.2c.28.27-.54,1.54-1.82,2.83s-2.55,2.12-2.82,1.85.55-1.54,1.83-2.83S727.32,567.93,727.59,568.2Z"/><path class="cls-2" d="M713.18,573.14c-.25.3-1.44-.29-2.66-1.3s-2-2.08-1.76-2.38,1.43.29,2.65,1.31S713.42,572.85,713.18,573.14Z"/><path class="cls-2" d="M712.61,581.69c.28.26-.43,1.51-1.59,2.78s-2.34,2.11-2.62,1.85.43-1.51,1.59-2.78S712.33,581.43,712.61,581.69Z"/><path class="cls-2" d="M379.37,415.85l.81,2a14,14,0,0,0,7.61,7.54l2.13.86-2,.83a13.92,13.92,0,0,0-7.67,7.69l-.58,1.43-.86-1.8a13.89,13.89,0,0,0-7.77-7l-1.86-.68,2.43-1.18a13.85,13.85,0,0,0,6.77-7.17Z"/><path class="cls-2" d="M59.85,563.07l.54,1.31a9.24,9.24,0,0,0,5.06,5l1.42.58-1.36.55a9.24,9.24,0,0,0-5.1,5.11l-.38,1-.58-1.2a9.23,9.23,0,0,0-5.16-4.68l-1.24-.45,1.62-.78a9.27,9.27,0,0,0,4.5-4.77Z"/><path class="cls-2" d="M865,436.17l.54,1.3a9.29,9.29,0,0,0,5.06,5l1.42.57-1.36.55a9.3,9.3,0,0,0-5.1,5.11l-.38.95-.58-1.19a9.17,9.17,0,0,0-5.16-4.68l-1.23-.45,1.61-.79a9.21,9.21,0,0,0,4.5-4.76Z"/><path class="cls-2" d="M531.23,404l.38.92a6.51,6.51,0,0,0,3.57,3.53l1,.41-1,.39a6.56,6.56,0,0,0-3.59,3.61l-.27.67-.41-.85a6.52,6.52,0,0,0-3.64-3.3l-.88-.32,1.14-.55a6.51,6.51,0,0,0,3.18-3.36Z"/><path class="cls-2" d="M1212.78,424.85l.49,1.18a8.44,8.44,0,0,0,4.59,4.56l1.29.52-1.23.5a8.4,8.4,0,0,0-4.63,4.64l-.35.87-.52-1.09a8.39,8.39,0,0,0-4.7-4.25l-1.12-.41,1.47-.71a8.43,8.43,0,0,0,4.09-4.33Z"/></g></g></svg>