<svg xmlns="http://www.w3.org/2000/svg" viewBox="0 0 387.78 327.74"><defs><style>.cls-1{fill:#ebebeb;}.cls-2{fill:#8c3e76;}.cls-3{fill:#b272a3;}.cls-24,.cls-4{fill:#424e87;}.cls-4{opacity:0.5;}.cls-19,.cls-5{fill:#3a1637;}.cls-22,.cls-27,.cls-5{opacity:0.2;}.cls-11,.cls-12,.cls-14,.cls-22,.cls-29,.cls-38,.cls-6{fill:#fff;}.cls-7{fill:#f5f5f5;}.cls-8{fill:#407bff;}.cls-9{fill:#212a41;}.cls-10{fill:#263238;}.cls-11,.cls-12,.cls-14,.cls-15,.cls-17,.cls-22{isolation:isolate;}.cls-11,.cls-15,.cls-34{opacity:0.3;}.cls-12,.cls-17{opacity:0.6;}.cls-13{fill:#364370;}.cls-16,.cls-18{fill:none;stroke:#fff;}.cls-16{stroke-miterlimit:10;}.cls-18{stroke-linecap:round;stroke-linejoin:round;stroke-width:2px;}.cls-20{fill:#273249;}.cls-21{fill:#c497bc;}.cls-23{fill:#5a1e52;}.cls-25{fill:#b55b52;}.cls-26{fill:#b65b52;}.cls-28{fill:#a02724;}.cls-29{opacity:0.4;}.cls-30{fill:#e9b376;}.cls-31{fill:#26324f;}.cls-32{fill:#ebb376;}.cls-33{fill:#313e44;}.cls-35{fill:#d58745;}.cls-36{fill:#843066;}.cls-37{opacity:0.1;}.cls-38{font-size:25px;font-family:BritannicBold, Britannic Bold;}</style></defs><g id="Layer_2" data-name="Layer 2"><g id="Character_2" data-name="Character 2"><rect class="cls-1" x="266.42" y="301.38" width="8.69" height="0.25"/><polygon class="cls-2" points="353.42 23.96 271.09 129.24 210.66 141.36 148 187.01 109.87 158.87 29.49 282.41 50.96 282.41 114.55 184.69 147.93 209.33 218.07 158.23 281.16 145.57 367.59 35.05 353.42 23.96"/><polygon class="cls-2" points="371.4 10.64 336.33 19.83 369.55 46.84 371.4 10.64"/><circle class="cls-3" cx="77.82" cy="50.43" r="40.77"/><path class="cls-4" d="M77.82,50.43l36.58-18a40.78,40.78,0,1,1-64.3-11.9Z"/><path class="cls-5" d="M77.82,50.43,69.36,90.32A40.77,40.77,0,0,1,50.1,20.53Z"/><circle class="cls-6" cx="77.82" cy="50.43" r="22.03"/><ellipse id="_Path_" data-name="&lt;Path&gt;" class="cls-7" cx="193.89" cy="316.41" rx="193.89" ry="11.32"/><rect class="cls-8" x="142.11" width="173.6" height="312.25" rx="10.4"/><rect class="cls-9" x="142.11" width="173.6" height="312.25" rx="10.4"/><path class="cls-10" d="M309.85,10.46V301.23a4.25,4.25,0,0,1-4.31,4.25H151.82a3.8,3.8,0,0,1-3.85-3.9V10.11a3.44,3.44,0,0,1,3.3-3.57H189.7a2.69,2.69,0,0,1,2.47,1.73l1.6,3.92a2.69,2.69,0,0,0,2.47,1.71h65.42a2.68,2.68,0,0,0,2.48-1.68l1.59-3.94a2.72,2.72,0,0,1,2.47-1.74h37.88A3.88,3.88,0,0,1,309.85,10.46Z"/><rect class="cls-11" x="147.97" y="24.71" width="161.89" height="261.5"/><rect class="cls-12" x="165.81" y="15.59" width="2" height="2.67" transform="translate(333.62 33.85) rotate(180)"/><rect class="cls-12" x="162.55" y="14.7" width="2" height="3.56" transform="translate(327.1 32.96) rotate(180)"/><rect class="cls-12" x="159.29" y="13.82" width="2" height="4.44" transform="translate(320.58 32.08) rotate(180)"/><rect class="cls-12" x="156.03" y="12.93" width="2" height="5.33" transform="translate(314.06 31.19) rotate(180)"/><rect class="cls-12" x="290.35" y="14.62" width="1.18" height="2.67"/><rect class="cls-12" x="292.35" y="13.65" width="9.44" height="4.61" transform="translate(594.14 31.91) rotate(180)"/><rect class="cls-13" x="151.96" y="29.83" width="153.9" height="26.37"/><rect class="cls-14" x="151.96" y="58.47" width="153.9" height="224.04"/><path class="cls-15" d="M191,203H165.44a1.19,1.19,0,0,1-1.19-1.19h0a1.18,1.18,0,0,1,1.19-1.18H191a1.19,1.19,0,0,1,1.19,1.18h0A1.19,1.19,0,0,1,191,203Z"/><path class="cls-15" d="M221,208.13H165.44a1.19,1.19,0,0,1-1.19-1.19h0a1.19,1.19,0,0,1,1.19-1.19H221a1.19,1.19,0,0,1,1.19,1.19h0A1.2,1.2,0,0,1,221,208.13Z"/><rect class="cls-16" x="225.7" y="291.45" width="6.42" height="6.42" rx="1.94"/><path class="cls-17" d="M228.88,6.92a2.22,2.22,0,1,1-2.22-2.22A2.22,2.22,0,0,1,228.88,6.92Z"/><path class="cls-17" d="M233.38,6.92A1.43,1.43,0,1,1,232,5.5,1.43,1.43,0,0,1,233.38,6.92Z"/><polyline class="cls-18" points="164.72 48.38 159.37 43.02 164.72 37.66"/><path class="cls-6" d="M298.43,38.52a1.18,1.18,0,1,1-1.18-1.18A1.18,1.18,0,0,1,298.43,38.52Z"/><path class="cls-6" d="M298.43,43a1.18,1.18,0,1,1-1.18-1.18A1.18,1.18,0,0,1,298.43,43Z"/><path class="cls-6" d="M298.43,47.52a1.18,1.18,0,1,1-1.18-1.18A1.18,1.18,0,0,1,298.43,47.52Z"/><path class="cls-19" d="M228.32,129.18l-.66-54A54,54,0,1,0,269,164.78Z"/><path class="cls-8" d="M228.32,129.18l.42-54h-1.08a54.19,54.19,0,0,0-52.55,44.68Z"/><path class="cls-8" d="M228.32,129.18l40.2,36.1a54.07,54.07,0,0,0,13.83-36.1v-.09Z"/><path class="cls-8" d="M228.32,129.18l19.4-50.43a54.73,54.73,0,0,0-7.29-2.23,53.25,53.25,0,0,0-7.54-1.17Z"/><path class="cls-3" d="M228.32,129.18l.42-54h-1.08a54.19,54.19,0,0,0-52.55,44.68Z"/><path class="cls-20" d="M228.32,129.18l40.2,36.1a54.07,54.07,0,0,0,13.83-36.1v-.09Z"/><path class="cls-21" d="M228.32,129.18l19.4-50.43a54.73,54.73,0,0,0-7.29-2.23,53.25,53.25,0,0,0-7.54-1.17Z"/><path class="cls-22" d="M301.12,6.54,148,159.69V10.11a3.44,3.44,0,0,1,3.3-3.57H189.7a2.72,2.72,0,0,1,2.48,1.73l1.59,3.92a2.7,2.7,0,0,0,2.47,1.71h65.43a2.67,2.67,0,0,0,2.47-1.68l1.59-3.94a2.73,2.73,0,0,1,2.48-1.74Z"/><polygon class="cls-22" points="309.86 34.93 309.86 47.5 147.97 209.38 147.97 196.82 309.86 34.93"/><rect class="cls-8" x="269.16" y="198.02" width="18.31" height="12.7"/><path class="cls-15" d="M191,223H165.44a1.18,1.18,0,0,1-1.19-1.18h0a1.19,1.19,0,0,1,1.19-1.19H191a1.19,1.19,0,0,1,1.19,1.19h0A1.19,1.19,0,0,1,191,223Z"/><path class="cls-15" d="M221,228.14H165.44a1.19,1.19,0,0,1-1.19-1.19h0a1.18,1.18,0,0,1,1.19-1.18H221a1.19,1.19,0,0,1,1.19,1.18h0A1.19,1.19,0,0,1,221,228.14Z"/><rect class="cls-13" x="269.16" y="218.03" width="18.31" height="12.7"/><path class="cls-15" d="M191,243H165.44a1.18,1.18,0,0,1-1.19-1.18h0a1.19,1.19,0,0,1,1.19-1.19H191a1.19,1.19,0,0,1,1.19,1.19h0A1.19,1.19,0,0,1,191,243Z"/><path class="cls-15" d="M221,248.15H165.44a1.19,1.19,0,0,1-1.19-1.19h0a1.18,1.18,0,0,1,1.19-1.18H221a1.19,1.19,0,0,1,1.19,1.18h0A1.19,1.19,0,0,1,221,248.15Z"/><rect class="cls-8" x="269.16" y="238.05" width="18.31" height="12.7"/><path class="cls-15" d="M191,263H165.44a1.19,1.19,0,0,1-1.19-1.19h0a1.19,1.19,0,0,1,1.19-1.19H191a1.2,1.2,0,0,1,1.19,1.19h0A1.19,1.19,0,0,1,191,263Z"/><path class="cls-15" d="M221,268.16H165.44a1.18,1.18,0,0,1-1.19-1.18h0a1.19,1.19,0,0,1,1.19-1.19H221a1.19,1.19,0,0,1,1.19,1.19h0A1.19,1.19,0,0,1,221,268.16Z"/><rect class="cls-8" x="269.16" y="258.06" width="18.31" height="12.7"/><rect class="cls-23" x="269.16" y="198.02" width="18.31" height="12.7"/><rect class="cls-2" x="269.16" y="238.05" width="18.31" height="12.7"/><rect class="cls-24" x="269.16" y="258.06" width="18.31" height="12.7"/><polygon class="cls-25" points="111.43 302.46 117.51 300.25 114.16 285.6 108.08 287.81 111.43 302.46"/><polygon class="cls-25" points="63.47 310.53 69.92 310.53 71.76 295.59 65.3 295.59 63.47 310.53"/><path class="cls-10" d="M70.77,309.79H62.9a.57.57,0,0,0-.55.44L61,316a.94.94,0,0,0,.93,1.15c2.53,0,4.38-.19,7.57-.19,2,0,7.88.2,10.59.2s3.09-2.67,2-2.92c-5-1.09-8.7-2.59-10.27-4A1.6,1.6,0,0,0,70.77,309.79Z"/><path class="cls-10" d="M117.73,299l-6.9,1.48a.57.57,0,0,0-.45.55l-.1,5.88a.92.92,0,0,0,1.14.92c2.48-.57,6-1.49,9.18-2.16,3.66-.79,5.93-1.53,10.23-2.45,2.59-.56,2.78-3.33,1.64-3.33-5.17,0-8.3,1-13.11-.72A3,3,0,0,0,117.73,299Z"/><path class="cls-26" d="M90,114.17c4.7,1.81,9.6,3.77,14.41,5.2,3.38,1,4.88,1.13,8.29.31,5-1.17,9.91-3,14.81-4.65l2.31,4.27A65.69,65.69,0,0,1,115,127.49a23.16,23.16,0,0,1-6.3,1.54,24.64,24.64,0,0,1-6.55-.6,82.89,82.89,0,0,1-16.06-5.25l3.82-9Z"/><path class="cls-10" d="M73,118.74c2.47,5.67,22.14,10.12,22.14,10.12l4.31-14.11a77.93,77.93,0,0,0-15.81-5.6C75.63,107.49,70.27,112.51,73,118.74Z"/><path class="cls-27" d="M84.3,119.78c3.32-.93,9.32,1,12.42,3.85l-1.6,5.23a97.68,97.68,0,0,1-13.89-4.35C81,122.74,80.49,120.86,84.3,119.78Z"/><polygon class="cls-27" points="114.16 285.6 115.89 293.15 109.81 295.36 108.08 287.81 114.16 285.6"/><polygon class="cls-27" points="65.3 295.59 71.76 295.59 70.81 303.3 64.35 303.3 65.3 295.59"/><path class="cls-23" d="M91,163.35,57.18,170.2c-.62-2.56-1.33-10.27-3.07-20.27-.26-1.51-.55-3.07-.87-4.67-.58-2.93-1.24-6-2-9.17-.37-1.51-.77-3-1.2-4.58a136,136,0,0,0-5.41-16s3.89-1.64,8.37-3c.88-.26,1.79-.51,2.69-.74a127,127,0,0,1,14.39-2.91c.6-.07,1.19-.13,1.78-.17a66.89,66.89,0,0,1,8.29-.06S91.28,126.29,91,163.35Z"/><path class="cls-25" d="M67.62,114a14.6,14.6,0,0,1-12-2.17c1.44-2,1.34-5.43.66-8.81a44.21,44.21,0,0,0-2.09-7L54,95.3l10.28,5.76a3.85,3.85,0,0,0,0,.48,9,9,0,0,0,.92,5h0c.82,1.36,2.3,2.28,4.88,2.37C71.25,110.26,71.58,113.08,67.62,114Z"/><path class="cls-27" d="M65.2,106.82A12.77,12.77,0,0,1,56.33,103a44.21,44.21,0,0,0-2.09-7l10,5.59a9,9,0,0,0,.92,5h0C65.18,106.62,65.19,106.72,65.2,106.82Z"/><path class="cls-8" d="M117.67,290.92l-10.29,3.74s-8-35.42-12.32-55.05a211.65,211.65,0,0,0-7-22.94c-3.9-11-8.57-22.88-12.33-32.16-4-9.76-6.93-16.66-6.93-16.66L91,163.35s17,48.87,20.8,68.19C115.81,251.63,117.67,290.92,117.67,290.92Z"/><path class="cls-13" d="M117.67,290.92l-10.29,3.74s-8-35.42-12.32-55.05a211.65,211.65,0,0,0-7-22.94c-3.9-11-8.57-22.88-12.33-32.16-4-9.76-6.93-16.66-6.93-16.66L91,163.35s17,48.87,20.8,68.19C115.81,251.63,117.67,290.92,117.67,290.92Z"/><path class="cls-27" d="M88,216.67c-3.9-11-8.57-22.88-12.33-32.16l1.72-5.32C83.8,185.08,87.77,205.39,88,216.67Z"/><path class="cls-8" d="M79,165.78s4,55.73,4.21,74.67c.27,20.74-9.43,61.35-9.43,61.35H62s4.72-36.65,3.15-57.19c-1.76-23-8-74.41-8-74.41Z"/><path class="cls-13" d="M79,165.78s4,55.73,4.21,74.67c.27,20.74-9.43,61.35-9.43,61.35H62s4.72-36.65,3.15-57.19c-1.76-23-8-74.41-8-74.41Z"/><polygon class="cls-10" points="75.22 302.06 61.3 302.06 61.34 297.9 75.88 297.06 75.22 302.06"/><polygon class="cls-10" points="119.05 290.79 106.72 295.07 105.38 291.09 118.86 286.18 119.05 290.79"/><path class="cls-25" d="M126.68,115.24l4.77-4.53,2.26,7s-4.51,3.78-6.36,1.38Z"/><polygon class="cls-25" points="137.82 109.34 137.73 115.97 133.71 117.66 131.46 110.71 137.82 109.34"/><path class="cls-26" d="M51,123.77c-1.8,8-4.17,16.69-3.95,24.85,0,.27.08.82.13,1.08s.16.54.08.44-.2-.16-.17-.09c1.4,1,3.76,1,5.62,1.15a91.62,91.62,0,0,0,12.85-.83L66.89,155c-7.73,3-24.88,8.57-28.33-3a31.08,31.08,0,0,1-.71-10,106.68,106.68,0,0,1,3.72-20.83L51,123.77Z"/><path d="M67.51,76.61s4.59,8.51,1.06,13.69S59,78.71,59,78.71Z"/><path class="cls-25" d="M71.58,95.12a8.37,8.37,0,0,1-.12,1,9.36,9.36,0,0,1-1.25,3.37,9.51,9.51,0,0,1-2.43,2.73,8.94,8.94,0,0,1-6.15,1.85,8.82,8.82,0,0,1-4.37-1.65c-4-2.85-4.66-6.86-6.26-13.55A9.42,9.42,0,0,1,62.14,77.36C69.25,78.88,72,88.77,71.58,95.12Z"/><path class="cls-10" d="M61.61,89c.06.56.47,1,.83.88s.57-.56.48-1.11-.47-1-.83-.88S61.52,88.4,61.61,89Z"/><path class="cls-10" d="M67.85,87.86c.05.55.47.94.83.88s.57-.57.47-1.12-.47-.94-.83-.88S67.75,87.34,67.85,87.86Z"/><path class="cls-28" d="M65.91,88.48a20.29,20.29,0,0,0,3.47,4.25,3.27,3.27,0,0,1-2.56,1Z"/><path class="cls-10" d="M69.69,84.79a.38.38,0,0,1-.34,0A2.64,2.64,0,0,0,67,85a.33.33,0,0,1-.38-.54h0a3.26,3.26,0,0,1,3-.21.33.33,0,0,1,.19.42h0Z"/><path class="cls-10" d="M59.94,86.69a.31.31,0,0,1-.19,0,.32.32,0,0,1,0-.46h0A3.27,3.27,0,0,1,62.43,85a.33.33,0,0,1,.29.36h0a.33.33,0,0,1-.36.29h0a2.65,2.65,0,0,0-2.15,1A.34.34,0,0,1,59.94,86.69Z"/><path d="M54.47,79.56l1,2.88a2.24,2.24,0,0,0-.47,3c1.51,2.27,1,6.45-.58,8.42,0,0-.31-1.07-1.16-.6s.67,6,3.05,8.28c0,0-3.23-1.81-6.08-7.35-2.63-5.13-3.83-9.63-3.19-12Z"/><path class="cls-25" d="M49,95a6.58,6.58,0,0,0,4.27,2.61c2.27.34,3.13-1.76,2.26-3.76-.78-1.77-2.9-4.14-5.07-3.54A2.92,2.92,0,0,0,49,95Z"/><path d="M46.9,83.67S45.33,80,50.79,75.58s12.92-2.34,16.44-5.84,6,7.22-2.48,10.32A70.77,70.77,0,0,1,46.9,83.67Z"/><path class="cls-10" d="M66.69,95.7A21.54,21.54,0,0,0,65,98.16L64.53,98c-2.21-.87-3-2-3.09-3a3.14,3.14,0,0,1,.16-1.44,3.22,3.22,0,0,1,.37-.74,11.08,11.08,0,0,0,4,2.6C66.4,95.6,66.69,95.7,66.69,95.7Z"/><path class="cls-6" d="M66,95.39l-.52.71c-2.07-.82-3.43-1.68-3.83-2.57a3.22,3.22,0,0,1,.37-.74A11.08,11.08,0,0,0,66,95.39Z"/><path class="cls-28" d="M64.53,98c-2.21-.87-3-2-3.09-3a7.74,7.74,0,0,1,2.26,1.45A3,3,0,0,1,64.53,98Z"/><path class="cls-6" d="M67.72,114s-1.12,2.23-2.5,4.5c-2.9-.84-9.81-3.26-10.29-6.75a3.55,3.55,0,0,1,1.33-2A38.11,38.11,0,0,0,67.72,114Z"/><path class="cls-6" d="M67.72,114a18.93,18.93,0,0,1,4.2,3.07c1.6-1.71-.82-7.89-1.68-8.44a4.54,4.54,0,0,0-2.73-.32S70.56,112.57,67.72,114Z"/><rect class="cls-13" x="66.23" y="124.6" width="7.32" height="23.46" transform="translate(-7.15 3.91) rotate(-3.05)"/><rect class="cls-13" x="75.07" y="117" width="7.32" height="23.46" transform="translate(-6.73 4.37) rotate(-3.05)"/><rect class="cls-13" x="84.22" y="105.14" width="7.32" height="43.47" transform="translate(-6.62 4.85) rotate(-3.05)"/><rect class="cls-13" x="93.66" y="108.89" width="7.32" height="43.47" transform="translate(-6.81 5.36) rotate(-3.05)"/><rect class="cls-13" x="102.69" y="114.79" width="7.32" height="23.46" transform="translate(-6.57 5.83) rotate(-3.05)"/><rect class="cls-13" x="119.5" y="77.22" width="7.32" height="35.46" transform="translate(-4.87 6.68) rotate(-3.05)"/><rect class="cls-13" x="111.13" y="99.68" width="7.32" height="23.46" transform="translate(-5.76 6.26) rotate(-3.05)"/><rect class="cls-13" x="128.27" y="64.28" width="7.32" height="43.47" transform="translate(-4.38 7.13) rotate(-3.05)"/><rect class="cls-29" x="65.66" y="124.61" width="7.32" height="1.99" transform="translate(-6.58 3.86) rotate(-3.05)"/><rect class="cls-29" x="74.56" y="117.01" width="7.32" height="4.3" transform="translate(-6.22 4.32) rotate(-3.05)"/><rect class="cls-29" x="83.3" y="105.17" width="7.32" height="8.91" transform="translate(-5.7 4.78) rotate(-3.05)"/><rect class="cls-29" x="92.84" y="108.92" width="7.32" height="12.35" transform="translate(-5.98 5.29) rotate(-3.05)"/><rect class="cls-29" x="102.48" y="114.79" width="7.32" height="15.36" transform="translate(-6.36 5.81) rotate(-3.05)"/><rect class="cls-29" x="119.07" y="77.23" width="7.32" height="19.28" transform="translate(-4.44 6.64) rotate(-3.05)"/><rect class="cls-29" x="110.92" y="99.69" width="7.32" height="15.38" transform="translate(-5.54 6.24) rotate(-3.05)"/><rect class="cls-29" x="127.78" y="64.29" width="7.32" height="24.77" transform="translate(-3.89 7.09) rotate(-3.05)"/><path class="cls-25" d="M64,150.57l4.61-4.65,2.86,7.77s-4.79,3.08-6.69.7Z"/><polygon class="cls-25" points="73.9 145.24 75.97 151.77 71.44 153.69 68.58 145.92 73.9 145.24"/><path class="cls-27" d="M53.24,145.26c-.58-2.93-1.24-6-2-9.17-.37-1.51-.77-3-1.2-4.58,1.43-2.13,1.65-4.74,2.87-5.5C52.89,126,58.24,141.82,53.24,145.26Z"/><path class="cls-23" d="M42.86,116.48c-5.06,3.56-6.73,21.94-6.73,21.94l15.71,1.91a90.81,90.81,0,0,0,2.09-16.17C54.12,115.45,49,112.17,42.86,116.48Z"/><path class="cls-30" d="M300.89,137c-4.49,5.47-12.05,6.78-18.71,6.55a50,50,0,0,1-5-.51,7.43,7.43,0,0,1-3.41-1c-9.21-6.16-9.34-18-6.88-27.38a4.32,4.32,0,0,1,8.23-.24c1,3.29,1.78,7.09,3.2,10.17a12.68,12.68,0,0,0,1.9,3.23c.65.76,1.17.86,1.21.72l-3.41-1,1.86-.18a28.08,28.08,0,0,0,8.26-1.89s.08,0,0,0-.33.34-.46.49a8.69,8.69,0,0,1,11.67-1A8.59,8.59,0,0,1,300.89,137Z"/><path class="cls-31" d="M299.17,141.71a13.16,13.16,0,0,1-5.67,2.86,9.43,9.43,0,0,1-5.49-.33,21.45,21.45,0,0,1-2.79-7.09c-1.21-5.39-1.09-11.24,0-13.11,0,0,13.18-6.83,20.91-4.88C314.36,121.22,305.59,136.39,299.17,141.71Z"/><path class="cls-32" d="M267.4,113.9l3.09,3.88c4.48,2.67,6.92-3.69,6.92-3.69l3.54-3.68a2.63,2.63,0,0,0-.06-3.41l-2.14-2.73a2.73,2.73,0,0,0-3.75-.74l-3.58,3a5.47,5.47,0,0,0-1.64,2.08Z"/><path class="cls-27" d="M293.5,144.57a9.43,9.43,0,0,1-5.49-.33,21.45,21.45,0,0,1-2.79-7.09,40,40,0,0,1,10.3-3.86C297.21,138.2,296,142,293.5,144.57Z"/><polygon class="cls-32" points="306.85 297.08 318.37 294.64 320.54 308.4 310.91 310.46 306.85 297.08"/><polygon class="cls-27" points="306.85 297.09 318.38 294.64 319.59 302.35 309.13 304.58 306.85 297.09"/><path class="cls-10" d="M313.73,244.65c3.83-17.85,11.75-36.47,4.27-53.47l-32.88-.1s2.51,39.07,3.66,55.54c1.19,17.12,18.54,55.91,18.54,55.91l13.17-2.89S316.77,263.76,313.73,244.65Z"/><path class="cls-10" d="M323.17,312.23l-3,.67-.88-.87-1.11,1.32-5.58,2.43a16.24,16.24,0,0,1-6.48,1.34h-4.59a7,7,0,0,1,.74-3.54,10.79,10.79,0,0,0,6.71-4.45,1.53,1.53,0,0,1,1.3-.58c2.11-.05,7.67-.36,10.44-2.18a.48.48,0,0,1,.72.31A36.75,36.75,0,0,0,323.17,312.23Z"/><path class="cls-33" d="M313.73,244.65c3.83-17.85,11.75-36.47,4.27-53.47l-32.88-.1s2.51,39.07,3.66,55.54c1.19,17.12,18.54,55.91,18.54,55.91l13.17-2.89S316.77,263.76,313.73,244.65Z"/><path class="cls-27" d="M314.1,243c2.36-10.32,5.86-20.89,6.78-31.22C308.42,198.14,310,225.87,314.1,243Z"/><polygon class="cls-32" points="333.54 298.79 345.33 298.9 345.85 312.81 336 312.73 333.54 298.79"/><polygon class="cls-27" points="333.55 298.8 345.34 298.91 345.63 306.69 334.92 306.6 333.55 298.8"/><path class="cls-10" d="M346.37,244.65c.95-17.85,2.24-44.54-3.74-52.75l-36.72-.82s10.21,39.07,14,55.54c4,17.12,13.68,57.59,13.68,57.59l12.74,0S351.16,265,346.37,244.65Z"/><path class="cls-10" d="M347.52,317.11H345l-.7-1-1.34,1.05H327.45a7,7,0,0,1,.66-3.54s4.62-.42,6.4-2.73a.58.58,0,0,1,.57-.22c1.54.32,7.66,1.48,11,.26a.56.56,0,0,1,.76.51A37.19,37.19,0,0,0,347.52,317.11Z"/><path class="cls-33" d="M346.37,244.65c.95-17.85,2.24-44.54-3.74-52.75l-36.72-.82s10.21,39.07,14,55.54c4,17.12,13.68,57.59,13.68,57.59l12.74,0S351.16,265,346.37,244.65Z"/><path class="cls-10" d="M310.38,91.65c0,2.48,3.3,4.13,7,3.6s4.5-7.26,1.88-8.49S310.38,91.65,310.38,91.65Z"/><path class="cls-13" d="M347.22,131.88c-.44,2.2-.81,4.43-1.12,6.66a191,191,0,0,0-1.67,21c-.49,15.66.31,28.71-1.8,32.39,0,0-36.34.63-57.51-.83-5.8-27.84,5.6-44.89,11.34-66.63,1-3.72,5-5.85,8.79-6.25a148.75,148.75,0,0,1,32.77.52A11.05,11.05,0,0,1,347.22,131.88Z"/><path class="cls-32" d="M310.41,120.09a6.84,6.84,0,0,1,3.31-3.13,6.42,6.42,0,0,0,.11-4.31L330,107.51c-1.31,5.34-2.33,9.55-.34,12.14-3.17,1.94-9,5.42-15.33,5.24S309.38,122.32,310.41,120.09Z"/><path class="cls-27" d="M314,113.15l12.11-.71c-3.79,4-9.53,5.57-12.15,3.92A6.42,6.42,0,0,0,314,113.15Z"/><path class="cls-8" d="M313.92,124.87l2.62-2.18,3.52,1.77S317.81,126.56,313.92,124.87Z"/><path class="cls-34" d="M313.92,124.87l2.62-2.18,3.52,1.77S317.81,126.56,313.92,124.87Z"/><path class="cls-32" d="M333.12,99.34c-1.93,7-3.4,11.63-8.41,13.86-10,4.44-14.42-.27-14.78-7.6-.31-6.6,2.89-16.85,10.89-18.35S335,92.39,333.12,99.34Z"/><path d="M327.6,95.72c-2.15,2-3,11.08.24,10.93a48.08,48.08,0,0,0,6.59-.85s4.13-1.56,1.86-7.75S327.6,95.72,327.6,95.72Z"/><path class="cls-32" d="M334.55,107.48a7.27,7.27,0,0,1-5.1,2.32c-2.58.06-3.26-2.4-2-4.51,1.1-1.9,3.77-4.22,6.12-3.28A3.33,3.33,0,0,1,334.55,107.48Z"/><path class="cls-10" d="M319.57,98.42c-.11.62-.53,1.06-.94,1s-.63-.65-.52-1.27.54-1,.94-1S319.69,97.8,319.57,98.42Z"/><path class="cls-10" d="M313.15,97.39c-.12.62-.54,1.06-.94,1s-.64-.65-.52-1.27.53-1,.94-1S313.26,96.77,313.15,97.39Z"/><path class="cls-35" d="M315.19,98.28l-.93,5.21a5.84,5.84,0,0,1-1.84-.26.7.7,0,0,1-.17-1.22A12.24,12.24,0,0,0,315.19,98.28Z"/><path class="cls-10" d="M323.2,97.27a.39.39,0,0,0,.18,0,.37.37,0,0,0,.17-.49,3.73,3.73,0,0,0-2.68-2.08.36.36,0,0,0-.41.32.37.37,0,0,0,.32.41h0a2.94,2.94,0,0,1,2.1,1.67A.39.39,0,0,0,323.2,97.27Z"/><path class="cls-10" d="M311,95.24a.36.36,0,0,0,.33-.11,2.9,2.9,0,0,1,2.48-1,.37.37,0,0,0,.12-.73,3.64,3.64,0,0,0-3.14,1.18.39.39,0,0,0,0,.53A.4.4,0,0,0,311,95.24Z"/><path class="cls-6" d="M328.52,116.06s-5.2,6.31-12,6.63a8.93,8.93,0,0,1,4.61,6.3s8.46-2.58,10.06-11.58A3.29,3.29,0,0,0,328.52,116.06Z"/><path class="cls-8" d="M313.92,124.87l-3-2.66-3.78,1.12S310,126.56,313.92,124.87Z"/><path class="cls-34" d="M313.92,124.87l-3-2.66-3.78,1.12S310,126.56,313.92,124.87Z"/><path class="cls-6" d="M313.72,117s-2.64,3.05-2.77,5.25c-3.17.9-4.69,5.55-4.69,5.55s-.58-6.65,4.39-10.23A5.37,5.37,0,0,1,313.72,117Z"/><path class="cls-10" d="M311.26,105.41s2.69-.21,10,.87c-1.18,2.07-3,3.62-6.78,3A3.43,3.43,0,0,1,311.26,105.41Z"/><path class="cls-28" d="M316.46,107.84a7,7,0,0,0-4.23.46,4,4,0,0,0,2.24,1,6.87,6.87,0,0,0,4.22-.46A4,4,0,0,0,316.46,107.84Z"/><path class="cls-6" d="M311.6,105.39a1.53,1.53,0,0,0,1,1.26,39.66,39.66,0,0,0,6.55.42,2.06,2.06,0,0,0,1.8-.84A60.43,60.43,0,0,0,311.6,105.39Z"/><path class="cls-32" d="M326.83,167.89l-.92,4.87c-2.73,4.45-7.84,0-7.84,0l-3.33-1.17a2.62,2.62,0,0,1-1.53-3l.62-3.42a2.75,2.75,0,0,1,3-2.4l3,.53a5.48,5.48,0,0,1,2.42,1.08Z"/><path d="M318.69,89.48a2.19,2.19,0,0,1,3.33,0c1.73,1.78-1.82,5.71,4.8,8.54s9,1.06,10.15,3.78c0,0,1.55-6.39,0-11.43s-13.51-6-15-5.05c0,0-1.79-1.67-5-.34s-7.92,6.11-6.3,7.77,2.24-.21,3.23-1.79S316.54,86.61,318.69,89.48Z"/><path class="cls-27" d="M346.1,138.54a191,191,0,0,0-1.67,21c-6.62-7.85-7.46-20.46-7.46-20.46A16.81,16.81,0,0,1,346.1,138.54Z"/><path class="cls-30" d="M349.83,128.75c7.74,9.83,14.74,23.13,12.93,36.19-3.68,15.06-28.11,13.17-39.58,10.23a4.31,4.31,0,0,1,.56-8.45,139.21,139.21,0,0,0,15.85-2.38c3.16-.79,6.29-1.56,8.41-3.38.35-.38.27-.52.05-.28l-.71,2.45c0-3.61-1.72-8-3.44-11.45a93.75,93.75,0,0,0-7.48-12.17l-.32-.44c-6-9.28,6.51-18.67,13.73-10.32Z"/><path class="cls-31" d="M340.84,119.5c7.51,2.7,14.6,15.42,14.6,15.42-.35,4.63-7.69,15.12-12.92,17.39a25.84,25.84,0,0,1-7.78-11.77C332.36,132.55,337,120.66,340.84,119.5Z"/><path class="cls-25" d="M205.29,113.79c.12,3.85-1.52,10-4.54,12,0,0,1.95,4.15,8.87,5.49,7.62,1.48,4.26-3.05,4.26-3.05-4-1.79-3.38-4.84-2.18-7.58Z"/><path class="cls-10" d="M219.57,108.18c0,.5.34.9.68.89s.58-.44.54-.95-.34-.91-.68-.9S219.53,107.67,219.57,108.18Z"/><path class="cls-10" d="M220,107.26l1.21-.41S220.61,107.83,220,107.26Z"/><path class="cls-28" d="M220,108.65a13.9,13.9,0,0,0,2.09,3.16,2.24,2.24,0,0,1-1.82.43Z"/><path class="cls-10" d="M220,104.75a.38.38,0,0,1-.15,0,2.47,2.47,0,0,0-2.18.39.3.3,0,0,1-.4-.46,3.11,3.11,0,0,1,2.73-.52.31.31,0,0,1,.22.37A.32.32,0,0,1,220,104.75Z"/><path class="cls-25" d="M202.22,107.6c.86,6.24,1.09,8.89,4.53,12,5.17,4.59,12.73,2.39,13.76-3.93.94-5.68-.62-14.92-7-17.11A8.41,8.41,0,0,0,202.22,107.6Z"/><path d="M215.74,97.31s5-2.54,6.33,3.07c.91,3.76-5.13,9.61-5.13,9.61s-.9,7.8-9.8,9.08c-2.59.37-4.88-1.37-8.71.89-4.64,2.74-14.61,2.83-16.11-5.46a3.91,3.91,0,0,0,4.05,1.9s-4.91-2.11-3.36-6.41c1.38-3.84,8.86-4.33,8.86-4.33s-4.08-1.55-6.25-.52c0,0,1.4-3.28,7.44-3.51,2.86-.11,5.67.9,8.34-2.53C205.32,94.08,214.62,93.35,215.74,97.31Z"/><path class="cls-25" d="M214.81,107.89a5.67,5.67,0,0,0,1.87,2.88c1.25,1.06,2.28.45,2.27-.8a4.22,4.22,0,0,0-2.1-3.63C215.44,105.74,214.51,106.62,214.81,107.89Z"/><path class="cls-25" d="M191.82,136c-2.94,5.72-8.07,15.49-14.55,17.55-6,1.49-12-6.62-15-10.77l2.81-2.56c2.32,1.76,4.7,3.57,7,5.05a9.79,9.79,0,0,0,3.51,1.62s0,0-.16,0-.11,0-.13,0,.34-.22.69-.55c3.72-3.7,6.35-9.06,8.89-13.67l6.9,3.37Z"/><path class="cls-8" d="M187.84,125.15c-4.14,1.55-7.74,12-7.74,12l9.34,5.82s7.07-7.35,6-13.74C194.93,126.09,191.91,123.63,187.84,125.15Z"/><path class="cls-25" d="M166.09,142.76l-1.82-6.69L161,140s.27,3.54,2.94,3.81Z"/><polygon class="cls-25" points="161.95 134.93 158.6 136.17 161.02 139.98 164.27 136.07 161.95 134.93"/><path class="cls-36" d="M195.43,132.17c-.89,5.52-6,10.84-6,10.84l-3.71-2.31-5.63-3.51s3.6-10.49,7.74-12,7.1.94,7.62,4.12A9.1,9.1,0,0,1,195.43,132.17Z"/><path class="cls-37" d="M195.43,132.17c-.89,5.52-6,10.84-6,10.84l-3.71-2.31C186.87,136.46,192.05,132.62,195.43,132.17Z"/><path class="cls-8" d="M187.83,163.44l25.51,4.94c12-35.48,9.17-36.63,9.17-36.63a52,52,0,0,0-5.79-2.69l-.35-.13c-1.63-.59-2-.68-4.16-1.32-3.75-.89-7.25-1.61-11.58-2.24l-.82-.11c-.79-.1-1.57-.18-2.32-.26l-1.49-.12-1.65-.09c-2.79-.14-4.78-.09-4.78-.09C191,146.84,190,153.2,187.83,163.44Z"/><path class="cls-36" d="M187.83,163.44l25.51,4.94c12-35.48,9.17-36.63,9.17-36.63a52,52,0,0,0-5.79-2.69l-.35-.13c-1.63-.59-2-.68-4.16-1.32-3.75-.89-7.25-1.61-11.58-2.24l-.82-.11c-.79-.1-1.57-.18-2.32-.26l-1.49-.12-1.65-.09c-2.79-.14-4.78-.09-4.78-.09C191,146.84,190,153.2,187.83,163.44Z"/><path class="cls-37" d="M217.35,142.55a21.53,21.53,0,0,0,.75,11.13c2.12-6.94,3.32-11.68,4-14.93C220.12,138.49,218,139.13,217.35,142.55Z"/><polygon class="cls-25" points="119.04 225.38 119.82 231.78 134.49 231.88 133.7 225.48 119.04 225.38"/><path class="cls-10" d="M121.81,232.32l.71-7.22a.52.52,0,0,0-.37-.56l-5.47-1.36a1,1,0,0,0-1.21.92c-.2,2.52-.18,3.75-.49,6.92-.2,2-.67,4.79-.94,7.49s2.31,3.09,2.66,2c1.54-4.93,3.07-5.58,4.62-7.14A1.77,1.77,0,0,0,121.81,232.32Z"/><path class="cls-8" d="M206.61,167.08l-18.78-3.64c-9.05,8.78-5,17.91-13.38,54.74a409.65,409.65,0,0,1-44.46,5.9v9.2s25.75,3.29,48.93.41a13.65,13.65,0,0,0,9-5h0a13.59,13.59,0,0,0,2.53-5C196.89,199.62,206.61,167.08,206.61,167.08Z"/><path class="cls-9" d="M206.61,167.08l-18.78-3.64c-9.05,8.78-5,17.91-13.38,54.74a409.65,409.65,0,0,1-44.46,5.9v9.2s25.75,3.29,48.93.41a13.65,13.65,0,0,0,9-5h0a13.59,13.59,0,0,0,2.53-5C196.89,199.62,206.61,167.08,206.61,167.08Z"/><polygon class="cls-3" points="129.71 234.34 129.72 222.86 133.03 222.7 134.01 235.68 129.71 234.34"/><polygon class="cls-25" points="187.35 310.33 193.71 310.8 195.6 296.19 189.24 295.72 187.35 310.33"/><path class="cls-10" d="M194.11,309.89H187a.53.53,0,0,0-.52.44l-1,5.65a1,1,0,0,0,1,1.13c2.5,0,3.7-.19,6.85-.19,1.93,0,5.93.2,8.6.2s2.88-2.64,1.77-2.88c-5-1.07-6.88-2.55-8.53-4A1.62,1.62,0,0,0,194.11,309.89Z"/><path class="cls-27" d="M200.77,175.94c-8.15,6.29-8.7,30.25-8.51,41.08,4.14-15.14,9.05-32,11.91-41.71C203.39,174.65,202.27,174.79,200.77,175.94Z"/><path class="cls-8" d="M213,168.38s1.59,50.36-2,69.32c-3.7,19.73-15,64.61-15,64.61l-9.17-1.19s5.8-45.33,8.26-64.93c2.68-21.37-.83-71.42-.83-71.42Z"/><path class="cls-10" d="M187.7,161.88l-1.53,2.05c-.12.16.06.38.36.43l26.75,5.19c.23,0,.44,0,.48-.18l.6-2.22c0-.16-.13-.33-.38-.38l-25.84-5A.44.44,0,0,0,187.7,161.88Z"/><path class="cls-3" d="M190.69,165.42l-.69-.13c-.14,0-.23-.12-.21-.2l.81-2.89a.26.26,0,0,1,.3-.1l.69.13c.14,0,.23.12.21.2l-.81,2.89A.26.26,0,0,1,190.69,165.42Z"/><path class="cls-3" d="M208.16,168.85l-.69-.13c-.14,0-.23-.12-.21-.21l.82-2.88c0-.09.15-.14.29-.11l.69.13c.14,0,.23.12.21.21l-.81,2.88A.25.25,0,0,1,208.16,168.85Z"/><path class="cls-9" d="M213,168.38s1.59,50.36-2,69.32c-3.7,19.73-15,64.61-15,64.61l-9.17-1.19s5.8-45.33,8.26-64.93c2.68-21.37-.83-71.42-.83-71.42Z"/><polygon class="cls-3" points="197.97 302.83 184.9 301.14 185.06 298.04 199.28 298.65 197.97 302.83"/><path class="cls-25" d="M223.42,132.52a148.17,148.17,0,0,0,19.43,13c1,.51,2.89.25,4.19,0,5.67-1.14,11.3-3.67,16.6-6l2,3.25a71.42,71.42,0,0,1-10.89,6.6c-4.65,2.05-10,4.6-15.26,2.24a97,97,0,0,1-20.93-13.13l4.88-5.94Z"/><path class="cls-25" d="M262.93,140.66l2.78-4.54,3.45,3.24s-2,4.83-5.37,3.35Z"/><polygon class="cls-25" points="267.84 134.89 271.26 136.84 269.16 139.36 265.71 136.12 267.84 134.89"/><path class="cls-8" d="M218,130.66c5.07-.31,10.94,3,13.63,5.44l-3.11,12.35s-11.49-6.42-11.91-9.94S216.12,130.78,218,130.66Z"/><path class="cls-36" d="M218,130.66c5.07-.31,10.94,3,13.63,5.44l-3.11,12.35s-11.49-6.42-11.91-9.94S216.12,130.78,218,130.66Z"/><text class="cls-38" transform="translate(180.1 50.43) scale(0.98 1)">PAY SAVE</text></g></g></svg>