<svg xmlns="http://www.w3.org/2000/svg" viewBox="0 0 487.52 314.25"><defs><style>.cls-1{fill:#fff0f9;}.cls-2{fill:#f3f0ff;}.cls-3{fill:#424e87;}.cls-4{fill:#7785b7;}.cls-5{fill:#f9d4e3;}.cls-6{fill:#a8487c;}.cls-7{fill:#364370;}.cls-8{fill:#c0c0ff;}.cls-9{fill:#d3d5fe;}.cls-10{fill:#62787f;}.cls-11{fill:#a54783;}.cls-12{fill:#fff;}.cls-13{fill:#27283a;}.cls-14{fill:#414259;}.cls-15{fill:#d6d6d6;}.cls-16{fill:#f0f2f7;}.cls-17{fill:#8c3e76;}.cls-18{fill:#5a1e52;}.cls-19{fill:#933777;}.cls-20{fill:#d85b77;}.cls-21{fill:#8094bf;}.cls-22{fill:#f294ba;}.cls-23,.cls-34,.cls-38,.cls-41{fill:none;stroke-miterlimit:10;}.cls-23{stroke:#62787f;}.cls-24{fill:#feb3c7;}.cls-25{fill:#661f65;}.cls-26{fill:#dd7897;}.cls-27{fill:#0e2259;}.cls-28{fill:#a12758;}.cls-29{fill:#e89ab2;}.cls-30{fill:#772a77;}.cls-31{fill:#6e2772;}.cls-32{fill:#26324f;}.cls-33{fill:#122466;}.cls-34{stroke:#122466;}.cls-35{fill:#849299;}.cls-36{fill:#728389;}.cls-37{fill:#161921;}.cls-38{stroke:#161921;}.cls-39{fill:#753266;}.cls-40{fill:#350a24;}.cls-41{stroke:#112670;}.cls-42{fill:#f2a754;}</style></defs><g id="Layer_2" data-name="Layer 2"><g id="Character_2" data-name="Character 2"><path class="cls-1" d="M472.16,310.69c-18.1,6.52-47.59,2.09-62.34,2.09H27.38c-9.94,0-23.43,3.07-26.34-7.27-7.33-26,25.86-57.91,47.17-65,7.75-2.56,18-6.5,17-14.59-.32-2.54-1.83-4.75-3.23-6.89-11.67-17.87-18.37-39.36-16.6-60.63s12.59-42.08,30.29-54C98.54,89.06,128.57,90.05,154,79.52c34.46-14.26,57.11-48,89.67-66.14C289.52-12.19,352.94,0,386.06,40.69,395.41,52.18,403,66,416,73.11c12.47,6.87,28,6.44,40.27,13.7,14.77,8.75,21.53,27.3,20.55,44.44s-8.44,33.2-16.53,48.34c-6.1,11.39-12.84,23.4-11.94,36.29.89,12.65,9,23.52,17.26,33.17s17.23,19.39,20.51,31.64C490.68,297.87,483.75,306.52,472.16,310.69Z"/><rect class="cls-2" x="295.12" y="264.47" width="24.36" height="11.92"/><rect class="cls-3" x="128.55" y="75.08" width="75.86" height="198.5"/><rect class="cls-3" x="139.77" y="59.02" width="53.42" height="53.42"/><rect class="cls-4" x="132.51" y="83.53" width="64.97" height="8.19"/><rect class="cls-4" x="132.51" y="97.98" width="64.97" height="8.19"/><rect class="cls-5" x="132.51" y="113.31" width="64.97" height="8.19"/><rect class="cls-5" x="132.51" y="127.76" width="64.97" height="8.19"/><rect class="cls-5" x="132.51" y="141.55" width="64.97" height="8.19"/><rect class="cls-5" x="132.51" y="156.53" width="64.97" height="8.19"/><rect class="cls-5" x="132.51" y="169.99" width="64.97" height="8.19"/><rect class="cls-5" x="132.51" y="183.79" width="64.97" height="8.19"/><rect class="cls-5" x="132.51" y="199.95" width="64.97" height="8.19"/><rect class="cls-6" x="189.07" y="132.37" width="63.45" height="141.22"/><polygon class="cls-3" points="323.17 140.34 323.17 121.74 314.5 121.74 314.5 113.1 266.03 113.1 266.03 121.74 257.36 121.74 257.36 140.34 252.34 140.34 252.34 273.58 328.19 273.58 328.19 140.34 323.17 140.34"/><polygon class="cls-7" points="371.08 171.03 370.89 158.75 362.03 158.89 361.82 145.79 358.13 145.85 357.91 132.22 344.72 132.43 344.94 146.06 341.24 146.12 341.45 159.21 332.58 159.35 332.78 171.63 321.22 171.81 322.82 273.58 384.23 272.62 382.63 170.85 371.08 171.03"/><rect class="cls-2" x="259.54" y="122.86" width="24.36" height="11.92"/><rect class="cls-2" x="295.12" y="122.86" width="24.36" height="11.92"/><rect class="cls-2" x="259.54" y="140.56" width="24.36" height="11.92"/><rect class="cls-2" x="295.12" y="140.56" width="24.36" height="11.92"/><rect class="cls-2" x="259.54" y="158.26" width="24.36" height="11.92"/><rect class="cls-2" x="295.12" y="158.26" width="24.36" height="11.92"/><rect class="cls-2" x="259.54" y="175.97" width="24.36" height="11.92"/><rect class="cls-2" x="295.12" y="175.97" width="24.36" height="11.92"/><rect class="cls-2" x="259.54" y="193.67" width="24.36" height="11.92"/><rect class="cls-2" x="295.12" y="193.67" width="24.36" height="11.92"/><rect class="cls-2" x="259.54" y="211.37" width="24.36" height="11.92"/><rect class="cls-2" x="295.12" y="211.37" width="24.36" height="11.92"/><rect class="cls-2" x="259.54" y="229.07" width="24.36" height="11.92"/><rect class="cls-2" x="295.12" y="229.07" width="24.36" height="11.92"/><rect class="cls-2" x="295.12" y="246.77" width="24.36" height="11.92"/><polygon class="cls-6" points="316.55 218.76 316.55 192.21 292.64 192.21 292.64 218.76 286.33 218.76 286.33 273.58 334.73 273.58 334.73 218.76 316.55 218.76"/><rect class="cls-4" x="290.27" y="230.33" width="5.07" height="21.32"/><rect class="cls-4" x="298.36" y="230.33" width="5.07" height="21.32"/><rect class="cls-4" x="305.74" y="230.33" width="5.07" height="21.32"/><rect class="cls-8" x="331.48" y="185" width="11.2" height="11.2"/><rect class="cls-8" x="347.37" y="185" width="11.2" height="11.2"/><rect class="cls-4" x="362.18" y="185" width="11.2" height="11.2"/><rect class="cls-8" x="331.48" y="201.67" width="11.2" height="11.2"/><rect class="cls-8" x="347.37" y="201.67" width="11.2" height="11.2"/><rect class="cls-4" x="362.18" y="201.67" width="11.2" height="11.2"/><rect class="cls-8" x="331.48" y="217.69" width="11.2" height="11.2"/><rect class="cls-8" x="347.37" y="217.69" width="11.2" height="11.2"/><rect class="cls-4" x="362.18" y="217.69" width="11.2" height="11.2"/><rect class="cls-9" x="193.19" y="143.09" width="8.6" height="11.2"/><rect class="cls-9" x="204.65" y="143.09" width="8.6" height="11.2"/><rect class="cls-9" x="217.03" y="143.09" width="8.6" height="11.2"/><rect class="cls-9" x="228.5" y="143.09" width="8.6" height="11.2"/><rect class="cls-9" x="240.42" y="143.09" width="8.6" height="11.2"/><rect class="cls-9" x="193.19" y="158.26" width="8.6" height="11.2"/><rect class="cls-9" x="204.65" y="158.26" width="8.6" height="11.2"/><rect class="cls-9" x="217.03" y="158.26" width="8.6" height="11.2"/><rect class="cls-9" x="228.5" y="158.26" width="8.6" height="11.2"/><rect class="cls-9" x="240.42" y="158.26" width="8.6" height="11.2"/><rect class="cls-9" x="193.19" y="173.44" width="8.6" height="11.2"/><rect class="cls-9" x="204.65" y="173.44" width="8.6" height="11.2"/><rect class="cls-9" x="217.03" y="173.44" width="8.6" height="11.2"/><rect class="cls-9" x="228.5" y="173.44" width="8.6" height="11.2"/><rect class="cls-9" x="240.42" y="173.44" width="8.6" height="11.2"/><rect class="cls-9" x="193.19" y="188.07" width="8.6" height="11.2"/><rect class="cls-9" x="204.65" y="188.07" width="8.6" height="11.2"/><rect class="cls-9" x="217.03" y="188.07" width="8.6" height="11.2"/><rect class="cls-9" x="228.5" y="188.07" width="8.6" height="11.2"/><rect class="cls-9" x="240.42" y="188.07" width="8.6" height="11.2"/><rect class="cls-6" x="97.84" y="154.1" width="72.73" height="119.48"/><rect class="cls-4" x="102.17" y="170.22" width="9.63" height="32.51"/><rect class="cls-4" x="115.36" y="170.22" width="9.63" height="32.51"/><rect class="cls-8" x="129.38" y="170.22" width="9.63" height="32.51"/><rect class="cls-8" x="143.35" y="170.22" width="9.63" height="32.51"/><rect class="cls-8" x="102.17" y="224.64" width="9.63" height="31.56"/><rect class="cls-4" x="115.36" y="224.64" width="9.63" height="31.56"/><rect class="cls-4" x="129.38" y="224.64" width="9.63" height="31.56"/><rect class="cls-8" x="143.35" y="224.64" width="9.63" height="31.56"/><rect class="cls-3" x="134.2" y="213.84" width="70.21" height="59.74"/><path class="cls-10" d="M58.36,88.34V99.66a5.42,5.42,0,0,0,5.42,5.42H83.37l7.33,7.33v.4l.56-.57-.09-.1v-9.41c0-1.12,0-2.23,0-3.35s0-2.22,0-3.34v-7.7a5.42,5.42,0,0,0-5.42-5.42H63.78A5.42,5.42,0,0,0,58.36,88.34Zm.47,0a5,5,0,0,1,5-5H85.71a5,5,0,0,1,5,5V96c0,1.12,0,3.5,0,3.58h0s0,2.8,0,3.11v9l-7.23-7.13H63.78a5,5,0,0,1-5-5Z"/><rect class="cls-10" x="62.93" y="91.31" width="25.17" height="0.38"/><rect class="cls-10" x="62.93" y="97.22" width="9.09" height="0.38"/><rect class="cls-10" x="73.52" y="97.22" width="14.58" height="0.38"/><rect class="cls-10" x="62.93" y="94.17" width="4.4" height="0.38"/><rect class="cls-10" x="69.06" y="94.17" width="11.53" height="0.38"/><rect class="cls-10" x="82.2" y="94.17" width="5.9" height="0.38"/><path class="cls-4" d="M346.28,105.52l-6.55,6.83,2.94,2.82a17,17,0,0,0-1.05,2.72l-4.07.08.2,9.46,4.08-.09A15,15,0,0,0,343,130L340.18,133l6.83,6.54,2.82-2.94a16.12,16.12,0,0,0,2.72,1.06l.09,4.07,9.45-.2L362,137.4a14.72,14.72,0,0,0,2.67-1.17l2.94,2.82,6.55-6.83-2.94-2.82a17,17,0,0,0,1-2.72l4.07-.09-.2-9.45-4.08.08a15.35,15.35,0,0,0-1.17-2.67l2.82-2.94-6.83-6.54L364.06,108a16.08,16.08,0,0,0-2.72-1.05l-.08-4.07-9.46.2.09,4.07a16.63,16.63,0,0,0-2.67,1.17ZM350,115.63a9.62,9.62,0,1,1,.29,13.6A9.63,9.63,0,0,1,350,115.63Z"/><path class="cls-11" d="M277.65,72.28l-6.88-6.59-15.33,16,6.89,6.59a37.45,37.45,0,0,0-2.47,6.37l-9.54.21L250.8,117l9.54-.21a37.63,37.63,0,0,0,2.74,6.25l-6.59,6.89,16,15.32,6.6-6.89a36.54,36.54,0,0,0,6.36,2.47l.21,9.54,22.15-.48-.21-9.54a37.26,37.26,0,0,0,6.26-2.74l6.88,6.59,15.32-16-6.88-6.59a36.59,36.59,0,0,0,2.46-6.37l9.55-.21-.48-22.14-9.55.2a36.37,36.37,0,0,0-2.74-6.25L335,80,319,64.64l-6.6,6.89a36.85,36.85,0,0,0-6.36-2.47l-.21-9.54L283.7,60l.21,9.54A36.91,36.91,0,0,0,277.65,72.28Z"/><path class="cls-12" d="M269.69,119a29.6,29.6,0,1,0,12-40.1A29.64,29.64,0,0,0,269.69,119Zm51-27.44A28.3,28.3,0,1,1,282.34,80,28.33,28.33,0,0,1,320.68,91.54Z"/><path class="cls-12" d="M272.84,117.28A26,26,0,1,0,283.42,82,26.05,26.05,0,0,0,272.84,117.28Zm44.82-24.12A24.88,24.88,0,1,1,284,83,24.91,24.91,0,0,1,317.66,93.16Z"/><path class="cls-13" d="M140.81,105.55H351.6a9.35,9.35,0,0,1,9.35,9.36V241c0,3.63-2.39,6.56-5.35,6.56H265.14v25.89h53.6a7.25,7.25,0,0,1,7.24,7.25H167.59a7.25,7.25,0,0,1,7.24-7.25h53.6V247.6H136.81c-3,0-5.35-2.93-5.35-6.56V114.91A9.36,9.36,0,0,1,140.81,105.55Z"/><path class="cls-14" d="M169.84,273.49h53.6V242.88h36.7v30.61h53.6a7.26,7.26,0,0,1,7.25,7.25H162.59A7.26,7.26,0,0,1,169.84,273.49Z"/><path class="cls-14" d="M126.46,223.62V114.91a9.36,9.36,0,0,1,9.36-9.36H346.61a9.36,9.36,0,0,1,9.35,9.36V223.62Z"/><path class="cls-14" d="M356,223.62V241c0,3.63-2.4,6.56-5.35,6.56H131.81c-2.95,0-5.35-2.93-5.35-6.56V223.62Z"/><path class="cls-15" d="M131.84,218.9V115.2a5,5,0,0,1,5.1-4.93H345.49a5,5,0,0,1,5.1,4.93V218.9Z"/><rect class="cls-16" x="259.46" y="114.09" width="84.39" height="102.17" rx="17.5"/><path class="cls-6" d="M265.45,188.12v24.65h8.3V188.14Z"/><path class="cls-6" d="M278.73,174.7v38.07H287V174.72Z"/><path class="cls-6" d="M303.17,165.38v47.39h8.3V165.44C308.7,165.43,305.94,165.41,303.17,165.38Z"/><rect class="cls-6" x="315.4" y="147.75" width="8.3" height="65.02"/><path class="cls-17" d="M328.18,212.79l8.32,0v-53h0V146.35h2.33l-6.46-16.14-6.45,16.14h2.28Z"/><path class="cls-18" d="M291.33,212.84l8.3-.05V160.42H302l-6.46-11.83-6.46,11.83h2.28Z"/><rect class="cls-16" x="136.9" y="114.09" width="119.95" height="41.49" rx="19.47"/><path class="cls-16" d="M252.83,159.6H200.9a4,4,0,0,0-4,4.06c0,2.29,0,4.59,0,6.88q0,14,0,28,0,6.84,0,13.68v.05a4,4,0,0,0,4,4h55.94v-52.6A4,4,0,0,0,252.83,159.6Z"/><path class="cls-16" d="M194.26,210.54V182.59c0-6-.05-12.07,0-18.11a4.8,4.8,0,0,0-4.72-4.88h-47.9a4.79,4.79,0,0,0-4.72,4.86V211.4a4.79,4.79,0,0,0,4.72,4.86h47.92a4.8,4.8,0,0,0,4.72-4.85Z"/><path class="cls-19" d="M140.14,207.58l13.53-14.38a.41.41,0,0,1,.38-.11.4.4,0,0,1,.29.26l3,8.89,17.93-21.06a.37.37,0,0,1,.29-.14.42.42,0,0,1,.3.13l3.88,4.28,9.31-9-3.83-.18a.4.4,0,0,1-.38-.41.39.39,0,0,1,.41-.38l4.76.22h0a.32.32,0,0,1,.14,0h0a.22.22,0,0,1,.09.07l0,0a.22.22,0,0,1,0,.08l0,0a.59.59,0,0,1,0,.14l-.23,4.85a.39.39,0,0,1-.41.38.4.4,0,0,1-.38-.42l.18-3.85L180,186.3a.36.36,0,0,1-.29.11.34.34,0,0,1-.28-.13L175.61,182l-18.09,21.24a.4.4,0,0,1-.37.14.42.42,0,0,1-.31-.27l-3-8.92-13.08,13.89a.42.42,0,0,1-.31.13.41.41,0,0,1-.25-.11A.4.4,0,0,1,140.14,207.58Z"/><rect class="cls-20" x="140.73" y="162.92" width="29.59" height="2.2"/><rect class="cls-20" x="140.73" y="170.4" width="29.59" height="2.2"/><rect class="cls-20" x="140.73" y="174.62" width="29.59" height="2.2"/><rect class="cls-20" x="140.73" y="178.08" width="29.59" height="2.2"/><rect class="cls-20" x="175.58" y="118.12" width="77" height="2.2"/><rect class="cls-18" x="199.48" y="190.66" width="53.1" height="2.2"/><rect class="cls-18" x="199.48" y="195.4" width="53.1" height="2.2"/><rect class="cls-18" x="199.48" y="200.14" width="53.1" height="2.2"/><rect class="cls-18" x="199.48" y="204.88" width="53.1" height="2.2"/><rect class="cls-18" x="199.48" y="208.83" width="53.1" height="4.35"/><rect class="cls-20" x="175.58" y="125.6" width="77" height="2.2"/><rect class="cls-20" x="175.58" y="141.82" width="77" height="2.2"/><rect class="cls-20" x="175.58" y="145.51" width="77" height="2.2"/><rect class="cls-20" x="175.58" y="129.82" width="77" height="2.2"/><rect class="cls-20" x="175.58" y="133.28" width="77" height="2.2"/><rect class="cls-21" x="140.45" y="212.23" width="50.73" height="0.47"/><path class="cls-18" d="M191.18,212.47c0-.18,0-.5,0-.68,0-2.92,0-5.85,0-8.77,0-5.29,0-10.58,0-15.86a2.2,2.2,0,0,0-2.22-.65c-.91.33-1.35,1.29-1.93,2s-1.7,1.38-2.44.78a6.7,6.7,0,0,1-.64-.77c-.93-1-2.57-.25-3.64.56A28.56,28.56,0,0,0,172,199.36a1.82,1.82,0,0,1-.82,1c-.83.33-1.55-.61-2.34-1-1.42-.72-3.07.34-4.25,1.39a50.27,50.27,0,0,0-4.87,5,5.11,5.11,0,0,1-2.74,2.11c-1.85.34-3.38-1.39-5.2-1.85-2.37-.59-4.67,1-6.55,2.57-1.58,1.28-3.16,2.59-4.74,3.87Z"/><circle class="cls-22" cx="155.59" cy="133.38" r="15.26" transform="translate(-48.74 149.09) rotate(-45)"/><path class="cls-18" d="M148.18,132.74c7.22,0,14.45-.05,21.68,0a14.28,14.28,0,0,0-28.53.05Z"/><path class="cls-19" d="M169.87,133.25q-7.11,0-14.23,0,0,7.2,0,14.4a14.29,14.29,0,0,0,14.22-14.28Z"/><path class="cls-22" d="M223,174.72a11.8,11.8,0,1,0-11.8,11.79A11.81,11.81,0,0,0,223,174.72Zm-11.8,9.43a9.44,9.44,0,1,1,9.44-9.43A9.44,9.44,0,0,1,211.21,184.15Z"/><path class="cls-19" d="M211.21,165.28a9.46,9.46,0,0,1,9.39,8.48H223a11.81,11.81,0,0,0-11.76-10.83h-.16c0,.79,0,1.58,0,2.36Z"/><path class="cls-22" d="M253.12,174.72a11.8,11.8,0,1,0-11.8,11.79A11.82,11.82,0,0,0,253.12,174.72Zm-11.8,9.43a9.44,9.44,0,1,1,9.44-9.43A9.44,9.44,0,0,1,241.32,184.15Z"/><path class="cls-20" d="M241.32,165.28a9.42,9.42,0,0,1,7.75,14.81c.67.41,1.33.84,2,1.29a11.69,11.69,0,0,0,2.08-6.66,11.79,11.79,0,0,0-21.37-6.88c.62.48,1.22,1,1.81,1.52A9.43,9.43,0,0,1,241.32,165.28Z"/><path class="cls-23" d="M232.16,71.36h1.32c.36,0,.73.09,1.1.17a9,9,0,0,1,7.15,8.55,9.43,9.43,0,0,1-1.23,4.84c-2.05,3.75-4.1,7.49-6.14,11.25a2,2,0,0,1-1.29,1.11h-.5a1.81,1.81,0,0,1-1.19-.94q-3.15-5.78-6.31-11.55A9.17,9.17,0,0,1,224,79.05a9,9,0,0,1,6.5-7.38C231.05,71.52,231.61,71.46,232.16,71.36Zm.67,4.45a3.65,3.65,0,1,0,3.64,3.67A3.65,3.65,0,0,0,232.83,75.81Z"/><rect class="cls-24" x="115.73" y="285.95" width="6.08" height="8.81" transform="translate(-51.3 26.75) rotate(-10.58)"/><rect class="cls-24" x="64.98" y="286.36" width="5.87" height="9.44" transform="translate(16.77 -3.41) rotate(3.28)"/><path class="cls-25" d="M142.09,158.39c-2.78-2.39-4.84-5-5.61-8.59-5.21,3.44-12.38,8.37-16.39,11-1.52-3.52-3-6.94-3.3-7.62-.59-1.33-3.67-9.74-5.15-9.86-2-.16-3.86,12.8-3.93,14.62a15.59,15.59,0,0,0,1.35,6.2,81.36,81.36,0,0,0,4,8.8,2.07,2.07,0,0,0,.62.81,3.17,3.17,0,0,0,2,0,8.65,8.65,0,0,0,2.28-1C127.48,168.5,142.09,158.39,142.09,158.39Z"/><path class="cls-24" d="M149.12,146.58a1.26,1.26,0,0,0-.49.4,25,25,0,0,1-3.93,3.56,19.82,19.82,0,0,0,3.64-5c.07-.16.13-.36,0-.48s-.43,0-.6.13c-.92.8-1.75,1.7-2.66,2.51-.76.68-1.91,1.78-3,1.9a1.94,1.94,0,0,1,.24-1.17,12.22,12.22,0,0,0,.6-1.89.61.61,0,0,0,0-.53.42.42,0,0,0-.54,0,1.08,1.08,0,0,0-.33.4l0,.06a20.27,20.27,0,0,1-2.79,3.73,20.59,20.59,0,0,1-1.74,1.63,6.2,6.2,0,0,0-.59.52,7.54,7.54,0,0,0,.77,1.68l.44.6.6.79a17.49,17.49,0,0,0,1.8,1.75,109.41,109.41,0,0,0,9.43-5.61,1.15,1.15,0,0,0,.52-.57c.23-.88-1-.27-1.25-.12l-3,1.76a24.92,24.92,0,0,0,4-3.38c.17-.17.34-.42.23-.63s-.62-.13-.9.09l-3.71,2.93a17.91,17.91,0,0,0,3.67-4.35.62.62,0,0,0,.1-.45A.43.43,0,0,0,149.12,146.58Z"/><path d="M93.34,117.07a4.92,4.92,0,0,0-2.83,2.58,10.42,10.42,0,0,0-.78,3.37q-.51,4.59-.61,9.2l1.5.8a32.48,32.48,0,0,1,3.22-11,14.68,14.68,0,0,1,1.3-2.19c.35-.46,1.31-1.11,1.41-1.69C96.82,116.58,94.35,116.74,93.34,117.07Z"/><path class="cls-24" d="M91.54,125.92c.5,0,1.4,1.48,1.83,1.76a17,17,0,0,1,3.81,3.53c.56.67,1.09,1.38,1.6,2.09a4.37,4.37,0,0,1,1.06,1.77,11.2,11.2,0,0,1-.59,3,1.13,1.13,0,0,1-.2.52,1,1,0,0,1-.35.27,7.11,7.11,0,0,1-4.7.62,15.22,15.22,0,0,1-4.48-1.74,1.16,1.16,0,0,1-.45-.36.68.68,0,0,1-.11-.39C89.4,135.43,91,127.71,91.54,125.92Z"/><path class="cls-26" d="M99.17,138.32A7.34,7.34,0,0,1,94.28,135a8.81,8.81,0,0,1-1.15-3.82,8.07,8.07,0,0,1,.29-3.42,16.84,16.84,0,0,1,3.76,3.49c.56.67,1.09,1.38,1.6,2.09a4.37,4.37,0,0,1,1.06,1.77,11.2,11.2,0,0,1-.59,3A2.63,2.63,0,0,1,99.17,138.32Z"/><path class="cls-27" d="M109.27,125.71a18.11,18.11,0,0,1-1.68,2.21,2.74,2.74,0,0,1-.93.77c.3-1.06.62-2.12,1-3.16a4.38,4.38,0,0,1,.29-.74,1,1,0,0,1,.29-.38.91.91,0,0,1,.51-.16c.26,0,.86,0,1,.32S109.43,125.47,109.27,125.71Z"/><path class="cls-24" d="M91.44,122.82a7.5,7.5,0,0,1,1.33-2.93,7.07,7.07,0,0,1,4.85-2.22,8.59,8.59,0,0,1,2.48,0,8.83,8.83,0,0,1,1.45.38,14.09,14.09,0,0,1,4.94,2.73,5.18,5.18,0,0,1,1.65,2.08,5.76,5.76,0,0,1-.13,3.16,13.83,13.83,0,0,1-1.39,2.67c-.38.73-1.63,3.94-2.07,4.73a9.33,9.33,0,0,1-1.14,1.72,4.29,4.29,0,0,1-3.64,1.54,4.72,4.72,0,0,1-1.5-.49c-2.63-1.29-4.33-3.93-5.53-6.61a14.09,14.09,0,0,1-1.44-5.41A6.19,6.19,0,0,1,91.44,122.82Z"/><path class="cls-28" d="M101.88,132.55a.3.3,0,0,0,.34,0,.51.51,0,0,0,.12-.21,11.45,11.45,0,0,0,.5-2.71,10.77,10.77,0,0,1,.55-2.81.11.11,0,0,0-.06-.14.12.12,0,0,0-.15.07,10.89,10.89,0,0,0-.56,2.87,10.78,10.78,0,0,1-.49,2.65.16.16,0,0,1,0,.1s-.15,0-.23-.1a4.61,4.61,0,0,1-.92-1.48.1.1,0,0,0-.14-.06.11.11,0,0,0-.06.15,4.44,4.44,0,0,0,1,1.55A.62.62,0,0,0,101.88,132.55Z"/><path class="cls-28" d="M101,133.78a.12.12,0,0,0,.14-.08.12.12,0,0,0-.07-.16,6.39,6.39,0,0,1-1-.42,1.92,1.92,0,0,1-.79-.72,2.91,2.91,0,0,1-.21-.48.14.14,0,0,0-.16-.07.13.13,0,0,0-.07.16,2.58,2.58,0,0,0,.23.51,2.26,2.26,0,0,0,.88.82,6.67,6.67,0,0,0,1.09.43Z"/><path d="M104.71,127.72c-.36-.45.07-1.08.33-1.53a.82.82,0,0,1,.55-.48.87.87,0,0,1,.51.19,4.65,4.65,0,0,1,1.55,1.88c.21.46-.27.9-.59,1.17a.86.86,0,0,1-.4.23.82.82,0,0,1-.58-.26q-.66-.54-1.29-1.11Z"/><path d="M101.51,126.41a.21.21,0,0,1-.05.15.28.28,0,0,1-.15.06,4.47,4.47,0,0,1-1.41-.12L98,126.11a.31.31,0,0,1-.24-.12.33.33,0,0,1,0-.24,2.14,2.14,0,0,1,.69-1.06,2.47,2.47,0,0,1,1.24-.71,2.12,2.12,0,0,1,1.83.48C101.87,124.94,101.59,125.87,101.51,126.41Z"/><path d="M104.47,129.43a.67.67,0,0,1,.88.32.75.75,0,0,1,0,.51.67.67,0,0,1-.85.39.71.71,0,0,1-.38-.34.75.75,0,0,1,0-.51A.7.7,0,0,1,104.47,129.43Z"/><path d="M98.69,127.32a.67.67,0,0,1,.55-.1.6.6,0,0,1,.26.11.76.76,0,0,1,.2.2.83.83,0,0,1,.1.56.74.74,0,0,1-.88.55.64.64,0,0,1-.25-.12.52.52,0,0,1-.2-.19.74.74,0,0,1-.1-.56A.71.71,0,0,1,98.69,127.32Z"/><path class="cls-24" d="M92.14,124a3,3,0,0,0-1.73-.55,1.53,1.53,0,0,0-1.33.69,1.86,1.86,0,0,0,0,1.48,5,5,0,0,0,1,1.76,1.73,1.73,0,0,0,1.53.72,2,2,0,0,0,.77-.4c.64-.45,1.24-.94,1.09-1.78A3,3,0,0,0,92.14,124Z"/><path class="cls-29" d="M92.11,125.63a3,3,0,0,0-.81-.85,1.94,1.94,0,0,0-1.2-.47.54.54,0,0,0-.33.1.72.72,0,0,0-.2.67,2.59,2.59,0,0,0,1,1.91,1.41,1.41,0,0,0,1,.28C92.44,127.13,92.51,126.29,92.11,125.63Z"/><path class="cls-28" d="M90.15,126.13a6.49,6.49,0,0,1,1.39-.21v-.15a7.71,7.71,0,0,0-1.43.21Z"/><path class="cls-28" d="M92.25,126.94l.12-.07a6.56,6.56,0,0,0-2.43-2.42l-.07.13A6.49,6.49,0,0,1,92.25,126.94Z"/><path d="M112.66,119.78a7.24,7.24,0,0,0-3.62-2.73,13.75,13.75,0,0,0-3.28-.84,14.4,14.4,0,0,0-6,.44,12,12,0,0,0-1.39.48c-.33.13-1,.61-1.33.58s-.66-.55-1-.68a2.27,2.27,0,0,0-1.26-.16,3.29,3.29,0,0,0-2.11,1.44,16.5,16.5,0,0,0-1.93,4.92,2.93,2.93,0,0,1,1.75,2.13,1.52,1.52,0,0,0,.17.56,1.22,1.22,0,0,0,.37.27l1,.56c1.13.61,2.28-2,2.78-2.75a25.45,25.45,0,0,0,2.24-4.1,19.67,19.67,0,0,0,4.59,1.67,8.47,8.47,0,0,1,3.75,1.9c1,1.09,1.41,2.16,3.23,2C113.59,125.11,113.92,121.85,112.66,119.78Z"/><path class="cls-30" d="M111.64,143.16l-12.16-5.27c-2.42,3-8.49,1.4-11-1.83.23.28-10.93,4.68-11.88,5.07-1.75.71-3.39,1.61-5.12,2.37-.39.17,1.06,10.19,1.14,11.23.32,3.82.57,7.66.74,11.49q.51,11.5.15,23a7,7,0,0,0-.07,2.08c.27.64.62.55,1.4.66q2.19.3,4.41.39a77.22,77.22,0,0,0,8.87-.23c4.4-.33,8.79-.78,13.19-1,1.07-.07,3.07,0,4.14-.18,0,0,2-24.54,4.29-31.9C110.2,157.43,112.43,144.48,111.64,143.16Z"/><path class="cls-31" d="M76.27,156.36c-.89-2.77-2.76-5.15-4.43-7.54.32,2.65.7,5.39.74,5.91.32,3.82.57,7.66.74,11.49q.51,11.5.15,23a7,7,0,0,0-.07,2.08c.27.64.61.55,1.4.66q2.19.3,4.41.39a77.22,77.22,0,0,0,8.87-.23c3.78-.28,7.54-.65,11.31-.92C98.09,189.47,84,180.56,76.27,156.36Z"/><path class="cls-32" d="M125.24,287.59,105,190.92l-31.65.4L59.52,290.56H77.14l13.5-87.74.82-.07,17.09,86.73C114.13,289,119.66,288.12,125.24,287.59Z"/><path class="cls-3" d="M76.76,198.85c.46-.27,20.45-5.41,28.38-7.53l-.11-.4-31.65.4L59.52,290.56h4.62C64.29,287.12,76.4,199.06,76.76,198.85Z"/><path d="M114.56,288.86c-1.71-6.48-20.45-81.35-22-86.32-1.09.25,0,0-1.12.18l17.08,86.76C110.56,289.32,112.56,289.1,114.56,288.86Z"/><rect class="cls-33" x="107.68" y="152.89" width="6.09" height="0.19" transform="translate(-59.99 233.73) rotate(-79.42)"/><path class="cls-34" d="M77.79,167.74c3.6.11,7.4-1.35,10.79-2.39a37.69,37.69,0,0,0,10.28-5.25.59.59,0,0,0-.38.26"/><path class="cls-34" d="M79.91,184.32a91.56,91.56,0,0,1,19.61,2.86"/><rect class="cls-33" x="83.77" y="155.87" width="21.35" height="27.15" rx="10.5" transform="translate(14.34 -7.23) rotate(4.75)"/><path class="cls-27" d="M102.05,182.91,86.29,181.6a2.78,2.78,0,0,1-2.53-3l1.79-21.54a2.77,2.77,0,0,1,.58-1.47,2.75,2.75,0,0,0-1.43,2.2l-1.79,21.53a2.77,2.77,0,0,0,2.53,3l15.76,1.31a2.77,2.77,0,0,0,2.41-1A2.84,2.84,0,0,1,102.05,182.91Z"/><path class="cls-35" d="M97.23,156.59l-3.94-.33a1.32,1.32,0,0,1-1.21-1.42h0a1.33,1.33,0,0,1,1.43-1.21l3.94.33a1.32,1.32,0,0,1,1.2,1.42h0A1.32,1.32,0,0,1,97.23,156.59Z"/><path class="cls-36" d="M98.28,156.41l-5-.41a.82.82,0,0,1-.74-.88l.08-1a.86.86,0,0,1,.26-.53.81.81,0,0,0-.8.74l-.09,1a.82.82,0,0,0,.75.88l4.94.41a.81.81,0,0,0,.62-.22Z"/><path class="cls-25" d="M54.3,180.82c7,3.64,36.75.18,36.75.18-1.07-3.74-1.37-7.24,0-10.88-7,0-16.93.2-21.8.18,1-1.53,7.15-11.49,7.27-13.4.31-4.93.19-16-5.5-13.4C71.07,143.5,44.15,175.53,54.3,180.82Z"/><path class="cls-30" d="M91.47,170.31c-.42-.38-2.23-.19-2.79-.19-1.54,3.56-.85,7.41.27,11.09,2.34-.1,2.66.14,2.83-1.74a38.91,38.91,0,0,0,.12-6.2c-.05-.6,0-2.53-.42-3Z"/><path class="cls-25" d="M91.47,170.31a.57.57,0,0,0-.22-.12c-1.47,1.37-1.54,3.64-1.4,5.52.06.91.18,1.82.33,2.73a6,6,0,0,0,1,2.4,1.75,1.75,0,0,0,.59-1.37,38.91,38.91,0,0,0,.12-6.2c-.05-.6,0-2.53-.42-3Z"/><path class="cls-24" d="M104.18,174.66a1.4,1.4,0,0,0-.67.06,26.16,26.16,0,0,1-5.56.86,21.22,21.22,0,0,0,6.16-2.32c.15-.1.32-.24.29-.42s-.37-.27-.61-.24c-1.29.18-2.55.49-3.83.68-1.06.15-2.72.45-3.72-.05.13-.41.56-.66.9-.89A13,13,0,0,0,98.77,171a.65.65,0,0,0,.27-.49.45.45,0,0,0-.46-.35,1.26,1.26,0,0,0-.53.16l-.06,0A21.44,21.44,0,0,1,93.33,172a23.13,23.13,0,0,1-2.49.43,4.27,4.27,0,0,0-.82.11,7.61,7.61,0,0,0-.3,1.94l0,.78c0,.11,0,.53.07,1.06a20.76,20.76,0,0,0,.57,2.6c3.86.37,7.75.55,11.63.54a1.19,1.19,0,0,0,.79-.2c.72-.65-.72-.82-1-.83l-3.64-.18a26.35,26.35,0,0,0,5.53-.64c.25-.05.55-.17.58-.42s-.48-.48-.85-.45l-5,.43a19.46,19.46,0,0,0,5.79-1.71c.15-.08.31-.18.35-.34A.45.45,0,0,0,104.18,174.66Z"/><path class="cls-33" d="M66.39,173.11l-.13-.14c5.52-4.84,8.68-11.93,11.46-18.18l.17.08C75.1,161.14,71.94,168.24,66.39,173.11Z"/><rect class="cls-33" x="66.46" y="172.86" width="4" height="0.19" transform="translate(-114.56 139.73) rotate(-58.12)"/><rect class="cls-33" x="68.48" y="172.95" width="3.02" height="0.19" transform="translate(-116.14 187.19) rotate(-72.32)"/><path class="cls-33" d="M76.62,157.9l-.11-.15A17.72,17.72,0,0,0,79,155.42l.14.12A18.16,18.16,0,0,1,76.62,157.9Z"/><path class="cls-33" d="M75.82,148.44a7.88,7.88,0,0,0-4.23-4.26l.07-.17A8,8,0,0,1,76,148.37Z"/><path class="cls-33" d="M91.47,191.19c.16,2.83.2,5.71.12,8.55A1.69,1.69,0,0,1,91.2,201l.12.15a1.81,1.81,0,0,0,.45-1.39c.08-2.84,0-5.71-.11-8.55Z"/><rect class="cls-33" x="90.33" y="201.82" width="1.82" height="0.19" transform="translate(-114.25 284.78) rotate(-87.65)"/><path class="cls-33" d="M88.23,201.67l0-.18a60.59,60.59,0,0,0,7.63-1.74l0,.18A60.89,60.89,0,0,1,88.23,201.67Z"/><path class="cls-33" d="M74,201.19h-.22l0-.18a2.16,2.16,0,0,0,2-1.23,6.4,6.4,0,0,0,.56-2.49l.52-5.95.18,0-.51,5.94a6.9,6.9,0,0,1-.58,2.57A2.37,2.37,0,0,1,74,201.19Z"/><path class="cls-33" d="M95.07,141.12H95a8.37,8.37,0,0,1-7.5-4.39l.24-.11A8.1,8.1,0,0,0,95,140.86a6.2,6.2,0,0,0,5.37-2.4l.22.14A6.43,6.43,0,0,1,95.07,141.12Z"/><path class="cls-33" d="M73.65,191.15a304.82,304.82,0,0,0,31.56-.48"/><path d="M111.51,123.46a4.13,4.13,0,0,1-3.89-1.1,4.63,4.63,0,0,0-2.44-1.39,7.22,7.22,0,0,1-2.25-.51c-1.61-.74-4.07-2.84-5.57-.76-.72,1-1,2.28-1.78,3.27a1.9,1.9,0,0,1-2.09.89,2.19,2.19,0,0,1-1.07-.83c-.47-.64-.61-1.08-1.24-1.06-.13.42-.24.85-.36,1.26a2.93,2.93,0,0,1,1.75,2.13,1.52,1.52,0,0,0,.17.56,1.22,1.22,0,0,0,.37.27l1,.56c1.13.61,2.28-2,2.78-2.75a25.45,25.45,0,0,0,2.24-4.1,19.67,19.67,0,0,0,4.59,1.67,8.47,8.47,0,0,1,3.75,1.9c1,1.09,1.41,2.16,3.23,2a2.86,2.86,0,0,0,2.6-2.9A4.85,4.85,0,0,1,111.51,123.46Z"/><path class="cls-34" d="M119.52,161.29a1,1,0,0,0-.46.45,10.55,10.55,0,0,0-1.73,5.39s0,.08,0,.09,0-.07,0,0"/><path class="cls-34" d="M120,161.92a10.33,10.33,0,0,0-.52,5.11"/><path class="cls-34" d="M109.23,162.72c-.12.13,0,.34,0,.5l2,4.38,1.08,2.39a7.34,7.34,0,0,0,1.42,2.3,2.49,2.49,0,0,0,2.48.7"/><path class="cls-34" d="M119.24,171.9a108.49,108.49,0,0,0,22-13.17"/><path class="cls-34" d="M136.09,150.44a10.63,10.63,0,0,0,1.36,3.68"/><path class="cls-34" d="M75.34,191.15c-2.08,18.77-11.86,85-13.93,99.41"/><path class="cls-34" d="M91.92,202.58c6.61,28.84,12.79,57.78,19.72,86.62"/><path class="cls-34" d="M88.94,203q2.76-.25,5.5-.69"/><rect class="cls-37" x="117.09" y="298.54" width="5.77" height="2.01" transform="translate(-41.31 20.07) rotate(-8.16)"/><path class="cls-33" d="M138.17,297.57a.6.6,0,0,0,.2-.52c-4.73-.56-15.51-3.5-15.72-3.56a27.84,27.84,0,0,1-6.24,1.07c-.5,1.15.29,5,.64,4.95q10.55-.69,21-1.87A.27.27,0,0,1,138.17,297.57Z"/><rect class="cls-37" x="64.15" y="299.65" width="5.77" height="2.01" transform="translate(13.6 -2.71) rotate(2.58)"/><path class="cls-33" d="M85.27,302.1a.59.59,0,0,0,.3-.47C81,300.2,71,295.3,70.78,295.21a28.4,28.4,0,0,1-6.32-.12c-.71,1-.65,4.94-.29,5q10.49,1.29,21,2.08Z"/><path class="cls-38" d="M70.49,297.11a1.46,1.46,0,0,1,1.45-1.37c.08,0,.19,0,.17.12"/><path class="cls-38" d="M71.3,297.79a1.87,1.87,0,0,1,1.58-1.45c.09,0,.22,0,.19.12"/><path class="cls-38" d="M72.58,298.27A1.84,1.84,0,0,1,74,296.93"/><path class="cls-38" d="M71,292.46a.71.71,0,0,1,.83-.15,1.1,1.1,0,0,1,.53.71,2.47,2.47,0,0,1,0,.9,3.19,3.19,0,0,1-.5,1.5,3.34,3.34,0,0,1,1.92-1.75.39.39,0,0,1,.21,0,.33.33,0,0,1,.26.28c.22,1-1.52,1.85-2.33,1.46S70.48,293.15,71,292.46Z"/><path class="cls-38" d="M124,293.81a1.93,1.93,0,0,0-1,1.52"/><path class="cls-38" d="M125.06,294a2.09,2.09,0,0,0-1,1.46"/><path class="cls-38" d="M126.11,294.44c0-.05-.42.21-.81,1.32"/><path class="cls-38" d="M123.8,294a5.38,5.38,0,0,1-.76-1.63c-.08-.42,0-.95.35-1.14a.73.73,0,0,1,.86.24,1.46,1.46,0,0,1,.29.91,1.7,1.7,0,0,1-.62,1.5,3.85,3.85,0,0,1,.94-1,1,1,0,0,1,.37-.19.56.56,0,0,1,.6.68c-.11.34-.51.47-.86.56a7.34,7.34,0,0,1-1.17.06"/><path class="cls-24" d="M329.8,156.75a8.79,8.79,0,0,1-1.16-1.58,1.38,1.38,0,0,1-.22-.89c.06-.31.41-.57.69-.43a.92.92,0,0,1,0-1.17,1.22,1.22,0,0,1,1.14-.42,1.37,1.37,0,0,1,.16-1.27,4.24,4.24,0,0,1,.82-.43c.62-.37.06-1.28-.15-1.78a26.6,26.6,0,0,1-1.77-5.71c.74,0,1.23.75,1.54,1.44.7,1.54,1.39,3.09,2.09,4.64a3.5,3.5,0,0,0,.6,1,6,6,0,0,0,1,.67,8.44,8.44,0,0,1,2.67,3.84c.54,1.21,1.08,2.59.61,3.83s-2.44,2.7-3.7,2.41-2-1.58-2.74-2.43C330.87,157.88,330.32,157.33,329.8,156.75Z"/><rect class="cls-24" x="356.27" y="291.44" width="6.06" height="8.78" transform="translate(659.91 651.15) rotate(-169.7)"/><rect class="cls-24" x="407.26" y="293.07" width="6.06" height="8.78" transform="translate(839.85 566.33) rotate(176.1)"/><path class="cls-18" d="M352.84,293.12l19.67-96.44,31.54.24,14.3,98.83-17.56.09-11.3-87.93-.83.63-19.18,86.37C363.92,294.51,358.4,293.62,352.84,293.12Z"/><path class="cls-39" d="M389.73,209.74c3.6,0,7.17-.56,10.78-.59a.47.47,0,0,1,.47.29c1.86,6.61,12.33,85.66,12.4,86.37l5-.06-14.3-98.83-31.54-.24L370,209.18c1.91,1.14,12.07,1.14,14.73,1.22a.47.47,0,0,1,.46.65c-2.28,6.31-18.78,73.48-21.08,83.52,3.09.37,2.3.12,5.41.34l19.18-86.37.83-.63Z"/><rect class="cls-37" x="355.27" y="304" width="5.75" height="2" transform="translate(671.09 656.23) rotate(-172.12)"/><path class="cls-37" d="M414.13,305.45V304l-5.75,0v2l3.71,0C413.62,306,413.83,305.81,414.13,305.45Z"/><path class="cls-33" d="M340,303.12a.59.59,0,0,1-.21-.51c4.71-.59,15.44-3.57,15.65-3.62a28.24,28.24,0,0,0,6.23,1c.5,1.15-.27,5-.62,4.94q-10.51-.63-21-1.76Z"/><path class="cls-33" d="M414.09,303.84c0-.93,0-2.92-.24-2.93a28.33,28.33,0,0,1-6.27-.73c-2.71.81-5.38,1.73-8.09,2.52l-2.64.74a23,23,0,0,0-2.47.66c.28.29,1.05.26,1.44.33l1.88.3c.86.14,1.72.28,2.59.36,1,.1,2,.13,3.08.15a74.66,74.66,0,0,0,9.81-.19,1,1,0,0,0,.79-.34.92.92,0,0,0,.11-.43C414.08,304.22,414.08,304.06,414.09,303.84Z"/><path class="cls-38" d="M406.88,297.71a.68.68,0,0,0-.82-.15,1,1,0,0,0-.52.7,2.27,2.27,0,0,0,0,.9,3.22,3.22,0,0,0,.5,1.49,3.34,3.34,0,0,0-1.92-1.73.71.71,0,0,0-.21,0,.36.36,0,0,0-.26.28c-.21,1,1.53,1.84,2.34,1.44S407.44,298.39,406.88,297.71Z"/><path class="cls-38" d="M354.1,299.31a1.94,1.94,0,0,1,1,1.5"/><path class="cls-38" d="M353.05,299.52a2.07,2.07,0,0,1,1,1.45"/><path class="cls-38" d="M352,299.94a2.47,2.47,0,0,1,.81,1.31"/><path class="cls-38" d="M354.31,299.51a5.62,5.62,0,0,0,.75-1.63c.07-.42,0-.94-.35-1.13a.76.76,0,0,0-.87.24,1.53,1.53,0,0,0-.28.91,1.68,1.68,0,0,0,.63,1.5,4.22,4.22,0,0,0-.94-1,1,1,0,0,0-.37-.18.55.55,0,0,0-.6.67c.11.34.52.48.86.56a6.48,6.48,0,0,0,1.17.05"/><path class="cls-34" d="M380.74,206.19a44.54,44.54,0,0,0,19.63-.4"/><path class="cls-34" d="M392.13,197.94l.46,6.23c0,.16.05.35.2.39s.23-.26.08-.23"/><path class="cls-18" d="M387.39,207.68a762.46,762.46,0,0,0-19.62,86.82"/><path class="cls-24" d="M384.24,131.38c-.49,0-1.48,1.31-1.92,1.54a16.26,16.26,0,0,0-4,3.05c-.6.6-1.18,1.23-1.74,1.86-.4.46-1.06,1-1.18,1.62a10.22,10.22,0,0,0,.3,2.9,1.19,1.19,0,0,0,.14.52,1.22,1.22,0,0,0,.31.29,6.94,6.94,0,0,0,4.48,1,15,15,0,0,0,4.48-1.27,1.22,1.22,0,0,0,.47-.3.72.72,0,0,0,.13-.37C385.43,140.76,384.57,133.16,384.24,131.38Z"/><path class="cls-26" d="M379.69,137.9a14.67,14.67,0,0,0,.59-3.09c0-.2,0-.4.05-.62a18.81,18.81,0,0,0-2,1.78c-.6.6-1.18,1.23-1.74,1.86-.4.46-1.06,1-1.18,1.62a6.36,6.36,0,0,0,.18,2.18A5.34,5.34,0,0,0,379.69,137.9Z"/><path class="cls-24" d="M384.62,128.41a7,7,0,0,0-1-3,6.82,6.82,0,0,0-4.46-2.59,8.86,8.86,0,0,0-2.41-.19,9.93,9.93,0,0,0-1.43.24,13.67,13.67,0,0,0-5,2.17,5.06,5.06,0,0,0-1.79,1.86,5.64,5.64,0,0,0-.16,3,13.48,13.48,0,0,0,1.09,2.71c.3.74,1.21,3.95,1.56,4.75a9.59,9.59,0,0,0,.94,1.76,4.16,4.16,0,0,0,3.37,1.82,4.59,4.59,0,0,0,1.5-.33c2.65-1,4.53-3.4,5.93-5.86a13.72,13.72,0,0,0,1.89-5.09A5.56,5.56,0,0,0,384.62,128.41Z"/><path d="M374.06,131.72a4.17,4.17,0,0,0,0,2.22c.19.46,1,1.3,1.61.94s.3-1.85.73-2.42a1.5,1.5,0,0,1,2-.46,2.17,2.17,0,0,1,.56,1.9,28.52,28.52,0,0,1-.46,3.92,18.37,18.37,0,0,0,5.68-.35,2.36,2.36,0,0,0,1.25-.57,2.49,2.49,0,0,0,.53-1.33c.23-1.23.42-2.47.59-3.71a14.64,14.64,0,0,0-.15-6.15c-1.22-4-5.29-5.2-9-4.85a25.22,25.22,0,0,0-8.16,1.94c-1.78.82-5.61,2.1-4.71,4.7a3.8,3.8,0,0,0,3,2.28,10.91,10.91,0,0,0,3.94-.23c-.58.49-.28,1.52.37,1.91A3.64,3.64,0,0,0,374.06,131.72Z"/><path class="cls-24" d="M376,132.83a3,3,0,0,1,1.42-1.05,1.51,1.51,0,0,1,1.44.23,1.81,1.81,0,0,1,.46,1.36,4.94,4.94,0,0,1-.4,1.93,1.72,1.72,0,0,1-1.19,1.14,2.16,2.16,0,0,1-.83-.13c-.72-.22-1.43-.49-1.55-1.3A2.88,2.88,0,0,1,376,132.83Z"/><path class="cls-26" d="M376.5,134.32a3.12,3.12,0,0,1,.48-1,1.92,1.92,0,0,1,1-.8.53.53,0,0,1,.33,0,.69.69,0,0,1,.39.56,2.47,2.47,0,0,1-.3,2,1.32,1.32,0,0,1-.82.57C376.66,135.8,376.34,135.05,376.5,134.32Z"/><path class="cls-28" d="M378.46,134.17a7.63,7.63,0,0,0-1.35.24l0-.14a8,8,0,0,1,1.38-.24Z"/><path class="cls-28" d="M376.78,135.57l-.14,0a6.44,6.44,0,0,1,1.49-3l.11.09A6.33,6.33,0,0,0,376.78,135.57Z"/><path class="cls-32" d="M352.66,180a3.88,3.88,0,0,0,1-.17,2.11,2.11,0,0,0,.91-.54,2.78,2.78,0,0,0,.44-2.16,22.63,22.63,0,0,0-1.73-6.24c-.43-1-.9-2-1.37-3a6.44,6.44,0,0,0-.62-1.23,10.67,10.67,0,0,0-1-.81l-1.46-1.39c-2.15-2-4.29-4.09-6.44-6.12-1.36-1.29-2.72-2.58-4.09-3.85a7.89,7.89,0,0,1-.86,1.76,11.84,11.84,0,0,1-1.1,1.62,16,16,0,0,1-2.8,2.71c-.54.41-1.1.8-1.67,1.16-.23.14-.55.24-.52.56s.51.73.67.95c.45.6.92,1.18,1.41,1.75,1,1.15,2,2.23,3.1,3.27,2.19,2.09,4.54,4,6.89,5.92,1.24,1,2.49,2,3.71,3.07a15.47,15.47,0,0,0,2.95,2.15A5.43,5.43,0,0,0,352.66,180Z"/><path class="cls-25" d="M375.75,142.65a.85.85,0,0,0,.09.22,1.22,1.22,0,0,0,.31.29,6.94,6.94,0,0,0,4.48,1,15,15,0,0,0,4.48-1.27,1.22,1.22,0,0,0,.47-.3.72.72,0,0,0,.13-.37l-.14-.94A27.32,27.32,0,0,0,375.75,142.65Z"/><path class="cls-32" d="M406.75,196.69c-.1-1.17-.2-2.35-.28-3.55-.68-10.42-1.32-21-2.86-31.34a101.39,101.39,0,0,0-2.22-11.47c-.5-1.85-1.25-5.87-3.36-6.67a23.63,23.63,0,0,0-2.51-1.07c-1.06-.06-2.14-.06-3.18-.12a89.55,89.55,0,0,0-9.41-.1,69.7,69.7,0,0,0-12.68,1.7,40,40,0,0,0-7.47,2.13,4.13,4.13,0,0,0-2.31,2,3.63,3.63,0,0,0,.1,2.06q2.19,9,4.67,18c1.53,5.57,4,10.87,4.4,16.7.06.86.1,1.72.22,2.58.08.53.19,1.06.25,1.59a9.73,9.73,0,0,1,.06,1.07c0,.39,0,.77,0,1.16a122.08,122.08,0,0,1-1.57,16.4,22.56,22.56,0,0,0,6.79.82c3.25.06,6.49.09,9.73,0,3.75-.09,7.52-.07,11.27-.32a70.05,70.05,0,0,0,11.51-1.82c-.12-1.09-.25-2.19-.4-3.28C407.19,201,407,198.86,406.75,196.69Z"/><path class="cls-40" d="M360.64,147.82a2,2,0,0,0-.17.36,3.63,3.63,0,0,0,.1,2.06c.09.4.19.79.29,1.18A28.76,28.76,0,0,1,360.64,147.82Z"/><path class="cls-3" d="M369.86,187.55c.08.53.19,1.06.25,1.59a9.73,9.73,0,0,1,.06,1.07c0,.39,0,.77,0,1.16a125.3,125.3,0,0,1-1.36,15.11c.66-2,1.29-4.07,2-6.1,1.06-3.2,2.36-6.28,3.67-9.38a42.36,42.36,0,0,1,3.52-7.11c.94-1.4,2.05-2.67,2.92-4.12a6,6,0,0,0,.54-1,1,1,0,0,0,.09-.23,6.32,6.32,0,0,0-1.78-.89,18.35,18.35,0,0,1-2.74-1.26,28.67,28.67,0,0,1-3.08-2.19A37.06,37.06,0,0,1,362.75,159c.81,3.11,1.63,6.22,2.49,9.32,1.53,5.57,4,10.87,4.4,16.7C369.7,185.83,369.74,186.69,369.86,187.55Z"/><path class="cls-32" d="M364.37,162.08c.09-1.84-.51-15.07-2.56-15.1s-4.54,6.36-5.31,7.85c-2.65,5.11-6,9.89-9.06,14.77a4,4,0,0,0-.79,1.93,3.93,3.93,0,0,0,.41,1.63c.57,1.31,1.19,2.6,1.88,3.85a6.06,6.06,0,0,0,2.1,2.48,4.22,4.22,0,0,0,4.62-.62c1.39-1.12,2-2.89,3.07-4.3a44.28,44.28,0,0,0,3.68-6.37A16,16,0,0,0,364.37,162.08Z"/><path class="cls-41" d="M349.72,166.49v-.11a21.12,21.12,0,0,1,.28,3.81"/><path class="cls-42" d="M350.76,167c.29.78.71,1.5,1,2.28"/><path class="cls-41" d="M363.3,159.15c.24,1.32.52,2.64.84,3.95"/><path class="cls-41" d="M333.62,164.4c4.88,5.59,11,10.41,16.92,14.72a3.87,3.87,0,0,0,2.18.72c1.82,0,3.18-1.59,4.19-3.09a111.81,111.81,0,0,0,6.66-11.19"/><path class="cls-41" d="M364.63,162.84l.51-1.41"/><path class="cls-38" d="M407.15,300.34a3.81,3.81,0,0,0-.67.66,1.23,1.23,0,0,0-.26.9"/><path class="cls-38" d="M405.27,302a1.55,1.55,0,0,1,.84-1.35"/><path class="cls-38" d="M405.31,300.9a1.68,1.68,0,0,0-.91,1.07c0,.06-.09.13-.12.07"/><path class="cls-10" d="M418.12,72.68H386.89a7.74,7.74,0,0,0-7.73,7.73v11c0,1.59,0,3.17,0,4.76s0,3.18,0,4.77v13.4l-.13.15.8.8v-.56l10.44-10.44h27.9a7.73,7.73,0,0,0,7.72-7.72V80.41A7.73,7.73,0,0,0,418.12,72.68Zm7.05,23.85a7.06,7.06,0,0,1-7.05,7h-28c-.26.24-10.3,10.16-10.3,10.16V100.9c0-.45.06-4.43.06-4.43h0c0-.11,0-3.51,0-5.1v-11a7.05,7.05,0,0,1,7.05-7h31.23a7.05,7.05,0,0,1,7.05,7Z"/><rect class="cls-10" x="383.48" y="84.63" width="35.85" height="0.54"/><rect class="cls-10" x="406.38" y="93.05" width="12.95" height="0.54"/><rect class="cls-10" x="383.48" y="93.05" width="20.76" height="0.54"/><rect class="cls-10" x="413.06" y="88.71" width="6.26" height="0.54"/><rect class="cls-10" x="394.18" y="88.71" width="16.42" height="0.54"/><rect class="cls-10" x="383.48" y="88.71" width="8.41" height="0.54"/></g></g></svg>