<svg xmlns="http://www.w3.org/2000/svg" xmlns:xlink="http://www.w3.org/1999/xlink" viewBox="0 0 1920 601.18"><defs><style>.cls-1,.cls-9{opacity:0.91;}.cls-1{fill:url(#linear-gradient);}.cls-16,.cls-2{fill:#3a4d8a;}.cls-13,.cls-2{opacity:0.2;}.cls-3{fill:#fff;}.cls-4{fill:#ffd4f2;}.cls-5{fill:#1a2e35;}.cls-6{fill:#681853;}.cls-7{opacity:0.3;}.cls-8{fill:#fafafa;}.cls-10{fill:#c78976;}.cls-11{fill:#bf654e;}.cls-12{fill:#ff4f5b;}.cls-14{fill:#a13c79;}.cls-15{fill:#14263f;}.cls-17{fill:#872e68;}.cls-18{fill:#e1e1e1;}.cls-19{fill:#ececec;}.cls-20{fill:#162640;}</style><linearGradient id="linear-gradient" y1="300.59" x2="1920" y2="300.59" gradientUnits="userSpaceOnUse"><stop offset="0" stop-color="#c1467f"/><stop offset="0.23" stop-color="#a64781"/><stop offset="0.73" stop-color="#624b87"/><stop offset="1" stop-color="#3a4d8a"/></linearGradient></defs><g id="Layer_2" data-name="Layer 2"><g id="Layer_1-2" data-name="Layer 1"><rect class="cls-1" width="1920" height="601.18"/><path class="cls-2" d="M635.84,598c-.77-.05-1.55-.07-2.32-.07h-.14c-5.11-.07-10.15-.15-15.25-.28a35.73,35.73,0,0,0-4.75.21,60.76,60.76,0,0,0-6.85-.63,45,45,0,0,0-6.28.46c-.23,0-.48,0-.71,0-7,0-14.08-.14-21.12-.28a39.6,39.6,0,0,0-9.21.9l-159.85.08c65.83-69.3,162.43-103,258-102.34,69.79.48,142.62,21.3,207.49-4.43,60-23.81,98.13-81.65,144.85-126.24,71.59-68.32,169.9-107.88,268.86-108.17,67.16-.2,141.11,15.22,196.49-22.77,37.39-25.65,56.5-69.8,82.75-106.78C1644.73,19.2,1792.88-26,1916.85,21.92l.17,575.66-1219.69.58a25.4,25.4,0,0,0-6.2-.14c-.65.07-1.3.11-2,.15H684.8c-3.26-.12-6.53-.43-9.79-.43-4.71,0-9.42-.06-14.13-.12-5.39-.3-10.78-.57-16.18-.58A43.57,43.57,0,0,0,635.84,598Z"/><path class="cls-3" d="M140.74,282.34h-26.6V266.82h72.05v15.52h-26.5v72H140.74Z"/><path class="cls-3" d="M198.85,325.41c0,8.22,4.13,16.25,13.19,16.25,7.58,0,9.74-3,11.47-7h18.22c-2.34,8-9.51,21.26-30.17,21.26-21.65,0-31-16.19-31-33.44,0-20.62,10.58-35.35,31.69-35.35,22.58,0,30.26,16.33,30.26,32.74a40.32,40.32,0,0,1-.24,5.55Zm25.39-11.18c-.13-7.65-3.19-14.09-12.06-14.09-8.72,0-12.23,6-13,14.09Z"/><path class="cls-3" d="M255.23,306.48c0-6.53,0-12.34-.13-17.83H273c.23,1.47.47,8,.47,11.54,2.9-7.51,9.91-13,21.09-13.07v17.37c-13.2-.34-21.09,3.21-21.09,21.23v28.66h-18.2Z"/><path class="cls-3" d="M304.25,305.59c0-5.69,0-11.32-.12-16.94h17.4c.24,1.6.61,5.27.7,7.83,3.34-4.89,8.62-9.36,18.27-9.36,9.45,0,14.64,4.9,17,10,3.85-5.37,9.53-10,20.25-10,11.46,0,20.84,7,20.84,24.14v43.12H380.79V313.47c0-5.93-2.15-11.74-9.6-11.74-7.74,0-10.75,5-10.75,15.07v37.58H342.59V314.16c0-6.81-1.68-12.32-9.45-12.32-7.4,0-10.91,4.55-10.91,15.83v36.71h-18Z"/><path class="cls-3" d="M427.14,334.62c1.38,5.24,5.66,8.18,12.45,8.18s9.16-2.42,9.16-6.4c0-4.22-2.82-5.87-12.24-8.18C415.1,322.94,411.6,316.31,411.6,307c0-9.65,6.82-19.91,26.65-19.91s26.69,10.89,27.26,19.8H448.2c-.58-2.43-2.2-7-10.76-7-6,0-8,2.66-8,5.62,0,3.27,2,4.85,12.71,7.34,21.93,5.1,25,12.62,25,22.25,0,10.89-8.29,20.8-28.33,20.8s-28.19-9.64-29.64-21.29Z"/><path class="cls-3" d="M586.57,327.39c-3.52,16.33-15.84,28.23-37.76,28.23-27.76,0-40.89-19.65-40.89-44.55,0-24,13.54-45.52,41.8-45.52,23.31,0,34.61,13.69,36.75,28.33H567.54c-1.83-6.75-6.53-13.48-18.43-13.48-15.61,0-21.64,14.05-21.64,30,0,14.8,5.23,30.4,22.15,30.4,12.36,0,16.26-8.28,17.91-13.39Z"/><path class="cls-3" d="M660.94,321.39c0,19.89-11.9,34.52-32.73,34.52-20.38,0-32.28-14.55-32.28-34.17,0-20.29,12.27-34.62,33.14-34.62C648.42,287.12,660.94,300.78,660.94,321.39Zm-46.54.12c0,12.66,5.45,20.15,14.21,20.15s13.86-7.5,13.86-20c0-13.76-5.05-20.26-14.11-20.26C619.92,301.37,614.4,307.62,614.4,321.51Z"/><path class="cls-3" d="M673.55,305.21c0-5.59,0-11.71-.13-16.56h17.63a77.3,77.3,0,0,1,.7,8.37c2.24-4.13,7.56-9.9,19.07-9.9,13.2,0,21.78,8.92,21.78,25.44v41.82H714.4V314.59c0-7.39-2.46-12.75-10.49-12.75-7.73,0-12.16,4.3-12.16,15.91v36.63h-18.2Z"/><path class="cls-3" d="M809.06,261.68v74.64c0,6,0,12.05.13,18.06h-17.5c-.37-2-.72-5.37-.83-6.86-3.17,5.17-8.83,8.39-18.65,8.39-16.62,0-27.2-13.35-27.2-33.86,0-20.23,11.24-34.93,29.86-34.93,9.45,0,14.53,3.34,16,6.29V261.68Zm-45.36,59.9c0,12.81,5,19.75,13.9,19.75,12.52,0,14-10.44,14-19.89,0-11.24-1.59-19.74-13.48-19.74C768.52,301.7,763.7,309.16,763.7,321.58Z"/><path class="cls-3" d="M825.2,261.68h18.2v16.23H825.2Zm0,27h18.2v65.73H825.2Z"/><path class="cls-3" d="M853.47,288.65h10.14v-17.8h18.2v17.8h12.88v13.68H881.81v32.44c0,5,1.52,6.93,7,6.93a35,35,0,0,0,4.14-.2V354c-3.61,1.22-8.56,1.25-12.23,1.25-12.82,0-17.06-6.86-17.06-18.36V302.33H853.47Z"/><path class="cls-3" d="M904.83,261.68H923v16.23h-18.2Zm0,27H923v65.73h-18.2Z"/><path class="cls-3" d="M1000.53,321.39c0,19.89-11.9,34.52-32.73,34.52-20.38,0-32.28-14.55-32.28-34.17,0-20.29,12.27-34.62,33.14-34.62C988,287.12,1000.53,300.78,1000.53,321.39Zm-46.54.12c0,12.66,5.45,20.15,14.21,20.15s13.86-7.5,13.86-20c0-13.76-5-20.26-14.11-20.26C959.51,301.37,954,307.62,954,321.51Z"/><path class="cls-3" d="M1013.14,305.21c0-5.59,0-11.71-.13-16.56h17.63a74.85,74.85,0,0,1,.7,8.37c2.24-4.13,7.56-9.9,19.07-9.9,13.2,0,21.78,8.92,21.78,25.44v41.82H1054V314.59c0-7.39-2.46-12.75-10.49-12.75-7.73,0-12.16,4.3-12.16,15.91v36.63h-18.2Z"/><path class="cls-3" d="M1100.61,334.62c1.38,5.24,5.66,8.18,12.45,8.18s9.16-2.42,9.16-6.4c0-4.22-2.82-5.87-12.24-8.18-21.41-5.28-24.92-11.91-24.92-21.19,0-9.65,6.83-19.91,26.66-19.91s26.69,10.89,27.26,19.8h-17.31c-.58-2.43-2.2-7-10.76-7-6,0-8,2.66-8,5.62,0,3.27,2,4.85,12.72,7.34,21.93,5.1,25,12.62,25,22.25,0,10.89-8.28,20.8-28.32,20.8s-28.2-9.64-29.64-21.29Z"/><path class="cls-4" d="M1120.23,105.23c0,.68-5,1.23-11.07,1.23s-11.08-.55-11.08-1.23,5-1.22,11.08-1.22S1120.23,104.56,1120.23,105.23Z"/><path class="cls-4" d="M1132,75.1c.67,0,1.22,5,1.22,11.24s-.55,11.24-1.22,11.24-1.23-5-1.23-11.24S1131.32,75.1,1132,75.1Z"/><path class="cls-4" d="M1144.53,104.51c0-.67,5-1.22,11.07-1.22s11.08.55,11.08,1.22-5,1.23-11.08,1.23S1144.53,105.19,1144.53,104.51Z"/><path class="cls-4" d="M1132.76,134.65c-.67,0-1.22-5-1.22-11.24s.55-11.24,1.22-11.24,1.23,5,1.23,11.24S1133.44,134.65,1132.76,134.65Z"/><path class="cls-4" d="M1150.67,121.72c-.52.44-2.71-1.32-4.88-3.93s-3.52-5.07-3-5.5,2.71,1.33,4.88,3.93S1151.19,121.29,1150.67,121.72Z"/><path class="cls-4" d="M1149.63,87.55c.48.47-1,2.71-3.22,5s-4.47,3.73-5,3.26,1-2.71,3.22-5S1149.15,87.07,1149.63,87.55Z"/><path class="cls-4" d="M1124.24,96.25c-.43.52-2.53-.5-4.68-2.29s-3.54-3.66-3.11-4.18,2.53.5,4.68,2.29S1124.67,95.73,1124.24,96.25Z"/><path class="cls-4" d="M1123.24,111.32c.5.45-.75,2.65-2.8,4.89s-4.12,3.71-4.62,3.25.76-2.65,2.81-4.9S1122.74,110.86,1123.24,111.32Z"/><path class="cls-4" d="M1459.62,190c0,.29-2.16.53-4.82.53s-4.83-.24-4.83-.53,2.16-.53,4.83-.53S1459.62,189.72,1459.62,190Z"/><path class="cls-4" d="M1464.74,176.9c.29,0,.53,2.19.53,4.9s-.24,4.89-.53,4.89-.54-2.19-.54-4.89S1464.44,176.9,1464.74,176.9Z"/><path class="cls-4" d="M1470.19,189.7c0-.29,2.16-.53,4.82-.53s4.82.24,4.82.53-2.16.54-4.82.54S1470.19,190,1470.19,189.7Z"/><path class="cls-4" d="M1465.07,202.82c-.29,0-.53-2.19-.53-4.89s.24-4.89.53-4.89.53,2.19.53,4.89S1465.36,202.82,1465.07,202.82Z"/><path class="cls-4" d="M1472.86,197.19c-.22.19-1.17-.57-2.12-1.71s-1.53-2.2-1.31-2.39,1.18.58,2.13,1.71S1473.09,197,1472.86,197.19Z"/><path class="cls-4" d="M1472.41,182.32c.21.21-.42,1.18-1.4,2.17s-2,1.63-2.16,1.42.42-1.18,1.4-2.17S1472.2,182.11,1472.41,182.32Z"/><path class="cls-4" d="M1461.36,186.11c-.19.23-1.1-.22-2-1s-1.55-1.59-1.36-1.82,1.1.22,2,1S1461.55,185.88,1461.36,186.11Z"/><path class="cls-4" d="M1460.93,192.67c.21.19-.33,1.15-1.22,2.13s-1.8,1.61-2,1.41.33-1.15,1.22-2.13S1460.71,192.47,1460.93,192.67Z"/><path class="cls-4" d="M1064.69,195.25l.55,1.3a9.19,9.19,0,0,0,5,5l1.42.58-1.36.55a9.27,9.27,0,0,0-5.1,5.11l-.38.95-.57-1.19a9.22,9.22,0,0,0-5.17-4.68l-1.23-.46,1.61-.78a9.21,9.21,0,0,0,4.5-4.76Z"/><path class="cls-4" d="M1869.79,68.34l.55,1.31a9.24,9.24,0,0,0,5.06,5l1.41.58-1.36.55a9.19,9.19,0,0,0-5.09,5.11l-.39.95-.57-1.2a9.3,9.3,0,0,0-5.16-4.68l-1.24-.45,1.61-.78a9.25,9.25,0,0,0,4.51-4.77Z"/><path class="cls-4" d="M1872.22,123.48l.82,2a13.94,13.94,0,0,0,7.61,7.55l2.13.86-2,.83a13.89,13.89,0,0,0-7.67,7.69l-.58,1.43-.86-1.8a13.92,13.92,0,0,0-7.77-7l-1.86-.68,2.43-1.18a13.85,13.85,0,0,0,6.77-7.17Z"/><path class="cls-4" d="M118.09,106c0,.68-5,1.23-11.07,1.23S95.94,106.7,95.94,106s5-1.22,11.08-1.22S118.09,105.34,118.09,106Z"/><path class="cls-4" d="M129.86,75.89c.67,0,1.22,5,1.22,11.24s-.55,11.24-1.22,11.24-1.23-5-1.23-11.24S129.18,75.89,129.86,75.89Z"/><path class="cls-4" d="M142.39,105.3c0-.68,5-1.23,11.07-1.23s11.08.55,11.08,1.23-5,1.23-11.08,1.23S142.39,106,142.39,105.3Z"/><path class="cls-4" d="M130.62,135.44c-.67,0-1.22-5-1.22-11.24S130,113,130.62,113s1.23,5,1.23,11.25S131.3,135.44,130.62,135.44Z"/><path class="cls-4" d="M148.53,122.51c-.52.43-2.71-1.33-4.88-3.93s-3.52-5.07-3-5.5,2.71,1.32,4.88,3.93S149.05,122.08,148.53,122.51Z"/><path class="cls-4" d="M147.49,88.33c.48.48-1,2.71-3.22,5s-4.47,3.74-5,3.26,1-2.71,3.22-5S147,87.86,147.49,88.33Z"/><path class="cls-4" d="M122.1,97c-.43.52-2.53-.51-4.68-2.3s-3.54-3.66-3.11-4.18,2.53.51,4.68,2.3S122.53,96.52,122.1,97Z"/><path class="cls-4" d="M121.1,112.1c.5.46-.75,2.65-2.8,4.9s-4.12,3.71-4.62,3.25.76-2.65,2.81-4.9S120.6,111.65,121.1,112.1Z"/><path class="cls-4" d="M743.18,47.71c0,.38-2.81.7-6.28.7s-6.29-.32-6.29-.7,2.81-.7,6.29-.7S743.18,47.33,743.18,47.71Z"/><path class="cls-4" d="M749.86,30.6c.39,0,.7,2.86.7,6.38s-.31,6.38-.7,6.38-.69-2.85-.69-6.38S749.48,30.6,749.86,30.6Z"/><path class="cls-4" d="M757,47.3c0-.38,2.81-.7,6.29-.7s6.29.32,6.29.7-2.82.7-6.29.7S757,47.68,757,47.3Z"/><path class="cls-4" d="M750.3,64.41c-.39,0-.7-2.86-.7-6.38s.31-6.38.7-6.38S751,54.5,751,58,750.68,64.41,750.3,64.41Z"/><path class="cls-4" d="M760.46,57.07c-.29.25-1.53-.75-2.77-2.23s-2-2.88-1.7-3.12,1.54.75,2.77,2.23S760.76,56.82,760.46,57.07Z"/><path class="cls-4" d="M759.88,37.67c.27.27-.55,1.54-1.83,2.83s-2.54,2.12-2.82,1.85.55-1.54,1.83-2.83S759.6,37.4,759.88,37.67Z"/><path class="cls-4" d="M745.46,42.61c-.25.3-1.44-.29-2.66-1.3s-2-2.08-1.76-2.38,1.43.29,2.65,1.31S745.71,42.32,745.46,42.61Z"/><path class="cls-4" d="M744.89,51.16c.29.26-.43,1.51-1.59,2.78s-2.34,2.11-2.62,1.85.43-1.51,1.59-2.78S744.61,50.9,744.89,51.16Z"/><path class="cls-4" d="M457.48,190.81c0,.29-2.16.53-4.82.53s-4.83-.24-4.83-.53,2.16-.54,4.83-.54S457.48,190.51,457.48,190.81Z"/><path class="cls-4" d="M462.6,177.69c.29,0,.53,2.19.53,4.89s-.24,4.89-.53,4.89-.54-2.19-.54-4.89S462.3,177.69,462.6,177.69Z"/><path class="cls-4" d="M468.05,190.49c0-.29,2.16-.53,4.82-.53s4.82.24,4.82.53-2.16.54-4.82.54S468.05,190.79,468.05,190.49Z"/><path class="cls-4" d="M462.93,203.61c-.29,0-.53-2.19-.53-4.9s.24-4.89.53-4.89.53,2.19.53,4.89S463.22,203.61,462.93,203.61Z"/><path class="cls-4" d="M470.72,198c-.22.19-1.17-.58-2.12-1.71s-1.53-2.2-1.31-2.39,1.18.57,2.13,1.71S471,197.79,470.72,198Z"/><path class="cls-4" d="M470.27,183.11c.21.21-.42,1.18-1.4,2.17s-1.95,1.63-2.16,1.42.42-1.18,1.4-2.17S470.06,182.9,470.27,183.11Z"/><path class="cls-4" d="M459.22,186.9c-.19.22-1.1-.22-2-1s-1.55-1.6-1.36-1.82,1.1.22,2,1S459.41,186.67,459.22,186.9Z"/><path class="cls-4" d="M458.79,193.45c.21.2-.33,1.16-1.22,2.13s-1.8,1.62-2,1.42.33-1.15,1.22-2.13S458.57,193.25,458.79,193.45Z"/><path class="cls-4" d="M382.07,48.81l.81,2a13.93,13.93,0,0,0,7.61,7.54l2.14.86-2.05.83a14,14,0,0,0-7.67,7.69l-.58,1.43-.86-1.8a13.92,13.92,0,0,0-7.77-7l-1.86-.68,2.43-1.17a14,14,0,0,0,6.78-7.17Z"/><path class="cls-4" d="M62.55,196l.55,1.3a9.22,9.22,0,0,0,5.05,5l1.42.58-1.36.55a9.24,9.24,0,0,0-5.1,5.11l-.38.95-.57-1.2A9.29,9.29,0,0,0,57,203.66l-1.23-.45,1.61-.78a9.23,9.23,0,0,0,4.5-4.77Z"/><path class="cls-4" d="M867.66,69.13l.54,1.31a9.27,9.27,0,0,0,5.06,5l1.41.57-1.36.56a9.2,9.2,0,0,0-5.09,5.1l-.39.95-.57-1.19a9.3,9.3,0,0,0-5.16-4.68l-1.24-.45,1.61-.78A9.25,9.25,0,0,0,867,70.76Z"/><path class="cls-4" d="M533.93,36.91l.39.92a6.52,6.52,0,0,0,3.57,3.54l1,.4-1,.39a6.54,6.54,0,0,0-3.6,3.61l-.27.67-.41-.84A6.47,6.47,0,0,0,530,42.29l-.87-.32,1.14-.55a6.5,6.5,0,0,0,3.17-3.36Z"/><path class="cls-4" d="M123.89,486.6c0,.68-5,1.22-11.07,1.22s-11.08-.54-11.08-1.22,5-1.23,11.08-1.23S123.89,485.92,123.89,486.6Z"/><path class="cls-4" d="M135.66,456.46c.68,0,1.22,5,1.22,11.24s-.54,11.24-1.22,11.24-1.23-5-1.23-11.24S135,456.46,135.66,456.46Z"/><path class="cls-4" d="M148.19,485.88c0-.68,5-1.23,11.08-1.23s11.07.55,11.07,1.23-5,1.22-11.07,1.22S148.19,486.55,148.19,485.88Z"/><path class="cls-4" d="M136.42,516c-.67,0-1.22-5-1.22-11.24s.55-11.24,1.22-11.24,1.23,5,1.23,11.24S137.1,516,136.42,516Z"/><path class="cls-4" d="M154.33,503.09c-.52.43-2.7-1.33-4.88-3.93s-3.52-5.07-3-5.51,2.71,1.33,4.88,3.94S154.85,502.65,154.33,503.09Z"/><path class="cls-4" d="M153.29,468.91c.49.48-1,2.71-3.21,5s-4.48,3.74-5,3.26,1-2.71,3.22-5S152.81,468.44,153.29,468.91Z"/><path class="cls-4" d="M127.9,477.62c-.43.52-2.53-.51-4.68-2.3s-3.54-3.66-3.11-4.18,2.53.51,4.68,2.3S128.33,477.1,127.9,477.62Z"/><path class="cls-4" d="M126.9,492.68c.5.46-.75,2.65-2.8,4.9s-4.12,3.7-4.62,3.25.76-2.65,2.81-4.9S126.4,492.22,126.9,492.68Z"/><path class="cls-4" d="M749,428.29c0,.38-2.82.69-6.29.69s-6.29-.31-6.29-.69,2.81-.7,6.29-.7S749,427.9,749,428.29Z"/><path class="cls-4" d="M755.66,411.18c.39,0,.7,2.86.7,6.38s-.31,6.38-.7,6.38-.69-2.86-.69-6.38S755.28,411.18,755.66,411.18Z"/><path class="cls-4" d="M762.78,427.88c0-.39,2.81-.7,6.29-.7s6.29.31,6.29.7-2.82.69-6.29.69S762.78,428.26,762.78,427.88Z"/><path class="cls-4" d="M756.1,445c-.39,0-.7-2.86-.7-6.39s.31-6.38.7-6.38.69,2.86.69,6.38S756.48,445,756.1,445Z"/><path class="cls-4" d="M766.26,437.65c-.29.24-1.53-.76-2.77-2.23s-2-2.88-1.7-3.13,1.54.76,2.77,2.23S766.56,437.4,766.26,437.65Z"/><path class="cls-4" d="M765.68,418.25c.27.27-.55,1.53-1.83,2.83s-2.54,2.12-2.82,1.85.55-1.54,1.83-2.83S765.4,418,765.68,418.25Z"/><path class="cls-4" d="M751.26,423.19c-.25.29-1.43-.29-2.65-1.31s-2-2.07-1.77-2.37,1.43.29,2.66,1.3S751.51,422.89,751.26,423.19Z"/><path class="cls-4" d="M750.69,431.74c.29.26-.42,1.5-1.59,2.78s-2.34,2.1-2.62,1.84.43-1.5,1.59-2.78S750.41,431.48,750.69,431.74Z"/><path class="cls-4" d="M322.87,557.89c0,.29-2.16.53-4.82.53s-4.82-.24-4.82-.53,2.15-.54,4.82-.54S322.87,557.59,322.87,557.89Z"/><path class="cls-4" d="M328,544.77c.29,0,.53,2.19.53,4.9s-.24,4.89-.53,4.89-.54-2.19-.54-4.89S327.69,544.77,328,544.77Z"/><path class="cls-4" d="M333.44,557.57c0-.29,2.16-.53,4.82-.53s4.82.24,4.82.53-2.16.54-4.82.54S333.44,557.87,333.44,557.57Z"/><path class="cls-4" d="M328.32,570.69c-.29,0-.53-2.19-.53-4.89s.24-4.89.53-4.89.53,2.19.53,4.89S328.61,570.69,328.32,570.69Z"/><path class="cls-4" d="M336.11,565.06c-.22.19-1.17-.57-2.12-1.71s-1.53-2.2-1.3-2.39,1.17.58,2.12,1.71S336.34,564.88,336.11,565.06Z"/><path class="cls-4" d="M335.66,550.19c.21.21-.42,1.18-1.4,2.17s-1.95,1.63-2.16,1.42.42-1.18,1.4-2.17S335.45,550,335.66,550.19Z"/><path class="cls-4" d="M324.61,554c-.19.23-1.1-.22-2-1s-1.55-1.59-1.36-1.82,1.1.22,2,1S324.8,553.75,324.61,554Z"/><path class="cls-4" d="M324.18,560.53c.22.2-.33,1.16-1.22,2.14s-1.8,1.61-2,1.41.33-1.15,1.22-2.13S324,560.34,324.18,560.53Z"/><path class="cls-4" d="M387.87,429.39l.82,2a13.83,13.83,0,0,0,7.61,7.54l2.13.87-2.05.83a13.92,13.92,0,0,0-7.67,7.69l-.58,1.43-.86-1.8a13.89,13.89,0,0,0-7.77-7l-1.86-.68,2.43-1.18a13.91,13.91,0,0,0,6.78-7.17Z"/><path class="cls-4" d="M68.35,576.61l.55,1.31a9.26,9.26,0,0,0,5,5l1.42.57-1.36.56a9.25,9.25,0,0,0-5.1,5.1l-.38,1-.57-1.2a9.29,9.29,0,0,0-5.17-4.68l-1.23-.45,1.61-.78a9.25,9.25,0,0,0,4.51-4.77Z"/><path class="cls-4" d="M873.46,449.71,874,451a9.21,9.21,0,0,0,5.06,5l1.41.58-1.36.55a9.22,9.22,0,0,0-5.09,5.11l-.39.95-.57-1.19a9.23,9.23,0,0,0-5.16-4.68l-1.24-.46,1.62-.78a9.25,9.25,0,0,0,4.5-4.76Z"/><path class="cls-4" d="M539.74,417.48l.38.92a6.49,6.49,0,0,0,3.57,3.54l1,.41-1,.39a6.49,6.49,0,0,0-3.6,3.6l-.27.68-.41-.85a6.49,6.49,0,0,0-3.64-3.3l-.87-.32,1.14-.55a6.58,6.58,0,0,0,3.18-3.37Z"/><path class="cls-5" d="M1845.46,584.45c0,.21-143.8.39-321.14.39s-321.16-.18-321.16-.39,143.76-.4,321.16-.4S1845.46,584.23,1845.46,584.45Z"/><path class="cls-6" d="M1825.34,324.53,1774.51,374l-46.84,89.4L1675,564.51l-64.72-30.34-70-35.82,44.75-85.49,27.81-95.72c-19.65,13-56.12,30.79-99.79,21.53-47.3-10-24.6-188.43-24.6-188.43l52-1.34,5.18,125.79,58.76-25.95.09.22c3.54-1.58,6.63-3,8.28-3.88,32.49-17.72,53.81-19.87,88.67-7.43h0l50.3,16.71c12.92,6.09,60.57,29.55,73.61,70.17"/><path class="cls-5" d="M1647.42,233.92c0,.07-1.18.67-3.15,2.07a34.9,34.9,0,0,0-7.28,7.17,51.62,51.62,0,0,0-7.18,13.34c-2,5.36-3.63,11.49-5.36,17.91-3.48,12.79-6.62,24.36-8.94,32.85-1.16,4.12-2.1,7.49-2.79,9.93-.33,1.11-.59,2-.8,2.69a4.41,4.41,0,0,1-.33.93,3.89,3.89,0,0,1,.18-1c.16-.7.38-1.61.65-2.73.63-2.45,1.49-5.84,2.55-10,2.26-8.51,5.33-20.1,8.72-32.92a176.16,176.16,0,0,1,5.44-18,51,51,0,0,1,7.42-13.43,33.14,33.14,0,0,1,7.54-7.07,21.79,21.79,0,0,1,2.43-1.42A4.75,4.75,0,0,1,1647.42,233.92Z"/><g class="cls-7"><path d="M1628.48,259.12c-14.54,39.35-40.67,61.35-77.7,81.07,0,0,31.74-2.21,61-22.37"/></g><g class="cls-7"><path d="M1674.77,231.11l18.48,295.82L1675,564.51Z"/></g><path class="cls-8" d="M1732,333.42c-.22.08-2.08-4.58-4.67-10.18s-4.91-10-4.71-10.16a12.91,12.91,0,0,1,1.81,2.76c1,1.76,2.32,4.25,3.62,7.07s2.34,5.43,3,7.34A12.79,12.79,0,0,1,1732,333.42Z"/><path class="cls-8" d="M1773.41,312.62c.11.19-4.31,3.15-9.88,6.62s-10.18,6.14-10.29,5.95,4.3-3.15,9.87-6.62S1773.29,312.43,1773.41,312.62Z"/><path class="cls-8" d="M1755.45,297.64c-.22,0-.59-3.6-.82-8.07s-.25-8.11,0-8.12.59,3.6.82,8.08S1755.67,297.63,1755.45,297.64Z"/><path class="cls-8" d="M1796.76,294.75c-.12.19-3.46-1.67-7.46-4.14s-7.15-4.62-7-4.81,3.45,1.67,7.46,4.14S1796.87,294.57,1796.76,294.75Z"/><path class="cls-8" d="M1733.61,376.68c-.2-.09,1.63-4.79,4.1-10.51s4.63-10.28,4.83-10.19-1.64,4.79-4.1,10.51S1733.81,376.76,1733.61,376.68Z"/><path class="cls-8" d="M1715.21,395.31c-.19.09-1.85-2.83-3.71-6.54s-3.2-6.79-3-6.89,1.86,2.83,3.71,6.54S1715.41,395.21,1715.21,395.31Z"/><path class="cls-8" d="M1730.59,420.37c.06.2-3.38,1.38-7.8,2s-8.06.45-8.06.24,3.58-.4,8-1S1730.53,420.15,1730.59,420.37Z"/><path class="cls-8" d="M1750.34,393c-.21-.09,1-3.39,2.69-7.38s3.22-7.15,3.42-7.06-1,3.39-2.69,7.37S1750.54,393,1750.34,393Z"/><path class="cls-8" d="M1702.34,450.88c-.19.13-2.42-3-5.49-6.49s-5.8-6.2-5.64-6.37,3.14,2.26,6.23,5.85S1702.52,450.77,1702.34,450.88Z"/><path class="cls-8" d="M1693.64,388.6c.19.11-1.59,3.53-4,7.63s-4.47,7.35-4.65,7.24,1.58-3.53,4-7.64S1693.45,388.49,1693.64,388.6Z"/><path class="cls-8" d="M1699.84,367.14c-.06.21-3.86-.59-8.49-1.78s-8.35-2.34-8.29-2.55,3.85.58,8.48,1.78S1699.89,366.93,1699.84,367.14Z"/><path class="cls-8" d="M1699.48,323.13c.19-.11,2.09,2.73,4.5,6.19s4.4,6.24,4.22,6.38-2.46-2.44-4.87-5.93S1699.3,323.24,1699.48,323.13Z"/><path class="cls-8" d="M1685.48,321c.14.16-2.21,2.44-5.25,5.09s-5.63,4.66-5.78,4.5,2.21-2.45,5.26-5.1S1685.34,320.81,1685.48,321Z"/><path class="cls-8" d="M1696.53,297.93c-.13.16-3.52-2.64-7-6.77s-5.73-7.9-5.56-8,2.69,3.43,6.17,7.5S1696.69,297.76,1696.53,297.93Z"/><path class="cls-8" d="M1735.38,290.84c.06.21-3.75,1.56-8.52,3s-8.68,2.47-8.75,2.26,3.75-1.56,8.52-3S1735.31,290.63,1735.38,290.84Z"/><path class="cls-8" d="M1680.69,253.84c-.24,0-.13-3.49-.67-7.71s-1.48-7.57-1.25-7.64,1.5,3.23,2,7.54S1680.89,253.86,1680.69,253.84Z"/><path class="cls-8" d="M1646.12,364a30.71,30.71,0,0,1-3.58,2.63c-2.24,1.58-5.31,3.79-8.6,6.36s-6.16,5-8.23,6.83a30.1,30.1,0,0,1-3.41,2.85,20.93,20.93,0,0,1,3-3.26c2-1.91,4.82-4.45,8.12-7a106.6,106.6,0,0,1,8.78-6.2A21.48,21.48,0,0,1,1646.12,364Z"/><path class="cls-8" d="M1644.12,351.78c-.19.12-2.75-3.86-6.28-8.48s-6.67-8.17-6.5-8.32a10.94,10.94,0,0,1,2.29,2.11A73.6,73.6,0,0,1,1642.7,349,11.06,11.06,0,0,1,1644.12,351.78Z"/><path class="cls-8" d="M1653.38,303.78c.11.19-3.14,2.18-7.25,4.45s-7.53,4-7.64,3.77,3.14-2.19,7.25-4.46S1653.28,303.58,1653.38,303.78Z"/><path class="cls-8" d="M1644.22,282.81a11.52,11.52,0,0,1-2.61-2.05,55.66,55.66,0,0,1-5.48-5.81,55,55,0,0,1-4.63-6.52,11.78,11.78,0,0,1-1.5-2.95c.21-.12,2.8,4.2,6.74,9S1644.38,282.64,1644.22,282.81Z"/><path class="cls-8" d="M1660,282.37c-.2-.09,1-3.07,2.79-6.64s3.31-6.4,3.51-6.3-1.06,3.07-2.8,6.64S1660.18,282.47,1660,282.37Z"/><path class="cls-8" d="M1655.78,258.38c-.25,0,0-4.72-.88-10.41s-2.57-10.11-2.34-10.19a9.75,9.75,0,0,1,1.29,2.82,40.53,40.53,0,0,1,2.3,14.71A10.12,10.12,0,0,1,1655.78,258.38Z"/><path class="cls-8" d="M1659.67,379.43a28.34,28.34,0,0,1,.06-4.44c.09-2.74.17-6.52.07-10.7s-.37-7.94-.61-10.67a30.88,30.88,0,0,1-.28-4.44,19.92,19.92,0,0,1,.84,4.38,99,99,0,0,1,.84,10.71,100.33,100.33,0,0,1-.3,10.75A21.36,21.36,0,0,1,1659.67,379.43Z"/><path class="cls-8" d="M1657.36,417.17c-.18.17-2.7-2.87-6.74-5.42s-7.83-3.59-7.76-3.83,4,.49,8.18,3.17S1657.53,417.08,1657.36,417.17Z"/><path class="cls-8" d="M1676.37,440.57c.1.2-4.57,2.82-10.43,5.85s-10.7,5.33-10.8,5.14,4.57-2.81,10.44-5.84S1676.27,440.38,1676.37,440.57Z"/><path class="cls-8" d="M1622.87,451c-.17.13-3.61-4.25-7.68-9.78s-7.22-10.11-7-10.24,3.62,4.25,7.69,9.78S1623.05,450.82,1622.87,451Z"/><path class="cls-8" d="M1606.36,407.75a11.19,11.19,0,0,1-.34-3.11c-.09-1.93-.11-4.61,0-7.55s.4-5.61.67-7.52a11.18,11.18,0,0,1,.62-3.08c.23,0-.24,4.77-.5,10.63S1606.58,407.75,1606.36,407.75Z"/><path class="cls-8" d="M1588.54,481.49c-.14.17-4.11-2.91-8.87-6.87s-8.51-7.3-8.37-7.47,4.11,2.91,8.87,6.87S1588.68,481.32,1588.54,481.49Z"/><path class="cls-8" d="M1599.23,479.23c-.21,0-.52-5.33-.67-11.91s-.1-11.91.12-11.92.52,5.32.67,11.9S1599.45,479.22,1599.23,479.23Z"/><path class="cls-8" d="M1620.35,525c0,.12-1.89-.63-4.94-1.61a73.76,73.76,0,0,0-12.18-2.77,74.63,74.63,0,0,0-12.47-.6c-3.2.12-5.18.35-5.19.23a4.39,4.39,0,0,1,1.36-.33c.89-.16,2.19-.32,3.8-.45a59.52,59.52,0,0,1,24.86,3.39c1.51.56,2.72,1.06,3.53,1.46A4.46,4.46,0,0,1,1620.35,525Z"/><path class="cls-8" d="M1637.75,533.31a18.8,18.8,0,0,1,3.42,2.37,83.71,83.71,0,0,1,7.5,6.67,84.92,84.92,0,0,1,6.67,7.5,18.8,18.8,0,0,1,2.37,3.42,26.6,26.6,0,0,1-2.8-3.06c-1.68-1.93-4-4.55-6.8-7.3s-5.37-5.12-7.3-6.8A25.54,25.54,0,0,1,1637.75,533.31Z"/><path class="cls-8" d="M1645.32,454.18c-.2.08-2-3.89-3.93-8.86s-3.41-9.07-3.2-9.15,2,3.89,3.93,8.86S1645.52,454.1,1645.32,454.18Z"/><path class="cls-8" d="M1584.31,300.23a12.34,12.34,0,0,1-2.33,2.54,51.15,51.15,0,0,1-13.76,9.17,12.19,12.19,0,0,1-3.23,1.17c-.1-.22,4.72-2.28,10-5.86S1584.14,300.06,1584.31,300.23Z"/><path class="cls-8" d="M1588.19,284.14c-.22,0-.25-3.05-.08-6.78s.5-6.75.72-6.74.25,3,.07,6.78S1588.41,284.15,1588.19,284.14Z"/><path class="cls-8" d="M1557.91,297.66c-.09.2-3.62-1.23-7.89-3.18s-7.65-3.71-7.56-3.9,3.62,1.22,7.89,3.18S1558,297.46,1557.91,297.66Z"/><path class="cls-8" d="M1612,277.05c-.21,0-.1-3.78.25-8.4s.82-8.36,1-8.34.11,3.78-.24,8.4S1612.19,277.07,1612,277.05Z"/><path class="cls-8" d="M1541.81,329.85c0,.19-4.16-1.07-8.67-3.79s-7.56-5.73-7.42-5.87,3.38,2.54,7.83,5.19S1541.9,329.63,1541.81,329.85Z"/><path class="cls-8" d="M1519.28,299c.16.14-2.74,3.58-6.47,7.67s-6.89,7.28-7,7.13,2.73-3.58,6.47-7.67S1519.12,298.8,1519.28,299Z"/><path class="cls-8" d="M1517.35,271.26c-.08.18-3.48-1.25-7.09-4s-6-5.56-5.79-5.69,2.72,2.4,6.27,5.06S1517.45,271.05,1517.35,271.26Z"/><path class="cls-8" d="M1503.18,277.05c.17.14-1.28,2.13-3.24,4.44s-3.67,4.08-3.84,3.93,1.28-2.12,3.24-4.44S1503,276.91,1503.18,277.05Z"/><path class="cls-8" d="M1533.58,225.65c.17.14-2.49,3.67-5.94,7.88s-6.38,7.51-6.55,7.37,2.49-3.66,5.94-7.87S1533.41,225.52,1533.58,225.65Z"/><path class="cls-8" d="M1507.5,231.5c-.16.15-3-2.89-6.46-6.78s-6-7.16-5.86-7.3,3,2.89,6.46,6.78S1507.67,231.36,1507.5,231.5Z"/><path class="cls-8" d="M1520.54,198.52c-.19.1-2.22-3.12-4.53-7.21s-4-7.5-3.84-7.6,2.22,3.12,4.53,7.21S1520.73,198.41,1520.54,198.52Z"/><path class="cls-8" d="M1519.9,177.23c-.2-.15,2.08-3,3.88-7.12s2.48-7.69,2.72-7.64-.1,3.77-2,8S1520,177.37,1519.9,177.23Z"/><path class="cls-8" d="M1494.81,176c-.19,0-.4-4.43,1.87-9.3a22.16,22.16,0,0,1,3.71-5.65,7.08,7.08,0,0,1,2.11-1.84c.19.18-3,3.1-5.1,7.82S1495.06,176,1494.81,176Z"/><path class="cls-9" d="M1713.82,139.83c-.5-6.31-1-12.67-.23-19s2.85-12.57,7-17.36,10.52-7.89,16.8-7.07c3.88.5,7.55,2.42,11.46,2.3,4.53-.13,8.46-2.92,12.58-4.8a32.86,32.86,0,0,1,20.71-2.16,19.57,19.57,0,0,1,9.8,4.94c2.61,2.64,4.1,6.56,3.18,10.16,4.57,0,9.19,0,13.6,1.19s8.65,3.7,10.93,7.66,2.1,9.47-1.14,12.69c4.22-.86,8.65,2.39,9.66,6.58s-1.08,8.77-4.56,11.3-10,3.67-14.19,2.86-9.07-2-12.5-4.59"/><path class="cls-10" d="M1710.51,282.91h0a32.76,32.76,0,0,0,39.85-23.36c2.57-9.72,4.66-17.88,4.66-17.88S1780.41,246,1788.8,222s22.81-80.82,22.81-80.82h0a88.42,88.42,0,0,0-87.8-17.69l-4.5,1.55-32.25,117.46A32.77,32.77,0,0,0,1710.51,282.91Z"/><path class="cls-11" d="M1755.18,241.34s-15.67-3.88-28.46-19.5c0,0,1.61,19.86,26.41,25.77Z"/><path class="cls-10" d="M1713.89,151c-.35-.32-14.93-10.47-19.94,6.2s12.76,18.26,12.94,17.79S1713.89,151,1713.89,151Z"/><path class="cls-11" d="M1703.69,167.17c0-.08-.35.11-.91.19a3,3,0,0,1-2.18-.61c-1.57-1.17-2.21-4.41-1.39-7.44a10.12,10.12,0,0,1,2.06-3.92,3.52,3.52,0,0,1,2.86-1.57,1.54,1.54,0,0,1,1.47,1.31c.09.53-.12.84,0,.89s.44-.17.51-.9a1.91,1.91,0,0,0-.34-1.24,2.27,2.27,0,0,0-1.48-.91,4.27,4.27,0,0,0-3.81,1.67A10.23,10.23,0,0,0,1698,159c-.9,3.39-.13,7,2.07,8.47a3.25,3.25,0,0,0,2.79.36C1703.54,167.56,1703.74,167.21,1703.69,167.17Z"/><path class="cls-5" d="M1791.15,175.9a3.63,3.63,0,0,1-4.49,2.36,3.48,3.48,0,0,1-2.51-4.3,3.64,3.64,0,0,1,4.49-2.36A3.47,3.47,0,0,1,1791.15,175.9Z"/><path class="cls-5" d="M1795.65,173.57c-.57.31-2.53-2.5-6.25-3.73s-7.05-.3-7.3-.88c-.13-.27.58-.94,2.06-1.4a9.91,9.91,0,0,1,6,.15,9.59,9.59,0,0,1,4.78,3.53C1795.82,172.5,1795.93,173.44,1795.65,173.57Z"/><path class="cls-5" d="M1754.71,163.67a3.64,3.64,0,0,1-4.49,2.36,3.49,3.49,0,0,1-2.51-4.3,3.63,3.63,0,0,1,4.49-2.36A3.47,3.47,0,0,1,1754.71,163.67Z"/><path class="cls-5" d="M1759,162c-.58.31-2.54-2.5-6.25-3.73s-7-.3-7.3-.89c-.13-.26.57-.93,2-1.39a9.91,9.91,0,0,1,6,.15,9.62,9.62,0,0,1,4.79,3.53C1759.14,161,1759.26,161.9,1759,162Z"/><path class="cls-5" d="M1763.21,194c0-.21,2.49.16,6.38.94,1,.22,1.94.33,2.32-.26s.4-1.76.31-3c-.12-2.59-.25-5.3-.38-8.15-.45-11.57-.43-21,0-21s1.2,9.35,1.64,20.92c.09,2.84.18,5.55.25,8.15,0,1.19.21,2.62-.75,3.88a2.52,2.52,0,0,1-2,.86,6.87,6.87,0,0,1-1.69-.32C1765.49,195,1763.15,194.26,1763.21,194Z"/><path class="cls-5" d="M1751.44,193c.61.16-.73,4.19,1.75,8.2s6.92,5,6.76,5.58c0,.27-1.22.46-3-.09a10.57,10.57,0,0,1-5.72-4.44,9.19,9.19,0,0,1-1.22-6.79C1750.38,193.68,1751.17,192.83,1751.44,193Z"/><path class="cls-5" d="M1796.48,166.59c-.93.62-3.19-1.11-6.25-2.18s-5.86-1.34-6.17-2.42c-.11-.51.58-1.22,2-1.64a9.26,9.26,0,0,1,5.57.34,9.13,9.13,0,0,1,4.44,3.37C1796.84,165.29,1796.91,166.28,1796.48,166.59Z"/><path class="cls-5" d="M1758.66,147c-.57.32-1.46-.19-2.61-.84a24.38,24.38,0,0,0-9.09-3.39c-1.3-.25-2.3-.46-2.52-1.06s.5-1.51,2.14-2.13a10.29,10.29,0,0,1,11.85,4.41C1759.26,145.55,1759.19,146.73,1758.66,147Z"/><path class="cls-9" d="M1810.32,149a59.75,59.75,0,0,1-34.59-13.6c-10.91-8.93-24.56-15.19-28.29-13.43s-7.26,14.28-20.29,15.21c0,0-4.65,24.38-14.1,21.32s5.08-39.13,5.08-39.13l26.21-6.17,26.84,1,24.12,5.47,20.85,12Z"/><rect class="cls-8" x="1333.94" y="53.36" width="341.05" height="531.08"/><path class="cls-5" d="M1675,584.45c0-3.28-.15-219-.36-531.09l.36.37-341,0h0l.4-.4c0,200.92-.06,385.94-.08,531.09l-.32-.32,341,.32-341,.31h-.31v-.31c0-145.15-.05-330.17-.08-531.09V53h.44l341,0h.37v.36C1675.14,365.5,1675,581.18,1675,584.45Z"/><path class="cls-6" d="M1425.34,171.62h-43.63a5.45,5.45,0,0,1-5.46-5.46V105.77a5.45,5.45,0,0,1,5.46-5.46h27.67l21.42,22.08v43.77A5.45,5.45,0,0,1,1425.34,171.62Z"/><path class="cls-12" d="M1409.38,100.31v17a5.08,5.08,0,0,0,5.08,5.08h16.34Z"/><g class="cls-13"><path d="M1409.61,118.8a5.63,5.63,0,0,0,4.47,5.47,5.29,5.29,0,0,0,.54.13c2.14.38,16.18,2.88,16.18,2.55v-4.56h-16.34S1410.38,122.25,1409.61,118.8Z"/></g><path class="cls-14" d="M1409.38,100.31v17a5.08,5.08,0,0,0,5.08,5.08h16.34Z"/><path class="cls-8" d="M1405.72,116.61c0,.22-4.52.4-10.09.4s-10.1-.18-10.1-.4,4.52-.4,10.1-.4S1405.72,116.39,1405.72,116.61Z"/><path class="cls-8" d="M1418.76,126.22c0,.22-7.44.4-16.61.4s-16.62-.18-16.62-.4,7.44-.39,16.62-.39S1418.76,126,1418.76,126.22Z"/><path class="cls-8" d="M1421.75,134.25c0,.22-8.11.39-18.11.39s-18.11-.17-18.11-.39,8.11-.4,18.11-.4S1421.75,134,1421.75,134.25Z"/><path class="cls-8" d="M1421.75,141.82c0,.22-8.11.39-18.11.39s-18.11-.17-18.11-.39,8.11-.4,18.11-.4S1421.75,141.6,1421.75,141.82Z"/><path class="cls-8" d="M1421.75,149.39c0,.22-8.11.4-18.11.4s-18.11-.18-18.11-.4,8.11-.39,18.11-.39S1421.75,149.17,1421.75,149.39Z"/><path class="cls-8" d="M1421.75,157c0,.22-8.11.4-18.11.4s-18.11-.18-18.11-.4,8.11-.39,18.11-.39S1421.75,156.74,1421.75,157Z"/><path class="cls-15" d="M1446.07,131.35h-4.6v-1.67h11.1v1.67H1448V143.1h-1.9Z"/><path class="cls-15" d="M1464.4,141.43v1.67h-9.74V129.68h9.47v1.67h-7.55v4.12h6.73v1.63h-6.73v4.33Z"/><path class="cls-15" d="M1476.48,143.1l-2.9-4.13c-.27,0-.55,0-.84,0h-3.32v4.09h-1.91V129.68h5.23c3.49,0,5.6,1.76,5.6,4.67a4.24,4.24,0,0,1-3,4.24l3.19,4.51Zm-.06-8.75c0-1.91-1.29-3-3.74-3h-3.26v6h3.26C1475.13,137.38,1476.42,136.27,1476.42,134.35Z"/><path class="cls-15" d="M1493.88,143.1l0-9.78-4.85,8.15h-.88l-4.85-8.09v9.72h-1.84V129.68H1483l5.59,9.43,5.52-9.43h1.57l0,13.42Z"/><path class="cls-15" d="M1498.53,141.56l.71-1.49a6.88,6.88,0,0,0,4.42,1.55c2.32,0,3.32-.9,3.32-2.07,0-3.28-8.13-1.21-8.13-6.19,0-2.07,1.61-3.84,5.14-3.84a7.94,7.94,0,0,1,4.31,1.19l-.63,1.54a6.92,6.92,0,0,0-3.68-1.1c-2.28,0-3.26,1-3.26,2.13,0,3.28,8.13,1.23,8.13,6.15,0,2-1.65,3.82-5.2,3.82A7.92,7.92,0,0,1,1498.53,141.56Z"/><path class="cls-15" d="M1515.72,136.39a7.14,7.14,0,1,1,7.15,6.86A6.83,6.83,0,0,1,1515.72,136.39Zm12.35,0a5.22,5.22,0,1,0-5.2,5.15A5,5,0,0,0,1528.07,136.39Z"/><path class="cls-15" d="M1534.84,131.35V136h6.73v1.65h-6.73v5.43h-1.92V129.68h9.47v1.67Z"/><path class="cls-15" d="M1549,141.56l.7-1.49a6.93,6.93,0,0,0,4.43,1.55c2.32,0,3.32-.9,3.32-2.07,0-3.28-8.13-1.21-8.13-6.19,0-2.07,1.61-3.84,5.14-3.84a7.94,7.94,0,0,1,4.31,1.19l-.63,1.54a6.92,6.92,0,0,0-3.68-1.1c-2.28,0-3.26,1-3.26,2.13,0,3.28,8.13,1.23,8.13,6.15,0,2-1.65,3.82-5.2,3.82A7.92,7.92,0,0,1,1549,141.56Z"/><path class="cls-15" d="M1571.89,141.43v1.67h-9.73V129.68h9.47v1.67h-7.56v4.12h6.73v1.63h-6.73v4.33Z"/><path class="cls-15" d="M1584,143.1l-2.89-4.13c-.27,0-.56,0-.84,0h-3.32v4.09H1575V129.68h5.24c3.48,0,5.59,1.76,5.59,4.67a4.23,4.23,0,0,1-2.95,4.24l3.18,4.51Zm0-8.75c0-1.91-1.29-3-3.74-3h-3.26v6h3.26C1582.63,137.38,1583.92,136.27,1583.92,134.35Z"/><path class="cls-15" d="M1600.59,129.68l-5.88,13.42h-1.9l-5.9-13.42H1589l4.83,11,4.87-11Z"/><path class="cls-15" d="M1602.3,129.68h1.92V143.1h-1.92Z"/><path class="cls-15" d="M1607.15,136.39a6.79,6.79,0,0,1,7.11-6.87,6.61,6.61,0,0,1,5.1,2.09l-1.24,1.21a5,5,0,0,0-3.78-1.59,5.16,5.16,0,1,0,0,10.31,5,5,0,0,0,3.78-1.61l1.24,1.21a6.63,6.63,0,0,1-5.11,2.11A6.79,6.79,0,0,1,1607.15,136.39Z"/><path class="cls-15" d="M1631.85,141.43v1.67h-9.74V129.68h9.47v1.67H1624v4.12h6.72v1.63H1624v4.33Z"/><path class="cls-16" d="M1458.1,156.88l-3.57,10.69h-1.6L1450,159l-2.92,8.53h-1.63l-3.58-10.69h1.58l2.88,8.69,3-8.69h1.41l3,8.74,2.94-8.74Z"/><path class="cls-16" d="M1466.43,164h-6.56a2.73,2.73,0,0,0,2.93,2.36,3,3,0,0,0,2.33-1l.81.94a4.4,4.4,0,0,1-7.54-2.82,4,4,0,0,1,4.06-4.13,3.9,3.9,0,0,1,4,4.17A3.52,3.52,0,0,1,1466.43,164Zm-6.56-1.06h5.19a2.61,2.61,0,0,0-5.19,0Z"/><path class="cls-16" d="M1468.5,156.24H1470v11.33h-1.46Z"/><path class="cls-16" d="M1472,163.53a4,4,0,0,1,4.28-4.13,3.61,3.61,0,0,1,3.3,1.73l-1.12.72a2.51,2.51,0,0,0-2.2-1.16,2.85,2.85,0,0,0,0,5.69,2.51,2.51,0,0,0,2.2-1.16l1.12.71a3.62,3.62,0,0,1-3.3,1.74A4.06,4.06,0,0,1,1472,163.53Z"/><path class="cls-16" d="M1480.61,163.53a4.21,4.21,0,1,1,4.22,4.14A4,4,0,0,1,1480.61,163.53Zm6.94,0a2.73,2.73,0,1,0-5.46,0,2.73,2.73,0,1,0,5.46,0Z"/><path class="cls-16" d="M1504.51,162.92v4.65H1503v-4.49c0-1.58-.76-2.36-2.09-2.36s-2.43.93-2.43,2.69v4.16h-1.47v-4.49c0-1.58-.76-2.36-2.09-2.36s-2.43.93-2.43,2.69v4.16h-1.47v-8.09h1.41v1.21a3.26,3.26,0,0,1,2.79-1.29,3,3,0,0,1,2.82,1.5,3.64,3.64,0,0,1,3.11-1.5C1503.16,159.4,1504.51,160.53,1504.51,162.92Z"/><path class="cls-16" d="M1514.54,164H1508a2.73,2.73,0,0,0,2.93,2.36,3,3,0,0,0,2.34-1l.81.94a4.41,4.41,0,0,1-7.55-2.82,4,4,0,0,1,4.06-4.13,3.9,3.9,0,0,1,4,4.17A3.52,3.52,0,0,1,1514.54,164ZM1508,163h5.19a2.61,2.61,0,0,0-5.19,0Z"/><path class="cls-16" d="M1516.27,166.69a1,1,0,0,1,1-1,1,1,0,0,1,1,1,1,1,0,0,1-1,1A1,1,0,0,1,1516.27,166.69Zm.14-9.81h1.73l-.29,7.32h-1.16Z"/><rect class="cls-16" x="1649.29" y="86.05" width="5.83" height="445.91" rx="1.33"/><rect class="cls-17" x="1649.29" y="86.05" width="5.83" height="229.89" rx="1.33"/><path class="cls-16" d="M1387.33,219.16v10.69h-1.52v-9.37h-2.41v-1.32Z"/><path class="cls-16" d="M1389.63,228.89a1,1,0,0,1,1-1,1,1,0,0,1,1,1,1,1,0,0,1-1,1.05A1,1,0,0,1,1389.63,228.89Z"/><path class="cls-16" d="M1400.24,220.48h-3.67v-1.32h8.84v1.32h-3.66v9.37h-1.51Z"/><path class="cls-16" d="M1413.31,226.29h-6.57a2.75,2.75,0,0,0,2.94,2.37,3,3,0,0,0,2.33-1l.81.95a4.41,4.41,0,0,1-7.54-2.83,4,4,0,0,1,4.06-4.12,3.9,3.9,0,0,1,4,4.17A3.49,3.49,0,0,1,1413.31,226.29Zm-6.57-1h5.2a2.62,2.62,0,0,0-5.2,0Z"/><path class="cls-16" d="M1419.73,221.68v1.42a2,2,0,0,0-.34,0,2.42,2.42,0,0,0-2.55,2.74v4h-1.46v-8.1h1.4v1.36A3.09,3.09,0,0,1,1419.73,221.68Z"/><path class="cls-16" d="M1435,225.19v4.66h-1.47v-4.49c0-1.59-.77-2.37-2.09-2.37-1.47,0-2.43.93-2.43,2.69v4.17h-1.47v-4.49c0-1.59-.76-2.37-2.09-2.37s-2.43.93-2.43,2.69v4.17h-1.47v-8.1h1.41V223a3.26,3.26,0,0,1,2.79-1.28,3,3,0,0,1,2.81,1.49,3.68,3.68,0,0,1,3.12-1.49C1433.63,221.68,1435,222.81,1435,225.19Z"/><path class="cls-16" d="M1391.53,394.43v1.33h-7.69v-1l4.36-4.21c1.13-1.09,1.34-1.77,1.34-2.44,0-1.1-.78-1.77-2.28-1.77a3.37,3.37,0,0,0-2.73,1.16l-1-.9a4.92,4.92,0,0,1,3.91-1.62c2.23,0,3.67,1.14,3.67,3,0,1-.31,2-1.76,3.36l-3.27,3.14Z"/><path class="cls-16" d="M1392.9,394.8a1,1,0,0,1,1-1,1,1,0,0,1,1,1,1,1,0,0,1-1,1.06A1,1,0,0,1,1392.9,394.8Z"/><path class="cls-16" d="M1401.38,385.07h1.53v9.36h5.79v1.33h-7.32Z"/><path class="cls-16" d="M1410,385.16a1,1,0,0,1,1-1,1,1,0,0,1,1,.93,1,1,0,0,1-2,0Zm.26,2.51h1.47v8.09h-1.47Z"/><path class="cls-16" d="M1413.76,391.72a4,4,0,0,1,4.27-4.13,3.6,3.6,0,0,1,3.3,1.73l-1.11.72a2.53,2.53,0,0,0-2.2-1.17,2.85,2.85,0,0,0,0,5.7,2.52,2.52,0,0,0,2.2-1.16l1.11.7a3.62,3.62,0,0,1-3.3,1.75A4.05,4.05,0,0,1,1413.76,391.72Z"/><path class="cls-16" d="M1430.39,392.2h-6.57a2.75,2.75,0,0,0,2.94,2.37,3,3,0,0,0,2.33-1l.81,1a4.4,4.4,0,0,1-7.54-2.82,4,4,0,0,1,4.06-4.13,3.9,3.9,0,0,1,4,4.17A3.37,3.37,0,0,1,1430.39,392.2Zm-6.57-1.05h5.2a2.62,2.62,0,0,0-5.2,0Z"/><path class="cls-16" d="M1440.14,391.1v4.66h-1.47v-4.49c0-1.59-.79-2.36-2.18-2.36a2.4,2.4,0,0,0-2.57,2.68v4.17h-1.46v-8.09h1.4v1.22a3.47,3.47,0,0,1,2.92-1.3C1438.75,387.59,1440.14,388.72,1440.14,391.1Z"/><path class="cls-16" d="M1442.16,391.72a4,4,0,0,1,4.28-4.13,3.6,3.6,0,0,1,3.29,1.73l-1.11.72a2.52,2.52,0,0,0-2.2-1.17,2.85,2.85,0,0,0,0,5.7,2.51,2.51,0,0,0,2.2-1.16l1.11.7a3.61,3.61,0,0,1-3.29,1.75A4.06,4.06,0,0,1,1442.16,391.72Z"/><path class="cls-16" d="M1458.79,392.2h-6.56a2.74,2.74,0,0,0,2.93,2.37,3,3,0,0,0,2.34-1l.81,1a4.41,4.41,0,0,1-7.55-2.82,4,4,0,0,1,4.06-4.13,3.91,3.91,0,0,1,4,4.17A3.42,3.42,0,0,1,1458.79,392.2Zm-6.56-1.05h5.19a2.61,2.61,0,0,0-5.19,0Z"/><path class="cls-5" d="M1617.42,253.9c0,.21-52.42.39-117.06.39s-117.08-.18-117.08-.39,52.41-.4,117.08-.4S1617.42,253.68,1617.42,253.9Z"/><path class="cls-5" d="M1617.42,271.61c0,.22-52.42.4-117.06.4s-117.08-.18-117.08-.4,52.41-.39,117.08-.39S1617.42,271.4,1617.42,271.61Z"/><path class="cls-5" d="M1617.42,289.33c0,.22-52.42.4-117.06.4s-117.08-.18-117.08-.4,52.41-.39,117.08-.39S1617.42,289.11,1617.42,289.33Z"/><path class="cls-5" d="M1617.42,307.05c0,.22-52.42.4-117.06.4s-117.08-.18-117.08-.4,52.41-.39,117.08-.39S1617.42,306.83,1617.42,307.05Z"/><path class="cls-5" d="M1617.42,324.77c0,.22-52.42.4-117.06.4s-117.08-.18-117.08-.4,52.41-.39,117.08-.39S1617.42,324.55,1617.42,324.77Z"/><path class="cls-5" d="M1617.42,342.49c0,.22-52.42.4-117.06.4s-117.08-.18-117.08-.4,52.41-.4,117.08-.4S1617.42,342.27,1617.42,342.49Z"/><path class="cls-5" d="M1617.42,409.79c0,.22-52.42.4-117.06.4s-117.08-.18-117.08-.4,52.41-.39,117.08-.39S1617.42,409.58,1617.42,409.79Z"/><path class="cls-18" d="M1617.42,425c0,.22-52.42.39-117.06.39s-117.08-.17-117.08-.39,52.41-.4,117.08-.4S1617.42,424.73,1617.42,425Z"/><path class="cls-19" d="M1617.42,440.1c0,.22-52.42.4-117.06.4s-117.08-.18-117.08-.4,52.41-.39,117.08-.39S1617.42,439.88,1617.42,440.1Z"/><rect class="cls-15" x="1510.65" y="485.44" width="123.86" height="46.14"/><path class="cls-3" d="M1551.91,510.9h-6.1l-1.26,2.87h-1.69l5.2-11.47h1.62l5.21,11.47h-1.72Zm-.57-1.31-2.48-5.62-2.47,5.62Z"/><path class="cls-3" d="M1555.48,509.43a4.34,4.34,0,0,1,4.58-4.43,3.88,3.88,0,0,1,3.54,1.85l-1.19.77a2.71,2.71,0,0,0-2.36-1.24,3.06,3.06,0,0,0,0,6.11,2.71,2.71,0,0,0,2.36-1.24l1.19.75a3.89,3.89,0,0,1-3.54,1.87A4.34,4.34,0,0,1,1555.48,509.43Z"/><path class="cls-3" d="M1564.7,509.43a4.34,4.34,0,0,1,4.58-4.43,3.88,3.88,0,0,1,3.54,1.85l-1.19.77a2.71,2.71,0,0,0-2.36-1.24,3.06,3.06,0,0,0,0,6.11,2.71,2.71,0,0,0,2.36-1.24l1.19.75a3.89,3.89,0,0,1-3.54,1.87A4.34,4.34,0,0,1,1564.7,509.43Z"/><path class="cls-3" d="M1582.54,510h-7a3,3,0,0,0,3.15,2.54,3.21,3.21,0,0,0,2.5-1.05l.87,1a4.73,4.73,0,0,1-8.09-3,4.25,4.25,0,0,1,4.36-4.43,4.19,4.19,0,0,1,4.29,4.48C1582.57,509.61,1582.55,509.8,1582.54,510Zm-7-1.13h5.57a2.8,2.8,0,0,0-5.57,0Z"/><path class="cls-3" d="M1593.74,509.43a4.22,4.22,0,0,1-4.39,4.44,3.72,3.72,0,0,1-3-1.41V517h-1.58V505.08h1.51v1.38a3.7,3.7,0,0,1,3.1-1.46A4.22,4.22,0,0,1,1593.74,509.43Zm-1.59,0a2.93,2.93,0,1,0-2.93,3.06A2.87,2.87,0,0,0,1592.15,509.43Z"/><path class="cls-3" d="M1600.8,513.26a3,3,0,0,1-1.9.61,2.48,2.48,0,0,1-2.76-2.72v-4.77h-1.47v-1.3h1.47v-1.9h1.58v1.9h2.49v1.3h-2.49v4.7a1.28,1.28,0,0,0,1.36,1.46,2,2,0,0,0,1.22-.41Z"/><path class="cls-20" d="M1377.48,532a1.73,1.73,0,0,1-.29-.21l-.9-.68-3.68-2.89-.14-.12.17-.06c14.95-5.73,63.7-24,123.76-46.42l.21-.08.18.14,4.8,3.87.15.12v12.92c0,11.49,0,22.69,0,33.41v.39h-.39l-88.56-.15-26-.11-6.95-.06-1.8,0-.6,0,.63,0,1.81,0,7-.06,26-.11,88.44-.15-.38.39c0-10.72,0-21.92,0-33.41V485.82l.15.3-4.81-3.86.39.06c-60.08,22.36-108.91,40.43-124,45.87l0-.18,3.6,3,.86.73A1.94,1.94,0,0,1,1377.48,532Z"/><rect class="cls-3" x="1372.68" y="481.95" width="123.86" height="46.14"/><path class="cls-15" d="M1496.54,528.09s0-.29,0-.83,0-1.36,0-2.38c0-2.12,0-5.2-.06-9.16,0-8-.09-19.45-.15-33.77l.27.27-123.85.12h0l.39-.39c0,16.11,0,31.69,0,46.14l-.38-.38,88.66.18,25.83.11,6.94,0,1.8,0,.63,0s-.19,0-.58,0l-1.76,0-6.85.05-25.75.11-88.92.17h-.38v-.39c0-14.45,0-30,0-46.14v-.4h.41l123.85.13h.27V482c-.06,14.39-.11,25.94-.15,33.93,0,3.94-.05,7-.06,9.1,0,1,0,1.78,0,2.34S1496.54,528.09,1496.54,528.09Z"/><path class="cls-15" d="M1406.62,501.76h4.84c3.68,0,6.19,2.33,6.19,5.74s-2.51,5.73-6.19,5.73h-4.84Zm4.74,10.05c2.83,0,4.65-1.74,4.65-4.31s-1.82-4.31-4.65-4.31h-3.1v8.62Z"/><path class="cls-15" d="M1427.74,509.41h-7a2.94,2.94,0,0,0,3.15,2.54,3.24,3.24,0,0,0,2.51-1.05l.86,1a4.73,4.73,0,0,1-8.09-3,4.25,4.25,0,0,1,4.36-4.42,4.19,4.19,0,0,1,4.29,4.47C1427.77,509.07,1427.75,509.27,1427.74,509.41Zm-7-1.13h5.57a2.8,2.8,0,0,0-5.57,0Z"/><path class="cls-15" d="M1429.14,508.89a4.34,4.34,0,0,1,4.59-4.42,3.86,3.86,0,0,1,3.54,1.85l-1.2.77a2.7,2.7,0,0,0-2.36-1.25,3.06,3.06,0,0,0,0,6.11,2.69,2.69,0,0,0,2.36-1.24l1.2.75a3.89,3.89,0,0,1-3.54,1.87A4.35,4.35,0,0,1,1429.14,508.89Z"/><path class="cls-15" d="M1439.18,501.07h1.58v12.16h-1.58Z"/><path class="cls-15" d="M1443.47,501.86a1,1,0,0,1,1.07-1,1,1,0,0,1,1.06,1,1.07,1.07,0,0,1-2.13,0Zm.28,2.69h1.58v8.68h-1.58Z"/><path class="cls-15" d="M1456.56,508.23v5H1455v-4.82c0-1.7-.85-2.54-2.34-2.54a2.59,2.59,0,0,0-2.76,2.89v4.47h-1.57v-8.68h1.51v1.31a3.7,3.7,0,0,1,3.13-1.39C1455.07,504.47,1456.56,505.68,1456.56,508.23Z"/><path class="cls-15" d="M1467.34,509.41h-7a2.94,2.94,0,0,0,3.15,2.54,3.23,3.23,0,0,0,2.51-1.05l.87,1a4.74,4.74,0,0,1-8.1-3,4.25,4.25,0,0,1,4.36-4.42,4.18,4.18,0,0,1,4.29,4.47A3.83,3.83,0,0,1,1467.34,509.41Zm-7-1.13h5.58a2.81,2.81,0,0,0-5.58,0Z"/><line class="cls-3" x1="1496.54" y1="527.34" x2="1501.34" y2="531.96"/><path class="cls-15" d="M1501.34,532c-.15.16-1.35-.75-2.67-2s-2.28-2.44-2.13-2.6,1.35.75,2.68,2S1501.5,531.8,1501.34,532Z"/><path class="cls-10" d="M1678.28,520.43l17.68-8.52-9.71-28.73-21.36-4.94c-2-.45-4.2-1-6.68-1.67a26.83,26.83,0,0,1-8.08-3.8c-3-2.07-6.85-5-8.48-7.19-2-2.75-6.31-1.73-6.3,1.33s5.39,10.76,15,16.21-7.35,8.08-13.5,9.15-25,5.28-26.12,7.42c-1.64,3.14,1.5,5.53,7.61,4.32s24.74-3.56,25.23-.3l-.06.09a13.31,13.31,0,0,0,.81,15.48c3.42,4.3,8.57,9.69,12.36,8.87C1663.79,526.61,1678.28,520.43,1678.28,520.43Z"/><path class="cls-6" d="M1677.2,469.86l16.57,56,128.67-39.1a51.57,51.57,0,0,0,34-65.45l-31.55-98.16-68.51,17L1794,431Z"/><path class="cls-5" d="M1825.34,485.81l-.62.22-1.85.59-7.19,2.24-27,8.26L1695,525.54l-.35.1-.12-.35c-5.73-17.12-11.29-36-17.71-55.3l-.13-.38.38-.12,3.23-1.08,113.57-37.71-.19.42c-9.06-22-16.49-40.09-21.66-52.66L1766.12,364c-.67-1.65-1.17-2.92-1.53-3.8s-.49-1.32-.49-1.32.21.43.58,1.28.91,2.13,1.61,3.77l6.07,14.45,21.91,52.54.13.32-.32.1-113.52,37.87-3.23,1.08.25-.5c6.43,19.36,12,38.2,17.67,55.32l-.46-.24,93.74-28.14,27.07-8.06,7.24-2.12,1.86-.53C1825.13,485.85,1825.34,485.81,1825.34,485.81Z"/><path class="cls-5" d="M1817.77,447.34c-.12.07-1-1.41-2.69-3.55a34.92,34.92,0,0,0-17.55-11.64c-2.63-.75-4.34-1-4.32-1.1a3.26,3.26,0,0,1,1.21,0,22.1,22.1,0,0,1,3.26.54,31.37,31.37,0,0,1,17.84,11.84,22.18,22.18,0,0,1,1.77,2.78A3.42,3.42,0,0,1,1817.77,447.34Z"/><path class="cls-8" d="M1786.58,345c-.22,0-.39-3.73-.39-8.32s.17-8.31.39-8.31.4,3.72.4,8.31S1786.8,345,1786.58,345Z"/><path class="cls-8" d="M1812.43,346.28c-.21.06-1.46-3.5-2.8-8s-2.24-8.13-2-8.19,1.46,3.5,2.79,8S1812.64,346.22,1812.43,346.28Z"/><path class="cls-8" d="M1796.4,369.59c0,.2-3.6.09-7.82-1.16s-7.31-3.07-7.21-3.25,3.29,1.29,7.43,2.49S1796.42,369.36,1796.4,369.59Z"/><path class="cls-8" d="M1825.62,382.43c-.22,0,.22-3.59,1-7.93s1.54-7.85,1.75-7.81-.22,3.59-1,7.94S1825.83,382.47,1825.62,382.43Z"/><path class="cls-8" d="M1815.17,403.34c-.2.09-1.89-3.18-3.77-7.3s-3.25-7.53-3.05-7.62,1.88,3.17,3.77,7.29S1815.36,403.25,1815.17,403.34Z"/><path class="cls-8" d="M1810.88,421.67c-.09.19-3.32-1.17-7.2-3.06s-7-3.56-6.86-3.76,3.32,1.17,7.2,3S1811,421.47,1810.88,421.67Z"/><path class="cls-8" d="M1843.75,416.79c.2.11-1.26,3.15-2.89,7s-2.82,7-3,6.9.66-3.36,2.31-7.21S1843.57,416.69,1843.75,416.79Z"/><path class="cls-8" d="M1834.61,460.91c-.22,0-.77-3.78-1.24-8.49s-.66-8.54-.44-8.57.77,3.78,1.23,8.49S1834.83,460.88,1834.61,460.91Z"/><path class="cls-8" d="M1811.41,474.84c-.15.16-2.85-2.08-6-5s-5.66-5.44-5.51-5.6,2.85,2.08,6,5S1811.56,474.68,1811.41,474.84Z"/><path class="cls-8" d="M1771.3,478.84c.18.13-1.9,3.27-4.65,7s-5.11,6.66-5.28,6.53,1.9-3.26,4.65-7S1771.13,478.71,1771.3,478.84Z"/><path class="cls-8" d="M1784,460c-.13.16-3.08-2.06-6.16-5.39s-5.1-6.43-4.93-6.55,2.45,2.73,5.51,6S1784.17,459.86,1784,460Z"/><path class="cls-8" d="M1753.76,464.31c.06.19-2.63,1-6,.75s-6-1.44-5.88-1.62,2.65.6,5.94.83S1753.72,464.08,1753.76,464.31Z"/><path class="cls-8" d="M1734.62,497.54c-.22,0-.9-2.88-1.52-6.53s-1-6.62-.74-6.66.89,2.89,1.52,6.53S1734.83,497.5,1734.62,497.54Z"/><path class="cls-8" d="M1712,509c-.11.18-3.54-1.78-7.66-4.37s-7.35-4.86-7.24-5,3.55,1.77,7.66,4.37S1712.14,508.82,1712,509Z"/><path class="cls-8" d="M1720.09,468.56c.17.16-2,2.77-4.49,6.17s-4.26,6.31-4.46,6.19,1.32-3.21,3.82-6.65S1719.94,468.42,1720.09,468.56Z"/><path class="cls-8" d="M1702.61,476.24c-.09.19-2.08-.6-4.43-1.78s-4.19-2.29-4.09-2.49,2.08.6,4.44,1.78S1702.71,476,1702.61,476.24Z"/><g class="cls-13"><path d="M1792.9,428.69c6.88.71,13.75,1.42,20.61,2.28a25.55,25.55,0,0,1,7,1.58,8.9,8.9,0,0,1,5,4.88,5.45,5.45,0,0,1-1.91,6.36c-1.85,1.15-4.31.77-6.23-.26a34.07,34.07,0,0,1-5.13-4,28.37,28.37,0,0,0-10.54-5.52,18,18,0,0,1-5-1.77c-1.51-1-2.66-2.78-2.19-4.5"/></g></g></g></svg>