<svg width="36" height="36" viewBox="0 0 36 36" fill="none" xmlns="http://www.w3.org/2000/svg">
<path fill-rule="evenodd" clip-rule="evenodd" d="M4.05916 4.05916C7.10133 1.01699 11.7733 0 18 0C24.2267 0 28.8987 1.01699 31.9408 4.05916C34.983 7.10133 36 11.7733 36 18C36 24.2267 34.983 28.8987 31.9408 31.9408C28.8987 34.983 24.2267 36 18 36C11.7733 36 7.10133 34.983 4.05916 31.9408C1.01699 28.8987 0 24.2267 0 18C0 11.7733 1.01699 7.10133 4.05916 4.05916Z" fill="#641EA5"/>
<path fill-rule="evenodd" clip-rule="evenodd" d="M4.05916 4.05916C7.10133 1.01699 11.7733 0 18 0C24.2267 0 28.8987 1.01699 31.9408 4.05916C34.983 7.10133 36 11.7733 36 18C36 24.2267 34.983 28.8987 31.9408 31.9408C28.8987 34.983 24.2267 36 18 36C11.7733 36 7.10133 34.983 4.05916 31.9408C1.01699 28.8987 0 24.2267 0 18C0 11.7733 1.01699 7.10133 4.05916 4.05916Z" fill="#85ADFF"/>
<mask id="mask0_13058_4987" style="mask-type:alpha" maskUnits="userSpaceOnUse" x="0" y="0" width="36" height="36">
<path fill-rule="evenodd" clip-rule="evenodd" d="M4.05916 4.05916C7.10133 1.01699 11.7733 0 18 0C24.2267 0 28.8987 1.01699 31.9408 4.05916C34.983 7.10133 36 11.7733 36 18C36 24.2267 34.983 28.8987 31.9408 31.9408C28.8987 34.983 24.2267 36 18 36C11.7733 36 7.10133 34.983 4.05916 31.9408C1.01699 28.8987 0 24.2267 0 18C0 11.7733 1.01699 7.10133 4.05916 4.05916Z" fill="white"/>
</mask>
<g mask="url(#mask0_13058_4987)">
<path d="M28.3887 35.0468C28.9272 34.589 29.436 34.0967 29.9115 33.5731V32.6516H28.3887V35.0468Z" fill="#2896FF"/>
<path d="M27.1094 35.7732H22.5658V29.7172H27.1094V35.7732Z" fill="#2896FF"/>
<path d="M25.6195 28.4222C25.0292 28.6197 24.8249 29.3502 25.2321 29.821L28.2343 33.291C28.6912 33.8191 29.4042 33.8678 29.9215 33.5614C30.1079 33.3558 30.2891 33.1454 30.465 32.9304C30.5001 32.8434 30.5269 32.7504 30.5439 32.6514C30.73 31.5741 30.4495 30.4251 29.6783 29.5337C28.6454 28.34 27.029 27.9507 25.6195 28.4222Z" fill="white"/>
<path d="M5.68457 33.5731C6.15982 34.0968 6.66858 34.5895 7.2074 35.0479V32.6516H5.68457V33.5731Z" fill="#2896FF"/>
<path d="M8.49023 29.7168H13.0338V35.7727H8.49023V29.7168Z" fill="#2896FF"/>
<path d="M9.97883 28.4222C8.56936 27.9507 6.95291 28.34 5.92017 29.5337C5.14896 30.4251 4.86842 31.574 5.05447 32.6514C5.07149 32.7501 5.09824 32.843 5.13313 32.9298C5.30905 33.1449 5.49027 33.3555 5.67671 33.5613C6.19401 33.8678 6.90709 33.8191 7.36407 33.291L10.3662 29.821C10.7735 29.3502 10.5692 28.6197 9.97883 28.4222Z" fill="#D2F0FF"/>
<path d="M13.2601 28.8647C12.0037 28.8647 10.9294 29.7571 10.6856 30.9896C10.2813 33.0334 9.34216 34.4658 8.24745 34.4658H8.24262C7.98758 34.4648 7.77637 34.6614 7.77637 34.9165V35.5078C8.42224 36.0094 9.10679 36.4636 9.82463 36.8653L10.1328 36.7372L10.5666 37.2558C12.7469 38.3324 15.2016 38.9373 17.7977 38.9373C17.8353 38.9373 17.8728 38.9371 17.9104 38.9369V28.8647H13.2601Z" fill="#D2F0FF"/>
<path d="M27.3543 34.4658H27.3495C26.2549 34.4658 25.3156 33.0334 24.9113 30.9896C24.6676 29.7571 23.5932 28.8647 22.3368 28.8647H17.8389V38.9372C20.4099 38.931 22.8522 38.3283 25.0269 37.2551L25.2993 36.6715L25.7718 36.8632C26.4892 36.4619 27.174 36.008 27.8205 35.5063V34.9165C27.8206 34.6614 27.6095 34.4648 27.3543 34.4658Z" fill="white"/>
<path d="M17.799 32.2814C19.2166 32.2814 20.3657 31.1323 20.3657 29.7148C20.3657 28.2973 19.2166 27.1482 17.799 27.1482C16.3815 27.1482 15.2324 28.2973 15.2324 29.7148C15.2324 31.1323 16.3815 32.2814 17.799 32.2814Z" fill="#B1E4F9"/>
<path d="M17.8007 30.9533C16.9421 30.9533 16.2461 30.2573 16.2461 29.3987V25.0193H19.3554V29.3987C19.3553 30.2573 18.6593 30.9533 17.8007 30.9533Z" fill="#2896FF"/>
<path d="M17.8688 5.93867C17.8458 5.93854 17.823 5.93774 17.7999 5.93774C11.2203 5.93774 6.02702 11.528 6.51075 18.0898L6.6725 20.284C6.97918 24.4441 10.4438 27.6627 14.6152 27.6627H17.8688V5.93867Z" fill="#D2F0FF"/>
<path d="M17.8004 5.93774C17.7917 5.93774 17.7831 5.93808 17.7744 5.93808V27.6627H20.9928C25.1749 27.6627 28.6446 24.4281 28.9375 20.2562L29.0924 18.0503C29.5521 11.5026 24.3643 5.93774 17.8004 5.93774Z" fill="white"/>
<path d="M25.8258 16.7855L24.0428 14.8972C23.7065 14.7676 23.3409 14.6963 22.9587 14.6963H21.224L19.265 15.219L16.8096 14.6963H12.6416C10.9118 14.6963 9.52814 16.155 9.64454 17.8809C9.64573 17.8983 9.64692 17.9157 9.64825 17.933L9.76504 19.5174C9.8484 20.6485 10.2551 21.6832 10.8906 22.5338L13.7614 24.5776C14.3109 24.7518 14.8953 24.8455 15.5003 24.8455H16.5296L18.1279 24.3618L19.7387 24.8455H20.1052C23.1251 24.8455 25.6305 22.5098 25.842 19.4974L25.9539 17.9045C25.9547 17.8932 25.9555 17.882 25.9562 17.8708C25.9812 17.4917 25.9337 17.1258 25.8258 16.7855Z" fill="#373C41"/>
<path d="M16.5293 24.8472H19.7383L25.8254 16.7872C25.5518 15.9239 24.8902 15.2259 24.0424 14.8989L16.5293 24.8472Z" fill="#50555A"/>
<path d="M23.6909 13.6895C25.6619 13.6895 27.2444 15.4305 27.1143 17.4946C27.1135 17.5081 27.1126 17.5216 27.1117 17.5351L26.984 19.4444C26.7424 23.0552 23.8809 25.8548 20.4319 25.8548H15.1726C11.7325 25.8548 8.87516 23.069 8.62224 19.4683L8.48883 17.5692C8.48737 17.5484 8.48598 17.5275 8.48466 17.5067C8.35171 15.438 9.93194 13.6895 11.9076 13.6895H23.6909ZM23.6909 12.895H11.9077C10.7566 12.895 9.68014 13.3669 8.87662 14.2237C8.04456 15.1109 7.61274 16.3261 7.69186 17.5576C7.69331 17.58 7.69477 17.6024 7.69636 17.6248L7.82977 19.524C7.96577 21.4601 8.78896 23.256 10.1476 24.5807C11.5159 25.9147 13.3004 26.6493 15.1727 26.6493H20.432C22.309 26.6493 24.0969 25.9114 25.4664 24.5715C26.8263 23.241 27.6468 21.4389 27.7767 19.4974L27.9044 17.5881L27.9072 17.5448C27.9845 16.3179 27.5527 15.1071 26.7224 14.2228C25.9185 13.3666 24.8419 12.895 23.6909 12.895Z" fill="#B1E4F9"/>
<path d="M16.9863 26.2521C16.9863 26.0326 16.8085 25.8548 16.5891 25.8548H15.1728C11.7326 25.8548 8.87529 23.069 8.62237 19.4683L8.48896 17.5692C8.4875 17.5484 8.48611 17.5275 8.48479 17.5067C8.35184 15.438 9.93207 13.6895 11.9077 13.6895H17.3836C17.603 13.6895 17.7808 13.5117 17.7808 13.2923C17.7808 13.0729 17.603 12.895 17.3836 12.895H11.9077C10.7566 12.895 9.68014 13.3669 8.87662 14.2237C8.04456 15.1109 7.61274 16.3261 7.69186 17.5576C7.69331 17.58 7.69477 17.6024 7.69636 17.6248L7.82977 19.524C7.96577 21.4601 8.78896 23.256 10.1476 24.5807C11.5159 25.9147 13.3004 26.6493 15.1727 26.6493H16.589C16.8084 26.6493 16.9863 26.4714 16.9863 26.2521Z" fill="#2896FF"/>
<path d="M16.3565 13.1601H17.151C17.151 12.3436 16.6031 11.6154 15.8185 11.3893L13.4988 10.7871C13.2343 10.7088 12.9738 10.4544 12.8342 10.1374L11.754 7.68506C11.5259 7.82946 11.3034 7.98174 11.0869 8.14158L12.1071 10.4577C12.3457 10.9993 12.7854 11.4083 13.2833 11.5518L15.6032 12.1542C16.047 12.2843 16.3565 12.6972 16.3565 13.1601Z" fill="#2896FF"/>
<path d="M23.4911 10.4577L24.5114 8.14164C24.2948 7.98181 24.0724 7.82946 23.8443 7.68506L22.7641 10.1374C22.5663 10.5863 22.5217 10.5992 22.095 10.7222L19.7798 11.3893C18.9952 11.6154 18.4473 12.3436 18.4473 13.1601H19.2418C19.2418 12.6956 19.5535 12.2814 19.9999 12.1528L22.315 11.4856C22.9037 11.3159 23.1749 11.1755 23.4911 10.4577Z" fill="#B1E4F9"/>
<path d="M12.5017 19.1992C12.1512 19.1992 11.8672 18.9151 11.8672 18.5647V17.4355C11.8672 17.0851 12.1513 16.801 12.5017 16.801C12.8521 16.801 13.1362 17.0851 13.1362 17.4355V18.5647C13.1362 18.9152 12.8521 19.1992 12.5017 19.1992Z" fill="#B1E4F9"/>
<path d="M23.0984 19.1992C23.4488 19.1992 23.7328 18.9151 23.7328 18.5647V17.4355C23.7328 17.0851 23.4487 16.801 23.0984 16.801C22.7479 16.801 22.4639 17.0851 22.4639 17.4355V18.5647C22.4639 18.9152 22.7479 19.1992 23.0984 19.1992Z" fill="#6EE1FF"/>
<path d="M13.599 30.8684C13.599 31.9373 13.1175 32.9296 12.2779 33.5911L11.3793 34.2989C10.5553 34.9481 10.0118 35.8566 9.82617 36.8653C10.0707 37.0021 10.3191 37.1328 10.5712 37.2572C10.673 36.3389 11.1341 35.5035 11.871 34.9229L12.7695 34.2151C13.8016 33.4021 14.3935 32.1823 14.3935 30.8683V28.8647H13.599V30.8684Z" fill="#2896FF"/>
<path d="M24.2193 34.2989L23.3207 33.591C22.4811 32.9296 21.9996 31.9371 21.9996 30.8683V28.8647H21.2051V30.8683C21.2051 32.1823 21.797 33.4021 22.8291 34.2151L23.7276 34.9229C24.4639 35.503 24.9249 36.3376 25.0271 37.2551C25.2791 37.1307 25.5275 37.0001 25.772 36.8633C25.5861 35.8554 25.0429 34.9476 24.2193 34.2989Z" fill="#B1E4F9"/>
<path d="M17.9575 38.4079C20.7191 38.4079 22.9579 37.3998 22.9579 36.1562C22.9579 34.9126 20.7191 33.9045 17.9575 33.9045C15.1958 33.9045 12.957 34.9126 12.957 36.1562C12.957 37.3998 15.1958 38.4079 17.9575 38.4079Z" fill="#F1D333"/>
<path d="M17.9574 34.6105C19.2464 34.6105 20.4948 34.8397 21.3822 35.2393C22.1088 35.5665 22.4398 35.9438 22.4398 36.1558C22.4398 36.3678 22.1088 36.745 21.3822 37.0722C20.4947 37.4718 19.2464 37.701 17.9574 37.701C16.6684 37.701 15.42 37.4718 14.5326 37.0722C13.806 36.745 13.475 36.3678 13.475 36.1558C13.475 35.9438 13.806 35.5665 14.5326 35.2393C15.4201 34.8396 16.6684 34.6105 17.9574 34.6105ZM17.9574 33.7498C15.0064 33.7498 12.6143 34.827 12.6143 36.1558C12.6143 37.4845 15.0065 38.5618 17.9574 38.5618C20.9083 38.5618 23.3005 37.4845 23.3005 36.1558C23.3005 34.827 20.9084 33.7498 17.9574 33.7498Z" fill="#E28424"/>
<path d="M18.5036 18.3003L16.7217 20.6597C16.9959 20.7427 17.2867 20.7873 17.588 20.7873C19.0676 20.7873 20.2954 19.7119 20.5342 18.3003H18.5036Z" fill="#B1E4F9"/>
<path d="M10.8887 22.5343C11.602 23.4889 12.6034 24.2115 13.7595 24.5781L16.7198 20.6582L16.8556 19.3107L18.5017 18.2987L21.222 14.6968H16.8077L10.8887 22.5343Z" fill="#50555A"/>
<path d="M14.6406 18.3003C14.8308 19.4245 15.6481 20.3354 16.7204 20.6597L18.5023 18.3003H14.6406Z" fill="#6EE1FF"/>
</g>
</svg>
