<svg id="Layer_1" viewBox="0 0 24 24" xmlns="http://www.w3.org/2000/svg" xmlns:xlink="http://www.w3.org/1999/xlink" data-name="Layer 1" width="300" height="300" version="1.1" xmlns:svgjs="http://svgjs.dev/svgjs"><g width="100%" height="100%" transform="matrix(1,0,0,1,0,0)"><linearGradient id="linear-gradient" gradientUnits="userSpaceOnUse" x1="1.14" x2="23.05" y1="12" y2="12"><stop offset="0" stop-color="#4555a5"/><stop offset=".5" stop-color="#0295cc"/><stop offset=".97" stop-color="#009789"/></linearGradient><linearGradient id="linear-gradient-2" x2="23.05" xlink:href="#linear-gradient" y1="13" y2="13"/><linearGradient id="linear-gradient-3" x2="23.05" xlink:href="#linear-gradient" y1="16" y2="16"/><linearGradient id="linear-gradient-4" xlink:href="#linear-gradient" y1="10.5" y2="10.5"/><linearGradient id="linear-gradient-5" x2="23.05" xlink:href="#linear-gradient" y1="7" y2="7"/><linearGradient id="linear-gradient-6" x2="23.05" xlink:href="#linear-gradient" y1="6.86" y2="6.86"/><path d="m22.06 18.14c-.29-.4-.75-.64-1.24-.64h-5.33v-3.56c.59.34 1.27.56 2 .56 2.21 0 4-1.79 4-4s-1.79-4-4-4c-.73 0-1.41.21-2 .56v-4.06c0-.83-.67-1.5-1.5-1.5h-10.99c-.83 0-1.5.67-1.5 1.5v15c0 1.19.47 2.32 1.32 3.19.86.85 1.99 1.31 3.18 1.31h12c1.19 0 2.32-.47 3.19-1.32.48-.49.85-1.09 1.07-1.73.15-.44.08-.92-.2-1.31zm-1.56-7.64c0 1.65-1.35 3-3 3-.84 0-1.59-.35-2.14-.9 0 0 0-.01-.01-.02-.52-.54-.85-1.27-.85-2.08s.33-1.54.85-2.08c0 0 0-.01.01-.02.54-.55 1.3-.9 2.14-.9 1.65 0 3 1.35 3 3zm-14.5 11c-.93 0-1.81-.36-2.47-1.02-.66-.67-1.03-1.55-1.03-2.48v-15c0-.28.22-.5.5-.5h11c.28 0 .5.22.5.5v4.88c-.61.7-1 1.61-1 2.62s.39 1.91 1 2.62v4.38h-3.6c-.71 0-1.32.5-1.47 1.23-.34 1.61-1.78 2.77-3.42 2.77zm15.31-2.38c-.17.5-.46.97-.84 1.35-.67.66-1.55 1.03-2.48 1.03h-9.18c.79-.63 1.36-1.53 1.58-2.57.05-.25.26-.43.49-.43h9.93c.17 0 .32.08.42.22.05.07.13.22.07.4z" fill="#872d67" data-original-color="linear-gradient" stroke="none" stroke-opacity="1" fill-opacity="1"/><path d="m12.5 13c0-.28-.22-.5-.5-.5h-7c-.28 0-.5.22-.5.5s.22.5.5.5h7c.28 0 .5-.22.5-.5z" fill="#872d67" data-original-color="linear-gradient" stroke="none" stroke-opacity="1" fill-opacity="1"/><path d="m12.5 16c0-.28-.22-.5-.5-.5h-5c-.28 0-.5.22-.5.5s.22.5.5.5h5c.28 0 .5-.22.5-.5z" fill="#872d67" data-original-color="linear-gradient" stroke="none" stroke-opacity="1" fill-opacity="1"/><path d="m17.5 11c.14 0 .25.11.25.25 0 .23-.37.31-.47.12-.07-.2-.25-.33-.47-.33-.28 0-.5.23-.5.5 0 .06.01.13.04.19.12.3.36.53.65.65v.12c0 .28.22.5.5.5s.5-.22.5-.5v-.11c.44-.19.75-.63.75-1.14 0-.69-.56-1.25-1.25-1.25-.14 0-.25-.11-.25-.25 0-.23.36-.32.47-.12.07.2.25.33.47.33.28 0 .5-.23.5-.5 0-.06-.01-.13-.04-.19-.12-.3-.36-.53-.65-.65v-.12c0-.28-.22-.5-.5-.5s-.5.22-.5.5v.11c-.44.19-.75.63-.75 1.14 0 .69.56 1.25 1.25 1.25z" fill="#872d67" data-original-color="linear-gradient" stroke="none" stroke-opacity="1" fill-opacity="1"/><path d="m8.5 10.5c.99 0 1.86-.52 2.33-1.4.47-.87.42-1.89-.13-2.71l-1.78-2.67c-.09-.14-.25-.22-.42-.22s-.32.08-.42.22l-1.78 2.67c-.55.82-.6 1.84-.13 2.71s1.34 1.4 2.33 1.4zm-1.37-3.55 1.37-2.05 1.36 2.05c.34.51.37 1.14.08 1.68s-.83.87-1.45.87-1.16-.32-1.45-.87c-.29-.54-.26-1.17.08-1.68z" fill="#872d67" data-original-color="linear-gradient" stroke="none" stroke-opacity="1" fill-opacity="1"/><path d="m8.9 7.64c.1.14.25.22.42.22.1 0 .19-.03.28-.08.23-.15.29-.46.14-.69l-.66-.99c-.15-.23-.47-.29-.69-.14-.23.15-.29.46-.14.69l.66.99z" fill="#872d67" data-original-color="linear-gradient" stroke="none" stroke-opacity="1" fill-opacity="1"/></g></svg>